<svg xmlns="http://www.w3.org/2000/svg" viewBox="0 0 80 38"><g transform="translate(19.060000000000002,0)"><path d="M32.6684 4.04468L30.9528 35.8528L18.4559 36.9813L11.7761 19.9537L10.7304 37.3109H0L0.862902 4.04468L12.7811 3.48541L21.0345 20.3732L21.4203 4.42418L32.6684 4.04468Z" fill="#FFFAF1"/><path d="M60.941 24.0484C60.941 25.2867 60.7989 26.4752 60.5045 27.6337C60.2101 28.7821 59.7939 29.8607 59.2457 30.8694C58.6975 31.8781 58.0376 32.7969 57.2559 33.6358C56.4743 34.4746 55.6012 35.1937 54.6266 35.7929C53.6521 36.3921 52.5861 36.8615 51.439 37.1911C50.2918 37.5206 49.0736 37.6904 47.7843 37.6904C46.4951 37.6904 45.3581 37.5306 44.2312 37.221C43.1044 36.9114 42.0486 36.472 41.0639 35.9028C40.0791 35.3335 39.1959 34.6544 38.4041 33.8655C37.6122 33.0665 36.9321 32.1877 36.3737 31.2089C35.8154 30.2402 35.3789 29.1916 35.0641 28.0731C34.7494 26.9545 34.5972 25.7961 34.5972 24.5877C34.5972 23.3793 34.7393 22.2407 35.0337 21.1122C35.3281 19.9737 35.7443 18.9051 36.2925 17.8965C36.8407 16.8878 37.5006 15.969 38.2721 15.1201C39.0436 14.2812 39.9167 13.5522 40.871 12.933C41.8354 12.3238 42.8709 11.8444 43.9876 11.5049C45.1043 11.1653 46.292 10.9955 47.5305 10.9955C49.5304 10.9955 51.3679 11.3051 53.0125 11.9143C54.6571 12.5235 56.0783 13.4024 57.2458 14.5309C58.4132 15.6694 59.3168 17.0376 59.9665 18.6555C60.606 20.2633 60.9309 22.071 60.9309 24.0484H60.941ZM51.3375 24.5777C51.3375 24.0484 51.2562 23.539 51.104 23.0397C50.9517 22.5404 50.7182 22.1009 50.4238 21.7114C50.1192 21.322 49.7538 21.0124 49.3071 20.7727C48.8604 20.533 48.3528 20.4132 47.7843 20.4132C47.2158 20.4132 46.6676 20.513 46.2108 20.7227C45.7438 20.9325 45.3479 21.2221 45.023 21.5816C44.688 21.9411 44.4342 22.3706 44.2617 22.8499C44.0891 23.3393 43.9977 23.8486 43.9977 24.3879C43.9977 24.9272 44.0688 25.4166 44.2211 25.9359C44.3733 26.4552 44.5967 26.9146 44.8911 27.334C45.1956 27.7535 45.5611 28.093 46.0078 28.3527C46.4544 28.6124 46.962 28.7422 47.5508 28.7422C48.1396 28.7422 48.6675 28.6323 49.1345 28.4026C49.6015 28.1729 49.9974 27.8633 50.3223 27.4838C50.6471 27.0944 50.9009 26.6549 51.0735 26.1456C51.2461 25.6463 51.3375 25.117 51.3375 24.5777Z" fill="#FFFAF1"/></g></svg>