<svg width="80" height="37" viewBox="0 0 80 37" fill="none" xmlns="http://www.w3.org/2000/svg">
<g clip-path="url(#clip0_20_432)">
<path d="M32.8842 2.17931L21.2082 21.2484L21.5594 35.305H8.79334L9.09614 21.3452L0 2.92996L12.6692 1.3439L16.6419 12.071L20.9659 1.3439L32.8842 2.19142V2.17931Z" fill="#93D3FF"/>
<path d="M51.4399 17.6525C51.2582 16.6234 50.9918 15.6306 50.6405 14.6983C50.2772 13.766 49.8169 12.8822 49.2597 12.0952C48.6905 11.2961 48.0243 10.5939 47.2491 10.0249C46.4861 9.44372 45.5898 8.98365 44.6208 8.65675C43.6398 8.32985 42.5497 8.17245 41.3748 8.17245C39.9698 8.17245 38.6738 8.37828 37.5111 8.78993C36.3483 9.20158 35.2825 9.77062 34.3619 10.4971C33.4414 11.2114 32.6299 12.071 31.9395 13.0275C31.2613 13.984 30.6799 15.0373 30.2317 16.1512C29.7836 17.2651 29.4445 18.4274 29.2264 19.626C29.0084 20.8246 28.8994 22.0353 28.8994 23.2219C28.8994 24.4084 29.0084 25.5223 29.2264 26.6361C29.4445 27.7621 29.7715 28.8397 30.2075 29.8567C30.6314 30.8737 31.1886 31.8302 31.8426 32.6898C32.4967 33.5615 33.284 34.3243 34.156 34.966C35.0402 35.6077 36.0334 36.1162 37.1114 36.4673C38.1893 36.8184 39.4005 37 40.6965 37C41.3142 37 41.9683 36.9637 42.6102 36.8789C43.2643 36.8063 43.9183 36.6731 44.5482 36.5036C45.1901 36.3341 45.8199 36.1041 46.4255 35.8256C47.0311 35.5471 47.6004 35.196 48.1333 34.7965L48.3392 34.6391L49.3809 24.7474C49.8896 24.699 50.4104 24.6626 50.9191 24.6384L51.4157 24.6021L51.4884 24.1178C51.6458 23.0039 51.7185 21.878 51.7185 20.7641C51.7185 19.6502 51.6337 18.6574 51.452 17.6283L51.4399 17.6525ZM39.6065 18.4516C39.8366 18.1126 40.1152 17.822 40.4422 17.592C40.7208 17.3982 41.0357 17.3014 41.4111 17.3014C41.7018 17.3014 41.9199 17.3619 42.0894 17.483C42.2953 17.6283 42.4528 17.7978 42.5739 18.0278C42.7071 18.27 42.8161 18.5484 42.8767 18.8511C42.9373 19.1296 42.9615 19.4081 42.9736 19.6744L38.8434 20.0619C38.8918 19.9287 38.9403 19.7834 38.9887 19.6381C39.1462 19.2143 39.3521 18.8148 39.5943 18.4516H39.6065ZM48.315 25.3164C47.9395 25.5707 47.4793 25.8613 46.9585 26.1761C46.4376 26.4908 45.8926 26.7814 45.3233 27.0599C44.7662 27.3263 44.1969 27.5563 43.6276 27.7379C42.0894 28.2222 40.9509 28.0164 40.0546 27.3141C39.6307 26.9872 39.3037 26.5998 39.0372 26.1155C40.8903 25.8492 42.7435 25.5828 44.5845 25.3164C46.0743 25.0985 47.5762 24.929 49.0902 24.7958L48.3271 25.3164H48.315Z" fill="#93D3FF"/>
<path d="M80 23.0887C80 25.3528 79.6124 27.3141 78.8251 28.9607C78.0378 30.6073 76.9598 31.9634 75.5912 33.0288C74.2225 34.0942 72.6237 34.8812 70.7948 35.3897C68.9659 35.8982 67.0037 36.1525 64.8962 36.1525C64.0847 36.1525 63.2006 36.0435 62.2316 35.8256C61.2626 35.6077 60.2816 35.3413 59.2884 35.0144C58.2952 34.6875 57.3383 34.3485 56.4178 33.9732C55.4973 33.5978 54.6858 33.2467 53.9712 32.9198L55.0613 23.1855C56.4663 24.0331 58.0287 24.6747 59.7486 25.1106C61.4685 25.5465 63.1521 25.7644 64.7993 25.7644C65.1143 25.7644 65.4897 25.7523 65.9379 25.7281C66.386 25.7039 66.8099 25.6312 67.2218 25.5101C67.6336 25.3891 67.9727 25.1954 68.2513 24.9532C68.5299 24.7111 68.6752 24.3478 68.6752 23.8878C68.6752 23.573 68.5783 23.3066 68.3724 23.0766C68.1665 22.8465 67.9121 22.677 67.5972 22.5317C67.2823 22.3865 66.9311 22.2775 66.5314 22.2048C66.1317 22.1322 65.7441 22.0717 65.3686 22.0474C64.9931 22.0232 64.6298 21.999 64.3028 21.999H63.5034C62.0741 21.999 60.7782 21.7811 59.6154 21.3331C58.4526 20.8851 57.4473 20.2556 56.6116 19.4323C55.7759 18.609 55.1218 17.6162 54.6616 16.4539C54.2013 15.2916 53.9712 13.9961 53.9712 12.5674C53.9712 10.6181 54.3588 8.86257 55.1461 7.31283C55.9333 5.76309 56.9871 4.44339 58.2952 3.36584C59.6033 2.28829 61.1173 1.45288 62.8251 0.871728C64.5329 0.290576 66.2891 0 68.118 0C68.9296 0 69.7653 0.0242147 70.6252 0.0847513C71.4852 0.145288 72.3451 0.242147 73.193 0.399542C74.0408 0.556937 74.8766 0.738547 75.6881 0.968586C76.4996 1.19863 77.2747 1.4892 78.0015 1.84031L77.0567 11.9257C75.9303 11.5504 74.7554 11.2235 73.52 10.9692C72.2846 10.715 71.0855 10.5818 69.9106 10.5818C69.6926 10.5818 69.414 10.5818 69.0749 10.5939C68.7358 10.606 68.3845 10.6302 68.009 10.6666C67.6336 10.7029 67.2581 10.7755 66.8826 10.8482C66.5071 10.9208 66.168 11.0419 65.8652 11.1872C65.5624 11.3325 65.3323 11.5141 65.1506 11.7441C64.9689 11.9741 64.8841 12.2526 64.8962 12.5674C64.9084 12.9306 65.0537 13.2091 65.3081 13.4149C65.5624 13.6207 65.9015 13.7539 66.3012 13.8508C66.7009 13.9476 67.1491 13.984 67.6457 13.984C68.1423 13.984 68.6146 13.9719 69.0991 13.9476C69.5836 13.9234 70.0317 13.8992 70.4436 13.875C70.8554 13.8508 71.1945 13.8508 71.461 13.8629C72.7812 13.9476 73.9803 14.2261 75.034 14.7104C76.0878 15.1947 76.9962 15.8243 77.735 16.6234C78.4738 17.4224 79.031 18.3668 79.4186 19.4686C79.8062 20.5704 80 21.7811 80 23.1008V23.0887Z" fill="#93D3FF"/>
</g>
<defs>
<clipPath id="clip0_20_432">
<rect width="80" height="37" fill="white"/>
</clipPath>
</defs>
</svg>
