<svg width="244" height="38" viewBox="0 0 244 38" fill="none" xmlns="http://www.w3.org/2000/svg">
<g clip-path="url(#clip0_20_408)">
<path d="M32.6684 4.04468L30.9528 35.8528L18.4559 36.9813L11.7761 19.9537L10.7304 37.3109H0L0.862902 4.04468L12.7811 3.48541L21.0345 20.3732L21.4203 4.42418L32.6684 4.04468Z" fill="#FFFAF1"/>
<path d="M60.941 24.0484C60.941 25.2867 60.7989 26.4752 60.5045 27.6337C60.2101 28.7821 59.7939 29.8607 59.2457 30.8694C58.6975 31.8781 58.0376 32.7969 57.2559 33.6358C56.4743 34.4746 55.6012 35.1937 54.6266 35.7929C53.6521 36.3921 52.5861 36.8615 51.439 37.1911C50.2918 37.5206 49.0736 37.6904 47.7843 37.6904C46.4951 37.6904 45.3581 37.5306 44.2312 37.221C43.1044 36.9114 42.0486 36.472 41.0639 35.9028C40.0791 35.3335 39.1959 34.6544 38.4041 33.8655C37.6122 33.0665 36.9321 32.1877 36.3737 31.2089C35.8154 30.2402 35.3789 29.1916 35.0641 28.0731C34.7494 26.9545 34.5972 25.7961 34.5972 24.5877C34.5972 23.3793 34.7393 22.2407 35.0337 21.1122C35.3281 19.9737 35.7443 18.9051 36.2925 17.8965C36.8407 16.8878 37.5006 15.969 38.2721 15.1201C39.0436 14.2812 39.9167 13.5522 40.871 12.933C41.8354 12.3238 42.8709 11.8444 43.9876 11.5049C45.1043 11.1653 46.292 10.9955 47.5305 10.9955C49.5304 10.9955 51.3679 11.3051 53.0125 11.9143C54.6571 12.5235 56.0783 13.4024 57.2458 14.5309C58.4132 15.6694 59.3168 17.0376 59.9665 18.6555C60.606 20.2633 60.9309 22.071 60.9309 24.0484H60.941ZM51.3375 24.5777C51.3375 24.0484 51.2562 23.539 51.104 23.0397C50.9517 22.5404 50.7182 22.1009 50.4238 21.7114C50.1192 21.322 49.7538 21.0124 49.3071 20.7727C48.8604 20.533 48.3528 20.4132 47.7843 20.4132C47.2158 20.4132 46.6676 20.513 46.2108 20.7227C45.7438 20.9325 45.3479 21.2221 45.023 21.5816C44.688 21.9411 44.4342 22.3706 44.2617 22.8499C44.0891 23.3393 43.9977 23.8486 43.9977 24.3879C43.9977 24.9272 44.0688 25.4166 44.2211 25.9359C44.3733 26.4552 44.5967 26.9146 44.8911 27.334C45.1956 27.7535 45.5611 28.093 46.0078 28.3527C46.4544 28.6124 46.962 28.7422 47.5508 28.7422C48.1396 28.7422 48.6675 28.6323 49.1345 28.4026C49.6015 28.1729 49.9974 27.8633 50.3223 27.4838C50.6471 27.0944 50.9009 26.6549 51.0735 26.1456C51.2461 25.6463 51.3375 25.117 51.3375 24.5777Z" fill="#FFFAF1"/>
<path d="M86.0569 3.85492C85.9655 5.32299 85.8742 6.78107 85.7929 8.21918C85.7117 9.65728 85.6102 11.1154 85.4782 12.5834L75.3671 13.1028L75.1336 16.0589H82.2398L81.7119 23.3293L74.5549 23.559L74.3214 26.9845H84.4326C84.3412 28.7022 84.2397 30.41 84.1382 32.1077C84.0367 33.8055 83.9453 35.5033 83.8641 37.211L63.3169 37.6804L64.0783 3.85492H86.0569Z" fill="#FFFAF1"/>
<path d="M147.516 32.4174C146.765 33.3362 145.851 34.1451 144.755 34.8342C143.658 35.5233 142.481 36.0925 141.222 36.5419C139.963 36.9913 138.674 37.3309 137.364 37.5606C136.045 37.7903 134.786 37.9002 133.598 37.9002C131.293 37.9002 129.172 37.5206 127.233 36.7517C125.294 35.9827 123.619 34.9141 122.218 33.5459C120.807 32.1777 119.71 30.5498 118.918 28.6523C118.127 26.7648 117.731 24.6975 117.731 22.4605C117.731 20.7527 117.934 19.0949 118.33 17.487C118.726 15.8791 119.294 14.3711 120.035 12.963C120.776 11.5548 121.68 10.2665 122.746 9.08806C123.812 7.9196 125.02 6.91093 126.37 6.06205C127.72 5.21316 129.202 4.56402 130.816 4.10462C132.43 3.64523 134.146 3.41553 135.953 3.41553C136.633 3.41553 137.364 3.44549 138.146 3.49542C138.928 3.55534 139.699 3.64523 140.471 3.77505C141.242 3.90488 141.993 4.09463 142.724 4.32433C143.455 4.55403 144.125 4.84365 144.724 5.19319L144.054 14.1514C143.161 13.8218 142.247 13.6021 141.303 13.4823C140.359 13.3624 139.435 13.3025 138.522 13.3025C137.253 13.3025 136.065 13.4723 134.958 13.8019C133.852 14.1414 132.887 14.6308 132.075 15.2899C131.253 15.949 130.613 16.768 130.136 17.7567C129.659 18.7454 129.426 19.8839 129.426 21.1821C129.426 21.9911 129.537 22.78 129.761 23.539C129.984 24.298 130.319 24.9672 130.776 25.5564C131.233 26.1456 131.791 26.615 132.471 26.9745C133.151 27.3341 133.933 27.5138 134.816 27.5138C135.415 27.5138 136.045 27.4339 136.684 27.2841C137.324 27.1243 137.882 26.8647 138.339 26.4852L138.43 24.6576L132.705 24.5677L132.989 17.527C135.354 17.4471 137.73 17.3871 140.095 17.3272C142.46 17.2773 144.846 17.1974 147.252 17.1075L147.536 32.3974L147.516 32.4174Z" fill="#FFFAF1"/>
<path d="M171.251 25.2468L170.246 35.6631L150.176 37.211L150.937 3.71512H163.332L161.566 25.2468H171.251Z" fill="#FFFAF1"/>
<path d="M185.067 13.8118L183.869 36.7417L174.621 37.1112L173.941 14.2812L185.077 13.8118H185.067Z" fill="#FFFAF1"/>
<path d="M214.02 25.6662C214.02 27.8134 213.644 29.661 212.883 31.209C212.132 32.7669 211.096 34.0452 209.787 35.0539C208.477 36.0626 206.944 36.8016 205.188 37.281C203.432 37.7603 201.543 38 199.523 38C198.742 38 197.889 37.9002 196.965 37.6904C196.041 37.4807 195.097 37.231 194.143 36.9314C193.189 36.6318 192.275 36.3023 191.392 35.9427C190.508 35.5932 189.727 35.2536 189.047 34.944L190.092 25.7461C191.442 26.5451 192.945 27.1543 194.589 27.5637C196.234 27.9832 197.848 28.1829 199.442 28.1829C199.747 28.1829 200.112 28.1729 200.538 28.143C200.965 28.113 201.381 28.0531 201.767 27.9333C202.153 27.8134 202.488 27.6436 202.752 27.404C203.026 27.1743 203.158 26.8347 203.158 26.3953C203.158 26.0957 203.066 25.846 202.873 25.6363C202.68 25.4266 202.437 25.2568 202.132 25.117C201.828 24.9871 201.493 24.8873 201.107 24.8074C200.721 24.7375 200.356 24.6875 199.99 24.6576C199.625 24.6276 199.28 24.6076 198.965 24.6076H198.204C196.833 24.6076 195.595 24.3979 194.478 23.9785C193.361 23.559 192.397 22.9598 191.595 22.1808C190.793 21.4118 190.163 20.4731 189.727 19.3645C189.28 18.266 189.057 17.0376 189.057 15.6894C189.057 13.8418 189.432 12.194 190.194 10.7259C190.945 9.26782 191.96 8.01946 193.219 7.0008C194.488 5.97216 195.93 5.19318 197.574 4.6439C199.209 4.09463 200.904 3.82498 202.65 3.82498C203.432 3.82498 204.234 3.85494 205.056 3.90488C205.878 3.9648 206.701 4.05468 207.523 4.1945C208.345 4.33431 209.137 4.51407 209.919 4.73379C210.7 4.9535 211.431 5.22314 212.132 5.55271L211.228 15.0802C210.152 14.7206 209.015 14.421 207.827 14.1814C206.64 13.9417 205.482 13.8218 204.356 13.8218C204.152 13.8218 203.878 13.8218 203.554 13.8318C203.229 13.8318 202.884 13.8618 202.528 13.9017C202.173 13.9417 201.807 14.0016 201.442 14.0815C201.076 14.1614 200.752 14.2613 200.467 14.4011C200.183 14.5309 199.95 14.7107 199.777 14.9304C199.604 15.1501 199.523 15.4097 199.533 15.7093C199.554 16.0489 199.676 16.3185 199.929 16.5083C200.173 16.698 200.498 16.8379 200.884 16.9178C201.269 16.9977 201.706 17.0476 202.173 17.0476C202.64 17.0476 203.107 17.0376 203.564 17.0076C204.021 16.9777 204.457 16.9577 204.853 16.9377C205.249 16.9178 205.574 16.9078 205.828 16.9277C207.097 17.0076 208.244 17.2673 209.259 17.7267C210.274 18.1761 211.137 18.7853 211.848 19.5343C212.558 20.2833 213.096 21.1821 213.472 22.2208C213.847 23.2594 214.03 24.4079 214.03 25.6563L214.02 25.6662Z" fill="#FFFAF1"/>
<path d="M243.846 36.7417L231.928 37.3009L231.836 27.404H226.355L226.02 37.6804H215.34L216.243 4.70383L227.593 5.22314L226.882 22.061H232.172L232.222 4.42419L243.095 4.70383L243.856 36.7417H243.846Z" fill="#FFFAF1"/>
<path d="M115.03 36.6018C115.071 35.0339 115.081 33.446 115.081 31.8381V29.0018C115.081 27.9632 115.061 26.8946 115.01 25.7861C114.959 24.6775 114.858 23.549 114.715 22.4105C114.573 21.262 114.36 20.1734 114.086 19.1148C113.812 18.0662 113.447 17.0675 113 16.1388C112.553 15.21 111.995 14.401 111.335 13.7219C110.675 13.0428 109.873 12.5035 108.949 12.1041C108.025 11.7046 106.949 11.5049 105.721 11.5049C105.061 11.5049 104.422 11.5947 103.823 11.7745C103.224 11.9543 102.655 12.1939 102.117 12.5035C101.579 12.8131 101.082 13.1727 100.615 13.6021C100.148 14.0315 99.7111 14.4809 99.3051 14.9703L99.3964 11.5548L89.1635 12.0641C89.001 17.0775 88.7878 22.0709 88.5239 27.0344C88.3513 30.2302 88.1686 33.466 87.9858 36.6917L98.8686 36.1624C98.8787 35.4533 98.9092 34.7243 98.9193 34.0252C98.9599 31.5485 99.0208 29.0418 99.0919 26.5251C99.0919 26.2155 99.102 25.806 99.1223 25.3167C99.1426 24.8273 99.1833 24.308 99.2543 23.7487C99.3152 23.1895 99.4167 22.6402 99.5487 22.0809C99.6807 21.5217 99.8533 21.0223 100.077 20.5729C100.3 20.1235 100.584 19.764 100.919 19.4744C101.254 19.1947 101.67 19.0449 102.168 19.0449C102.442 19.0449 102.675 19.1947 102.868 19.4844C103.061 19.774 103.234 20.1535 103.366 20.6029C103.498 21.0623 103.609 21.5616 103.691 22.1109C103.772 22.6602 103.833 23.1895 103.873 23.7088C103.914 24.2281 103.944 24.6975 103.965 25.107C103.975 25.5164 103.985 25.816 103.985 26.0058C103.985 28.5624 103.823 31.0991 103.508 33.6058C103.386 34.5545 103.254 35.5033 103.112 36.452L115.02 36.7117C115.02 36.7117 115.02 36.6518 115.02 36.6218L115.03 36.6018Z" fill="#FFFAF1"/>
<path d="M179.494 10.9057C182.555 10.9057 185.037 8.46434 185.037 5.45283C185.037 2.44131 182.555 0 179.494 0C176.433 0 173.951 2.44131 173.951 5.45283C173.951 8.46434 176.433 10.9057 179.494 10.9057Z" fill="#FFFAF1"/>
</g>
<defs>
<clipPath id="clip0_20_408">
<rect width="244" height="38" fill="white"/>
</clipPath>
</defs>
</svg>
