<svg width="61" height="35" viewBox="0 0 61 35" fill="none" xmlns="http://www.w3.org/2000/svg">
<path d="M32.7 0.559804L30.9827 32.3987L18.4738 33.5283L11.7874 16.4842L10.7408 33.8582H0L0.863735 0.559804L12.7934 0L21.0548 16.9041L21.4409 0.939671L32.7 0.559804Z" fill="#FFB4D4"/>
<path d="M60.9999 20.5828C60.9999 21.8224 60.8576 23.012 60.5629 24.1716C60.2682 25.3212 59.8516 26.4008 59.3029 27.4104C58.7542 28.4201 58.0937 29.3397 57.3112 30.1795C56.5288 31.0192 55.6549 31.7389 54.6794 32.3387C53.7039 32.9385 52.6369 33.4083 51.4886 33.7382C50.3404 34.0681 49.121 34.238 47.8305 34.238C46.5399 34.238 45.4018 34.0781 44.2739 33.7682C43.146 33.4583 42.0892 33.0185 41.1035 32.4487C40.1178 31.8789 39.2338 31.1991 38.4412 30.4094C37.6486 29.6096 36.9677 28.73 36.4088 27.7503C35.85 26.7806 35.413 25.731 35.098 24.6114C34.783 23.4918 34.6306 22.3322 34.6306 21.1226C34.6306 19.913 34.7728 18.7734 35.0675 17.6438C35.3622 16.5042 35.7788 15.4346 36.3276 14.425C36.8763 13.4153 37.5368 12.4956 38.3091 11.6459C39.0813 10.8062 39.9552 10.0765 40.9104 9.4567C41.8758 8.84692 42.9123 8.36709 44.03 8.0272C45.1478 7.68732 46.3367 7.51738 47.5764 7.51738C49.5783 7.51738 51.4175 7.82727 53.0637 8.43706C54.7099 9.04685 56.1325 9.92654 57.3011 11.0561C58.4696 12.1957 59.374 13.5653 60.0244 15.1847C60.6645 16.7941 60.9897 18.6035 60.9897 20.5828H60.9999ZM51.387 21.1126C51.387 20.5828 51.3057 20.073 51.1533 19.5732C51.0009 19.0733 50.7672 18.6335 50.4725 18.2436C50.1676 17.8538 49.8018 17.5439 49.3547 17.304C48.9076 17.064 48.3995 16.9441 47.8305 16.9441C47.2614 16.9441 46.7127 17.044 46.2554 17.254C45.788 17.4639 45.3917 17.7538 45.0665 18.1137C44.7312 18.4735 44.4771 18.9034 44.3044 19.3832C44.1316 19.8731 44.0402 20.3829 44.0402 20.9227C44.0402 21.4625 44.1113 21.9523 44.2638 22.4721C44.4162 22.992 44.6397 23.4518 44.9344 23.8717C45.2393 24.2915 45.6051 24.6314 46.0522 24.8913C46.4993 25.1512 47.0074 25.2812 47.5968 25.2812C48.1861 25.2812 48.7145 25.1712 49.182 24.9413C49.6494 24.7114 50.0457 24.4015 50.3709 24.0216C50.696 23.6317 50.9501 23.1919 51.1228 22.6821C51.2956 22.1823 51.387 21.6524 51.387 21.1126Z" fill="#FFB4D4"/>
</svg>
