<svg width="58" height="34" viewBox="0 0 58 34" fill="none" xmlns="http://www.w3.org/2000/svg">
<path d="M57.9898 32.5892L45.9714 33.1532L45.8792 23.173H40.3512L40.0133 33.5359H29.2439L30.155 0.281984L41.6001 0.805667L40.8835 17.7851H46.217L46.2682 0L57.2322 0.281984L58 32.5892H57.9898Z" fill="#D8ED77"/>
<path d="M26.5654 19.213C26.5654 20.4618 26.4221 21.6602 26.1252 22.8285C25.8283 23.9866 25.4086 25.0743 24.8558 26.0914C24.303 27.1086 23.6376 28.0351 22.8493 28.881C22.0611 29.727 21.1807 30.4521 20.1979 31.0563C19.2151 31.6606 18.1402 32.1339 16.9834 32.4663C15.8266 32.7986 14.5982 32.9698 13.2981 32.9698C11.9979 32.9698 10.8514 32.8087 9.71505 32.4965C8.57873 32.1843 7.51407 31.7412 6.52106 31.1671C5.52806 30.5931 4.63743 29.9083 3.83893 29.1127C3.04043 28.307 2.35454 27.4208 1.7915 26.4338C1.22846 25.457 0.788259 24.3995 0.470908 23.2716C0.153556 22.1436 0 20.9754 0 19.7569C0 18.5383 0.143316 17.3902 0.440194 16.2522C0.737071 15.1041 1.1568 14.0266 1.7096 13.0094C2.26241 11.9922 2.92782 11.0657 3.70585 10.2097C4.48387 9.36376 5.36426 8.62859 6.32655 8.00419C7.29908 7.38987 8.34328 6.90647 9.46936 6.56407C10.5954 6.22166 11.7932 6.05045 13.0421 6.05045C15.0588 6.05045 16.9118 6.36265 18.5702 6.97697C20.2286 7.59129 21.6618 8.47752 22.8391 9.61553C24.0163 10.7636 24.9275 12.1433 25.5826 13.7748C26.2276 15.3962 26.5552 17.219 26.5552 19.213H26.5654ZM16.8811 19.7468C16.8811 19.213 16.7992 18.6994 16.6456 18.1959C16.492 17.6923 16.2566 17.2492 15.9597 16.8565C15.6526 16.4637 15.2841 16.1515 14.8336 15.9098C14.3832 15.6681 13.8713 15.5473 13.2981 15.5473C12.7248 15.5473 12.172 15.648 11.7113 15.8594C11.2404 16.0709 10.8411 16.363 10.5135 16.7255C10.1757 17.0881 9.91979 17.5211 9.74576 18.0045C9.57173 18.498 9.4796 19.0116 9.4796 19.5554C9.4796 20.0993 9.55126 20.5927 9.70482 21.1164C9.85837 21.6401 10.0836 22.1034 10.3805 22.5263C10.6876 22.9493 11.0561 23.2917 11.5066 23.5536C11.957 23.8154 12.4688 23.9463 13.0626 23.9463C13.6564 23.9463 14.1887 23.8355 14.6596 23.6039C15.1305 23.3723 15.5298 23.0601 15.8573 22.6774C16.1849 22.2846 16.4409 21.8415 16.6149 21.3279C16.7889 20.8244 16.8811 20.2906 16.8811 19.7468Z" fill="#D8ED77"/>
</svg>
