<?xml version="1.0" encoding="UTF-8"?>
<svg id="effect_1" xmlns="http://www.w3.org/2000/svg" viewBox="0 0 167.46 140">
  <defs>
    <style>
      .cls-1 {
        fill: none;
      }

      .cls-1, .cls-2 {
        stroke-linecap: round;
        stroke-linejoin: round;
        stroke-width: 2px;
      }

      .cls-1, .cls-2, .cls-3 {
        stroke: #000;
      }

      .cls-4, .cls-2 {
        fill: #fdb259;
      }

      .cls-5 {
        fill: #fff;
      }

      .cls-6 {
        opacity: .5;
      }

      .cls-3 {
        stroke-miterlimit: 10;
      }
    </style>
  </defs>
  <path class="cls-2" d="M86.85,109.64c1.57,1.29,2.95,2.82,4.07,4.51.83,1.25,1.52,2.59,2.13,3.96.82,1.83,1.94,4.03,2.19,6.03.19,1.54.29,3.16.45,4.73.16,1.54.33,2.66,1.08,3.59.7.86,1.6,1.22,3.33,1.43,1.08.13,2.44,1.12,4.04,1.19,1.3.05,2.74-.02,4.15-.07s2.84-.15,4.15-.35c1.48-.23,2.71-1.14,3.82-1.64,1.47-.66,2.71-1.37,2.96-2.65s-.25-2.34-.85-3.18c-.65-.91-1.64-1.48-2.62-1.95-1.6-.77-2.55.44-3.22-1.1-.77-1.76-.08-1.96-.18-3.88-.07-1.37.39-2.74.21-4.11-.1-.79-.58-1.55-.89-2.29-.38-.92-.74-1.85-1.2-2.73-.82-1.58-2.04-3.07-3.73-3.62"/>
  <g>
    <path class="cls-5" d="M111.99,24.17c.76-.7.81-.27,1.78-1.1.45-.38.85-1,1.45-1.49.5-.41,1-.89,1.58-1.34.52-.41,1.09-.81,1.67-1.23s1.13-.77,1.71-1.17,1.37-.42,1.95-.79,1-1.02,1.59-1.36,1.17-.78,1.78-1.08c.64-.31,1.31-.54,1.93-.78.68-.26,1.39-.29,2.03-.43.73-.16,1.38-.1,2.01-.05.73.05,1.34.09,1.91.46s.98.89,1.37,1.47.9,1.05,1.11,1.75c.19.63.23,1.34.32,2.06.08.66.14,1.35.14,2.07,0,.67.07,1.38.01,2.08s-.52,1.32-.62,2.01.19,1.43.06,2.12-.82,1.24-.98,1.91-.09,1.41-.27,2.07-.53,1.3-.72,1.95c-.21.69.24,1.57.03,2.19-.23.7-.8,1.25-1.02,1.85-.26.73-.27,1.48-.49,2.03-.47,1.2-.74.82-1.15,1.77"/>
    <path class="cls-1" d="M111.99,24.17c.76-.7.81-.27,1.78-1.1.45-.38.85-1,1.45-1.49.5-.41,1-.89,1.58-1.34.52-.41,1.09-.81,1.67-1.23s1.13-.77,1.71-1.17,1.37-.42,1.95-.79,1-1.02,1.59-1.36,1.17-.78,1.78-1.08c.64-.31,1.31-.54,1.93-.78.68-.26,1.39-.29,2.03-.43.73-.16,1.38-.1,2.01-.05.73.05,1.34.09,1.91.46s.98.89,1.37,1.47.9,1.05,1.11,1.75c.19.63.23,1.34.32,2.06.08.66.14,1.35.14,2.07,0,.67.07,1.38.01,2.08s-.52,1.32-.62,2.01.19,1.43.06,2.12-.82,1.24-.98,1.91-.09,1.41-.27,2.07-.53,1.3-.72,1.95c-.21.69.24,1.57.03,2.19-.23.7-.8,1.25-1.02,1.85-.26.73-.27,1.48-.49,2.03-.47,1.2-.74.82-1.15,1.77"/>
  </g>
  <g>
    <path class="cls-4" d="M69.85,78.24c-.65.31-1.54.02-2.19.26s-1.29.53-1.96.73-1.25.84-1.93.98-1.47-.25-2.16-.17-1.36.77-2.06.79-1.44-.03-2.14-.07-1.4-.31-2.1-.41-1.32-.59-2-.75-1.59.39-2.25.17-1.2-.89-1.85-1.16-1.42-.32-2.05-.64-1.02-1.09-1.62-1.45-1.13-.82-1.71-1.22-1.44-.43-1.99-.87-.85-1.19-1.37-1.66-1.21-.79-1.69-1.29-1.12-.92-1.57-1.45-.47-1.45-.88-2c-.43-.58-1.29-.86-1.65-1.44-.39-.63-.45-1.48-.91-2.01-.49-.57-1.13-.97-1.66-1.42-.58-.48-1.2-.85-1.8-1.19-.67-.38-1.39-.44-2.04-.63-.76-.22-1.39-.46-2.05-.41-.79.05-1.21.47-1.72.93s-1.47.49-1.82,1.04-.08,1.41-.27,2.06-.59,1.19-.62,1.88c-.02.63.35,1.25.46,1.93.1.62.4,1.18.61,1.84.2.6.42,1.17.71,1.8.27.58.48,1.17.83,1.77.33.55.77,1.02,1.17,1.58.37.53.49,1.32.98,1.93.42.52,1.07.9,1.57,1.47.45.51.86,1.1,1.38,1.63.49.49.56,1.46,1.1,1.96.51.47,1.35.62,1.92,1.09s1.01,1.02,1.6,1.46,1.42.45,2.03.85,1.07.95,1.7,1.31,1.28.61,1.93.93,1.37.38,2.04.67,1.08,1.14,1.77,1.38,1.46.14,2.16.34,1.24.95,1.95,1.11,1.46.04,2.18.15,1.45-.09,2.18-.02,1.42-.01,2.15.01,1.41.16,2.14.14,1.42-.07,2.15-.13,1.37-.46,2.1-.55"/>
    <path class="cls-1" d="M69.85,78.24c-.65.31-1.54.02-2.19.26s-1.29.53-1.96.73-1.25.84-1.93.98-1.47-.25-2.16-.17-1.36.77-2.06.79-1.44-.03-2.14-.07-1.4-.31-2.1-.41-1.32-.59-2-.75-1.59.39-2.25.17-1.2-.89-1.85-1.16-1.42-.32-2.05-.64-1.02-1.09-1.62-1.45-1.13-.82-1.71-1.22-1.44-.43-1.99-.87-.85-1.19-1.37-1.66-1.21-.79-1.69-1.29-1.12-.92-1.57-1.45-.47-1.45-.88-2c-.43-.58-1.29-.86-1.65-1.44-.39-.63-.45-1.48-.91-2.01-.49-.57-1.13-.97-1.66-1.42-.58-.48-1.2-.85-1.8-1.19-.67-.38-1.39-.44-2.04-.63-.76-.22-1.39-.46-2.05-.41-.79.05-1.21.47-1.72.93s-1.47.49-1.82,1.04-.08,1.41-.27,2.06-.59,1.19-.62,1.88c-.02.63.35,1.25.46,1.93.1.62.4,1.18.61,1.84.2.6.42,1.17.71,1.8.27.58.48,1.17.83,1.77.33.55.77,1.02,1.17,1.58.37.53.49,1.32.98,1.93.42.52,1.07.9,1.57,1.47.45.51.86,1.1,1.38,1.63.49.49.56,1.46,1.1,1.96.51.47,1.35.62,1.92,1.09s1.01,1.02,1.6,1.46,1.42.45,2.03.85,1.07.95,1.7,1.31,1.28.61,1.93.93,1.37.38,2.04.67,1.08,1.14,1.77,1.38,1.46.14,2.16.34,1.24.95,1.95,1.11,1.46.04,2.18.15,1.45-.09,2.18-.02,1.42-.01,2.15.01,1.41.16,2.14.14,1.42-.07,2.15-.13,1.37-.46,2.1-.55"/>
  </g>
  <g>
    <path class="cls-4" d="M80.71,102.82c-1.24,1.63-.74,1.56-2.21,3.48-.74.97-1.91,1.85-2.81,3.01-.82,1.07-1.75,2.12-2.59,3.19-.9,1.15-1.34,2.59-2.12,3.56-1.17,1.47-1.99,2.77-2.48,3.3-1.08,1.16-2.88,1.91-3.54,3.24s-.26,2.82.69,4.61c.4.75,1.37,1.62,2.59,2.71.86.78,1.59,1.94,2.7,2.75,1.01.74,2.12,1.44,3.22,2.11s2.16,1.57,3.27,2.09c1.28.59,2.79.2,3.88.44,1.57.34,2.43.36,3.21-.38,1.35-1.28,1.74-2.42,1.51-3.82-.37-2.24-1.58-1.84-1.32-4.13.19-1.73.83-1.29,1.86-2.69s1.04-1.39,2.07-2.79.97-1.45,2-2.85,1.24-1.25,2.27-2.65.49-1.8,1.52-3.2.99-1.43,2.03-2.83"/>
    <path class="cls-1" d="M80.71,102.82c-1.24,1.63-.74,1.56-2.21,3.48-.74.97-1.91,1.85-2.81,3.01-.82,1.07-1.75,2.12-2.59,3.19-.9,1.15-1.34,2.59-2.12,3.56-1.17,1.47-1.99,2.77-2.48,3.3-1.08,1.16-2.88,1.91-3.54,3.24s-.26,2.82.69,4.61c.4.75,1.37,1.62,2.59,2.71.86.78,1.59,1.94,2.7,2.75,1.01.74,2.12,1.44,3.22,2.11s2.16,1.57,3.27,2.09c1.28.59,2.79.2,3.88.44,1.57.34,2.43.36,3.21-.38,1.35-1.28,1.74-2.42,1.51-3.82-.37-2.24-1.58-1.84-1.32-4.13.19-1.73.83-1.29,1.86-2.69s1.04-1.39,2.07-2.79.97-1.45,2-2.85,1.24-1.25,2.27-2.65.49-1.8,1.52-3.2.99-1.43,2.03-2.83"/>
  </g>
  <g>
    <path class="cls-5" d="M106.63,21.75c.69.11,1.49-.3,2.16-.14s1.2.94,1.86,1.14,1.57-.27,2.22-.02.98,1.28,1.62,1.57,1.54.02,2.15.34,1.13.85,1.73,1.21,1.29.6,1.86,1,1.05.94,1.59,1.38,1.32.63,1.83,1.1,1.06.95,1.55,1.45.53,1.42.98,1.95.88,1.07,1.3,1.63.91,1.06,1.3,1.64.68,1.22,1.02,1.83.33,1.38.63,2.01,1.32.93,1.59,1.58.25,1.41.47,2.07.76,1.24.94,1.92.32,1.38.46,2.07-.21,1.46-.12,2.15-.06,1.39-.01,2.09.46,1.37.47,2.07c0,.11.33.23.33.35,0,.73-.89,1.44-.91,2.16s.92,1.5.88,2.22-.74,1.41-.8,2.13-.18,1.44-.25,2.16.17,1.48.1,2.2-.19,1.44-.26,2.16-.02,1.45-.08,2.18-.23,1.44-.26,2.16.14,1.45.13,2.18-.51,1.45-.48,2.18.08,1.46.14,2.18.35,1.42.45,2.15.41,1.39.56,2.11-.27,1.56-.07,2.27,1.3,1.1,1.55,1.79.19,1.43.43,2.08.61,1.29.85,1.93c.26.67-.21,1.6.04,2.24.26.68,1.08,1.12,1.32,1.76.25.68.47,1.35.69,2,.24.69-.02,1.5.17,2.15.21.7.95,1.23,1.09,1.88.16.71.09,1.44.15,2.11.07.72-.03,1.41-.09,2.08s-.47,1.26-.7,1.93.28,1.67-.12,2.28c-.36.55-1.09.94-1.61,1.48s-.9,1.19-1.4,1.55c-.59.42-1.28.74-1.87.99-.65.27-1.45.07-2.09.17-.68.1-1.37.58-2.03.55s-1.31-.71-1.97-.8-1.37-.12-2.02-.22c-.7-.1-1.38.39-2.03.38-.7,0-1.41-.55-2.03-.32-.73.27-1.5.51-2.15.9s-1.37.72-2,1.17-.95,1.29-1.61,1.7-1.51.31-2.23.63c-.67.29-1.16,1.25-1.94,1.42-.7.15-1.53,0-2.35,0-.74.01-1.43-.34-2.13-.48s-1.56.11-2.23-.15-1.32-.69-1.96-1.01-1.3-.7-1.92-1.06c-.65-.37-1.36-.58-1.98-.92-.68-.36-1.01-1.41-1.65-1.64-.73-.27-1.59-.13-2.27-.13-.61,0-1.3.12-2.02.29-.62.14-1.3.26-1.98.47-.62.19-1.32.23-1.98.45s-1.08,1.03-1.73,1.23-1.36.18-2.02.35-1.39-.08-2.05.03-1.29.79-1.97.8-1.42.05-2.09-.05-1.13-1.03-1.77-1.21-1.21-.46-1.83-.7-1.24-.43-1.85-.7-1.32-.31-1.92-.59-1.33-.32-1.93-.58c-.63-.28-1.22-.58-1.82-.8-.66-.24-1.33-.2-1.94-.32-.68-.14-1.28-.45-1.91-.38-.55.06-1.24.22-2.03.31-.62.07-1.29.39-2.02.47-.65.07-1.4-.57-2.11-.52-.67.05-1.32.63-2.02.66s-1.38.28-2.07.28-1.38-.4-2.06-.45-1.42.05-2.08-.06c-.7-.11-1.28-.68-1.92-.87-.69-.2-1.26-.49-1.84-.8-.63-.34-1.33-.5-1.77-.99s-.75-1.09-1.14-1.66-1.18-.89-1.47-1.5.26-1.55.05-2.19-.75-1.16-.86-1.82-.02-1.32-.03-2-.57-1.39-.47-2.07,1.06-1.12,1.27-1.77.46-1.17.78-1.78c.29-.58-.05-1.56.35-2.13.37-.53,1.23-.71,1.7-1.23s.74-1.28,1.18-1.88,1.13-1.01,1.51-1.65.58-1.36.92-2.02.24-1.49.53-2.17,1.26-1.08,1.52-1.77-.24-1.64,0-2.34.66-1.33.87-2.03.19-1.48.38-2.18.65-1.37.81-2.06c.18-.74.19-1.49.34-2.18.17-.75.19-1.5.33-2.17.16-.78,1-1.36,1.14-2s-.12-1.4,0-2.2c.09-.66-.3-1.44-.2-2.2.09-.68.7-1.32.81-2.07.1-.68-.22-1.46-.1-2.19.11-.69.71-1.31.85-2.04s.64-1.31.8-2.02.2-1.4.39-2.11.4-1.35.62-2.05.06-1.48.3-2.16.37-1.4.65-2.06.97-1.13,1.29-1.78.8-1.17,1.16-1.8.26-1.5.66-2.11.47-1.43.9-2.02,1.3-.81,1.77-1.37,1-1.01,1.5-1.54c.73-.75.19-.92,1.19-1.79.44-.39,1.14-.65,1.76-1.15.5-.4.99-.91,1.6-1.35.53-.39.96-1,1.57-1.42.55-.38,1.3-.52,1.91-.91.57-.36,1.21-.66,1.83-1.02.58-.34,1.37-.36,1.99-.69s1.19-.66,1.83-.97,1.18-.71,1.83-1,1.14-.87,1.79-1.13,1.49.06,2.16-.17,1.24-.64,1.92-.83,1.35-.27,2.04-.44,1.25-.79,1.94-.92,1.38-.2,2.08-.29,1.4-.08,2.1-.14,1.4.29,2.1.26,1.39-.68,2.09-.67,1.38.44,2.08.49c.84.06,1.64.32,2.43.41.84.1,1.62.34,2.41.47Z"/>
    <path class="cls-1" d="M106.63,21.75c.69.11,1.49-.3,2.16-.14s1.2.94,1.86,1.14,1.57-.27,2.22-.02.98,1.28,1.62,1.57,1.54.02,2.15.34,1.13.85,1.73,1.21,1.29.6,1.86,1,1.05.94,1.59,1.38,1.32.63,1.83,1.1,1.06.95,1.55,1.45.53,1.42.98,1.95.88,1.07,1.3,1.63.91,1.06,1.3,1.64.68,1.22,1.02,1.83.33,1.38.63,2.01,1.32.93,1.59,1.58.25,1.41.47,2.07.76,1.24.94,1.92.32,1.38.46,2.07-.21,1.46-.12,2.15-.06,1.39-.01,2.09.46,1.37.47,2.07c0,.11.33.23.33.35,0,.73-.89,1.44-.91,2.16s.92,1.5.88,2.22-.74,1.41-.8,2.13-.18,1.44-.25,2.16.17,1.48.1,2.2-.19,1.44-.26,2.16-.02,1.45-.08,2.18-.23,1.44-.26,2.16.14,1.45.13,2.18-.51,1.45-.48,2.18.08,1.46.14,2.18.35,1.42.45,2.15.41,1.39.56,2.11-.27,1.56-.07,2.27,1.3,1.1,1.55,1.79.19,1.43.43,2.08.61,1.29.85,1.93c.26.67-.21,1.6.04,2.24.26.68,1.08,1.12,1.32,1.76.25.68.47,1.35.69,2,.24.69-.02,1.5.17,2.15.21.7.95,1.23,1.09,1.88.16.71.09,1.44.15,2.11.07.72-.03,1.41-.09,2.08s-.47,1.26-.7,1.93.28,1.67-.12,2.28c-.36.55-1.09.94-1.61,1.48s-.9,1.19-1.4,1.55c-.59.42-1.28.74-1.87.99-.65.27-1.45.07-2.09.17-.68.1-1.37.58-2.03.55s-1.31-.71-1.97-.8-1.37-.12-2.02-.22c-.7-.1-1.38.39-2.03.38-.7,0-1.41-.55-2.03-.32-.73.27-1.5.51-2.15.9s-1.37.72-2,1.17-.95,1.29-1.61,1.7-1.51.31-2.23.63c-.67.29-1.16,1.25-1.94,1.42-.7.15-1.53,0-2.35,0-.74.01-1.43-.34-2.13-.48s-1.56.11-2.23-.15-1.32-.69-1.96-1.01-1.3-.7-1.92-1.06c-.65-.37-1.36-.58-1.98-.92-.68-.36-1.01-1.41-1.65-1.64-.73-.27-1.59-.13-2.27-.13-.61,0-1.3.12-2.02.29-.62.14-1.3.26-1.98.47-.62.19-1.32.23-1.98.45s-1.08,1.03-1.73,1.23-1.36.18-2.02.35-1.39-.08-2.05.03-1.29.79-1.97.8-1.42.05-2.09-.05-1.13-1.03-1.77-1.21-1.21-.46-1.83-.7-1.24-.43-1.85-.7-1.32-.31-1.92-.59-1.33-.32-1.93-.58c-.63-.28-1.22-.58-1.82-.8-.66-.24-1.33-.2-1.94-.32-.68-.14-1.28-.45-1.91-.38-.55.06-1.24.22-2.03.31-.62.07-1.29.39-2.02.47-.65.07-1.4-.57-2.11-.52-.67.05-1.32.63-2.02.66s-1.38.28-2.07.28-1.38-.4-2.06-.45-1.42.05-2.08-.06c-.7-.11-1.28-.68-1.92-.87-.69-.2-1.26-.49-1.84-.8-.63-.34-1.33-.5-1.77-.99s-.75-1.09-1.14-1.66-1.18-.89-1.47-1.5.26-1.55.05-2.19-.75-1.16-.86-1.82-.02-1.32-.03-2-.57-1.39-.47-2.07,1.06-1.12,1.27-1.77.46-1.17.78-1.78c.29-.58-.05-1.56.35-2.13.37-.53,1.23-.71,1.7-1.23s.74-1.28,1.18-1.88,1.13-1.01,1.51-1.65.58-1.36.92-2.02.24-1.49.53-2.17,1.26-1.08,1.52-1.77-.24-1.64,0-2.34.66-1.33.87-2.03.19-1.48.38-2.18.65-1.37.81-2.06c.18-.74.19-1.49.34-2.18.17-.75.19-1.5.33-2.17.16-.78,1-1.36,1.14-2s-.12-1.4,0-2.2c.09-.66-.3-1.44-.2-2.2.09-.68.7-1.32.81-2.07.1-.68-.22-1.46-.1-2.19.11-.69.71-1.31.85-2.04s.64-1.31.8-2.02.2-1.4.39-2.11.4-1.35.62-2.05.06-1.48.3-2.16.37-1.4.65-2.06.97-1.13,1.29-1.78.8-1.17,1.16-1.8.26-1.5.66-2.11.47-1.43.9-2.02,1.3-.81,1.77-1.37,1-1.01,1.5-1.54c.73-.75.19-.92,1.19-1.79.44-.39,1.14-.65,1.76-1.15.5-.4.99-.91,1.6-1.35.53-.39.96-1,1.57-1.42.55-.38,1.3-.52,1.91-.91.57-.36,1.21-.66,1.83-1.02.58-.34,1.37-.36,1.99-.69s1.19-.66,1.83-.97,1.18-.71,1.83-1,1.14-.87,1.79-1.13,1.49.06,2.16-.17,1.24-.64,1.92-.83,1.35-.27,2.04-.44,1.25-.79,1.94-.92,1.38-.2,2.08-.29,1.4-.08,2.1-.14,1.4.29,2.1.26,1.39-.68,2.09-.67,1.38.44,2.08.49c.84.06,1.64.32,2.43.41.84.1,1.62.34,2.41.47Z"/>
  </g>
  <g>
    <path class="cls-1" d="M130.89,57.75c1.01-.14.71-.43,1.98-.54.58-.05,1.28.22,2.06.18.63-.04,1.29-.55,2.01-.58.65-.02,1.34.35,2.05.35.66,0,1.33.07,2.03.09s1.34-.01,2.04.03,1.34.16,2.03.23,1.36.01,2.04.11,1.45-.36,2.12-.23,1.28.61,1.94.78"/>
    <path class="cls-1" d="M128.87,64.52c1.02.38.53.88,1.77,1.41.57.24,1.27.45,2.02.79.61.28,1.6-.1,2.3.24.62.3,1.06,1.06,1.73,1.41.63.33,1.27.67,1.92,1.03s1.18.85,1.8,1.24,1.22.78,1.83,1.18,1.58.31,2.15.75.72,1.46,1.26,1.92"/>
  </g>
  <g>
    <path class="cls-1" d="M42.62,52.38c1-.24.71-.5,1.96-.73.58-.1,1.39.58,2.16.48.63-.09,1.24-.8,1.96-.87.65-.06,1.37.25,2.08.21.67-.04,1.35-.18,2.05-.19s1.34.5,2.03.54,1.4-.43,2.08-.35,1.3.55,1.96.68,1.26.46,1.9.67,1.6-.3,2.2,0"/>
    <path class="cls-1" d="M44.71,65.09c.91-.49.51-.67,1.69-1.21.54-.24,1.31-.19,2.04-.49.59-.24,1.15-.67,1.85-.92.62-.22,1.1-.99,1.78-1.2.64-.2,1.43.02,2.12-.16.65-.17,1.29-.5,1.98-.65s1.39-.03,2.08-.14,1.34-.33,2.04-.39,1.38-.17,2.07-.19,1.41-.36,2.1-.33"/>
  </g>
  <g>
    <path class="cls-5" d="M68.01,34.36c.2-1.01-.16-.82.13-2.08.13-.57.78-1.12.97-1.88.15-.61.18-1.31.38-2.02.17-.63.09-1.36.3-2.05.19-.64.28-1.33.5-2s.53-1.26.76-1.92.27-1.36.51-2.01.43-1.31.69-1.95.72-1.2,1-1.83.83-1.14,1.13-1.75.68-1.2,1-1.79.84-1.1,1.19-1.67.79-1.11,1.19-1.65c.42-.57.87-1.03,1.32-1.52.48-.53.81-1.1,1.31-1.52.54-.46.94-1.02,1.52-1.34.62-.34,1.25-.53,1.9-.68.74-.17,1.42-.58,2.08-.54.73.05,1.43.35,2.06.63s1.01.96,1.55,1.44c.51.45.85,1.01,1.29,1.59.42.54,1.06.93,1.41,1.55s.62,1.24.91,1.89.98,1.13,1.22,1.79.08,1.47.27,2.14.39,1.38.54,2.04c.17.72.5,1.38.62,2.03.15.77.08,1.51.17,2.11.2,1.28.02,1.05.12,2.1"/>
    <path class="cls-1" d="M68.01,34.36c.2-1.01-.16-.82.13-2.08.13-.57.78-1.12.97-1.88.15-.61.18-1.31.38-2.02.17-.63.09-1.36.3-2.05.19-.64.28-1.33.5-2s.53-1.26.76-1.92.27-1.36.51-2.01.43-1.31.69-1.95.72-1.2,1-1.83.83-1.14,1.13-1.75.68-1.2,1-1.79.84-1.1,1.19-1.67.79-1.11,1.19-1.65c.42-.57.87-1.03,1.32-1.52.48-.53.81-1.1,1.31-1.52.54-.46.94-1.02,1.52-1.34.62-.34,1.25-.53,1.9-.68.74-.17,1.42-.58,2.08-.54.73.05,1.43.35,2.06.63s1.01.96,1.55,1.44c.51.45.85,1.01,1.29,1.59.42.54,1.06.93,1.41,1.55s.62,1.24.91,1.89.98,1.13,1.22,1.79.08,1.47.27,2.14.39,1.38.54,2.04c.17.72.5,1.38.62,2.03.15.77.08,1.51.17,2.11.2,1.28.02,1.05.12,2.1"/>
  </g>
  <g>
    <path class="cls-4" d="M79.7,43.56c-.44.61-1.26.97-1.51,1.59-.28.69.1,1.51.03,2.19-.08.72-.5,1.43-.4,2.12s.46,1.37.71,2.03.62,1.29.98,1.88.97,1.06,1.41,1.58c.49.59.87,1.18,1.36,1.6.66.56,1.34.68,1.84.87.47.17.9,1.09,1.68,1.3.59.16,1.38-.28,2.08-.17.64.1,1.26.48,1.95.49s1.28-.36,1.95-.48,1.17-.41,1.8-.67,1.08-.52,1.63-.94c.5-.39.97-.72,1.41-1.28.38-.49.59-1.05.9-1.7.27-.56.85-1.01,1.06-1.7s0-1.35-.06-2.07c-.06-.69-.11-1.33-.37-2.03-.25-.64,0-1.59-.4-2.21-.37-.59-1.18-.92-1.66-1.46s-.87-1.15-1.43-1.62-1.38-.51-1.99-.89-1.11-.91-1.76-1.19-1.35-.43-2.03-.6-1.38-.02-2.09-.05-1.45-.61-2.15-.47-1.26.69-1.91,1.03c-.61.31-1.57.25-2.13.75-.5.45-.45,1.49-.89,2.1Z"/>
    <path class="cls-1" d="M79.7,43.56c-.44.61-1.26.97-1.51,1.59-.28.69.1,1.51.03,2.19-.08.72-.5,1.43-.4,2.12s.46,1.37.71,2.03.62,1.29.98,1.88.97,1.06,1.41,1.58c.49.59.87,1.18,1.36,1.6.66.56,1.34.68,1.84.87.47.17.9,1.09,1.68,1.3.59.16,1.38-.28,2.08-.17.64.1,1.26.48,1.95.49s1.28-.36,1.95-.48,1.17-.41,1.8-.67,1.08-.52,1.63-.94c.5-.39.97-.72,1.41-1.28.38-.49.59-1.05.9-1.7.27-.56.85-1.01,1.06-1.7s0-1.35-.06-2.07c-.06-.69-.11-1.33-.37-2.03-.25-.64,0-1.59-.4-2.21-.37-.59-1.18-.92-1.66-1.46s-.87-1.15-1.43-1.62-1.38-.51-1.99-.89-1.11-.91-1.76-1.19-1.35-.43-2.03-.6-1.38-.02-2.09-.05-1.45-.61-2.15-.47-1.26.69-1.91,1.03c-.61.31-1.57.25-2.13.75-.5.45-.45,1.49-.89,2.1Z"/>
  </g>
  <g>
    <path class="cls-4" d="M102.05,52.7c-.1.72.29,1.5.44,2.25.14.71.02,1.6.38,2.27.34.64,1.29.88,1.83,1.43.5.51.78,1.36,1.45,1.76.61.36,1.29.85,2.05,1.08.68.2,1.52-.05,2.31.02.7.06,1.41-.34,2.2-.42.7-.06,1.58.67,2.35.49.73-.17,1.46-.44,2.08-.69.69-.28,1-1.25,1.56-1.61.62-.4,1.53-.41,2-.9.51-.52,1-1.12,1.36-1.71s.76-1.31.98-1.96.17-1.48.25-2.17-.14-1.44-.2-2.13c-.07-.73-.42-1.34-.63-1.99-.23-.7-.61-1.2-.98-1.76-.42-.63-.83-1.1-1.36-1.58-.56-.5-.9-1.19-1.54-1.51s-1.24-.98-1.95-1.15-1.53.2-2.26.2-1.44.11-2.15.26-1.57-.02-2.23.29-1.26.71-1.87,1.06-1.21.8-1.76,1.23-1.26.79-1.74,1.32-.95,1.14-1.31,1.77c-.34.59-.18,1.47-.42,2.17-.21.64-.74,1.25-.85,2Z"/>
    <path class="cls-1" d="M102.05,52.7c-.1.72.29,1.5.44,2.25.14.71.02,1.6.38,2.27.34.64,1.29.88,1.83,1.43.5.51.78,1.36,1.45,1.76.61.36,1.29.85,2.05,1.08.68.2,1.52-.05,2.31.02.7.06,1.41-.34,2.2-.42.7-.06,1.58.67,2.35.49.73-.17,1.46-.44,2.08-.69.69-.28,1-1.25,1.56-1.61.62-.4,1.53-.41,2-.9.51-.52,1-1.12,1.36-1.71s.76-1.31.98-1.96.17-1.48.25-2.17-.14-1.44-.2-2.13c-.07-.73-.42-1.34-.63-1.99-.23-.7-.61-1.2-.98-1.76-.42-.63-.83-1.1-1.36-1.58-.56-.5-.9-1.19-1.54-1.51s-1.24-.98-1.95-1.15-1.53.2-2.26.2-1.44.11-2.15.26-1.57-.02-2.23.29-1.26.71-1.87,1.06-1.21.8-1.76,1.23-1.26.79-1.74,1.32-.95,1.14-1.31,1.77c-.34.59-.18,1.47-.42,2.17-.21.64-.74,1.25-.85,2Z"/>
  </g>
  <circle class="cls-3" cx="92.91" cy="51.21" r="3.21"/>
  <circle class="cls-3" cx="108.78" cy="52.96" r="3.21"/>
  <g class="cls-6">
    <g>
      <path class="cls-5" d="M21.35,100.25c-.49-1.03-.69-.66-1.41-1.78-.37-.57-.14-1.7-.66-2.33-.47-.57-1.27-.93-1.85-1.42s-1.06-1.32-1.74-1.62-1.59.23-2.37.28c-.7.05-1.43-.19-2.07.05s-1.08.87-1.62,1.29-1.27.69-1.63,1.28-.3,1.31-.41,2.02c-.1.65-.57,1.36-.42,2.09.13.63.52,1.27.88,1.95.3.57.92,1.17,1.4,1.77-.53,1.02-.92.49-1.84,1.41-.48.48-.99.97-1.3,1.77-.24.64-.19,1.32-.17,2.19.02.68.18,1.32.43,2.16.22.73.31,1.35.69,1.86.44.58.78,1.22,1.37,1.55s1.3.62,1.99.72,1.45.29,2.15.21,1.48-.21,2.12-.44,1.44-.55,1.99-.92c.62-.41,1.13-1.11,1.51-1.63"/>
      <path class="cls-1" d="M21.35,100.25c-.49-1.03-.69-.66-1.41-1.78-.37-.57-.14-1.7-.66-2.33-.47-.57-1.27-.93-1.85-1.42s-1.06-1.32-1.74-1.62-1.59.23-2.37.28c-.7.05-1.43-.19-2.07.05s-1.08.87-1.62,1.29-1.27.69-1.63,1.28-.3,1.31-.41,2.02c-.1.65-.57,1.36-.42,2.09.13.63.52,1.27.88,1.95.3.57.92,1.17,1.4,1.77-.53,1.02-.92.49-1.84,1.41-.48.48-.99.97-1.3,1.77-.24.64-.19,1.32-.17,2.19.02.68.18,1.32.43,2.16.22.73.31,1.35.69,1.86.44.58.78,1.22,1.37,1.55s1.3.62,1.99.72,1.45.29,2.15.21,1.48-.21,2.12-.44,1.44-.55,1.99-.92c.62-.41,1.13-1.11,1.51-1.63"/>
    </g>
    <path class="cls-1" d="M19.26,105.38c.83.61.33,1.04,1.45,1.61.53.27,1.26.46,1.98.72.6.22,1.31.38,2.02.55.64.15,1.41-.28,2.12-.22.66.06,1.35.7,2.05.65.66-.04,1.24-.85,1.94-1"/>
  </g>
</svg>