<?xml version="1.0" encoding="UTF-8"?>
<svg id="effect_1" xmlns="http://www.w3.org/2000/svg" viewBox="0 0 167.46 140">
  <defs>
    <style>
      .cls-1 {
        fill: none;
        stroke-linecap: round;
        stroke-linejoin: round;
        stroke-width: 2px;
      }

      .cls-1, .cls-2 {
        stroke: #000;
      }

      .cls-3 {
        fill: #fdb259;
      }

      .cls-4 {
        fill: #fff;
      }

      .cls-5 {
        opacity: .1;
      }

      .cls-2 {
        stroke-miterlimit: 10;
      }
    </style>
  </defs>
  <g>
    <path class="cls-4" d="M118.35,22.7c.73-.73.8-.31,1.73-1.18.43-.4.8-1.03,1.38-1.55.48-.43.96-.94,1.52-1.41.5-.43,1.06-.85,1.61-1.3s1.1-.82,1.66-1.25,1.35-.49,1.91-.88.95-1.06,1.53-1.43,1.14-.83,1.73-1.16c.63-.34,1.28-.6,1.89-.86.67-.29,1.38-.35,2-.52.72-.19,1.37-.16,2.01-.14.73.02,1.35.02,1.93.37s1.02.84,1.43,1.41.95,1.01,1.19,1.7c.22.62.29,1.33.41,2.04.11.66.21,1.35.23,2.06.03.67.14,1.37.11,2.08s-.46,1.34-.53,2.04.26,1.42.15,2.11-.76,1.27-.89,1.95-.02,1.41-.17,2.08-.47,1.32-.64,1.98c-.18.7.31,1.55.13,2.19-.2.71-.75,1.28-.94,1.89-.23.75-.21,1.49-.4,2.05-.41,1.22-.7.85-1.07,1.82"/>
    <path class="cls-1" d="M118.35,22.7c.73-.73.8-.31,1.73-1.18.43-.4.8-1.03,1.38-1.55.48-.43.96-.94,1.52-1.41.5-.43,1.06-.85,1.61-1.3s1.1-.82,1.66-1.25,1.35-.49,1.91-.88.95-1.06,1.53-1.43,1.14-.83,1.73-1.16c.63-.34,1.28-.6,1.89-.86.67-.29,1.38-.35,2-.52.72-.19,1.37-.16,2.01-.14.73.02,1.35.02,1.93.37s1.02.84,1.43,1.41.95,1.01,1.19,1.7c.22.62.29,1.33.41,2.04.11.66.21,1.35.23,2.06.03.67.14,1.37.11,2.08s-.46,1.34-.53,2.04.26,1.42.15,2.11-.76,1.27-.89,1.95-.02,1.41-.17,2.08-.47,1.32-.64,1.98c-.18.7.31,1.55.13,2.19-.2.71-.75,1.28-.94,1.89-.23.75-.21,1.49-.4,2.05-.41,1.22-.7.85-1.07,1.82"/>
  </g>
  <g>
    <path class="cls-3" d="M78.84,81.67c-.71.1-1.48-.44-2.17-.39s-1.39.13-2.09.12-1.44.43-2.13.37-1.33-.67-2.02-.8-1.53.33-2.2.15-1.37-.45-2.02-.7-1.25-.7-1.89-1.01-1.09-.95-1.69-1.31-1.63-.09-2.21-.5-.89-1.2-1.43-1.65-1.26-.73-1.77-1.21-.66-1.34-1.13-1.86-.84-1.12-1.28-1.67-1.25-.84-1.65-1.41-.47-1.39-.82-1.99-.92-1.11-1.24-1.73-.81-1.21-1.08-1.85-.03-1.52-.25-2.17c-.24-.68-.98-1.2-1.15-1.86-.19-.72,0-1.54-.28-2.18-.3-.68-.8-1.26-1.18-1.84-.41-.63-.9-1.17-1.37-1.67-.53-.56-1.2-.83-1.77-1.2-.66-.44-1.2-.84-1.84-.99-.77-.18-1.3.09-1.92.39s-1.55.04-2.05.47-.49,1.33-.86,1.89-.91.97-1.14,1.62c-.21.6-.03,1.3-.12,1.98-.08.63.03,1.24.05,1.93.01.63.06,1.24.16,1.93.09.63.11,1.26.28,1.93.15.62.44,1.2.65,1.85.2.61.08,1.41.37,2.14.25.62.76,1.18,1.08,1.87.29.62.5,1.3.84,1.97.32.61.1,1.56.48,2.2.35.6,1.11.99,1.52,1.6s.67,1.27,1.1,1.86,1.22.84,1.69,1.41.75,1.22,1.24,1.76,1.05.95,1.58,1.46,1.2.76,1.76,1.23.7,1.4,1.28,1.84,1.35.56,1.96.96.9,1.28,1.54,1.63,1.39.47,2.04.78,1.41.34,2.09.61,1.36.4,2.05.64,1.3.56,2.01.76,1.38.34,2.09.5,1.45-.04,2.17.09"/>
    <path class="cls-1" d="M78.84,81.67c-.71.1-1.48-.44-2.17-.39s-1.39.13-2.09.12-1.44.43-2.13.37-1.33-.67-2.02-.8-1.53.33-2.2.15-1.37-.45-2.02-.7-1.25-.7-1.89-1.01-1.09-.95-1.69-1.31-1.63-.09-2.21-.5-.89-1.2-1.43-1.65-1.26-.73-1.77-1.21-.66-1.34-1.13-1.86-.84-1.12-1.28-1.67-1.25-.84-1.65-1.41-.47-1.39-.82-1.99-.92-1.11-1.24-1.73-.81-1.21-1.08-1.85-.03-1.52-.25-2.17c-.24-.68-.98-1.2-1.15-1.86-.19-.72,0-1.54-.28-2.18-.3-.68-.8-1.26-1.18-1.84-.41-.63-.9-1.17-1.37-1.67-.53-.56-1.2-.83-1.77-1.2-.66-.44-1.2-.84-1.84-.99-.77-.18-1.3.09-1.92.39s-1.55.04-2.05.47-.49,1.33-.86,1.89-.91.97-1.14,1.62c-.21.6-.03,1.3-.12,1.98-.08.63.03,1.24.05,1.93.01.63.06,1.24.16,1.93.09.63.11,1.26.28,1.93.15.62.44,1.2.65,1.85.2.61.08,1.41.37,2.14.25.62.76,1.18,1.08,1.87.29.62.5,1.3.84,1.97.32.61.1,1.56.48,2.2.35.6,1.11.99,1.52,1.6s.67,1.27,1.1,1.86,1.22.84,1.69,1.41.75,1.22,1.24,1.76,1.05.95,1.58,1.46,1.2.76,1.76,1.23.7,1.4,1.28,1.84,1.35.56,1.96.96.9,1.28,1.54,1.63,1.39.47,2.04.78,1.41.34,2.09.61,1.36.4,2.05.64,1.3.56,2.01.76,1.38.34,2.09.5,1.45-.04,2.17.09"/>
  </g>
  <g>
    <path class="cls-3" d="M79,100.87c-1.42,1.48-.91,1.47-2.59,3.2-.85.88-2.11,1.62-3.14,2.67-.94.97-1.99,1.9-2.94,2.87-1.02,1.04-1.63,2.42-2.51,3.29-1.33,1.33-2.29,2.52-2.84,2.99-1.2,1.03-3.08,1.57-3.89,2.81s-.59,2.77.16,4.66c.31.79,1.17,1.76,2.26,2.99.77.87,1.36,2.11,2.36,3.04.92.85,1.94,1.68,2.95,2.47s1.96,1.81,3,2.45c1.2.74,2.74.52,3.81.89,1.52.52,2.37.64,3.23,0,1.48-1.11,2-2.21,1.94-3.62-.11-2.27-1.36-2.01-.84-4.25.39-1.69.97-1.18,2.15-2.45s1.19-1.27,2.38-2.54,1.13-1.33,2.31-2.6,1.37-1.1,2.56-2.37.69-1.73,1.88-3.01,1.15-1.31,2.34-2.58"/>
    <path class="cls-1" d="M79,100.87c-1.42,1.48-.91,1.47-2.59,3.2-.85.88-2.11,1.62-3.14,2.67-.94.97-1.99,1.9-2.94,2.87-1.02,1.04-1.63,2.42-2.51,3.29-1.33,1.33-2.29,2.52-2.84,2.99-1.2,1.03-3.08,1.57-3.89,2.81s-.59,2.77.16,4.66c.31.79,1.17,1.76,2.26,2.99.77.87,1.36,2.11,2.36,3.04.92.85,1.94,1.68,2.95,2.47s1.96,1.81,3,2.45c1.2.74,2.74.52,3.81.89,1.52.52,2.37.64,3.23,0,1.48-1.11,2-2.21,1.94-3.62-.11-2.27-1.36-2.01-.84-4.25.39-1.69.97-1.18,2.15-2.45s1.19-1.27,2.38-2.54,1.13-1.33,2.31-2.6,1.37-1.1,2.56-2.37.69-1.73,1.88-3.01,1.15-1.31,2.34-2.58"/>
  </g>
  <g>
    <path class="cls-3" d="M106.61,113.7c.97,1.85,1.09,1.39,2.22,3.55.58,1.11.99,2.52,1.67,3.83.64,1.24,1.99,2.16,2.61,3.36.72,1.4,1.07,2.86,1.58,3.88.66,1.31,1.47,2.39,2.04,3.44.73,1.36,1.32,2.33,2.37,2.91.97.53,1.94.51,3.63.05,1.05-.29,2.68.11,4.19-.44,1.22-.45,2.52-1.07,3.81-1.65s2.57-1.22,3.7-1.91c1.28-.78,2.07-2.09,2.91-2.98,1.1-1.17,1.98-2.31,1.73-3.58s-1.12-2.07-2-2.61c-.95-.59-2.09-.74-3.17-.8-1.78-.1-2.19,1.38-3.4.21-1.38-1.34-.82-1.78-1.65-3.52s-.45-1.92-1.28-3.65-1.14-1.59-1.97-3.33-.94-1.69-1.77-3.43"/>
    <path class="cls-1" d="M106.61,113.7c.97,1.85,1.09,1.39,2.22,3.55.58,1.11.99,2.52,1.67,3.83.64,1.24,1.99,2.16,2.61,3.36.72,1.4,1.07,2.86,1.58,3.88.66,1.31,1.47,2.39,2.04,3.44.73,1.36,1.32,2.33,2.37,2.91.97.53,1.94.51,3.63.05,1.05-.29,2.68.11,4.19-.44,1.22-.45,2.52-1.07,3.81-1.65s2.57-1.22,3.7-1.91c1.28-.78,2.07-2.09,2.91-2.98,1.1-1.17,1.98-2.31,1.73-3.58s-1.12-2.07-2-2.61c-.95-.59-2.09-.74-3.17-.8-1.78-.1-2.19,1.38-3.4.21-1.38-1.34-.82-1.78-1.65-3.52s-.45-1.92-1.28-3.65-1.14-1.59-1.97-3.33-.94-1.69-1.77-3.43"/>
  </g>
  <g>
    <path class="cls-4" d="M115.31,21.54c.69.11,1.49-.3,2.16-.14s1.2.94,1.86,1.14,1.57-.27,2.22-.02.98,1.28,1.62,1.57,1.54.02,2.15.34,1.13.85,1.73,1.21,1.29.6,1.86,1,1.05.94,1.59,1.38,1.32.63,1.83,1.1,1.06.95,1.55,1.45.53,1.42.98,1.95.88,1.07,1.3,1.63.91,1.06,1.3,1.64.68,1.22,1.02,1.83.33,1.38.63,2.01,1.32.93,1.59,1.58.25,1.41.47,2.07.76,1.24.94,1.92.32,1.38.46,2.07-.21,1.46-.12,2.15-.06,1.39-.01,2.09.46,1.37.47,2.07c0,.11.33.23.33.35,0,.73-.89,1.44-.91,2.16s.92,1.5.88,2.22-.74,1.41-.8,2.13-.18,1.44-.25,2.16.17,1.48.1,2.2-.19,1.44-.26,2.16-.02,1.45-.08,2.18-.23,1.44-.26,2.16.14,1.45.13,2.18-.51,1.45-.48,2.18.08,1.46.14,2.18.35,1.42.45,2.15.41,1.39.56,2.11-.27,1.56-.07,2.27,1.3,1.1,1.55,1.79.19,1.43.43,2.08.61,1.29.85,1.93c.26.67-.21,1.6.04,2.24.26.68,1.08,1.12,1.32,1.76.25.68.47,1.35.69,2,.24.69-.02,1.5.17,2.15.21.7.95,1.23,1.09,1.88.16.71.09,1.44.15,2.11.07.72-.03,1.41-.09,2.08s-.47,1.26-.7,1.93.28,1.67-.12,2.28c-.36.55-1.09.94-1.61,1.48s-.9,1.19-1.4,1.55c-.59.42-1.28.74-1.87.99-.65.27-1.45.07-2.09.17-.68.1-1.37.58-2.03.55s-1.31-.71-1.97-.8-1.37-.12-2.02-.22c-.7-.1-1.38.39-2.03.38-.7,0-1.41-.55-2.03-.32-.73.27-1.5.51-2.15.9s-1.37.72-2,1.17-.95,1.29-1.61,1.7-1.51.31-2.23.63c-.67.29-1.16,1.25-1.94,1.42-.7.15-1.53,0-2.35,0-.74.01-1.43-.34-2.13-.48s-1.56.11-2.23-.15-1.32-.69-1.96-1.01-1.3-.7-1.92-1.06c-.65-.37-1.36-.58-1.98-.92-.68-.36-1.01-1.41-1.65-1.64-.73-.27-1.59-.13-2.27-.13-.61,0-1.3.12-2.02.29-.62.14-1.3.26-1.98.47-.62.19-1.32.23-1.98.45s-1.08,1.03-1.73,1.23-1.36.18-2.02.35-1.39-.08-2.05.03-1.29.79-1.97.8-1.42.05-2.09-.05-1.13-1.03-1.77-1.21-1.21-.46-1.83-.7-1.24-.43-1.85-.7-1.32-.31-1.92-.59-1.33-.32-1.93-.58c-.63-.28-1.22-.58-1.82-.8-.66-.24-1.33-.2-1.94-.32-.68-.14-1.28-.45-1.91-.38-.55.06-1.24.22-2.03.31-.62.07-1.29.39-2.02.47-.65.07-1.4-.57-2.11-.52-.67.05-1.32.63-2.02.66s-1.38.28-2.07.28-1.38-.4-2.06-.45-1.42.05-2.08-.06c-.7-.11-1.28-.68-1.92-.87-.69-.2-1.26-.49-1.84-.8-.63-.34-1.33-.5-1.77-.99s-.75-1.09-1.14-1.66-1.18-.89-1.47-1.5.26-1.55.05-2.19-.75-1.16-.86-1.82-.02-1.32-.03-2-.57-1.39-.47-2.07,1.06-1.12,1.27-1.77.46-1.17.78-1.78c.29-.58-.05-1.56.35-2.13.37-.53,1.23-.71,1.7-1.23s.74-1.28,1.18-1.88,1.13-1.01,1.51-1.65.58-1.36.92-2.02.24-1.49.53-2.17,1.26-1.08,1.52-1.77-.24-1.64,0-2.34.66-1.33.87-2.03.19-1.48.38-2.18.65-1.37.81-2.06c.18-.74.19-1.49.34-2.18.17-.75.19-1.5.33-2.17.16-.78,1-1.36,1.14-2s-.12-1.4,0-2.2c.09-.66-.3-1.44-.2-2.2.09-.68.7-1.32.81-2.07.1-.68-.22-1.46-.1-2.19.11-.69.71-1.31.85-2.04s.64-1.31.8-2.02.2-1.4.39-2.11.4-1.35.62-2.05.06-1.48.3-2.16.37-1.4.65-2.06.97-1.13,1.29-1.78.8-1.17,1.16-1.8.26-1.5.66-2.11.47-1.43.9-2.02,1.3-.81,1.77-1.37,1-1.01,1.5-1.54c.73-.75.19-.92,1.19-1.79.44-.39,1.14-.65,1.76-1.15.5-.4.99-.91,1.6-1.35.53-.39.96-1,1.57-1.42.55-.38,1.3-.52,1.91-.91.57-.36,1.21-.66,1.83-1.02.58-.34,1.37-.36,1.99-.69s1.19-.66,1.83-.97,1.18-.71,1.83-1,1.14-.87,1.79-1.13,1.49.06,2.16-.17,1.24-.64,1.92-.83,1.35-.27,2.04-.44,1.25-.79,1.94-.92,1.38-.2,2.08-.29,1.4-.08,2.1-.14,1.4.29,2.1.26,1.39-.68,2.09-.67,1.38.44,2.08.49c.84.06,1.64.32,2.43.41.84.1,1.62.34,2.41.47Z"/>
    <path class="cls-1" d="M115.31,21.54c.69.11,1.49-.3,2.16-.14s1.2.94,1.86,1.14,1.57-.27,2.22-.02.98,1.28,1.62,1.57,1.54.02,2.15.34,1.13.85,1.73,1.21,1.29.6,1.86,1,1.05.94,1.59,1.38,1.32.63,1.83,1.1,1.06.95,1.55,1.45.53,1.42.98,1.95.88,1.07,1.3,1.63.91,1.06,1.3,1.64.68,1.22,1.02,1.83.33,1.38.63,2.01,1.32.93,1.59,1.58.25,1.41.47,2.07.76,1.24.94,1.92.32,1.38.46,2.07-.21,1.46-.12,2.15-.06,1.39-.01,2.09.46,1.37.47,2.07c0,.11.33.23.33.35,0,.73-.89,1.44-.91,2.16s.92,1.5.88,2.22-.74,1.41-.8,2.13-.18,1.44-.25,2.16.17,1.48.1,2.2-.19,1.44-.26,2.16-.02,1.45-.08,2.18-.23,1.44-.26,2.16.14,1.45.13,2.18-.51,1.45-.48,2.18.08,1.46.14,2.18.35,1.42.45,2.15.41,1.39.56,2.11-.27,1.56-.07,2.27,1.3,1.1,1.55,1.79.19,1.43.43,2.08.61,1.29.85,1.93c.26.67-.21,1.6.04,2.24.26.68,1.08,1.12,1.32,1.76.25.68.47,1.35.69,2,.24.69-.02,1.5.17,2.15.21.7.95,1.23,1.09,1.88.16.71.09,1.44.15,2.11.07.72-.03,1.41-.09,2.08s-.47,1.26-.7,1.93.28,1.67-.12,2.28c-.36.55-1.09.94-1.61,1.48s-.9,1.19-1.4,1.55c-.59.42-1.28.74-1.87.99-.65.27-1.45.07-2.09.17-.68.1-1.37.58-2.03.55s-1.31-.71-1.97-.8-1.37-.12-2.02-.22c-.7-.1-1.38.39-2.03.38-.7,0-1.41-.55-2.03-.32-.73.27-1.5.51-2.15.9s-1.37.72-2,1.17-.95,1.29-1.61,1.7-1.51.31-2.23.63c-.67.29-1.16,1.25-1.94,1.42-.7.15-1.53,0-2.35,0-.74.01-1.43-.34-2.13-.48s-1.56.11-2.23-.15-1.32-.69-1.96-1.01-1.3-.7-1.92-1.06c-.65-.37-1.36-.58-1.98-.92-.68-.36-1.01-1.41-1.65-1.64-.73-.27-1.59-.13-2.27-.13-.61,0-1.3.12-2.02.29-.62.14-1.3.26-1.98.47-.62.19-1.32.23-1.98.45s-1.08,1.03-1.73,1.23-1.36.18-2.02.35-1.39-.08-2.05.03-1.29.79-1.97.8-1.42.05-2.09-.05-1.13-1.03-1.77-1.21-1.21-.46-1.83-.7-1.24-.43-1.85-.7-1.32-.31-1.92-.59-1.33-.32-1.93-.58c-.63-.28-1.22-.58-1.82-.8-.66-.24-1.33-.2-1.94-.32-.68-.14-1.28-.45-1.91-.38-.55.06-1.24.22-2.03.31-.62.07-1.29.39-2.02.47-.65.07-1.4-.57-2.11-.52-.67.05-1.32.63-2.02.66s-1.38.28-2.07.28-1.38-.4-2.06-.45-1.42.05-2.08-.06c-.7-.11-1.28-.68-1.92-.87-.69-.2-1.26-.49-1.84-.8-.63-.34-1.33-.5-1.77-.99s-.75-1.09-1.14-1.66-1.18-.89-1.47-1.5.26-1.55.05-2.19-.75-1.16-.86-1.82-.02-1.32-.03-2-.57-1.39-.47-2.07,1.06-1.12,1.27-1.77.46-1.17.78-1.78c.29-.58-.05-1.56.35-2.13.37-.53,1.23-.71,1.7-1.23s.74-1.28,1.18-1.88,1.13-1.01,1.51-1.65.58-1.36.92-2.02.24-1.49.53-2.17,1.26-1.08,1.52-1.77-.24-1.64,0-2.34.66-1.33.87-2.03.19-1.48.38-2.18.65-1.37.81-2.06c.18-.74.19-1.49.34-2.18.17-.75.19-1.5.33-2.17.16-.78,1-1.36,1.14-2s-.12-1.4,0-2.2c.09-.66-.3-1.44-.2-2.2.09-.68.7-1.32.81-2.07.1-.68-.22-1.46-.1-2.19.11-.69.71-1.31.85-2.04s.64-1.31.8-2.02.2-1.4.39-2.11.4-1.35.62-2.05.06-1.48.3-2.16.37-1.4.65-2.06.97-1.13,1.29-1.78.8-1.17,1.16-1.8.26-1.5.66-2.11.47-1.43.9-2.02,1.3-.81,1.77-1.37,1-1.01,1.5-1.54c.73-.75.19-.92,1.19-1.79.44-.39,1.14-.65,1.76-1.15.5-.4.99-.91,1.6-1.35.53-.39.96-1,1.57-1.42.55-.38,1.3-.52,1.91-.91.57-.36,1.21-.66,1.83-1.02.58-.34,1.37-.36,1.99-.69s1.19-.66,1.83-.97,1.18-.71,1.83-1,1.14-.87,1.79-1.13,1.49.06,2.16-.17,1.24-.64,1.92-.83,1.35-.27,2.04-.44,1.25-.79,1.94-.92,1.38-.2,2.08-.29,1.4-.08,2.1-.14,1.4.29,2.1.26,1.39-.68,2.09-.67,1.38.44,2.08.49c.84.06,1.64.32,2.43.41.84.1,1.62.34,2.41.47Z"/>
  </g>
  <g>
    <path class="cls-1" d="M137.62,57.04c.99-.26.65-.51,1.9-.77.57-.12,1.3.07,2.06-.07.62-.11,1.21-.7,1.93-.81.64-.1,1.37.2,2.08.11.65-.08,1.33-.09,2.03-.15s1.33-.17,2.03-.21,1.35,0,2.04,0,1.35-.14,2.04-.13,1.4-.52,2.08-.47,1.34.46,2.01.55"/>
    <path class="cls-1" d="M136.4,64c1.06.26.63.81,1.93,1.19.6.18,1.32.3,2.1.55.64.21,1.58-.29,2.31-.03.65.23,1.18.93,1.88,1.2.66.25,1.34.52,2.03.8s1.27.71,1.94,1.02,1.3.63,1.95.96,1.6.13,2.23.49.88,1.36,1.47,1.76"/>
  </g>
  <g>
    <path class="cls-1" d="M52.75,49.42c1.01-.16.75-.44,2.01-.56.59-.05,1.34.7,2.11.66.63-.03,1.3-.69,2.03-.7.66-.01,1.35.36,2.06.38.67.02,1.36-.07,2.06-.02s1.3.61,1.98.7,1.43-.32,2.1-.18,1.25.65,1.9.84,1.22.56,1.84.82,1.62-.16,2.19.18"/>
    <path class="cls-1" d="M53.78,62.26c.94-.42.57-.63,1.78-1.07.55-.2,1.32-.08,2.07-.32.61-.19,1.21-.57,1.92-.76.63-.17,1.17-.9,1.88-1.05.65-.15,1.42.14,2.13.02.66-.12,1.32-.39,2.02-.48s1.39.09,2.09.04,1.37-.22,2.06-.22,1.39-.06,2.08-.02,1.43-.24,2.12-.15"/>
  </g>
  <g>
    <path class="cls-4" d="M77.44,37.96c-.08-1.02-.38-.74-.43-2.03-.02-.58.45-1.29.43-2.07-.01-.63-.17-1.31-.17-2.05,0-.65-.27-1.34-.26-2.06.01-.66-.08-1.36-.05-2.06s.18-1.35.22-2.05-.1-1.38-.04-2.07.07-1.38.14-2.06.37-1.35.47-2.02.5-1.32.62-1.99.33-1.33.49-1.99.52-1.28.71-1.93.47-1.28.7-1.9c.25-.66.57-1.22.86-1.82.32-.64.49-1.27.86-1.82.4-.59.64-1.24,1.11-1.7.5-.49,1.06-.84,1.65-1.16.67-.36,1.21-.94,1.86-1.07.71-.14,1.47-.04,2.16.06s1.23.66,1.88.97c.61.29,1.09.75,1.66,1.19.54.41,1.27.61,1.78,1.12s.93,1.03,1.38,1.58,1.25.83,1.65,1.41.47,1.4.83,1.99.74,1.23,1.07,1.82c.36.65.85,1.2,1.14,1.79.35.7.48,1.44.72,1.99.53,1.18,1.07,3.24,1.45,4.23"/>
    <path class="cls-1" d="M77.44,33.86c-.01-.63-.17-1.31-.17-2.05,0-.65-.27-1.34-.26-2.06.01-.66-.08-1.36-.05-2.06s.18-1.35.22-2.05-.1-1.38-.04-2.07.07-1.38.14-2.06.37-1.35.47-2.02.5-1.32.62-1.99.33-1.33.49-1.99.52-1.28.71-1.93.47-1.28.7-1.9c.25-.66.57-1.22.86-1.82.32-.64.49-1.27.86-1.82.4-.59.64-1.24,1.11-1.7.5-.49,1.06-.84,1.65-1.16.67-.36,1.21-.94,1.86-1.07.71-.14,1.47-.04,2.16.06s1.23.66,1.88.97c.61.29,1.09.75,1.66,1.19.54.41,1.27.61,1.78,1.12s.93,1.03,1.38,1.58,1.25.83,1.65,1.41.47,1.4.83,1.99.74,1.23,1.07,1.82c.36.65.85,1.2,1.14,1.79.35.7.48,1.44.72,1.99.53,1.18,1.07,3.24,1.45,4.23"/>
  </g>
  <g>
    <path class="cls-3" d="M88.38,43.34c-.44.61-1.26.97-1.51,1.59-.28.69.1,1.51.03,2.19-.08.72-.5,1.43-.4,2.12s.46,1.37.71,2.03.62,1.29.98,1.88.97,1.06,1.41,1.58c.49.59.87,1.18,1.36,1.6.66.56,1.34.68,1.84.87.47.17.9,1.09,1.68,1.3.59.16,1.38-.28,2.08-.17.64.1,1.26.48,1.95.49s1.28-.36,1.95-.48,1.17-.41,1.8-.67,1.08-.52,1.63-.94c.5-.39.97-.72,1.41-1.28.38-.49.59-1.05.9-1.7.27-.56.85-1.01,1.06-1.7s0-1.35-.06-2.07c-.06-.69-.11-1.33-.37-2.03-.25-.64,0-1.59-.4-2.21-.37-.59-1.18-.92-1.66-1.46s-.87-1.15-1.43-1.62-1.38-.51-1.99-.89-1.11-.91-1.76-1.19-1.35-.43-2.03-.6-1.38-.02-2.09-.05-1.45-.61-2.15-.47-1.26.69-1.91,1.03c-.61.31-1.57.25-2.13.75-.5.45-.45,1.49-.89,2.1Z"/>
    <path class="cls-1" d="M88.38,43.34c-.44.61-1.26.97-1.51,1.59-.28.69.1,1.51.03,2.19-.08.72-.5,1.43-.4,2.12s.46,1.37.71,2.03.62,1.29.98,1.88.97,1.06,1.41,1.58c.49.59.87,1.18,1.36,1.6.66.56,1.34.68,1.84.87.47.17.9,1.09,1.68,1.3.59.16,1.38-.28,2.08-.17.64.1,1.26.48,1.95.49s1.28-.36,1.95-.48,1.17-.41,1.8-.67,1.08-.52,1.63-.94c.5-.39.97-.72,1.41-1.28.38-.49.59-1.05.9-1.7.27-.56.85-1.01,1.06-1.7s0-1.35-.06-2.07c-.06-.69-.11-1.33-.37-2.03-.25-.64,0-1.59-.4-2.21-.37-.59-1.18-.92-1.66-1.46s-.87-1.15-1.43-1.62-1.38-.51-1.99-.89-1.11-.91-1.76-1.19-1.35-.43-2.03-.6-1.38-.02-2.09-.05-1.45-.61-2.15-.47-1.26.69-1.91,1.03c-.61.31-1.57.25-2.13.75-.5.45-.45,1.49-.89,2.1Z"/>
  </g>
  <g>
    <path class="cls-3" d="M110.73,52.49c-.1.72.29,1.5.44,2.25.14.71.02,1.6.38,2.27.34.64,1.29.88,1.83,1.43.5.51.78,1.36,1.45,1.76.61.36,1.29.85,2.05,1.08.68.2,1.52-.05,2.31.02.7.06,1.41-.34,2.2-.42.7-.06,1.58.67,2.35.49.73-.17,1.46-.44,2.08-.69.69-.28,1-1.25,1.56-1.61.62-.4,1.53-.41,2-.9.51-.52,1-1.12,1.36-1.71s.76-1.31.98-1.96.17-1.48.25-2.17-.14-1.44-.2-2.13c-.07-.73-.42-1.34-.63-1.99-.23-.7-.61-1.2-.98-1.76-.42-.63-.83-1.1-1.36-1.58-.56-.5-.9-1.19-1.54-1.51s-1.24-.98-1.95-1.15-1.53.2-2.26.2-1.44.11-2.15.26-1.57-.02-2.23.29-1.26.71-1.87,1.06-1.21.8-1.76,1.23-1.26.79-1.74,1.32-.95,1.14-1.31,1.77c-.34.59-.18,1.47-.42,2.17-.21.64-.74,1.25-.85,2Z"/>
    <path class="cls-1" d="M110.73,52.49c-.1.72.29,1.5.44,2.25.14.71.02,1.6.38,2.27.34.64,1.29.88,1.83,1.43.5.51.78,1.36,1.45,1.76.61.36,1.29.85,2.05,1.08.68.2,1.52-.05,2.31.02.7.06,1.41-.34,2.2-.42.7-.06,1.58.67,2.35.49.73-.17,1.46-.44,2.08-.69.69-.28,1-1.25,1.56-1.61.62-.4,1.53-.41,2-.9.51-.52,1-1.12,1.36-1.71s.76-1.31.98-1.96.17-1.48.25-2.17-.14-1.44-.2-2.13c-.07-.73-.42-1.34-.63-1.99-.23-.7-.61-1.2-.98-1.76-.42-.63-.83-1.1-1.36-1.58-.56-.5-.9-1.19-1.54-1.51s-1.24-.98-1.95-1.15-1.53.2-2.26.2-1.44.11-2.15.26-1.57-.02-2.23.29-1.26.71-1.87,1.06-1.21.8-1.76,1.23-1.26.79-1.74,1.32-.95,1.14-1.31,1.77c-.34.59-.18,1.47-.42,2.17-.21.64-.74,1.25-.85,2Z"/>
  </g>
  <circle class="cls-2" cx="101.59" cy="50.99" r="3.21"/>
  <circle class="cls-2" cx="117.46" cy="52.74" r="3.21"/>
  <path class="cls-1" d="M99.18,107.01l2.09-3.55c.13-.21.26-.43.46-.57.18-.12.39-.16.6-.2.45-.09.89-.18,1.34-.27.34-.07.68-.14.97-.32.26-.17.46-.42.64-.67,1.09-1.49,2.14-3.25,3.92-3.75"/>
  <g class="cls-5">
    <g>
      <path class="cls-4" d="M21.35,100.25c-.49-1.03-.69-.66-1.41-1.78-.37-.57-.14-1.7-.66-2.33-.47-.57-1.27-.93-1.85-1.42s-1.06-1.32-1.74-1.62-1.59.23-2.37.28c-.7.05-1.43-.19-2.07.05s-1.08.87-1.62,1.29-1.27.69-1.63,1.28-.3,1.31-.41,2.02c-.1.65-.57,1.36-.42,2.09.13.63.52,1.27.88,1.95.3.57.92,1.17,1.4,1.77-.53,1.02-.92.49-1.84,1.41-.48.48-.99.97-1.3,1.77-.24.64-.19,1.32-.17,2.19.02.68.18,1.32.43,2.16.22.73.31,1.35.69,1.86.44.58.78,1.22,1.37,1.55s1.3.62,1.99.72,1.45.29,2.15.21,1.48-.21,2.12-.44,1.44-.55,1.99-.92c.62-.41,1.13-1.11,1.51-1.63"/>
      <path class="cls-1" d="M21.35,100.25c-.49-1.03-.69-.66-1.41-1.78-.37-.57-.14-1.7-.66-2.33-.47-.57-1.27-.93-1.85-1.42s-1.06-1.32-1.74-1.62-1.59.23-2.37.28c-.7.05-1.43-.19-2.07.05s-1.08.87-1.62,1.29-1.27.69-1.63,1.28-.3,1.31-.41,2.02c-.1.65-.57,1.36-.42,2.09.13.63.52,1.27.88,1.95.3.57.92,1.17,1.4,1.77-.53,1.02-.92.49-1.84,1.41-.48.48-.99.97-1.3,1.77-.24.64-.19,1.32-.17,2.19.02.68.18,1.32.43,2.16.22.73.31,1.35.69,1.86.44.58.78,1.22,1.37,1.55s1.3.62,1.99.72,1.45.29,2.15.21,1.48-.21,2.12-.44,1.44-.55,1.99-.92c.62-.41,1.13-1.11,1.51-1.63"/>
    </g>
    <path class="cls-1" d="M19.26,105.38c.83.61.33,1.04,1.45,1.61.53.27,1.26.46,1.98.72.6.22,1.31.38,2.02.55.64.15,1.41-.28,2.12-.22.66.06,1.35.7,2.05.65.66-.04,1.24-.85,1.94-1"/>
  </g>
</svg>