<?xml version="1.0" encoding="UTF-8"?>
<svg id="effect_1" xmlns="http://www.w3.org/2000/svg" viewBox="0 0 156.04 140">
  <defs>
    <style>
      .cls-1 {
        fill: none;
        stroke-linecap: round;
        stroke-linejoin: round;
        stroke-width: 2px;
      }

      .cls-1, .cls-2 {
        stroke: #000;
      }

      .cls-3 {
        fill: #fdb259;
      }

      .cls-4 {
        fill: #fff;
      }

      .cls-2 {
        stroke-miterlimit: 10;
      }
    </style>
  </defs>
  <g>
    <path class="cls-4" d="M106.93,22.7c.73-.73.8-.31,1.73-1.18.43-.4.8-1.03,1.38-1.55.48-.43.96-.94,1.52-1.41.5-.43,1.06-.85,1.61-1.3s1.1-.82,1.66-1.25,1.35-.49,1.91-.88.95-1.06,1.53-1.43,1.14-.83,1.73-1.16c.63-.34,1.28-.6,1.89-.86.67-.29,1.38-.35,2-.52.72-.19,1.37-.16,2.01-.14.73.02,1.35.02,1.93.37s1.02.84,1.43,1.41.95,1.01,1.19,1.7c.22.62.29,1.33.41,2.04.11.66.21,1.35.23,2.06.03.67.14,1.37.11,2.08s-.46,1.34-.53,2.04.26,1.42.15,2.11-.76,1.27-.89,1.95-.02,1.41-.17,2.08-.47,1.32-.64,1.98c-.18.7.31,1.55.13,2.19-.2.71-.75,1.28-.94,1.89-.23.75-.21,1.49-.4,2.05-.41,1.22-.7.85-1.07,1.82"/>
    <path class="cls-1" d="M106.93,22.7c.73-.73.8-.31,1.73-1.18.43-.4.8-1.03,1.38-1.55.48-.43.96-.94,1.52-1.41.5-.43,1.06-.85,1.61-1.3s1.1-.82,1.66-1.25,1.35-.49,1.91-.88.95-1.06,1.53-1.43,1.14-.83,1.73-1.16c.63-.34,1.28-.6,1.89-.86.67-.29,1.38-.35,2-.52.72-.19,1.37-.16,2.01-.14.73.02,1.35.02,1.93.37s1.02.84,1.43,1.41.95,1.01,1.19,1.7c.22.62.29,1.33.41,2.04.11.66.21,1.35.23,2.06.03.67.14,1.37.11,2.08s-.46,1.34-.53,2.04.26,1.42.15,2.11-.76,1.27-.89,1.95-.02,1.41-.17,2.08-.47,1.32-.64,1.98c-.18.7.31,1.55.13,2.19-.2.71-.75,1.28-.94,1.89-.23.75-.21,1.49-.4,2.05-.41,1.22-.7.85-1.07,1.82"/>
  </g>
  <g>
    <path class="cls-3" d="M68.44,81.02c-.7.18-1.51-.29-2.2-.17s-1.37.27-2.06.33-1.39.58-2.08.58-1.4-.54-2.09-.59-1.49.49-2.18.37-1.41-.31-2.08-.49-1.32-.58-1.98-.81-1.17-.84-1.81-1.13-1.63.07-2.24-.27-1-1.11-1.59-1.5-1.33-.59-1.88-1.03-.79-1.27-1.31-1.74-.95-1.03-1.44-1.53-1.33-.71-1.78-1.24-.6-1.33-1.02-1.89-1.03-1.01-1.41-1.6-.92-1.12-1.26-1.73-.18-1.51-.47-2.14c-.3-.66-1.09-1.09-1.33-1.74-.26-.7-.15-1.53-.5-2.14-.37-.65-.92-1.17-1.36-1.71-.47-.59-1.01-1.07-1.53-1.52-.58-.5-1.28-.7-1.88-1.02-.7-.37-1.28-.72-1.93-.8-.78-.1-1.28.22-1.87.58s-1.54.2-1.99.67-.36,1.37-.67,1.97-.81,1.05-.97,1.72c-.15.62.1,1.29.08,1.99-.02.63.16,1.23.24,1.92.08.63.18,1.23.35,1.9.15.62.24,1.24.47,1.89.21.6.55,1.15.84,1.77.26.59.22,1.39.58,2.09.31.6.87,1.09,1.26,1.75.35.59.62,1.25,1.03,1.87.38.58.26,1.54.7,2.14.41.56,1.21.87,1.67,1.44s.79,1.2,1.28,1.74,1.3.72,1.82,1.23.87,1.14,1.41,1.62,1.14.84,1.71,1.29,1.27.64,1.88,1.05.84,1.32,1.46,1.7,1.4.42,2.05.75,1.03,1.18,1.69,1.47,1.43.32,2.11.58,1.44.19,2.14.4,1.39.27,2.11.43,1.35.43,2.07.56,1.41.2,2.13.29,1.43-.18,2.17-.13"/>
    <path class="cls-1" d="M68.44,81.02c-.7.18-1.51-.29-2.2-.17s-1.37.27-2.06.33-1.39.58-2.08.58-1.4-.54-2.09-.59-1.49.49-2.18.37-1.41-.31-2.08-.49-1.32-.58-1.98-.81-1.17-.84-1.81-1.13-1.63.07-2.24-.27-1-1.11-1.59-1.5-1.33-.59-1.88-1.03-.79-1.27-1.31-1.74-.95-1.03-1.44-1.53-1.33-.71-1.78-1.24-.6-1.33-1.02-1.89-1.03-1.01-1.41-1.6-.92-1.12-1.26-1.73-.18-1.51-.47-2.14c-.3-.66-1.09-1.09-1.33-1.74-.26-.7-.15-1.53-.5-2.14-.37-.65-.92-1.17-1.36-1.71-.47-.59-1.01-1.07-1.53-1.52-.58-.5-1.28-.7-1.88-1.02-.7-.37-1.28-.72-1.93-.8-.78-.1-1.28.22-1.87.58s-1.54.2-1.99.67-.36,1.37-.67,1.97-.81,1.05-.97,1.72c-.15.62.1,1.29.08,1.99-.02.63.16,1.23.24,1.92.08.63.18,1.23.35,1.9.15.62.24,1.24.47,1.89.21.6.55,1.15.84,1.77.26.59.22,1.39.58,2.09.31.6.87,1.09,1.26,1.75.35.59.62,1.25,1.03,1.87.38.58.26,1.54.7,2.14.41.56,1.21.87,1.67,1.44s.79,1.2,1.28,1.74,1.3.72,1.82,1.23.87,1.14,1.41,1.62,1.14.84,1.71,1.29,1.27.64,1.88,1.05.84,1.32,1.46,1.7,1.4.42,2.05.75,1.03,1.18,1.69,1.47,1.43.32,2.11.58,1.44.19,2.14.4,1.39.27,2.11.43,1.35.43,2.07.56,1.41.2,2.13.29,1.43-.18,2.17-.13"/>
  </g>
  <g>
    <path class="cls-3" d="M68.01,101.74c-1,1.8-.5,1.65-1.69,3.76-.6,1.07-1.63,2.1-2.35,3.39-.66,1.17-1.43,2.35-2.11,3.53-.72,1.27-.96,2.75-1.59,3.83-.95,1.62-1.57,3.03-1.98,3.62-.9,1.3-2.57,2.31-3.04,3.71s.14,2.83,1.35,4.47c.51.69,1.59,1.4,2.95,2.31.96.64,1.85,1.7,3.06,2.34,1.1.58,2.3,1.13,3.49,1.63s2.36,1.25,3.53,1.6c1.35.41,2.79-.2,3.91-.12,1.6.11,2.46.01,3.13-.83,1.15-1.46,1.37-2.65.94-4-.69-2.16-1.83-1.59-1.9-3.9-.06-1.74.63-1.39,1.45-2.92s.83-1.53,1.65-3.06.75-1.57,1.57-3.1,1.05-1.41,1.87-2.95.23-1.85,1.05-3.39.78-1.56,1.6-3.09"/>
    <path class="cls-1" d="M68.01,101.74c-1,1.8-.5,1.65-1.69,3.76-.6,1.07-1.63,2.1-2.35,3.39-.66,1.17-1.43,2.35-2.11,3.53-.72,1.27-.96,2.75-1.59,3.83-.95,1.62-1.57,3.03-1.98,3.62-.9,1.3-2.57,2.31-3.04,3.71s.14,2.83,1.35,4.47c.51.69,1.59,1.4,2.95,2.31.96.64,1.85,1.7,3.06,2.34,1.1.58,2.3,1.13,3.49,1.63s2.36,1.25,3.53,1.6c1.35.41,2.79-.2,3.91-.12,1.6.11,2.46.01,3.13-.83,1.15-1.46,1.37-2.65.94-4-.69-2.16-1.83-1.59-1.9-3.9-.06-1.74.63-1.39,1.45-2.92s.83-1.53,1.65-3.06.75-1.57,1.57-3.1,1.05-1.41,1.87-2.95.23-1.85,1.05-3.39.78-1.56,1.6-3.09"/>
  </g>
  <g>
    <path class="cls-3" d="M90.26,114c.82,1.92.98,1.47,1.94,3.71.49,1.15.79,2.59,1.37,3.95.55,1.29,1.82,2.31,2.34,3.55.61,1.46.85,2.94,1.28,3.99.55,1.36,1.29,2.5,1.77,3.59.62,1.41,1.13,2.43,2.14,3.08.93.61,1.9.66,3.61.33,1.06-.21,2.67.31,4.21-.12,1.25-.35,2.6-.87,3.93-1.35s2.66-1.02,3.84-1.62c1.34-.68,2.22-1.93,3.13-2.75,1.19-1.08,2.15-2.15,2-3.44s-.96-2.15-1.79-2.76c-.9-.66-2.02-.9-3.1-1.04-1.76-.23-2.29,1.21-3.4-.05-1.28-1.44-.68-1.84-1.37-3.64s-.31-1.94-1-3.74-1.01-1.68-1.7-3.47-.8-1.76-1.5-3.56"/>
    <path class="cls-1" d="M90.26,114c.82,1.92.98,1.47,1.94,3.71.49,1.15.79,2.59,1.37,3.95.55,1.29,1.82,2.31,2.34,3.55.61,1.46.85,2.94,1.28,3.99.55,1.36,1.29,2.5,1.77,3.59.62,1.41,1.13,2.43,2.14,3.08.93.61,1.9.66,3.61.33,1.06-.21,2.67.31,4.21-.12,1.25-.35,2.6-.87,3.93-1.35s2.66-1.02,3.84-1.62c1.34-.68,2.22-1.93,3.13-2.75,1.19-1.08,2.15-2.15,2-3.44s-.96-2.15-1.79-2.76c-.9-.66-2.02-.9-3.1-1.04-1.76-.23-2.29,1.21-3.4-.05-1.28-1.44-.68-1.84-1.37-3.64s-.31-1.94-1-3.74-1.01-1.68-1.7-3.47-.8-1.76-1.5-3.56"/>
  </g>
  <g>
    <path class="cls-4" d="M103.89,21.54c.69.11,1.49-.3,2.16-.14s1.2.94,1.86,1.14,1.57-.27,2.22-.02.98,1.28,1.62,1.57,1.54.02,2.15.34,1.13.85,1.73,1.21,1.29.6,1.86,1,1.05.94,1.59,1.38,1.32.63,1.83,1.1,1.06.95,1.55,1.45.53,1.42.98,1.95.88,1.07,1.3,1.63.91,1.06,1.3,1.64.68,1.22,1.02,1.83.33,1.38.63,2.01,1.32.93,1.59,1.58.25,1.41.47,2.07.76,1.24.94,1.92.32,1.38.46,2.07-.21,1.46-.12,2.15-.06,1.39-.01,2.09.46,1.37.47,2.07c0,.11.33.23.33.35,0,.73-.89,1.44-.91,2.16s.92,1.5.88,2.22-.74,1.41-.8,2.13-.18,1.44-.25,2.16.17,1.48.1,2.2-.19,1.44-.26,2.16-.02,1.45-.08,2.18-.23,1.44-.26,2.16.14,1.45.13,2.18-.51,1.45-.48,2.18.08,1.46.14,2.18.35,1.42.45,2.15.41,1.39.56,2.11-.27,1.56-.07,2.27,1.3,1.1,1.55,1.79.19,1.43.43,2.08.61,1.29.85,1.93c.26.67-.21,1.6.04,2.24.26.68,1.08,1.12,1.32,1.76.25.68.47,1.35.69,2,.24.69-.02,1.5.17,2.15.21.7.95,1.23,1.09,1.88.16.71.09,1.44.15,2.11.07.72-.03,1.41-.09,2.08s-.47,1.26-.7,1.93.28,1.67-.12,2.28c-.36.55-1.09.94-1.61,1.48s-.9,1.19-1.4,1.55c-.59.42-1.28.74-1.87.99-.65.27-1.45.07-2.09.17-.68.1-1.37.58-2.03.55s-1.31-.71-1.97-.8-1.37-.12-2.02-.22c-.7-.1-1.38.39-2.03.38-.7,0-1.41-.55-2.03-.32-.73.27-1.5.51-2.15.9s-1.37.72-2,1.17-.95,1.29-1.61,1.7-1.51.31-2.23.63c-.67.29-1.16,1.25-1.94,1.42-.7.15-1.53,0-2.35,0-.74.01-1.43-.34-2.13-.48s-1.56.11-2.23-.15-1.32-.69-1.96-1.01-1.3-.7-1.92-1.06c-.65-.37-1.36-.58-1.98-.92-.68-.36-1.01-1.41-1.65-1.64-.73-.27-1.59-.13-2.27-.13-.61,0-1.3.12-2.02.29-.62.14-1.3.26-1.98.47-.62.19-1.32.23-1.98.45s-1.08,1.03-1.73,1.23-1.36.18-2.02.35-1.39-.08-2.05.03-1.29.79-1.97.8-1.42.05-2.09-.05-1.13-1.03-1.77-1.21-1.21-.46-1.83-.7-1.24-.43-1.85-.7-1.32-.31-1.92-.59-1.33-.32-1.93-.58c-.63-.28-1.22-.58-1.82-.8-.66-.24-1.33-.2-1.94-.32-.68-.14-1.28-.45-1.91-.38-.55.06-1.24.22-2.03.31-.62.07-1.29.39-2.02.47-.65.07-1.4-.57-2.11-.52-.67.05-1.32.63-2.02.66s-1.38.28-2.07.28-1.38-.4-2.06-.45-1.42.05-2.08-.06c-.7-.11-1.28-.68-1.92-.87-.69-.2-1.26-.49-1.84-.8-.63-.34-1.33-.5-1.77-.99s-.75-1.09-1.14-1.66-1.18-.89-1.47-1.5.26-1.55.05-2.19-.75-1.16-.86-1.82-.02-1.32-.03-2-.57-1.39-.47-2.07,1.06-1.12,1.27-1.77.46-1.17.78-1.78c.29-.58-.05-1.56.35-2.13.37-.53,1.23-.71,1.7-1.23s.74-1.28,1.18-1.88,1.13-1.01,1.51-1.65.58-1.36.92-2.02.24-1.49.53-2.17,1.26-1.08,1.52-1.77-.24-1.64,0-2.34.66-1.33.87-2.03.19-1.48.38-2.18.65-1.37.81-2.06c.18-.74.19-1.49.34-2.18.17-.75.19-1.5.33-2.17.16-.78,1-1.36,1.14-2s-.12-1.4,0-2.2c.09-.66-.3-1.44-.2-2.2.09-.68.7-1.32.81-2.07.1-.68-.22-1.46-.1-2.19.11-.69.71-1.31.85-2.04s.64-1.31.8-2.02.2-1.4.39-2.11.4-1.35.62-2.05.06-1.48.3-2.16.37-1.4.65-2.06.97-1.13,1.29-1.78.8-1.17,1.16-1.8.26-1.5.66-2.11.47-1.43.9-2.02,1.3-.81,1.77-1.37,1-1.01,1.5-1.54c.73-.75.19-.92,1.19-1.79.44-.39,1.14-.65,1.76-1.15.5-.4.99-.91,1.6-1.35.53-.39.96-1,1.57-1.42.55-.38,1.3-.52,1.91-.91.57-.36,1.21-.66,1.83-1.02.58-.34,1.37-.36,1.99-.69s1.19-.66,1.83-.97,1.18-.71,1.83-1,1.14-.87,1.79-1.13,1.49.06,2.16-.17,1.24-.64,1.92-.83,1.35-.27,2.04-.44,1.25-.79,1.94-.92,1.38-.2,2.08-.29,1.4-.08,2.1-.14,1.4.29,2.1.26,1.39-.68,2.09-.67,1.38.44,2.08.49c.84.06,1.64.32,2.43.41.84.1,1.62.34,2.41.47Z"/>
    <path class="cls-1" d="M103.89,21.54c.69.11,1.49-.3,2.16-.14s1.2.94,1.86,1.14,1.57-.27,2.22-.02.98,1.28,1.62,1.57,1.54.02,2.15.34,1.13.85,1.73,1.21,1.29.6,1.86,1,1.05.94,1.59,1.38,1.32.63,1.83,1.1,1.06.95,1.55,1.45.53,1.42.98,1.95.88,1.07,1.3,1.63.91,1.06,1.3,1.64.68,1.22,1.02,1.83.33,1.38.63,2.01,1.32.93,1.59,1.58.25,1.41.47,2.07.76,1.24.94,1.92.32,1.38.46,2.07-.21,1.46-.12,2.15-.06,1.39-.01,2.09.46,1.37.47,2.07c0,.11.33.23.33.35,0,.73-.89,1.44-.91,2.16s.92,1.5.88,2.22-.74,1.41-.8,2.13-.18,1.44-.25,2.16.17,1.48.1,2.2-.19,1.44-.26,2.16-.02,1.45-.08,2.18-.23,1.44-.26,2.16.14,1.45.13,2.18-.51,1.45-.48,2.18.08,1.46.14,2.18.35,1.42.45,2.15.41,1.39.56,2.11-.27,1.56-.07,2.27,1.3,1.1,1.55,1.79.19,1.43.43,2.08.61,1.29.85,1.93c.26.67-.21,1.6.04,2.24.26.68,1.08,1.12,1.32,1.76.25.68.47,1.35.69,2,.24.69-.02,1.5.17,2.15.21.7.95,1.23,1.09,1.88.16.71.09,1.44.15,2.11.07.72-.03,1.41-.09,2.08s-.47,1.26-.7,1.93.28,1.67-.12,2.28c-.36.55-1.09.94-1.61,1.48s-.9,1.19-1.4,1.55c-.59.42-1.28.74-1.87.99-.65.27-1.45.07-2.09.17-.68.1-1.37.58-2.03.55s-1.31-.71-1.97-.8-1.37-.12-2.02-.22c-.7-.1-1.38.39-2.03.38-.7,0-1.41-.55-2.03-.32-.73.27-1.5.51-2.15.9s-1.37.72-2,1.17-.95,1.29-1.61,1.7-1.51.31-2.23.63c-.67.29-1.16,1.25-1.94,1.42-.7.15-1.53,0-2.35,0-.74.01-1.43-.34-2.13-.48s-1.56.11-2.23-.15-1.32-.69-1.96-1.01-1.3-.7-1.92-1.06c-.65-.37-1.36-.58-1.98-.92-.68-.36-1.01-1.41-1.65-1.64-.73-.27-1.59-.13-2.27-.13-.61,0-1.3.12-2.02.29-.62.14-1.3.26-1.98.47-.62.19-1.32.23-1.98.45s-1.08,1.03-1.73,1.23-1.36.18-2.02.35-1.39-.08-2.05.03-1.29.79-1.97.8-1.42.05-2.09-.05-1.13-1.03-1.77-1.21-1.21-.46-1.83-.7-1.24-.43-1.85-.7-1.32-.31-1.92-.59-1.33-.32-1.93-.58c-.63-.28-1.22-.58-1.82-.8-.66-.24-1.33-.2-1.94-.32-.68-.14-1.28-.45-1.91-.38-.55.06-1.24.22-2.03.31-.62.07-1.29.39-2.02.47-.65.07-1.4-.57-2.11-.52-.67.05-1.32.63-2.02.66s-1.38.28-2.07.28-1.38-.4-2.06-.45-1.42.05-2.08-.06c-.7-.11-1.28-.68-1.92-.87-.69-.2-1.26-.49-1.84-.8-.63-.34-1.33-.5-1.77-.99s-.75-1.09-1.14-1.66-1.18-.89-1.47-1.5.26-1.55.05-2.19-.75-1.16-.86-1.82-.02-1.32-.03-2-.57-1.39-.47-2.07,1.06-1.12,1.27-1.77.46-1.17.78-1.78c.29-.58-.05-1.56.35-2.13.37-.53,1.23-.71,1.7-1.23s.74-1.28,1.18-1.88,1.13-1.01,1.51-1.65.58-1.36.92-2.02.24-1.49.53-2.17,1.26-1.08,1.52-1.77-.24-1.64,0-2.34.66-1.33.87-2.03.19-1.48.38-2.18.65-1.37.81-2.06c.18-.74.19-1.49.34-2.18.17-.75.19-1.5.33-2.17.16-.78,1-1.36,1.14-2s-.12-1.4,0-2.2c.09-.66-.3-1.44-.2-2.2.09-.68.7-1.32.81-2.07.1-.68-.22-1.46-.1-2.19.11-.69.71-1.31.85-2.04s.64-1.31.8-2.02.2-1.4.39-2.11.4-1.35.62-2.05.06-1.48.3-2.16.37-1.4.65-2.06.97-1.13,1.29-1.78.8-1.17,1.16-1.8.26-1.5.66-2.11.47-1.43.9-2.02,1.3-.81,1.77-1.37,1-1.01,1.5-1.54c.73-.75.19-.92,1.19-1.79.44-.39,1.14-.65,1.76-1.15.5-.4.99-.91,1.6-1.35.53-.39.96-1,1.57-1.42.55-.38,1.3-.52,1.91-.91.57-.36,1.21-.66,1.83-1.02.58-.34,1.37-.36,1.99-.69s1.19-.66,1.83-.97,1.18-.71,1.83-1,1.14-.87,1.79-1.13,1.49.06,2.16-.17,1.24-.64,1.92-.83,1.35-.27,2.04-.44,1.25-.79,1.94-.92,1.38-.2,2.08-.29,1.4-.08,2.1-.14,1.4.29,2.1.26,1.39-.68,2.09-.67,1.38.44,2.08.49c.84.06,1.64.32,2.43.41.84.1,1.62.34,2.41.47Z"/>
  </g>
  <g>
    <path class="cls-1" d="M126.2,57.04c.99-.26.65-.51,1.9-.77.57-.12,1.3.07,2.06-.07.62-.11,1.21-.7,1.93-.81.64-.1,1.37.2,2.08.11.65-.08,1.33-.09,2.03-.15s1.33-.17,2.03-.21,1.35,0,2.04,0,1.35-.14,2.04-.13,1.4-.52,2.08-.47,1.34.46,2.01.55"/>
    <path class="cls-1" d="M124.98,64c1.06.26.63.81,1.93,1.19.6.18,1.32.3,2.1.55.64.21,1.58-.29,2.31-.03.65.23,1.18.93,1.88,1.2.66.25,1.34.52,2.03.8s1.27.71,1.94,1.02,1.3.63,1.95.96,1.6.13,2.23.49.88,1.36,1.47,1.76"/>
  </g>
  <g>
    <path class="cls-1" d="M41.33,49.42c1.01-.16.75-.44,2.01-.56.59-.05,1.34.7,2.11.66.63-.03,1.3-.69,2.03-.7.66-.01,1.35.36,2.06.38.67.02,1.36-.07,2.06-.02s1.3.61,1.98.7,1.43-.32,2.1-.18,1.25.65,1.9.84,1.22.56,1.84.82,1.62-.16,2.19.18"/>
    <path class="cls-1" d="M42.36,62.26c.94-.42.57-.63,1.78-1.07.55-.2,1.32-.08,2.07-.32.61-.19,1.21-.57,1.92-.76.63-.17,1.17-.9,1.88-1.05.65-.15,1.42.14,2.13.02.66-.12,1.32-.39,2.02-.48s1.39.09,2.09.04,1.37-.22,2.06-.22,1.39-.06,2.08-.02,1.43-.24,2.12-.15"/>
  </g>
  <g>
    <path class="cls-4" d="M63.38,36.11c.08-1.02-.26-.79-.11-2.08.07-.58.64-1.21.75-1.98.08-.62.03-1.32.14-2.05.1-.64-.06-1.37.06-2.07.11-.65.13-1.35.27-2.05s.39-1.31.53-1.99.11-1.38.28-2.05.28-1.35.46-2.02.58-1.27.78-1.93.69-1.22.92-1.87.53-1.27.79-1.9.71-1.19,1-1.8.66-1.19.99-1.77c.35-.61.75-1.12,1.13-1.66.41-.58.68-1.18,1.13-1.66.49-.52.82-1.12,1.36-1.51.57-.41,1.18-.67,1.81-.89.71-.26,1.35-.74,2-.77.73-.03,1.46.18,2.12.39s1.11.84,1.71,1.25c.56.38.96.91,1.46,1.43.47.49,1.16.8,1.58,1.38s.76,1.16,1.12,1.78,1.11,1.01,1.42,1.64.25,1.46.52,2.09.54,1.33.77,1.96c.26.7.65,1.32.85,1.94.24.75.25,1.49.41,2.08.34,1.25.14,1.04.36,2.07"/>
    <path class="cls-1" d="M63.38,36.11c.08-1.02-.26-.79-.11-2.08.07-.58.64-1.21.75-1.98.08-.62.03-1.32.14-2.05.1-.64-.06-1.37.06-2.07.11-.65.13-1.35.27-2.05s.39-1.31.53-1.99.11-1.38.28-2.05.28-1.35.46-2.02.58-1.27.78-1.93.69-1.22.92-1.87.53-1.27.79-1.9.71-1.19,1-1.8.66-1.19.99-1.77c.35-.61.75-1.12,1.13-1.66.41-.58.68-1.18,1.13-1.66.49-.52.82-1.12,1.36-1.51.57-.41,1.18-.67,1.81-.89.71-.26,1.35-.74,2-.77.73-.03,1.46.18,2.12.39s1.11.84,1.71,1.25c.56.38.96.91,1.46,1.43.47.49,1.16.8,1.58,1.38s.76,1.16,1.12,1.78,1.11,1.01,1.42,1.64.25,1.46.52,2.09.54,1.33.77,1.96c.26.7.65,1.32.85,1.94.24.75.25,1.49.41,2.08.34,1.25.14,1.04.36,2.07"/>
  </g>
  <g>
    <path class="cls-3" d="M76.96,43.34c-.44.61-1.26.97-1.51,1.59-.28.69.1,1.51.03,2.19-.08.72-.5,1.43-.4,2.12s.46,1.37.71,2.03.62,1.29.98,1.88.97,1.06,1.41,1.58c.49.59.87,1.18,1.36,1.6.66.56,1.34.68,1.84.87.47.17.9,1.09,1.68,1.3.59.16,1.38-.28,2.08-.17.64.1,1.26.48,1.95.49s1.28-.36,1.95-.48,1.17-.41,1.8-.67,1.08-.52,1.63-.94c.5-.39.97-.72,1.41-1.28.38-.49.59-1.05.9-1.7.27-.56.85-1.01,1.06-1.7s0-1.35-.06-2.07c-.06-.69-.11-1.33-.37-2.03-.25-.64,0-1.59-.4-2.21-.37-.59-1.18-.92-1.66-1.46s-.87-1.15-1.43-1.62-1.38-.51-1.99-.89-1.11-.91-1.76-1.19-1.35-.43-2.03-.6-1.38-.02-2.09-.05-1.45-.61-2.15-.47-1.26.69-1.91,1.03c-.61.31-1.57.25-2.13.75-.5.45-.45,1.49-.89,2.1Z"/>
    <path class="cls-1" d="M76.96,43.34c-.44.61-1.26.97-1.51,1.59-.28.69.1,1.51.03,2.19-.08.72-.5,1.43-.4,2.12s.46,1.37.71,2.03.62,1.29.98,1.88.97,1.06,1.41,1.58c.49.59.87,1.18,1.36,1.6.66.56,1.34.68,1.84.87.47.17.9,1.09,1.68,1.3.59.16,1.38-.28,2.08-.17.64.1,1.26.48,1.95.49s1.28-.36,1.95-.48,1.17-.41,1.8-.67,1.08-.52,1.63-.94c.5-.39.97-.72,1.41-1.28.38-.49.59-1.05.9-1.7.27-.56.85-1.01,1.06-1.7s0-1.35-.06-2.07c-.06-.69-.11-1.33-.37-2.03-.25-.64,0-1.59-.4-2.21-.37-.59-1.18-.92-1.66-1.46s-.87-1.15-1.43-1.62-1.38-.51-1.99-.89-1.11-.91-1.76-1.19-1.35-.43-2.03-.6-1.38-.02-2.09-.05-1.45-.61-2.15-.47-1.26.69-1.91,1.03c-.61.31-1.57.25-2.13.75-.5.45-.45,1.49-.89,2.1Z"/>
  </g>
  <g>
    <path class="cls-3" d="M99.31,52.49c-.1.72.29,1.5.44,2.25.14.71.02,1.6.38,2.27.34.64,1.29.88,1.83,1.43.5.51.78,1.36,1.45,1.76.61.36,1.29.85,2.05,1.08.68.2,1.52-.05,2.31.02.7.06,1.41-.34,2.2-.42.7-.06,1.58.67,2.35.49.73-.17,1.46-.44,2.08-.69.69-.28,1-1.25,1.56-1.61.62-.4,1.53-.41,2-.9.51-.52,1-1.12,1.36-1.71s.76-1.31.98-1.96.17-1.48.25-2.17-.14-1.44-.2-2.13c-.07-.73-.42-1.34-.63-1.99-.23-.7-.61-1.2-.98-1.76-.42-.63-.83-1.1-1.36-1.58-.56-.5-.9-1.19-1.54-1.51s-1.24-.98-1.95-1.15-1.53.2-2.26.2-1.44.11-2.15.26-1.57-.02-2.23.29-1.26.71-1.87,1.06-1.21.8-1.76,1.23-1.26.79-1.74,1.32-.95,1.14-1.31,1.77c-.34.59-.18,1.47-.42,2.17-.21.64-.74,1.25-.85,2Z"/>
    <path class="cls-1" d="M99.31,52.49c-.1.72.29,1.5.44,2.25.14.71.02,1.6.38,2.27.34.64,1.29.88,1.83,1.43.5.51.78,1.36,1.45,1.76.61.36,1.29.85,2.05,1.08.68.2,1.52-.05,2.31.02.7.06,1.41-.34,2.2-.42.7-.06,1.58.67,2.35.49.73-.17,1.46-.44,2.08-.69.69-.28,1-1.25,1.56-1.61.62-.4,1.53-.41,2-.9.51-.52,1-1.12,1.36-1.71s.76-1.31.98-1.96.17-1.48.25-2.17-.14-1.44-.2-2.13c-.07-.73-.42-1.34-.63-1.99-.23-.7-.61-1.2-.98-1.76-.42-.63-.83-1.1-1.36-1.58-.56-.5-.9-1.19-1.54-1.51s-1.24-.98-1.95-1.15-1.53.2-2.26.2-1.44.11-2.15.26-1.57-.02-2.23.29-1.26.71-1.87,1.06-1.21.8-1.76,1.23-1.26.79-1.74,1.32-.95,1.14-1.31,1.77c-.34.59-.18,1.47-.42,2.17-.21.64-.74,1.25-.85,2Z"/>
  </g>
  <circle class="cls-2" cx="90.17" cy="50.99" r="3.21"/>
  <circle class="cls-2" cx="106.04" cy="52.74" r="3.21"/>
  <path class="cls-1" d="M32.38,114.28c-.12.65-.31,1.28-.88,1.6-.53.3-1.16,0-1.84-.14s-1.49.03-1.88-.44c-.42-.51-.18-1.24-.06-1.89s.31-1.17.88-1.5c.53-.3,1.2-.7,1.88-.57s.87.98,1.26,1.45c.42.51.76.83.64,1.49Z"/>
</svg>