<?xml version="1.0" encoding="UTF-8"?>
<svg xmlns="http://www.w3.org/2000/svg" viewBox="0 0 350 220">
  <defs>
    <style>
      .cls-1 {
        fill: #ffaf42;
      }

      .cls-2 {
        fill: #e4f2a9;
      }

      .cls-3, .cls-4 {
        fill: #fdb2d2;
      }

      .cls-5, .cls-6, .cls-7, .cls-8 {
        fill: none;
      }

      .cls-5, .cls-9 {
        stroke-width: 2px;
      }

      .cls-5, .cls-9, .cls-10 {
        stroke: #000;
      }

      .cls-5, .cls-9, .cls-8 {
        stroke-linecap: round;
        stroke-linejoin: round;
      }

      .cls-4 {
        mix-blend-mode: multiply;
      }

      .cls-11 {
        isolation: isolate;
      }

      .cls-12 {
        fill: #fddb5d;
      }

      .cls-13 {
        fill: #91d1fd;
      }

      .cls-14 {
        fill: #fff;
      }

      .cls-6 {
        stroke: rgba(231, 59, 55, .55);
      }

      .cls-7 {
        stroke: rgba(74, 139, 193, .4);
      }

      .cls-15 {
        fill: #d6eb76;
      }

      .cls-9 {
        fill: #fffcf8;
      }

      .cls-10 {
        stroke-miterlimit: 10;
      }

      .cls-8 {
        stroke: #ed0066;
        stroke-width: .75px;
      }

      .cls-16 {
        fill: #faf3e5;
      }
    </style>
  </defs>
  <g class="cls-11">
    <g id="note_BG">
      <rect class="cls-16" x="0" width="350" height="220"/>
      <g>
        <line class="cls-7" x1="0" y1="26" x2="350" y2="26"/>
        <line class="cls-7" x1="0" y1="52" x2="350" y2="52"/>
        <line class="cls-7" x1="0" y1="78" x2="350" y2="78"/>
        <line class="cls-7" x1="0" y1="104" x2="350" y2="104"/>
        <line class="cls-7" x1="0" y1="130" x2="350" y2="130"/>
        <line class="cls-7" x1="0" y1="156" x2="350" y2="156"/>
        <line class="cls-7" x1="0" y1="182" x2="350" y2="182"/>
        <line class="cls-7" x1="0" y1="208" x2="350" y2="208"/>
        <line class="cls-6" x1="24.5" x2="24.5" y2="220"/>
        <line class="cls-6" x1="27.5" x2="27.5" y2="220"/>
      </g>
    </g>
    <g id="ground">
      <g>
        <path class="cls-5" d="M277.1,196.94c2.28,0,2.28-.08,4.55-.08s2.28.25,4.56.25,2.28-.68,4.56-.68,2.28-.05,4.55-.05,2.28,0,4.55,0,2.28-.2,4.56-.2,2.28.46,4.55.46,2.28.39,4.55.39,2.28-.82,4.56-.82,2.28.25,4.56.25,2.28-.16,4.56-.16,2.28-.1,4.56-.1,2.28.76,4.56.76,2.28-.48,4.56-.48,2.28.31,4.56.31,2.28-.36,4.56-.36"/>
        <path class="cls-5" d="M107.41,196.43c2.27,0,2.27-.05,4.54-.05s2.27,0,4.54,0,2.27-.2,4.54-.2,2.27.46,4.54.46,2.27.39,4.54.39,2.27-.82,4.55-.82,2.27.25,4.54.25,2.27-.16,4.54-.16,2.27-.1,4.54-.1,2.27.76,4.55.76,2.27-.48,4.54-.48,2.27.31,4.54.31,2.27-.36,4.55-.36,2.27.69,4.54.69,2.27-.72,4.55-.72,2.27.65,4.55.65,2.27-.1,4.55-.1,2.27-.26,4.55-.26,2.27-.35,4.55-.35,2.27.09,4.55.09,2.27.6,4.55.6,2.27-.55,4.55-.55,2.27.6,4.55.6,2.27-.77,4.54-.77,2.27-.04,4.55-.04,2.27.67,4.54.67,2.27-.69,4.55-.69,2.27,0,4.55,0,2.27.36,4.55.36,2.27.11,4.55.11,2.27-.29,4.55-.29,2.27.24,4.55.24,2.28-.32,4.55-.32,2.28.66,4.56.66,2.28.06,4.56.06"/>
        <path class="cls-5" d="M0,196.56c2.2,0,2.2.06,4.41.06s2.2.18,4.41.18,2.2.13,4.41.13,2.2-.14,4.41-.14,2.21.07,4.41.07,2.2-.28,4.41-.28,2.21.1,4.41.1,2.21-.04,4.41-.04,2.2-.11,4.41-.11,2.2.38,4.41.38,2.21-.42,4.41-.42,2.2.55,4.41.55,2.2-.26,4.41-.26,2.21.15,4.41.15,2.21-.7,4.41-.7,2.21.36,4.41.36,2.21-.25,4.41-.25,2.21.41,4.41.41,2.21.09,4.42.09,2.21-.37,4.42-.37,2.21.2,4.42.2"/>
      </g>
      <path class="cls-9" d="M245.26,191.8c-1.18,1.22-1.71,3.04-1.37,4.7.03.15.07.31.18.42.13.13.32.17.49.2,2.58.47,5.23.38,7.85.28.32-.01.65-.03.93-.16.4-.19.66-.6.84-1.01.55-1.3.45-2.85-.26-4.07-1.83-3.11-6.35-2.77-8.65-.37Z"/>
      <path class="cls-9" d="M234.6,201.34c0,.51.16,1.04.53,1.39.39.37.94.48,1.47.55.88.12,1.78.15,2.67.11.28-.48.56-1,.55-1.55-.03-2.95-5.29-4.13-5.22-.49Z"/>
      <path class="cls-9" d="M38.97,196.04c-.06.65.26,1.29.72,1.76s1.05.77,1.65,1.05c1.56.73,3.19.94,4.32-.58.75-1.02.98-2.38.05-3.32-1.45-1.46-6.48-1.58-6.73,1.09Z"/>
    </g>
    <g id="character">
      <g>
        <g>
          <path class="cls-1" d="M161.49,171.35c-1.24,2.24-.74,2.08-2.19,4.65-.76,1.36-1.98,2.72-2.86,4.28s-1.83,3.04-2.63,4.41c-1.18,2.04-1.71,3.97-2.19,4.67-.9,1.3-1.74,2.64-2.21,4.05s-1,2.95.21,4.58c.69.94,2.81,1.83,4.96,3.1,1.55.91,3.36,1.68,5.17,2.45s3.62,1.87,5.31,2.22c2.47.52,4.66.35,5.57-.81,1.15-1.46,1.45-3.21,1.02-4.56-.69-2.16-3.6-1.46-3.36-3.76.27-2.59,1.28-2.48,2.51-4.77s1.51-2.15,2.74-4.45,1.75-2.02,2.99-4.32,1.1-2.37,2.33-4.68"/>
          <path class="cls-5" d="M161.49,171.35c-1.24,2.24-.74,2.08-2.19,4.65-.76,1.36-1.98,2.72-2.86,4.28s-1.83,3.04-2.63,4.41c-1.18,2.04-1.71,3.97-2.19,4.67-.9,1.3-1.74,2.64-2.21,4.05s-1,2.95.21,4.58c.69.94,2.81,1.83,4.96,3.1,1.55.91,3.36,1.68,5.17,2.45s3.62,1.87,5.31,2.22c2.47.52,4.66.35,5.57-.81,1.15-1.46,1.45-3.21,1.02-4.56-.69-2.16-3.6-1.46-3.36-3.76.27-2.59,1.28-2.48,2.51-4.77s1.51-2.15,2.74-4.45,1.75-2.02,2.99-4.32,1.1-2.37,2.33-4.68"/>
        </g>
        <g>
          <path class="cls-1" d="M183.44,180.94c1.1,2.56,1.25,2.11,2.48,4.99.68,1.6,1.18,3.52,1.91,5.24.82,1.94,2.3,3.48,2.86,4.84.89,2.17,1.18,4.23,2.08,5.6,1.07,1.62,2.4,2.11,5.12,1.59,1.29-.25,3.05-.61,4.98-1.19,1.59-.48,3.19-1.14,4.78-1.82,1.69-.72,3.71-.8,4.95-1.72,1.67-1.25,2.79-3.07,2.61-4.63-.25-2.03-1.82-3.39-3.33-3.91-2.28-.77-3.42,1.9-5.24.16s-.65-2.59-1.57-4.99-1.12-2.32-2.05-4.72-.99-2.37-1.91-4.77"/>
          <path class="cls-5" d="M183.44,180.94c1.1,2.56,1.25,2.11,2.48,4.99.68,1.6,1.18,3.52,1.91,5.24.82,1.94,2.3,3.48,2.86,4.84.89,2.17,1.18,4.23,2.08,5.6,1.07,1.62,2.4,2.11,5.12,1.59,1.29-.25,3.05-.61,4.98-1.19,1.59-.48,3.19-1.14,4.78-1.82,1.69-.72,3.71-.8,4.95-1.72,1.67-1.25,2.79-3.07,2.61-4.63-.25-2.03-1.82-3.39-3.33-3.91-2.28-.77-3.42,1.9-5.24.16s-.65-2.59-1.57-4.99-1.12-2.32-2.05-4.72-.99-2.37-1.91-4.77"/>
        </g>
        <g>
          <path class="cls-1" d="M159.99,150.81c-.7.18-1.51-.29-2.2-.17s-1.37.27-2.06.33-1.39.58-2.08.58-1.4-.54-2.09-.59-1.49.49-2.18.37-1.41-.31-2.08-.49-1.32-.58-1.98-.81-1.17-.84-1.81-1.13-1.63.07-2.24-.27-1-1.11-1.59-1.5-1.33-.59-1.88-1.03-.79-1.27-1.31-1.74-.95-1.03-1.44-1.53-1.33-.71-1.78-1.24-.6-1.33-1.02-1.89-1.03-1.01-1.41-1.6-.92-1.12-1.26-1.73-.18-1.51-.47-2.14c-.3-.66-1.09-1.09-1.33-1.74-.26-.7-.15-1.53-.5-2.14-.37-.65-.92-1.17-1.36-1.71-.47-.59-1.01-1.07-1.53-1.52-.58-.5-1.28-.7-1.88-1.02-.7-.37-1.28-.72-1.93-.8-.78-.1-1.28.22-1.87.58s-1.54.2-1.99.67-.36,1.37-.67,1.97-.81,1.05-.97,1.72c-.15.62.1,1.29.08,1.99-.02.63.16,1.23.24,1.92.08.63.18,1.23.35,1.9.15.62.24,1.24.47,1.89.21.6.55,1.15.84,1.77.26.59.22,1.39.58,2.09.31.6.87,1.09,1.26,1.75.35.59.62,1.25,1.03,1.87.38.58.26,1.54.7,2.14.41.56,1.21.87,1.67,1.44s.79,1.2,1.28,1.74,1.3.72,1.82,1.23.87,1.14,1.41,1.62,1.14.84,1.71,1.29,1.27.64,1.88,1.05.84,1.32,1.46,1.7,1.4.42,2.05.75,1.03,1.18,1.69,1.47,1.43.32,2.11.58,1.44.19,2.14.4,1.39.27,2.11.43,1.35.43,2.07.56,1.41.2,2.13.29,1.43-.18,2.17-.13"/>
          <path class="cls-5" d="M159.99,150.81c-.7.18-1.51-.29-2.2-.17s-1.37.27-2.06.33-1.39.58-2.08.58-1.4-.54-2.09-.59-1.49.49-2.18.37-1.41-.31-2.08-.49-1.32-.58-1.98-.81-1.17-.84-1.81-1.13-1.63.07-2.24-.27-1-1.11-1.59-1.5-1.33-.59-1.88-1.03-.79-1.27-1.31-1.74-.95-1.03-1.44-1.53-1.33-.71-1.78-1.24-.6-1.33-1.02-1.89-1.03-1.01-1.41-1.6-.92-1.12-1.26-1.73-.18-1.51-.47-2.14c-.3-.66-1.09-1.09-1.33-1.74-.26-.7-.15-1.53-.5-2.14-.37-.65-.92-1.17-1.36-1.71-.47-.59-1.01-1.07-1.53-1.52-.58-.5-1.28-.7-1.88-1.02-.7-.37-1.28-.72-1.93-.8-.78-.1-1.28.22-1.87.58s-1.54.2-1.99.67-.36,1.37-.67,1.97-.81,1.05-.97,1.72c-.15.62.1,1.29.08,1.99-.02.63.16,1.23.24,1.92.08.63.18,1.23.35,1.9.15.62.24,1.24.47,1.89.21.6.55,1.15.84,1.77.26.59.22,1.39.58,2.09.31.6.87,1.09,1.26,1.75.35.59.62,1.25,1.03,1.87.38.58.26,1.54.7,2.14.41.56,1.21.87,1.67,1.44s.79,1.2,1.28,1.74,1.3.72,1.82,1.23.87,1.14,1.41,1.62,1.14.84,1.71,1.29,1.27.64,1.88,1.05.84,1.32,1.46,1.7,1.4.42,2.05.75,1.03,1.18,1.69,1.47,1.43.32,2.11.58,1.44.19,2.14.4,1.39.27,2.11.43,1.35.43,2.07.56,1.41.2,2.13.29,1.43-.18,2.17-.13"/>
        </g>
        <g>
          <path class="cls-14" d="M198.48,92.49c.73-.73.8-.31,1.73-1.18.43-.4.8-1.03,1.38-1.55.48-.43.96-.94,1.52-1.41.5-.43,1.06-.85,1.61-1.3s1.1-.82,1.66-1.25,1.35-.49,1.91-.88.95-1.06,1.53-1.43,1.14-.83,1.73-1.16c.63-.34,1.28-.6,1.89-.86.67-.29,1.38-.35,2-.52.72-.19,1.37-.16,2.01-.14.73.02,1.35.02,1.93.37s1.02.84,1.43,1.41.95,1.01,1.19,1.7c.22.62.29,1.33.41,2.04.11.66.21,1.35.23,2.06.03.67.14,1.37.11,2.08s-.46,1.34-.53,2.04.26,1.42.15,2.11-.76,1.27-.89,1.95-.02,1.41-.17,2.08-.47,1.32-.64,1.98c-.18.7.31,1.55.13,2.19-.2.71-.75,1.28-.94,1.89-.23.75-.21,1.49-.4,2.05-.41,1.22-.7.85-1.07,1.82"/>
          <path class="cls-5" d="M198.48,92.49c.73-.73.8-.31,1.73-1.18.43-.4.8-1.03,1.38-1.55.48-.43.96-.94,1.52-1.41.5-.43,1.06-.85,1.61-1.3s1.1-.82,1.66-1.25,1.35-.49,1.91-.88.95-1.06,1.53-1.43,1.14-.83,1.73-1.16c.63-.34,1.28-.6,1.89-.86.67-.29,1.38-.35,2-.52.72-.19,1.37-.16,2.01-.14.73.02,1.35.02,1.93.37s1.02.84,1.43,1.41.95,1.01,1.19,1.7c.22.62.29,1.33.41,2.04.11.66.21,1.35.23,2.06.03.67.14,1.37.11,2.08s-.46,1.34-.53,2.04.26,1.42.15,2.11-.76,1.27-.89,1.95-.02,1.41-.17,2.08-.47,1.32-.64,1.98c-.18.7.31,1.55.13,2.19-.2.71-.75,1.28-.94,1.89-.23.75-.21,1.49-.4,2.05-.41,1.22-.7.85-1.07,1.82"/>
        </g>
        <g>
          <path class="cls-14" d="M195.44,91.33c.69.11,1.49-.3,2.16-.14s1.2.94,1.86,1.14,1.57-.27,2.22-.02.98,1.28,1.62,1.57,1.54.02,2.15.34,1.13.85,1.73,1.21,1.29.6,1.86,1,1.05.94,1.59,1.38,1.32.63,1.83,1.1,1.06.95,1.55,1.45.53,1.42.98,1.95.88,1.07,1.3,1.63.91,1.06,1.3,1.64.68,1.22,1.02,1.83.33,1.38.63,2.01,1.32.93,1.59,1.58.25,1.41.47,2.07.76,1.24.94,1.92.32,1.38.46,2.07-.21,1.46-.12,2.15-.06,1.39-.01,2.09.46,1.37.47,2.07c0,.11.33.23.33.35,0,.73-.89,1.44-.91,2.16s.92,1.5.88,2.22-.74,1.41-.8,2.13-.18,1.44-.25,2.16.17,1.48.1,2.2-.19,1.44-.26,2.16-.02,1.45-.08,2.18-.23,1.44-.26,2.16.14,1.45.13,2.18-.51,1.45-.48,2.18.08,1.46.14,2.18.35,1.42.45,2.15.41,1.39.56,2.11-.27,1.56-.07,2.27,1.3,1.1,1.55,1.79.19,1.43.43,2.08.61,1.29.85,1.93c.26.67-.21,1.6.04,2.24.26.68,1.08,1.12,1.32,1.76.25.68.47,1.35.69,2,.24.69-.02,1.5.17,2.15.21.7.95,1.23,1.09,1.88.16.71.09,1.44.15,2.11.07.72-.03,1.41-.09,2.08s-.47,1.26-.7,1.93.28,1.67-.12,2.28c-.36.55-1.09.94-1.61,1.48s-.9,1.19-1.4,1.55c-.59.42-1.28.74-1.87.99-.65.27-1.45.07-2.09.17-.68.1-1.37.58-2.03.55s-1.31-.71-1.97-.8-1.37-.12-2.02-.22c-.7-.1-1.38.39-2.03.38-.7,0-1.41-.55-2.03-.32-.73.27-1.5.51-2.15.9s-1.37.72-2,1.17-.95,1.29-1.61,1.7-1.51.31-2.23.63c-.67.29-1.16,1.25-1.94,1.42-.7.15-1.53,0-2.35,0-.74.01-1.43-.34-2.13-.48s-1.56.11-2.23-.15-1.32-.69-1.96-1.01-1.3-.7-1.92-1.06c-.65-.37-1.36-.58-1.98-.92-.68-.36-1.01-1.41-1.65-1.64-.73-.27-1.59-.13-2.27-.13-.61,0-1.3.12-2.02.29-.62.14-1.3.26-1.98.47-.62.19-1.32.23-1.98.45s-1.08,1.03-1.73,1.23-1.36.18-2.02.35-1.39-.08-2.05.03-1.29.79-1.97.8-1.42.05-2.09-.05-1.13-1.03-1.77-1.21-1.21-.46-1.83-.7-1.24-.43-1.85-.7-1.32-.31-1.92-.59-1.33-.32-1.93-.58c-.63-.28-1.22-.58-1.82-.8-.66-.24-1.33-.2-1.94-.32-.68-.14-1.28-.45-1.91-.38-.55.06-1.24.22-2.03.31-.62.07-1.29.39-2.02.47-.65.07-1.4-.57-2.11-.52-.67.05-1.32.63-2.02.66s-1.38.28-2.07.28-1.38-.4-2.06-.45-1.42.05-2.08-.06c-.7-.11-1.28-.68-1.92-.87-.69-.2-1.26-.49-1.84-.8-.63-.34-1.33-.5-1.77-.99s-.75-1.09-1.14-1.66-1.18-.89-1.47-1.5.26-1.55.05-2.19-.75-1.16-.86-1.82-.02-1.32-.03-2-.57-1.39-.47-2.07,1.06-1.12,1.27-1.77.46-1.17.78-1.78c.29-.58-.05-1.56.35-2.13.37-.53,1.23-.71,1.7-1.23s.74-1.28,1.18-1.88,1.13-1.01,1.51-1.65.58-1.36.92-2.02.24-1.49.53-2.17,1.26-1.08,1.52-1.77-.24-1.64,0-2.34.66-1.33.87-2.03.19-1.48.38-2.18.65-1.37.81-2.06c.18-.74.19-1.49.34-2.18.17-.75.19-1.5.33-2.17.16-.78,1-1.36,1.14-2s-.12-1.4,0-2.2c.09-.66-.3-1.44-.2-2.2.09-.68.7-1.32.81-2.07.1-.68-.22-1.46-.1-2.19.11-.69.71-1.31.85-2.04s.64-1.31.8-2.02.2-1.4.39-2.11.4-1.35.62-2.05.06-1.48.3-2.16.37-1.4.65-2.06.97-1.13,1.29-1.78.8-1.17,1.16-1.8.26-1.5.66-2.11.47-1.43.9-2.02,1.3-.81,1.77-1.37,1-1.01,1.5-1.54c.73-.75.19-.92,1.19-1.79.44-.39,1.14-.65,1.76-1.15.5-.4.99-.91,1.6-1.35.53-.39.96-1,1.57-1.42.55-.38,1.3-.52,1.91-.91.57-.36,1.21-.66,1.83-1.02.58-.34,1.37-.36,1.99-.69s1.19-.66,1.83-.97,1.18-.71,1.83-1,1.14-.87,1.79-1.13,1.49.06,2.16-.17,1.24-.64,1.92-.83,1.35-.27,2.04-.44,1.25-.79,1.94-.92,1.38-.2,2.08-.29,1.4-.08,2.1-.14,1.4.29,2.1.26,1.39-.68,2.09-.67,1.38.44,2.08.49c.84.06,1.64.32,2.43.41.84.1,1.62.34,2.41.47Z"/>
          <path class="cls-5" d="M195.44,91.33c.69.11,1.49-.3,2.16-.14s1.2.94,1.86,1.14,1.57-.27,2.22-.02.98,1.28,1.62,1.57,1.54.02,2.15.34,1.13.85,1.73,1.21,1.29.6,1.86,1,1.05.94,1.59,1.38,1.32.63,1.83,1.1,1.06.95,1.55,1.45.53,1.42.98,1.95.88,1.07,1.3,1.63.91,1.06,1.3,1.64.68,1.22,1.02,1.83.33,1.38.63,2.01,1.32.93,1.59,1.58.25,1.41.47,2.07.76,1.24.94,1.92.32,1.38.46,2.07-.21,1.46-.12,2.15-.06,1.39-.01,2.09.46,1.37.47,2.07c0,.11.33.23.33.35,0,.73-.89,1.44-.91,2.16s.92,1.5.88,2.22-.74,1.41-.8,2.13-.18,1.44-.25,2.16.17,1.48.1,2.2-.19,1.44-.26,2.16-.02,1.45-.08,2.18-.23,1.44-.26,2.16.14,1.45.13,2.18-.51,1.45-.48,2.18.08,1.46.14,2.18.35,1.42.45,2.15.41,1.39.56,2.11-.27,1.56-.07,2.27,1.3,1.1,1.55,1.79.19,1.43.43,2.08.61,1.29.85,1.93c.26.67-.21,1.6.04,2.24.26.68,1.08,1.12,1.32,1.76.25.68.47,1.35.69,2,.24.69-.02,1.5.17,2.15.21.7.95,1.23,1.09,1.88.16.71.09,1.44.15,2.11.07.72-.03,1.41-.09,2.08s-.47,1.26-.7,1.93.28,1.67-.12,2.28c-.36.55-1.09.94-1.61,1.48s-.9,1.19-1.4,1.55c-.59.42-1.28.74-1.87.99-.65.27-1.45.07-2.09.17-.68.1-1.37.58-2.03.55s-1.31-.71-1.97-.8-1.37-.12-2.02-.22c-.7-.1-1.38.39-2.03.38-.7,0-1.41-.55-2.03-.32-.73.27-1.5.51-2.15.9s-1.37.72-2,1.17-.95,1.29-1.61,1.7-1.51.31-2.23.63c-.67.29-1.16,1.25-1.94,1.42-.7.15-1.53,0-2.35,0-.74.01-1.43-.34-2.13-.48s-1.56.11-2.23-.15-1.32-.69-1.96-1.01-1.3-.7-1.92-1.06c-.65-.37-1.36-.58-1.98-.92-.68-.36-1.01-1.41-1.65-1.64-.73-.27-1.59-.13-2.27-.13-.61,0-1.3.12-2.02.29-.62.14-1.3.26-1.98.47-.62.19-1.32.23-1.98.45s-1.08,1.03-1.73,1.23-1.36.18-2.02.35-1.39-.08-2.05.03-1.29.79-1.97.8-1.42.05-2.09-.05-1.13-1.03-1.77-1.21-1.21-.46-1.83-.7-1.24-.43-1.85-.7-1.32-.31-1.92-.59-1.33-.32-1.93-.58c-.63-.28-1.22-.58-1.82-.8-.66-.24-1.33-.2-1.94-.32-.68-.14-1.28-.45-1.91-.38-.55.06-1.24.22-2.03.31-.62.07-1.29.39-2.02.47-.65.07-1.4-.57-2.11-.52-.67.05-1.32.63-2.02.66s-1.38.28-2.07.28-1.38-.4-2.06-.45-1.42.05-2.08-.06c-.7-.11-1.28-.68-1.92-.87-.69-.2-1.26-.49-1.84-.8-.63-.34-1.33-.5-1.77-.99s-.75-1.09-1.14-1.66-1.18-.89-1.47-1.5.26-1.55.05-2.19-.75-1.16-.86-1.82-.02-1.32-.03-2-.57-1.39-.47-2.07,1.06-1.12,1.27-1.77.46-1.17.78-1.78c.29-.58-.05-1.56.35-2.13.37-.53,1.23-.71,1.7-1.23s.74-1.28,1.18-1.88,1.13-1.01,1.51-1.65.58-1.36.92-2.02.24-1.49.53-2.17,1.26-1.08,1.52-1.77-.24-1.64,0-2.34.66-1.33.87-2.03.19-1.48.38-2.18.65-1.37.81-2.06c.18-.74.19-1.49.34-2.18.17-.75.19-1.5.33-2.17.16-.78,1-1.36,1.14-2s-.12-1.4,0-2.2c.09-.66-.3-1.44-.2-2.2.09-.68.7-1.32.81-2.07.1-.68-.22-1.46-.1-2.19.11-.69.71-1.31.85-2.04s.64-1.31.8-2.02.2-1.4.39-2.11.4-1.35.62-2.05.06-1.48.3-2.16.37-1.4.65-2.06.97-1.13,1.29-1.78.8-1.17,1.16-1.8.26-1.5.66-2.11.47-1.43.9-2.02,1.3-.81,1.77-1.37,1-1.01,1.5-1.54c.73-.75.19-.92,1.19-1.79.44-.39,1.14-.65,1.76-1.15.5-.4.99-.91,1.6-1.35.53-.39.96-1,1.57-1.42.55-.38,1.3-.52,1.91-.91.57-.36,1.21-.66,1.83-1.02.58-.34,1.37-.36,1.99-.69s1.19-.66,1.83-.97,1.18-.71,1.83-1,1.14-.87,1.79-1.13,1.49.06,2.16-.17,1.24-.64,1.92-.83,1.35-.27,2.04-.44,1.25-.79,1.94-.92,1.38-.2,2.08-.29,1.4-.08,2.1-.14,1.4.29,2.1.26,1.39-.68,2.09-.67,1.38.44,2.08.49c.84.06,1.64.32,2.43.41.84.1,1.62.34,2.41.47Z"/>
        </g>
        <g>
          <path class="cls-14" d="M154.94,105.9c.08-1.02-.26-.79-.11-2.08.07-.58.64-1.21.75-1.98.08-.62.03-1.32.14-2.05.1-.64-.06-1.37.06-2.07.11-.65.13-1.35.27-2.05s.39-1.31.53-1.99.11-1.38.28-2.05.28-1.35.46-2.02.58-1.27.78-1.93.69-1.22.92-1.87.53-1.27.79-1.9.71-1.19,1-1.8.66-1.19.99-1.77c.35-.61.75-1.12,1.13-1.66.41-.58.68-1.18,1.13-1.66.49-.52.82-1.12,1.36-1.51.57-.41,1.18-.67,1.81-.89.71-.26,1.35-.74,2-.77.73-.03,1.46.18,2.12.39s1.11.84,1.71,1.25c.56.38.96.91,1.46,1.43.47.49,1.16.8,1.58,1.38s.76,1.16,1.12,1.78,1.11,1.01,1.42,1.64.25,1.46.52,2.09.54,1.33.77,1.96c.26.7.65,1.32.85,1.94.24.75.25,1.49.41,2.08.34,1.25.14,1.04.36,2.07"/>
          <path class="cls-5" d="M154.94,105.9c.08-1.02-.26-.79-.11-2.08.07-.58.64-1.21.75-1.98.08-.62.03-1.32.14-2.05.1-.64-.06-1.37.06-2.07.11-.65.13-1.35.27-2.05s.39-1.31.53-1.99.11-1.38.28-2.05.28-1.35.46-2.02.58-1.27.78-1.93.69-1.22.92-1.87.53-1.27.79-1.9.71-1.19,1-1.8.66-1.19.99-1.77c.35-.61.75-1.12,1.13-1.66.41-.58.68-1.18,1.13-1.66.49-.52.82-1.12,1.36-1.51.57-.41,1.18-.67,1.81-.89.71-.26,1.35-.74,2-.77.73-.03,1.46.18,2.12.39s1.11.84,1.71,1.25c.56.38.96.91,1.46,1.43.47.49,1.16.8,1.58,1.38s.76,1.16,1.12,1.78,1.11,1.01,1.42,1.64.25,1.46.52,2.09.54,1.33.77,1.96c.26.7.65,1.32.85,1.94.24.75.25,1.49.41,2.08.34,1.25.14,1.04.36,2.07"/>
        </g>
        <g>
          <path class="cls-1" d="M168.51,113.13c-.44.61-1.26.97-1.51,1.59-.28.69.1,1.51.03,2.19-.08.72-.5,1.43-.4,2.12s.46,1.37.71,2.03.62,1.29.98,1.88.97,1.06,1.41,1.58c.49.59.87,1.18,1.36,1.6.66.56,1.34.68,1.84.87.47.17.9,1.09,1.68,1.3.59.16,1.38-.28,2.08-.17.64.1,1.26.48,1.95.49s1.28-.36,1.95-.48,1.17-.41,1.8-.67,1.08-.52,1.63-.94c.5-.39.97-.72,1.41-1.28.38-.49.59-1.05.9-1.7.27-.56.85-1.01,1.06-1.7s0-1.35-.06-2.07c-.06-.69-.11-1.33-.37-2.03-.25-.64,0-1.59-.4-2.21-.37-.59-1.18-.92-1.66-1.46s-.87-1.15-1.43-1.62-1.38-.51-1.99-.89-1.11-.91-1.76-1.19-1.35-.43-2.03-.6-1.38-.02-2.09-.05-1.45-.61-2.15-.47-1.26.69-1.91,1.03c-.61.31-1.57.25-2.13.75-.5.45-.45,1.49-.89,2.1Z"/>
          <path class="cls-5" d="M168.51,113.13c-.44.61-1.26.97-1.51,1.59-.28.69.1,1.51.03,2.19-.08.72-.5,1.43-.4,2.12s.46,1.37.71,2.03.62,1.29.98,1.88.97,1.06,1.41,1.58c.49.59.87,1.18,1.36,1.6.66.56,1.34.68,1.84.87.47.17.9,1.09,1.68,1.3.59.16,1.38-.28,2.08-.17.64.1,1.26.48,1.95.49s1.28-.36,1.95-.48,1.17-.41,1.8-.67,1.08-.52,1.63-.94c.5-.39.97-.72,1.41-1.28.38-.49.59-1.05.9-1.7.27-.56.85-1.01,1.06-1.7s0-1.35-.06-2.07c-.06-.69-.11-1.33-.37-2.03-.25-.64,0-1.59-.4-2.21-.37-.59-1.18-.92-1.66-1.46s-.87-1.15-1.43-1.62-1.38-.51-1.99-.89-1.11-.91-1.76-1.19-1.35-.43-2.03-.6-1.38-.02-2.09-.05-1.45-.61-2.15-.47-1.26.69-1.91,1.03c-.61.31-1.57.25-2.13.75-.5.45-.45,1.49-.89,2.1Z"/>
        </g>
        <g>
          <path class="cls-1" d="M190.86,122.28c-.1.72.29,1.5.44,2.25.14.71.02,1.6.38,2.27.34.64,1.29.88,1.83,1.43.5.51.78,1.36,1.45,1.76.61.36,1.29.85,2.05,1.08.68.2,1.52-.05,2.31.02.7.06,1.41-.34,2.2-.42.7-.06,1.58.67,2.35.49.73-.17,1.46-.44,2.08-.69.69-.28,1-1.25,1.56-1.61.62-.4,1.53-.41,2-.9.51-.52,1-1.12,1.36-1.71s.76-1.31.98-1.96.17-1.48.25-2.17-.14-1.44-.2-2.13c-.07-.73-.42-1.34-.63-1.99-.23-.7-.61-1.2-.98-1.76-.42-.63-.83-1.1-1.36-1.58-.56-.5-.9-1.19-1.54-1.51s-1.24-.98-1.95-1.15-1.53.2-2.26.2-1.44.11-2.15.26-1.57-.02-2.23.29-1.26.71-1.87,1.06-1.21.8-1.76,1.23-1.26.79-1.74,1.32-.95,1.14-1.31,1.77c-.34.59-.18,1.47-.42,2.17-.21.64-.74,1.25-.85,2Z"/>
          <path class="cls-5" d="M190.86,122.28c-.1.72.29,1.5.44,2.25.14.71.02,1.6.38,2.27.34.64,1.29.88,1.83,1.43.5.51.78,1.36,1.45,1.76.61.36,1.29.85,2.05,1.08.68.2,1.52-.05,2.31.02.7.06,1.41-.34,2.2-.42.7-.06,1.58.67,2.35.49.73-.17,1.46-.44,2.08-.69.69-.28,1-1.25,1.56-1.61.62-.4,1.53-.41,2-.9.51-.52,1-1.12,1.36-1.71s.76-1.31.98-1.96.17-1.48.25-2.17-.14-1.44-.2-2.13c-.07-.73-.42-1.34-.63-1.99-.23-.7-.61-1.2-.98-1.76-.42-.63-.83-1.1-1.36-1.58-.56-.5-.9-1.19-1.54-1.51s-1.24-.98-1.95-1.15-1.53.2-2.26.2-1.44.11-2.15.26-1.57-.02-2.23.29-1.26.71-1.87,1.06-1.21.8-1.76,1.23-1.26.79-1.74,1.32-.95,1.14-1.31,1.77c-.34.59-.18,1.47-.42,2.17-.21.64-.74,1.25-.85,2Z"/>
        </g>
        <circle class="cls-10" cx="181.72" cy="120.78" r="3.21"/>
        <circle class="cls-10" cx="197.59" cy="122.53" r="3.21"/>
        <g>
          <path class="cls-5" d="M132.88,119.21c1.01-.16.75-.44,2.01-.56.59-.05,1.34.7,2.11.66.63-.03,1.3-.69,2.03-.7.66-.01,1.35.36,2.06.38.67.02,1.36-.07,2.06-.02s1.3.61,1.98.7,1.43-.32,2.1-.18,1.25.65,1.9.84,1.22.56,1.84.82,1.62-.16,2.19.18"/>
          <path class="cls-5" d="M133.91,132.05c.94-.42.57-.63,1.78-1.07.55-.2,1.32-.08,2.07-.32.61-.19,1.21-.57,1.92-.76.63-.17,1.17-.9,1.88-1.05.65-.15,1.42.14,2.13.02.66-.12,1.32-.39,2.02-.48s1.39.09,2.09.04,1.37-.22,2.06-.22,1.39-.06,2.08-.02,1.43-.24,2.12-.15"/>
        </g>
        <g>
          <path class="cls-5" d="M217.75,126.82c.99-.26.65-.51,1.9-.77.57-.12,1.3.07,2.06-.07.62-.11,1.21-.7,1.93-.81.64-.1,1.37.2,2.08.11.65-.08,1.33-.09,2.03-.15s1.33-.17,2.03-.21,1.35,0,2.04,0,1.35-.14,2.04-.13,1.4-.52,2.08-.47,1.34.46,2.01.55"/>
          <path class="cls-5" d="M216.54,133.78c1.06.26.63.81,1.93,1.19.6.18,1.32.3,2.1.55.64.21,1.58-.29,2.31-.03.65.23,1.18.93,1.88,1.2.66.25,1.34.52,2.03.8s1.27.71,1.94,1.02,1.3.63,1.95.96,1.6.13,2.23.49.88,1.36,1.47,1.76"/>
        </g>
        <g>
          <path class="cls-14" d="M108.37,177c-.45-1.05-.66-.69-1.33-1.84-.34-.59-.06-1.71-.55-2.36-.45-.6-1.23-.98-1.78-1.51s-1-1.36-1.66-1.7-1.6.16-2.38.17c-.7.01-1.42-.25-2.07-.04s-1.12.82-1.68,1.21-1.3.63-1.69,1.2-.36,1.3-.51,2c-.13.64-.64,1.33-.52,2.07.1.63.46,1.3.79,1.98.27.58.87,1.22,1.31,1.83-.57,1-.94.44-1.9,1.32-.5.46-1.04.92-1.38,1.71-.27.62-.25,1.31-.27,2.18-.02.68.12,1.33.33,2.18.19.74.24,1.36.61,1.89.41.6.72,1.26,1.3,1.61s1.27.68,1.96.81,1.43.36,2.13.31,1.48-.14,2.14-.34,1.46-.48,2.03-.82c.64-.38,1.18-1.06,1.58-1.56"/>
          <path class="cls-5" d="M108.37,177c-.45-1.05-.66-.69-1.33-1.84-.34-.59-.06-1.71-.55-2.36-.45-.6-1.23-.98-1.78-1.51s-1-1.36-1.66-1.7-1.6.16-2.38.17c-.7.01-1.42-.25-2.07-.04s-1.12.82-1.68,1.21-1.3.63-1.69,1.2-.36,1.3-.51,2c-.13.64-.64,1.33-.52,2.07.1.63.46,1.3.79,1.98.27.58.87,1.22,1.31,1.83-.57,1-.94.44-1.9,1.32-.5.46-1.04.92-1.38,1.71-.27.62-.25,1.31-.27,2.18-.02.68.12,1.33.33,2.18.19.74.24,1.36.61,1.89.41.6.72,1.26,1.3,1.61s1.27.68,1.96.81,1.43.36,2.13.31,1.48-.14,2.14-.34,1.46-.48,2.03-.82c.64-.38,1.18-1.06,1.58-1.56"/>
        </g>
        <path class="cls-5" d="M106.05,182.03c.8.65.29,1.06,1.38,1.67.52.29,1.24.52,1.94.81.59.25,1.29.44,1.99.64.63.18,1.42-.22,2.13-.12.66.09,1.31.76,2.02.75.66,0,1.28-.79,1.98-.91"/>
      </g>
    </g>
    <g id="sticker_1" data-name="sticker 1">
      <g>
        <g>
          <path class="cls-12" d="M78.01,50.53c.28.66.48,1.35.7,2.02s.78,1.27.96,1.95.23,1.43.36,2.13-.12,1.46-.05,2.17,0,1.41.02,2.13.36,1.41.34,2.13-.1,1.42-.18,2.13.29,1.5.17,2.2-.67,1.33-.84,2.03-.37,1.38-.59,2.06-.3,1.42-.58,2.08-.75,1.24-1.07,1.88-.79,1.19-1.15,1.81-.67,1.26-1.07,1.85-.94,1.07-1.38,1.63-.64,1.33-1.13,1.85-.98,1.05-1.5,1.54-1.06.97-1.62,1.42-1.39.52-1.98.93-1.07.93-1.69,1.3-1.34.48-1.98.81-1.16.84-1.82,1.12-1.29.64-1.96.87-1.44.16-2.12.34-1.34.49-2.04.62-1.41.14-2.12.22-1.39.68-2.1.71-1.43-.77-2.14-.79-1.43.29-2.14.22-1.43-.1-2.13-.22-1.4-.3-2.09-.47-1.43-.21-2.11-.44-1.18-.91-1.84-1.18-1.42-.29-2.06-.61-1.35-.5-1.97-.86-1.29-.66-1.88-1.06-1.15-.87-1.71-1.32-.82-1.23-1.35-1.72-1.01-.98-1.51-1.5-.96-1.03-1.41-1.59-1.23-.86-1.64-1.45-.93-1.12-1.3-1.74-.76-1.24-1.08-1.88-.34-1.43-.62-2.09-.85-1.23-1.08-1.9-.11-1.48-.29-2.17-.35-1.39-.48-2.09-.04-1.44-.11-2.15.06-1.42.03-2.14-.74-1.43-.72-2.14,0-1.46.08-2.17.71-1.36.83-2.06-.09-1.49.08-2.18.64-1.31.87-1.99.86-1.19,1.13-1.85.33-1.4.65-2.04.24-1.5.6-2.12.9-1.14,1.3-1.73,1.1-.96,1.55-1.52.54-1.43,1.02-1.95.95-1.11,1.47-1.6,1.2-.82,1.76-1.28,1.22-.76,1.81-1.18,1.29-.62,1.91-.99,1.23-.7,1.87-1.03,1.33-.47,2-.75,1.21-.84,1.88-1.07,1.48-.01,2.17-.19,1.34-.44,2.04-.57,1.38-.36,2.08-.44,1.41-.15,2.12-.18,1.44-.54,2.15-.51,1.45.15,2.16.22,1.43.25,2.13.38,1.4.34,2.1.51,1.36.45,2.04.68,1.3.6,1.96.88,1.42.33,2.06.64,1.41.44,2.03.8,1.03,1.07,1.62,1.47.92,1.14,1.48,1.59,1.03.95,1.56,1.44,1.24.75,1.73,1.27,1.36.72,1.82,1.27.87,1.17,1.28,1.76.56,1.36.92,1.98.8,1.2,1.13,1.84.37,1.4.65,2.07Z"/>
          <path class="cls-5" d="M78.01,50.53c.28.66.48,1.35.7,2.02s.78,1.27.96,1.95.23,1.43.36,2.13-.12,1.46-.05,2.17,0,1.41.02,2.13.36,1.41.34,2.13-.1,1.42-.18,2.13.29,1.5.17,2.2-.67,1.33-.84,2.03-.37,1.38-.59,2.06-.3,1.42-.58,2.08-.75,1.24-1.07,1.88-.79,1.19-1.15,1.81-.67,1.26-1.07,1.85-.94,1.07-1.38,1.63-.64,1.33-1.13,1.85-.98,1.05-1.5,1.54-1.06.97-1.62,1.42-1.39.52-1.98.93-1.07.93-1.69,1.3-1.34.48-1.98.81-1.16.84-1.82,1.12-1.29.64-1.96.87-1.44.16-2.12.34-1.34.49-2.04.62-1.41.14-2.12.22-1.39.68-2.1.71-1.43-.77-2.14-.79-1.43.29-2.14.22-1.43-.1-2.13-.22-1.4-.3-2.09-.47-1.43-.21-2.11-.44-1.18-.91-1.84-1.18-1.42-.29-2.06-.61-1.35-.5-1.97-.86-1.29-.66-1.88-1.06-1.15-.87-1.71-1.32-.82-1.23-1.35-1.72-1.01-.98-1.51-1.5-.96-1.03-1.41-1.59-1.23-.86-1.64-1.45-.93-1.12-1.3-1.74-.76-1.24-1.08-1.88-.34-1.43-.62-2.09-.85-1.23-1.08-1.9-.11-1.48-.29-2.17-.35-1.39-.48-2.09-.04-1.44-.11-2.15.06-1.42.03-2.14-.74-1.43-.72-2.14,0-1.46.08-2.17.71-1.36.83-2.06-.09-1.49.08-2.18.64-1.31.87-1.99.86-1.19,1.13-1.85.33-1.4.65-2.04.24-1.5.6-2.12.9-1.14,1.3-1.73,1.1-.96,1.55-1.52.54-1.43,1.02-1.95.95-1.11,1.47-1.6,1.2-.82,1.76-1.28,1.22-.76,1.81-1.18,1.29-.62,1.91-.99,1.23-.7,1.87-1.03,1.33-.47,2-.75,1.21-.84,1.88-1.07,1.48-.01,2.17-.19,1.34-.44,2.04-.57,1.38-.36,2.08-.44,1.41-.15,2.12-.18,1.44-.54,2.15-.51,1.45.15,2.16.22,1.43.25,2.13.38,1.4.34,2.1.51,1.36.45,2.04.68,1.3.6,1.96.88,1.42.33,2.06.64,1.41.44,2.03.8,1.03,1.07,1.62,1.47.92,1.14,1.48,1.59,1.03.95,1.56,1.44,1.24.75,1.73,1.27,1.36.72,1.82,1.27.87,1.17,1.28,1.76.56,1.36.92,1.98.8,1.2,1.13,1.84.37,1.4.65,2.07Z"/>
        </g>
        <ellipse cx="41.33" cy="59.51" rx="2.73" ry="3.57" transform="translate(-19.79 20.6) rotate(-22.74)"/>
        <ellipse cx="54.92" cy="53.81" rx="2.73" ry="3.57" transform="translate(-16.53 25.41) rotate(-22.74)"/>
        <path class="cls-5" d="M69.94,63.08c.22,2.76.47,2.43-.53,5.52-.5,1.52-1.82,2.92-3.06,4.6-.99,1.34-1.93,2.94-3.59,4.15-1.35.99-2.96,1.89-4.85,2.68-1.89.79-3.61,1.65-5.26,1.92-2.03.33-3.88-.52-5.52-.75-2.07-.29-3.73-.82-5.16-1.54-2.91-1.45-3.13-.53-4.94-2.62"/>
        <path class="cls-5" d="M35.31,78.73c1.44-2.51,1.17-2.67,2.61-5.18"/>
        <path class="cls-5" d="M66.89,61.9c2.84.71,2.92.38,5.76,1.09"/>
        <path class="cls-5" d="M47.86,48.18s3.16-3.32,8-3.35"/>
        <path class="cls-5" d="M34.35,53.02s3.94-2.35,8.61-1.07"/>
      </g>
    </g>
    <g id="sticker_2" data-name="sticker 2">
      <g>
        <path d="M108.74,27.9c-.63-.59-1.33-1.07-2.09-1.42-.75-.34-1.54-.57-2.37-.66-.7-.08-1.41-.08-2.13,0-.69.07-1.37.22-2.04.44-1.51.49-2.91,1.29-4.14,2.17-.68.48-1.33,1.03-1.96,1.61-.43,0-.86.03-1.3.09-1.82.28-3.68,1.28-4.95,2.62-.51.53-.91,1.13-1.26,1.76-.76-.11-1.54-.12-2.32,0-1.82.28-3.68,1.28-4.95,2.62-.35.37-.67.77-.94,1.19l-2.84.67c-.72.17-1.36.52-1.88,1-.23.06-.45.13-.67.23l-3.47,1.54c-1.04.45-1.83,1.31-2.22,2.37-.39,1.06-.33,2.23.16,3.24l5.07,10.47c.5,1.03,1.4,1.81,2.5,2.16,1.09.34,2.28.22,3.28-.34l2.95-1.66c.27-.15.51-.33.74-.53.52-.05,1.04-.2,1.51-.44.21-.11.42-.24.62-.39l2.44-1.85,4.84,8.8c-.23.11-.46.21-.7.32-1.8.81-2.78,2.79-2.34,4.72.14.6.31,1.21.52,1.84.19.57.4,1.14.63,1.71.23.56.47,1.12.72,1.66.24.52.49,1.02.73,1.5.29.56.65,1.11,1.07,1.62.4.48.86.93,1.35,1.34.5.41,1.05.77,1.63,1.07.64.33,1.31.58,1.99.74.75.18,1.53.24,2.3.18.8-.06,1.57-.25,2.26-.56.73.04,1.46-.11,2.12-.45.09-.05.18-.09.26-.15l2.85-1.73s.07-.06.11-.08c.39-.07.78-.18,1.15-.37l3.37-1.73c1.2-.61,1.96-1.74,2.18-2.97.2.09.39.19.59.26.71.23,1.44.32,2.19.27.79-.05,1.56-.26,2.29-.63s1.34-.87,1.84-1.48c.48-.58.83-1.23,1.06-1.94.22-.69.32-1.41.28-2.14-.04-.81-.26-1.6-.63-2.33-.25-.49-.56-.94-.94-1.33-.05-.18-.11-.36-.18-.54l-3.3-7.91c-.45-1.07-1.32-1.9-2.41-2.3s-2.29-.32-3.33.2l-3.35,1.72-.99-2.14c1.04-1.22,1.31-2.98.57-4.5l-.97-2.01.76-.39c2.04-1.04,2.85-3.54,1.81-5.58.43-.45.83-.94,1.16-1.46.48-.73.84-1.53,1.05-2.36.23-.88.3-1.8.2-2.73-.1-.94-.39-1.89-.86-2.81-.43-.84-.98-1.58-1.62-2.19Z"/>
        <g>
          <path class="cls-13" d="M80.33,42.09l-1.25,5.44,5.48,3.47-3.05,2.31-3.72-1.85,1.34,2.89-2.95,1.66-5.07-10.47,3.47-1.54,1.27,3.11.55-4.1,3.94-.92Z"/>
          <path class="cls-13" d="M89.65,41.74c.21.42.4.85.56,1.3-.8.48-1.57.98-2.33,1.52s-1.51,1.07-2.26,1.6c.3.28.64.46,1.02.53s.75.01,1.12-.18c.19-.1.39-.24.58-.43s.37-.4.54-.62.33-.45.47-.68.26-.44.36-.61l1.33,3.46c-.11.24-.25.47-.42.68s-.35.41-.56.6-.42.35-.65.5-.45.29-.69.41c-.48.24-.95.4-1.41.47s-.91.07-1.35,0-.86-.2-1.27-.4-.78-.44-1.13-.73-.68-.63-.97-1.01-.55-.78-.77-1.21-.42-.92-.57-1.41-.24-.99-.29-1.48-.03-.99.04-1.48.21-.94.41-1.38.48-.84.83-1.21.78-.68,1.3-.95c.43-.22.85-.36,1.27-.42s.81-.06,1.2,0,.75.19,1.11.38.68.41.99.69.59.59.86.94.49.72.7,1.12ZM86.57,42.84c-.07-.13-.15-.27-.26-.39s-.21-.23-.34-.31-.26-.13-.4-.15-.3.01-.46.09c-.19.1-.34.24-.43.42s-.15.37-.18.58-.03.43,0,.64.06.41.11.58l2.04-1.3-.08-.16Z"/>
          <path class="cls-13" d="M98.19,37.36c.21.42.4.85.56,1.3-.8.48-1.57.98-2.33,1.52s-1.51,1.07-2.26,1.6c.3.28.64.46,1.02.53s.75.01,1.12-.18c.19-.1.39-.24.58-.43s.37-.4.54-.62.33-.45.47-.68.26-.44.36-.61l1.33,3.46c-.11.24-.25.47-.42.68s-.35.41-.56.6-.42.35-.65.5-.45.29-.69.41c-.48.24-.95.4-1.41.47s-.91.07-1.35,0-.86-.2-1.27-.4-.78-.44-1.13-.73-.68-.63-.97-1.01-.55-.78-.77-1.21-.42-.92-.57-1.41-.24-.99-.29-1.48-.03-.99.04-1.48.21-.94.41-1.38.48-.84.83-1.21.78-.68,1.3-.95c.43-.22.85-.36,1.27-.42s.81-.06,1.2,0,.75.19,1.11.38.68.41.99.69.59.59.86.94.49.72.7,1.12ZM95.1,38.47c-.07-.13-.15-.27-.26-.39s-.21-.23-.34-.31-.26-.13-.4-.15-.3.01-.46.09c-.19.1-.34.24-.43.42s-.15.37-.18.58-.03.43,0,.64.06.41.11.58l2.04-1.3-.08-.16Z"/>
          <path class="cls-13" d="M106.66,31.98c.24.47.38.92.43,1.35s.02.85-.09,1.25-.27.77-.51,1.13-.51.68-.82.99-.66.59-1.03.85-.75.49-1.13.69l1.58,3.08-3.37,1.73c-.28-.55-.55-1.09-.82-1.61s-.53-1.04-.79-1.55-.52-1.03-.79-1.55-.54-1.06-.81-1.62c-.29-.59-.59-1.18-.9-1.77s-.6-1.18-.87-1.8c.52-.5,1.07-.95,1.64-1.36s1.18-.78,1.84-1.11c.37-.19.76-.35,1.16-.48s.81-.22,1.21-.26.81-.04,1.2,0,.76.15,1.11.31.68.38.98.67.56.64.78,1.06ZM103.58,33.87c-.16-.31-.38-.51-.66-.59s-.57-.04-.88.12c-.1.05-.2.11-.3.19s-.19.15-.28.22l.99,2.16c.07-.02.14-.05.2-.09l.2-.1c.17-.09.33-.2.46-.34s.23-.3.3-.47.1-.35.1-.54-.05-.37-.14-.55Z"/>
          <path class="cls-13" d="M93.72,50.37l4.54,10.11-2.97,1.72-5.31-9.66,3.74-2.17Z"/>
          <path class="cls-13" d="M101.96,46.14l1.5,3.1-2.11,1.19,3.18,6.84-2.97,1.72-3.71-6.57-2.1,1.22-1.66-3.46,7.87-4.05Z"/>
          <path class="cls-13" d="M100.34,63.18c.65,1.81,1.33,3.59,2.04,5.35s1.42,3.52,2.16,5.3l-2.85,1.73-.44-1.18c-.04.16-.1.31-.19.46s-.19.28-.31.41-.25.24-.39.34-.29.18-.43.25c-.33.16-.67.26-1.02.28s-.7,0-1.05-.08-.69-.21-1.02-.38-.64-.38-.93-.61-.55-.49-.78-.77-.42-.56-.57-.86c-.22-.43-.44-.89-.67-1.36s-.43-.96-.63-1.45-.38-.98-.54-1.48-.3-.98-.41-1.45c.6-.27,1.21-.55,1.81-.83s1.2-.57,1.78-.89c.1.48.21.95.32,1.43s.23.95.36,1.42.28.93.45,1.39.36.9.59,1.34c.05.1.13.24.24.43s.23.36.36.52.28.29.43.38.31.1.46.02c.18-.09.31-.26.37-.49s.08-.51.06-.83-.09-.68-.18-1.06-.22-.79-.35-1.19-.29-.81-.45-1.21-.32-.78-.48-1.13-.3-.66-.43-.93-.23-.49-.31-.63c-.05-.1-.1-.19-.15-.28s-.11-.18-.17-.27c.32-.15.63-.3.94-.46s.62-.31.94-.47c.24-.12.48-.25.72-.38s.48-.26.72-.4Z"/>
          <path class="cls-13" d="M111,62.16c.24.47.38.92.43,1.35s.02.85-.09,1.25-.27.77-.51,1.13-.51.68-.82.99-.66.59-1.03.85-.75.49-1.13.69l1.58,3.08-3.37,1.73c-.28-.55-.55-1.09-.82-1.61s-.53-1.04-.79-1.55-.52-1.03-.79-1.55-.54-1.06-.81-1.62c-.29-.59-.59-1.18-.9-1.77s-.6-1.18-.87-1.8c.52-.5,1.07-.95,1.64-1.36s1.18-.78,1.84-1.11c.37-.19.76-.35,1.16-.48s.81-.22,1.21-.26.81-.04,1.2,0,.76.15,1.11.31.68.38.98.67.56.64.78,1.06ZM107.91,64.05c-.16-.31-.38-.51-.66-.59s-.57-.04-.88.12c-.1.05-.2.11-.3.19s-.19.15-.28.22l.99,2.16c.07-.02.14-.05.2-.09l.2-.1c.17-.09.33-.2.46-.34s.23-.3.3-.47.1-.35.1-.54-.05-.37-.14-.55Z"/>
          <path class="cls-13" d="M112.86,56.06l3.3,7.91-2.68,1.37-4.17-7.47,3.54-1.81ZM117.42,66.13c.11.21.17.43.18.66s-.02.44-.08.65-.17.4-.31.57-.32.31-.52.42-.43.17-.65.18-.44-.01-.65-.08-.4-.17-.57-.31-.31-.32-.42-.53-.17-.43-.18-.65,0-.45.08-.65.17-.4.31-.58.32-.32.53-.43.42-.17.65-.18.44.02.65.08.4.17.58.32.32.32.43.53Z"/>
        </g>
      </g>
    </g>
    <g id="sticker_3" data-name="sticker 3">
      <g>
        <path class="cls-14" d="M274.74,119.55c-2.06,1.08-4.6.29-5.68-1.77l-10.45-19.92c-1.31-2.49-1.78-5.21-1.52-7.82-2.3-1.27-4.26-3.2-5.57-5.69l-10.45-19.92c-1.08-2.06-.29-4.6,1.77-5.68l63.72-33.43c2.06-1.08,4.6-.29,5.68,1.77l10.45,19.92c1.31,2.49,1.78,5.21,1.52,7.82,2.3,1.27,4.26,3.2,5.57,5.69l10.45,19.92c1.08,2.06.29,4.6-1.77,5.68l-63.72,33.43Z"/>
        <path class="cls-8" d="M250.11,48.65h67.95v18.77c0,2.19-1.78,3.97-3.97,3.97h-60.01c-2.19,0-3.97-1.78-3.97-3.97v-18.77h0Z" transform="translate(4.63 138.85) rotate(-27.68)"/>
        <path class="cls-8" d="M263.16,73.52h67.95v18.77c0,2.19-1.78,3.97-3.97,3.97h-60.01c-2.19,0-3.97-1.78-3.97-3.97v-18.77h0Z" transform="translate(599.69 22.02) rotate(152.32)"/>
        <line class="cls-8" x1="264.58" y1="86.11" x2="316.64" y2="58.8"/>
        <line class="cls-8" x1="247.55" y1="63.34" x2="307.58" y2="31.84"/>
        <line class="cls-8" x1="273.64" y1="113.07" x2="333.67" y2="81.58"/>
        <g>
          <g>
            <path d="M263.75,75.55c.07.11.14.21.2.31.75,1.16,1.34,1.61,1.74,1.35l.06-.04c.31-.28.54-.81.69-1.6.15-.79.23-1.58.23-2.38,0-1.61-.17-3.2-.51-4.78-.74.21-1.45.19-2.13-.07-.68-.26-1.21-.69-1.59-1.28-.38-.59-.51-1.23-.37-1.91.14-.68.59-1.27,1.36-1.76.2.08.53.12.99.13.46,0,.88.08,1.25.23.38.14.7.42.97.84.27.42.51.88.72,1.39.07-.09.15-.19.23-.3.04-.05.08-.11.11-.17.04-.06.07-.12.11-.19.04-.06.08-.13.12-.2s.07-.14.11-.22c.03-.07.07-.15.11-.23.04-.08.08-.16.11-.24.04-.08.08-.2.14-.35.06-.15.17-.28.32-.38.16-.1.33-.13.5-.09.18.04.33.16.45.35.13.19.14.42.03.66-.53,1.19-1.15,2.12-1.88,2.78.26.97.43,2.04.53,3.23.12,1.82.1,3.41-.07,4.78-.11.79-.32,1.47-.61,2.05-.3.58-.64,1-1.04,1.25s-.79.37-1.17.33c-.38-.04-.76-.19-1.14-.45-.74-.5-1.44-1.2-2.08-2.11.08,1.46-.01,2.75-.29,3.85-.28,1.11-.78,1.9-1.49,2.39l-.06.04c-1.5.97-3.01.28-4.54-2.08-.79-1.23-1.4-2.78-1.8-4.66l-1.01,2.16c-.1.2-.22.34-.37.44-.15.09-.31.11-.5.04s-.35-.22-.51-.46c-.16-.24-.16-.51,0-.8l2.15-4.41c.09-.34.28-.6.56-.79.17-.11.38-.14.63-.08.25.05.42.14.5.27.08.13.12.23.11.31-.04.23.02.82.18,1.76.36,2.14,1.03,3.96,2.01,5.47.73,1.12,1.32,1.53,1.78,1.23l.06-.04c.45-.36.78-1.13.99-2.3.21-1.17.18-2.61-.08-4.32-.02-.19-.04-.45-.07-.76-.02-.31-.07-.65-.14-1.01-.17-.54-.29-1.03-.35-1.47-.03-.22-.03-.45-.02-.68,0-.23.16-.44.47-.64l.09-.06c.16-.1.34-.12.55-.06.21.06.4.22.56.47.16.25.29.68.37,1.3.17,1.11.67,2.3,1.49,3.57l.22.37ZM263.98,66.02c.51.79,1.12,1.13,1.84,1.02-.24-.8-.52-1.45-.84-1.96s-.63-.67-.9-.49c-.22.14-.33.36-.32.66,0,.3.08.55.22.77Z"/>
            <path d="M270.88,71.86c-.48-.73-.65-1.63-.54-2.69s.56-1.84,1.34-2.34c.45-.29.89-.39,1.32-.3.43.09.81.38,1.13.88.32.49.36,1.08.13,1.76-.23.68-.76,1.4-1.59,2.16.32.18.69.13,1.11-.14s.77-.62,1.08-1.06.52-.89.64-1.38c.03-.12.09-.22.2-.28.1-.07.24-.09.4-.06.16.03.28.11.36.23s.11.27.1.46c-.02.55-.21,1.15-.57,1.8-.37.65-.86,1.18-1.48,1.59-.62.4-1.26.58-1.92.54-.65-.04-1.22-.43-1.7-1.17ZM272.33,68.15c-.29.19-.47.54-.55,1.07-.08.53.03,1,.3,1.43.31-.33.57-.77.79-1.3.22-.54.25-.93.08-1.18-.13-.2-.34-.2-.63-.02Z"/>
            <path d="M279.25,69.38c-.57.37-1.17.43-1.81.18-.64-.25-1.2-.75-1.68-1.49-.11-.18-.2-.32-.25-.42-.85-1.65-1.45-3.5-1.81-5.55-.18-1.01-.19-1.94-.01-2.77.17-.83.55-1.44,1.13-1.81.75-.48,1.38-.32,1.91.5.53.82.83,2.15.91,4,.08,1.85-.12,3.46-.58,4.84.06.14.13.27.21.4.52.8,1,1.05,1.44.77.49-.32.82-1.02.98-2.11.03-.17.11-.29.24-.38.14-.09.3-.12.49-.08.19.03.34.13.45.29.11.16.13.36.08.61-.21,1.43-.77,2.44-1.69,3.04ZM275.34,59.34c-.41.26-.47,1.05-.19,2.34.28,1.29.68,2.52,1.19,3.68.12-.98.11-2.1-.01-3.34-.13-1.24-.32-2.08-.58-2.5-.13-.2-.26-.26-.4-.17Z"/>
            <path d="M283.14,66.86c-.57.37-1.17.43-1.81.18-.64-.25-1.2-.75-1.68-1.49-.12-.18-.2-.32-.25-.42-.85-1.65-1.45-3.5-1.81-5.55-.18-1.01-.19-1.94-.01-2.77.17-.83.55-1.44,1.13-1.81.74-.48,1.38-.32,1.91.5.53.82.83,2.15.91,4,.08,1.85-.12,3.46-.58,4.84.06.14.13.27.21.4.52.8,1,1.05,1.44.77.49-.32.82-1.02.98-2.11.03-.17.11-.29.24-.38.14-.09.3-.12.49-.08.19.03.34.13.45.29.11.16.13.36.08.61-.21,1.43-.77,2.44-1.69,3.04ZM279.22,56.82c-.41.27-.47,1.05-.19,2.34.28,1.29.68,2.52,1.19,3.68.12-.99.12-2.1-.01-3.34-.13-1.24-.32-2.08-.58-2.5-.13-.2-.26-.26-.4-.17Z"/>
            <path d="M290.64,56.28c.24.37.44.73.62,1.1.22-.22.42-.52.6-.92.18-.4.3-.62.36-.66.29-.19.55-.12.76.2.25.39.12.91-.39,1.57-.27.34-.58.64-.93.91.43,1.63,0,2.85-1.26,3.67-.66.43-1.35.59-2.07.47-.72-.11-1.31-.53-1.77-1.24l-.06-.09c-.52-.84-.97-1.79-1.35-2.85-.38-1.06-.66-2.11-.84-3.14-.18-1.03-.18-1.98,0-2.83.17-.86.54-1.47,1.11-1.84.38-.25.72-.31,1.03-.19.31.12.57.35.79.68.37.58.64,1.6.81,3.07.15,1.17.12,2.14-.08,2.91.25-.56.6-.99,1.05-1.28.24-.16.52-.2.84-.13.32.07.59.26.8.59ZM286.91,58.49c.17-2.48,0-4.33-.52-5.56-.02-.06-.08-.17-.18-.32-.1-.15-.21-.19-.34-.11-.31.2-.4.78-.27,1.74.13.95.34,1.83.61,2.62.27.79.45,1.26.53,1.39.09.13.14.21.17.23ZM289.83,60.78c.44-.29.56-.8.36-1.55-.34.04-.63-.12-.87-.48-.04-.06-.07-.14-.09-.23-.04-.3.03-.59.22-.86-.04-.08-.07-.14-.1-.18-.11-.18-.36-.14-.75.1-.38.25-.6.63-.66,1.15s.06,1,.34,1.44c.49.76,1,.96,1.54.61Z"/>
            <path d="M292.61,57.77c-.48-.73-.65-1.63-.54-2.69s.56-1.84,1.34-2.34c.45-.29.89-.39,1.32-.3.43.09.81.38,1.13.88.32.49.36,1.08.13,1.76-.23.68-.76,1.4-1.59,2.16.32.18.69.13,1.11-.14.42-.27.77-.62,1.08-1.06s.52-.89.64-1.37c.03-.12.09-.22.2-.28.11-.07.24-.09.4-.06.16.03.28.11.36.23.08.12.11.27.1.46-.02.55-.21,1.15-.57,1.8-.37.65-.86,1.18-1.48,1.59-.62.4-1.26.58-1.92.54-.65-.04-1.22-.43-1.7-1.17ZM294.06,54.06c-.29.19-.47.54-.55,1.07-.08.53.03,1,.3,1.43.3-.33.57-.77.79-1.3.22-.54.25-.93.08-1.18-.13-.2-.34-.2-.63-.02Z"/>
            <path d="M297.6,55.2c-.64-.98-.84-2.06-.61-3.23.23-1.17.79-2.04,1.68-2.62l.08-.05c.14-.09.28-.12.43-.1.15.02.25.08.3.16.12-.16.26-.28.41-.38.15-.1.33-.13.53-.1s.34.1.4.21c.07.11.11.18.12.21l1.45,4.09c.15-.5.36-1.01.62-1.53.26-.52.48-.83.63-.94h.01s.1-.09.21-.17c.11-.07.27-.09.47-.06.2.03.35.13.46.3.11.17.08.4-.1.71-.06.11-.3.52-.72,1.21-.42.7-.76,1.32-1.01,1.87.53,1.49.83,2.76.91,3.81.04.63-.05,1.19-.27,1.67-.22.48-.55.87-1,1.16-.45.29-.87.4-1.24.34-.38-.07-.7-.3-.96-.7-.72-1.11-.34-3.17,1.15-6.18l-.3-.7c-.08.64-.39,1.15-.94,1.51-.56.36-1.07.49-1.56.37-.48-.11-.88-.4-1.18-.88ZM299.82,54.32c.63-.41.77-1.19.43-2.33l-.55-1.63c-.54.41-.87,1.01-.98,1.81-.11.8-.04,1.41.23,1.83.27.42.56.53.86.33ZM302.06,60.18c.32-.21.52-.6.58-1.18.06-.57.04-1.12-.06-1.62-.1-.51-.22-.92-.36-1.23-.32.86-.56,1.55-.72,2.05-.08.29-.13.61-.14.97-.01.36.05.65.19.87s.31.27.51.14Z"/>
            <path d="M303.33,51.29c-.33-.51-.62-1.16-.85-1.94-.23-.78-.32-1.42-.27-1.91.01-.3.13-.53.36-.68.23-.15.44-.24.64-.26.19-.02.33.02.4.14.02.03.05.18.08.45.03.27.14.74.32,1.42.18.68.41,1.24.69,1.68.28.44.55.57.81.4.26-.17.45-.5.56-.98.11-.48.1-1-.05-1.54l-.58-2.1c-.1-.36-.13-.64-.08-.82.05-.18.18-.34.38-.47.46-.3.78-.31.96-.04.06.09.16.42.29.98.13.56.32,1.16.58,1.8.25.65.39.98.41,1.02.13.2.28.24.46.13.29-.19.5-.68.61-1.47.02-.18.08-.3.18-.36.1-.07.27-.08.5-.05.24.03.4.1.5.2.08.51.02,1.09-.17,1.73-.19.64-.6,1.16-1.21,1.55-.37.24-.7.29-1,.15-.3-.14-.52-.32-.65-.53s-.22-.36-.25-.46c.08.54.05,1.06-.11,1.56-.15.5-.47.9-.94,1.2-.47.31-.94.37-1.4.2-.46-.17-.85-.5-1.17-.99Z"/>
            <path d="M311.27,41.04c.48-.31.87-.24,1.17.22.18.28.36.84.53,1.68.3,1.55.62,2.21.94,2,.25-.16.51-.68.76-1.55.04-.13.1-.22.2-.29.1-.06.23-.06.4.02.17.08.31.2.42.37s.14.33.1.5c-.41,1.34-.98,2.24-1.69,2.7-.71.46-1.27.39-1.67-.23-.22-.35-.44-.88-.63-1.61-.2-.73-.31-1.12-.35-1.18-.04-.06-.08-.07-.12-.05l-.03.02c-.2.26-.33.76-.38,1.47-.05.72.04,1.55.27,2.5.08.32.09.56.06.72-.04.16-.16.3-.36.43-.46.3-.98,0-1.55-.87-.7-1.11-1.19-2.36-1.45-3.75-.1-.53,0-.9.33-1.11.18-.12.35-.17.51-.15.16.01.28.07.35.18.07.1.15.37.23.8.08.43.27,1.03.57,1.81-.06-1.13.02-2.08.25-2.85.22-.78.55-1.33.97-1.67l.15-.12Z"/>
            <path d="M267.55,96.07c-.19-.29-.24-.6-.14-.91.09-.31.29-.57.58-.76.64-.41,1.16-.32,1.55.29.19.29.25.59.17.88-.08.29-.27.53-.56.72-.68.44-1.21.37-1.59-.22ZM269.07,102.25c-.29-.45-.54-.99-.74-1.62-.2-.63-.31-1.2-.33-1.7-.02-.5.14-.86.49-1.09.21-.14.41-.2.6-.2.19,0,.32.06.4.18.08.11.12.24.14.38.12,1.29.42,2.3.89,3.02.34.52.67.68,1,.47.39-.25.66-.92.8-2,.01-.19.1-.33.26-.43s.33-.13.52-.1c.19.04.33.12.42.26.09.14.12.34.1.6-.08.69-.28,1.31-.58,1.85-.3.54-.68.95-1.14,1.25-.46.3-.95.37-1.46.22-.52-.15-.96-.52-1.34-1.11Z"/>
            <path d="M275.75,100.66l-.05.03c-.63.41-1.29.64-1.97.71-.69.07-1.3-.04-1.85-.33,0-.27-.06-1.13-.19-2.58-.13-1.45-.21-2.17-.24-2.15,0-.43.18-.76.52-.99.18-.12.37-.16.57-.14.2.03.36.12.47.3.11.17.17.35.19.53.01.18.03.29.06.33.09.14.34.26.77.36.42.1.87.24,1.34.41s.79.39.96.66c.1.16.16.34.16.56.31-.46.51-1.16.6-2.11.01-.14.08-.26.22-.34.13-.08.31-.09.54-.01.23.08.39.18.48.32s.14.27.15.41c.07.66-.14,1.34-.61,2.05s-1.18,1.37-2.11,1.98ZM274.72,99.83c.47-.31.58-.66.31-1.07-.26-.41-.82-.79-1.65-1.14l.18,1.45c.04.39.08.65.11.77.03.12.04.2.05.23.49-.03.79-.08.9-.16l.11-.07Z"/>
            <path d="M280.56,95.81c-.08-.11-.22-.37-.43-.77-1.03-1.88-1.84-4.01-2.45-6.39-.31-1.19-.39-2.27-.25-3.27.14-.99.53-1.7,1.18-2.12.4-.26.79-.34,1.18-.24.38.1.71.35.96.75l.09.14c.36.78.51,1.75.45,2.89-.06,1.15-.42,2.65-1.09,4.49l.77,2.16c-.12-1.05-.01-2.03.32-2.92.33-.89.66-1.45,1-1.66.34-.22.63-.33.89-.34.25-.01.45.09.58.28.02.03.09.24.2.64.11.4.26,1.27.43,2.64.05.4.11.65.17.74.08.13.19.14.33.06.14-.09.44-.72.9-1.88.18-.44.31-.69.4-.75.23-.15.49,0,.76.42l.07.11c.17.22.19.57.06,1.06-.13.49-.38,1-.75,1.53-.37.54-.76.94-1.18,1.21-.68.44-1.21.36-1.6-.23-.21-.32-.4-.91-.56-1.77-.16-.86-.27-1.32-.32-1.4s-.1-.1-.15-.07c-.22.14-.38.76-.49,1.86s-.07,1.92.1,2.46c.09.25.13.47.13.65,0,.15-.12.3-.34.44-.42.27-.87.03-1.36-.72ZM279.15,85.1c-.49.32-.55,1.27-.17,2.84.2.81.41,1.53.65,2.17.22-1.08.33-2.09.34-3.01,0-.92-.1-1.55-.31-1.87-.14-.21-.3-.25-.5-.12Z"/>
            <path d="M287.84,85.83l.39-.32.09-.06c.3-.2.55-.15.74.14.05.07.08.13.09.17l1.2,2.82s.04.09.08.15c.12.19.26.23.42.13.16-.1.3-.33.44-.68.14-.35.22-.74.24-1.17.04-.19.12-.32.23-.4.11-.08.27-.05.48.08.2.13.35.26.44.4.09.14.15.26.18.38-.04.52-.16,1.04-.37,1.58-.21.54-.5.93-.86,1.16-.37.24-.71.33-1.04.27-.33-.06-.59-.21-.78-.46l-.02.42c-.03.75-.32,1.3-.86,1.65s-1.07.45-1.59.29c-.52-.16-.96-.51-1.31-1.06-.65-1-.84-2.05-.59-3.17.25-1.12.74-1.91,1.48-2.39.43-.28.72-.3.87-.07l.07.14ZM288.36,90.59c.25-.16.42-.43.5-.8.08-.37.01-.83-.19-1.38l-.74-1.93c-.6.43-.94,1.05-1.02,1.85-.08.8.03,1.44.35,1.94.32.49.69.6,1.11.33Z"/>
            <path d="M295.27,87.98c-.57.37-1.17.43-1.81.18-.64-.25-1.2-.75-1.68-1.49-.11-.18-.2-.32-.25-.42-.85-1.65-1.45-3.5-1.81-5.55-.18-1.01-.19-1.94-.01-2.77.17-.83.55-1.44,1.13-1.81.74-.48,1.38-.32,1.91.5.53.82.83,2.15.91,4,.08,1.85-.12,3.46-.58,4.84.06.14.13.27.21.4.52.8,1,1.05,1.44.77.49-.32.82-1.02.98-2.11.03-.17.11-.29.25-.38.14-.09.3-.12.49-.08.19.03.34.13.45.29s.13.36.08.61c-.21,1.43-.77,2.44-1.69,3.04ZM291.35,77.95c-.41.26-.47,1.04-.19,2.34.28,1.29.68,2.52,1.19,3.67.12-.99.11-2.1-.01-3.34-.13-1.24-.32-2.08-.58-2.5-.13-.2-.26-.25-.4-.17Z"/>
            <path d="M300.64,85.82c.39.6.6,1.32.64,2.16.04.85-.19,1.6-.69,2.27-.14.15-.24.24-.29.28-.69.45-1.6-.19-2.72-1.92-1.12-1.73-2.12-3.63-2.98-5.7-.49-1.19-.87-2.31-1.15-3.35-.28-1.05-.37-2.02-.27-2.92.09-.9.44-1.54,1.02-1.92.76-.49,1.44-.26,2.05.68.33.5.57,1.17.71,1.99.07.4.12.77.16,1.11.04.34.06.73.05,1.16s-.01.77-.01.99c0,.23-.02.52-.05.89-.03.37-.04.57-.04.6.02-.01.06-.05.11-.12.05-.07.13-.13.22-.18.09-.06.19-.13.29-.21.1-.08.19-.15.27-.21.08-.06.15-.13.23-.23.08-.1.14-.16.19-.21.04-.04.11-.13.2-.26.09-.13.15-.22.18-.27.03-.05.11-.16.22-.33.11-.17.19-.29.23-.36,0,.06-.02.1-.05.12,0,0,.03-.01.06-.02.18-.01.36.11.54.39.17.26.22.52.15.78-.07.26-.18.47-.33.64-.15.17-.39.39-.71.67-.32.28-.55.5-.68.64.97.85,1.79,1.79,2.46,2.83ZM294.99,76.32c-.26.17-.36.56-.31,1.18.06.62.2,1.25.42,1.9.22.65.43,1.24.64,1.78.21.54.3.81.29.81.12-.99.11-2.09-.03-3.31-.08-.89-.25-1.52-.49-1.89-.24-.38-.42-.53-.52-.46ZM299.75,87c-.48-.75-1.06-1.49-1.74-2.25-.68-.75-1.24-1.24-1.7-1.47l.08.13,2.35,3.97c.72,1.11,1.14,1.63,1.27,1.54.47-.31.48-.82.01-1.53l-.28-.4Z"/>
            <path d="M302.76,80.31c-.55-.85-.77-1.8-.65-2.85.11-1.05.54-1.81,1.28-2.29.18-.12.36-.2.54-.26-.92-1.92-1.42-3.44-1.51-4.57-.09-1.13.27-1.95,1.08-2.47.44-.29.88-.35,1.33-.19.45.16.82.47,1.13.94s.53,1.1.67,1.88c.14.78.21,1.47.22,2.06,0,.59-.02,1.39-.06,2.4-.05,1.01-.07,1.65-.07,1.93l.13.2c.28.43.55.69.82.77.27.09.51.06.72-.08.41-.26.7-1.02.86-2.26.01-.05.09-.12.24-.21.15-.09.32-.12.52-.1.19.02.34.11.44.27.1.16.15.33.13.52-.11,1.41-.63,2.42-1.57,3.03-.33.21-.71.33-1.16.36-.45.03-.84-.07-1.18-.29.18.88-.06,1.53-.72,1.96-.52.34-1.09.45-1.7.33-.61-.12-1.1-.48-1.49-1.08ZM305.36,79.6c.47-.31.37-1.11-.3-2.42l-.65-1.28c-.53.42-.82.93-.86,1.53-.04.6.1,1.14.42,1.62.44.68.9.87,1.39.55ZM304.26,69.5c-.42.27-.47.92-.15,1.94.32,1.02.84,2.29,1.57,3.8-.17-3.02-.48-4.88-.94-5.58-.14-.22-.3-.27-.48-.16Z"/>
            <path d="M308.87,76.23c-.56-.87-.78-1.8-.66-2.78.12-.98.58-1.73,1.38-2.25.52-.34,1.05-.43,1.59-.28.54.15.98.49,1.33,1.03.1.16.19.34.28.53.45-.57.74-1.19.88-1.84.02-.1.08-.19.18-.25.1-.06.24-.07.42,0s.3.14.37.24.09.18.09.24c-.06.8-.53,1.74-1.4,2.83.33,1.52-.03,2.61-1.07,3.28-.6.39-1.21.51-1.85.37-.64-.14-1.15-.51-1.54-1.12ZM311.66,75.77c.29-.19.46-.43.51-.73.05-.3,0-.6-.13-.9-.52.11-.91-.02-1.15-.4-.25-.38-.34-.87-.28-1.46l-.31.14h-.02c-.43.29-.65.7-.67,1.26-.01.55.11,1.03.37,1.43.26.4.53.66.82.77.29.12.58.08.86-.1Z"/>
            <path d="M316.36,66.73c.48-.31.87-.24,1.17.22.18.28.36.85.53,1.69.3,1.55.62,2.21.94,2,.25-.16.5-.68.76-1.55.04-.13.1-.22.2-.29.1-.06.23-.06.4.02.17.08.31.2.42.37.11.17.14.33.1.49-.41,1.34-.97,2.24-1.69,2.7-.71.46-1.27.39-1.67-.23-.23-.35-.44-.88-.63-1.61-.2-.73-.31-1.12-.35-1.18-.04-.06-.08-.07-.12-.05l-.03.02c-.2.26-.33.76-.37,1.47-.05.72.04,1.55.27,2.51.08.32.09.56.06.72-.04.16-.16.3-.36.43-.46.3-.98,0-1.55-.87-.7-1.11-1.19-2.36-1.45-3.75-.11-.53,0-.9.33-1.11.18-.12.35-.17.51-.15s.28.07.35.18.14.37.23.8c.08.43.27,1.03.57,1.81-.06-1.13.02-2.08.25-2.85.22-.78.55-1.33.97-1.67l.15-.12Z"/>
            <path d="M319.24,69.49c-.48-.73-.65-1.63-.54-2.69.12-1.06.57-1.84,1.34-2.34.45-.29.89-.39,1.32-.3.43.09.81.38,1.13.88.32.49.36,1.08.13,1.76-.23.68-.76,1.4-1.59,2.16.32.18.69.13,1.11-.14s.77-.62,1.08-1.06c.3-.44.52-.89.64-1.37.03-.12.09-.22.2-.28.1-.07.24-.09.4-.06.16.03.28.11.36.23.08.12.11.27.1.46-.02.55-.21,1.15-.57,1.8-.37.65-.86,1.18-1.48,1.59-.62.4-1.26.58-1.92.54-.65-.04-1.22-.43-1.7-1.17ZM320.69,65.78c-.29.19-.47.54-.55,1.07-.08.53.02,1,.3,1.43.31-.33.57-.77.79-1.3.22-.54.25-.93.08-1.18-.13-.2-.34-.2-.63-.02Z"/>
          </g>
          <rect class="cls-4" x="250" y="60.12" width="72.59" height="8.22" transform="translate(11.15 166.13) rotate(-32.97)"/>
          <rect class="cls-4" x="276.08" y="76.8" width="55.16" height="8.22" transform="translate(4.87 178.27) rotate(-32.97)"/>
        </g>
      </g>
    </g>
    <g id="sticker_4" data-name="sticker 4">
      <g>
        <g>
          <path class="cls-2" d="M284.48,28.77c-.67-.11-.7.04-1.37-.06s-.66-.18-1.34-.28-.69.03-1.37-.08-.66-.16-1.34-.27-.65-.28-1.32-.39-.67-.11-1.35-.21-.69.02-1.37-.09-.68-.04-1.36-.15-.67-.12-1.34-.22-.69-.03-1.36-.13-.63-.36-1.31-.46-.71.13-1.39.03-.67-.11-1.35-.22-.64-.3-1.32-.4-.66-.18-1.34-.28-.69-.03-1.36-.13-.7.05-1.37-.06-.65-.24-1.32-.34-.68-.03-1.36-.13-.67-.09-1.35-.2-.64-.28-1.32-.39-.71.11-1.38,0-.65-.29-1.32-.39-.69,0-1.37-.1-.66-.19-1.33-.3-.67-.16-1.34-.26-.69-.03-1.36-.13-.66-.21-1.33-.32-.71.15-1.39.04-.65-.26-1.33-.37-.7.07-1.38-.04-.64-.31-1.32-.42-.69,0-1.37-.1-.67-.15-1.34-.26-.7.04-1.37-.07-.63-.37-1.31-.48-.68-.1-1.35-.21-.69.02-1.37-.09-.66-.21-1.34-.32-.69,0-1.37-.1-.69,0-1.37-.1-.66-.2-1.34-.31-.67-.16-1.34-.27-.7.06-1.37-.04-.65-.23-1.33-.34-.65-.26-1.33-.37-.69-.02-1.36-.12-.7.03-1.37-.07-.68-.09-1.36-.2-.68-.08-1.36-.18-.67-.18-1.34-.28-.66-.26-1.33-.36-.7,0-1.37-.11c-.44-.07-.88-.18-1.31-.2s-.88.16-1.32.19-.9-.08-1.33,0-.89.13-1.31.26-.79.42-1.2.59-.76.44-1.14.66-.76.44-1.11.7-.74.48-1.06.78-.58.66-.87.99-.73.55-.98.92-.43.78-.64,1.17-.23.86-.39,1.28-.56.74-.67,1.17,0,.9-.06,1.35-.33.86-.35,1.3-.02.9.01,1.34.29.86.37,1.29.17.86.29,1.29.32.82.5,1.22.28.84.5,1.23.47.75.73,1.1.5.73.8,1.06.7.55,1.03.84.56.72.92.97.83.33,1.23.54.79.36,1.21.53.83.25,1.26.36.83.29,1.27.36c.68.11.65.24,1.33.35s.7-.07,1.38.04.65.24,1.33.35.7-.03,1.37.08.67.13,1.35.24.65.28,1.32.39.68.07,1.36.18.67.12,1.35.23.67.16,1.34.27.68.09,1.35.2.7-.02,1.37.09.67.16,1.34.27.67.12,1.35.23.67.14,1.35.24.71-.11,1.38,0,.64.37,1.31.47.7-.02,1.37.08.7-.05,1.38.06.68.1,1.36.21.67.18,1.34.28.65.3,1.33.41.68.1,1.36.2.81-.3,1.35.13c.57.45.42.58.71,1.25s.09.75.38,1.41.33.64.62,1.31.23.69.52,1.36.3.66.59,1.33,0,1.09.71,1.2.4-.52.88-1.06.62-.41,1.1-.95.45-.57.93-1.11.32-.68.8-1.23.65-.39,1.14-.94.21-.91.89-1.17c.64-.24.68.15,1.36.26s.66.21,1.33.32.71-.13,1.39-.02.65.24,1.33.35.7-.05,1.38.05.66.22,1.33.33.66.19,1.34.29.68.11,1.35.21.7-.03,1.37.08.66.22,1.33.33.7-.02,1.37.09.69.04,1.36.14.64.36,1.31.46.7-.08,1.38.03.65.25,1.33.36.67.12,1.35.23.68.06,1.36.17.66.19,1.34.29.68.1,1.36.2.69.03,1.37.13.68.09,1.36.2.68.09,1.36.19.68.09,1.36.19c.44.07.88.11,1.32.13s.89.07,1.33.04.85-.26,1.29-.34.92.04,1.34-.09.88-.22,1.28-.39.79-.44,1.17-.65.71-.54,1.07-.8.78-.45,1.1-.75.63-.63.92-.97.56-.69.81-1.06.42-.78.63-1.17.38-.79.55-1.21.38-.81.5-1.24.09-.88.16-1.32.24-.87.26-1.31-.22-.88-.25-1.32.09-.9,0-1.33-.34-.82-.47-1.24-.26-.83-.44-1.24-.17-.9-.39-1.28-.46-.77-.72-1.12-.63-.63-.93-.96-.67-.57-1-.86-.64-.6-1-.85-.67-.59-1.07-.8-.83-.3-1.25-.47-.83-.27-1.27-.39-.83-.33-1.27-.4Z"/>
          <path class="cls-5" d="M284.48,28.77c-.67-.11-.7.04-1.37-.06s-.66-.18-1.34-.28-.69.03-1.37-.08-.66-.16-1.34-.27-.65-.28-1.32-.39-.67-.11-1.35-.21-.69.02-1.37-.09-.68-.04-1.36-.15-.67-.12-1.34-.22-.69-.03-1.36-.13-.63-.36-1.31-.46-.71.13-1.39.03-.67-.11-1.35-.22-.64-.3-1.32-.4-.66-.18-1.34-.28-.69-.03-1.36-.13-.7.05-1.37-.06-.65-.24-1.32-.34-.68-.03-1.36-.13-.67-.09-1.35-.2-.64-.28-1.32-.39-.71.11-1.38,0-.65-.29-1.32-.39-.69,0-1.37-.1-.66-.19-1.33-.3-.67-.16-1.34-.26-.69-.03-1.36-.13-.66-.21-1.33-.32-.71.15-1.39.04-.65-.26-1.33-.37-.7.07-1.38-.04-.64-.31-1.32-.42-.69,0-1.37-.1-.67-.15-1.34-.26-.7.04-1.37-.07-.63-.37-1.31-.48-.68-.1-1.35-.21-.69.02-1.37-.09-.66-.21-1.34-.32-.69,0-1.37-.1-.69,0-1.37-.1-.66-.2-1.34-.31-.67-.16-1.34-.27-.7.06-1.37-.04-.65-.23-1.33-.34-.65-.26-1.33-.37-.69-.02-1.36-.12-.7.03-1.37-.07-.68-.09-1.36-.2-.68-.08-1.36-.18-.67-.18-1.34-.28-.66-.26-1.33-.36-.7,0-1.37-.11c-.44-.07-.88-.18-1.31-.2s-.88.16-1.32.19-.9-.08-1.33,0-.89.13-1.31.26-.79.42-1.2.59-.76.44-1.14.66-.76.44-1.11.7-.74.48-1.06.78-.58.66-.87.99-.73.55-.98.92-.43.78-.64,1.17-.23.86-.39,1.28-.56.74-.67,1.17,0,.9-.06,1.35-.33.86-.35,1.3-.02.9.01,1.34.29.86.37,1.29.17.86.29,1.29.32.82.5,1.22.28.84.5,1.23.47.75.73,1.1.5.73.8,1.06.7.55,1.03.84.56.72.92.97.83.33,1.23.54.79.36,1.21.53.83.25,1.26.36.83.29,1.27.36c.68.11.65.24,1.33.35s.7-.07,1.38.04.65.24,1.33.35.7-.03,1.37.08.67.13,1.35.24.65.28,1.32.39.68.07,1.36.18.67.12,1.35.23.67.16,1.34.27.68.09,1.35.2.7-.02,1.37.09.67.16,1.34.27.67.12,1.35.23.67.14,1.35.24.71-.11,1.38,0,.64.37,1.31.47.7-.02,1.37.08.7-.05,1.38.06.68.1,1.36.21.67.18,1.34.28.65.3,1.33.41.68.1,1.36.2.81-.3,1.35.13c.57.45.42.58.71,1.25s.09.75.38,1.41.33.64.62,1.31.23.69.52,1.36.3.66.59,1.33,0,1.09.71,1.2.4-.52.88-1.06.62-.41,1.1-.95.45-.57.93-1.11.32-.68.8-1.23.65-.39,1.14-.94.21-.91.89-1.17c.64-.24.68.15,1.36.26s.66.21,1.33.32.71-.13,1.39-.02.65.24,1.33.35.7-.05,1.38.05.66.22,1.33.33.66.19,1.34.29.68.11,1.35.21.7-.03,1.37.08.66.22,1.33.33.7-.02,1.37.09.69.04,1.36.14.64.36,1.31.46.7-.08,1.38.03.65.25,1.33.36.67.12,1.35.23.68.06,1.36.17.66.19,1.34.29.68.1,1.36.2.69.03,1.37.13.68.09,1.36.2.68.09,1.36.19.68.09,1.36.19c.44.07.88.11,1.32.13s.89.07,1.33.04.85-.26,1.29-.34.92.04,1.34-.09.88-.22,1.28-.39.79-.44,1.17-.65.71-.54,1.07-.8.78-.45,1.1-.75.63-.63.92-.97.56-.69.81-1.06.42-.78.63-1.17.38-.79.55-1.21.38-.81.5-1.24.09-.88.16-1.32.24-.87.26-1.31-.22-.88-.25-1.32.09-.9,0-1.33-.34-.82-.47-1.24-.26-.83-.44-1.24-.17-.9-.39-1.28-.46-.77-.72-1.12-.63-.63-.93-.96-.67-.57-1-.86-.64-.6-1-.85-.67-.59-1.07-.8-.83-.3-1.25-.47-.83-.27-1.27-.39-.83-.33-1.27-.4Z"/>
        </g>
        <g>
          <path d="M210.55,25.89c-.05.29-.18.52-.4.67-.22.15-.47.21-.77.16-.32-.05-.59-.19-.82-.4s-.31-.51-.25-.87c.02-.15.09-.33.21-.55.11-.22.25-.43.4-.63.15-.2.32-.37.49-.5.17-.13.33-.19.48-.17.08.01.14.05.19.11.04.06.06.13.05.2-.02.11-.06.21-.13.31-.07.09-.14.18-.21.27-.08.09-.15.17-.21.26-.07.09-.1.18-.11.27.15-.07.31-.09.46-.07.21.03.37.15.49.34.12.19.16.38.13.58ZM213.04,26.28c-.05.29-.18.52-.4.67s-.48.21-.76.16c-.33-.05-.61-.19-.83-.41s-.3-.5-.25-.85c.02-.15.09-.33.21-.55.11-.22.25-.43.4-.64.16-.2.32-.37.49-.5.17-.13.33-.19.48-.17.07.01.13.05.18.11s.06.13.05.21c-.02.11-.06.21-.13.31-.07.09-.14.18-.21.27s-.14.18-.2.26c-.06.09-.1.18-.11.27.15-.07.31-.09.46-.07.2.03.36.14.48.34s.17.39.14.58Z"/>
          <path d="M221.46,26.08c-.06.41-.19.84-.37,1.31-.18.47-.39.94-.64,1.41-.24.47-.5.92-.77,1.36-.27.44-.51.82-.73,1.16-.12.19-.28.43-.46.71-.18.29-.38.59-.6.92-.22.32-.45.65-.7.97-.24.32-.49.61-.74.86s-.49.45-.73.59c-.24.15-.46.2-.68.17-.29-.05-.49-.19-.58-.42-.09-.24-.12-.49-.07-.75.04-.26.13-.52.26-.8.13-.28.29-.55.46-.81.18-.26.37-.52.57-.76.2-.24.39-.46.56-.65-.18-.08-.34-.19-.5-.33-.16-.15-.26-.31-.32-.49-.1-.35-.19-.73-.28-1.16-.09-.43-.17-.86-.23-1.3-.06-.44-.1-.87-.11-1.3s0-.82.06-1.17c.03-.17.07-.34.14-.54.07-.19.16-.37.27-.52.11-.16.25-.28.41-.37.16-.09.35-.12.56-.09.24.04.44.16.59.37.16.21.28.46.38.76.1.3.17.62.22.98.05.36.08.71.1,1.05.02.34.03.65.04.94,0,.28,0,.51.02.67.06-.13.15-.33.29-.6.13-.27.29-.56.46-.88.18-.32.38-.65.59-.98.22-.33.44-.63.66-.9.23-.27.45-.48.69-.63s.45-.22.66-.19c.14.02.25.09.32.21.08.12.13.25.16.39.03.15.04.29.04.44,0,.15-.01.28-.03.38Z"/>
          <path d="M226.05,34c-.05.31-.2.6-.44.87-.24.27-.53.5-.87.68-.33.19-.68.33-1.05.42-.36.09-.69.11-.97.07-.49-.08-.9-.27-1.25-.57s-.61-.66-.81-1.08c-.2-.42-.33-.86-.39-1.34-.06-.48-.06-.93,0-1.36.07-.46.21-.94.42-1.44.21-.5.48-.96.81-1.36.33-.4.72-.72,1.17-.95.45-.23.95-.3,1.5-.22.31.05.6.15.87.3.27.15.49.34.67.56.18.23.31.48.4.77s.1.6.05.93c-.07.43-.22.82-.47,1.17-.24.35-.54.64-.88.87-.35.23-.73.4-1.15.5-.42.11-.84.14-1.26.09,0,.27.07.48.23.63.16.15.37.24.61.28.18.03.37.01.56-.05.19-.06.38-.14.56-.23.18-.09.36-.17.54-.23.17-.07.34-.09.51-.06.18.03.34.11.47.26.13.14.18.31.15.5ZM224.35,30.27c.02-.12,0-.25-.04-.39-.04-.14-.14-.22-.27-.24-.2-.03-.38,0-.53.08-.15.08-.29.2-.41.35s-.22.31-.29.48c-.08.18-.14.34-.17.5.13,0,.29-.02.48-.04.19-.02.37-.05.54-.11.17-.05.33-.13.46-.23.13-.1.21-.24.24-.4Z"/>
          <path d="M231.45,29.6c-.04.27-.16.45-.36.55-.2.1-.42.19-.66.27-.24.08-.46.18-.66.31-.2.13-.33.35-.38.66-.03.17-.01.31.05.45s.14.25.24.37c.1.11.21.23.33.36.12.12.23.26.33.4.09.15.17.32.22.51.05.2.05.43.01.69-.06.39-.22.75-.47,1.09-.26.34-.56.63-.92.87-.35.24-.74.42-1.15.53-.41.11-.81.14-1.19.08-.16-.02-.31-.06-.46-.11-.15-.05-.29-.11-.4-.2-.11-.08-.2-.19-.27-.32-.06-.13-.08-.28-.05-.47.04-.26.12-.45.25-.58.12-.13.27-.22.44-.28.17-.06.35-.1.53-.11.19-.02.36-.05.53-.09.17-.04.31-.11.43-.21s.19-.24.22-.44c.03-.19-.01-.4-.13-.64-.12-.23-.25-.48-.4-.74-.15-.26-.28-.54-.39-.83-.11-.29-.14-.6-.09-.92.06-.4.2-.75.41-1.06.21-.31.48-.57.79-.77.31-.21.65-.35,1.02-.44.37-.09.75-.1,1.14-.04.15.02.29.06.43.11.14.05.26.12.36.2s.17.19.23.32c.05.13.06.28.04.45Z"/>
          <path d="M232.91,36.85c-.02.15-.09.33-.21.55-.11.22-.25.43-.4.63-.15.2-.31.37-.48.5-.17.13-.33.19-.46.17-.18-.03-.26-.14-.23-.32.02-.11.06-.21.12-.31.06-.09.13-.18.2-.27.07-.09.14-.18.2-.27.06-.09.1-.18.11-.27-.15.07-.31.09-.46.07-.21-.03-.38-.14-.5-.33-.12-.19-.17-.38-.13-.59.05-.29.18-.52.4-.66.22-.15.48-.2.77-.15.33.05.61.18.83.4.22.21.3.5.25.86Z"/>
          <path d="M243.02,36.96c-.03.17-.1.34-.22.49-.12.14-.36.29-.73.45-.37.16-.78.3-1.22.42-.44.12-.87.22-1.28.29-.41.07-.7.09-.89.07-.13-.02-.28-.07-.44-.16-.17-.09-.33-.19-.49-.31-.16-.12-.3-.25-.43-.39s-.21-.27-.25-.39c-.03-.07-.04-.2-.04-.4,0-.2,0-.43.02-.69.02-.26.04-.54.07-.83.03-.29.05-.57.08-.83.03-.26.05-.5.08-.7.03-.2.05-.35.06-.44.05-.34.12-.73.22-1.17.09-.44.21-.87.34-1.31.13-.44.3-.85.48-1.24.19-.39.41-.71.67-.96.08-.07.22-.14.43-.2.21-.06.45-.11.72-.16s.57-.08.88-.1.62-.04.91-.05c.29,0,.55,0,.78,0s.41.01.53.03c.14.02.26.07.38.15.11.08.21.18.28.29.07.11.12.24.15.37.03.13.04.27.01.4-.02.12-.05.22-.1.3-.04.08-.11.16-.19.25-.11.11-.33.22-.65.34-.32.12-.67.23-1.04.34-.37.11-.72.2-1.06.28-.34.08-.58.14-.71.17-.07.21-.14.41-.22.62-.08.21-.14.42-.19.64.31-.1.65-.19,1.03-.26.38-.07.73-.08,1.05-.03.65.1.93.48.83,1.12-.02.16-.08.29-.15.4s-.17.2-.28.28c-.11.08-.23.14-.37.19-.14.05-.27.1-.4.14-.32.11-.65.2-.99.26s-.68.13-1.02.19c-.03.07-.06.15-.09.23-.03.08-.05.17-.07.25-.02.13-.03.26-.03.39,0,.13,0,.26,0,.4.12-.02.3-.05.56-.1.26-.04.52-.09.8-.13.28-.04.55-.07.8-.09.26-.02.45-.02.57,0,.14.02.26.07.37.15.11.08.2.17.27.28.07.11.12.23.15.37.03.14.04.27.01.4Z"/>
          <path d="M247.16,40.23c-.16-.02-.27-.12-.34-.27-.07-.16-.11-.33-.13-.52-.02-.19-.02-.38,0-.57.01-.19.03-.34.05-.44.04-.28.1-.55.18-.82.08-.27.16-.54.24-.81.08-.27.16-.54.24-.81.08-.27.13-.54.18-.82.02-.11.03-.23.04-.36.01-.13,0-.25,0-.38-.01-.12-.05-.22-.11-.31-.06-.09-.15-.14-.27-.16-.08-.01-.18.04-.31.16-.12.12-.24.25-.35.41-.12.16-.21.31-.3.48-.09.16-.14.28-.15.37-.03.2-.06.41-.09.61-.03.21-.06.42-.09.63l-.12.8c-.04.16-.08.33-.12.5-.05.17-.1.34-.16.5-.05.16-.12.31-.2.46-.08.14-.17.27-.28.37-.11.1-.22.18-.35.23-.13.05-.28.07-.45.04-.18-.03-.33-.11-.43-.25-.1-.14-.17-.31-.22-.51-.04-.2-.06-.42-.06-.66,0-.24.02-.47.04-.7.02-.23.05-.43.08-.62.03-.19.06-.34.08-.45l.1-.65c.05-.35.1-.69.14-1.04.04-.34.09-.68.14-1.02.03-.18.07-.42.12-.7.05-.28.13-.56.23-.82.11-.26.25-.48.43-.65.18-.17.41-.23.69-.19.13.02.24.08.33.18.09.1.16.21.22.34.06.13.1.27.13.42s.05.27.06.38c.11-.11.24-.22.38-.32.14-.1.3-.18.47-.25.17-.07.36-.11.56-.14.2-.02.43-.02.68.02.47.07.82.24,1.04.51.23.27.38.58.45.93.07.36.09.73.06,1.12s-.07.74-.12,1.05c-.02.16-.08.39-.15.69-.08.3-.17.64-.29,1-.12.36-.26.73-.42,1.11-.16.37-.34.71-.53,1.01-.19.3-.39.54-.61.71-.22.17-.45.24-.69.2Z"/>
          <path d="M256.88,36.54c-.07.47-.15.94-.24,1.4-.09.47-.19.93-.3,1.4-.09.4-.2.83-.31,1.28-.12.45-.26.9-.44,1.34-.17.44-.38.85-.61,1.25-.23.39-.51.73-.83,1.01-.32.28-.69.49-1.11.62-.42.13-.89.16-1.42.07-.25-.04-.52-.12-.82-.25-.3-.13-.57-.28-.82-.47-.25-.19-.45-.41-.6-.65-.15-.25-.21-.51-.17-.8.03-.21.14-.39.32-.55.18-.16.39-.21.63-.18.15.02.28.07.41.14.12.07.25.15.37.24.12.08.24.16.36.23.12.07.24.11.37.13.34.05.64.01.89-.12.26-.13.47-.32.65-.56.18-.24.33-.51.44-.81.12-.3.21-.58.28-.85-.22.18-.45.29-.71.33-.26.04-.52.04-.79,0-.49-.08-.89-.23-1.2-.45-.31-.22-.55-.5-.72-.83s-.27-.7-.31-1.11c-.04-.41-.02-.85.05-1.31.04-.29.13-.6.24-.95.12-.35.26-.7.44-1.05.18-.35.38-.68.62-1.01.23-.32.49-.6.77-.82.28-.23.58-.4.91-.52.33-.12.67-.15,1.03-.09.35.05.64.2.88.45.24.24.35.55.34.93.13-.18.29-.35.49-.51.2-.16.41-.22.65-.19.13.02.23.1.29.24.07.14.11.32.13.54.02.22.02.45.01.69-.01.25-.03.49-.06.73-.03.24-.06.45-.09.64s-.05.34-.07.43ZM254.64,37.11c.02-.14.03-.32.02-.55,0-.23-.03-.45-.08-.66-.05-.21-.12-.4-.22-.57-.1-.17-.23-.26-.39-.29-.21-.03-.41.01-.59.13-.18.12-.35.28-.49.47-.14.19-.26.4-.36.62-.1.23-.16.42-.18.59-.02.12-.04.28-.05.49-.01.21,0,.41.02.61.03.2.08.38.16.53.08.15.2.24.37.27.25.04.47.01.68-.08.2-.09.38-.22.53-.38.15-.16.28-.35.38-.56.1-.21.16-.42.2-.62Z"/>
          <path d="M261.01,33.44c-.08.5-.18.99-.3,1.49s-.22.99-.3,1.5c-.1.65-.18,1.31-.25,1.97-.06.66-.14,1.32-.25,1.98-.03.17-.06.35-.11.55-.05.2-.12.39-.22.55-.1.16-.22.29-.38.39-.16.1-.35.13-.58.09-.22-.03-.39-.17-.52-.41-.13-.24-.22-.54-.27-.89-.05-.35-.08-.74-.08-1.17,0-.42,0-.83.04-1.23.03-.4.06-.76.1-1.09.04-.33.07-.57.09-.73.03-.17.07-.43.14-.75.07-.33.15-.68.26-1.06.11-.38.23-.76.37-1.15s.3-.73.48-1.04c.18-.31.38-.55.59-.73.21-.18.44-.25.69-.21.2.03.34.12.43.27.08.15.13.32.15.52.02.19.01.4,0,.61s-.05.39-.07.53Z"/>
          <path d="M263.91,37.4c-.02.13-.04.27-.06.41s-.05.28-.08.4c-.03.15-.07.36-.11.63s-.1.54-.16.84c-.07.3-.14.6-.24.91-.09.31-.2.58-.33.82-.13.24-.29.43-.46.57s-.38.19-.61.17c-.18-.02-.31-.11-.41-.28-.1-.17-.17-.37-.21-.62-.04-.25-.06-.52-.05-.81,0-.29.03-.58.05-.85.02-.27.05-.53.09-.76.04-.23.06-.4.08-.51.02-.15.06-.36.1-.63.04-.27.1-.56.17-.87s.15-.62.25-.94.22-.6.36-.85.3-.45.48-.59.39-.19.63-.16c.25.04.42.19.51.46.09.27.14.57.15.91.01.34,0,.68-.04,1-.04.33-.08.57-.1.73ZM264.53,32.7c-.02.13-.07.24-.16.33-.09.09-.19.17-.31.23-.12.06-.25.1-.39.12-.14.02-.26.02-.37,0-.18-.03-.34-.1-.46-.21-.12-.11-.17-.27-.14-.46.02-.14.08-.25.16-.35.08-.09.18-.17.3-.22.11-.05.24-.09.37-.1.14-.02.26-.02.38,0,.17.03.33.09.46.2s.19.26.15.46Z"/>
          <path d="M269.34,35.54c-.04.27-.16.45-.36.55-.2.1-.42.19-.66.27-.24.08-.46.18-.66.31-.2.13-.33.35-.38.66-.03.17,0,.31.05.45.06.13.14.26.24.37s.21.23.33.36c.12.12.23.26.33.4.09.15.17.32.22.51.05.2.05.43.01.69-.06.39-.22.75-.48,1.09-.26.34-.56.63-.91.87-.35.24-.74.42-1.15.53-.41.11-.81.14-1.19.08-.16-.02-.31-.06-.46-.11s-.29-.11-.4-.2-.2-.19-.27-.32c-.06-.13-.08-.28-.05-.47.04-.26.12-.45.25-.58s.27-.22.44-.28c.17-.06.35-.1.53-.11.19-.02.36-.05.53-.09.17-.04.31-.11.43-.21.12-.09.19-.24.22-.44.03-.19-.01-.4-.13-.64-.12-.23-.25-.48-.4-.74-.15-.26-.28-.54-.39-.83-.11-.29-.14-.6-.09-.92.06-.4.2-.75.41-1.06.21-.31.48-.57.79-.77s.65-.35,1.02-.44c.37-.09.75-.1,1.14-.04.15.02.29.06.43.11.14.05.26.12.36.2.1.09.17.19.23.32.05.13.06.28.04.45Z"/>
          <path d="M275.52,40.62c-.02.16-.06.39-.12.7-.05.31-.12.63-.19.96-.08.33-.16.64-.24.94-.08.29-.16.5-.24.63-.1.16-.22.3-.36.41-.14.11-.31.15-.51.12-.31-.05-.52-.21-.62-.48-.1-.27-.14-.59-.13-.97.01-.38.06-.78.13-1.21.08-.43.14-.83.17-1.2.04-.37.04-.69,0-.95-.04-.26-.18-.41-.4-.44-.3-.05-.54-.04-.72.04-.18.07-.31.18-.4.33-.09.15-.16.32-.21.52-.04.2-.09.41-.15.63-.05.21-.11.49-.17.85-.07.36-.16.7-.29,1.04-.13.34-.3.62-.51.85-.21.23-.48.31-.81.26-.2-.03-.35-.14-.45-.31-.1-.18-.17-.39-.2-.65-.03-.26-.04-.54-.03-.85.01-.31.04-.61.08-.9.04-.29.08-.55.12-.79.04-.24.07-.42.09-.54.03-.18.08-.49.16-.91.08-.42.18-.89.31-1.4s.27-1.04.43-1.58.33-1.03.53-1.46c.19-.44.39-.78.61-1.04.22-.26.44-.36.66-.32.15.03.26.12.35.25.09.14.15.3.19.5.04.2.07.41.08.64.01.23.01.45,0,.67-.01.22-.03.42-.05.61-.02.18-.04.33-.06.43-.04.24-.08.48-.13.72-.05.24-.1.47-.15.71.25-.25.58-.44.96-.57.38-.13.75-.16,1.11-.11.46.07.79.25.98.54.19.29.31.63.36,1.02.04.39.04.79-.02,1.21-.06.42-.11.79-.16,1.13Z"/>
          <path d="M278.34,44.18c-.02.16-.08.29-.17.39-.09.1-.2.18-.34.24-.13.06-.27.1-.41.11s-.29.01-.42,0c-.2-.03-.39-.11-.55-.25-.17-.14-.23-.32-.2-.55.02-.14.08-.26.18-.36.1-.1.21-.19.34-.25.13-.06.27-.11.42-.13.15-.02.29-.02.42,0,.21.03.4.12.55.25.16.13.22.32.18.56ZM279.43,38.98c-.02.15-.06.35-.12.6-.06.25-.13.52-.21.8-.08.28-.18.57-.3.86-.12.29-.24.55-.37.78-.13.23-.27.41-.42.54-.15.13-.31.18-.48.16-.2-.03-.36-.16-.47-.38-.11-.22-.19-.49-.24-.81-.05-.32-.07-.68-.07-1.06,0-.39.02-.76.05-1.13.03-.37.07-.71.11-1.01.04-.31.08-.55.1-.71s.06-.37.1-.63c.04-.25.09-.52.16-.8.07-.28.15-.56.24-.83.09-.27.21-.52.35-.73.14-.21.3-.38.49-.5.19-.12.41-.15.65-.12.22.03.39.16.5.37.11.21.19.47.23.78.04.31.05.66.04,1.03-.02.37-.05.74-.09,1.1-.04.36-.09.69-.14.99-.05.3-.09.54-.12.72Z"/>
          <path d="M284.19,36.29c-.02.16-.09.35-.21.57-.12.22-.25.43-.4.64-.15.2-.31.37-.48.5-.17.13-.33.19-.46.17-.18-.03-.26-.14-.23-.35.02-.1.05-.2.12-.29.06-.09.13-.19.2-.27.07-.09.13-.17.2-.26.06-.08.1-.17.11-.27-.15.07-.31.09-.46.07-.21-.03-.38-.15-.5-.34-.12-.19-.17-.39-.13-.59.05-.29.18-.52.4-.66.22-.15.48-.2.77-.15.33.05.61.18.83.39.22.21.3.49.25.85ZM286.68,36.65c-.02.15-.09.33-.2.56-.11.22-.24.43-.4.64-.15.2-.31.37-.48.5s-.32.19-.46.17c-.18-.03-.26-.14-.23-.33.02-.11.06-.21.13-.31.07-.09.13-.18.21-.27.07-.09.13-.17.2-.26.06-.08.09-.18.1-.28-.15.08-.3.11-.47.08-.21-.03-.38-.15-.5-.34-.12-.19-.16-.39-.13-.59.05-.29.18-.51.4-.66.22-.14.48-.19.77-.15.33.05.6.18.82.39s.3.49.24.85Z"/>
        </g>
      </g>
    </g>
    <g id="sticker_5" data-name="sticker 5">
      <g>
        <g>
          <path class="cls-15" d="M24.59,121.14c.68,1.35,1.04,2.95,1.96,4.16s2.49,1.84,3.63,2.84,2.04,2.37,3.38,3.07,2.94.71,4.44,1.02c1.5.3,3.32.88,4.49-.12,1.09-.92,1.25-2.68,1.48-4.08-1.65.19-3.24-.37-4.83-.82s-3.17-.84-4.51-1.82-2.35-2.25-3.22-3.67"/>
          <path class="cls-5" d="M24.59,121.14c.68,1.35,1.04,2.95,1.96,4.16s2.49,1.84,3.63,2.84,2.04,2.37,3.38,3.07,2.94.71,4.44,1.02c1.5.3,3.32.88,4.49-.12,1.09-.92,1.25-2.68,1.48-4.08-1.65.19-3.24-.37-4.83-.82s-3.17-.84-4.51-1.82-2.35-2.25-3.22-3.67"/>
        </g>
        <g>
          <path class="cls-15" d="M22.02,110.75c-1.98-.82-3.99-1.31-5.97-2.13-.82-.34-1.59-.88-2.48-.93-1.43-.08-3.07.39-4.08,1.42-1,1.03-1.33,2.62-1.9,3.93-.52,1.19-1.26,2.45-1.09,3.74.28,2.14,2.57,3.3,4.61,3.99,1.87.63,3.92,1.19,5.48,0-.98,1.35-1.41,2.79-1.53,4.43s-.29,3.44.24,4.97c.42,1.21,1.49,2.96,2.66,3.57,1.17.61,3.37,1.29,4.6.82,2.42-.93,4.09-2.84,5.27-5.13.49-.95.37-2.03.2-3.13-.17-1.11-.36-2.1-.3-3.3,1.98,1.67,4.92.67,7.27.31,2.23-.34,4.45-.67,5.92-2.38.92-1.07,1.32-2.32,1.55-3.71.18-1.04.23-2.01.04-3.05-.41-2.22-1.92-3.81-4.03-4.6-2.12-.79-4.51-.74-6.28.66.75-1.89,1.05-3.67,1.18-5.7s-.29-3.96-1.87-5.24c-.67-.55-1.16-1.47-1.97-1.78-2.31-.89-5.13-.82-6.98.82-.97.86-1.66,1.92-1.96,3.18-.35,1.49-.71,3.25-.51,4.89s.94,3.12,1.91,4.35Z"/>
          <path class="cls-5" d="M22.02,110.75c-1.98-.82-3.99-1.31-5.97-2.13-.82-.34-1.59-.88-2.48-.93-1.43-.08-3.07.39-4.08,1.42-1,1.03-1.33,2.62-1.9,3.93-.52,1.19-1.26,2.45-1.09,3.74.28,2.14,2.57,3.3,4.61,3.99,1.87.63,3.92,1.19,5.48,0-.98,1.35-1.41,2.79-1.53,4.43s-.29,3.44.24,4.97c.42,1.21,1.49,2.96,2.66,3.57,1.17.61,3.37,1.29,4.6.82,2.42-.93,4.09-2.84,5.27-5.13.49-.95.37-2.03.2-3.13-.17-1.11-.36-2.1-.3-3.3,1.98,1.67,4.92.67,7.27.31,2.23-.34,4.45-.67,5.92-2.38.92-1.07,1.32-2.32,1.55-3.71.18-1.04.23-2.01.04-3.05-.41-2.22-1.92-3.81-4.03-4.6-2.12-.79-4.51-.74-6.28.66.75-1.89,1.05-3.67,1.18-5.7s-.29-3.96-1.87-5.24c-.67-.55-1.16-1.47-1.97-1.78-2.31-.89-5.13-.82-6.98.82-.97.86-1.66,1.92-1.96,3.18-.35,1.49-.71,3.25-.51,4.89s.94,3.12,1.91,4.35Z"/>
        </g>
        <path class="cls-5" d="M15.4,114.26c1.33.37,2.56,1.16,3.92,1.42s2.78.06,4.16.2"/>
      </g>
    </g>
    <g id="sticker_6" data-name="sticker 6">
      <g>
        <path class="cls-3" d="M299.91,14.38c.07-.68-.04-1.12-.06-1.81s.15-1.44-.02-2.09-.32-1.46-.71-2.04-1.44-.44-2.03-.79-1.01-1.34-1.68-1.38-1.34.54-1.93.93c-.57.38-.69,1.02-.99,1.64s-.75,1.13-.85,1.78c-.1.6.09,1.21.11,1.84s-.06,1.22.1,1.82.22,1.27.55,1.78.95.97,1.48,1.33c-.65-.02-1.44-.21-2.11-.19s-1.32.18-1.98.26-1.26.42-1.89.59-1.17.49-1.76.8-1.12.57-1.62,1.02c-.46.42-1.22.68-1.48,1.24s0,1.27.16,1.89c.16.58.25,1.24.72,1.62s1.26.08,1.81.27c.62.21,1.13.66,1.78.7s1.31.19,1.96.09,1.26-.39,1.86-.64,1.04-.75,1.55-1.15.85-.41,1.22-.96c-.03.85-.12,1.46-.05,2.32s.13,1.68.11,2.52c-.03,1.03.27,2.11.52,3.11s.8,2.12,1.7,2.61c.68.37,1.51.06,2.26-.13s1.7-.19,2.21-.75.87-1.39,1.09-2.13.3-1.57.3-2.33-.32-1.52-.44-2.28-.51-1.83-.62-2.58c.5.45,1.29,1.23,1.7,1.79s1,.92,1.46,1.4.6,1.53,1.26,1.76c.63.21,1.45.19,2.11.09s1.39-.14,2.01-.35c.95-.32,2.03-.85,2.78-1.53s1.35-2.22.98-3.16c-.37-.94-1.84-1.19-2.79-1.51-.78-.27-1.44-1.03-2.24-1.21s-1.75.15-2.57.06c.83-.25,1.57-.74,2.26-1.25s1.68-.87,2.11-1.63c.33-.57.15-1.41.27-2.07s.42-1.38.27-2.01-.53-1.32-1.01-1.81c-.5-.51-1.29-.63-1.98-.8s-1.37-.17-2.06-.04-1.47.12-2.1.46-1.19.83-1.74,1.26c-.54.43-1.96.97-2.01,1.66Z"/>
        <path class="cls-5" d="M299.91,14.38c.07-.68-.04-1.12-.06-1.81s.15-1.44-.02-2.09-.32-1.46-.71-2.04-1.44-.44-2.03-.79-1.01-1.34-1.68-1.38-1.34.54-1.93.93c-.57.38-.69,1.02-.99,1.64s-.75,1.13-.85,1.78c-.1.6.09,1.21.11,1.84s-.06,1.22.1,1.82.22,1.27.55,1.78.95.97,1.48,1.33c-.65-.02-1.44-.21-2.11-.19s-1.32.18-1.98.26-1.26.42-1.89.59-1.17.49-1.76.8-1.12.57-1.62,1.02c-.46.42-1.22.68-1.48,1.24s0,1.27.16,1.89c.16.58.25,1.24.72,1.62s1.26.08,1.81.27c.62.21,1.13.66,1.78.7s1.31.19,1.96.09,1.26-.39,1.86-.64,1.04-.75,1.55-1.15.85-.41,1.22-.96c-.03.85-.12,1.46-.05,2.32s.13,1.68.11,2.52c-.03,1.03.27,2.11.52,3.11s.8,2.12,1.7,2.61c.68.37,1.51.06,2.26-.13s1.7-.19,2.21-.75.87-1.39,1.09-2.13.3-1.57.3-2.33-.32-1.52-.44-2.28-.51-1.83-.62-2.58c.5.45,1.29,1.23,1.7,1.79s1,.92,1.46,1.4.6,1.53,1.26,1.76c.63.21,1.45.19,2.11.09s1.39-.14,2.01-.35c.95-.32,2.03-.85,2.78-1.53s1.35-2.22.98-3.16c-.37-.94-1.84-1.19-2.79-1.51-.78-.27-1.44-1.03-2.24-1.21s-1.75.15-2.57.06c.83-.25,1.57-.74,2.26-1.25s1.68-.87,2.11-1.63c.33-.57.15-1.41.27-2.07s.42-1.38.27-2.01-.53-1.32-1.01-1.81c-.5-.51-1.29-.63-1.98-.8s-1.37-.17-2.06-.04-1.47.12-2.1.46-1.19.83-1.74,1.26c-.54.43-1.96.97-2.01,1.66Z"/>
      </g>
    </g>
  </g>
</svg>