<?xml version="1.0" encoding="UTF-8"?>
<svg id="_레이어_2" data-name="레이어 2" xmlns="http://www.w3.org/2000/svg" viewBox="0 0 200 200">
  <defs>
    <style>
      .cls-1 {
        fill: none;
        stroke-linecap: round;
        stroke-linejoin: round;
        stroke-width: 2.4px;
      }

      .cls-1, .cls-2 {
        stroke: #000;
      }

      .cls-3 {
        fill: #ffaf42;
      }

      .cls-2 {
        stroke-miterlimit: 10;
        stroke-width: 1.2px;
      }

      .cls-4 {
        fill: #fff;
      }
    </style>
  </defs>
  <g>
    <path class="cls-3" d="M78.57,159.64c-.27,1.98-.66,1.56-1.03,3.89-.19,1.17-.48,2.51-.73,3.93-.23,1.29.16,2.75-.11,4.05-.28,1.38-.89,2.65-1.2,3.83-.34,1.33-.79,2.58-.96,3.78-.2,1.41-.45,2.82-.2,3.97.28,1.28,1.18,2.42,2.29,3.27.86.66,2.01,1.52,3.53,1.87,1.02.23,2.33.2,3.68.35,1.14.13,2.4-.18,3.66-.14,1.2.04,2.39-.4,3.61-.46s2.55.81,3.72.63c1.27-.2,2.24-1.38,3.31-1.74,1.28-.44,2.23-.85,3.04-1.57.96-.84,1.34-1.53,1.36-2.82.02-1.21.17-2.21-.24-3.13-.47-1.04-.67-2.36-1.44-3.07-.85-.79-2.08-1.19-2.96-1.64-1.65-.84-3.1.73-3.5-.85-.44-1.75.1-1.93.31-3.72s.26-1.79.46-3.58.58-1.75.79-3.55"/>
    <path class="cls-1" d="M78.57,159.64c-.27,1.98-.66,1.56-1.03,3.89-.19,1.17-.48,2.51-.73,3.93-.23,1.29.16,2.75-.11,4.05-.28,1.38-.89,2.65-1.2,3.83-.34,1.33-.79,2.58-.96,3.78-.2,1.41-.45,2.82-.2,3.97.28,1.28,1.18,2.42,2.29,3.27.86.66,2.01,1.52,3.53,1.87,1.02.23,2.33.2,3.68.35,1.14.13,2.4-.18,3.66-.14,1.2.04,2.39-.4,3.61-.46s2.55.81,3.72.63c1.27-.2,2.24-1.38,3.31-1.74,1.28-.44,2.23-.85,3.04-1.57.96-.84,1.34-1.53,1.36-2.82.02-1.21.17-2.21-.24-3.13-.47-1.04-.67-2.36-1.44-3.07-.85-.79-2.08-1.19-2.96-1.64-1.65-.84-3.1.73-3.5-.85-.44-1.75.1-1.93.31-3.72s.26-1.79.46-3.58.58-1.75.79-3.55"/>
  </g>
  <g>
    <path class="cls-3" d="M108.54,159.24c-.24,1.8-.16,1.48-.43,3.6-.14,1.07-.59,2.26-.75,3.56-.15,1.18-.24,2.41-.38,3.61-.15,1.27-.79,2.45-.9,3.55-.16,1.56.09,2.9.07,3.65-.03,1.15.22,2.33.74,3.45.45.96,1.05,2.02,2.18,2.8.83.57,2.13.46,3.45.85,1,.3,1.99,1.18,3.32,1.35,1.16.15,2.34.09,3.47.16s2.36.41,3.48.37c1.21-.04,2.32-.68,3.39-.9,1.21-.25,2.46-.21,3.4-.74,1.03-.58,1.3-1.83,1.92-2.83.56-.89.95-1.73,1.1-3.02.15-1.36.72-2.63.25-3.62-.52-1.11-1.94-1.53-2.88-2.25-.99-.76-1.85-1.69-2.88-2.1-1.87-.75-2.57.68-3.04-1.06-.5-1.87.21-1.75.45-3.67s-.64-2.03-.4-3.95,1.26-1.79,1.5-3.71"/>
    <path class="cls-1" d="M108.54,159.24c-.24,1.8-.16,1.48-.43,3.6-.14,1.07-.59,2.26-.75,3.56-.15,1.18-.24,2.41-.38,3.61-.15,1.27-.79,2.45-.9,3.55-.16,1.56.09,2.9.07,3.65-.03,1.15.22,2.33.74,3.45.45.96,1.05,2.02,2.18,2.8.83.57,2.13.46,3.45.85,1,.3,1.99,1.18,3.32,1.35,1.16.15,2.34.09,3.47.16s2.36.41,3.48.37c1.21-.04,2.32-.68,3.39-.9,1.21-.25,2.46-.21,3.4-.74,1.03-.58,1.3-1.83,1.92-2.83.56-.89.95-1.73,1.1-3.02.15-1.36.72-2.63.25-3.62-.52-1.11-1.94-1.53-2.88-2.25-.99-.76-1.85-1.69-2.88-2.1-1.87-.75-2.57.68-3.04-1.06-.5-1.87.21-1.75.45-3.67s-.64-2.03-.4-3.95,1.26-1.79,1.5-3.71"/>
  </g>
  <g>
    <path class="cls-3" d="M81.72,119.19c-.59.63-1.19,1.27-1.8,1.83s-1.29,1.17-1.94,1.68-1.58.76-2.27,1.22-1.6.64-2.33,1.03-1.35,1.12-2.12,1.45-1.49.95-2.29,1.2-1.7.37-2.52.56-1.77-.18-2.6-.06-1.65.6-2.49.64-1.71-.13-2.55-.14-1.64-.68-2.48-.77-1.72.22-2.55.08-1.71-.09-2.53-.29-1.46-1.04-2.26-1.29-1.95.44-2.74.14-1.25-1.42-2.01-1.77-1.8-.21-2.53-.61-1.36-1.07-2.06-1.52c-.73-.47-1.29-1.13-1.94-1.63-.71-.53-1.53-.95-2.27-1.35-.79-.42-1.65-.72-2.44-.98-.86-.29-1.84.21-2.66.09-.91-.13-1.75-1.17-2.55-1.1-.94.08-1.52,1.25-2.24,1.58-.86.4-2.19.27-2.56,1.01s.02,1.74-.13,2.51.01,1.5.08,2.3-.47,1.69-.2,2.47c.25.72,1,1.27,1.43,1.99.39.65,1.11,1.06,1.64,1.7.48.59.28,1.87.89,2.44.55.53,1.34.9,1.99,1.41.61.47,1.24,1,1.93,1.45.65.42,1.62.52,2.43.99.7.4,1.28,1.15,2.09,1.56.73.37,1.74.28,2.56.64.76.34,1.62.47,2.45.79.78.3,1.44.98,2.28,1.26s1.56.75,2.41.97,1.6.76,2.46.94,1.73.21,2.59.34,1.78-.44,2.65-.36,1.67.81,2.54.83,1.73-.42,2.6-.45,1.68-.39,2.55-.47,1.7-.05,2.57-.18,1.75.04,2.6-.15,1.57-.76,2.41-1,1.56-.68,2.38-.97,1.81-.04,2.61-.38,1.46-.92,2.25-1.31,1.39-1.01,2.16-1.44"/>
    <path class="cls-1" d="M81.72,119.19c-.59.63-1.19,1.27-1.8,1.83s-1.29,1.17-1.94,1.68-1.58.76-2.27,1.22-1.6.64-2.33,1.03-1.35,1.12-2.12,1.45-1.49.95-2.29,1.2-1.7.37-2.52.56-1.77-.18-2.6-.06-1.65.6-2.49.64-1.71-.13-2.55-.14-1.64-.68-2.48-.77-1.72.22-2.55.08-1.71-.09-2.53-.29-1.46-1.04-2.26-1.29-1.95.44-2.74.14-1.25-1.42-2.01-1.77-1.8-.21-2.53-.61-1.36-1.07-2.06-1.52c-.73-.47-1.29-1.13-1.94-1.63-.71-.53-1.53-.95-2.27-1.35-.79-.42-1.65-.72-2.44-.98-.86-.29-1.84.21-2.66.09-.91-.13-1.75-1.17-2.55-1.1-.94.08-1.52,1.25-2.24,1.58-.86.4-2.19.27-2.56,1.01s.02,1.74-.13,2.51.01,1.5.08,2.3-.47,1.69-.2,2.47c.25.72,1,1.27,1.43,1.99.39.65,1.11,1.06,1.64,1.7.48.59.28,1.87.89,2.44.55.53,1.34.9,1.99,1.41.61.47,1.24,1,1.93,1.45.65.42,1.62.52,2.43.99.7.4,1.28,1.15,2.09,1.56.73.37,1.74.28,2.56.64.76.34,1.62.47,2.45.79.78.3,1.44.98,2.28,1.26s1.56.75,2.41.97,1.6.76,2.46.94,1.73.21,2.59.34,1.78-.44,2.65-.36,1.67.81,2.54.83,1.73-.42,2.6-.45,1.68-.39,2.55-.47,1.7-.05,2.57-.18,1.75.04,2.6-.15,1.57-.76,2.41-1,1.56-.68,2.38-.97,1.81-.04,2.61-.38,1.46-.92,2.25-1.31,1.39-1.01,2.16-1.44"/>
  </g>
  <g>
    <path class="cls-4" d="M106.09,59.81c.69-1.03.81-.59,1.72-1.83.42-.57.49-1.58,1.05-2.31.47-.61.96-1.3,1.51-1.98.5-.62,1.25-1.08,1.81-1.73s1.04-1.29,1.6-1.91,1.45-.91,2.03-1.51,1.03-1.32,1.63-1.88,1.55-.76,2.17-1.27c.66-.55,1.05-1.38,1.71-1.82.72-.49,1.57-.63,2.27-.97.81-.39,1.37-1.37,2.13-1.5.87-.15,1.55.83,2.31,1.1s1.3.6,1.91,1.17,1.58.72,2.02,1.47c.4.68.89,1.4,1.19,2.22.27.75-.12,1.73.07,2.56.18.79.18,1.59.31,2.43s.38,1.59.45,2.43.01,1.64.04,2.47.03,1.65.03,2.47,1.06,1.69,1.03,2.51-.84,1.65-.89,2.46c-.05.86-.28,1.68-.35,2.47-.08.88.3,1.76.22,2.52-.1.93-.46,1.73-.56,2.44-.21,1.54-.28,1.21-.49,2.43"/>
    <path class="cls-1" d="M106.09,59.81c.69-1.03.81-.59,1.72-1.83.42-.57.49-1.58,1.05-2.31.47-.61.96-1.3,1.51-1.98.5-.62,1.25-1.08,1.81-1.73s1.04-1.29,1.6-1.91,1.45-.91,2.03-1.51,1.03-1.32,1.63-1.88,1.55-.76,2.17-1.27c.66-.55,1.05-1.38,1.71-1.82.72-.49,1.57-.63,2.27-.97.81-.39,1.37-1.37,2.13-1.5.87-.15,1.55.83,2.31,1.1s1.3.6,1.91,1.17,1.58.72,2.02,1.47c.4.68.89,1.4,1.19,2.22.27.75-.12,1.73.07,2.56.18.79.18,1.59.31,2.43s.38,1.59.45,2.43.01,1.64.04,2.47.03,1.65.03,2.47,1.06,1.69,1.03,2.51-.84,1.65-.89,2.46c-.05.86-.28,1.68-.35,2.47-.08.88.3,1.76.22,2.52-.1.93-.46,1.73-.56,2.44-.21,1.54-.28,1.21-.49,2.43"/>
  </g>
  <g>
    <path class="cls-4" d="M104.25,56.31c.83-.02,1.67-1.08,2.49-1.05s1.66.45,2.47.54,1.64.31,2.45.46,1.5.86,2.3,1.06,1.74-.11,2.53.14,1.53.66,2.29.96,1.46.78,2.21,1.14,1.31,1.03,2.03,1.43,1.71.34,2.41.79,1.4.89,2.06,1.39,1.6.69,2.23,1.23.54,1.86,1.13,2.44,1.78.59,2.33,1.2.96,1.38,1.47,2.03,1.32,1.11,1.79,1.8.73,1.53,1.15,2.25.73,1.51,1.1,2.25.39,1.64.71,2.41.87,1.44,1.13,2.23.81,1.5,1.03,2.31.36,1.64.52,2.46c.03.13-.25.32-.23.45.16.83.12,1.71.25,2.57s.37,1.67.48,2.53.32,1.68.42,2.55-.47,1.77-.38,2.63.86,1.63.95,2.49-.01,1.72.08,2.58,0,1.72.1,2.58,0,1.73.1,2.59.53,1.67.64,2.52.66,1.64.79,2.49,0,1.74.16,2.58.05,1.75.23,2.59.86,1.57,1.08,2.39-.33,1.9-.07,2.71,1.1,1.46,1.41,2.25.28,1.77.65,2.54,1.35,1.24,1.78,1.97.98,1.33,1.37,2c.43.73.32,1.74.7,2.39.43.74,1.02,1.33,1.4,1.99.43.75.73,1.5,1.08,2.17.4.77.35,1.66.63,2.35.34.8.59,1.48.76,2.21.19.82.22,1.49.18,2.28s-.28,1.39-.55,2.2c-.23.7.32,1.78-.09,2.55-.35.65-.62,1.47-1.11,2.2-.56.85-1.14,1.69-1.71,2.27-.72.73-1.9.79-2.61,1.18-.86.47-1.68.81-2.53.96-.92.16-1.83.22-2.72.23s-1.79.34-2.67.45-2.02-.41-2.84.08-.98,1.81-1.59,2.43c-.66.67-1.29,1.29-1.88,1.99s-1.31,1.33-2.04,1.95c-.65.55-1.58.83-2.5,1.25-.75.34-1.53,1-2.56,1.21-.82.17-1.72.42-2.52.41s-1.74-.07-2.54-.21-1.61-.55-2.4-.78-1.46-.9-2.23-1.15c-.8-.27-1.48-.88-2.23-1.12-.83-.26-1.7-.34-2.46-.47-.86-.15-1.78-.21-2.54-.07s-1.56.67-2.44,1.07c-.74.34-1.31,1.14-2.12,1.58-.74.4-1.52.8-2.3,1.23s-1.56.8-2.35,1.19-1.81.23-2.62.55-1.55.87-2.39,1.07-1.71.78-2.58.81-1.76-.19-2.62-.28-1.67-.53-2.51-.69-1.61-.67-2.44-.87-1.77-.07-2.59-.26c-.86-.21-1.69-.45-2.5-.6-.89-.17-1.74-.39-2.54-.42-.91-.03-1.62.61-2.4.84-.66.2-1.73-.31-2.7,0-.75.24-1.33,1.33-2.22,1.59-.79.23-1.93-.62-2.79-.4s-1.49,1.12-2.34,1.3-1.66.63-2.51.76-1.82-.59-2.66-.53c-.89.06-1.72.26-2.55.21-.9-.06-1.92.52-2.71.3-.87-.25-1.8-.74-2.47-1.23s-1.19-1.27-1.79-1.89-.44-1.78-.93-2.48-1.24-1.15-1.61-1.91-.68-1.51-.92-2.32-.3-1.61-.4-2.46-.62-1.66-.56-2.51.78-1.55.99-2.39c.2-.79.06-1.71.4-2.51.32-.74.66-1.54,1.12-2.29.43-.69,1.48-1.1,1.84-1.86s-.03-1.81.25-2.61,1.21-1.36,1.44-2.17-.35-1.8-.17-2.61.29-1.62.43-2.44.56-1.59.66-2.41.14-1.66.22-2.48.65-1.63.7-2.45-.27-1.71-.23-2.51c.04-.86-.05-1.69-.02-2.49.03-.87.24-1.7.25-2.48.02-.9-.64-1.74-.62-2.49s.64-1.58.58-2.55c-.05-.78-.29-1.62-.37-2.54-.07-.8.17-1.68.1-2.57-.06-.82-.65-1.63-.7-2.52-.05-.83.35-1.7.32-2.57s-.83-1.67-.83-2.54.12-1.71.14-2.57.9-1.66.96-2.52-.64-1.77-.54-2.62.66-1.63.81-2.48.68-1.59.87-2.42.35-1.64.6-2.46-.34-1.91-.04-2.71,1.56-1.2,1.92-1.98.27-1.74.68-2.5.36-1.79.84-2.51c.69-1.04,1.36-.14,2.34-1.38.43-.55.23-1.8.85-2.51.5-.58,1.62-.69,2.23-1.35.53-.57,1.14-1.13,1.76-1.75.56-.56.73-1.59,1.36-2.17.59-.54,1.48-.8,2.13-1.35.62-.52,1.29-1,1.96-1.52s1.26-1.04,1.95-1.53,1.22-1.13,1.92-1.59,1.47-.75,2.2-1.18,1.45-.77,2.2-1.16,1.27-1.16,2.03-1.52,1.74-.15,2.51-.47,1.43-.85,2.23-1.12,1.61-.38,2.41-.61,1.44-1.07,2.25-1.26,1.64-.35,2.47-.49,1.77.68,2.6.59c.95-.11,1.77-1.3,2.67-1.37.95-.07,1.93,1,2.84.98Z"/>
    <path class="cls-1" d="M104.25,56.31c.83-.02,1.67-1.08,2.49-1.05s1.66.45,2.47.54,1.64.31,2.45.46,1.5.86,2.3,1.06,1.74-.11,2.53.14,1.53.66,2.29.96,1.46.78,2.21,1.14,1.31,1.03,2.03,1.43,1.71.34,2.41.79,1.4.89,2.06,1.39,1.6.69,2.23,1.23.54,1.86,1.13,2.44,1.78.59,2.33,1.2.96,1.38,1.47,2.03,1.32,1.11,1.79,1.8.73,1.53,1.15,2.25.73,1.51,1.1,2.25.39,1.64.71,2.41.87,1.44,1.13,2.23.81,1.5,1.03,2.31.36,1.64.52,2.46c.03.13-.25.32-.23.45.16.83.12,1.71.25,2.57s.37,1.67.48,2.53.32,1.68.42,2.55-.47,1.77-.38,2.63.86,1.63.95,2.49-.01,1.72.08,2.58,0,1.72.1,2.58,0,1.73.1,2.59.53,1.67.64,2.52.66,1.64.79,2.49,0,1.74.16,2.58.05,1.75.23,2.59.86,1.57,1.08,2.39-.33,1.9-.07,2.71,1.1,1.46,1.41,2.25.28,1.77.65,2.54,1.35,1.24,1.78,1.97.98,1.33,1.37,2c.43.73.32,1.74.7,2.39.43.74,1.02,1.33,1.4,1.99.43.75.73,1.5,1.08,2.17.4.77.35,1.66.63,2.35.34.8.59,1.48.76,2.21.19.82.22,1.49.18,2.28s-.28,1.39-.55,2.2c-.23.7.32,1.78-.09,2.55-.35.65-.62,1.47-1.11,2.2-.56.85-1.14,1.69-1.71,2.27-.72.73-1.9.79-2.61,1.18-.86.47-1.68.81-2.53.96-.92.16-1.83.22-2.72.23s-1.79.34-2.67.45-2.02-.41-2.84.08-.98,1.81-1.59,2.43c-.66.67-1.29,1.29-1.88,1.99s-1.31,1.33-2.04,1.95c-.65.55-1.58.83-2.5,1.25-.75.34-1.53,1-2.56,1.21-.82.17-1.72.42-2.52.41s-1.74-.07-2.54-.21-1.61-.55-2.4-.78-1.46-.9-2.23-1.15c-.8-.27-1.48-.88-2.23-1.12-.83-.26-1.7-.34-2.46-.47-.86-.15-1.78-.21-2.54-.07s-1.56.67-2.44,1.07c-.74.34-1.31,1.14-2.12,1.58-.74.4-1.52.8-2.3,1.23s-1.56.8-2.35,1.19-1.81.23-2.62.55-1.55.87-2.39,1.07-1.71.78-2.58.81-1.76-.19-2.62-.28-1.67-.53-2.51-.69-1.61-.67-2.44-.87-1.77-.07-2.59-.26c-.86-.21-1.69-.45-2.5-.6-.89-.17-1.74-.39-2.54-.42-.91-.03-1.62.61-2.4.84-.66.2-1.73-.31-2.7,0-.75.24-1.33,1.33-2.22,1.59-.79.23-1.93-.62-2.79-.4s-1.49,1.12-2.34,1.3-1.66.63-2.51.76-1.82-.59-2.66-.53c-.89.06-1.72.26-2.55.21-.9-.06-1.92.52-2.71.3-.87-.25-1.8-.74-2.47-1.23s-1.19-1.27-1.79-1.89-.44-1.78-.93-2.48-1.24-1.15-1.61-1.91-.68-1.51-.92-2.32-.3-1.61-.4-2.46-.62-1.66-.56-2.51.78-1.55.99-2.39c.2-.79.06-1.71.4-2.51.32-.74.66-1.54,1.12-2.29.43-.69,1.48-1.1,1.84-1.86s-.03-1.81.25-2.61,1.21-1.36,1.44-2.17-.35-1.8-.17-2.61.29-1.62.43-2.44.56-1.59.66-2.41.14-1.66.22-2.48.65-1.63.7-2.45-.27-1.71-.23-2.51c.04-.86-.05-1.69-.02-2.49.03-.87.24-1.7.25-2.48.02-.9-.64-1.74-.62-2.49s.64-1.58.58-2.55c-.05-.78-.29-1.62-.37-2.54-.07-.8.17-1.68.1-2.57-.06-.82-.65-1.63-.7-2.52-.05-.83.35-1.7.32-2.57s-.83-1.67-.83-2.54.12-1.71.14-2.57.9-1.66.96-2.52-.64-1.77-.54-2.62.66-1.63.81-2.48.68-1.59.87-2.42.35-1.64.6-2.46-.34-1.91-.04-2.71,1.56-1.2,1.92-1.98.27-1.74.68-2.5.36-1.79.84-2.51c.69-1.04,1.36-.14,2.34-1.38.43-.55.23-1.8.85-2.51.5-.58,1.62-.69,2.23-1.35.53-.57,1.14-1.13,1.76-1.75.56-.56.73-1.59,1.36-2.17.59-.54,1.48-.8,2.13-1.35.62-.52,1.29-1,1.96-1.52s1.26-1.04,1.95-1.53,1.22-1.13,1.92-1.59,1.47-.75,2.2-1.18,1.45-.77,2.2-1.16,1.27-1.16,2.03-1.52,1.74-.15,2.51-.47,1.43-.85,2.23-1.12,1.61-.38,2.41-.61,1.44-1.07,2.25-1.26,1.64-.35,2.47-.49,1.77.68,2.6.59c.95-.11,1.77-1.3,2.67-1.37.95-.07,1.93,1,2.84.98Z"/>
  </g>
  <g>
    <path class="cls-4" d="M61.86,82.43c-.17-1.28.5-1.02.36-2.63-.07-.73-1.28-1.51-1.34-2.49-.05-.8,1.03-1.72.99-2.64-.03-.82-1.04-1.66-1.06-2.56-.01-.84.43-1.7.44-2.59s.34-1.7.38-2.57-.63-1.76-.56-2.63.96-1.64,1.06-2.49-.59-1.84-.44-2.68.58-1.67.78-2.5.63-1.64.9-2.44c.28-.84.53-1.67.88-2.43.37-.81.34-1.86.8-2.56.49-.74,1.78-.81,2.38-1.4s1.11-1.25,1.86-1.67,1.44-.65,2.29-.66c.79-.01,1.74-.43,2.58-.16.75.24,1.54.69,2.31,1.11.7.38,1.31,1.04,2.01,1.54.66.47,1.27,1.07,1.92,1.61s1.56.77,2.17,1.34.49,1.89,1.06,2.48,1.21,1.17,1.75,1.76c.59.65,1.15,1.26,1.65,1.85.6.71,1.79.83,2.24,1.39.95,1.2.4,1.26,1.13,2.27"/>
    <path class="cls-1" d="M61.86,82.43c-.17-1.28.5-1.02.36-2.63-.07-.73-1.28-1.51-1.34-2.49-.05-.8,1.03-1.72.99-2.64-.03-.82-1.04-1.66-1.06-2.56-.01-.84.43-1.7.44-2.59s.34-1.7.38-2.57-.63-1.76-.56-2.63.96-1.64,1.06-2.49-.59-1.84-.44-2.68.58-1.67.78-2.5.63-1.64.9-2.44c.28-.84.53-1.67.88-2.43.37-.81.34-1.86.8-2.56.49-.74,1.78-.81,2.38-1.4s1.11-1.25,1.86-1.67,1.44-.65,2.29-.66c.79-.01,1.74-.43,2.58-.16.75.24,1.54.69,2.31,1.11.7.38,1.31,1.04,2.01,1.54.66.47,1.27,1.07,1.92,1.61s1.56.77,2.17,1.34.49,1.89,1.06,2.48,1.21,1.17,1.75,1.76c.59.65,1.15,1.26,1.65,1.85.6.71,1.79.83,2.24,1.39.95,1.2.4,1.26,1.13,2.27"/>
  </g>
  <g>
    <path class="cls-3" d="M76.38,85.87c-1.11,2.37-.7,4.75-.17,6.78.59,2.25,2.04,4.04,3.58,5.58,2,2.01,4.18,3.15,5.57,3.38s4.2.96,7.1.45c2.26-.4,4.36-1.5,6.07-3.44,1.33-1.51,2.66-3.45,2.96-6.41.21-2.11-1.24-3.93-2.77-5.81-1.32-1.63-2.44-3.92-4.49-5s-4.5-.63-6.67-.83-4.64-.8-6.6.27c-1.78.97-3.5,2.71-4.59,5.03Z"/>
    <path class="cls-1" d="M76.38,85.87c-1.11,2.37-.7,4.75-.17,6.78.59,2.25,2.04,4.04,3.58,5.58,2,2.01,4.18,3.15,5.57,3.38s4.2.96,7.1.45c2.26-.4,4.36-1.5,6.07-3.44,1.33-1.51,2.66-3.45,2.96-6.41.21-2.11-1.24-3.93-2.77-5.81-1.32-1.63-2.44-3.92-4.49-5s-4.5-.63-6.67-.83-4.64-.8-6.6.27c-1.78.97-3.5,2.71-4.59,5.03Z"/>
  </g>
  <g>
    <path class="cls-3" d="M106.1,91.89c.1,2.22.83,4.65,2.81,6.31,1.65,1.39,4.01,1.61,6.72,1.69,2.06.05,4.42.31,6.97-.82,2.73-1.21,4.74-2.89,5.97-4.75,1.52-2.28,2.23-4.99,2.04-7.4-.21-2.76-1.36-5.6-2.95-7.2-2.01-2.03-4.87-2.26-7.4-2.36s-5.03.65-7.15,2.19-4.54,2.77-5.83,4.9c-1.21,2-1.32,4.52-1.19,7.45Z"/>
    <path class="cls-1" d="M106.1,91.89c.1,2.22.83,4.65,2.81,6.31,1.65,1.39,4.01,1.61,6.72,1.69,2.06.05,4.42.31,6.97-.82,2.73-1.21,4.74-2.89,5.97-4.75,1.52-2.28,2.23-4.99,2.04-7.4-.21-2.76-1.36-5.6-2.95-7.2-2.01-2.03-4.87-2.26-7.4-2.36s-5.03.65-7.15,2.19-4.54,2.77-5.83,4.9c-1.21,2-1.32,4.52-1.19,7.45Z"/>
  </g>
  <circle class="cls-2" cx="94.34" cy="92.22" r="3.85"/>
  <circle class="cls-2" cx="113.44" cy="90.71" r="3.85"/>
  <g>
    <path class="cls-1" d="M41.74,88.71c1.23-.1.89-.49,2.42-.52.71-.01,1.53-.03,2.46-.01.76.02,1.58.15,2.45.2.79.05,1.65-.4,2.5-.31.8.08,1.54.78,2.37.9s1.69-.16,2.5,0,1.63.29,2.42.51,1.34,1.17,2.1,1.45,1.82-.08,2.54.29,1.06,1.4,1.72,1.86"/>
    <path class="cls-1" d="M41.77,103.43c1.17-.42.77-.56,2.27-.98.68-.19,1.32-1.11,2.24-1.32.74-.17,1.63-.1,2.5-.27.77-.15,1.69.29,2.55.16.79-.12,1.6-.3,2.45-.39.8-.08,1.61-.42,2.45-.47s1.65-.33,2.49-.33,1.65.43,2.48.48,1.63.26,2.46.37,1.71-.15,2.52.02"/>
  </g>
  <g>
    <path class="cls-1" d="M134.47,92.15c1.11-.52,1.18.4,2.6-.19.64-.27,1.29-.87,2.16-1.2.7-.27,1.33-.97,2.15-1.26.73-.26,1.77.25,2.59,0,.76-.24,1.52-.5,2.33-.73s1.47-.74,2.28-.94,1.6-.32,2.41-.49,1.54-.71,2.35-.84,1.7.3,2.51.2,1.58-.89,2.4-.94"/>
    <path class="cls-1" d="M135.01,100.03c1.3.07,1.03-.51,2.65-.36.74.07,1.64.08,2.62.2.8.1,1.69.2,2.61.34.83.12,1.52,1.3,2.42,1.46.84.15,1.73.06,2.6.25s1.84-.24,2.7-.02,1.56.94,2.4,1.18,1.68.5,2.49.78,1.46,1.04,2.25,1.38"/>
  </g>
  <path d="M107.32,166.78s8.64,2.87,16.73-.47l.23-1.83s-5.22-1.3-8.17-2.28-8.35,1.13-8.35,1.13l-.44,3.45Z"/>
  <path d="M76.48,170.98s2.71,2.34,8.19,1.1,10.48-1.88,10.48-1.88l.22-1.92s-7.19.11-10.26-1.18-7.67-1.29-7.67-1.29l-.95,5.17Z"/>
</svg>