<?xml version="1.0" encoding="UTF-8"?>
<svg id="_레이어_1" xmlns="http://www.w3.org/2000/svg" version="1.1" viewBox="0 0 200 200">
  <!-- Generator: Adobe Illustrator 30.2.1, SVG Export Plug-In . SVG Version: 2.1.1 Build 1)  -->
  <defs>
    <style>
      .st0 {
        fill: none;
        stroke-linecap: round;
        stroke-linejoin: round;
        stroke-width: 2.4px;
      }

      .st0, .st1 {
        stroke: #000;
      }

      .st2 {
        fill: #ffaf42;
      }

      .st1 {
        stroke-miterlimit: 10;
        stroke-width: 1.2px;
      }

      .st3 {
        fill: #fff;
      }

      .st4 {
        fill: #cec5b3;
      }

      .st5 {
        fill: #8a8070;
      }
    </style>
  </defs>
  <polygon class="st5" points="133.39 133.7 134.65 138.94 138.25 141.9 138.25 135.17 136.61 133.7 133.39 133.7"/>
  <path class="st2" d="M80.89,130.23c-1.69-.14-1.11,1.02-2.63,2.31-.76.65-1.42,1.61-2.27,2.49-.76.79-1.36,1.71-2.03,2.64s-1.22,1.81-1.66,2.82c-.48,1.1-1.29,2.01-1.58,3.06-.33,1.19-1.02,2.29-1.08,3.36-.06,1.26.62,2.39,1.01,3.38.42,1.08,1.11,1.87,2.17,2.49.96.56,1.9,1.34,2.94,1.34s2.19-.37,3.18-.85c.9-.44,1.8-1.17,2.57-1.97.69-.72,1.54-2.03,2.05-3.01-.93-1.26-1.34-1.15-2.69-1.95-1.53-.9.91,1.3,2.71,2.36.9.53,1.78,1.55,2.97,2.03,1.05.43,2.24.99,3.43,1.21s2.4-.68,3.6-.78,2.56.59,3.69.1c1.01-.44,1.48-1.94,2.44-2.78,1.06-.93,2.63-1.31,3.28-2.32.78-1.21.52-2.83.87-3.92.71-2.17,2.31-2.15.8-3.39-1.4-1.15-1.31-1.34-3.02-1.92s-1.86-.14-3.58-.72-1.59-.95-3.31-1.53-1.69-.64-3.41-1.22-1.84-.22-3.56-.8-1.91-.12-3.56-.89-1.53-1.37-3.34-1.52v-.02Z"/>
  <path class="st0" d="M80.95,146.36c1.35,1.15,1.04.9,2.83,1.96.9.53,1.86,1.17,3.05,1.65,1.05.43,2.14.63,3.34.86s2.22.76,3.42.65,2.14-.64,3.27-1.13c1.01-.44,1.99-.9,2.96-1.75,1.06-.93,2.5-1.46,3.15-2.47.78-1.21.86-2.72,1.21-3.81.71-2.17.9-1.86.92-3.81"/>
  <path class="st0" d="M80.78,130.26c-1.41.94-1,.99-2.52,2.28-.76.65-1.42,1.61-2.27,2.49-.76.79-1.36,1.71-2.03,2.64s-1.22,1.81-1.66,2.82c-.48,1.1-1.29,2.01-1.58,3.06-.33,1.19-1.02,2.29-1.08,3.36-.06,1.26.62,2.39,1.01,3.38.42,1.08,1.11,1.87,2.17,2.49.96.56,1.9,1.34,2.94,1.34s2.19-.37,3.18-.85c.9-.44,1.8-1.17,2.57-1.97.69-.72,1.57-1.52,2.09-2.5"/>
  <path class="st0" d="M88.64,141.34c.77,1.54.55,1.46,1.73,3.04.62.83,1.63,1.59,2.52,2.42.83.77,1.7,1.71,2.73,2.22s2.3.38,3.48.4"/>
  <path d="M91.56,134.01l-2.68,7.21s4.13,8.22,10.22,8.29c.3-.22.6-.45.9-.71,4.86-4.26,4.92-10.28,4.92-10.28l-13.36-4.51Z"/>
  <g>
    <path class="st2" d="M65.82,109.73c-1.64-.51-1.26-.4-3.27-1.16-.92-.35-1.96-.9-3.16-1.4-.98-.42-2.1-.77-3.21-1.29-.99-.47-1.83-1.39-2.89-1.94-.99-.51-2.16-.8-3.18-1.39s-1.91-1.28-2.89-1.91-1.46-1.9-2.4-2.58-2.17-.96-3.09-1.72-1.64-1.67-2.49-2.48-2.08-1.3-2.84-2.17c-.8-.92-1.32-2.04-1.94-2.98-.68-1.04-1.36-2.06-1.73-3.09-.44-1.18-.96-2.45-.87-3.55s1.21-2.02,2-3.01c.88-1.1,1.58-2.14,2.58-2.58,1.14-.5,2.33.09,3.59.26,1.13.16,2.26.23,3.45.79,1.04.5,2.27.81,3.34,1.53.98.66,2.07,1.29,3.06,2.07s1.8,1.67,2.74,2.47,1.95,1.62,2.97,2.44,2.24,1.26,3.28,2.02,1.61,2.2,2.69,2.88,2.57.7,3.7,1.27,2.26,1.2,3.45,1.61c1.24.43,2.35,1.36,3.59,1.54s2.62-.14,3.88-.29"/>
    <path class="st0" d="M65.82,109.73c-1.64-.51-1.26-.4-3.27-1.16-.92-.35-1.96-.9-3.16-1.4-.98-.42-2.1-.77-3.21-1.29-.99-.47-1.83-1.39-2.89-1.94-.99-.51-2.16-.8-3.18-1.39s-1.91-1.28-2.89-1.91-1.46-1.9-2.4-2.58-2.17-.96-3.09-1.72-1.64-1.67-2.49-2.48-2.08-1.3-2.84-2.17c-.8-.92-1.32-2.04-1.94-2.98-.68-1.04-1.36-2.06-1.73-3.09-.44-1.18-.96-2.45-.87-3.55s1.21-2.02,2-3.01c.88-1.1,1.58-2.14,2.58-2.58,1.14-.5,2.33.09,3.59.26,1.13.16,2.26.23,3.45.79,1.04.5,2.27.81,3.34,1.53.98.66,2.07,1.29,3.06,2.07s1.8,1.67,2.74,2.47,1.95,1.62,2.97,2.44,2.24,1.26,3.28,2.02,1.61,2.2,2.69,2.88,2.57.7,3.7,1.27,2.26,1.2,3.45,1.61c1.24.43,2.35,1.36,3.59,1.54s2.62-.14,3.88-.29"/>
  </g>
  <path class="st0" d="M123.84,118.28c.71,1.69.82,1.26,2,3.1.58.91,1.5,1.75,2.37,2.77.76.89,1.68,1.61,2.65,2.43.92.77,1.84,1.41,2.95,1.99"/>
  <g>
    <path class="st2" d="M116.28,136.48c.77,1.57.61,1.24,1.55,3.13.45.91.88,2.03,1.46,3.18.5.99,1.15,1.99,1.69,3.07s.64,2.3,1.17,3.34,1.35,1.98,1.87,2.98c.58,1.12,1.01,2.23,1.5,3.16.71,1.33.62,2.79,1.01,3.45.5.84,1.43,1.6,1.94,2.68.46.98.79,2.1,1.36,3.04s1.67,1.48,2.5,2.15,1.6,1.32,2.79,1.42c.94.08,1.94-.17,3.17-.61,1.13-.4,2.14-1.14,3.29-1.68s2.57-.42,3.64-1.05,1.91-1.68,2.86-2.42c1.03-.8,2.48-1.14,3.25-2.02.89-1,1.4-2.33,1.81-3.4.46-1.2.24-2.49-.11-3.71-.46-1.6-1.48-2.28-2.73-2.73s-2.68-.59-4.05-.41c-2.2.29-2.43,2.24-4.14,1.03-1.56-1.1-1.31-1.53-2.23-3.2s-.16-2.09-1.08-3.77-1.56-1.33-2.48-3.01-.82-1.73-1.74-3.41-.38-1.98-1.3-3.66-1.24-1.51-2.16-3.19"/>
    <path class="st0" d="M116.28,136.48c.77,1.57.61,1.24,1.55,3.13.45.91.88,2.03,1.46,3.18.5.99,1.15,1.99,1.69,3.07s.64,2.3,1.17,3.34,1.35,1.98,1.87,2.98c.58,1.12,1.01,2.23,1.5,3.16.71,1.33.62,2.79,1.01,3.45.5.84,1.43,1.6,1.94,2.68.46.98.79,2.1,1.36,3.04s1.67,1.48,2.5,2.15,1.6,1.32,2.79,1.42c.94.08,1.94-.17,3.17-.61,1.13-.4,2.14-1.14,3.29-1.68s2.57-.42,3.64-1.05,1.91-1.68,2.86-2.42c1.03-.8,2.48-1.14,3.25-2.02.89-1,1.4-2.33,1.81-3.4.46-1.2.24-2.49-.11-3.71-.46-1.6-1.48-2.28-2.73-2.73s-2.68-.59-4.05-.41c-2.2.29-2.43,2.24-4.14,1.03-1.56-1.1-1.31-1.53-2.23-3.2s-.16-2.09-1.08-3.77-1.56-1.33-2.48-3.01-.82-1.73-1.74-3.41-.38-1.98-1.3-3.66-1.24-1.51-2.16-3.19"/>
  </g>
  <g>
    <path class="st4" d="M32.96,138.69c.76-.11,1.56-.17,2.39-.17,6.69-.02,6.8,8.71,6.8,8.71,0,0,4.53-5.1,8.5-1.13s-2.49,9.41-2.49,9.41c0,0,2.95-.68,5.1,2.5,2.16,3.17,1.02,5.1,5.11,5.78,4.08.68,6.91,1.47,6.91,3.4s-5.23-.11-11,0c-5.78.11-24.12,1.23-30.81-1.04s-11.14-6.44-5.25-15.06l.38-.2c-1.3-1.15-2.71-3.23-3.12-6.91-.83-7.36,3.77-11.76,9.46-11.45,5.69.32,7.99,5.99,7.99,5.99l.03.17h0Z"/>
    <path class="st0" d="M32.42,158.97c-1.6-.47-1.47-.16-3.09-1.2-.83-.54-1.94-1.08-2.75-1.99-.69-.78-1.52-1.75-1.97-2.84-.39-.95-.69-2.19-.77-3.4-.08-1.3.46-2.53.68-3.6.27-1.25,1.15-2.08,1.78-3.02.68-.99,1.12-2.15,2.14-2.78.97-.6,2.1-1.09,3.32-1.38,1.1-.26,2.32.14,3.58.14,1.63,0,2.68.35,3.63,1.13,1.09.91,1.75,2.03,2.19,3.25.74,2.06-.96,3.11.7,4.33,1.3.96,1.56-1.11,3.08-1.9.91-.47,1.77-1.35,2.91-1.21.93.12,1.6.93,2.53,1.86,1.04,1.04,1.07,1.87.98,2.99-.1,1.2.25,2.66-.43,3.65-1.08,1.6-3.4.68-3.36,2.51.04,1.5,2.15-.73,3.7.07.73.37.86,1.7,1.55,2.72,1.03,1.52,2.07,2.3,2.53,3.25.5,1.03.96,1.47,3.08,1.83,1.55.26,2.71,1.38,3.81,1.73,1.8.57,3.02.88,3.02,2.07,0,.97-1.27.53-3.32.27-1.09-.14-2.39-.41-3.8-.56-1.21-.13-2.55.16-3.87.19-.88.02-2.04.35-3.42.4-1.04.04-2.2.05-3.43.08-1.09.03-2.25-.14-3.44-.11-1.12.02-2.27-.07-3.43-.06s-2.29.06-3.44.05-2.32.04-3.44,0c-1.18-.04-2.32-.27-3.42-.35-1.22-.1-2.41.14-3.46-.02-1.29-.2-2.41-.59-3.33-.9-1.09-.37-2.36-.32-3.3-.8-1.04-.54-1.67-1.7-2.43-2.4-.84-.78-1.05-1.8-1.42-2.83-.35-.96-1.05-1.88-.87-3.1.14-.96.57-1.99,1.1-3.13.42-.89,1.21-1.68,1.9-2.69"/>
    <path class="st0" d="M21.14,152.11c-1.74-.34-1.61-.06-3.08-1.61-.67-.71-1.6-1.61-2.11-2.94-.37-.95-.83-2.16-.98-3.52-.14-1.23-.12-2.5.03-3.55.17-1.21.96-2.26,1.44-3.23.53-1.07,1.58-1.61,2.42-2.34s1.56-1.74,2.66-2.09,2.24-.51,3.43-.45c1.29.07,2.22.91,3.17,1.4,1.13.59,2,1.22,2.7,2.01,1.31,1.47,1.24,1.19,1.9,2.81"/>
  </g>
  <g>
    <path class="st3" d="M131.75,45.65c.84-2.99.74-2.76,2.09-5.87.81-1.85,2.26-3.53,3.45-5.14,1.43-1.94,2.79-3.29,4.65-3.29,2.38,0,4.24.85,5.99,2.57,1.46,1.43,2.46,3.41,3.59,5.73.93,1.91,1.73,4.01,2.5,6.36.69,2.11,1.74,3.97,2.03,5.88.36,2.3,0,4.42,0,6.22,0,3.77-.03,3.02-.71,6.06"/>
    <path class="st0" d="M131.75,45.65c.84-2.99.74-2.76,2.09-5.87.81-1.85,2.26-3.53,3.45-5.14,1.43-1.94,2.79-3.29,4.65-3.29,2.38,0,4.24.85,5.99,2.57,1.46,1.43,2.46,3.41,3.59,5.73.93,1.91,1.73,4.01,2.5,6.36.69,2.11,1.74,3.97,2.03,5.88.36,2.3,0,4.42,0,6.22,0,3.77-.03,3.02-.71,6.06"/>
  </g>
  <g>
    <path class="st3" d="M81.26,63.54c.82-1.65.15-1.49,1.28-3.48.52-.91,1.77-1.58,2.56-2.72.65-.93,1.12-2.08,1.97-3.09.75-.9,1.31-2.04,2.22-2.95.84-.84,1.66-1.79,2.64-2.6.92-.76,2.01-1.38,3.06-2.09.99-.66,2.04-1.33,3.16-1.92,1.06-.56,2.03-1.45,3.2-1.93,1.11-.45,2.56-.04,3.77-.39,1.15-.33,2.17-1.32,3.42-1.56,1.17-.22,2.43-.28,3.7-.39,1.19-.11,2.44.45,3.71.45,1.19,0,2.42-.33,3.68-.24,1.19.09,2.35.68,3.6.86s2.33.43,3.45.63c1.19.21,2.45-.13,3.55.12,1.19.26,2.38.33,3.47.62,1.17.32,2.09,1.31,3.16,1.68,1.15.39,2.5.13,3.54.58,1.12.48,1.92,1.52,2.91,2.06,1.06.58,2.46.57,3.39,1.23.98.7,1.91,1.5,2.75,2.28s.92,2.34,1.65,3.25,2.16,1.33,2.76,2.34.92,2.18,1.39,3.27,1.24,2.04,1.6,3.18.58,2.28.85,3.45c.26,1.11.39,2.3.59,3.49.19,1.12.37,2.3.52,3.49.14,1.13-.23,2.35-.12,3.55s.09,2.31.17,3.51-.05,2.32,0,3.52.93,2.28.97,3.48-.52,2.41-.47,3.53c.05,1.22.36,2.38.42,3.49.07,1.23.56,2.37.64,3.47.09,1.24.07,2.4.16,3.5.11,1.25-.26,2.45-.14,3.54.14,1.26.67,2.36.83,3.43.19,1.27.15,2.45.37,3.49.26,1.27.57,2.38.86,3.4.35,1.23.92,2.23,1.31,3.24.43,1.12,1,2.09,1.47,3.16.44,1.01.05,2.4.52,3.57s1.62,2.01,1.88,3.04c.31,1.24-.11,2.47-.09,3.52.03,1.27.52,2.54.16,3.55-.4,1.11-1.44,1.91-2.26,2.75-.76.78-1.88,1.1-2.97,1.68-.94.5-1.77,1.22-2.83,1.42s-2.16-.11-3.2-.12c-1.16,0-2.19-.26-3.14-.39-1.86-.26-1.59-.07-3.18.16-1.77.25-1.44.56-3.28,1.28-1.07.42-2.31.75-3.45.98-1.39.28-2.69.33-3.51-.19-1.34-.86-1.33-2.37-1.37-3.93s-.08-3.1-.97-4.24c-.56-.72-1.73-1.12-3.18-1-.96.08-2.13.29-3.33.64-1.01.3-1.95,1.05-3.04,1.49-1.01.41-2.05.85-3.07,1.34s-2.1.84-3.07,1.37c-1.15.63-2.39,1.04-3.53,1.61s-2.12,1.66-3.3,2.14-2.5.88-3.72,1.22-2.63.16-3.89.29-2.51-.04-3.79-.22c-1.1-.15-2.42.27-3.76.09-1.17-.15-2.37-.61-3.63-.81s-2.39-.59-3.6-.85-2.67.3-3.83-.06c-1.22-.38-2.22-1.37-3.29-1.88-1.17-.57-1.96-1.53-2.84-2.3-1.05-.91-2.09-1.46-2.74-2.24-.87-1.04-1.55-1.93-2.24-2.75s-1.21-2.12-2.42-2.76c-.86-.46-2.15-.52-3.55-.88-1.03-.27-2.17-.75-3.42-.98-1.11-.2-2.25-.57-3.44-.79s-2.42.11-3.56-.17-2.12-1.1-3.19-1.51c-1.14-.43-2.13-.87-3.07-1.5-1-.66-2.1-1.09-2.78-2.04s-1.54-1.87-1.8-3.11,0-2.53.32-3.59,1.23-1.91,2-2.87c.69-.85,1.24-1.96,2.18-2.77.85-.73,1.86-1.36,2.83-2.09.91-.69,1.87-1.37,2.81-2.1s1.96-1.29,2.85-2.07c.89-.78,1.31-1.98,2.09-2.86s1.51-1.7,2.15-2.7,1.12-2.09,1.67-3.25c.51-1.08.98-2.19,1.44-3.38s.87-2.27,1.27-3.46,1.24-2.18,1.61-3.37.97-2.29,1.32-3.48.74-2.38,1.09-3.55.56-2.44.92-3.59c.38-1.22.61-2.44,1.02-3.57.44-1.22.44-2.57.92-3.64.54-1.21,1.71-2.03,2.32-2.99l-.06-.02Z"/>
    <path class="st0" d="M81.26,63.54c.82-1.65.15-1.49,1.28-3.48.52-.91,1.77-1.58,2.56-2.72.65-.93,1.12-2.08,1.97-3.09.75-.9,1.31-2.04,2.22-2.95.84-.84,1.66-1.79,2.64-2.6.92-.76,2.01-1.38,3.06-2.09.99-.66,2.04-1.33,3.16-1.92,1.06-.56,2.03-1.45,3.2-1.93,1.11-.45,2.56-.04,3.77-.39,1.15-.33,2.17-1.32,3.42-1.56,1.17-.22,2.43-.28,3.7-.39,1.19-.11,2.44.45,3.71.45,1.19,0,2.42-.33,3.68-.24,1.19.09,2.35.68,3.6.86s2.33.43,3.45.63c1.19.21,2.45-.13,3.55.12,1.19.26,2.38.33,3.47.62,1.17.32,2.09,1.31,3.16,1.68,1.15.39,2.5.13,3.54.58,1.12.48,1.92,1.52,2.91,2.06,1.06.58,2.46.57,3.39,1.23.98.7,1.91,1.5,2.75,2.28s.92,2.34,1.65,3.25,2.16,1.33,2.76,2.34.92,2.18,1.39,3.27,1.24,2.04,1.6,3.18.58,2.28.85,3.45c.26,1.11.39,2.3.59,3.49.19,1.12.37,2.3.52,3.49.14,1.13-.23,2.35-.12,3.55s.09,2.31.17,3.51-.05,2.32,0,3.52.93,2.28.97,3.48-.52,2.41-.47,3.53c.05,1.22.36,2.38.42,3.49.07,1.23.56,2.37.64,3.47.09,1.24.07,2.4.16,3.5.11,1.25-.26,2.45-.14,3.54.14,1.26.67,2.36.83,3.43.19,1.27.15,2.45.37,3.49.26,1.27.57,2.38.86,3.4.35,1.23.92,2.23,1.31,3.24.43,1.12,1,2.09,1.47,3.16.44,1.01.05,2.4.52,3.57s1.62,2.01,1.88,3.04c.31,1.24-.11,2.47-.09,3.52.03,1.27.52,2.54.16,3.55-.4,1.11-1.44,1.91-2.26,2.75-.76.78-1.88,1.1-2.97,1.68-.94.5-1.77,1.22-2.83,1.42s-2.16-.11-3.2-.12c-1.16,0-2.19-.26-3.14-.39-1.86-.26-1.59-.07-3.18.16-1.77.25-1.44.56-3.28,1.28-1.07.42-2.31.75-3.45.98-1.39.28-2.69.33-3.51-.19-1.34-.86-1.33-2.37-1.37-3.93s-.08-3.1-.97-4.24c-.56-.72-1.73-1.12-3.18-1-.96.08-2.13.29-3.33.64-1.01.3-1.95,1.05-3.04,1.49-1.01.41-2.05.85-3.07,1.34s-2.1.84-3.07,1.37c-1.15.63-2.39,1.04-3.53,1.61s-2.12,1.66-3.3,2.14-2.5.88-3.72,1.22-2.63.16-3.89.29-2.51-.04-3.79-.22c-1.1-.15-2.42.27-3.76.09-1.17-.15-2.37-.61-3.63-.81s-2.39-.59-3.6-.85-2.67.3-3.83-.06c-1.22-.38-2.22-1.37-3.29-1.88-1.17-.57-1.96-1.53-2.84-2.3-1.05-.91-2.09-1.46-2.74-2.24-.87-1.04-1.55-1.93-2.24-2.75s-1.21-2.12-2.42-2.76c-.86-.46-2.15-.52-3.55-.88-1.03-.27-2.17-.75-3.42-.98-1.11-.2-2.25-.57-3.44-.79s-2.42.11-3.56-.17-2.12-1.1-3.19-1.51c-1.14-.43-2.13-.87-3.07-1.5-1-.66-2.1-1.09-2.78-2.04s-1.54-1.87-1.8-3.11,0-2.53.32-3.59,1.23-1.91,2-2.87c.69-.85,1.24-1.96,2.18-2.77.85-.73,1.86-1.36,2.83-2.09.91-.69,1.87-1.37,2.81-2.1s1.96-1.29,2.85-2.07c.89-.78,1.31-1.98,2.09-2.86s1.51-1.7,2.15-2.7,1.12-2.09,1.67-3.25c.51-1.08.98-2.19,1.44-3.38s.87-2.27,1.27-3.46,1.24-2.18,1.61-3.37.97-2.29,1.32-3.48.74-2.38,1.09-3.55.56-2.44.92-3.59c.38-1.22.61-2.44,1.02-3.57.44-1.22.44-2.57.92-3.64.54-1.21,1.71-2.03,2.32-2.99l-.06-.02Z"/>
  </g>
  <g>
    <path class="st3" d="M86.08,58.68c-1.44-4.13-.39-3.46-1.09-8.68-.34-2.51-1.09-5.4-1.04-8.66s.67-5.68,1.67-7.38c1.26-2.17,3.26-3.53,6.56-3.21,2.02.2,4.47,1.12,7.42,2.23,3.38,1.27,6.04,2.64,7.97,4.06,4.69,3.45,4.76,2.48,6.05,6.75"/>
    <path class="st0" d="M86.08,58.68c-1.44-4.13-.39-3.46-1.09-8.68-.34-2.51-1.09-5.4-1.04-8.66s.67-5.68,1.67-7.38c1.26-2.17,3.26-3.53,6.56-3.21,2.02.2,4.47,1.12,7.42,2.23,3.38,1.27,6.04,2.64,7.97,4.06,4.69,3.45,4.76,2.48,6.05,6.75"/>
  </g>
  <path class="st0" d="M64.51,65.96c1.37.53,1.2.03,2.87.74.78.33,1.4,1.38,2.41,1.83.83.37,1.85.5,2.79.95.85.4,1.89.52,2.79.97s1.81.76,2.68,1.23,1.65,1.09,2.49,1.58,1.72,1.01,2.52,1.54c.85.56,1.9.82,2.65,1.39"/>
  <path class="st0" d="M60.61,79.89c1.48.26,1.12.16,2.96.52.84.16,1.73.89,2.84,1.12.91.19,1.91.3,2.95.53.94.21,1.93.37,2.94.61.95.22,1.86.7,2.86.95s1.92.51,2.9.77,2.09-.06,3.05.22,1.79,1.04,2.73,1.34"/>
  <path class="st0" d="M154.89,80.96c1.31-.77,1.05-.61,2.71-1.45.78-.4,1.92-.45,2.95-.93.87-.4,2-.35,2.99-.76.91-.37,1.67-1.25,2.65-1.59s1.93-.68,2.91-.95,2.1.01,3.08-.17,1.99-.41,2.97-.47"/>
  <path class="st0" d="M152.14,91.65c1.43-.21,1.09-.21,2.85-.44.83-.11,1.83.03,2.9-.1.9-.1,1.86-.19,2.87-.29.93-.1,1.84-.79,2.82-.88s1.96.33,2.92.26,1.95.06,2.89.02c1.01-.04,1.96-1.06,2.87-1.05,1.06,0,1.99,1.04,2.83,1.12"/>
  <path class="st0" d="M95.9,95.47c1.5.87,1.32.78,2.91,2,.83.64,1.71,1.54,2.58,2.41.81.81,1.75,1.7,2.38,2.66.65,1.01.77,2.36.97,3.45.22,1.25.61,2.34.57,3.24-.06,1.33-.57,2.45-1.08,3.18-.64.9-1.93.79-2.99,1.14-1.31.44-2.18-.17-3.12-1.53-.85-1.23-1.51-2.8-2.36-3.46-1.79-1.39-2.46-1-5.04-1.64"/>
  <path class="st0" d="M146.39,98.62c1.55.89,1.42.52,2.92,2.02.74.74,1.76,1.53,2.48,2.63.61.93,1.35,2.01,1.79,3.21.49,1.33.81,2.63.95,3.69.19,1.48-.39,2.78-.8,3.73-.51,1.19-1.62,1.53-2.87,1.93-1.55.49-2.44-.16-3.26-1.56-.75-1.28-1.41-2.72-2.38-3.43-.78-.57-1.58-1.54-2.56-1.92"/>
  <g>
    <path class="st2" d="M99.74,65.74c-1.53,2.12-2.28,4.24-2.14,6.33.16,2.32,1.37,4.42,2.59,6.23,1.59,2.35,3.48,4.22,4.8,4.72,1.08.4,3.04.97,5.26,1.24,1.7.21,3.57.17,5.36-.34,1.64-.46,3.1-1.41,4.41-2.91,1.02-1.17,1.92-2.65,2.52-4.69.51-1.72.15-3.5-.63-5.33-.68-1.6-1.47-3.36-2.84-4.75-1.28-1.3-2.98-2.21-4.62-3.09s-3.4-1.65-5.2-1.85-3.65.16-5.38.95c-1.54.7-2.92,1.8-4.15,3.5h.02Z"/>
    <path class="st0" d="M99.74,65.74c-1.53,2.12-2.28,4.24-2.14,6.33.16,2.32,1.37,4.42,2.59,6.23,1.59,2.35,3.48,4.22,4.8,4.72,1.08.4,3.04.97,5.26,1.24,1.7.21,3.57.17,5.36-.34,1.64-.46,3.1-1.41,4.41-2.91,1.02-1.17,1.92-2.65,2.52-4.69.51-1.72.15-3.5-.63-5.33-.68-1.6-1.47-3.36-2.84-4.75-1.28-1.3-2.98-2.21-4.62-3.09s-3.4-1.65-5.2-1.85-3.65.16-5.38.95c-1.54.7-2.92,1.8-4.15,3.5h.02Z"/>
  </g>
  <g>
    <path class="st2" d="M126.91,76.85c-.24,1.68.28,3.52,1.19,5.18.8,1.48,1.92,2.99,3.58,3.96,1.4.82,3.2,1.1,5.19,1.26,1.59.13,3.39.25,5.34-.21,2.1-.49,3.92-1.24,5.3-2.25,1.67-1.22,2.73-2.9,3.48-4.54.83-1.8.96-3.73.88-5.56-.09-2.06-.29-4.11-1.25-5.55-1.04-1.56-2.48-2.76-3.97-3.53-1.58-.81-3.42-.86-5.17-.87s-3.58.11-5.16.85-3.1,1.58-4.4,2.59-2.56,2.29-3.43,3.8c-.78,1.35-1.32,3-1.59,4.87h0Z"/>
    <path class="st0" d="M126.91,76.85c-.24,1.68.28,3.52,1.19,5.18.8,1.48,1.92,2.99,3.58,3.96,1.4.82,3.2,1.1,5.19,1.26,1.59.13,3.39.25,5.34-.21,2.1-.49,3.92-1.24,5.3-2.25,1.67-1.22,2.73-2.9,3.48-4.54.83-1.8.96-3.73.88-5.56-.09-2.06-.29-4.11-1.25-5.55-1.04-1.56-2.48-2.76-3.97-3.53-1.58-.81-3.42-.86-5.17-.87s-3.58.11-5.16.85-3.1,1.58-4.4,2.59-2.56,2.29-3.43,3.8c-.78,1.35-1.32,3-1.59,4.87h0Z"/>
  </g>
  <circle class="st1" cx="115.75" cy="75.03" r="3.85"/>
  <circle class="st1" cx="134.79" cy="77.13" r="3.85"/>
</svg>