<?xml version="1.0" encoding="UTF-8"?>
<svg id="_레이어_1" xmlns="http://www.w3.org/2000/svg" version="1.1" viewBox="0 0 200 200">
  <!-- Generator: Adobe Illustrator 30.2.1, SVG Export Plug-In . SVG Version: 2.1.1 Build 1)  -->
  <defs>
    <style>
      .st0 {
        fill: none;
        stroke-linecap: round;
        stroke-linejoin: round;
        stroke-width: 2.4px;
      }

      .st0, .st1 {
        stroke: #000;
      }

      .st2 {
        fill: #ffaf42;
      }

      .st1 {
        stroke-miterlimit: 10;
        stroke-width: 1.2px;
      }

      .st3 {
        fill: #fff;
      }

      .st4 {
        fill: #cec5b3;
      }
    </style>
  </defs>
  <path class="st2" d="M81.08,141.69s-6.48,4.4-7.2,10.24,2.01,15.23,7.39,15.1c4.14-.1,7.46-1.75,8.43-6.68l-5.08-1.47s13.21,5.87,19.17-3.56c3.45-5.46,1.8-11.26,1.8-11.26l-24.51-2.39v.02Z"/>
  <path class="st0" d="M84.84,158.41c1.62.72,1.25.57,3.27,1.08,1.02.26,2.12.59,3.4.72,1.13.11,2.24,0,3.44-.13s2.34.09,3.47-.35,1.87-1.22,2.82-2.02c.84-.71,1.66-1.43,2.34-2.52.75-1.19,1.98-2.11,2.32-3.26.4-1.39.05-2.85.08-3.99.06-2.28.33-2.04-.2-3.91"/>
  <path class="st0" d="M80.99,141.55c-1.33.9-.95.97-2.3,2.26-.69.66-1.22,1.62-1.93,2.54-.63.83-1.04,1.74-1.5,2.73s-.74,1.84-.87,2.91-.6,2.33-.48,3.63c.11,1.21-.16,2.56.15,3.76s1.27,2.25,1.8,3.31c.6,1.19,1.32,2.16,2.17,2.91.96.86,2,1.85,3.27,1.82,1.4-.03,2.8-.36,3.95-.82,1.22-.48,2.36-1.38,3.17-2.49.68-.94,1.48-2.17,1.77-3.66"/>
  <path d="M100.31,158.58c-2.21-6.18-11.43-10.61-11.43-10.61l13.59-3.17,3.29,5.19s-.94,6.06-5.45,8.58h0Z"/>
  <g>
    <path class="st2" d="M126.01,131.22c-.33,1.72-.27,1.35-.66,3.44-.19,1-.53,2.15-.77,3.42-.2,1.09-.29,2.28-.51,3.47s-.88,2.22-1.08,3.36-.12,2.4-.31,3.5c-.22,1.24-.54,2.39-.71,3.43-.24,1.49-1.2,2.6-1.28,3.36-.11.97.17,2.14-.08,3.31-.23,1.06-.64,2.15-.75,3.24s.44,2.19.69,3.22.48,2.02,1.37,2.82c.7.63,1.65,1.03,2.89,1.43,1.04.33,2.23.34,3.42.63,1.1.26,2.09,1.25,3.26,1.44s2.37-.07,3.52.02,2.37.84,3.5.8c1.23-.05,2.43-.49,3.5-.74,1.23-.28,2.21-1.03,3.11-1.63,1-.66,1.57-1.53,2-2.65.49-1.27.59-2.27.22-3.27-.4-1.06-1.16-1.9-2.07-2.67s-2.11-1-3.08-1.48c-1.74-.85-2.2-.16-2.67-1.83-.5-1.79-.54-1.79-.37-3.64s.29-1.84.46-3.69.79-1.79.97-3.64-.19-1.88-.02-3.73.64-1.81.81-3.66.25-1.85.42-3.7"/>
    <path class="st0" d="M126.01,131.22c-.33,1.72-.27,1.35-.66,3.44-.19,1-.53,2.15-.77,3.42-.2,1.09-.29,2.28-.51,3.47s-.88,2.22-1.08,3.36-.12,2.4-.31,3.5c-.22,1.24-.54,2.39-.71,3.43-.24,1.49-1.2,2.6-1.28,3.36-.11.97.17,2.14-.08,3.31-.23,1.06-.64,2.15-.75,3.24s.44,2.19.69,3.22.48,2.02,1.37,2.82c.7.63,1.65,1.03,2.89,1.43,1.04.33,2.23.34,3.42.63,1.1.26,2.09,1.25,3.26,1.44s2.37-.07,3.52.02,2.37.84,3.5.8c1.23-.05,2.43-.49,3.5-.74,1.23-.28,2.21-1.03,3.11-1.63,1-.66,1.57-1.53,2-2.65.49-1.27.59-2.27.22-3.27-.4-1.06-1.16-1.9-2.07-2.67s-2.11-1-3.08-1.48c-1.74-.85-2.2-.16-2.67-1.83-.5-1.79-.54-1.79-.37-3.64s.29-1.84.46-3.69.79-1.79.97-3.64-.19-1.88-.02-3.73.64-1.81.81-3.66.25-1.85.42-3.7"/>
  </g>
  <g>
    <path class="st2" d="M67.13,118.52c-.56-.42-1.04-.44-1.74-.54-1.15-.17-2.28-.44-3.44-.58s-2.32-.14-3.48-.26-2.27-.69-3.43-.79c-1.07-.09-2.17.17-3.27.13s-2.19-.21-3.27-.29-2.05-.98-3.1-1.21c-1.16-.25-2.44.05-3.59-.16s-2.29-.62-3.44-.86-2.45,0-3.58-.35-2.14-1.03-3.23-1.55-2.26-1.08-3.23-1.86-2.17-1.65-2.71-2.72-.07-2.45.14-3.78c.22-1.39.32-2.64.98-3.52.74-.99,2.07-1.08,3.25-1.54,1.06-.42,2.08-.92,3.4-1.01,1.15-.08,2.38-.41,3.66-.31,1.18.09,2.44.1,3.68.29s2.39.56,3.6.8c1.46.29,2.93.52,4.4.75s2.66-.3,4.13-.34c1.09-.03,2.2.81,3.29.81s2.19-.72,3.28-.68,2.19.23,3.28.34c1.14.12,2.19.9,3.32,1.09s2.31.05,3.43.29,2.14.94,3.25,1.19"/>
    <path class="st0" d="M67.13,118.52c-.56-.42-1.04-.44-1.74-.54-1.15-.17-2.28-.44-3.44-.58s-2.32-.14-3.48-.26-2.27-.69-3.43-.79c-1.07-.09-2.17.17-3.27.13s-2.19-.21-3.27-.29-2.05-.98-3.1-1.21c-1.16-.25-2.44.05-3.59-.16s-2.29-.62-3.44-.86-2.45,0-3.58-.35-2.14-1.03-3.23-1.55-2.26-1.08-3.23-1.86-2.17-1.65-2.71-2.72-.07-2.45.14-3.78c.22-1.39.32-2.64.98-3.52.74-.99,2.07-1.08,3.25-1.54,1.06-.42,2.08-.92,3.4-1.01,1.15-.08,2.38-.41,3.66-.31,1.18.09,2.44.1,3.68.29s2.39.56,3.6.8c1.46.29,2.93.52,4.4.75s2.66-.3,4.13-.34c1.09-.03,2.2.81,3.29.81s2.19-.72,3.28-.68,2.19.23,3.28.34c1.14.12,2.19.9,3.32,1.09s2.31.05,3.43.29,2.14.94,3.25,1.19"/>
  </g>
  <g>
    <path class="st3" d="M133.44,52.71c.63-2.24.51-1.96,1.49-4.43.53-1.33,1.66-2.58,2.43-3.99s1.53-2.77,2.5-3.82c1.2-1.3,2.32-2.12,3.77-2.12,1.8,0,3.12.72,4.56,1.74,1.29.92,2.3,2.09,3.34,3.67.88,1.33,2.19,2.55,2.93,4.25.65,1.5.79,3.29,1.36,5.01.51,1.55.71,3.05.99,4.5.32,1.63,1.5,3.04,1.61,4.48.14,1.75-.86,3.34-.92,4.67-.12,2.87,1.02,2.47.51,4.75"/>
    <path class="st0" d="M133.44,52.71c.63-2.24.51-1.96,1.49-4.43.53-1.33,1.66-2.58,2.43-3.99s1.53-2.77,2.5-3.82c1.2-1.3,2.32-2.12,3.77-2.12,1.8,0,3.12.72,4.56,1.74,1.29.92,2.3,2.09,3.34,3.67.88,1.33,2.19,2.55,2.93,4.25.65,1.5.79,3.29,1.36,5.01.51,1.55.71,3.05.99,4.5.32,1.63,1.5,3.04,1.61,4.48.14,1.75-.86,3.34-.92,4.67-.12,2.87,1.02,2.47.51,4.75"/>
  </g>
  <g>
    <path class="st3" d="M82.95,70.6c.82-1.65.15-1.49,1.28-3.48.52-.91,1.77-1.58,2.56-2.72.65-.93,1.12-2.08,1.97-3.09.75-.9,1.31-2.04,2.22-2.95.84-.84,1.66-1.79,2.64-2.6.92-.76,2.01-1.38,3.06-2.09.99-.66,2.04-1.33,3.16-1.92,1.06-.56,2.03-1.45,3.2-1.93,1.11-.45,2.56-.04,3.77-.39,1.15-.33,2.17-1.32,3.42-1.56,1.17-.22,2.43-.28,3.7-.39,1.19-.11,2.44.45,3.71.45,1.19,0,2.42-.33,3.68-.24,1.19.09,2.35.68,3.6.86s2.33.43,3.45.63c1.19.21,2.45-.13,3.55.12,1.19.26,2.38.33,3.47.62,1.17.32,2.09,1.31,3.16,1.68,1.15.39,2.5.13,3.54.58,1.12.48,1.92,1.52,2.91,2.06,1.06.58,2.46.57,3.39,1.23.98.7,1.91,1.5,2.75,2.28s.92,2.34,1.65,3.25,2.16,1.33,2.76,2.34c.6,1.01.92,2.18,1.39,3.27s1.24,2.04,1.6,3.18.58,2.28.85,3.45c.26,1.11.39,2.3.59,3.49.19,1.12.37,2.3.52,3.49.14,1.13-.23,2.35-.12,3.55s.09,2.31.17,3.51-.05,2.32,0,3.52.93,2.28.97,3.48-.52,2.41-.47,3.53c.05,1.22.36,2.38.42,3.49.07,1.23.56,2.37.64,3.47.09,1.24.07,2.4.16,3.5.11,1.25-.26,2.45-.14,3.54.14,1.26.67,2.36.83,3.43.19,1.27.15,2.45.37,3.49.26,1.27.57,2.38.86,3.4.35,1.23.92,2.23,1.31,3.24.43,1.12,1,2.09,1.47,3.16.44,1.01.05,2.4.52,3.57s1.62,2.01,1.88,3.04c.31,1.24-.11,2.47-.09,3.52.03,1.27.52,2.54.16,3.55-.4,1.11-1.44,1.91-2.26,2.75-.76.78-1.88,1.1-2.97,1.68-.94.5-1.77,1.22-2.83,1.42s-2.16-.11-3.2-.12c-1.16,0-2.19-.26-3.14-.39-1.86-.26-1.59-.07-3.18.16-1.77.25-1.44.56-3.28,1.28-1.07.42-2.31.75-3.45.98-1.39.28-2.69.33-3.51-.19-1.34-.86-1.33-2.37-1.37-3.93s-.08-3.1-.97-4.24c-.56-.72-1.73-1.12-3.18-1-.96.08-2.13.29-3.33.64-1.01.3-1.95,1.05-3.04,1.49-1.01.41-2.05.85-3.07,1.34s-2.1.84-3.07,1.37c-1.15.63-2.39,1.04-3.53,1.61s-2.12,1.66-3.3,2.14-2.5.88-3.72,1.22-2.63.16-3.89.29-2.51-.04-3.79-.22c-1.1-.15-2.42.27-3.76.09-1.17-.15-2.37-.61-3.63-.81s-2.39-.59-3.6-.85-2.67.3-3.83-.06c-1.22-.38-2.22-1.37-3.29-1.88-1.17-.57-1.96-1.53-2.84-2.3-1.05-.91-2.09-1.46-2.74-2.24-.87-1.04-1.55-1.93-2.24-2.75s-1.21-2.12-2.42-2.76c-.86-.46-2.15-.52-3.55-.88-1.03-.27-2.17-.75-3.42-.98-1.11-.2-2.25-.57-3.44-.79s-2.42.11-3.56-.17-2.12-1.1-3.19-1.51c-1.14-.43-2.13-.87-3.07-1.5-1-.66-2.1-1.09-2.78-2.04s-1.54-1.87-1.8-3.11,0-2.53.32-3.59,1.23-1.91,2-2.87c.69-.85,1.24-1.96,2.18-2.77.85-.73,1.86-1.36,2.83-2.09.91-.69,1.87-1.37,2.81-2.1s1.96-1.29,2.85-2.07,1.31-1.98,2.09-2.86,1.51-1.7,2.15-2.7,1.12-2.09,1.67-3.25c.51-1.08.98-2.19,1.44-3.38s.87-2.27,1.27-3.46,1.24-2.18,1.61-3.37.97-2.29,1.32-3.48.74-2.38,1.09-3.55.56-2.44.92-3.59c.38-1.22.61-2.44,1.02-3.57.44-1.22.44-2.57.92-3.64.54-1.21,1.71-2.03,2.32-2.99l-.06-.02Z"/>
    <path class="st0" d="M82.95,70.6c.82-1.65.15-1.49,1.28-3.48.52-.91,1.77-1.58,2.56-2.72.65-.93,1.12-2.08,1.97-3.09.75-.9,1.31-2.04,2.22-2.95.84-.84,1.66-1.79,2.64-2.6.92-.76,2.01-1.38,3.06-2.09.99-.66,2.04-1.33,3.16-1.92,1.06-.56,2.03-1.45,3.2-1.93,1.11-.45,2.56-.04,3.77-.39,1.15-.33,2.17-1.32,3.42-1.56,1.17-.22,2.43-.28,3.7-.39,1.19-.11,2.44.45,3.71.45,1.19,0,2.42-.33,3.68-.24,1.19.09,2.35.68,3.6.86s2.33.43,3.45.63c1.19.21,2.45-.13,3.55.12,1.19.26,2.38.33,3.47.62,1.17.32,2.09,1.31,3.16,1.68,1.15.39,2.5.13,3.54.58,1.12.48,1.92,1.52,2.91,2.06,1.06.58,2.46.57,3.39,1.23.98.7,1.91,1.5,2.75,2.28s.92,2.34,1.65,3.25,2.16,1.33,2.76,2.34c.6,1.01.92,2.18,1.39,3.27s1.24,2.04,1.6,3.18.58,2.28.85,3.45c.26,1.11.39,2.3.59,3.49.19,1.12.37,2.3.52,3.49.14,1.13-.23,2.35-.12,3.55s.09,2.31.17,3.51-.05,2.32,0,3.52.93,2.28.97,3.48-.52,2.41-.47,3.53c.05,1.22.36,2.38.42,3.49.07,1.23.56,2.37.64,3.47.09,1.24.07,2.4.16,3.5.11,1.25-.26,2.45-.14,3.54.14,1.26.67,2.36.83,3.43.19,1.27.15,2.45.37,3.49.26,1.27.57,2.38.86,3.4.35,1.23.92,2.23,1.31,3.24.43,1.12,1,2.09,1.47,3.16.44,1.01.05,2.4.52,3.57s1.62,2.01,1.88,3.04c.31,1.24-.11,2.47-.09,3.52.03,1.27.52,2.54.16,3.55-.4,1.11-1.44,1.91-2.26,2.75-.76.78-1.88,1.1-2.97,1.68-.94.5-1.77,1.22-2.83,1.42s-2.16-.11-3.2-.12c-1.16,0-2.19-.26-3.14-.39-1.86-.26-1.59-.07-3.18.16-1.77.25-1.44.56-3.28,1.28-1.07.42-2.31.75-3.45.98-1.39.28-2.69.33-3.51-.19-1.34-.86-1.33-2.37-1.37-3.93s-.08-3.1-.97-4.24c-.56-.72-1.73-1.12-3.18-1-.96.08-2.13.29-3.33.64-1.01.3-1.95,1.05-3.04,1.49-1.01.41-2.05.85-3.07,1.34s-2.1.84-3.07,1.37c-1.15.63-2.39,1.04-3.53,1.61s-2.12,1.66-3.3,2.14-2.5.88-3.72,1.22-2.63.16-3.89.29-2.51-.04-3.79-.22c-1.1-.15-2.42.27-3.76.09-1.17-.15-2.37-.61-3.63-.81s-2.39-.59-3.6-.85-2.67.3-3.83-.06c-1.22-.38-2.22-1.37-3.29-1.88-1.17-.57-1.96-1.53-2.84-2.3-1.05-.91-2.09-1.46-2.74-2.24-.87-1.04-1.55-1.93-2.24-2.75s-1.21-2.12-2.42-2.76c-.86-.46-2.15-.52-3.55-.88-1.03-.27-2.17-.75-3.42-.98-1.11-.2-2.25-.57-3.44-.79s-2.42.11-3.56-.17-2.12-1.1-3.19-1.51c-1.14-.43-2.13-.87-3.07-1.5-1-.66-2.1-1.09-2.78-2.04s-1.54-1.87-1.8-3.11,0-2.53.32-3.59,1.23-1.91,2-2.87c.69-.85,1.24-1.96,2.18-2.77.85-.73,1.86-1.36,2.83-2.09.91-.69,1.87-1.37,2.81-2.1s1.96-1.29,2.85-2.07,1.31-1.98,2.09-2.86,1.51-1.7,2.15-2.7,1.12-2.09,1.67-3.25c.51-1.08.98-2.19,1.44-3.38s.87-2.27,1.27-3.46,1.24-2.18,1.61-3.37.97-2.29,1.32-3.48.74-2.38,1.09-3.55.56-2.44.92-3.59c.38-1.22.61-2.44,1.02-3.57.44-1.22.44-2.57.92-3.64.54-1.21,1.71-2.03,2.32-2.99l-.06-.02Z"/>
  </g>
  <g>
    <path class="st3" d="M88.14,66.88c-.87-2.01.08-1.76-.67-4.38-.35-1.2-1.22-2.48-1.56-4.09-.27-1.32-.33-2.79-.54-4.33-.18-1.37-.88-2.78-.97-4.31-.1-1.76.2-3.33.38-4.65.25-1.82.73-3.35,1.61-4.36.95-1.08,2.39-2.09,4.19-2.27,1.29-.13,2.82.72,4.6,1.04,1.34.24,2.92.2,4.58.69,1.56.46,2.69,1.63,3.94,2.17,1.53.66,2.92,1.05,4.04,1.76,1.48.94,2.84,1.59,3.72,2.45,2.04,2,2.01,1.46,2.8,3.54"/>
    <path class="st0" d="M88.14,66.88c-.87-2.01.08-1.76-.67-4.38-.35-1.2-1.22-2.48-1.56-4.09-.27-1.32-.33-2.79-.54-4.33-.18-1.37-.88-2.78-.97-4.31-.1-1.76.2-3.33.38-4.65.25-1.82.73-3.35,1.61-4.36.95-1.08,2.39-2.09,4.19-2.27,1.29-.13,2.82.72,4.6,1.04,1.34.24,2.92.2,4.58.69,1.56.46,2.69,1.63,3.94,2.17,1.53.66,2.92,1.05,4.04,1.76,1.48.94,2.84,1.59,3.72,2.45,2.04,2,2.01,1.46,2.8,3.54"/>
  </g>
  <path class="st0" d="M66.85,70.33c1.24.8,1.17.27,2.66,1.31.69.48,1.09,1.64,1.98,2.28.74.54,1.71.87,2.54,1.5.75.57,1.75.89,2.54,1.52s1.62,1.11,2.38,1.75,1.4,1.4,2.12,2.06,1.47,1.33,2.15,2.02c.71.72,1.7,1.19,2.31,1.9"/>
  <path class="st0" d="M60.2,83.18c1.24.49.94.33,2.48.98.7.29,1.32,1.13,2.25,1.53.75.33,1.61.59,2.48.98.78.34,1.61.66,2.46,1.04.79.36,1.48.96,2.31,1.35s1.58.77,2.39,1.17,1.86.24,2.66.65,1.36,1.25,2.14,1.67,1.48,1,2.25,1.43"/>
  <path class="st0" d="M155.63,89.15c1.26-1.25,1.02-1,2.65-2.41.78-.68,2.01-1.11,3.04-1.92.88-.69,2.13-1.01,3.14-1.72.95-.67,1.64-1.78,2.67-2.41s2.06-1.23,3.12-1.74,2.39-.48,3.48-.83"/>
  <path class="st0" d="M155.61,100.19c1.78-.74,1.39-.64,3.55-1.48,1.05-.41,2.36-.64,3.68-1.14,1.15-.43,2.37-.85,3.63-1.29s2.25-1.42,3.46-1.81c1.27-.41,2.66-.31,3.83-.63,1.39-.38,2.66-.49,3.74-.66"/>
  <path class="st0" d="M100.99,103.04c.8,1.54.7,1.36,1.38,3.25.36.98.62,2.21.89,3.41.25,1.12.57,2.38.58,3.52.01,1.2-.61,2.4-1.03,3.44-.48,1.18-.74,2.3-1.25,3.04-.77,1.09-1.79,1.76-2.62,2.1-1.02.42-2.05-.37-3.14-.64-.95-.24-1.5-.54-1.68-1.58-.15-.84.05-1.82.03-2.77-.01-1.04-.57-1.91-.83-2.61-.29-.8-.51-1.69-1-2.4-.82-1.18-.82-1.02-1.74-1.98"/>
  <path class="st0" d="M150.26,105.79c1.17,1.35,1.17.96,2.09,2.87.45.94,1.16,2.02,1.48,3.31.27,1.08.61,2.34.63,3.62.02,1.42-.1,2.75-.32,3.8-.31,1.46-1.29,2.49-1.99,3.26-.87.96-2.03.91-3.34.87-1.13-.03-1.83-.23-2.19-1.17-.31-.8-.49-1.82-.66-2.78-.18-1.02.08-2.25-.39-2.93-.55-.79-1.49-1.59-2.28-2.28"/>
  <g>
    <path class="st2" d="M101.43,72.8c-1.12,1.55-1.94,3.04-2.11,4.6-.19,1.74.4,3.41,1,4.97.63,1.65,1.38,3.25,2.41,4.48,1.37,1.64,2.94,2.75,3.99,3.14.9.34,2.4.82,4.17,1.13,1.33.24,2.8.25,4.29.11,1.4-.13,2.8-.4,4.1-1.12,1.17-.64,2.13-1.63,3.04-2.94.73-1.04,1.67-2.17,2.14-3.75.44-1.49.03-3.1-.51-4.69-.48-1.41-1.15-2.88-2.21-4.17-.98-1.2-2.26-2.18-3.58-3.12s-2.71-1.61-4.19-2.14-3.03-.84-4.59-.8-3.04.35-4.48,1.16c-1.27.71-2.43,1.69-3.47,3.13h0Z"/>
    <path class="st0" d="M101.43,72.8c-1.12,1.55-1.94,3.04-2.11,4.6-.19,1.74.4,3.41,1,4.97.63,1.65,1.38,3.25,2.41,4.48,1.37,1.64,2.94,2.75,3.99,3.14.9.34,2.4.82,4.17,1.13,1.33.24,2.8.25,4.29.11,1.4-.13,2.8-.4,4.1-1.12,1.17-.64,2.13-1.63,3.04-2.94.73-1.04,1.67-2.17,2.14-3.75.44-1.49.03-3.1-.51-4.69-.48-1.41-1.15-2.88-2.21-4.17-.98-1.2-2.26-2.18-3.58-3.12s-2.71-1.61-4.19-2.14-3.03-.84-4.59-.8-3.04.35-4.48,1.16c-1.27.71-2.43,1.69-3.47,3.13h0Z"/>
  </g>
  <g>
    <path class="st2" d="M128.6,83.92c-.24,1.68.28,3.52,1.19,5.18.8,1.48,1.92,2.99,3.58,3.96,1.4.82,3.2,1.1,5.19,1.26,1.59.13,3.39.25,5.34-.21,1.64-.38,3.13-.89,4.33-1.61,1.42-.84,2.43-2.06,3.29-3.21.95-1.28,1.38-2.74,1.72-4.18.37-1.53.85-3.08.65-4.54-.22-1.62-.81-3.19-1.6-4.36-1.04-1.56-2.63-2.45-4.12-3.22-1.58-.81-3.26-1.47-5-1.48s-3.58.39-5.16,1.13-3.11,1.56-4.42,2.58-2.44,2.37-3.31,3.88c-.78,1.35-1.42,2.94-1.69,4.81h.01Z"/>
    <path class="st0" d="M128.6,83.92c-.24,1.68.28,3.52,1.19,5.18.8,1.48,1.92,2.99,3.58,3.96,1.4.82,3.2,1.1,5.19,1.26,1.59.13,3.39.25,5.34-.21,1.64-.38,3.13-.89,4.33-1.61,1.42-.84,2.43-2.06,3.29-3.21.95-1.28,1.38-2.74,1.72-4.18.37-1.53.85-3.08.65-4.54-.22-1.62-.81-3.19-1.6-4.36-1.04-1.56-2.63-2.45-4.12-3.22-1.58-.81-3.26-1.47-5-1.48s-3.58.39-5.16,1.13-3.11,1.56-4.42,2.58-2.44,2.37-3.31,3.88c-.78,1.35-1.42,2.94-1.69,4.81h.01Z"/>
  </g>
  <circle class="st1" cx="117.44" cy="82.09" r="3.85"/>
  <circle class="st1" cx="136.48" cy="84.19" r="3.85"/>
  <path class="st0" d="M142.73,136.24c.29-1.38-.02-1.13-.34-2.82-.15-.78-.65-1.56-1.11-2.53-.36-.76-.93-1.4-1.58-2.22-.53-.68-1.11-1.3-1.88-1.98-.65-.58-1.09-1.48-1.94-2.05-.73-.48-1.31-1.4-2.21-1.86-.79-.41-1.89-.31-2.81-.69"/>
  <g>
    <path class="st4" d="M67.07,165.81c-3.11-2.07-7.62-3.21-10.78-2.38-3.28.86-4.81-2.47-3.58-3.74.8-.81,1.85-.41,2.49-.02.41.25.94.17,1.24-.21.59-.76,1.16-2.14-.34-3.89-2.31-2.7-7.71-.54-7.71-.54,0,0,1.16-2.31.77-5.78s-5.55-8.94-12.56-6.55c-1.87.64-3.16,1.5-4.07,2.42l.14-.88s-3.08-4.01-9.4-4.7-11.87,4.08-12.17,10.09c-.31,6.01,4.85,9.55,4.85,9.55-3.16.31-4.16,2.77-2.77,5.55,1.39,2.77,8.32,4.08,13.56,3.16s6.16,1.16,10.86,1.7,17.49-1.16,22.11-2.08c2.84-.57,5.18-.26,6.57.05.66.15,1.27-.39,1.19-1.06-.03-.28-.18-.54-.42-.7h.02Z"/>
    <path class="st0" d="M30.13,160.92c-1.59-.64-1.64-.22-3.1-1.36-.86-.67-2.12-1.32-2.66-2.36-.51-.96-.12-2.26.13-3.51.36-1.78,1.18-2.44,2.2-2.85,1.8-.71,1.84.28,3.66-.56,1.64-.76-.16-1.3.72-3.18.43-.92,1.04-2.05,2.19-2.92.82-.62,1.96-1.15,3.3-1.61s2.78-.77,4-.7c1.42.08,2.57.97,3.7,1.56,1.25.65,2.74,1.04,3.53,2,.98,1.18,1.69,2.69,1.82,3.78s-.74,2.11-.85,2.94c-.22,1.77-1.85,2.8-.4,3.1,2,.41,1.98-1.28,4.03-1.32,1.37-.03,2.97.42,3.9,1.5,1.5,1.75.7,3.24.12,3.99-.29.38-.94.78-1.35.53-.65-.39-1.25-.8-2.05,0-.71.73-.78,1.87.14,2.77.68.67,1.74.97,3.13.6,1.12-.29,2.5-.82,3.84-.67,1.21.14,2.32,1.23,3.52,1.67s2.77.31,3.77.98c.24.16.07.91.1,1.19l.27-.03c.08.67-.89,1.57-1.55,1.42-.8-.18-1.85-.17-3.21-.18-.99,0-2.07-.32-3.26-.08-.93.19-2.28-.14-3.74.08-1.13.17-2.27,1.07-3.57,1.24-1.2.16-2.43.44-3.68.58s-2.53.02-3.73.12c-1.31.11-2.57.56-3.71.6-1.47.05-2.82-.05-3.77-.16-1.5-.17-2.43-1.37-3.42-1.71-1.21-.41-2.31-.91-3.63-1.08-1-.13-2.28-.03-3.82.24-1.15.2-2.32.94-3.56.94s-2.39-.85-3.55-1.04c-1.29-.21-2.58-.04-3.6-.46-1.35-.56-2.34-1.35-2.79-2.24-.69-1.37-1.21-2.86-.76-3.86s2.18-1.47,3.78-1.63c.43-1.81-1.22-1.26-2.5-2.95-.66-.89-1.83-1.66-2.26-2.94-.36-1.09-.36-2.36-.29-3.71.06-1.2.76-2.16,1.21-3.23s.79-2.13,1.57-3.02,1.62-1.62,2.64-2.21c1.02-.59,2.07-.89,3.24-1.14s2.24-.63,3.45-.5c1.3.14,2.32.83,3.35,1.19,1.28.45,2.45.67,3.31,1.23,1.8,1.18,1.35,1.07,2.44,2.5"/>
  </g>
</svg>