<?xml version="1.0" encoding="UTF-8"?>
<svg id="_레이어_2" data-name="레이어 2" xmlns="http://www.w3.org/2000/svg" viewBox="0 0 200 200">
  <defs>
    <style>
      .cls-1 {
        stroke-width: 2.4px;
      }

      .cls-1, .cls-2 {
        fill: none;
        stroke: #000;
        stroke-linecap: round;
        stroke-linejoin: round;
      }

      .cls-2 {
        stroke-width: 2.4px;
      }

      .cls-3 {
        fill: #ffaf42;
      }

      .cls-4 {
        fill: #fdb2d2;
      }

      .cls-5 {
        fill: #fff;
      }

      .cls-6 {
        fill: #d6eb76;
      }
    </style>
  </defs>
  <g>
    <path class="cls-3" d="M102.69,135.39c-1.1.55-2.09,1.06-3.22,1.53s-2.25,1.06-3.39,1.45-2.45.5-3.6.82c-1.22.34-2.32,1.09-3.46,1.35-1.27.29-2.65-.27-3.77-.07-1.36.25-2.43,1.38-3.47,1.52-2.25.31-5.52.25-3.7.1,1.5-.12,1.49-.23,2.99-.35s1.47-.6,2.97-.71,1.57-.24,3.01.19c-.99.83-2.19,1.22-3.25,1.91s-2.16,1.34-3.28,1.89-2.22,1.35-3.38,1.77c-1.25.45-2.42,1.08-3.61,1.35-1.33.29-2.64.55-3.82.62-1.42.09-2.73-.31-3.83-.53-1.52-.3-3.11-.54-3.75-1.4-.84-1.11-.61-2.73-.99-3.95s-.58-2.25-.18-3.67c.31-1.09.44-2.43,1.39-3.68.7-.92,1.92-1.57,3.03-2.59,1.02-.94,1.81-2.06,2.84-2.78,1.16-.81,2.18-1.76,3.26-2.33,1.32-.69,2.61-1.21,3.68-1.61,2.28-.85,1.93-.76,3.91-.63s1.93.39,3.89.7,1.96.33,3.92.64,1.93.14,3.78.85c1.68.64,1.61.61,3.1,1.61s1.37,1.17,2.86,2.17,1.42,1.17,3,2.03,1.98.33,3.05,1.78Z"/>
    <path class="cls-3" d="M69.37,95.82c-1.23-1.31-1.89.26-4.04.56-1.04.15-2.31.06-3.61.28-1.13.19-2.21,1.07-3.42,1.33s-2.32.63-3.47.93-2.47.32-3.55.7c-1.23.43-2.41.86-3.35,1.38-1.26.7-1.97,1.74-2.43,2.61-.61,1.18-.66,2.37-.74,3.61s-.34,2.53.11,3.73,1.28,2.1,2.19,3.07c.82.88,1.75,1.69,2.95,2.32,1.05.56,2.32.56,3.65.87s2.52,1.1,3.79,1.11c1.38.01,2.61-.78,3.83-1,1.43-.25,2.75-.26,3.84-.64,2.22-.76,4.94.15,3.44-1.12-1.65-1.4-1.94-.65-3.97-1.38s-1.72-1.7-3.8-2.31c1.1.6,2.14,1.28,3.15,1.71,1.17.49,2.22.91,3.25,1.2,1.25.35,2.31.9,3.35,1.02,1.36.16,2.49-.37,3.47-.44,2.21-.17,3.76,1.48,3.65-.27s-.66-1.68-1.36-3.25-1.16-1.37-1.86-2.94-.26-1.78-.96-3.35-.76-1.55-1.47-3.12-1.13-1.4-1.51-3.09c-.42-1.85.08-2.27-1.11-3.53Z"/>
    <path class="cls-1" d="M79.02,124.95c-1.96.33-1.56.45-3.84,1.3-1.07.4-2.31.99-3.64,1.69-1.09.57-2.44,1.01-3.6,1.83-1.03.72-1.36,2.44-2.38,3.38-1.12,1.03-2.27,1.67-2.97,2.59-.95,1.25-2.24,2.15-2.55,3.23-.41,1.41.78,2.7,1.16,3.92s.52,2.54,1.35,3.65c.64.85,1.77,1.7,3.28,1.99,1.1.22,2.43-.31,3.85-.4,1.18-.07,2.49.12,3.81-.17,1.19-.26,2.59-.19,3.84-.63,1.17-.42,2.38-.98,3.56-1.56s2.07-1.54,3.16-2.24,2.02-1.54,3.01-2.37"/>
    <path class="cls-1" d="M78.05,141.72c1.83-.13,1.38-.12,3.63-.43,1.04-.14,2.38.33,3.74.08,1.12-.21,2.12-1.43,3.39-1.73,1.14-.26,2.57.35,3.79.01,1.15-.32,2.1-1.42,3.29-1.82s2.27-.83,3.42-1.3,2.37-.67,3.47-1.22"/>
    <path d="M68.63,101.16s2.52,11.34,3.74,13.52l4.39-.28-2.14-7.12-2.38-2.51-3.6-3.6Z"/>
    <polygon points="83.28 127.48 90.58 137.01 93.91 138.32 97.52 137.42 98.48 136.26 95.98 133 90.18 128.79 83.28 127.48"/>
    <g>
      <path class="cls-3" d="M70.61,76.37c-.81.1-1.57.94-2.38.97s-1.67-.07-2.48-.1-1.68.05-2.48-.03-1.47-1.28-2.27-1.42-1.79.58-2.58.38-1.66-.29-2.42-.54-1.43-.95-2.17-1.25-1.23-1.24-1.94-1.59c-.75-.37-2.02.25-2.7-.16s-1.04-1.39-1.75-1.67c-.75-.3-1.45-.85-2.19-1.02-.8-.18-1.67.01-2.42-.02-.83-.03-1.55.58-2.27.71-.84.16-1.51.28-2.12.65-.73.44-1.95.57-2.22,1.27-.3.79-.52,1.77-.56,2.58s.2,1.78.43,2.59c.21.76.62,1.6,1.06,2.34.39.67,1.41.97,1.99,1.61.52.58.76,1.53,1.43,2.07.6.5,1.52.65,2.25,1.11.66.42,1.48.6,2.25.99.65.34,1,1.54,1.82,1.9.7.31,1.8-.19,2.61.11.73.28,1.47.6,2.29.86.75.24,1.38,1.04,2.2,1.25.77.2,1.61.28,2.43.45s1.69-.29,2.52-.17,1.55.71,2.38.78,1.63.03,2.46.04,1.61-.47,2.44-.51,1.67.6,2.5.51,1.69.11,2.51-.03,1.59-.51,2.4-.71"/>
      <path class="cls-1" d="M70.61,76.37c-.81.1-1.57.94-2.38.97s-1.67-.07-2.48-.1-1.68.05-2.48-.03-1.47-1.28-2.27-1.42-1.79.58-2.58.38-1.66-.29-2.42-.54-1.43-.95-2.17-1.25-1.23-1.24-1.94-1.59c-.75-.37-2.02.25-2.7-.16s-1.04-1.39-1.75-1.67c-.75-.3-1.45-.85-2.19-1.02-.8-.18-1.67.01-2.42-.02-.83-.03-1.55.58-2.27.71-.84.16-1.51.28-2.12.65-.73.44-1.95.57-2.22,1.27-.3.79-.52,1.77-.56,2.58s.2,1.78.43,2.59c.21.76.62,1.6,1.06,2.34.39.67,1.41.97,1.99,1.61.52.58.76,1.53,1.43,2.07.6.5,1.52.65,2.25,1.11.66.42,1.48.6,2.25.99.65.34,1,1.54,1.82,1.9.7.31,1.8-.19,2.61.11.73.28,1.47.6,2.29.86.75.24,1.38,1.04,2.2,1.25.77.2,1.61.28,2.43.45s1.69-.29,2.52-.17,1.55.71,2.38.78,1.63.03,2.46.04,1.61-.47,2.44-.51,1.67.6,2.5.51,1.69.11,2.51-.03,1.59-.51,2.4-.71"/>
    </g>
    <path class="cls-1" d="M77.46,115.15c-1.58.77-1.25-.04-3.47.13-.97.07-2.06.37-3.41.2-1.04-.13-2.06-.6-3.31-.96-1.03-.29-2.33-.04-3.49-.53-1-.42-2.12-.83-3.22-1.44"/>
    <path class="cls-1" d="M68.93,96.01c-1.79.18-1.48-.23-3.63.07-1.04.15-2.21.69-3.51.92-1.13.19-2.17,1.17-3.39,1.42s-2.46,0-3.61.31-2.45.41-3.54.79c-1.23.43-2.37.96-3.32,1.49-1.26.7-1.74,1.86-2.19,2.73-.61,1.18-1.84,2.19-1.93,3.42s.13,2.77.58,3.97,1.43,2.23,2.34,3.2c.82.88,2.13,1.28,3.33,1.92,1.05.56,2.16,1.14,3.49,1.44,1.24.28,2.44-.01,3.56.04,1.29.05,2.39-.1,3.49-.25,1.33-.18,2.55-.02,3.53-.34,2.07-.66,1.87-.23,3.39-1.18"/>
    <g>
      <path class="cls-5" d="M169.27,72.27c.06-1.78.32-1.47.65-3.5.17-1.06.33-2.26.69-3.47.33-1.13.42-2.43.96-3.47.57-1.1,1.39-2.12,2.26-2.85s2.13-.87,3.4-.96c1.02-.08,2.11.03,3.41.54.93.37,1.93,1.01,2.68,2.18.56.88.87,2.05,1.31,3.28.37,1.03.9,2.11,1.18,3.32.25,1.1.64,2.25.8,3.45.16,1.14,0,2.35.08,3.55s.57,2.34.56,3.53-.89,2.32-.98,3.49.7,2.48.51,3.63-1.26,2.18-1.57,3.28-.51,2.11-.84,3.02c-.4,1.09-.37,2.25-.79,3.1-.54,1.1-1.44,1.82-1.92,2.55-1.12,1.71-.95,1.18-2.14,2.21"/>
      <path class="cls-1" d="M169.27,72.27c.06-1.78.32-1.47.65-3.5.17-1.06.33-2.26.69-3.47.33-1.13.42-2.43.96-3.47.57-1.1,1.39-2.12,2.26-2.85s2.13-.87,3.4-.96c1.02-.08,2.11.03,3.41.54.93.37,1.93,1.01,2.68,2.18.56.88.87,2.05,1.31,3.28.37,1.03.9,2.11,1.18,3.32.25,1.1.64,2.25.8,3.45.16,1.14,0,2.35.08,3.55s.57,2.34.56,3.53-.89,2.32-.98,3.49.7,2.48.51,3.63-1.26,2.18-1.57,3.28-.51,2.11-.84,3.02c-.4,1.09-.37,2.25-.79,3.1-.54,1.1-1.44,1.82-1.92,2.55-1.12,1.71-.95,1.18-2.14,2.21"/>
    </g>
    <g>
      <path class="cls-5" d="M173.35,68.69c.75,1,2.23,1.51,2.86,2.57s1.17,2.25,1.7,3.37.75,2.42,1.15,3.59.51,2.44.8,3.65.7,2.4.87,3.63.3,2.48.34,3.72.06,2.5-.02,3.74-.13,2.5-.33,3.73-1.07,2.3-1.39,3.5-.4,2.45-.84,3.62-1.39,2.07-1.94,3.18-.68,2.42-1.35,3.48-1.35,2.07-2.11,3.06-1.87,1.62-2.73,2.53c-.09.09.09.44,0,.53-.81.84-1.73,1.69-2.59,2.68-.78.9-1.78,1.68-2.62,2.66-.78.92-1.59,1.86-2.43,2.81s-.94,2.47-1.8,3.39-1.99,1.52-2.89,2.39-1.48,2.07-2.43,2.88c-1.05.9-2.69.88-3.65,1.6-1.09.82-1.75,2.07-2.76,2.74-1.11.74-2.02,1.66-3.06,2.34s-2.41.95-3.46,1.71c-.99.72-1.75,1.76-2.77,2.66-.9.79-1.61,1.81-2.56,2.81-.81.87-2.24,1.12-2.95,1.95-.77.91-1.53,1.79-2.2,2.65-.74.95-1.2,2.04-1.84,2.91-.72.97-1.21,2.04-1.86,2.89-.75.97-1.15,2.17-1.88,2.94-.83.89-2.01,1.39-2.92,1.97-.96.61-1.99,1.46-3.15,1.67-1.02.18-2.19-.78-3.46-.95-1.54-.21-2.97.25-3.78-.24-1.25-.75-1.55-2.22-1.79-3.34s-.36-2.44-.52-3.61-.25-2.49-1.41-3.25c-1.04-.69-2.16-.86-3.15-1.16-1.09-.33-2.28-.18-3.35-.53-.98-.32-1.77-1.26-2.77-2.03-.76-.58-1.84-1.1-2.63-2.14-.71-.93-.88-2.14-1.28-3.16s-1.36-2.01-1.56-3.1.39-2.37.27-3.46c-.13-1.17-.12-2.34-.34-3.37-.25-1.19-.79-2.25-1.42-3.1s-1.71-1.52-2.99-2.01c-1.03-.39-2.29-.46-3.5-.8-1.13-.32-2.19-.96-3.31-1.37s-2.06-1.09-3.01-1.76-1.77-1.33-2.34-2.43c-.53-1.01-1.24-1.89-1.47-2.92-.24-1.09-.37-2.2-.43-3.27s-.41-2.23-.42-3.29c-.01-1.15.39-2.25.22-3.26-.18-1.12-.27-2.3-.91-3.18-.72-.99-2.08-1.29-2.8-2.04-.85-.88-1.35-1.93-2.19-2.55-.98-.73-1.64-1.82-2.56-2.32-1.08-.58-2.16-1-3.11-1.43-1.14-.52-2.27-.7-3.1-1.3-.91-.66-2.01-1.28-2.42-2.47-.31-.92-.16-2.19-.03-3.43.1-1.03.07-2.21.31-3.34s.49-2.17.71-3.24c.24-1.14,1.17-2.15,1.24-3.17.09-1.25.2-2.65-.23-3.52-.58-1.16-2.08-1.67-2.92-2.49-.96-.94-1.72-1.99-2.58-2.66-1.37-1.07-2.21-1.76-1.74-2.73.54-1.13,1.21-1.94,1.73-2.73.66-1.01.85-2.29,1.77-2.81.82-.46,2.01-.3,3.31-.42.92-.09,2.01-.74,3.27-.68.97.05,2.04.51,3.25.64,1.12.12,2.2.77,3.37.97s2.42-.39,3.57-.15,2.06,1.51,3.19,1.75,2.42-.14,3.54.08,2.25.9,3.36,1.05c1.2.17,2.4.46,3.5.49,1.24.04,2.5-.19,3.56-.38,1.22-.22,2.16-1.13,3.07-1.75.83-.56,2.24-.8,3.37-1.73.87-.72,1.77-1.58,2.81-2.44.9-.75,1.78-1.62,2.81-2.43.94-.74,1.94-1.45,2.98-2.2.98-.71,1.68-1.88,2.74-2.57s1.9-1.67,3-2.29,2.3-1.01,3.43-1.54,2.38-.75,3.56-1.18,2.25-1.15,3.47-1.46,2.55.11,3.79-.08,2.39-1.16,3.65-1.21c1.87-.06,1.45.02,3.79.2,1.06.08,2.34.2,3.74.39,1.14.16,2.4.39,3.71.64,1.16.23,2.26,1.07,3.53,1.4,1.16.3,2.53.11,3.75.5,1.15.37,2,1.7,3.19,2.17s2.36.69,3.51,1.24,2.14,1.2,3.24,1.83,2.51.64,3.56,1.34,1.73,1.84,2.72,2.63,1.76,1.71,2.68,2.58,2.02,1.47,2.86,2.42c.63.71.89,1.7,1.46,2.41.6.74,1.16,1.46,1.7,2.18Z"/>
      <path class="cls-1" d="M173.35,68.69c.75,1,2.23,1.51,2.86,2.57s1.17,2.25,1.7,3.37.75,2.42,1.15,3.59.51,2.44.8,3.65.7,2.4.87,3.63.3,2.48.34,3.72.06,2.5-.02,3.74-.13,2.5-.33,3.73-1.07,2.3-1.39,3.5-.4,2.45-.84,3.62-1.39,2.07-1.94,3.18-.68,2.42-1.35,3.48-1.35,2.07-2.11,3.06-1.87,1.62-2.73,2.53c-.09.09.09.44,0,.53-.81.84-1.73,1.69-2.59,2.68-.78.9-1.78,1.68-2.62,2.66-.78.92-1.59,1.86-2.43,2.81s-.94,2.47-1.8,3.39-1.99,1.52-2.89,2.39-1.48,2.07-2.43,2.88c-1.05.9-2.69.88-3.65,1.6-1.09.82-1.75,2.07-2.76,2.74-1.11.74-2.02,1.66-3.06,2.34s-2.41.95-3.46,1.71c-.99.72-1.75,1.76-2.77,2.66-.9.79-1.61,1.81-2.56,2.81-.81.87-2.24,1.12-2.95,1.95-.77.91-1.53,1.79-2.2,2.65-.74.95-1.2,2.04-1.84,2.91-.72.97-1.21,2.04-1.86,2.89-.75.97-1.15,2.17-1.88,2.94-.83.89-2.01,1.39-2.92,1.97-.96.61-1.99,1.46-3.15,1.67-1.02.18-2.19-.78-3.46-.95-1.54-.21-2.97.25-3.78-.24-1.25-.75-1.55-2.22-1.79-3.34s-.36-2.44-.52-3.61-.25-2.49-1.41-3.25c-1.04-.69-2.16-.86-3.15-1.16-1.09-.33-2.28-.18-3.35-.53-.98-.32-1.77-1.26-2.77-2.03-.76-.58-1.84-1.1-2.63-2.14-.71-.93-.88-2.14-1.28-3.16s-1.36-2.01-1.56-3.1.39-2.37.27-3.46c-.13-1.17-.12-2.34-.34-3.37-.25-1.19-.79-2.25-1.42-3.1s-1.71-1.52-2.99-2.01c-1.03-.39-2.29-.46-3.5-.8-1.13-.32-2.19-.96-3.31-1.37s-2.06-1.09-3.01-1.76-1.77-1.33-2.34-2.43c-.53-1.01-1.24-1.89-1.47-2.92-.24-1.09-.37-2.2-.43-3.27s-.41-2.23-.42-3.29c-.01-1.15.39-2.25.22-3.26-.18-1.12-.27-2.3-.91-3.18-.72-.99-2.08-1.29-2.8-2.04-.85-.88-1.35-1.93-2.19-2.55-.98-.73-1.64-1.82-2.56-2.32-1.08-.58-2.16-1-3.11-1.43-1.14-.52-2.27-.7-3.1-1.3-.91-.66-2.01-1.28-2.42-2.47-.31-.92-.16-2.19-.03-3.43.1-1.03.07-2.21.31-3.34s.49-2.17.71-3.24c.24-1.14,1.17-2.15,1.24-3.17.09-1.25.2-2.65-.23-3.52-.58-1.16-2.08-1.67-2.92-2.49-.96-.94-1.72-1.99-2.58-2.66-1.37-1.07-2.21-1.76-1.74-2.73.54-1.13,1.21-1.94,1.73-2.73.66-1.01.85-2.29,1.77-2.81.82-.46,2.01-.3,3.31-.42.92-.09,2.01-.74,3.27-.68.97.05,2.04.51,3.25.64,1.12.12,2.2.77,3.37.97s2.42-.39,3.57-.15,2.06,1.51,3.19,1.75,2.42-.14,3.54.08,2.25.9,3.36,1.05c1.2.17,2.4.46,3.5.49,1.24.04,2.5-.19,3.56-.38,1.22-.22,2.16-1.13,3.07-1.75.83-.56,2.24-.8,3.37-1.73.87-.72,1.77-1.58,2.81-2.44.9-.75,1.78-1.62,2.81-2.43.94-.74,1.94-1.45,2.98-2.2.98-.71,1.68-1.88,2.74-2.57s1.9-1.67,3-2.29,2.3-1.01,3.43-1.54,2.38-.75,3.56-1.18,2.25-1.15,3.47-1.46,2.55.11,3.79-.08,2.39-1.16,3.65-1.21c1.87-.06,1.45.02,3.79.2,1.06.08,2.34.2,3.74.39,1.14.16,2.4.39,3.71.64,1.16.23,2.26,1.07,3.53,1.4,1.16.3,2.53.11,3.75.5,1.15.37,2,1.7,3.19,2.17s2.36.69,3.51,1.24,2.14,1.2,3.24,1.83,2.51.64,3.56,1.34,1.73,1.84,2.72,2.63,1.76,1.71,2.68,2.58,2.02,1.47,2.86,2.42c.63.71.89,1.7,1.46,2.41.6.74,1.16,1.46,1.7,2.18Z"/>
    </g>
    <g>
      <path class="cls-5" d="M126.64,49.42c-.8-1.47-.78-1.13-1.48-2.97-.35-.93-.73-2-1.03-3.17-.27-1.05-.9-2.11-1-3.24s.38-2.25.56-3.34.09-2.37.67-3.34c.55-.9,1.4-1.82,2.41-2.5.83-.56,1.87-1.29,3.08-1.63s2.57-.5,3.74-.39,2.06,1.47,3.2,1.94c1.06.43,2.01.97,3.04,1.66.96.64,1.97,1.2,2.89,2.01s1.75,1.54,2.59,2.42,1.35,1.94,2.11,2.86,2.4,1.15,3.1,2.11,1.08,2.2,1.74,3.17c.69,1.02.7,2.43,1.31,3.4.67,1.07,2.28,1.51,2.83,2.47.67,1.16.74,2.51,1.22,3.41,1.04,1.94.63,1.67,1.39,3.28"/>
      <path class="cls-1" d="M126.64,49.42c-.8-1.47-.78-1.13-1.48-2.97-.35-.93-.73-2-1.03-3.17-.27-1.05-.9-2.11-1-3.24s.38-2.25.56-3.34.09-2.37.67-3.34c.55-.9,1.4-1.82,2.41-2.5.83-.56,1.87-1.29,3.08-1.63s2.57-.5,3.74-.39,2.06,1.47,3.2,1.94c1.06.43,2.01.97,3.04,1.66.96.64,1.97,1.2,2.89,2.01s1.75,1.54,2.59,2.42,1.35,1.94,2.11,2.86,2.4,1.15,3.1,2.11,1.08,2.2,1.74,3.17c.69,1.02.7,2.43,1.31,3.4.67,1.07,2.28,1.51,2.83,2.47.67,1.16.74,2.51,1.22,3.41,1.04,1.94.63,1.67,1.39,3.28"/>
    </g>
    <g>
      <path class="cls-3" d="M131.17,65.09c-2.52.69-4.04,1.88-5.24,3.6-1.33,1.91-2.82,3.92-3,6.09-.23,2.83.31,5.76,1.03,6.98s2.7,3.47,4.97,5.34c1.77,1.46,4.06,2.35,6.64,2.39,2.01.03,4.42-.22,6.87-1.91,1.74-1.21,2.65-3.49,3.1-5.87.38-2.06.2-4.35-.3-6.61s-1.32-4.3-2.58-6.08-2.91-3.58-4.99-4.37c-1.89-.73-4.03-.22-6.51.45Z"/>
      <path class="cls-1" d="M131.17,65.09c-2.52.69-4.04,1.88-5.24,3.6-1.33,1.91-2.82,3.92-3,6.09-.23,2.83.31,5.76,1.03,6.98s2.7,3.47,4.97,5.34c1.77,1.46,4.06,2.35,6.64,2.39,2.01.03,4.42-.22,6.87-1.91,1.74-1.21,2.65-3.49,3.1-5.87.38-2.06.2-4.35-.3-6.61s-1.32-4.3-2.58-6.08-2.91-3.58-4.99-4.37c-1.89-.73-4.03-.22-6.51.45Z"/>
    </g>
    <g>
      <path class="cls-3" d="M145.52,90.67c-1.62,1.51-2.96,3.75-2.94,6.33.02,2.16,1.06,4.39,2.76,6.5,1.29,1.6,2.98,3.3,5.49,4.51,2.69,1.29,5.26,1.6,7.48,1.34,2.72-.32,4.8-1.89,6.51-3.59,1.96-1.95,3.13-4.26,3.33-6.51.25-2.85-.25-5.49-1.81-7.48s-4.11-3.57-6.65-4.19-5.11-.71-7.57-.31c-2.31.37-4.46,1.41-6.61,3.41Z"/>
      <path class="cls-1" d="M145.52,90.67c-1.62,1.51-2.96,3.75-2.94,6.33.02,2.16,1.06,4.39,2.76,6.5,1.29,1.6,2.98,3.3,5.49,4.51,2.69,1.29,5.26,1.6,7.48,1.34,2.72-.32,4.8-1.89,6.51-3.59,1.96-1.95,3.13-4.26,3.33-6.51.25-2.85-.25-5.49-1.81-7.48s-4.11-3.57-6.65-4.19-5.11-.71-7.57-.31c-2.31.37-4.46,1.41-6.61,3.41Z"/>
    </g>
    <g>
      <path class="cls-1" d="M94.44,50.89c1.23.07.92.18,2.44.36.7.08,1.62-.42,2.54-.27.75.12,1.55.48,2.4.65.77.15,1.38,1.23,2.21,1.43.78.19,1.64.08,2.45.31s1.76-.1,2.54.18,1.18,1.48,1.94,1.8,1.87-.1,2.59.29,1.56.71,2.22,1.17,1.12,1.31,1.71,1.86"/>
      <path class="cls-1" d="M85.54,61.14c1.24-.1.94.1,2.5.09.71,0,1.54.13,2.48.16.76.03,1.64-.55,2.52-.48.78.06,1.61.36,2.47.46.8.09,1.49,1.13,2.33,1.26.8.13,1.66-.04,2.48.14s1.75-.23,2.56,0,1.3,1.38,2.09,1.65,1.85-.26,2.62.05,1.61.53,2.35.9"/>
    </g>
    <g>
      <path class="cls-1" d="M171.02,108.3c.96.87.71.8,1.68,2.04.46.59,1.06,1.29,1.56,2.12.42.69.83,1.51,1.2,2.35.33.76.76,1.59,1,2.45.22.81-.19,1.81-.19,2.73,0,.85.18,1.76.09,2.65s-.54,1.72-.62,2.59-.2,1.81-.17,2.65"/>
      <path class="cls-1" d="M165.64,115.84c.48,1.22.5.87.86,2.44.17.73.36,1.59.49,2.56.11.81.61,1.66.64,2.59.03.84-.46,1.71-.53,2.62-.07.85.31,1.8.14,2.68-.17.84-.4,1.73-.69,2.58s-.43,1.76-.84,2.57"/>
    </g>
    <path class="cls-2" d="M105.4,90.77c-1.97.07-1.77.88-3.95.59-1.22-.16-2.66-.41-3.92-.87s-2.38-1.45-3.23-2.38-1.86-1.61-2.11-2.44c-.34-1.09.24-2.3.53-3.2.33-1.05,1.22-1.74,1.79-2.43.75-.91,1.85-.93,3.14-.38,1.17.5,2.36.83,3.27.92,1.92.19,2.19.35,4.35-.36"/>
    <path class="cls-2" d="M143.07,125.19c-1.56.87-1.05,1.15-3.11,1.67-1.01.26-2.23-.06-3.55,0-1.11.04-2.31.6-3.57.36-1.39-.26-2.69-.42-3.66-.85-1.37-.59-2.57-1.38-3.18-2.22-.76-1.04-.89-2.58-.59-3.86.37-1.58,2.12-2.22,3.75-2.21,1.49,0,3.05.54,4.16.07.89-.38,2.03-.69,2.86-1.33"/>
    <line class="cls-1" x1="136.32" y1="78.31" x2="139.85" y2="83.48"/>
    <line class="cls-1" x1="147.86" y1="93.55" x2="152.6" y2="97.17"/>
  </g>
  <g>
    <path class="cls-4" d="M22.07,33.16c1.23,0,.42,1.02.84,2.18s.4,1.17.82,2.33.58,1.1,1,2.26.21,1.24.63,2.4.28,1.22,1.09,2.15.94.59,1.99,1.13,1.12.42,2.17.96.93.78,1.99,1.32,2.37-.13,2.37,1.05-1.38.38-2.44.91-1.06.54-2.12,1.07-.94.78-2,1.31-1.44.01-2.23.9-.16,1.28-.59,2.44-.71,1.05-1.15,2.2-.46,1.15-.89,2.3-.5,1.13-.93,2.29.5,2.17-.73,2.17-.58-.9-1-2.06-.43-1.16-.85-2.32-.14-1.26-.56-2.42-.54-1.12-.96-2.28.1-1.51-.71-2.44-1.24-.33-2.3-.87-.99-.67-2.04-1.21-1.16-.34-2.21-.88-2.23-.06-2.23-1.25,1.22-.6,2.28-1.13,1.05-.55,2.11-1.08,1.15-.36,2.21-.89,1.3-.25,2.09-1.13.62-1.08,1.06-2.24.27-1.22.7-2.37.55-1.11.99-2.26.43-1.16.57-2.38c.15-1.32-.21-2.16,1.03-2.16Z"/>
    <path class="cls-1" d="M22.07,33.16c1.23,0,.42,1.02.84,2.18s.4,1.17.82,2.33.58,1.1,1,2.26.21,1.24.63,2.4.28,1.22,1.09,2.15.94.59,1.99,1.13,1.12.42,2.17.96.93.78,1.99,1.32,2.37-.13,2.37,1.05-1.38.38-2.44.91-1.06.54-2.12,1.07-.94.78-2,1.31-1.44.01-2.23.9-.16,1.28-.59,2.44-.71,1.05-1.15,2.2-.46,1.15-.89,2.3-.5,1.13-.93,2.29.5,2.17-.73,2.17-.58-.9-1-2.06-.43-1.16-.85-2.32-.14-1.26-.56-2.42-.54-1.12-.96-2.28.1-1.51-.71-2.44-1.24-.33-2.3-.87-.99-.67-2.04-1.21-1.16-.34-2.21-.88-2.23-.06-2.23-1.25,1.22-.6,2.28-1.13,1.05-.55,2.11-1.08,1.15-.36,2.21-.89,1.3-.25,2.09-1.13.62-1.08,1.06-2.24.27-1.22.7-2.37.55-1.11.99-2.26.43-1.16.57-2.38c.15-1.32-.21-2.16,1.03-2.16Z"/>
  </g>
  <g>
    <path d="M74.12,186.12c0-.83,1.1-1.86,2.46-2.52.83-.4,2.09-.13,3.3-.43.97-.24,1.89-1.26,3.05-1.43,1.02-.15,2.14-.37,3.28-.45,1.05-.07,2.18.17,3.3.17s2.23.15,3.28.22c1.14.07,2.24.2,3.26.34,1.16.17,2.23.48,3.2.72,1.21.31,2.3.59,3.12.99,1.35.66,2,1.55,2,2.38,0,.97-.29,1.98-1.3,2.82-.67.55-1.52,1.4-2.79,1.77-.89.26-2.07-.1-3.3.03-.96.1-2.02.57-3.22.57-.9,0-2.29-.27-3.82-.4-1.25-.11-2.58-.3-3.81-.43-1.59-.18-2.97-.57-3.75-.69-1.09-.17-2.18.02-3.08-.22-1.13-.31-2.27-.43-3.03-.82-1.24-.64-2.16-1.82-2.16-2.61Z"/>
    <path class="cls-1" d="M74.12,186.12c0-.83,1.1-1.86,2.46-2.52.83-.4,2.09-.13,3.3-.43.97-.24,1.89-1.26,3.05-1.43,1.02-.15,2.14-.37,3.28-.45,1.05-.07,2.18.17,3.3.17s2.23.15,3.28.22c1.14.07,2.24.2,3.26.34,1.16.17,2.23.48,3.2.72,1.21.31,2.3.59,3.12.99,1.35.66,2,1.55,2,2.38,0,.97-.29,1.98-1.3,2.82-.67.55-1.52,1.4-2.79,1.77-.89.26-2.07-.1-3.3.03-.96.1-2.02.57-3.22.57-.9,0-2.29-.27-3.82-.4-1.25-.11-2.58-.3-3.81-.43-1.59-.18-2.97-.57-3.75-.69-1.09-.17-2.18.02-3.08-.22-1.13-.31-2.27-.43-3.03-.82-1.24-.64-2.16-1.82-2.16-2.61Z"/>
  </g>
  <path class="cls-1" d="M6.12,63.85c1.66,0,1.66-.17,3.32-.17s1.66,1.02,3.32,1.02,1.66-1.16,3.32-1.16,1.66.76,3.33.76,1.66.03,3.33.03"/>
  <path class="cls-1" d="M24.73,71.19c2.22-.04,2.24.94,4.46.9s2.21-.5,4.43-.51,2.2-.11,4.39-.09,2.19.28,4.39.3"/>
  <path class="cls-1" d="M31.66,135.52c1.86.08,1.85.39,3.7.47s1.86.03,3.72.1c1.43.06,1.42.33,2.85.39s1.48-1.03,2.91-.97"/>
  <path class="cls-1" d="M10.4,127.54c1.81-.01,1.81-.18,3.62-.19s1.82,1.01,3.63.99,1.8-1.17,3.62-1.19,1.82.75,3.64.73,1.82.02,3.63,0"/>
  <g>
    <path class="cls-6" d="M53.35,149.57c0,1.2-.72,2.24-.9,3.28-.22,1.26-.24,2.34-.67,3.22-.64,1.34-1.23,1.71-2.15,1.71s-1.85-.2-2.49-1.54c-.42-.88-.88-1.99-1.1-3.24-.18-1.04.08-2.22.08-3.42s.16-2.3.35-3.34c.22-1.26.21-2.47.63-3.34.64-1.34,1.62-2.51,2.54-2.51s1.74,1.25,2.39,2.59c.42.88.98,1.94,1.2,3.19.18,1.04.13,2.22.13,3.42Z"/>
    <path class="cls-1" d="M53.35,149.57c0,1.2-.72,2.24-.9,3.28-.22,1.26-.24,2.34-.67,3.22-.64,1.34-1.23,1.71-2.15,1.71s-1.85-.2-2.49-1.54c-.42-.88-.88-1.99-1.1-3.24-.18-1.04.08-2.22.08-3.42s.16-2.3.35-3.34c.22-1.26.21-2.47.63-3.34.64-1.34,1.62-2.51,2.54-2.51s1.74,1.25,2.39,2.59c.42.88.98,1.94,1.2,3.19.18,1.04.13,2.22.13,3.42Z"/>
  </g>
  <g>
    <path class="cls-6" d="M52.73,175.14c0,1.2.2,2.29.02,3.33-.22,1.26-.78,2.17-1.21,3.05-.64,1.34-.98,2.49-1.9,2.49s-1.95-.82-2.6-2.15c-.42-.88-.42-2.1-.64-3.36-.18-1.04-.21-2.16-.21-3.36s-.26-2.37-.08-3.41c.22-1.26.32-2.52.74-3.4.64-1.34,1.87-1.94,2.79-1.94s1.94.7,2.58,2.04c.42.88.7,2.05.92,3.3.18,1.04-.42,2.21-.42,3.41Z"/>
    <path class="cls-1" d="M52.73,175.14c0,1.2.2,2.29.02,3.33-.22,1.26-.78,2.17-1.21,3.05-.64,1.34-.98,2.49-1.9,2.49s-1.95-.82-2.6-2.15c-.42-.88-.42-2.1-.64-3.36-.18-1.04-.21-2.16-.21-3.36s-.26-2.37-.08-3.41c.22-1.26.32-2.52.74-3.4.64-1.34,1.87-1.94,2.79-1.94s1.94.7,2.58,2.04c.42.88.7,2.05.92,3.3.18,1.04-.42,2.21-.42,3.41Z"/>
  </g>
  <g>
    <path class="cls-6" d="M61.03,164c-1.17,0-2.18.16-3.07-.09-1.43-.4-1.88-.8-1.88-1.55s.35-1.52,1.78-1.93c.89-.25,2.01-.52,3.18-.52s2.22.51,3.11.76c1.43.4,2.19.93,2.19,1.69s-.68,1.57-2.11,1.97c-.89.25-2.02-.33-3.19-.33Z"/>
    <path class="cls-1" d="M61.03,164c-1.17,0-2.18.16-3.07-.09-1.43-.4-1.88-.8-1.88-1.55s.35-1.52,1.78-1.93c.89-.25,2.01-.52,3.18-.52s2.22.51,3.11.76c1.43.4,2.19.93,2.19,1.69s-.68,1.57-2.11,1.97c-.89.25-2.02-.33-3.19-.33Z"/>
  </g>
  <g>
    <path class="cls-6" d="M37.1,165.18c-1.46,0-2.65-.79-3.76-1.1-1.78-.5-2.82-.77-2.82-1.72s1.03-1.24,2.82-1.74c1.11-.31,2.31-1.14,3.77-1.14s2.87.08,3.98.39c1.78.5,2.74,1.54,2.74,2.49s-1.08,1.57-2.86,2.07c-1.11.31-2.41.75-3.86.75Z"/>
    <path class="cls-1" d="M37.1,165.18c-1.46,0-2.65-.79-3.76-1.1-1.78-.5-2.82-.77-2.82-1.72s1.03-1.24,2.82-1.74c1.11-.31,2.31-1.14,3.77-1.14s2.87.08,3.98.39c1.78.5,2.74,1.54,2.74,2.49s-1.08,1.57-2.86,2.07c-1.11.31-2.41.75-3.86.75Z"/>
  </g>
</svg>