<?xml version="1.0" encoding="UTF-8"?>
<svg id="_레이어_2" data-name="레이어 2" xmlns="http://www.w3.org/2000/svg" viewBox="0 0 200 200">
  <defs>
    <style>
      .cls-1 {
        fill: none;
        stroke-linecap: round;
        stroke-linejoin: round;
        stroke-width: 2.4px;
      }

      .cls-1, .cls-2 {
        stroke: #000;
      }

      .cls-3 {
        fill: #ffaf42;
      }

      .cls-2 {
        stroke-miterlimit: 10;
        stroke-width: 1.2px;
      }

      .cls-4 {
        fill: #fff;
      }
    </style>
  </defs>
  <g>
    <path class="cls-3" d="M77.53,160.92c-.22,1.58-.61,1.2-.91,3.1-.14.93-.39,1.99-.59,3.14-.17,1.01.28,2.19.08,3.26s-.72,2.06-.94,3.08c-.23,1.1-.63,2.12-.88,3.08-.27,1.05-.74,2.04-.91,3-.19,1.09-.07,2.2-.05,3.16.03,1.11-.02,2.33.43,3.21s1.44,1.59,2.44,2.18c.77.46,1.88.47,3.05.74.81.19,1.8-.08,2.83.06.88.12,1.73,1.19,2.72,1.26.92.06,1.9-.84,2.86-.84s1.86.04,2.8-.02,1.87-.16,2.78-.29c.97-.14,1.95.07,2.82-.16.98-.26,2.15.03,2.94-.36.93-.46,1.64-1.36,2.19-2.03.61-.73.42-1.74.44-2.75.02-1.21-.28-2.08-.69-2.99-.47-1.04-1.01-1.8-1.78-2.51-.85-.79-1.55-1.66-2.43-2.11-1.65-.84-2.3.3-2.86-1.24-.46-1.27-.39-1.32-.24-2.67s.82-1.27.97-2.61,0-1.37.15-2.71,0-1.36.16-2.71"/>
    <path class="cls-1" d="M77.53,160.92c-.22,1.58-.61,1.2-.91,3.1-.14.93-.39,1.99-.59,3.14-.17,1.01.28,2.19.08,3.26s-.72,2.06-.94,3.08c-.23,1.1-.63,2.12-.88,3.08-.27,1.05-.74,2.04-.91,3-.19,1.09-.07,2.2-.05,3.16.03,1.11-.02,2.33.43,3.21s1.44,1.59,2.44,2.18c.77.46,1.88.47,3.05.74.81.19,1.8-.08,2.83.06.88.12,1.73,1.19,2.72,1.26.92.06,1.9-.84,2.86-.84s1.86.04,2.8-.02,1.87-.16,2.78-.29c.97-.14,1.95.07,2.82-.16.98-.26,2.15.03,2.94-.36.93-.46,1.64-1.36,2.19-2.03.61-.73.42-1.74.44-2.75.02-1.21-.28-2.08-.69-2.99-.47-1.04-1.01-1.8-1.78-2.51-.85-.79-1.55-1.66-2.43-2.11-1.65-.84-2.3.3-2.86-1.24-.46-1.27-.39-1.32-.24-2.67s.82-1.27.97-2.61,0-1.37.15-2.71,0-1.36.16-2.71"/>
  </g>
  <g>
    <path class="cls-3" d="M107.52,156.47c-.17,1.57-.09,1.24-.29,3.14-.1.92-.51,1.96-.62,3.11-.1,1-.15,2.07-.26,3.15s-.71,2.06-.81,3.1.16,2.18.07,3.19c-.11,1.14-.09,2.22-.17,3.16-.12,1.42-.4,2.53-.41,3.14-.03.93.69,1.73,1,2.65.28.84.15,1.94.87,2.68.59.6,1.47,1.02,2.44,1.49.75.37,1.56.98,2.6,1.24.83.21,1.87-.13,2.9,0s1.94.67,2.91.74,2.02-.66,2.99-.66c1.03,0,1.97.07,2.91-.04,1.04-.12,2.18.49,3.07.21.99-.32,1.53-1.43,2.29-2s1.72-.98,2.2-1.89c.42-.8,1.09-1.72,1.22-2.81s-.05-2.18-.33-3.02c-.32-.94-1.58-1.29-2.23-1.97s-.83-2.08-1.64-2.55c-.88-.51-2.06-.47-2.87-.76-1.56-.55-2.92.81-3.3-.57s1.22-1.52,1.4-2.96-.76-1.56-.58-3,.93-1.35,1.11-2.79.23-1.44.41-2.88"/>
    <path class="cls-1" d="M107.52,156.47c-.17,1.57-.09,1.24-.29,3.14-.1.92-.51,1.96-.62,3.11-.1,1-.15,2.07-.26,3.15s-.71,2.06-.81,3.1.16,2.18.07,3.19c-.11,1.14-.09,2.22-.17,3.16-.12,1.42-.4,2.53-.41,3.14-.03.93.69,1.73,1,2.65.28.84.15,1.94.87,2.68.59.6,1.47,1.02,2.44,1.49.75.37,1.56.98,2.6,1.24.83.21,1.87-.13,2.9,0s1.94.67,2.91.74,2.02-.66,2.99-.66c1.03,0,1.97.07,2.91-.04,1.04-.12,2.18.49,3.07.21.99-.32,1.53-1.43,2.29-2s1.72-.98,2.2-1.89c.42-.8,1.09-1.72,1.22-2.81s-.05-2.18-.33-3.02c-.32-.94-1.58-1.29-2.23-1.97s-.83-2.08-1.64-2.55c-.88-.51-2.06-.47-2.87-.76-1.56-.55-2.92.81-3.3-.57s1.22-1.52,1.4-2.96-.76-1.56-.58-3,.93-1.35,1.11-2.79.23-1.44.41-2.88"/>
  </g>
  <g>
    <path class="cls-3" d="M76.29,134.66c-.84.23-1.68.46-2.49.61s-1.71.32-2.54.42-1.74-.17-2.58-.15-1.69-.29-2.53-.34-1.74.25-2.56.13-1.77.02-2.58-.17-1.64-.57-2.44-.84-1.42-1.07-2.19-1.41-1.72-.36-2.46-.76-1.39-1-2.1-1.46-1.04-1.44-1.71-1.95-1.58-.71-2.21-1.27-1.41-.97-2.01-1.57-.7-1.65-1.25-2.28-1.89-.65-2.4-1.31-.32-1.87-.79-2.56-1.42-1.12-1.83-1.84-.6-1.62-.96-2.37c-.38-.78-.5-1.64-.81-2.4-.33-.83-.8-1.61-1.23-2.33-.45-.77-1.03-1.47-1.56-2.11-.58-.69-1.68-.78-2.31-1.31-.71-.59-.88-1.91-1.6-2.27-.85-.43-1.95.27-2.73.18-.94-.1-2-.92-2.7-.48s-.89,1.5-1.42,2.07-.77,1.28-1.13,2-1.29,1.19-1.46,2c-.16.74.19,1.61.18,2.44-.01.76.39,1.48.51,2.31.11.75-.73,1.74-.52,2.54.2.74.67,1.47.96,2.24.27.72.53,1.5.89,2.25.33.7,1.1,1.29,1.55,2.12.38.71.49,1.65.97,2.43.43.7,1.34,1.14,1.84,1.89.47.69,1.14,1.25,1.68,1.95.51.67.72,1.59,1.29,2.27s.94,1.45,1.55,2.09.96,1.48,1.6,2.09,1.36,1.09,2.03,1.65,1.75.56,2.45,1.08,1,1.56,1.73,2.04,1.69.55,2.45.98,1.64.55,2.42.94,1.48.85,2.28,1.19,1.47.95,2.3,1.23,1.74.17,2.58.41,1.68.24,2.54.42,1.56.91,2.43,1.04,1.73-.02,2.6.06,1.71-.14,2.59-.1"/>
    <path class="cls-1" d="M76.29,134.66c-.84.23-1.68.46-2.49.61s-1.71.32-2.54.42-1.74-.17-2.58-.15-1.69-.29-2.53-.34-1.74.25-2.56.13-1.77.02-2.58-.17-1.64-.57-2.44-.84-1.42-1.07-2.19-1.41-1.72-.36-2.46-.76-1.39-1-2.1-1.46-1.04-1.44-1.71-1.95-1.58-.71-2.21-1.27-1.41-.97-2.01-1.57-.7-1.65-1.25-2.28-1.89-.65-2.4-1.31-.32-1.87-.79-2.56-1.42-1.12-1.83-1.84-.6-1.62-.96-2.37c-.38-.78-.5-1.64-.81-2.4-.33-.83-.8-1.61-1.23-2.33-.45-.77-1.03-1.47-1.56-2.11-.58-.69-1.68-.78-2.31-1.31-.71-.59-.88-1.91-1.6-2.27-.85-.43-1.95.27-2.73.18-.94-.1-2-.92-2.7-.48s-.89,1.5-1.42,2.07-.77,1.28-1.13,2-1.29,1.19-1.46,2c-.16.74.19,1.61.18,2.44-.01.76.39,1.48.51,2.31.11.75-.73,1.74-.52,2.54.2.74.67,1.47.96,2.24.27.72.53,1.5.89,2.25.33.7,1.1,1.29,1.55,2.12.38.71.49,1.65.97,2.43.43.7,1.34,1.14,1.84,1.89.47.69,1.14,1.25,1.68,1.95.51.67.72,1.59,1.29,2.27s.94,1.45,1.55,2.09.96,1.48,1.6,2.09,1.36,1.09,2.03,1.65,1.75.56,2.45,1.08,1,1.56,1.73,2.04,1.69.55,2.45.98,1.64.55,2.42.94,1.48.85,2.28,1.19,1.47.95,2.3,1.23,1.74.17,2.58.41,1.68.24,2.54.42,1.56.91,2.43,1.04,1.73-.02,2.6.06,1.71-.14,2.59-.1"/>
  </g>
  <g>
    <path class="cls-4" d="M109.74,56.14c1.2-1.42,1.21-.89,2.75-2.54.74-.79,1.23-2.09,2.21-3.06.83-.83,1.73-1.74,2.68-2.61.9-.83,2.05-1.45,3.01-2.24s1.95-1.62,2.94-2.32c1.06-.75,2.36-1.04,3.4-1.58,1.2-.63,2.27-1.28,3.37-1.52,1.35-.3,2.37.18,3.42.7s2.05.91,2.71,1.91c.6.91.74,2.05,1.08,3.25.29,1.06,1.23,2.07,1.35,3.29.11,1.12-.81,2.32-.81,3.52s-.05,2.27-.13,3.44.47,2.38.33,3.53-.18,2.37-.37,3.48c-.2,1.21-1.06,2.24-1.28,3.31-.26,1.27-.66,2.38-.9,3.35-.5,2.08-.21,1.72-.7,3.39"/>
    <path class="cls-1" d="M109.74,56.14c1.2-1.42,1.21-.89,2.75-2.54.74-.79,1.23-2.09,2.21-3.06.83-.83,1.73-1.74,2.68-2.61.9-.83,2.05-1.45,3.01-2.24s1.95-1.62,2.94-2.32c1.06-.75,2.36-1.04,3.4-1.58,1.2-.63,2.27-1.28,3.37-1.52,1.35-.3,2.37.18,3.42.7s2.05.91,2.71,1.91c.6.91.74,2.05,1.08,3.25.29,1.06,1.23,2.07,1.35,3.29.11,1.12-.81,2.32-.81,3.52s-.05,2.27-.13,3.44.47,2.38.33,3.53-.18,2.37-.37,3.48c-.2,1.21-1.06,2.24-1.28,3.31-.26,1.27-.66,2.38-.9,3.35-.5,2.08-.21,1.72-.7,3.39"/>
  </g>
  <g>
    <path class="cls-4" d="M108.29,52.45c1.25.1,2.62-.78,3.83-.56s2.39.88,3.57,1.22,2.35.87,3.49,1.34,2.03,1.49,3.12,2.08,2.43.74,3.46,1.43,1.96,1.54,2.91,2.33,1.76,1.73,2.64,2.62,1.43,2,2.22,2.97,1.97,1.61,2.65,2.64,1.36,2.08,1.95,3.18,1.52,2.06,1.98,3.22-.09,2.66.26,3.86,1.47,2.19,1.7,3.42.24,2.49.34,3.74c.01.13.41.23.42.36.09,1.18-.07,2.43-.03,3.68s-.05,2.42-.05,3.66-.35,2.42-.36,3.65.25,2.43.23,3.65.29,2.43.28,3.65-.05,2.43-.03,3.64-.26,2.44-.2,3.65-.06,2.45.05,3.66.36,2.42.52,3.62.48,2.4.73,3.57-.08,2.57.28,3.72,1.44,2.09,1.93,3.19.81,2.25,1.25,3.23c.51,1.14.83,2.25,1.25,3.22.51,1.17.76,2.28,1.12,3.25.45,1.22,1.07,2.19,1.25,3.2.22,1.22.65,2.4.43,3.5s-.92,2.06-1.58,3.17c-.52.87-1.42,1.62-2.25,2.63s-1.27,2.07-2.03,2.63c-1,.74-2.29.43-3.24.67-1.12.29-2.08.87-3.13.8-1.12-.07-2.19-.64-3.24-.68s-2.03.69-3.07,1.17c-1.15.53-1.85,1.28-2.67,2-.87.77-2.05,1.14-2.94,1.9-.82.7-1.63,1.52-2.82,1.99-.93.37-2.06.56-3.4.68-1.18.11-2.24-.41-3.34-.62s-2.17-.53-3.23-.95-2.1-.95-3.11-1.43c-1.1-.52-2.14-1.15-3.15-1.52-1.18-.43-2.48.2-3.53.29s-2.08.59-3.37,1.07c-1.07.4-2.16.95-3.35,1.45-1.1.46-2.5.31-3.67.72s-2.31.83-3.5,1.05-2.44.35-3.65.25-2.47,0-3.64-.3-2.07-1.47-3.19-1.87-2.6,0-3.7-.39c-1.2-.43-2.27-.9-3.36-1.14-1.27-.29-2.34-.51-3.44-.31-.95.17-2.32.17-3.85.45-1.17.22-2.41.83-3.76,1.02-1.25.18-2.56.51-3.86.6s-2.68.17-3.94.11c-1.36-.06-2.73-.45-3.9-.76-1.35-.37-2.39-1.33-3.27-2.15s-1.42-2-2.13-3.08-1.36-2.04-1.79-3.25-.66-2.35-.78-3.63-.29-2.46-.06-3.74c.22-1.2.19-2.57.75-3.77.51-1.08,1.25-2.21,2.08-3.26.74-.95,1.42-1.93,2.04-3.06.58-1.07,1.62-1.96,2.09-3.14s.59-2.43.96-3.63.25-2.5.55-3.7.73-2.39.96-3.6.75-2.44.94-3.62c.21-1.3.69-2.5.85-3.65.18-1.37-.03-2.67.11-3.74.13-.99.23-2.24.28-3.7.04-1.13.17-2.37.22-3.72.04-1.17-.5-2.45-.43-3.75.07-1.19.97-2.37,1.09-3.65.12-1.2-.6-2.55-.41-3.81s1.51-2.23,1.78-3.46-.14-2.57.21-3.77.47-2.48.93-3.65,1.7-1.95,2.27-3.07.99-2.25,1.67-3.3.82-2.48,1.62-3.46c1.19-1.44.98-1.07,2.66-2.7.76-.74,1.86-1.43,2.93-2.36.87-.75,2.37-.87,3.43-1.68.94-.72,1.69-1.78,2.77-2.51.99-.67,2.03-1.35,3.14-2.01,1.04-.62,2.17-1.13,3.31-1.71s2-1.55,3.17-2.05,2.5-.37,3.7-.78,2.22-1.17,3.44-1.49,2.4-.65,3.64-.87,2.52.35,3.78.24,2.41-.92,3.68-.93c.95,0,1.86.73,2.77.77.95.04,1.86.07,2.76.14Z"/>
    <path class="cls-1" d="M108.29,52.45c1.25.1,2.62-.78,3.83-.56s2.39.88,3.57,1.22,2.35.87,3.49,1.34,2.03,1.49,3.12,2.08,2.43.74,3.46,1.43,1.96,1.54,2.91,2.33,1.76,1.73,2.64,2.62,1.43,2,2.22,2.97,1.97,1.61,2.65,2.64,1.36,2.08,1.95,3.18,1.52,2.06,1.98,3.22-.09,2.66.26,3.86,1.47,2.19,1.7,3.42.24,2.49.34,3.74c.01.13.41.23.42.36.09,1.18-.07,2.43-.03,3.68s-.05,2.42-.05,3.66-.35,2.42-.36,3.65.25,2.43.23,3.65.29,2.43.28,3.65-.05,2.43-.03,3.64-.26,2.44-.2,3.65-.06,2.45.05,3.66.36,2.42.52,3.62.48,2.4.73,3.57-.08,2.57.28,3.72,1.44,2.09,1.93,3.19.81,2.25,1.25,3.23c.51,1.14.83,2.25,1.25,3.22.51,1.17.76,2.28,1.12,3.25.45,1.22,1.07,2.19,1.25,3.2.22,1.22.65,2.4.43,3.5s-.92,2.06-1.58,3.17c-.52.87-1.42,1.62-2.25,2.63s-1.27,2.07-2.03,2.63c-1,.74-2.29.43-3.24.67-1.12.29-2.08.87-3.13.8-1.12-.07-2.19-.64-3.24-.68s-2.03.69-3.07,1.17c-1.15.53-1.85,1.28-2.67,2-.87.77-2.05,1.14-2.94,1.9-.82.7-1.63,1.52-2.82,1.99-.93.37-2.06.56-3.4.68-1.18.11-2.24-.41-3.34-.62s-2.17-.53-3.23-.95-2.1-.95-3.11-1.43c-1.1-.52-2.14-1.15-3.15-1.52-1.18-.43-2.48.2-3.53.29s-2.08.59-3.37,1.07c-1.07.4-2.16.95-3.35,1.45-1.1.46-2.5.31-3.67.72s-2.31.83-3.5,1.05-2.44.35-3.65.25-2.47,0-3.64-.3-2.07-1.47-3.19-1.87-2.6,0-3.7-.39c-1.2-.43-2.27-.9-3.36-1.14-1.27-.29-2.34-.51-3.44-.31-.95.17-2.32.17-3.85.45-1.17.22-2.41.83-3.76,1.02-1.25.18-2.56.51-3.86.6s-2.68.17-3.94.11c-1.36-.06-2.73-.45-3.9-.76-1.35-.37-2.39-1.33-3.27-2.15s-1.42-2-2.13-3.08-1.36-2.04-1.79-3.25-.66-2.35-.78-3.63-.29-2.46-.06-3.74c.22-1.2.19-2.57.75-3.77.51-1.08,1.25-2.21,2.08-3.26.74-.95,1.42-1.93,2.04-3.06.58-1.07,1.62-1.96,2.09-3.14s.59-2.43.96-3.63.25-2.5.55-3.7.73-2.39.96-3.6.75-2.44.94-3.62c.21-1.3.69-2.5.85-3.65.18-1.37-.03-2.67.11-3.74.13-.99.23-2.24.28-3.7.04-1.13.17-2.37.22-3.72.04-1.17-.5-2.45-.43-3.75.07-1.19.97-2.37,1.09-3.65.12-1.2-.6-2.55-.41-3.81s1.51-2.23,1.78-3.46-.14-2.57.21-3.77.47-2.48.93-3.65,1.7-1.95,2.27-3.07.99-2.25,1.67-3.3.82-2.48,1.62-3.46c1.19-1.44.98-1.07,2.66-2.7.76-.74,1.86-1.43,2.93-2.36.87-.75,2.37-.87,3.43-1.68.94-.72,1.69-1.78,2.77-2.51.99-.67,2.03-1.35,3.14-2.01,1.04-.62,2.17-1.13,3.31-1.71s2-1.55,3.17-2.05,2.5-.37,3.7-.78,2.22-1.17,3.44-1.49,2.4-.65,3.64-.87,2.52.35,3.78.24,2.41-.92,3.68-.93c.95,0,1.86.73,2.77.77.95.04,1.86.07,2.76.14Z"/>
  </g>
  <g>
    <path class="cls-4" d="M63.3,73.76c-.04-1.76.6-1.33.67-3.51.03-1.01-1.06-2.26-.98-3.58.07-1.09,1.29-2.18,1.41-3.42.11-1.13-.73-2.42-.57-3.62s.78-2.25,1-3.42.75-2.24,1.03-3.38-.09-2.49.27-3.6,1.55-1.96,2.01-3c.5-1.11.33-2.55.94-3.5.67-1.03,1.65-1.83,2.48-2.6.88-.82,1.97-1.32,3.05-1.77s2.19-.53,3.35-.25c1.02.25,2.36.3,3.39.97.91.59,1.23,2.08,2.12,2.88.83.75,1.76,1.4,2.54,2.27s1.56,1.69,2.25,2.57c.74.94,1.9,1.52,2.53,2.41.73,1.03,1.32,2.07,1.86,2.91,1.12,1.74.76,1.56,1.6,3.05"/>
    <path class="cls-1" d="M63.3,73.76c-.04-1.76.6-1.33.67-3.51.03-1.01-1.06-2.26-.98-3.58.07-1.09,1.29-2.18,1.41-3.42.11-1.13-.73-2.42-.57-3.62s.78-2.25,1-3.42.75-2.24,1.03-3.38-.09-2.49.27-3.6,1.55-1.96,2.01-3c.5-1.11.33-2.55.94-3.5.67-1.03,1.65-1.83,2.48-2.6.88-.82,1.97-1.32,3.05-1.77s2.19-.53,3.35-.25c1.02.25,2.36.3,3.39.97.91.59,1.23,2.08,2.12,2.88.83.75,1.76,1.4,2.54,2.27s1.56,1.69,2.25,2.57c.74.94,1.9,1.52,2.53,2.41.73,1.03,1.32,2.07,1.86,2.91,1.12,1.74.76,1.56,1.6,3.05"/>
  </g>
  <g>
    <path class="cls-3" d="M77.35,78.78c-4.84,7.93,3.79,15.93,7.12,16.89,1.96.56,6.48,1.48,10.5-.01,2.84-1.05,5.09-3.19,6.1-7.92,1.01-4.72-3.15-10.1-8.74-12.54-5.12-2.24-11.48-2.16-14.98,3.59Z"/>
    <path class="cls-1" d="M77.35,78.78c-4.84,7.93,3.79,15.93,7.12,16.89,1.96.56,6.48,1.48,10.5-.01,2.84-1.05,5.09-3.19,6.1-7.92,1.01-4.72-3.15-10.1-8.74-12.54-5.12-2.24-11.48-2.16-14.98,3.59Z"/>
  </g>
  <g>
    <path class="cls-3" d="M106.22,88.03c-.35,5.47,5.28,12.26,15.62,8.97,4.54-1.44,6.51-4.61,7.66-7.71,1.46-3.95,1.26-8.22-.77-10.79-3.63-4.58-10.02-5.04-14.47-2.51s-7.64,5.98-8.03,12.03Z"/>
    <path class="cls-1" d="M106.22,88.03c-.35,5.47,5.28,12.26,15.62,8.97,4.54-1.44,6.51-4.61,7.66-7.71,1.46-3.95,1.26-8.22-.77-10.79-3.63-4.58-10.02-5.04-14.47-2.51s-7.64,5.98-8.03,12.03Z"/>
  </g>
  <circle class="cls-2" cx="94.5" cy="87.06" r="3.85"/>
  <circle class="cls-2" cx="113.65" cy="87.65" r="3.85"/>
  <g>
    <path class="cls-1" d="M44.36,76.69c1.16.42,1.01-.08,2.41.54.65.28,1.41.61,2.24,1.01.69.33,1.37.79,2.14,1.2.7.37,1.67.33,2.4.76.69.41,1.08,1.35,1.78,1.81s1.6.56,2.27,1.05,1.36.94,1.99,1.47.73,1.62,1.31,2.2,1.69.69,2.19,1.32.39,1.71.79,2.41"/>
    <path class="cls-1" d="M38.26,90.09c1.23.11.94-.19,2.47.05.7.11,1.66-.46,2.58-.27.75.15,1.52.58,2.38.8.76.19,1.42.96,2.25,1.21.77.22,1.58.39,2.39.67.77.26,1.64.29,2.43.6s1.64.39,2.41.74,1.32,1.08,2.06,1.47,1.37.92,2.08,1.36,1.62.58,2.28,1.07"/>
  </g>
  <g>
    <path class="cls-1" d="M133.09,94.82c.94-.78,1.24.09,2.47-.83.56-.42,1.03-1.16,1.79-1.7.62-.44,1.05-1.27,1.77-1.75.65-.43,1.78-.2,2.5-.65.67-.42,1.35-.86,2.08-1.29s1.25-1.08,1.98-1.48,1.47-.71,2.21-1.07,1.31-1.07,2.06-1.4,1.72-.13,2.48-.43,1.31-1.26,2.09-1.5"/>
    <path class="cls-1" d="M135.73,103.58c1.25-.39.79-.84,2.36-1.26.72-.19,1.57-.5,2.53-.73.79-.19,1.65-.4,2.56-.6.82-.17,1.88.68,2.77.51.84-.15,1.65-.55,2.53-.68s1.64-.87,2.52-.97,1.79.33,2.66.26,1.74-.12,2.61-.14,1.73.46,2.59.51"/>
  </g>
  <path d="M106.77,165.15s8.64,2.87,16.73-.47l.23-1.83s-7.56-.13-10.51-1.11-5.59-3.37-5.59-3.37l-.86,6.79Z"/>
  <path d="M77.11,166.06s2.71,2.34,8.19,1.1,10.48-1.88,10.48-1.88l.22-1.92s-7.19.11-10.26-1.18-7.67-1.29-7.67-1.29l-.95,5.17Z"/>
</svg>