<?xml version="1.0" encoding="UTF-8"?>
<svg id="_레이어_2" data-name="레이어 2" xmlns="http://www.w3.org/2000/svg" viewBox="0 0 200 200">
  <defs>
    <style>
      .cls-1 {
        stroke-width: 2.4px;
      }

      .cls-1, .cls-2 {
        fill: none;
        stroke-linecap: round;
        stroke-linejoin: round;
      }

      .cls-1, .cls-2, .cls-3 {
        stroke: #000;
      }

      .cls-2 {
        stroke-width: 2.4px;
      }

      .cls-4 {
        fill: #ffaf42;
      }

      .cls-5 {
        fill: #fdb2d2;
      }

      .cls-3 {
        stroke-miterlimit: 10;
        stroke-width: 1.2px;
      }

      .cls-6 {
        fill: #fff;
      }

      .cls-7 {
        fill: #d6eb76;
      }
    </style>
  </defs>
  <g>
    <path class="cls-4" d="M67.75,103.84c-1.52-1.18-1.34-.94-3.64-1.03-1.13-.05-2.47,1.07-3.87,1.08-1.24,0-2.57-.86-3.87-.78s-2.59.46-3.83.64c-1.37.2-2.49.97-3.6,1.34-1.45.48-3.18.35-3.82,1.21-.79,1.06-.96,2.54-1.24,3.75s-.3,2.56-.05,3.82,1.06,2.22,1.8,3.32c.68,1,.98,2.53,2.07,3.34.95.72,2.35,1.03,3.62,1.53,1.16.47,2.43.17,3.5.38,1.24.24,2.32.41,3.4.4,1.32-.01,2.4-.22,3.39-.43,2.07-.44,4.01,1.06,3.09-.44s-1.13-1.21-2.57-2.21-1.71-.61-3.18-1.59c.93.72,1.93,1.38,2.92,1.92s2.51.09,3.57.48,2.05,1.19,3.14,1.44c1.16.26,2.28.69,3.38.81,1.21.13,2.4.08,3.47.1,1.29.01,2.44-.37,3.44-.45,2.09-.17,3.27,1.5,2.85-.16s-.57-1.38-1.59-2.7-1.34-1.08-2.36-2.4-.65-1.62-1.67-2.94-1.03-1.32-2.06-2.65-.74-1.55-1.77-2.87-1.06-1.29-2.06-2.65-1.15-1.21-2.47-2.24Z"/>
    <path class="cls-1" d="M82.22,121.79c-1.69.37-1.25.54-3.35.71-.99.08-2.15.5-3.44.49-1.07-.01-2.28.09-3.48-.04-1.1-.12-2.15-.94-3.31-1.2-1.1-.24-2.17-.58-3.27-.98s-1.96-1.06-2.99-1.61-1.89-1.12-2.82-1.84"/>
    <path class="cls-1" d="M67.89,104.11c-1.92-.18-1.49-.94-3.79-1.04-1.13-.05-2.46,0-3.87,0-1.24,0-2.58-.26-3.88-.18s-2.63.32-3.87.5c-1.37.2-2.78.3-3.89.67-1.45.48-2.49,1.63-3.13,2.49-.79,1.06-1.53,2.23-1.81,3.44s.25,2.55.51,3.81.54,2.41,1.29,3.51c.68,1,1.66,1.75,2.75,2.56.95.72,2.07,1.14,3.34,1.65,1.15.46,2.09,1.26,3.15,1.47,1.23.25,2.41.54,3.48.54,1.31,0,2.45-.56,3.43-.75,2.06-.41,1.79-.07,3.34-.87"/>
    <path d="M68.62,105.65s-.21,15.18.65,17.52l13.03-1.03-4.66-5.28-6.86-6.17-2.16-5.04Z"/>
    <path class="cls-4" d="M101.85,147.73c-1.21.23-2.73.38-3.94.52s-2.41.76-3.62.83-2.5-.68-3.69-.68c-1.27,0-2.5.4-3.68.34-1.3-.06-2.51-.42-3.64-.52-1.37-.12-2.65.12-3.69-.02-2.25-.3-5.36-1.22-3.57-.87,1.48.29,1.42.57,2.9.87s1.41.63,2.89.93,1.56-.32,2.84.49c-1.18.54-2.33.14-3.53.52s-2.4.78-3.63,1.02-2.51.29-3.75.38c-1.32.1-2.55.33-3.77.27-1.36-.07-2.56-.35-3.72-.6-1.39-.3-2.96.23-3.96-.28-1.38-.7-1.76-2.19-2.15-3.19-.51-1.3-.83-2.46-.87-3.74s-.54-2.78.23-4.03c.59-.96,1.71-1.9,2.96-2.85.92-.7,2.16-1.27,3.51-1.96.99-.51,1.95-1.26,3.03-1.65s2.38-.02,3.48-.3,2.27-.23,3.36-.42c1.17-.21,2.17-1.26,3.23-1.39,1.25-.15,2.47.43,3.45.36,2.06-.14,2.2-1.79,3.59-.81,1.55,1.09,1.3,1.49,2.61,2.87s1.23,1.45,2.53,2.84.92,1.75,2.23,3.13,1.74.98,3.04,2.36,1.12,1.53,2.62,2.7c1.58,1.23,1.9,1.17,2.71,2.89Z"/>
    <path class="cls-1" d="M85.89,131.53c-1.7,0-1.34-.45-3.41-.31-.98.07-2.15.07-3.41.22-1.06.13-2.2.38-3.37.59-1.09.2-2.13.8-3.25,1.08s-2.39,0-3.46.38-2.13.96-3.13,1.47c-1.35.69-2.54,1.39-3.46,2.09-1.25.95-2.41,1.88-3,2.85-.77,1.25-1.13,2.83-1.09,4.11s.57,2.7,1.08,3.99c.39.99,1.87,1.48,3.25,2.17,1,.51,2.12,1.11,3.51,1.41,1.16.25,2.41.85,3.76.92,1.22.07,2.49-.76,3.82-.86,1.24-.09,2.44-.33,3.73-.58s2.47-.34,3.71-.73,2.38-.78,3.56-1.32"/>
    <path class="cls-1" d="M76.01,147.34c1.8.37,1.29.72,3.55,1.02,1.04.14,2.26.6,3.63.72,1.13.1,2.39.17,3.69.23,1.17.05,2.43-.54,3.7-.55,1.19,0,2.4-.44,3.65-.51s2.42-.03,3.65-.17,2.56.49,3.77.25"/>
    <polygon points="101.07 148.16 93.18 140.83 93.1 138.09 89.63 136.77 88.18 137.17 88.38 141.27 90.63 149.29 101.07 148.16"/>
    <g>
      <path class="cls-4" d="M98.88,83.83c-.84-.2-1.69-.4-2.48-.66s-1.66-.54-2.43-.85-1.45-.99-2.19-1.37-1.35-1.07-2.06-1.51-1.65-.61-2.31-1.12-1.56-.83-2.18-1.39-1.17-1.29-1.74-1.91-.73-1.62-1.24-2.29-1.34-1.14-1.8-1.84-.74-1.55-1.14-2.29-.22-1.76-.57-2.53-1.04-1.38-1.33-2.17-.77-1.53-1.01-2.34.17-1.78,0-2.6-1.35-1.48-1.48-2.3.61-1.79.54-2.63-.71-1.67-.73-2.5.25-1.71.29-2.54c.04-.87.34-1.68.45-2.49.11-.88.07-1.8.04-2.64-.03-.9-.2-1.79-.36-2.61-.18-.89-1.09-1.49-1.4-2.26-.34-.86.14-2.1-.32-2.76-.54-.78-1.84-.7-2.49-1.15-.77-.54-1.32-1.77-2.14-1.72s-1.5.89-2.24,1.14-1.29.76-1.95,1.22-1.7.43-2.24,1.05c-.5.57-.6,1.5-1.01,2.22-.37.66-.37,1.49-.66,2.27-.27.71-1.48,1.17-1.67,1.98-.18.74-.11,1.61-.23,2.43-.11.76-.25,1.57-.3,2.4-.05.77.35,1.66.35,2.6,0,.81-.36,1.68-.32,2.59.04.82.62,1.65.71,2.54.08.83.4,1.64.54,2.52.13.83-.14,1.74.04,2.61s.13,1.73.35,2.58.14,1.76.41,2.6.68,1.61.99,2.42,1.27,1.33,1.63,2.13.13,1.85.54,2.62,1.22,1.29,1.68,2.03,1.17,1.27,1.67,1.98.89,1.45,1.43,2.14.83,1.54,1.42,2.18,1.44.98,2.07,1.59,1.36,1.01,2.03,1.59.94,1.54,1.63,2.08,1.53.81,2.25,1.3,1.57.7,2.32,1.16"/>
      <path class="cls-1" d="M98.88,83.83c-.84-.2-1.69-.4-2.48-.66s-1.66-.54-2.43-.85-1.45-.99-2.19-1.37-1.35-1.07-2.06-1.51-1.65-.61-2.31-1.12-1.56-.83-2.18-1.39-1.17-1.29-1.74-1.91-.73-1.62-1.24-2.29-1.34-1.14-1.8-1.84-.74-1.55-1.14-2.29-.22-1.76-.57-2.53-1.04-1.38-1.33-2.17-.77-1.53-1.01-2.34.17-1.78,0-2.6-1.35-1.48-1.48-2.3.61-1.79.54-2.63-.71-1.67-.73-2.5.25-1.71.29-2.54c.04-.87.34-1.68.45-2.49.11-.88.07-1.8.04-2.64-.03-.9-.2-1.79-.36-2.61-.18-.89-1.09-1.49-1.4-2.26-.34-.86.14-2.1-.32-2.76-.54-.78-1.84-.7-2.49-1.15-.77-.54-1.32-1.77-2.14-1.72s-1.5.89-2.24,1.14-1.29.76-1.95,1.22-1.7.43-2.24,1.05c-.5.57-.6,1.5-1.01,2.22-.37.66-.37,1.49-.66,2.27-.27.71-1.48,1.17-1.67,1.98-.18.74-.11,1.61-.23,2.43-.11.76-.25,1.57-.3,2.4-.05.77.35,1.66.35,2.6,0,.81-.36,1.68-.32,2.59.04.82.62,1.65.71,2.54.08.83.4,1.64.54,2.52.13.83-.14,1.74.04,2.61s.13,1.73.35,2.58.14,1.76.41,2.6.68,1.61.99,2.42,1.27,1.33,1.63,2.13.13,1.85.54,2.62,1.22,1.29,1.68,2.03,1.17,1.27,1.67,1.98.89,1.45,1.43,2.14.83,1.54,1.42,2.18,1.44.98,2.07,1.59,1.36,1.01,2.03,1.59.94,1.54,1.63,2.08,1.53.81,2.25,1.3,1.57.7,2.32,1.16"/>
    </g>
    <g>
      <path class="cls-6" d="M171.47,77.4c1.9-.11,1.53.26,3.81.28,1.11,0,2.43-.5,3.82-.43,1.21.07,2.52.13,3.82.28s2.5.62,3.74.86,2.56.52,3.72.9c1.28.43,2.27,1.35,3.26,1.98,1.16.74,2.17,1.46,2.7,2.53.49,1,.14,2.11-.02,3.41-.13,1.07-.04,2.26-.53,3.45-.43,1.03-1.23,1.93-1.87,3.01-.59.99-.63,2.4-1.36,3.38s-2.2,1.25-2.99,2.15-1.58,1.73-2.43,2.55-1.29,2.13-2.19,2.87c-1.01.83-1.96,1.69-2.96,2.34-1.12.73-2.54.79-3.57,1.32-1.25.65-2.43,1-3.43,1.39-2.15.85-1.61.9-3.44,1.3"/>
      <path class="cls-1" d="M171.47,77.4c1.9-.11,1.53.26,3.81.28,1.11,0,2.43-.5,3.82-.43,1.21.07,2.52.13,3.82.28s2.5.62,3.74.86,2.56.52,3.72.9c1.28.43,2.27,1.35,3.26,1.98,1.16.74,2.17,1.46,2.7,2.53.49,1,.14,2.11-.02,3.41-.13,1.07-.04,2.26-.53,3.45-.43,1.03-1.23,1.93-1.87,3.01-.59.99-.63,2.4-1.36,3.38s-2.2,1.25-2.99,2.15-1.58,1.73-2.43,2.55-1.29,2.13-2.19,2.87c-1.01.83-1.96,1.69-2.96,2.34-1.12.73-2.54.79-3.57,1.32-1.25.65-2.43,1-3.43,1.39-2.15.85-1.61.9-3.44,1.3"/>
    </g>
    <g>
      <path class="cls-6" d="M173.83,76.51c.75,1,2.33,1.44,2.96,2.5s.93,2.37,1.46,3.49.91,2.33,1.32,3.5.23,2.51.52,3.71,1.06,2.31,1.23,3.54.15,2.48.19,3.72-.13,2.47-.21,3.71-.55,2.4-.75,3.63.1,2.54-.22,3.74-.65,2.4-1.09,3.57-.54,2.5-1.09,3.62-2.05,1.69-2.71,2.75-.66,2.55-1.42,3.54-1.71,1.83-2.57,2.74c-.09.09.1.46,0,.55-.81.84-1.79,1.6-2.65,2.58-.78.9-1.67,1.77-2.5,2.75-.78.92-1.86,1.63-2.7,2.59s-1.43,2.02-2.29,2.94-1.49,2.01-2.39,2.89-1.85,1.68-2.8,2.5-2,1.28-2.86,1.96c-.94.75-1.96,1.29-2.84,1.95-.95.71-1.8,1.48-2.7,2.14s-1.79,1.44-2.69,2.13-2.22.87-3.11,1.61-1.26,1.98-2.12,2.8c-.8.75-1.73,1.42-2.55,2.3-.91.97-1.86,1.79-2.63,2.7-.86,1.02-1.81,1.87-2.53,2.8-.83,1.06-1.34,2.25-2.05,3.17-.84,1.08-1.3,2.33-2.07,3.19-.91,1.01-2.04,1.69-3.01,2.35-1.04.7-2.25.92-3.55,1.15-1.1.19-2.34.68-3.76.49-1.33-.18-2.26-1.23-3.24-1.57-1.28-.44-2.5-.47-3.3-1.14-.95-.8-1.27-1.94-1.76-2.99s-1.43-1.94-1.7-3.14c-.25-1.1-.63-2.23-.88-3.43-.28-1.34.06-2.55-.2-3.47-.38-1.31-.97-2.2-1.52-3.06s-1.18-1.7-2.17-2.62c-.7-.65-1.27-1.71-2.3-2.59-1.19-1.02-2.36-1.63-3.31-1.99-1.3-.5-2.4-.67-3.55-1.13-.95-.38-1.63-.94-2.7-2.16-.66-.75-2.11-1.17-2.89-2.49-.65-1.1-1.14-2.54-1.26-3.97-.11-1.25-.18-2.62-.23-4.03-.05-1.29.52-2.67.24-4.03-.25-1.26-.74-2.51-1.39-3.76-.5-.97-1.25-1.84-2.12-2.68-.79-.76-1.9-1.2-2.86-1.89s-1.44-1.98-2.4-2.6-2.48-.5-3.39-1.12c-1.03-.7-1.95-1.51-2.71-2.22-.98-.91-1.67-2.05-1.88-3.04-.27-1.26-.29-2.45-.6-3.48-.38-1.25-1.15-2.19-1.59-3.15-.55-1.21-1.24-2.06-1.84-2.92-.77-1.1-1.5-1.83-2.27-2.54-.98-.9-1.76-1.71-2.58-2.37-.96-.78-1.46-1.86-1.94-2.99-.37-.88-.2-1.93-.12-3.42.06-1.25.19-2.44.69-3.65s1.13-2.18,1.96-3.19,1.55-1.98,2.62-2.73c1.02-.72,1.98-1.73,3.22-2.19,1.16-.43,2.5-.72,3.82-.87,1.22-.14,2.57-.11,3.9.03,1.21.13,2.29.8,3.35.86,1.22.08,2.37-.19,3.43-.2,1.22-.01,2.28-.54,3.34-.68,1.18-.16,2.24-.22,3.3-.55s2.19-.49,3.23-1.03c.96-.5,2.09-.82,3.09-1.5.83-.56,1.6-1.65,2.72-2.58.87-.72,1.85-1.49,2.88-2.35.9-.75,1.93-1.45,2.96-2.26.94-.74,1.58-1.97,2.62-2.72.98-.71,2.46-.75,3.53-1.44s1.64-2.06,2.74-2.68,2.69-.17,3.82-.71,1.96-1.67,3.14-2.1,2.28-1.1,3.49-1.41,2.58.24,3.82.05,2.4-.5,3.66-.54c1.87-.06,1.43-.76,3.77-.59,1.06.08,2.33.26,3.73.45,1.14.15,2.35.59,3.67.84,1.16.23,2.18,1.33,3.45,1.65,1.16.3,2.46.23,3.68.62,1.15.37,2.32.77,3.51,1.23s2.23,1.02,3.38,1.57,2.45.64,3.55,1.26,1.81,1.77,2.86,2.47,2.27,1.07,3.26,1.85,1.96,1.53,2.88,2.4,1.22,2.23,2.07,3.18c.63.71,1.81.92,2.38,1.62.6.74.63,1.89,1.17,2.61Z"/>
      <path class="cls-1" d="M173.83,76.51c.75,1,2.33,1.44,2.96,2.5s.93,2.37,1.46,3.49.91,2.33,1.32,3.5.23,2.51.52,3.71,1.06,2.31,1.23,3.54.15,2.48.19,3.72-.13,2.47-.21,3.71-.55,2.4-.75,3.63.1,2.54-.22,3.74-.65,2.4-1.09,3.57-.54,2.5-1.09,3.62-2.05,1.69-2.71,2.75-.66,2.55-1.42,3.54-1.71,1.83-2.57,2.74c-.09.09.1.46,0,.55-.81.84-1.79,1.6-2.65,2.58-.78.9-1.67,1.77-2.5,2.75-.78.92-1.86,1.63-2.7,2.59s-1.43,2.02-2.29,2.94-1.49,2.01-2.39,2.89-1.85,1.68-2.8,2.5-2,1.28-2.86,1.96c-.94.75-1.96,1.29-2.84,1.95-.95.71-1.8,1.48-2.7,2.14s-1.79,1.44-2.69,2.13-2.22.87-3.11,1.61-1.26,1.98-2.12,2.8c-.8.75-1.73,1.42-2.55,2.3-.91.97-1.86,1.79-2.63,2.7-.86,1.02-1.81,1.87-2.53,2.8-.83,1.06-1.34,2.25-2.05,3.17-.84,1.08-1.3,2.33-2.07,3.19-.91,1.01-2.04,1.69-3.01,2.35-1.04.7-2.25.92-3.55,1.15-1.1.19-2.34.68-3.76.49-1.33-.18-2.26-1.23-3.24-1.57-1.28-.44-2.5-.47-3.3-1.14-.95-.8-1.27-1.94-1.76-2.99s-1.43-1.94-1.7-3.14c-.25-1.1-.63-2.23-.88-3.43-.28-1.34.06-2.55-.2-3.47-.38-1.31-.97-2.2-1.52-3.06s-1.18-1.7-2.17-2.62c-.7-.65-1.27-1.71-2.3-2.59-1.19-1.02-2.36-1.63-3.31-1.99-1.3-.5-2.4-.67-3.55-1.13-.95-.38-1.63-.94-2.7-2.16-.66-.75-2.11-1.17-2.89-2.49-.65-1.1-1.14-2.54-1.26-3.97-.11-1.25-.18-2.62-.23-4.03-.05-1.29.52-2.67.24-4.03-.25-1.26-.74-2.51-1.39-3.76-.5-.97-1.25-1.84-2.12-2.68-.79-.76-1.9-1.2-2.86-1.89s-1.44-1.98-2.4-2.6-2.48-.5-3.39-1.12c-1.03-.7-1.95-1.51-2.71-2.22-.98-.91-1.67-2.05-1.88-3.04-.27-1.26-.29-2.45-.6-3.48-.38-1.25-1.15-2.19-1.59-3.15-.55-1.21-1.24-2.06-1.84-2.92-.77-1.1-1.5-1.83-2.27-2.54-.98-.9-1.76-1.71-2.58-2.37-.96-.78-1.46-1.86-1.94-2.99-.37-.88-.2-1.93-.12-3.42.06-1.25.19-2.44.69-3.65s1.13-2.18,1.96-3.19,1.55-1.98,2.62-2.73c1.02-.72,1.98-1.73,3.22-2.19,1.16-.43,2.5-.72,3.82-.87,1.22-.14,2.57-.11,3.9.03,1.21.13,2.29.8,3.35.86,1.22.08,2.37-.19,3.43-.2,1.22-.01,2.28-.54,3.34-.68,1.18-.16,2.24-.22,3.3-.55s2.19-.49,3.23-1.03c.96-.5,2.09-.82,3.09-1.5.83-.56,1.6-1.65,2.72-2.58.87-.72,1.85-1.49,2.88-2.35.9-.75,1.93-1.45,2.96-2.26.94-.74,1.58-1.97,2.62-2.72.98-.71,2.46-.75,3.53-1.44s1.64-2.06,2.74-2.68,2.69-.17,3.82-.71,1.96-1.67,3.14-2.1,2.28-1.1,3.49-1.41,2.58.24,3.82.05,2.4-.5,3.66-.54c1.87-.06,1.43-.76,3.77-.59,1.06.08,2.33.26,3.73.45,1.14.15,2.35.59,3.67.84,1.16.23,2.18,1.33,3.45,1.65,1.16.3,2.46.23,3.68.62,1.15.37,2.32.77,3.51,1.23s2.23,1.02,3.38,1.57,2.45.64,3.55,1.26,1.81,1.77,2.86,2.47,2.27,1.07,3.26,1.85,1.96,1.53,2.88,2.4,1.22,2.23,2.07,3.18c.63.71,1.81.92,2.38,1.62.6.74.63,1.89,1.17,2.61Z"/>
    </g>
    <g>
      <path class="cls-6" d="M125.5,56.87c1.54-1.08,1.43-.46,3.39-1.7.91-.58,1.63-1.85,2.84-2.57,1.01-.6,2.66-.25,3.82-.89,1.06-.58,1.63-2.22,2.78-2.8s2.66-.23,3.82-.75,2.32-.91,3.49-1.36,2.15-1.53,3.32-1.88c1.24-.37,2.56-.31,3.75-.53,1.3-.24,2.52-.9,3.7-.91,1.33-.01,2.72.07,3.85.42,1.23.38,1.96,1.64,2.86,2.53s1.15,1.85,1.47,3.05c.29,1.12.82,2.21.76,3.47-.06,1.18-.36,2.36-.62,3.55s-.21,2.5-.58,3.61c-.42,1.25-1.21,2.28-1.64,3.27-.85,1.97-.34,1.86-1.21,3.44"/>
      <path class="cls-1" d="M125.5,56.87c1.54-1.08,1.43-.46,3.39-1.7.91-.58,1.63-1.85,2.84-2.57,1.01-.6,2.66-.25,3.82-.89,1.06-.58,1.63-2.22,2.78-2.8s2.66-.23,3.82-.75,2.32-.91,3.49-1.36,2.15-1.53,3.32-1.88c1.24-.37,2.56-.31,3.75-.53,1.3-.24,2.52-.9,3.7-.91,1.33-.01,2.72.07,3.85.42,1.23.38,1.96,1.64,2.86,2.53s1.15,1.85,1.47,3.05c.29,1.12.82,2.21.76,3.47-.06,1.18-.36,2.36-.62,3.55s-.21,2.5-.58,3.61c-.42,1.25-1.21,2.28-1.64,3.27-.85,1.97-.34,1.86-1.21,3.44"/>
    </g>
    <g>
      <path class="cls-4" d="M131.48,72.04c-8.95,2.46-8.15,14.2-6.38,17.18,1.04,1.75,3.71,5.52,7.65,7.18,2.79,1.18,5.9,1.16,9.87-1.59,3.97-2.75,4.62-9.51,2.22-15.12-2.2-5.14-6.88-9.43-13.37-7.65Z"/>
      <path class="cls-1" d="M131.48,72.04c-8.95,2.46-8.15,14.2-6.38,17.18,1.04,1.75,3.71,5.52,7.65,7.18,2.79,1.18,5.9,1.16,9.87-1.59,3.97-2.75,4.62-9.51,2.22-15.12-2.2-5.14-6.88-9.43-13.37-7.65Z"/>
    </g>
    <g>
      <path class="cls-4" d="M146.19,98.56c-4,3.74-4.55,12.55,5.23,17.24,4.3,2.06,7.91,1.1,10.86-.37,3.77-1.87,6.55-5.13,6.83-8.39.5-5.82-3.85-10.54-8.82-11.74-4.97-1.2-9.66-.88-14.1,3.27Z"/>
      <path class="cls-1" d="M146.19,98.56c-4,3.74-4.55,12.55,5.23,17.24,4.3,2.06,7.91,1.1,10.86-.37,3.77-1.87,6.55-5.13,6.83-8.39.5-5.82-3.85-10.54-8.82-11.74-4.97-1.2-9.66-.88-14.1,3.27Z"/>
    </g>
    <circle class="cls-3" cx="138.31" cy="89.83" r="3.85"/>
    <circle class="cls-3" cx="151.85" cy="103.37" r="3.85"/>
    <g>
      <path class="cls-1" d="M97.53,53.32c1.16.4,1.1-.27,2.52.31.65.27,1.23,1.05,2.07,1.43.69.32,1.72.11,2.5.5.7.36,1.04,1.49,1.78,1.91.7.39,1.68.35,2.39.79s1.08,1.33,1.76,1.8,1.23,1.06,1.86,1.58,1.8.45,2.39,1.01,1.08,1.3,1.59,1.92.39,1.72.81,2.41"/>
      <path class="cls-1" d="M86.55,68.26c1.23-.17.96-.12,2.51-.22.7-.05,1.59.85,2.53.82.76-.02,1.59-.72,2.47-.71.79.01,1.61.34,2.48.39.8.04,1.65-.14,2.5-.05.8.08,1.59.48,2.43.61s1.61.34,2.43.51,1.73-.11,2.54.1,1.57.59,2.36.86,1.41.95,2.17,1.28"/>
    </g>
    <g>
      <path class="cls-1" d="M171.46,118.17c1.29.05,1.01-.16,2.5.22.73.19,1.6.29,2.47.68.74.33,1.82.27,2.56.79.67.47,1.22,1.36,1.77,2.1.51.68,1.13,1.36,1.62,2.09s.52,1.83,1.08,2.44"/>
      <path class="cls-1" d="M165.39,123.13c1.07.94,1.2.3,2.47,1.53.59.57.96,1.57,1.71,2.33.62.63,1.52,1.11,2.2,1.86.62.67,1.42,1.26,2.07,2.01.57.66.79,1.62,1.17,2.33.41.76.82,1.53,1.08,2.31.27.82.67,1.62.85,2.4.2.86-.14,1.8.05,2.56"/>
    </g>
    <path class="cls-2" d="M108.07,98.69c-1.66,1.08-1.48.79-3.5,1.67-1.13.49-2.16,1.83-3.48,2.08s-2.89.18-4.09-.18-1.75-1.38-2.39-1.95c-.85-.76-2.04-1.33-2.26-2.25-.26-1.07-.04-2.33.09-3.22.17-1.16,1.78-1.57,3.17-1.77,1.26-.18,2.49-.47,3.32-.87,1.74-.83,1.83-1.08,3.32-2.8"/>
    <path class="cls-2" d="M145.15,134.57c-1.24,1.29-1.27.77-3.09,1.87-.89.54-1.86,1.33-3.11,1.77-1.05.36-2.23.86-3.5,1-1.41.15-2.62-.73-3.68-.85-1.48-.17-2.56-.23-3.39-.85-1.03-.78-1.65-1.7-1.74-3.01-.1-1.62,1.3-1.85,2.85-2.32,1.42-.42,2.88-1.17,3.8-1.94.74-.62,1.21-1.65,1.82-2.51"/>
  </g>
  <path class="cls-1" d="M34.72,65.74c1.66,0,1.66-.7,3.32-.7s1.66.35,3.32.35,1.66-.54,3.32-.54,1.66-.04,3.33-.04,1.66.29,3.33.29"/>
  <path class="cls-2" d="M33.19,77.39c1.65-.02,1.66.95,3.32.94s1.66-.02,3.31-.04,1.65-.7,3.3-.72c1.53-.02,1.52-.16,3.05-.18s1.54.64,3.06.62,1.53.13,3.06.12"/>
  <path class="cls-2" d="M23.3,71.9c1.72.02,1.72-.68,3.44-.67s1.72.36,3.44.38,1.73-.53,3.45-.51c2.2.02,2.2-.01,4.39,0s2.19.31,4.39.33"/>
  <path class="cls-2" d="M31.68,135.07c1.86.08,1.82,1.05,3.68,1.12s1.86.07,3.72.15c1.43.06,1.46-.62,2.89-.56s1.44-.09,2.87-.03c2.68.11,2.65.76,5.33.87"/>
  <path class="cls-2" d="M16.18,143.15c1.81-.01,1.81-.71,3.62-.73s1.82.33,3.63.32,1.81-.56,3.62-.57,1.82-.05,3.63-.06,1.82.28,3.64.26,1.81-.07,3.63-.08,1.82.44,3.63.42"/>
  <g>
    <path d="M74.94,186.12c0-.72.08-1.67,1.14-2.27.67-.38,1.6-.69,2.59-.99.79-.24,1.64-.8,2.61-.98.84-.16,1.89.56,2.83.45.87-.1,1.74-.49,2.68-.54.88-.05,1.8-.51,2.73-.51s1.82.84,2.71.89c.94.05,1.83.1,2.7.2.95.11,1.89-.07,2.73.09.96.18,1.83.46,2.63.7,1,.3,2.03.3,2.69.68,1.05.6,1.26,1.57,1.26,2.29,0,.97.16,2.35-.85,3.18-.67.55-1.87.88-3.14,1.25-.89.26-1.95.79-3.18.92-.96.1-2.1-.5-3.29-.5-.71,0-1.76.61-2.9.52-.9-.07-1.8-1.13-2.77-1.23s-1.97-.18-2.85-.29c-1.19-.14-2.3.39-2.93.29-1.09-.17-2-.84-2.9-1.09-1.13-.31-2.41.01-3.17-.38-1.24-.64-1.31-1.9-1.31-2.69Z"/>
    <path class="cls-1" d="M74.94,186.12c0-.72.08-1.67,1.14-2.27.67-.38,1.6-.69,2.59-.99.79-.24,1.64-.8,2.61-.98.84-.16,1.89.56,2.83.45.87-.1,1.74-.49,2.68-.54.88-.05,1.8-.51,2.73-.51s1.82.84,2.71.89c.94.05,1.83.1,2.7.2.95.11,1.89-.07,2.73.09.96.18,1.83.46,2.63.7,1,.3,2.03.3,2.69.68,1.05.6,1.26,1.57,1.26,2.29,0,.97.16,2.35-.85,3.18-.67.55-1.87.88-3.14,1.25-.89.26-1.95.79-3.18.92-.96.1-2.1-.5-3.29-.5-.71,0-1.76.61-2.9.52-.9-.07-1.8-1.13-2.77-1.23s-1.97-.18-2.85-.29c-1.19-.14-2.3.39-2.93.29-1.09-.17-2-.84-2.9-1.09-1.13-.31-2.41.01-3.17-.38-1.24-.64-1.31-1.9-1.31-2.69Z"/>
  </g>
  <g>
    <path class="cls-5" d="M25.21,36.01c0,1.2-.72,2.24-.9,3.28-.22,1.26-.24,2.34-.67,3.22-.64,1.34-1.23,1.71-2.15,1.71s-1.85-.2-2.49-1.54c-.42-.88-.88-1.99-1.1-3.24-.18-1.04.08-2.22.08-3.42s.16-2.3.35-3.34c.22-1.26.21-2.47.63-3.34.64-1.34,1.62-2.51,2.54-2.51s1.74,1.25,2.39,2.59c.42.88.98,1.94,1.2,3.19.18,1.04.13,2.22.13,3.42Z"/>
    <path class="cls-1" d="M25.21,36.01c0,1.2-.72,2.24-.9,3.28-.22,1.26-.24,2.34-.67,3.22-.64,1.34-1.23,1.71-2.15,1.71s-1.85-.2-2.49-1.54c-.42-.88-.88-1.99-1.1-3.24-.18-1.04.08-2.22.08-3.42s.16-2.3.35-3.34c.22-1.26.21-2.47.63-3.34.64-1.34,1.62-2.51,2.54-2.51s1.74,1.25,2.39,2.59c.42.88.98,1.94,1.2,3.19.18,1.04.13,2.22.13,3.42Z"/>
  </g>
  <g>
    <path class="cls-5" d="M24.58,59.73c0,1.57.04,2.9-.43,4.06-.67,1.67-1.46,2.29-2.66,2.29s-2.35-.48-3.02-2.15c-.47-1.16-.86-2.64-.86-4.21s.63-2.95,1.09-4.11c.67-1.67,1.59-2.59,2.79-2.59s2.4.8,3.07,2.47c.47,1.16.02,2.66.02,4.22Z"/>
    <path class="cls-1" d="M24.58,59.73c0,1.57.04,2.9-.43,4.06-.67,1.67-1.46,2.29-2.66,2.29s-2.35-.48-3.02-2.15c-.47-1.16-.86-2.64-.86-4.21s.63-2.95,1.09-4.11c.67-1.67,1.59-2.59,2.79-2.59s2.4.8,3.07,2.47c.47,1.16.02,2.66.02,4.22Z"/>
  </g>
  <g>
    <path class="cls-5" d="M32.89,50.44c-1.17,0-2.18.16-3.07-.09-1.43-.4-1.88-.8-1.88-1.55s.35-1.52,1.78-1.93c.89-.25,2.01-.52,3.18-.52s2.22.51,3.11.76c1.43.4,2.19.93,2.19,1.69s-.68,1.57-2.11,1.97c-.89.25-2.02-.33-3.19-.33Z"/>
    <path class="cls-1" d="M32.89,50.44c-1.17,0-2.18.16-3.07-.09-1.43-.4-1.88-.8-1.88-1.55s.35-1.52,1.78-1.93c.89-.25,2.01-.52,3.18-.52s2.22.51,3.11.76c1.43.4,2.19.93,2.19,1.69s-.68,1.57-2.11,1.97c-.89.25-2.02-.33-3.19-.33Z"/>
  </g>
  <g>
    <path class="cls-7" d="M29,163.67c-1.69,0-2.77-.79-2.77-2.49s1.08-2.51,2.77-2.51,3.15.81,3.15,2.51-1.47,2.49-3.15,2.49Z"/>
    <path class="cls-1" d="M29,163.67c-1.69,0-2.77-.79-2.77-2.49s1.08-2.51,2.77-2.51,3.15.81,3.15,2.51-1.47,2.49-3.15,2.49Z"/>
  </g>
  <g>
    <path class="cls-5" d="M48.06,177.33c.11-.91.33-1.35,1.24-1.24s1.05.58.94,1.5-.39,1.73-1.31,1.62-.98-.97-.87-1.88Z"/>
    <path class="cls-1" d="M48.06,177.33c.11-.91.33-1.35,1.24-1.24s1.05.58.94,1.5-.39,1.73-1.31,1.62-.98-.97-.87-1.88Z"/>
  </g>
  <g>
    <path class="cls-7" d="M65.92,162.84c-1.17,0-2.18.16-3.07-.09-1.43-.4-1.88-.8-1.88-1.55s.35-1.52,1.78-1.93c.89-.25,2.01-.52,3.18-.52s2.22.51,3.11.76c1.43.4,2.19.93,2.19,1.69s-.68,1.57-2.11,1.97c-.89.25-2.02-.33-3.19-.33Z"/>
    <path class="cls-1" d="M65.92,162.84c-1.17,0-2.18.16-3.07-.09-1.43-.4-1.88-.8-1.88-1.55s.35-1.52,1.78-1.93c.89-.25,2.01-.52,3.18-.52s2.22.51,3.11.76c1.43.4,2.19.93,2.19,1.69s-.68,1.57-2.11,1.97c-.89.25-2.02-.33-3.19-.33Z"/>
  </g>
  <g>
    <path class="cls-5" d="M8.95,51.61c-1.46,0-2.65-.79-3.76-1.1-1.78-.5-2.82-.77-2.82-1.72s1.03-1.24,2.82-1.74c1.11-.31,2.31-1.14,3.77-1.14s2.87.08,3.98.39c1.78.5,2.74,1.54,2.74,2.49s-1.08,1.57-2.86,2.07c-1.11.31-2.41.75-3.86.75Z"/>
    <path class="cls-1" d="M8.95,51.61c-1.46,0-2.65-.79-3.76-1.1-1.78-.5-2.82-.77-2.82-1.72s1.03-1.24,2.82-1.74c1.11-.31,2.31-1.14,3.77-1.14s2.87.08,3.98.39c1.78.5,2.74,1.54,2.74,2.49s-1.08,1.57-2.86,2.07c-1.11.31-2.41.75-3.86.75Z"/>
  </g>
  <g>
    <path class="cls-7" d="M48.08,146.92c0-1.46.79-2.65,1.1-3.76.5-1.78.77-2.82,1.72-2.82s1.24,1.03,1.74,2.82c.31,1.11,1.14,2.31,1.14,3.77s-.08,2.87-.39,3.98c-.5,1.78-1.54,2.74-2.49,2.74s-1.57-1.08-2.07-2.86c-.31-1.11-.75-2.41-.75-3.86Z"/>
    <path class="cls-1" d="M48.08,146.92c0-1.46.79-2.65,1.1-3.76.5-1.78.77-2.82,1.72-2.82s1.24,1.03,1.74,2.82c.31,1.11,1.14,2.31,1.14,3.77s-.08,2.87-.39,3.98c-.5,1.78-1.54,2.74-2.49,2.74s-1.57-1.08-2.07-2.86c-.31-1.11-.75-2.41-.75-3.86Z"/>
  </g>
</svg>