<?xml version="1.0" encoding="UTF-8"?>
<svg id="_레이어_1" data-name="레이어 1" xmlns="http://www.w3.org/2000/svg" viewBox="0 0 200 200">
  <defs>
    <style>
      .cls-1 {
        stroke-width: 2.4px;
      }

      .cls-1, .cls-2 {
        fill: none;
        stroke-linecap: round;
        stroke-linejoin: round;
      }

      .cls-1, .cls-2, .cls-3 {
        stroke: #000;
      }

      .cls-2 {
        stroke-width: 2.4px;
      }

      .cls-4 {
        fill: #ffaf42;
      }

      .cls-3 {
        stroke-miterlimit: 10;
        stroke-width: 1.2px;
      }

      .cls-5 {
        fill: #fff;
      }
    </style>
  </defs>
  <g>
    <path class="cls-4" d="M142.86,133.2c1.21.86,1.02.58,2.34,1.74.66.58,1.8.84,2.55,1.61.66.69,1.37,1.44,1.98,2.24s1.41,1.56,1.84,2.43c.46.93.55,2.06.66,3s.35,2.21-.06,3.16c-.45,1.02-1.22,1.88-1.76,2.75-.59.97-1.15,1.94-1.77,2.72-.75.93-1.73,1.54-2.39,2.19-1.39,1.35-2.11.42-2.51,1.97-.33,1.28.2,1.11.77,2.53.3.74.55,1.53.73,2.45.16.85,1.22,1.71,1.14,2.61s-1.02,1.58-1.45,2.39c-.39.72-.88,1.36-1.64,1.97-.86.69-1.57,1.33-2.35,1.62-.99.37-1.97.61-2.87.45s-1.48-1.09-2.33-1.7c-.72-.51-2.07-.46-2.77-1.23-.6-.67-1.24-1.46-1.84-2.29-.54-.74-.82-1.74-1.36-2.59s-.48-2.07-1.03-2.81c-.61-.82-1.87-1.07-2.42-1.79-.64-.82-.56-2.04-1.03-2.78-.56-.89-1.2-1.51-1.37-2.39s0-1.65.43-2.65c.32-.75.43-1.79,1.18-2.65,1.52-1.18,2.53-.27,3.03-2.13.41-1.55-.84-1.14-1.78-2.43s-1.11-1.18-2.05-2.47-.43-1.67-1.38-2.97-1.41-.96-2.36-2.25"/>
    <path class="cls-2" d="M142.86,133.2c1.21.86,1.02.58,2.34,1.74.66.58,1.8.84,2.55,1.61.66.69,1.37,1.44,1.98,2.24s1.41,1.56,1.84,2.43c.46.93.55,2.06.66,3s.35,2.21-.06,3.16c-.45,1.02-1.22,1.88-1.76,2.75-.59.97-1.15,1.94-1.77,2.72-.75.93-1.73,1.54-2.39,2.19-1.39,1.35-2.11.42-2.51,1.97-.33,1.28.2,1.11.77,2.53.3.74.55,1.53.73,2.45.16.85,1.22,1.71,1.14,2.61s-1.02,1.58-1.45,2.39c-.39.72-.88,1.36-1.64,1.97-.86.69-1.57,1.33-2.35,1.62-.99.37-1.97.61-2.87.45s-1.48-1.09-2.33-1.7c-.72-.51-2.07-.46-2.77-1.23-.6-.67-1.24-1.46-1.84-2.29-.54-.74-.82-1.74-1.36-2.59s-.48-2.07-1.03-2.81c-.61-.82-1.87-1.07-2.42-1.79-.64-.82-.56-2.04-1.03-2.78-.56-.89-1.2-1.51-1.37-2.39s0-1.65.43-2.65c.32-.75.43-1.79,1.18-2.65,1.52-1.18,2.53-.27,3.03-2.13.41-1.55-.84-1.14-1.78-2.43s-1.11-1.18-2.05-2.47-.43-1.67-1.38-2.97-1.41-.96-2.36-2.25"/>
  </g>
  <g>
    <path class="cls-4" d="M111.75,140.9c-.77,1.17-.65,1.25-1.43,2.42s-1.32.81-2.09,1.98-.9,1.09-1.68,2.26-.63,1.27-1.41,2.44-.86,1.11-1.64,2.28-.79,1.17-1.57,2.34-.2,1.42-.58,2.78c-.4,1.43-.12.96.59,2.56.35.8.57,1.78.9,2.79.3.91,1.01,1.75,1.19,2.74s.02,2,0,2.97-.31,1.9-.68,2.8-.93,1.51-1.73,2.19-1.28,1.57-2.05,1.87c-.92.35-1.88.36-2.77.26s-1.74-.46-2.6-.91c-.77-.4-1.3-1.22-2.05-1.83-.68-.56-1.7-.81-2.37-1.49-.63-.65-1.39-1.22-2.01-1.94s-1.25-1.37-1.83-2.09-.89-1.62-1.45-2.26c-.63-.71-1.42-1.2-1.97-1.82-.64-.72-.89-1.67-1.37-2.33-.58-.79-1.67-1.28-1.93-2.06-.27-.83.75-1.72.98-2.65.18-.74-.53-2,.04-2.87.44-.66,1.77-.93,2.34-1.83.47-.73,1.06-1.48,1.59-2.31.48-.77.4-1.93.91-2.74s1.32-1.38,1.82-2.17.56-1.89,1.04-2.66c.52-.83.95-1.68,1.41-2.43.55-.89,1.69-1.3,2.12-1.98.9-1.46.91-1.09,1.64-2.28"/>
    <path class="cls-2" d="M111.75,140.9c-.77,1.17-.65,1.25-1.43,2.42s-1.32.81-2.09,1.98-.9,1.09-1.68,2.26-.63,1.27-1.41,2.44-.86,1.11-1.64,2.28-.79,1.17-1.57,2.34-.2,1.42-.58,2.78c-.4,1.43-.12.96.59,2.56.35.8.57,1.78.9,2.79.3.91,1.01,1.75,1.19,2.74s.02,2,0,2.97-.31,1.9-.68,2.8-.93,1.51-1.73,2.19-1.28,1.57-2.05,1.87c-.92.35-1.88.36-2.77.26s-1.74-.46-2.6-.91c-.77-.4-1.3-1.22-2.05-1.83-.68-.56-1.7-.81-2.37-1.49-.63-.65-1.39-1.22-2.01-1.94s-1.25-1.37-1.83-2.09-.89-1.62-1.45-2.26c-.63-.71-1.42-1.2-1.97-1.82-.64-.72-.89-1.67-1.37-2.33-.58-.79-1.67-1.28-1.93-2.06-.27-.83.75-1.72.98-2.65.18-.74-.53-2,.04-2.87.44-.66,1.77-.93,2.34-1.83.47-.73,1.06-1.48,1.59-2.31.48-.77.4-1.93.91-2.74s1.32-1.38,1.82-2.17.56-1.89,1.04-2.66c.52-.83.95-1.68,1.41-2.43.55-.89,1.69-1.3,2.12-1.98.9-1.46.91-1.09,1.64-2.28"/>
  </g>
  <g>
    <path class="cls-4" d="M91.31,91.03c-.36.79-.67,1.57-1.07,2.3s-.84,1.49-1.29,2.18-.78,1.55-1.29,2.21-.79,1.61-1.36,2.23-2.02.38-2.64.94-.96,1.47-1.63,1.97-1.11,1.41-1.83,1.85-1.85.18-2.6.56-1.23,1.39-2.01,1.71-1.7.34-2.5.59-1.54.86-2.36,1.06-1.69.39-2.52.52-1.73.02-2.57.1-1.7.38-2.54.4-1.73.04-2.57,0-1.74-.07-2.57-.15-1.61-.95-2.43-1.08-1.74-.01-2.54-.2c-.85-.2-1.53-.84-2.32-1.09-.85-.27-1.82-.08-2.65-.21-.88-.14-1.75-.14-2.59-.14-.9,0-1.76.08-2.58.23-.91.17-1.71.48-2.45.8-.87.38-1.34,1.08-1.9,1.63-.68.66-1.48,1.1-1.59,1.92s.44,1.55.55,2.32.02,1.54.35,2.28.24,1.72.75,2.36c.47.6,1.22,1.06,1.86,1.6.58.49,1.57.45,2.28.89.65.4.92,1.59,1.68,1.93.69.32,1.68.05,2.46.32.73.25,1.35.99,2.15,1.19.75.19,1.72-.11,2.64.07.79.15,1.68-.02,2.59.1.81.11,1.63.42,2.53.5.83.07,1.68.04,2.57.08.84.03,1.69.26,2.57.25s1.67-.44,2.55-.5,1.77.57,2.64.46,1.65-.55,2.51-.7,1.65-.43,2.5-.64,1.73-.15,2.57-.41,1.43-1.07,2.25-1.38,1.93.18,2.72-.18,1.11-1.61,1.89-2.02,1.62-.57,2.36-1.02,1.85-.31,2.57-.81,1.21-1.28,1.89-1.82.87-1.6,1.53-2.18,1.22-1.16,1.84-1.78,1.5-.9,2.09-1.55"/>
    <path class="cls-1" d="M91.31,91.03c-.36.79-.67,1.57-1.07,2.3s-.84,1.49-1.29,2.18-.78,1.55-1.29,2.21-.79,1.61-1.36,2.23-2.02.38-2.64.94-.96,1.47-1.63,1.97-1.11,1.41-1.83,1.85-1.85.18-2.6.56-1.23,1.39-2.01,1.71-1.7.34-2.5.59-1.54.86-2.36,1.06-1.69.39-2.52.52-1.73.02-2.57.1-1.7.38-2.54.4-1.73.04-2.57,0-1.74-.07-2.57-.15-1.61-.95-2.43-1.08-1.74-.01-2.54-.2c-.85-.2-1.53-.84-2.32-1.09-.85-.27-1.82-.08-2.65-.21-.88-.14-1.75-.14-2.59-.14-.9,0-1.76.08-2.58.23-.91.17-1.71.48-2.45.8-.87.38-1.34,1.08-1.9,1.63-.68.66-1.48,1.1-1.59,1.92s.44,1.55.55,2.32.02,1.54.35,2.28.24,1.72.75,2.36c.47.6,1.22,1.06,1.86,1.6.58.49,1.57.45,2.28.89.65.4.92,1.59,1.68,1.93.69.32,1.68.05,2.46.32.73.25,1.35.99,2.15,1.19.75.19,1.72-.11,2.64.07.79.15,1.68-.02,2.59.1.81.11,1.63.42,2.53.5.83.07,1.68.04,2.57.08.84.03,1.69.26,2.57.25s1.67-.44,2.55-.5,1.77.57,2.64.46,1.65-.55,2.51-.7,1.65-.43,2.5-.64,1.73-.15,2.57-.41,1.43-1.07,2.25-1.38,1.93.18,2.72-.18,1.11-1.61,1.89-2.02,1.62-.57,2.36-1.02,1.85-.31,2.57-.81,1.21-1.28,1.89-1.82.87-1.6,1.53-2.18,1.22-1.16,1.84-1.78,1.5-.9,2.09-1.55"/>
  </g>
  <g>
    <path class="cls-5" d="M135.94,41.53c.91-.85.67-.64,1.84-1.65.54-.47.69-1.58,1.41-2.18.59-.49,1.6-.58,2.29-1.12.63-.49.94-1.46,1.62-1.97.65-.48,1.9-.17,2.59-.65s1.02-1.43,1.72-1.88,1.32-1.05,2.03-1.46,1.3-1.17,2.03-1.53c.77-.38,1.88.03,2.62-.25.82-.32,1.55-.67,2.31-.84.87-.19,1.65-.06,2.41-.01.88.05,1.65-.03,2.33.41s1.79.67,2.26,1.37-.01,1.84.25,2.67c.24.75,1.29,1.39,1.4,2.26.1.79-.5,1.69-.5,2.55,0,.81.61,1.68.54,2.53s-.97,1.56-1.09,2.39,0,1.67-.17,2.49.05,1.72-.14,2.53-.25,1.68-.46,2.47-.57,1.6-.8,2.38c-.25.83-1.29,1.38-1.54,2.13-.27.84.24,1.9-.02,2.62-.31.88-1.29,1.42-1.54,2.08-.55,1.45-.2,1.25-.68,2.39"/>
    <path class="cls-1" d="M135.94,41.53c.91-.85.67-.64,1.84-1.65.54-.47.69-1.58,1.41-2.18.59-.49,1.6-.58,2.29-1.12.63-.49.94-1.46,1.62-1.97.65-.48,1.9-.17,2.59-.65s1.02-1.43,1.72-1.88,1.32-1.05,2.03-1.46,1.3-1.17,2.03-1.53c.77-.38,1.88.03,2.62-.25.82-.32,1.55-.67,2.31-.84.87-.19,1.65-.06,2.41-.01.88.05,1.65-.03,2.33.41s1.79.67,2.26,1.37-.01,1.84.25,2.67c.24.75,1.29,1.39,1.4,2.26.1.79-.5,1.69-.5,2.55,0,.81.61,1.68.54,2.53s-.97,1.56-1.09,2.39,0,1.67-.17,2.49.05,1.72-.14,2.53-.25,1.68-.46,2.47-.57,1.6-.8,2.38c-.25.83-1.29,1.38-1.54,2.13-.27.84.24,1.9-.02,2.62-.31.88-1.29,1.42-1.54,2.08-.55,1.45-.2,1.25-.68,2.39"/>
  </g>
  <g>
    <path class="cls-5" d="M131.8,37.69c.84.1,1.62.65,2.44.78s1.72-.02,2.54.14,1.72.14,2.52.34,1.61.6,2.4.83,1.66.43,2.44.7,1.67.44,2.43.77,1.33,1.18,2.07,1.55,1.44.87,2.15,1.3,1.38.95,2.05,1.44,1.22,1.13,1.85,1.68,1.32,1.02,1.89,1.63,1.2,1.16,1.71,1.83.55,1.61.99,2.33,1.36,1.13,1.72,1.9,1.1,1.37,1.4,2.17.64,1.59.87,2.41.07,1.72.22,2.56.38,1.64.48,2.5-.45,1.7-.41,2.56c0,.03-.21,1.08-.05,2.54.08.73.33,1.57.43,2.47.09.8.85,1.58.94,2.42s.23,1.69.31,2.49c.1.91-.57,1.84-.49,2.58.16,1.46,1.15,2.39,1.16,2.42.04.93-.92,1.83-.89,2.66.03.93.16,1.8.18,2.62.02.93,1.02,1.78,1.04,2.6.02.93-.53,1.81-.5,2.63.03.91-.28,1.8-.21,2.65s1.02,1.62,1.16,2.49.07,1.69.27,2.59c.18.8-.05,1.76.21,2.65.23.78,1.21,1.37,1.51,2.26.26.77.04,1.77.36,2.64.29.77.36,1.68.71,2.54.31.79.84,1.48,1.14,2.22.32.79.75,1.51,1.06,2.25.33.79.04,1.81.34,2.54.32.8,1.5,1.22,1.78,1.96.31.81.82,1.53,1.07,2.28.28.83.04,1.79.23,2.55.21.85.63,1.65.7,2.43.08.86-.33,1.71-.45,2.5s.22,1.86-.14,2.62c-.34.7-.97,1.43-1.55,2.1-.5.58-1.23,1.1-1.93,1.67-.82.67-1.63,1.16-2.3,1.54-.98.54-1.92.65-2.67.72-.98.09-1.77-.36-2.6-.67s-1.58-.88-2.51-1.14c-.78-.22-1.79-.46-2.83-.37-.78.07-1.47,1.11-2.46,1.47-.85.31-1.69.41-2.38.81-.78.44-1.84.41-2.49.92-.69.54-.61,1.93-1.21,2.49-.64.6-1.25,1.19-1.86,1.75s-1.34,1.19-2.04,1.66-1.84.11-2.68.38c-.75.24-1.52.07-2.45.12-.84.04-1.61.26-2.41.18s-1.69.1-2.48-.09-1.71-.15-2.48-.4-1.65-.41-2.41-.69c-.8-.3-1.24-1.51-1.99-1.78-.82-.29-1.64-.64-2.4-.82-.85-.2-1.8.04-2.59.07-.73.03-1.64,0-2.55.23-.75.19-1.44.86-2.29,1.13-.76.25-1.41.95-2.23,1.22-.78.26-1.56.59-2.37.84s-1.73.09-2.54.3-1.68.2-2.5.35-1.7-.25-2.51-.2-1.63.37-2.44.27-1.53-.51-2.35-.7-1.58-.33-2.38-.58-1.81.24-2.6-.02-1.28-1.39-2.05-1.67-1.95.54-2.72.28c-.81-.27-1.31-1.5-2.07-1.71-.84-.23-1.75-.11-2.52-.21-.89-.12-1.78-.36-2.53-.25s-1.41,1.04-2.32,1.24c-.77.16-1.75-.43-2.61-.25-.79.17-1.61.3-2.45.44s-1.63.22-2.46.3-1.65.92-2.47.9-1.73-.24-2.53-.39-1.69-.43-2.43-.79-1.32-1.05-1.92-1.66-.73-1.56-1.25-2.28-1.88-.88-2.28-1.66-.42-1.75-.69-2.59-.29-1.72-.41-2.59.46-1.7.49-2.58-.36-1.72-.17-2.58-.02-1.83.32-2.65c.32-.77,1.06-1.41,1.54-2.17.44-.71.72-1.62,1.3-2.3.53-.63,1.02-1.24,1.47-1.95s1.48-1.07,1.84-1.82.36-1.66.66-2.45.79-1.49,1.04-2.29.08-1.7.28-2.51.17-1.65.33-2.47.67-1.57.8-2.39-.36-1.74-.25-2.55.8-1.59.89-2.39c.1-.85.43-1.65.52-2.45.1-.87.03-1.71.13-2.49.11-.89.56-1.66.68-2.4s-.38-1.66-.26-2.61c.1-.78.3-1.61.41-2.51.1-.8.06-1.66.18-2.55.11-.81.35-1.64.49-2.51.13-.81-.02-1.71.14-2.56s.62-1.59.8-2.44.47-1.62.69-2.45.88-1.5,1.13-2.32-.44-1.92-.15-2.73.98-1.45,1.3-2.25,1.24-1.3,1.6-2.07.62-1.55,1.02-2.31.87-1.42,1.32-2.15.69-1.55,1.17-2.25.35-1.85.88-2.53,1.84-.67,2.41-1.31c.86-.94.48-.79,1.68-1.87.53-.48.65-1.67,1.41-2.28.6-.49,1.45-.82,2.19-1.37.65-.48,1.58-.63,2.33-1.13.68-.45,1.24-1.16,2-1.62.7-.43,1.49-.79,2.25-1.21.72-.4,1.47-.81,2.25-1.2s1.57-.61,2.37-.96,1.53-.7,2.34-1.01,1.55-.69,2.37-.96,1.68-.27,2.51-.5,1.53-.85,2.37-1.04,1.65-.49,2.5-.63,1.73.04,2.59-.06,1.68-.28,2.55-.34,1.7-.38,2.56-.4,1.71.24,2.58.27c.98.04,1.9.62,2.83.69.97.08,1.98-.4,2.9-.28Z"/>
    <path class="cls-1" d="M131.8,37.69c.84.1,1.62.65,2.44.78s1.72-.02,2.54.14,1.72.14,2.52.34,1.61.6,2.4.83,1.66.43,2.44.7,1.67.44,2.43.77,1.33,1.18,2.07,1.55,1.44.87,2.15,1.3,1.38.95,2.05,1.44,1.22,1.13,1.85,1.68,1.32,1.02,1.89,1.63,1.2,1.16,1.71,1.83.55,1.61.99,2.33,1.36,1.13,1.72,1.9,1.1,1.37,1.4,2.17.64,1.59.87,2.41.07,1.72.22,2.56.38,1.64.48,2.5-.45,1.7-.41,2.56c0,.03-.21,1.08-.05,2.54.08.73.33,1.57.43,2.47.09.8.85,1.58.94,2.42s.23,1.69.31,2.49c.1.91-.57,1.84-.49,2.58.16,1.46,1.15,2.39,1.16,2.42.04.93-.92,1.83-.89,2.66.03.93.16,1.8.18,2.62.02.93,1.02,1.78,1.04,2.6.02.93-.53,1.81-.5,2.63.03.91-.28,1.8-.21,2.65s1.02,1.62,1.16,2.49.07,1.69.27,2.59c.18.8-.05,1.76.21,2.65.23.78,1.21,1.37,1.51,2.26.26.77.04,1.77.36,2.64.29.77.36,1.68.71,2.54.31.79.84,1.48,1.14,2.22.32.79.75,1.51,1.06,2.25.33.79.04,1.81.34,2.54.32.8,1.5,1.22,1.78,1.96.31.81.82,1.53,1.07,2.28.28.83.04,1.79.23,2.55.21.85.63,1.65.7,2.43.08.86-.33,1.71-.45,2.5s.22,1.86-.14,2.62c-.34.7-.97,1.43-1.55,2.1-.5.58-1.23,1.1-1.93,1.67-.82.67-1.63,1.16-2.3,1.54-.98.54-1.92.65-2.67.72-.98.09-1.77-.36-2.6-.67s-1.58-.88-2.51-1.14c-.78-.22-1.79-.46-2.83-.37-.78.07-1.47,1.11-2.46,1.47-.85.31-1.69.41-2.38.81-.78.44-1.84.41-2.49.92-.69.54-.61,1.93-1.21,2.49-.64.6-1.25,1.19-1.86,1.75s-1.34,1.19-2.04,1.66-1.84.11-2.68.38c-.75.24-1.52.07-2.45.12-.84.04-1.61.26-2.41.18s-1.69.1-2.48-.09-1.71-.15-2.48-.4-1.65-.41-2.41-.69c-.8-.3-1.24-1.51-1.99-1.78-.82-.29-1.64-.64-2.4-.82-.85-.2-1.8.04-2.59.07-.73.03-1.64,0-2.55.23-.75.19-1.44.86-2.29,1.13-.76.25-1.41.95-2.23,1.22-.78.26-1.56.59-2.37.84s-1.73.09-2.54.3-1.68.2-2.5.35-1.7-.25-2.51-.2-1.63.37-2.44.27-1.53-.51-2.35-.7-1.58-.33-2.38-.58-1.81.24-2.6-.02-1.28-1.39-2.05-1.67-1.95.54-2.72.28c-.81-.27-1.31-1.5-2.07-1.71-.84-.23-1.75-.11-2.52-.21-.89-.12-1.78-.36-2.53-.25s-1.41,1.04-2.32,1.24c-.77.16-1.75-.43-2.61-.25-.79.17-1.61.3-2.45.44s-1.63.22-2.46.3-1.65.92-2.47.9-1.73-.24-2.53-.39-1.69-.43-2.43-.79-1.32-1.05-1.92-1.66-.73-1.56-1.25-2.28-1.88-.88-2.28-1.66-.42-1.75-.69-2.59-.29-1.72-.41-2.59.46-1.7.49-2.58-.36-1.72-.17-2.58-.02-1.83.32-2.65c.32-.77,1.06-1.41,1.54-2.17.44-.71.72-1.62,1.3-2.3.53-.63,1.02-1.24,1.47-1.95s1.48-1.07,1.84-1.82.36-1.66.66-2.45.79-1.49,1.04-2.29.08-1.7.28-2.51.17-1.65.33-2.47.67-1.57.8-2.39-.36-1.74-.25-2.55.8-1.59.89-2.39c.1-.85.43-1.65.52-2.45.1-.87.03-1.71.13-2.49.11-.89.56-1.66.68-2.4s-.38-1.66-.26-2.61c.1-.78.3-1.61.41-2.51.1-.8.06-1.66.18-2.55.11-.81.35-1.64.49-2.51.13-.81-.02-1.71.14-2.56s.62-1.59.8-2.44.47-1.62.69-2.45.88-1.5,1.13-2.32-.44-1.92-.15-2.73.98-1.45,1.3-2.25,1.24-1.3,1.6-2.07.62-1.55,1.02-2.31.87-1.42,1.32-2.15.69-1.55,1.17-2.25.35-1.85.88-2.53,1.84-.67,2.41-1.31c.86-.94.48-.79,1.68-1.87.53-.48.65-1.67,1.41-2.28.6-.49,1.45-.82,2.19-1.37.65-.48,1.58-.63,2.33-1.13.68-.45,1.24-1.16,2-1.62.7-.43,1.49-.79,2.25-1.21.72-.4,1.47-.81,2.25-1.2s1.57-.61,2.37-.96,1.53-.7,2.34-1.01,1.55-.69,2.37-.96,1.68-.27,2.51-.5,1.53-.85,2.37-1.04,1.65-.49,2.5-.63,1.73.04,2.59-.06,1.68-.28,2.55-.34,1.7-.38,2.56-.4,1.71.24,2.58.27c.98.04,1.9.62,2.83.69.97.08,1.98-.4,2.9-.28Z"/>
  </g>
  <g>
    <path class="cls-5" d="M86.38,55.14c.31-1.21.75-.77,1.2-2.28.2-.68.18-1.58.46-2.49.23-.73,1.17-1.31,1.45-2.16.25-.75.47-1.56.76-2.38.27-.76.43-1.59.74-2.4s-.01-1.79.31-2.58,1.24-1.29,1.58-2.06,0-1.84.36-2.6.73-1.53,1.11-2.27,1.08-1.35,1.48-2.08.93-1.42,1.37-2.12.89-1.45,1.37-2.12,1.54-.93,2.07-1.55c.56-.66.94-1.39,1.53-1.95.63-.6,1.16-1.22,1.82-1.68.72-.49,1.22-1.39,1.97-1.69.8-.31,1.75-.13,2.58-.18s1.56.21,2.34.49c.73.27,1.15,1,1.84,1.5.63.45,1.95.16,2.54.76.55.56,1.18,1.18,1.69,1.83s.55,1.62,1.01,2.3.81,1.41,1.22,2.11.4,1.64.77,2.34.83,1.42,1.16,2.12c.37.78,1.36,1.22,1.66,1.92.36.83.08,1.84.34,2.49.55,1.39,1.25.84,1.63,1.99"/>
    <path class="cls-1" d="M86.38,55.14c.31-1.21.75-.77,1.2-2.28.2-.68.18-1.58.46-2.49.23-.73,1.17-1.31,1.45-2.16.25-.75.47-1.56.76-2.38.27-.76.43-1.59.74-2.4s-.01-1.79.31-2.58,1.24-1.29,1.58-2.06,0-1.84.36-2.6.73-1.53,1.11-2.27,1.08-1.35,1.48-2.08.93-1.42,1.37-2.12.89-1.45,1.37-2.12,1.54-.93,2.07-1.55c.56-.66.94-1.39,1.53-1.95.63-.6,1.16-1.22,1.82-1.68.72-.49,1.22-1.39,1.97-1.69.8-.31,1.75-.13,2.58-.18s1.56.21,2.34.49c.73.27,1.15,1,1.84,1.5.63.45,1.95.16,2.54.76.55.56,1.18,1.18,1.69,1.83s.55,1.62,1.01,2.3.81,1.41,1.22,2.11.4,1.64.77,2.34.83,1.42,1.16,2.12c.37.78,1.36,1.22,1.66,1.92.36.83.08,1.84.34,2.49.55,1.39,1.25.84,1.63,1.99"/>
  </g>
  <g>
    <path class="cls-4" d="M100.42,62.09c-1.45,2.17-2.35,4.08-2.13,6.16.25,2.31,1.56,4.28,2.85,6.04,1.68,2.29,3.55,4.05,4.89,4.49s4.1.82,7.05.74c2.3-.06,4.9.04,6.87-1.63,1.54-1.3,2.56-3.48,3.29-6.37.52-2.05.22-4.36-1.01-6.45-1.06-1.81-2.69-3.54-4.56-4.91s-3.83-2.72-5.95-3.25-4.62-.09-6.71.67c-1.91.69-3.18,2.38-4.6,4.51Z"/>
    <path class="cls-1" d="M100.42,62.09c-1.45,2.17-2.35,4.08-2.13,6.16.25,2.31,1.56,4.28,2.85,6.04,1.68,2.29,3.55,4.05,4.89,4.49s4.1.82,7.05.74c2.3-.06,4.9.04,6.87-1.63,1.54-1.3,2.56-3.48,3.29-6.37.52-2.05.22-4.36-1.01-6.45-1.06-1.81-2.69-3.54-4.56-4.91s-3.83-2.72-5.95-3.25-4.62-.09-6.71.67c-1.91.69-3.18,2.38-4.6,4.51Z"/>
  </g>
  <g>
    <path class="cls-4" d="M127.59,71.9c-.23,2.21.9,4.54,2.61,6.48,1.43,1.62,3.34,3.14,6,3.61,2.03.36,4.28-.37,6.97-1.11,2.88-.79,5.43-1.39,6.93-3.04,1.84-2.03,2.79-4.73,2.97-7.14.2-2.76-.64-5.63-1.97-7.46-1.68-2.31-4.23-3.62-6.72-4.1s-5.41,0-7.73,1.2-4.85,2.36-6.45,4.27c-1.5,1.8-2.31,4.37-2.62,7.29Z"/>
    <path class="cls-1" d="M127.59,71.9c-.23,2.21.9,4.54,2.61,6.48,1.43,1.62,3.34,3.14,6,3.61,2.03.36,4.28-.37,6.97-1.11,2.88-.79,5.43-1.39,6.93-3.04,1.84-2.03,2.79-4.73,2.97-7.14.2-2.76-.64-5.63-1.97-7.46-1.68-2.31-4.23-3.62-6.72-4.1s-5.41,0-7.73,1.2-4.85,2.36-6.45,4.27c-1.5,1.8-2.31,4.37-2.62,7.29Z"/>
  </g>
  <circle class="cls-3" cx="116.43" cy="70.52" r="3.85"/>
  <circle class="cls-3" cx="135.54" cy="71.87" r="3.85"/>
  <g>
    <path class="cls-1" d="M65.42,72.8c1.23-.06.93.15,2.46.18.71.01,1.56-.52,2.48-.48.76.04,1.58.29,2.45.37.78.07,1.64-.04,2.48.07.8.11,1.66.06,2.48.21s1.51.82,2.32,1.01,1.53.59,2.32.84,1.71.13,2.46.44,1.45.83,2.16,1.22,1.22,1.12,1.86,1.61"/>
    <path class="cls-1" d="M62.3,85.62c1.21-.26.91-.23,2.45-.44.7-.1,1.6.38,2.53.29.76-.07,1.55-.54,2.43-.59.79-.04,1.63.43,2.49.42.8-.01,1.63-.57,2.48-.54.81.02,1.63.22,2.47.29s1.58.6,2.41.71,1.7-.26,2.52-.1,1.74-.1,2.54.11,1.64.41,2.43.69"/>
  </g>
  <g>
    <path class="cls-1" d="M159.53,78.45c1.1-.53.6-.92,2.02-1.51.64-.27,1.52-.33,2.39-.66.7-.27,1.48-.55,2.31-.84.73-.26,1.51-.54,2.32-.81.75-.24,1.52-.57,2.33-.8s1.71.1,2.52-.11,1.62-.17,2.43-.34,1.6-.2,2.42-.34,1.48-1.23,2.29-1.33,1.72.81,2.53.76"/>
    <path class="cls-1" d="M161.13,89.61c1.25-.37.78-.86,2.36-1.25.73-.18,1.68.04,2.64-.17.79-.17,1.67-.22,2.58-.39.82-.16,1.52-1.24,2.41-1.39.84-.14,1.82.46,2.7.35s1.65-.97,2.52-1.05,1.81.74,2.68.7,1.74-.05,2.6-.05,1.76-.22,2.61-.16"/>
  </g>
  <path class="cls-2" d="M107.18,107.92c1.27,1.18,1.07,1.07,2.34,2.61.66.81.92,2.11,1.57,3.15.61.97,1.27,1.93,1.66,3,.42,1.13,1.35,2.26,1.3,3.38-.06,1.27-1.21,2.18-1.45,3.05-.36,1.29-.26,2.54-.92,3.14-.82.74-2.12.27-3.23.38-1.37.13-2.53-.47-3.15-2-.56-1.38-.35-3.29-1.03-4.12-1.44-1.75-2.26-1.42-4.63-2.62"/>
  <path class="cls-2" d="M150.66,108.22c1.33,1.19.74,1.2,1.9,2.98.57.87,1.68,1.63,2.16,2.86.4,1.03.32,2.29.5,3.55.21,1.4.12,2.56.04,3.62-.11,1.49.36,2.98-.23,3.83-.74,1.06-2.26,1.13-3.57,1.26-1.62.16-2.8-.75-3.32-2.29-.48-1.41-.05-3.42-.85-4.31-.65-.72-1.61-1.48-2.49-2.05"/>
  <path d="M95.57,143.76s7.37,6.27,9.99,6.27l1.99-4.39s-6.05.38-11.99-1.88Z"/>
  <path d="M124.68,141.8l4.1,4.28-3.16,2.19s14.64,3.71,20.45-4.01c0,0-6.98,2.09-11.38.44s-10.01-2.9-10.01-2.9Z"/>
  <g>
    <path class="cls-5" d="M23.69,121.12c.55-2.19.15-1.99.43-4.44.16-1.44.55-2.95.41-4.41-.16-1.74-.59-2.97-1.62-3.76-1.51-1.15-2.93-2.07-4.41-2.63-1.83-.7-3.19-.7-4.69.18-1.07.63-2.2,1.36-2.8,2.57-.92,1.85.24,2.39-1.51,3.35-1.65.91-1.65-.76-3.48-.71-1.3.03-2.81.81-3.42,2-.72,1.4-.4,3.51.09,5.27.52,1.87,1.67,3.48,3.42,3.66-.06,2.48-1.39,2.11-2.14,4.4-.51,1.55-1.45,3.43-.1,4.81,1.2,1.23,3.18,2.17,5,2.39,1.69.2,3.41-.94,5.07-1.7,1.52-.7,2.9-1.59,3.95-3.17"/>
    <path class="cls-1" d="M23.69,121.12c.55-2.19.15-1.99.43-4.44.16-1.44.55-2.95.41-4.41-.16-1.74-.59-2.97-1.62-3.76-1.51-1.15-2.93-2.07-4.41-2.63-1.83-.7-3.19-.7-4.69.18-1.07.63-2.2,1.36-2.8,2.57-.92,1.85.24,2.39-1.51,3.35-1.65.91-1.65-.76-3.48-.71-1.3.03-2.81.81-3.42,2-.72,1.4-.4,3.51.09,5.27.52,1.87,1.67,3.48,3.42,3.66-.06,2.48-1.39,2.11-2.14,4.4-.51,1.55-1.45,3.43-.1,4.81,1.2,1.23,3.18,2.17,5,2.39,1.69.2,3.41-.94,5.07-1.7,1.52-.7,2.9-1.59,3.95-3.17"/>
  </g>
  <path class="cls-1" d="M31.15,132.56c-2.16,0-1.93.51-4.37-.71-1.07-.54-2.22-1.6-3.5-2.72-.96-.84-1.99-1.92-2.99-3.19-.81-1.03-1.67-2.24-2.47-3.6"/>
  <path class="cls-1" d="M24.65,136.04c1.38,2.07,1.23,1.36,3.85,2.81,1.23.68,2.54,1.53,4.45,1.88,1.45.27,3.02.27,4.88.14"/>
</svg>