<?xml version="1.0" encoding="UTF-8"?>
<svg id="_레이어_1" data-name="레이어 1" xmlns="http://www.w3.org/2000/svg" viewBox="0 0 200 200">
  <defs>
    <style>
      .cls-1 {
        stroke-width: 2.4px;
      }

      .cls-1, .cls-2 {
        fill: none;
        stroke-linecap: round;
        stroke-linejoin: round;
      }

      .cls-1, .cls-2, .cls-3 {
        stroke: #000;
      }

      .cls-2 {
        stroke-width: 2.4px;
      }

      .cls-4 {
        fill: #ffaf42;
      }

      .cls-3 {
        stroke-miterlimit: 10;
        stroke-width: 1.2px;
      }

      .cls-5 {
        fill: #fff;
      }
    </style>
  </defs>
  <g>
    <path class="cls-4" d="M89.95,139.6c-1.54,1.83-1.34,1.55-3.06,3.69-.92,1.14-1.47,2.82-2.48,4.14s-2.39,2.37-3.22,3.58c-1.3,1.9-2.46,3.7-2.46,4.41,0,.92,1.4,2.12,2.32,3.8.6,1.09.55,2.85,1.53,4.11.81,1.04,2.53,1.45,3.6,2.53.95.97,1.35,2.66,2.5,3.6,1.63,1.33,3.71,1.54,5.23,2.17,1.98.81,3.66,1,5.29.82,2.03-.22,4.12-.42,5.26-1.8s.44-3.89-.4-5.88c-1.11-2.65-2.84-2.05-2.61-4.97.19-2.46,1.22-1.95,2.42-4.1s.88-2.34,2.09-4.49.95-2.3,2.16-4.45"/>
    <path class="cls-1" d="M89.95,139.6c-1.54,1.83-1.34,1.55-3.06,3.69-.92,1.14-1.47,2.82-2.48,4.14s-2.39,2.37-3.22,3.58c-1.3,1.9-2.46,3.7-2.46,4.41,0,.92,1.4,2.12,2.32,3.8.6,1.09.55,2.85,1.53,4.11.81,1.04,2.53,1.45,3.6,2.53.95.97,1.35,2.66,2.5,3.6,1.63,1.33,3.71,1.54,5.23,2.17,1.98.81,3.66,1,5.29.82,2.03-.22,4.12-.42,5.26-1.8s.44-3.89-.4-5.88c-1.11-2.65-2.84-2.05-2.61-4.97.19-2.46,1.22-1.95,2.42-4.1s.88-2.34,2.09-4.49.95-2.3,2.16-4.45"/>
  </g>
  <g>
    <path class="cls-4" d="M123.35,144.71c.77,2.29.6,1.86,1.54,4.59.46,1.35,1.58,2.71,2.17,4.37.52,1.47.6,3.18,1.16,4.72s.96,3.15,1.51,4.61c.62,1.64,2.14,2.82,2.68,4.15.87,2.13.76,4.24,1.22,4.86.75,1,2.62.72,4.37.8,1.27.06,2.83.85,4.4.47,1.31-.32,2.43-1.64,3.82-2.25,1.28-.56,2.5-1.25,3.76-2.04,1.64-1.02,3.6-1.34,4.82-2.37,1.56-1.31,2.47-2.97,3.25-4.26,1.05-1.73,1.7-3.58,1.08-5.2-.53-1.38-1.98-2.69-3.55-3.3-1.36-.53-3.14-.42-4.72-.33s-3.28.72-4.57,1.45c-1.89-2-1.31-2.49-2.61-4.91s-1.12-2.53-2.43-4.95"/>
    <path class="cls-1" d="M123.35,144.71c.77,2.29.6,1.86,1.54,4.59.46,1.35,1.58,2.71,2.17,4.37.52,1.47.6,3.18,1.16,4.72s.96,3.15,1.51,4.61c.62,1.64,2.14,2.82,2.68,4.15.87,2.13.76,4.24,1.22,4.86.75,1,2.62.72,4.37.8,1.27.06,2.83.85,4.4.47,1.31-.32,2.43-1.64,3.82-2.25,1.28-.56,2.5-1.25,3.76-2.04,1.64-1.02,3.6-1.34,4.82-2.37,1.56-1.31,2.47-2.97,3.25-4.26,1.05-1.73,1.7-3.58,1.08-5.2-.53-1.38-1.98-2.69-3.55-3.3-1.36-.53-3.14-.42-4.72-.33s-3.28.72-4.57,1.45c-1.89-2-1.31-2.49-2.61-4.91s-1.12-2.53-2.43-4.95"/>
  </g>
  <g>
    <path class="cls-4" d="M97.14,110.37c-.84.21-1.82-.34-2.63-.2s-1.65.32-2.48.4-1.67.69-2.5.7-1.67-.65-2.51-.71-1.79.58-2.61.44-1.69-.37-2.5-.59-1.58-.69-2.37-.97-1.41-1-2.18-1.36-1.96.09-2.69-.33-1.2-1.33-1.9-1.8-1.6-.71-2.26-1.23-.95-1.52-1.57-2.08-1.14-1.23-1.73-1.84-1.6-.85-2.14-1.49-.72-1.6-1.22-2.27-1.24-1.22-1.69-1.92-1.11-1.35-1.51-2.08-.21-1.81-.56-2.56c-.37-.79-1.31-1.31-1.6-2.08-.31-.83-.18-1.84-.6-2.57-.44-.78-1.1-1.4-1.63-2.05-.57-.71-1.21-1.29-1.84-1.83-.7-.6-1.54-.85-2.25-1.22-.84-.44-1.53-.86-2.31-.97-.94-.12-1.54.27-2.25.69s-1.85.24-2.39.8-.43,1.64-.8,2.36-.97,1.27-1.16,2.07c-.18.74.12,1.55.09,2.38-.03.76.19,1.48.29,2.3.09.75.22,1.47.42,2.28.18.74.28,1.49.56,2.27.26.72.67,1.37,1,2.13.32.71.27,1.67.7,2.51.37.72,1.05,1.31,1.51,2.1.42.71.75,1.5,1.24,2.25.46.7.31,1.85.84,2.57.49.68,1.45,1.05,2.01,1.73s.95,1.44,1.54,2.09,1.56.86,2.19,1.48,1.04,1.37,1.7,1.95,1.37,1.01,2.06,1.55,1.53.77,2.25,1.26,1,1.59,1.75,2.04,1.68.5,2.46.91,1.23,1.41,2.03,1.77,1.71.39,2.54.69,1.73.23,2.57.48,1.67.32,2.53.52,1.63.52,2.49.67,1.69.25,2.56.35,1.72-.22,2.6-.16"/>
    <path class="cls-1" d="M97.14,110.37c-.84.21-1.82-.34-2.63-.2s-1.65.32-2.48.4-1.67.69-2.5.7-1.67-.65-2.51-.71-1.79.58-2.61.44-1.69-.37-2.5-.59-1.58-.69-2.37-.97-1.41-1-2.18-1.36-1.96.09-2.69-.33-1.2-1.33-1.9-1.8-1.6-.71-2.26-1.23-.95-1.52-1.57-2.08-1.14-1.23-1.73-1.84-1.6-.85-2.14-1.49-.72-1.6-1.22-2.27-1.24-1.22-1.69-1.92-1.11-1.35-1.51-2.08-.21-1.81-.56-2.56c-.37-.79-1.31-1.31-1.6-2.08-.31-.83-.18-1.84-.6-2.57-.44-.78-1.1-1.4-1.63-2.05-.57-.71-1.21-1.29-1.84-1.83-.7-.6-1.54-.85-2.25-1.22-.84-.44-1.53-.86-2.31-.97-.94-.12-1.54.27-2.25.69s-1.85.24-2.39.8-.43,1.64-.8,2.36-.97,1.27-1.16,2.07c-.18.74.12,1.55.09,2.38-.03.76.19,1.48.29,2.3.09.75.22,1.47.42,2.28.18.74.28,1.49.56,2.27.26.72.67,1.37,1,2.13.32.71.27,1.67.7,2.51.37.72,1.05,1.31,1.51,2.1.42.71.75,1.5,1.24,2.25.46.7.31,1.85.84,2.57.49.68,1.45,1.05,2.01,1.73s.95,1.44,1.54,2.09,1.56.86,2.19,1.48,1.04,1.37,1.7,1.95,1.37,1.01,2.06,1.55,1.53.77,2.25,1.26,1,1.59,1.75,2.04,1.68.5,2.46.91,1.23,1.41,2.03,1.77,1.71.39,2.54.69,1.73.23,2.57.48,1.67.32,2.53.52,1.63.52,2.49.67,1.69.25,2.56.35,1.72-.22,2.6-.16"/>
  </g>
  <g>
    <path class="cls-5" d="M137.51,46.27c.87-.88.96-.37,2.08-1.42.52-.49.96-1.24,1.66-1.86.57-.51,1.15-1.13,1.82-1.7.61-.51,1.27-1.02,1.93-1.56s1.32-.99,1.99-1.5,1.62-.58,2.3-1.06,1.14-1.27,1.84-1.71,1.37-1,2.08-1.39c.75-.41,1.54-.72,2.27-1.03.8-.35,1.65-.43,2.41-.62.87-.23,1.65-.19,2.41-.17.88.02,1.62.03,2.31.44s1.22,1.01,1.72,1.69,1.14,1.21,1.43,2.03c.27.74.35,1.59.49,2.45.13.79.25,1.61.28,2.47.03.81.16,1.65.13,2.5s-.55,1.61-.64,2.45.31,1.71.18,2.53-.92,1.53-1.07,2.34-.03,1.7-.21,2.5-.56,1.59-.76,2.37c-.22.84.37,1.86.15,2.63-.24.85-.9,1.54-1.13,2.27-.28.9-.25,1.79-.47,2.47-.49,1.47-.85,1.02-1.29,2.19"/>
    <path class="cls-1" d="M137.51,46.27c.87-.88.96-.37,2.08-1.42.52-.49.96-1.24,1.66-1.86.57-.51,1.15-1.13,1.82-1.7.61-.51,1.27-1.02,1.93-1.56s1.32-.99,1.99-1.5,1.62-.58,2.3-1.06,1.14-1.27,1.84-1.71,1.37-1,2.08-1.39c.75-.41,1.54-.72,2.27-1.03.8-.35,1.65-.43,2.41-.62.87-.23,1.65-.19,2.41-.17.88.02,1.62.03,2.31.44s1.22,1.01,1.72,1.69,1.14,1.21,1.43,2.03c.27.74.35,1.59.49,2.45.13.79.25,1.61.28,2.47.03.81.16,1.65.13,2.5s-.55,1.61-.64,2.45.31,1.71.18,2.53-.92,1.53-1.07,2.34-.03,1.7-.21,2.5-.56,1.59-.76,2.37c-.22.84.37,1.86.15,2.63-.24.85-.9,1.54-1.13,2.27-.28.9-.25,1.79-.47,2.47-.49,1.47-.85,1.02-1.29,2.19"/>
  </g>
  <g>
    <path class="cls-5" d="M136.25,40.48c.84.14,1.6.72,2.42.92s1.74.12,2.54.37,1.71.33,2.5.64,1.53.81,2.3,1.17,1.59.68,2.33,1.09,1.59.72,2.3,1.17,1.13,1.39,1.81,1.9,1.29,1.1,1.93,1.65,1.23,1.16,1.84,1.75,1.07,1.3,1.64,1.93,1.22,1.17,1.74,1.84,1.12,1.27,1.61,1.97.52,1.66.95,2.39,1.37,1.16,1.76,1.92,1.16,1.35,1.49,2.13.75,1.57,1.03,2.37.21,1.74.44,2.56.54,1.63.72,2.47-.28,1.77-.16,2.62-.11,1.69-.05,2.54.26,1.65.26,2.5c0,.13.67.26.67.4,0,.85.03,1.7,0,2.53s-.83,1.65-.88,2.48.78,1.75.71,2.58-1.12,1.6-1.2,2.43-.05,1.69-.13,2.53.82,1.77.74,2.61-.72,1.63-.78,2.46-.48,1.66-.52,2.5.79,1.7.78,2.55-.23,1.66-.2,2.51-.4,1.7-.33,2.54.91,1.57,1.03,2.41-.28,1.73-.1,2.56.12,1.7.35,2.52.7,1.54.98,2.35.67,1.51.94,2.25-.03,1.77.25,2.52c.3.78,1.47,1.21,1.75,1.95.3.78.81,1.47,1.08,2.21.29.79.11,1.73.36,2.48.28.8.79,1.5,1.02,2.25.24.81.06,1.71.22,2.48.18.83.94,1.57,1.01,2.34.08.84-.05,1.74-.12,2.53s-.39,1.67-.66,2.44-.69,1.51-1.15,2.22c-.42.64-1.08,1.19-1.69,1.81-.68.7-1.51,1.08-2.2,1.54-.8.54-1.63.71-2.42.97-.89.29-1.68.31-2.54.37-.91.05-1.82.88-2.7.78s-1.77-.52-2.63-.66c-.92-.15-1.77-.91-2.62-.94-.93-.04-1.63,1.09-2.46,1.39s-1.53.66-2.28,1.11-1.43.95-2.17,1.47-1.91.31-2.67.78-1.6.58-2.43.94c-.78.34-1.45.83-2.36,1.02-.81.17-1.62.62-2.57.63-.86.01-1.76.22-2.57.06s-1.75-.28-2.53-.57-1.17-1.54-1.91-1.92-1.44-.86-2.16-1.27c-.76-.43-1.67-.53-2.39-.92-.78-.42-1.5-.98-2.24-1.25-.84-.32-1.79-.09-2.58-.09s-1.56.59-2.52.82c-.81.2-1.62.51-2.52.8-.82.26-1.8.15-2.67.43s-1.76.34-2.63.58-1.82-.05-2.7.11-1.69.59-2.57.63-1.71-.27-2.59-.41-1.67-.27-2.52-.53-1.92.17-2.74-.16-1.27-1.51-2.07-1.88-2.09.3-2.88-.06c-.83-.38-1.23-1.69-2.02-2-.86-.34-1.83-.33-2.64-.52-.91-.21-1.84-.51-2.68-.42-.7.07-1.51.96-2.54,1.08-.8.09-1.77-.6-2.72-.51-.84.08-1.72.12-2.63.18s-1.74.06-2.63.08-1.78.81-2.66.77-1.8-.25-2.66-.35c-.91-.11-1.81-.28-2.64-.49-.9-.23-1.67-.76-2.42-1.14-.83-.42-1.16-1.28-1.74-1.9s-1.97-.64-2.46-1.38-.62-1.69-.98-2.49-.5-1.68-.73-2.52.24-1.75.15-2.62-.59-1.66-.53-2.53-.27-1.82-.05-2.67.87-1.55,1.24-2.36c.35-.76.52-1.7,1.03-2.44.47-.69,1.07-1.39,1.68-2.05.56-.61,1.66-.81,2.17-1.52s.66-1.6,1.1-2.35,1.05-1.36,1.43-2.13.38-1.69.71-2.48.45-1.64.75-2.44.93-1.47,1.19-2.28-.08-1.8.16-2.61,1.03-1.49,1.24-2.3.66-1.61.85-2.42c.21-.86.24-1.73.42-2.53.19-.87.7-1.64.86-2.42.19-.91-.24-1.87-.09-2.62s.38-1.51.51-2.43c.11-.76.07-1.61.18-2.49.1-.78.33-1.6.45-2.46.11-.79-.06-1.67.08-2.52.13-.8.57-1.57.73-2.41s.41-1.6.6-2.43.82-1.49,1.04-2.31-.51-1.87-.26-2.68.92-1.45,1.21-2.25,1.18-1.31,1.51-2.08.55-1.54.92-2.3.81-1.42,1.22-2.15.62-1.54,1.08-2.24.28-1.84.78-2.51,1.8-.69,2.34-1.34.94-1.35,1.52-1.96c.89-.91.1-1.27,1.32-2.33.54-.47,1.38-.84,2.14-1.44.61-.48,1.54-.68,2.28-1.22.65-.47,1.18-1.2,1.93-1.7.68-.46,1.44-.85,2.19-1.32.7-.43,1.43-.89,2.19-1.32.72-.41,1.54-.7,2.31-1.1s1.48-.8,2.27-1.17,1.5-.8,2.3-1.13,1.66-.4,2.47-.7,1.47-.97,2.29-1.22,1.6-.62,2.44-.84,1.73-.1,2.57-.28,1.66-.42,2.51-.55,1.67-.52,2.52-.6,1.73.1,2.59.07,1.7.49,2.56.5,1.71-.26,2.57-.2c.97.07,1.92.23,2.84.34.97.11,1.97-.07,2.88.08Z"/>
    <path class="cls-1" d="M136.25,40.48c.84.14,1.6.72,2.42.92s1.74.12,2.54.37,1.71.33,2.5.64,1.53.81,2.3,1.17,1.59.68,2.33,1.09,1.59.72,2.3,1.17,1.13,1.39,1.81,1.9,1.29,1.1,1.93,1.65,1.23,1.16,1.84,1.75,1.07,1.3,1.64,1.93,1.22,1.17,1.74,1.84,1.12,1.27,1.61,1.97.52,1.66.95,2.39,1.37,1.16,1.76,1.92,1.16,1.35,1.49,2.13.75,1.57,1.03,2.37.21,1.74.44,2.56.54,1.63.72,2.47-.28,1.77-.16,2.62-.11,1.69-.05,2.54.26,1.65.26,2.5c0,.13.67.26.67.4,0,.85.03,1.7,0,2.53s-.83,1.65-.88,2.48.78,1.75.71,2.58-1.12,1.6-1.2,2.43-.05,1.69-.13,2.53.82,1.77.74,2.61-.72,1.63-.78,2.46-.48,1.66-.52,2.5.79,1.7.78,2.55-.23,1.66-.2,2.51-.4,1.7-.33,2.54.91,1.57,1.03,2.41-.28,1.73-.1,2.56.12,1.7.35,2.52.7,1.54.98,2.35.67,1.51.94,2.25-.03,1.77.25,2.52c.3.78,1.47,1.21,1.75,1.95.3.78.81,1.47,1.08,2.21.29.79.11,1.73.36,2.48.28.8.79,1.5,1.02,2.25.24.81.06,1.71.22,2.48.18.83.94,1.57,1.01,2.34.08.84-.05,1.74-.12,2.53s-.39,1.67-.66,2.44-.69,1.51-1.15,2.22c-.42.64-1.08,1.19-1.69,1.81-.68.7-1.51,1.08-2.2,1.54-.8.54-1.63.71-2.42.97-.89.29-1.68.31-2.54.37-.91.05-1.82.88-2.7.78s-1.77-.52-2.63-.66c-.92-.15-1.77-.91-2.62-.94-.93-.04-1.63,1.09-2.46,1.39s-1.53.66-2.28,1.11-1.43.95-2.17,1.47-1.91.31-2.67.78-1.6.58-2.43.94c-.78.34-1.45.83-2.36,1.02-.81.17-1.62.62-2.57.63-.86.01-1.76.22-2.57.06s-1.75-.28-2.53-.57-1.17-1.54-1.91-1.92-1.44-.86-2.16-1.27c-.76-.43-1.67-.53-2.39-.92-.78-.42-1.5-.98-2.24-1.25-.84-.32-1.79-.09-2.58-.09s-1.56.59-2.52.82c-.81.2-1.62.51-2.52.8-.82.26-1.8.15-2.67.43s-1.76.34-2.63.58-1.82-.05-2.7.11-1.69.59-2.57.63-1.71-.27-2.59-.41-1.67-.27-2.52-.53-1.92.17-2.74-.16-1.27-1.51-2.07-1.88-2.09.3-2.88-.06c-.83-.38-1.23-1.69-2.02-2-.86-.34-1.83-.33-2.64-.52-.91-.21-1.84-.51-2.68-.42-.7.07-1.51.96-2.54,1.08-.8.09-1.77-.6-2.72-.51-.84.08-1.72.12-2.63.18s-1.74.06-2.63.08-1.78.81-2.66.77-1.8-.25-2.66-.35c-.91-.11-1.81-.28-2.64-.49-.9-.23-1.67-.76-2.42-1.14-.83-.42-1.16-1.28-1.74-1.9s-1.97-.64-2.46-1.38-.62-1.69-.98-2.49-.5-1.68-.73-2.52.24-1.75.15-2.62-.59-1.66-.53-2.53-.27-1.82-.05-2.67.87-1.55,1.24-2.36c.35-.76.52-1.7,1.03-2.44.47-.69,1.07-1.39,1.68-2.05.56-.61,1.66-.81,2.17-1.52s.66-1.6,1.1-2.35,1.05-1.36,1.43-2.13.38-1.69.71-2.48.45-1.64.75-2.44.93-1.47,1.19-2.28-.08-1.8.16-2.61,1.03-1.49,1.24-2.3.66-1.61.85-2.42c.21-.86.24-1.73.42-2.53.19-.87.7-1.64.86-2.42.19-.91-.24-1.87-.09-2.62s.38-1.51.51-2.43c.11-.76.07-1.61.18-2.49.1-.78.33-1.6.45-2.46.11-.79-.06-1.67.08-2.52.13-.8.57-1.57.73-2.41s.41-1.6.6-2.43.82-1.49,1.04-2.31-.51-1.87-.26-2.68.92-1.45,1.21-2.25,1.18-1.31,1.51-2.08.55-1.54.92-2.3.81-1.42,1.22-2.15.62-1.54,1.08-2.24.28-1.84.78-2.51,1.8-.69,2.34-1.34.94-1.35,1.52-1.96c.89-.91.1-1.27,1.32-2.33.54-.47,1.38-.84,2.14-1.44.61-.48,1.54-.68,2.28-1.22.65-.47,1.18-1.2,1.93-1.7.68-.46,1.44-.85,2.19-1.32.7-.43,1.43-.89,2.19-1.32.72-.41,1.54-.7,2.31-1.1s1.48-.8,2.27-1.17,1.5-.8,2.3-1.13,1.66-.4,2.47-.7,1.47-.97,2.29-1.22,1.6-.62,2.44-.84,1.73-.1,2.57-.28,1.66-.42,2.51-.55,1.67-.52,2.52-.6,1.73.1,2.59.07,1.7.49,2.56.5,1.71-.26,2.57-.2c.97.07,1.92.23,2.84.34.97.11,1.97-.07,2.88.08Z"/>
  </g>
  <g>
    <path class="cls-5" d="M90.34,57.14c.07-1.28.36-.92.53-2.51.08-.73.02-1.59.15-2.54.11-.78.18-1.63.33-2.53.13-.81.21-1.66.38-2.53.16-.81.01-1.72.21-2.57s.14-1.73.37-2.56.39-1.68.66-2.5.71-1.58,1.02-2.38.36-1.75.72-2.52,1.19-1.36,1.62-2.08.67-1.67,1.18-2.34,1.12-1.42,1.72-2,1.35-1.23,2.06-1.68,1.69-.63,2.5-.9,1.75-.37,2.57-.26,1.42.9,2.2,1.28c.71.35,1.2.98,1.89,1.5.64.49,1.91.29,2.52.89s.67,1.65,1.21,2.29.81,1.46,1.3,2.12,1.58.94,2.03,1.62c.49.73.43,1.76.83,2.43.48.79,1.03,1.44,1.38,2.07.74,1.33,1.39.69,1.93,1.81"/>
    <path class="cls-1" d="M90.34,57.14c.07-1.28.36-.92.53-2.51.08-.73.02-1.59.15-2.54.11-.78.18-1.63.33-2.53.13-.81.21-1.66.38-2.53.16-.81.01-1.72.21-2.57s.14-1.73.37-2.56.39-1.68.66-2.5.71-1.58,1.02-2.38.36-1.75.72-2.52,1.19-1.36,1.62-2.08.67-1.67,1.18-2.34,1.12-1.42,1.72-2,1.35-1.23,2.06-1.68,1.69-.63,2.5-.9,1.75-.37,2.57-.26,1.42.9,2.2,1.28c.71.35,1.2.98,1.89,1.5.64.49,1.91.29,2.52.89s.67,1.65,1.21,2.29.81,1.46,1.3,2.12,1.58.94,2.03,1.62c.49.73.43,1.76.83,2.43.48.79,1.03,1.44,1.38,2.07.74,1.33,1.39.69,1.93,1.81"/>
  </g>
  <g>
    <path class="cls-4" d="M102.58,67.49c-1.53,2.12-1.98,3.99-1.83,6.08.16,2.32.21,4.85,1.43,6.66,1.59,2.35,4.22,3.39,5.55,3.88s3.95,1.62,6.89,1.66c2.3.03,4.4-.73,6.44-2.32,1.59-1.24,2.84-2.85,3.69-5.71.6-2.03.29-4.01-.86-6.15-.99-1.85-2.42-3.49-4.23-4.93s-3.51-2.9-5.61-3.51-4.57-.81-6.69-.13c-1.93.62-3.27,2.38-4.77,4.46Z"/>
    <path class="cls-1" d="M102.58,67.49c-1.53,2.12-1.98,3.99-1.83,6.08.16,2.32.21,4.85,1.43,6.66,1.59,2.35,4.22,3.39,5.55,3.88s3.95,1.62,6.89,1.66c2.3.03,4.4-.73,6.44-2.32,1.59-1.24,2.84-2.85,3.69-5.71.6-2.03.29-4.01-.86-6.15-.99-1.85-2.42-3.49-4.23-4.93s-3.51-2.9-5.61-3.51-4.57-.81-6.69-.13c-1.93.62-3.27,2.38-4.77,4.46Z"/>
  </g>
  <g>
    <path class="cls-4" d="M130.05,78.49c-.32,2.2-.49,4.94,1.14,6.94,1.36,1.67,3.88,2.33,6.52,2.91,2.01.44,4.21.39,6.93-.24,2.91-.68,5.52-1.23,7.08-2.82,1.92-1.96,2.58-4.72,2.85-7.12.31-2.75,0-5.67-1.26-7.55-1.59-2.37-4.11-4.03-6.57-4.61s-5.48.09-7.85,1.2-4.38,2.67-6.05,4.53c-1.57,1.74-2.39,3.86-2.81,6.77Z"/>
    <path class="cls-1" d="M130.05,78.49c-.32,2.2-.49,4.94,1.14,6.94,1.36,1.67,3.88,2.33,6.52,2.91,2.01.44,4.21.39,6.93-.24,2.91-.68,5.52-1.23,7.08-2.82,1.92-1.96,2.58-4.72,2.85-7.12.31-2.75,0-5.67-1.26-7.55-1.59-2.37-4.11-4.03-6.57-4.61s-5.48.09-7.85,1.2-4.38,2.67-6.05,4.53c-1.57,1.74-2.39,3.86-2.81,6.77Z"/>
  </g>
  <circle class="cls-3" cx="118.3" cy="76.58" r="3.85"/>
  <circle class="cls-3" cx="137.35" cy="78.68" r="3.85"/>
  <g>
    <path class="cls-1" d="M59.69,74.69c1.22-.19.9-.53,2.42-.67.7-.06,1.6.84,2.53.79.76-.04,1.56-.83,2.43-.84.79-.01,1.62.43,2.47.45.8.02,1.63-.09,2.47-.02s1.56.73,2.38.84,1.71-.38,2.52-.22,1.5.78,2.28,1.01,1.46.68,2.21.99,1.94-.2,2.63.22"/>
    <path class="cls-1" d="M60.93,90.1c1.13-.5.68-.75,2.14-1.28.66-.24,1.58-.1,2.48-.38.73-.23,1.45-.68,2.3-.91.76-.2,1.41-1.07,2.25-1.26.78-.17,1.71.17,2.55.02.8-.14,1.59-.47,2.43-.58s1.67.11,2.51.05,1.64-.26,2.48-.27,1.66-.07,2.49-.02,1.72-.29,2.54-.18"/>
  </g>
  <g>
    <path class="cls-1" d="M160.35,82.64c1.19-.31.78-.61,2.29-.93.68-.14,1.56.08,2.48-.08.74-.13,1.45-.84,2.32-.97.77-.11,1.64.24,2.49.13.79-.09,1.6-.1,2.44-.18s1.6-.2,2.43-.25,1.62,0,2.45,0,1.62-.17,2.44-.15,1.68-.63,2.49-.57,1.61.55,2.42.66"/>
    <path class="cls-1" d="M158.89,90.99c1.27.31.75.97,2.31,1.43.72.21,1.58.36,2.52.66.77.25,1.89-.34,2.77-.04.79.28,1.42,1.12,2.27,1.44.79.3,1.61.62,2.43.96s1.52.85,2.32,1.22,1.56.75,2.34,1.15,1.92.15,2.67.59,1.06,1.63,1.77,2.12"/>
  </g>
  <path class="cls-2" d="M105.08,108.47c1.5.87,1.32.78,2.91,2,.83.64,1.71,1.54,2.58,2.41.81.81,1.75,1.7,2.38,2.66.65,1.01.77,2.36.97,3.45.22,1.25.61,2.34.57,3.24-.06,1.33-.57,2.45-1.08,3.18-.64.9-1.93.79-2.99,1.14-1.31.44-2.18-.17-3.12-1.53-.85-1.23-1.51-2.8-2.36-3.46-1.79-1.39-2.46-1-5.04-1.64"/>
  <path class="cls-2" d="M145.37,108.72c1.55.89,1.42.52,2.92,2.02.74.74,1.76,1.53,2.48,2.63.61.93,1.35,2.01,1.79,3.21.49,1.33.81,2.63.95,3.69.19,1.48-.39,2.78-.8,3.73-.51,1.19-1.62,1.53-2.87,1.93-1.55.49-2.44-.16-3.26-1.56-.75-1.28-1.41-2.72-2.38-3.43-.78-.57-1.58-1.54-2.56-1.92"/>
  <g>
    <path class="cls-5" d="M48.36,140.09c1.66,1.95,2.27,4.64.89,5.82-.98.83-2.78.57-4.17-.23-.58-.33-1.25-.73-1.73-1.3-.59-.69-1.33-1.44-1.55-2.18-.41-1.37.47-2.66,1.37-3.42,1.38-1.18,3.54-.62,5.21,1.32Z"/>
    <path class="cls-1" d="M48.36,140.09c1.66,1.95,2.27,4.64.89,5.82-.98.83-2.78.57-4.17-.23-.58-.33-1.25-.73-1.73-1.3-.59-.69-1.33-1.44-1.55-2.18-.41-1.37.47-2.66,1.37-3.42,1.38-1.18,3.54-.62,5.21,1.32Z"/>
  </g>
  <path d="M124.64,147.51l2.72,7.96s9.79-.34,11.49-1.97c0,0-4.42-.14-8.23-4.08-1.57-1.63-5.98-1.9-5.98-1.9Z"/>
  <path d="M85.41,145.75l-2.69,3.84s15.51,3.43,22.69,2.29l.98-1.31s-2.86.33-8.16-2.12-7.99-3.59-9.76-3.59-2.52.2-2.52.2l-.54.7Z"/>
</svg>