<?xml version="1.0" encoding="UTF-8"?>
<svg id="_레이어_1" xmlns="http://www.w3.org/2000/svg" version="1.1" viewBox="0 0 200 200">
  <!-- Generator: Adobe Illustrator 30.2.1, SVG Export Plug-In . SVG Version: 2.1.1 Build 1)  -->
  <defs>
    <style>
      .st0 {
        fill: none;
        stroke-linecap: round;
        stroke-linejoin: round;
        stroke-width: 2.4px;
      }

      .st0, .st1 {
        stroke: #000;
      }

      .st2 {
        fill: #ffaf42;
      }

      .st1 {
        stroke-miterlimit: 10;
        stroke-width: 1.2px;
      }

      .st3 {
        fill: #fff;
      }

      .st4 {
        fill: #cec5b3;
      }
    </style>
  </defs>
  <g>
    <path class="st2" d="M85.41,123.89c-1.42.86-.82,1.22-2.57,2.16-.86.46-1.91.89-3,1.41-.95.46-2.09.66-3.13,1.1s-2.11.64-3.14.99c-1.1.36-2.11.71-3.13.9-1.38.25-2.59.44-3.63.64-1.5.29-2.4,1.42-3.28,1.8-1.3.55-1.72.96-1.99,2.32-.17.83-.59,1.99-.69,3.49-.07,1.08.1,2.26.14,3.56.04,1.14-.15,2.34.03,3.57.17,1.16-.05,2.46.29,3.63s1.49,1.97,2.02,3.06c.58,1.19.52,2.61,1.2,3.39.85.98,2.06,1.45,3.07,1.87s2.22.32,3.45.23c1.08-.08,2.28,0,3.49-.4,1.05-.35,1.48-1.4,2.08-2.28s1.24-1.65,1.52-2.68.66-2.12.75-3.09c.15-1.79-.84-1.7.21-2.88,1.18-1.33,1.03-.46,3.19-.83,1.01-.17,2.29.04,3.58-.29,1.07-.27,2.26-.58,3.45-.98,1.08-.37,2.22-.84,3.34-1.34,1.06-.47,2.1-1.13,3.14-1.74s1.91-1.42,2.87-2.15,1.97-1.36,2.82-2.22"/>
    <path class="st0" d="M85.41,123.89c-1.42.86-.82,1.22-2.57,2.16-.86.46-1.91.89-3,1.41-.95.46-2.09.66-3.13,1.1s-2.11.64-3.14.99c-1.1.36-2.11.71-3.13.9-1.38.25-2.59.44-3.63.64-1.5.29-2.4,1.42-3.28,1.8-1.3.55-1.72.96-1.99,2.32-.17.83-.59,1.99-.69,3.49-.07,1.08.1,2.26.14,3.56.04,1.14-.15,2.34.03,3.57.17,1.16-.05,2.46.29,3.63s1.49,1.97,2.02,3.06c.58,1.19.52,2.61,1.2,3.39.85.98,2.06,1.45,3.07,1.87s2.22.32,3.45.23c1.08-.08,2.28,0,3.49-.4,1.05-.35,1.48-1.4,2.08-2.28s1.24-1.65,1.52-2.68.66-2.12.75-3.09c.15-1.79-.84-1.7.21-2.88,1.18-1.33,1.03-.46,3.19-.83,1.01-.17,2.29.04,3.58-.29,1.07-.27,2.26-.58,3.45-.98,1.08-.37,2.22-.84,3.34-1.34,1.06-.47,2.1-1.13,3.14-1.74s1.91-1.42,2.87-2.15,1.97-1.36,2.82-2.22"/>
  </g>
  <g>
    <path class="st2" d="M125.65,136.53c1.24,1.38.78,1.24,2.31,2.91.73.79,1.86,1.45,2.79,2.46.79.86,1.58,1.83,2.46,2.77.83.88,1.6,1.86,2.46,2.77s1.73,1.79,2.58,2.67c.89.92,1.42,2.15,2.25,2.99.95.96,1.79,1.91,2.59,2.66,1.19,1.12,2.09,2.14,2.74,2.58.92.62,2.27.21,3.45.34,1.07.11,2.2.63,3.36.39,1.07-.22,2.09-.82,3.15-1.29s1.77-1.35,2.71-2,1.82-1.24,2.6-2.04,1.97-1.46,2.72-2.52c.7-.99,1.04-2.25,1.59-3.35s1.26-2.19,1.57-3.33c.35-1.28.46-2.52.33-3.65-.14-1.26-.76-2.21-1.68-3.1-1.06-1.02-2.2-1.22-3.53-1.27s-2.92-.6-4.14-.17c-2.08.73-1.61,3.12-3.57,2.56-1.79-.52-1.21-1.68-2.67-2.84s-1.89-.62-3.36-1.78-1.18-1.52-2.64-2.68-1.22-1.47-2.69-2.63-1.74-.81-3.21-1.97"/>
    <path class="st0" d="M125.65,136.53c1.24,1.38.78,1.24,2.31,2.91.73.79,1.86,1.45,2.79,2.46.79.86,1.58,1.83,2.46,2.77.83.88,1.6,1.86,2.46,2.77s1.73,1.79,2.58,2.67c.89.92,1.42,2.15,2.25,2.99.95.96,1.79,1.91,2.59,2.66,1.19,1.12,2.09,2.14,2.74,2.58.92.62,2.27.21,3.45.34,1.07.11,2.2.63,3.36.39,1.07-.22,2.09-.82,3.15-1.29s1.77-1.35,2.71-2,1.82-1.24,2.6-2.04,1.97-1.46,2.72-2.52c.7-.99,1.04-2.25,1.59-3.35s1.26-2.19,1.57-3.33c.35-1.28.46-2.52.33-3.65-.14-1.26-.76-2.21-1.68-3.1-1.06-1.02-2.2-1.22-3.53-1.27s-2.92-.6-4.14-.17c-2.08.73-1.61,3.12-3.57,2.56-1.79-.52-1.21-1.68-2.67-2.84s-1.89-.62-3.36-1.78-1.18-1.52-2.64-2.68-1.22-1.47-2.69-2.63-1.74-.81-3.21-1.97"/>
  </g>
  <g>
    <path class="st2" d="M58.52,110.29c-1.05-.72-1.3-2.31-1.21-3.87.12-2.08,1.2-2.04.59-4.06-.46-1.5-.48,1.27-1.75,2.41-.77.69-2.18.68-3.02,1.21-1.17.75-2.2,1.82-2.83,1.27-.83-.72,0-2.34.63-3.75.77-1.71.97-1.59,1.3-3.5.28-1.59-.69,1.04-2.08,2.11-.84.64-1.97.97-2.86,1.47-1.28.72-2.24,1.48-2.8.92-.73-.73.11-2.19.86-3.72.89-1.81,2.85-1.81,2.33-3.81-.47-1.81-1.87,1.26-3.71,2.12-1.11.51-2.45.85-3.6,1.15-1.54.4-2.92.35-3.55-.46s-.33-1.93.39-3.07c.55-.88,1.44-1.66,2.2-2.43,1.25-1.26,3.8-1.47,2.39-2.32-1.54-.93-1.57.61-3.41,1.23-1.12.38-2.32.65-3.45.72-1.38.09-2.7.12-3.28-.92-.76-1.37-.18-2.8.72-3.82,1.26-1.43,2.42-.47,3.34-2.25.71-1.37-1.39-.4-3.04-.71-.99-.19-2.22.1-3.14-.25-1.22-.46-2.29-1.34-2.39-2.15-.13-1.04,1.02-1.61,1.98-2.13,1.29-.69,3.64.11,3.13-1.31-.71-1.99-2.47-.65-4.13-1.87-1.4-1.03-2.35-2.35-1.86-3.43s1.92-.7,3.55-.23c1.9.55,1.74,1.25,3.72.69,1.7-.48-.89-.68-1.98-2.25-.66-.95-.98-2.21-1.46-3.21-.71-1.46-1.35-2.56-.51-3.05.79-.46,1.91-.04,3.03.78.84.62,1.25,1.86,1.98,2.64,1.22,1.31,1.06,2.89,2.58,2.26s.16-1.63.16-3.41c0-1.08.24-2.14.46-3.15.29-1.32.29-2.47,1.3-2.57s1.25,1.1,1.7,2.54c.33,1.04.55,2.18.68,3.33.21,1.88-1.08,3.34.67,3.47,1.85.14.35-1.77,1.32-3.54.58-1.07,1.49-2.12,2.21-3.04,1.02-1.3,2.11-1.87,3.01-1.47s1.38,1.27,1.32,2.57c-.05.99-.39,2.1-.65,3.1-.43,1.64-2.16,4.06-1.06,2.94,1.37-1.39,1.13-1.65,2.42-3.02,1.04-1.11,2.35-2.4,3.44-1.79.82.46.99,1.99.69,3.25-.22.95-.58,2.09-1.01,3.01-.71,1.52-2.78,1.22-1.58,2.21s.3-1.06,1.47-2.29c.7-.73,1.86-1.14,2.65-1.74,1.07-.81,1.89-1.05,2.61-.71s.56,1.11.34,2.48c-.16.98-.29,2.05-.61,3.02-.53,1.62-2.42,3.21-.86,3.08,1.98-.16,1.3-1.82,2.99-2.77,1.34-.75,2.84-.66,3.78.02s.5,1.93,0,3.48c-.62,1.89-1.08,1.8-1.44,3.82-.33,1.87,1.5-1.36,2.78-2.69,1.08-1.13,2.08-2.38,2.99-1.85s.23,2.17-.45,3.8c-.77,1.85-3.35,2.55-1.78,3.89s1.67-1.72,3.49-2.62c1.48-.73,3.53-1.3,4.38-.48s.64,2.73.22,4.12c-.55,1.81-.93,1.73-1.92,3.38"/>
    <path class="st0" d="M58.52,110.29c-1.05-.72-1.3-2.31-1.21-3.87.12-2.08,1.2-2.04.59-4.06-.46-1.5-.48,1.27-1.75,2.41-.77.69-2.18.68-3.02,1.21-1.17.75-2.2,1.82-2.83,1.27-.83-.72,0-2.34.63-3.75.77-1.71.97-1.59,1.3-3.5.28-1.59-.69,1.04-2.08,2.11-.84.64-1.97.97-2.86,1.47-1.28.72-2.24,1.48-2.8.92-.73-.73.11-2.19.86-3.72.89-1.81,2.85-1.81,2.33-3.81-.47-1.81-1.87,1.26-3.71,2.12-1.11.51-2.45.85-3.6,1.15-1.54.4-2.92.35-3.55-.46s-.33-1.93.39-3.07c.55-.88,1.44-1.66,2.2-2.43,1.25-1.26,3.8-1.47,2.39-2.32-1.54-.93-1.57.61-3.41,1.23-1.12.38-2.32.65-3.45.72-1.38.09-2.7.12-3.28-.92-.76-1.37-.18-2.8.72-3.82,1.26-1.43,2.42-.47,3.34-2.25.71-1.37-1.39-.4-3.04-.71-.99-.19-2.22.1-3.14-.25-1.22-.46-2.29-1.34-2.39-2.15-.13-1.04,1.02-1.61,1.98-2.13,1.29-.69,3.64.11,3.13-1.31-.71-1.99-2.47-.65-4.13-1.87-1.4-1.03-2.35-2.35-1.86-3.43s1.92-.7,3.55-.23c1.9.55,1.74,1.25,3.72.69,1.7-.48-.89-.68-1.98-2.25-.66-.95-.98-2.21-1.46-3.21-.71-1.46-1.35-2.56-.51-3.05.79-.46,1.91-.04,3.03.78.84.62,1.25,1.86,1.98,2.64,1.22,1.31,1.06,2.89,2.58,2.26s.16-1.63.16-3.41c0-1.08.24-2.14.46-3.15.29-1.32.29-2.47,1.3-2.57s1.25,1.1,1.7,2.54c.33,1.04.55,2.18.68,3.33.21,1.88-1.08,3.34.67,3.47,1.85.14.35-1.77,1.32-3.54.58-1.07,1.49-2.12,2.21-3.04,1.02-1.3,2.11-1.87,3.01-1.47s1.38,1.27,1.32,2.57c-.05.99-.39,2.1-.65,3.1-.43,1.64-2.16,4.06-1.06,2.94,1.37-1.39,1.13-1.65,2.42-3.02,1.04-1.11,2.35-2.4,3.44-1.79.82.46.99,1.99.69,3.25-.22.95-.58,2.09-1.01,3.01-.71,1.52-2.78,1.22-1.58,2.21s.3-1.06,1.47-2.29c.7-.73,1.86-1.14,2.65-1.74,1.07-.81,1.89-1.05,2.61-.71s.56,1.11.34,2.48c-.16.98-.29,2.05-.61,3.02-.53,1.62-2.42,3.21-.86,3.08,1.98-.16,1.3-1.82,2.99-2.77,1.34-.75,2.84-.66,3.78.02s.5,1.93,0,3.48c-.62,1.89-1.08,1.8-1.44,3.82-.33,1.87,1.5-1.36,2.78-2.69,1.08-1.13,2.08-2.38,2.99-1.85s.23,2.17-.45,3.8c-.77,1.85-3.35,2.55-1.78,3.89s1.67-1.72,3.49-2.62c1.48-.73,3.53-1.3,4.38-.48s.64,2.73.22,4.12c-.55,1.81-.93,1.73-1.92,3.38"/>
  </g>
  <path class="st0" d="M133.58,116.24c.99,1.4,1.53.61,2.84,2.14.66.78,1.41,1.64,2.28,2.51.8.8,1.47,1.74,2.37,2.44.95.73,1.97,1.16,2.95,1.6"/>
  <g>
    <path class="st4" d="M45.79,151.84c-1.35-.03-2.66.89-3.76,1.63s-2.41,1.65-2.97,2.78c-.64,1.3-.86,3.09-.29,4.23s1.86,1.66,2.86,1.75c.91.09,1.86-.5,2.96-1.14.83-.48,1.67-1.1,2.53-1.92.92-.87,1.69-1.67,2.01-2.56.44-1.21.4-2.44-.26-3.24-.58-.69-1.68-1.51-3.09-1.54h.01Z"/>
    <path class="st0" d="M45.79,151.84c-1.35-.03-2.66.89-3.76,1.63s-2.41,1.65-2.97,2.78c-.64,1.3-.86,3.09-.29,4.23s1.86,1.66,2.86,1.75c.91.09,1.86-.5,2.96-1.14.83-.48,1.67-1.1,2.53-1.92.92-.87,1.69-1.67,2.01-2.56.44-1.21.4-2.44-.26-3.24-.58-.69-1.68-1.51-3.09-1.54h.01Z"/>
  </g>
  <g>
    <path class="st4" d="M43.99,170.63c-.61-.4-1.53-.81-2.69-1.66-.82-.6-1.6-1.46-2.51-2.22-.84-.7-1.61-1.53-2.41-2.31s-1.62-1.58-2.29-2.43c-.74-.94-1.42-1.85-1.82-2.79-.48-1.13-.5-2.19-.22-3.21s.44-2.22,1-3.24,1.29-1.86,1.9-2.81.76-2.18,1.27-3.14c.55-1.05,1.54-1.83,1.72-2.89s.5-2.4,0-3.52-1.63-1.76-2.3-2.54c-.79-.91-1.61-1.65-2.54-2.06-1.06-.47-2.24-.87-3.31-.61-.99.24-1.62.69-2.46,1.61-1.44-.95-.08-1.4-.96-3.07-.49-.94-1.31-2.06-2.32-2.77-.85-.59-2.18-.18-3.51-.28-1.22-.09-2.36-.11-3.55.03s-2.38.15-3.49.61-1.92,1.2-2.83,2.07c-.82.77-1.72,1.49-2.34,2.66-.51.98-1.41,1.95-1.75,3.24-.32,1.21.29,2.47.21,3.55-.09,1.26-.87,2.44-.74,3.49.16,1.3.78,2.41,1.1,3.36.68,1.99,1.48,1.35,1.76,3.07s-.69,1.82-.49,3.62c.13,1.23.9,2.16,1.82,2.85s1.81,1.16,2.9,1.21c1.73.09,2.26-1.58,3.14-.17,1.07,1.72-.89,1.94-.3,4.02.32,1.12,1.47,2.1,2.78,3.04,1.14.82,2.28,1.4,3.39,1.25,1.19-.16,2.42-.63,3.52-.97,1.25-.38,2.11-.66,3.15.02.78.5,2.12,1.1,3.63,1.75,1.13.49,2.49.78,3.83,1.15s2.6.8,3.91.88c1.37.08,2.56-.38,3.78-.78h.01Z"/>
    <path class="st0" d="M43.99,170.63c-.61-.4-1.53-.81-2.69-1.66-.82-.6-1.6-1.46-2.51-2.22-.84-.7-1.61-1.53-2.41-2.31s-1.62-1.58-2.29-2.43c-.74-.94-1.42-1.85-1.82-2.79-.48-1.13-.5-2.19-.22-3.21s.44-2.22,1-3.24,1.29-1.86,1.9-2.81.76-2.18,1.27-3.14c.55-1.05,1.54-1.83,1.72-2.89s.5-2.4,0-3.52-1.63-1.76-2.3-2.54c-.79-.91-1.61-1.65-2.54-2.06-1.06-.47-2.24-.87-3.31-.61-.99.24-1.62.69-2.46,1.61-1.44-.95-.08-1.4-.96-3.07-.49-.94-1.31-2.06-2.32-2.77-.85-.59-2.18-.18-3.51-.28-1.22-.09-2.36-.11-3.55.03s-2.38.15-3.49.61-1.92,1.2-2.83,2.07c-.82.77-1.72,1.49-2.34,2.66-.51.98-1.41,1.95-1.75,3.24-.32,1.21.29,2.47.21,3.55-.09,1.26-.87,2.44-.74,3.49.16,1.3.78,2.41,1.1,3.36.68,1.99,1.48,1.35,1.76,3.07s-.69,1.82-.49,3.62c.13,1.23.9,2.16,1.82,2.85s1.81,1.16,2.9,1.21c1.73.09,2.26-1.58,3.14-.17,1.07,1.72-.89,1.94-.3,4.02.32,1.12,1.47,2.1,2.78,3.04,1.14.82,2.28,1.4,3.39,1.25,1.19-.16,2.42-.63,3.52-.97,1.25-.38,2.11-.66,3.15.02.78.5,2.12,1.1,3.63,1.75,1.13.49,2.49.78,3.83,1.15s2.6.8,3.91.88c1.37.08,2.56-.38,3.78-.78h.01Z"/>
  </g>
  <g>
    <path class="st3" d="M136.03,41.94c1.21-2.87,1.08-2.65,2.81-5.56,1.03-1.73,2.69-3.22,4.06-4.67,1.66-1.75,3.18-2.92,5.03-2.69,2.36.3,4.1,1.38,5.62,3.3,1.27,1.6,2.01,3.69,2.84,6.13.69,2.01,1.21,4.2,1.68,6.62.42,2.18,1.23,4.16,1.28,6.08.07,2.33-.56,4.38-.79,6.17-.47,3.74-.41,3-1.46,5.92"/>
    <path class="st0" d="M136.03,41.94c1.21-2.87,1.08-2.65,2.81-5.56,1.03-1.73,2.69-3.22,4.06-4.67,1.66-1.75,3.18-2.92,5.03-2.69,2.36.3,4.1,1.38,5.62,3.3,1.27,1.6,2.01,3.69,2.84,6.13.69,2.01,1.21,4.2,1.68,6.62.42,2.18,1.23,4.16,1.28,6.08.07,2.33-.56,4.38-.79,6.17-.47,3.74-.41,3-1.46,5.92"/>
  </g>
  <g>
    <path class="st3" d="M84.15,134.65c-.88-1.08-1.89-1.77-2.5-2.6-.81-1.11-.94-2.5-1.7-3.28s-1.95-1.27-3.22-1.85c-.9-.41-2.13-.46-3.51-.82-1.03-.27-2.23-.35-3.47-.58-1.11-.2-2.26-.55-3.45-.77s-2.32-.43-3.47-.71-2.46-.26-3.53-.67c-1.14-.43-1.83-1.73-2.77-2.36-1-.66-2.37-.95-3.06-1.9s-1.09-2.14-1.36-3.38.39-2.37.7-3.43.56-2.2,1.34-3.16c.69-.85,1.85-1.31,2.79-2.12.85-.73,1.8-1.37,2.77-2.11.91-.69,1.5-1.85,2.44-2.59s1.67-1.62,2.56-2.4,2.2-1.11,2.98-1.99.92-2.23,1.56-3.23,1.74-1.8,2.29-2.96c.51-1.08.31-2.51.77-3.7s.88-2.26,1.28-3.46,1.72-2.04,2.08-3.23-.19-2.64.16-3.83.93-2.32,1.28-3.5.34-2.51.71-3.67c.38-1.22.86-2.38,1.27-3.51.44-1.22,1-2.36,1.48-3.43.54-1.21,1.1-2.32,1.72-3.29.82-1.65.94-1.09,2.07-3.08.52-.91,1.24-1.91,2.03-3.05.65-.93,1.52-1.79,2.36-2.8.75-.9.96-2.37,1.88-3.28.84-.84,2.16-1.22,3.15-2.03.92-.76,1.75-1.69,2.8-2.39.99-.66,1.85-1.67,2.97-2.26,1.06-.56,2.25-1,3.42-1.47,1.11-.45,2.44-.39,3.65-.74,1.15-.33,2.26-.98,3.5-1.21,1.17-.22,2.43-.15,3.69-.26,1.19-.11,2.41-.2,3.68-.21,1.19,0,2.44-.18,3.7-.09,1.19.09,2.45.09,3.7.27s2.33,1.27,3.5,1.49c1.26.23,2.63-.35,3.78-.09,1.25.28,2.29,1.16,3.43,1.49,1.23.35,2.62.08,3.73.48,1.21.44,2.18,1.34,3.24,1.85,1.16.55,2.03,1.46,3.03,2.08,1.08.67,2.32,1,3.24,1.75.97.8,1.58,1.9,2.39,2.8s1.41,1.93,2.08,2.96,1.95,1.68,2.49,2.8.81,2.31,1.23,3.5.67,2.33.99,3.55c.3,1.16.59,2.35.83,3.59.23,1.17.29,2.41.47,3.66.18,1.18.4,2.39.55,3.64s.11,2.43.24,3.68.18,2.42.29,3.68.6,2.39.7,3.65.16,2.48.21,3.69-.08,2.48-.04,3.7-.15,2.49-.12,3.69.64,2.47.69,3.67c.05,1.26.04,2.49.14,3.67.11,1.27-.22,2.55-.03,3.72.21,1.26.32,2.55.68,3.67.38,1.22,1.39,2.14,2,3.17s1.16,2.2,2.08,3.03,1.61,1.71,2.34,2.41c.92.87,2.35,1.05,3,1.78.85.96,1.04,2.22,1.48,3.12.5,1.01.34,2.06.4,3.25.05.98.36,2.04.16,3.31-.22,1.41-.72,2.62-1.43,3.59-.82,1.13-2.19,1.49-3.19,2.12-1.83,1.17-1.29,2.34-3.2,1.93s-1.33-1.34-3.29-1.78c-1.09-.25-2.64-.45-3.94,0-3.63,1.27-2.74,3.18-5.01,1.75-1.74-1.09-1.15-1.77-2.65-3.18s-1.49-1.43-3.03-2.79c-1.27-1.12-1.53-.6-3.49-.75-.95-.07-1.95.42-3.2.89-.92.35-1.93.67-2.95,1.5-1.09.89-2.27,1.45-3.1,2.22-1.03.96-1.64,2.14-2.54,2.85-1.02.81-2.14,1.36-3.39,1.74-1.05.32-2.28.44-3.77.37-1.34-.06-2.24-.62-3.05-1.18-.94-.65-2.04-1.18-2.66-2.09s-1.14-1.89-1.93-2.63-1.48-1.01-2.81-1.06c-1.18-.04-2.07.25-3.14.8-.98.5-1.9,1.13-2.89,1.85-.92.67-2.15.97-3.15,1.61s-2.07.92-3.19,1.32c-1.05.38-2.07.55-3.31.56-1.13,0-2.23.1-3.36-.05s-2.28-.21-3.35-.48c-1.14-.29-2.4-.18-3.41-.56-1.16-.44-1.94-1.54-2.84-2.01-1.31-.7-2.22-1.32-2.68-1.89v.04Z"/>
    <path class="st0" d="M84.15,134.65c-.88-1.08-1.89-1.77-2.5-2.6-.81-1.11-.94-2.5-1.7-3.28s-1.95-1.27-3.22-1.85c-.9-.41-2.13-.46-3.51-.82-1.03-.27-2.23-.35-3.47-.58-1.11-.2-2.26-.55-3.45-.77s-2.32-.43-3.47-.71-2.46-.26-3.53-.67c-1.14-.43-1.83-1.73-2.77-2.36-1-.66-2.37-.95-3.06-1.9s-1.09-2.14-1.36-3.38.39-2.37.7-3.43.56-2.2,1.34-3.16c.69-.85,1.85-1.31,2.79-2.12.85-.73,1.8-1.37,2.77-2.11.91-.69,1.5-1.85,2.44-2.59s1.67-1.62,2.56-2.4,2.2-1.11,2.98-1.99.92-2.23,1.56-3.23,1.74-1.8,2.29-2.96c.51-1.08.31-2.51.77-3.7s.88-2.26,1.28-3.46,1.72-2.04,2.08-3.23-.19-2.64.16-3.83.93-2.32,1.28-3.5.34-2.51.71-3.67c.38-1.22.86-2.38,1.27-3.51.44-1.22,1-2.36,1.48-3.43.54-1.21,1.1-2.32,1.72-3.29.82-1.65.94-1.09,2.07-3.08.52-.91,1.24-1.91,2.03-3.05.65-.93,1.52-1.79,2.36-2.8.75-.9.96-2.37,1.88-3.28.84-.84,2.16-1.22,3.15-2.03.92-.76,1.75-1.69,2.8-2.39.99-.66,1.85-1.67,2.97-2.26,1.06-.56,2.25-1,3.42-1.47,1.11-.45,2.44-.39,3.65-.74,1.15-.33,2.26-.98,3.5-1.21,1.17-.22,2.43-.15,3.69-.26,1.19-.11,2.41-.2,3.68-.21,1.19,0,2.44-.18,3.7-.09,1.19.09,2.45.09,3.7.27s2.33,1.27,3.5,1.49c1.26.23,2.63-.35,3.78-.09,1.25.28,2.29,1.16,3.43,1.49,1.23.35,2.62.08,3.73.48,1.21.44,2.18,1.34,3.24,1.85,1.16.55,2.03,1.46,3.03,2.08,1.08.67,2.32,1,3.24,1.75.97.8,1.58,1.9,2.39,2.8s1.41,1.93,2.08,2.96,1.95,1.68,2.49,2.8.81,2.31,1.23,3.5.67,2.33.99,3.55c.3,1.16.59,2.35.83,3.59.23,1.17.29,2.41.47,3.66.18,1.18.4,2.39.55,3.64s.11,2.43.24,3.68.18,2.42.29,3.68.6,2.39.7,3.65.16,2.48.21,3.69-.08,2.48-.04,3.7-.15,2.49-.12,3.69.64,2.47.69,3.67c.05,1.26.04,2.49.14,3.67.11,1.27-.22,2.55-.03,3.72.21,1.26.32,2.55.68,3.67.38,1.22,1.39,2.14,2,3.17s1.16,2.2,2.08,3.03,1.61,1.71,2.34,2.41c.92.87,2.35,1.05,3,1.78.85.96,1.04,2.22,1.48,3.12.5,1.01.34,2.06.4,3.25.05.98.36,2.04.16,3.31-.22,1.41-.72,2.62-1.43,3.59-.82,1.13-2.19,1.49-3.19,2.12-1.83,1.17-1.29,2.34-3.2,1.93s-1.33-1.34-3.29-1.78c-1.09-.25-2.64-.45-3.94,0-3.63,1.27-2.74,3.18-5.01,1.75-1.74-1.09-1.15-1.77-2.65-3.18s-1.49-1.43-3.03-2.79c-1.27-1.12-1.53-.6-3.49-.75-.95-.07-1.95.42-3.2.89-.92.35-1.93.67-2.95,1.5-1.09.89-2.27,1.45-3.1,2.22-1.03.96-1.64,2.14-2.54,2.85-1.02.81-2.14,1.36-3.39,1.74-1.05.32-2.28.44-3.77.37-1.34-.06-2.24-.62-3.05-1.18-.94-.65-2.04-1.18-2.66-2.09s-1.14-1.89-1.93-2.63-1.48-1.01-2.81-1.06c-1.18-.04-2.07.25-3.14.8-.98.5-1.9,1.13-2.89,1.85-.92.67-2.15.97-3.15,1.61s-2.07.92-3.19,1.32c-1.05.38-2.07.55-3.31.56-1.13,0-2.23.1-3.36-.05s-2.28-.21-3.35-.48c-1.14-.29-2.4-.18-3.41-.56-1.16-.44-1.94-1.54-2.84-2.01-1.31-.7-2.22-1.32-2.68-1.89v.04Z"/>
  </g>
  <g>
    <path class="st3" d="M87.97,55.09c-.25-3.41.57-2.8.69-6.83.06-2.03-.32-4.38-.03-6.83.27-2.2.84-4.44,1.4-6.69.79-3.19,1.35-5.8,2.7-7.24,1.72-1.82,4.29-2.06,7.43-1.01,1.92.65,4.25,1.75,6.87,3.5,3.01,2,5.45,3.83,7.01,5.66,3.78,4.42,3.07,3.74,3.36,8.19"/>
    <path class="st0" d="M87.97,55.09c-.25-3.41.57-2.8.69-6.83.06-2.03-.32-4.38-.03-6.83.27-2.2.84-4.44,1.4-6.69.79-3.19,1.35-5.8,2.7-7.24,1.72-1.82,4.29-2.06,7.43-1.01,1.92.65,4.25,1.75,6.87,3.5,3.01,2,5.45,3.83,7.01,5.66,3.78,4.42,3.07,3.74,3.36,8.19"/>
  </g>
  <path class="st0" d="M65.74,61.88c1.37.53,1.2.03,2.87.74.78.33,1.4,1.38,2.41,1.83.83.37,1.85.5,2.79.95.85.4,1.89.52,2.79.97s1.81.76,2.68,1.23,1.65,1.09,2.49,1.58,1.72,1.01,2.52,1.54c.85.56,1.9.82,2.65,1.39"/>
  <path class="st0" d="M61.85,75.82c1.48.26,1.12.16,2.96.52.84.16,1.73.89,2.84,1.12.91.19,1.91.3,2.95.53.94.21,1.93.37,2.94.61.95.22,1.86.7,2.86.95s1.92.51,2.9.77,2.09-.06,3.05.22,1.79,1.04,2.73,1.34"/>
  <path class="st0" d="M155.96,76.88c1.31-.77,1.05-.61,2.71-1.45.78-.4,1.92-.45,2.95-.93.87-.4,2-.35,2.99-.76.91-.37,1.67-1.25,2.65-1.59s1.93-.68,2.91-.95,2.1.01,3.08-.17,1.99-.41,2.97-.47"/>
  <path class="st0" d="M153.21,87.57c1.43-.21,1.09-.21,2.85-.44.83-.11,1.83.03,2.9-.1.9-.1,1.86-.19,2.87-.29.93-.1,1.84-.79,2.82-.88s1.96.33,2.92.26,1.95.06,2.89.02c1.01-.04,1.96-1.06,2.87-1.05,1.06,0,1.99,1.04,2.83,1.12"/>
  <path class="st0" d="M94.16,90.55c1.64.56,1.45.5,3.25,1.38.94.46,1.98,1.17,3,1.85.96.63,2.06,1.32,2.86,2.13.84.85,1.22,2.15,1.64,3.19.47,1.18,1.07,2.17,1.2,3.06.21,1.32-.07,2.51-.43,3.33-.44,1.01-1.74,1.16-2.7,1.71-1.2.69-2.17.26-3.36-.87-1.08-1.03-2.04-2.45-3-2.92-2.03-1-2.61-.49-5.27-.61"/>
  <path class="st0" d="M146.2,95.41c1.64.71,1.47.35,3.14,1.66.82.65,1.93,1.31,2.78,2.33.71.85,1.57,1.84,2.15,2.98.64,1.27,1.11,2.52,1.37,3.55.36,1.45-.07,2.8-.36,3.8-.36,1.24-1.43,1.71-2.62,2.25-1.48.67-2.44.12-3.42-1.17-.9-1.18-1.72-2.54-2.76-3.13-.84-.47-1.75-1.34-2.76-1.61"/>
  <g>
    <path class="st2" d="M101.29,62.62c-1.53,2.12-2.28,4.24-2.14,6.33.16,2.32,1.37,4.42,2.59,6.23,1.59,2.35,3.48,4.22,4.8,4.72,1.08.4,3.04.97,5.26,1.24,1.7.21,3.57.17,5.36-.34,1.64-.46,3.1-1.41,4.41-2.91,1.02-1.17,1.92-2.65,2.52-4.69.51-1.72.15-3.5-.63-5.33-.68-1.6-1.47-3.36-2.84-4.75-1.28-1.3-2.98-2.21-4.62-3.09s-3.4-1.65-5.2-1.85-3.65.16-5.38.95c-1.54.7-2.92,1.8-4.15,3.5h.02Z"/>
    <path class="st0" d="M101.29,62.62c-1.53,2.12-2.28,4.24-2.14,6.33.16,2.32,1.37,4.42,2.59,6.23,1.59,2.35,3.48,4.22,4.8,4.72,1.08.4,3.04.97,5.26,1.24,1.7.21,3.57.17,5.36-.34,1.64-.46,3.1-1.41,4.41-2.91,1.02-1.17,1.92-2.65,2.52-4.69.51-1.72.15-3.5-.63-5.33-.68-1.6-1.47-3.36-2.84-4.75-1.28-1.3-2.98-2.21-4.62-3.09s-3.4-1.65-5.2-1.85-3.65.16-5.38.95c-1.54.7-2.92,1.8-4.15,3.5h.02Z"/>
  </g>
  <g>
    <path class="st2" d="M128.46,73.73c-.24,1.68.28,3.52,1.19,5.18.8,1.48,1.92,2.99,3.58,3.96,1.4.82,3.2,1.1,5.19,1.26,1.59.13,3.39.25,5.34-.21,2.1-.49,3.92-1.24,5.3-2.25,1.67-1.22,2.73-2.9,3.48-4.54.83-1.8.96-3.73.88-5.56-.09-2.06-.29-4.11-1.25-5.55-1.04-1.56-2.48-2.76-3.97-3.53-1.58-.81-3.42-.86-5.17-.87s-3.58.11-5.16.85-3.1,1.58-4.4,2.59-2.56,2.29-3.43,3.8c-.78,1.35-1.32,3-1.59,4.87h0Z"/>
    <path class="st0" d="M128.46,73.73c-.24,1.68.28,3.52,1.19,5.18.8,1.48,1.92,2.99,3.58,3.96,1.4.82,3.2,1.1,5.19,1.26,1.59.13,3.39.25,5.34-.21,2.1-.49,3.92-1.24,5.3-2.25,1.67-1.22,2.73-2.9,3.48-4.54.83-1.8.96-3.73.88-5.56-.09-2.06-.29-4.11-1.25-5.55-1.04-1.56-2.48-2.76-3.97-3.53-1.58-.81-3.42-.86-5.17-.87s-3.58.11-5.16.85-3.1,1.58-4.4,2.59-2.56,2.29-3.43,3.8c-.78,1.35-1.32,3-1.59,4.87h0Z"/>
  </g>
  <circle class="st1" cx="117.3" cy="71.91" r="3.85"/>
  <circle class="st1" cx="136.34" cy="74.01" r="3.85"/>
  <path d="M135.76,147.94s5.69-13.03,11.79-14.27l-2.72-2.31s-4.29-.66-6.43,1.4-6.19,6.93-9.32,7.51l6.68,7.67h0Z"/>
  <path d="M82.56,132.69s2.92,8.46,8.65,11.18c0,0,4.18-1.99,6.39-4.15,0,0-11.11-.42-15.04-7.02h0Z"/>
</svg>