<?xml version="1.0" encoding="UTF-8"?>
<svg id="_레이어_1" xmlns="http://www.w3.org/2000/svg" version="1.1" viewBox="0 0 200 200">
  <!-- Generator: Adobe Illustrator 30.2.1, SVG Export Plug-In . SVG Version: 2.1.1 Build 1)  -->
  <defs>
    <style>
      .st0 {
        fill: none;
        stroke-linecap: round;
        stroke-linejoin: round;
        stroke-width: 2.4px;
      }

      .st0, .st1 {
        stroke: #000;
      }

      .st2 {
        fill: #ffaf42;
      }

      .st1 {
        stroke-miterlimit: 10;
        stroke-width: 1.2px;
      }

      .st3 {
        fill: #fff;
      }

      .st4 {
        fill: #cec5b3;
      }
    </style>
  </defs>
  <g>
    <path class="st2" d="M130.73,133.78c.38,1.37.24,1.13.47,2.81.12.83.24,1.79.27,2.83.03.9-.14,1.86-.24,2.83s-.19,1.87-.45,2.8-.74,1.71-1.2,2.55-1.01,1.5-1.72,2.18c-.65.63-1.17,1.5-2.06,1.97-.78.41-1.71.74-2.7.99-.93.23-1.83.25-2.62.42-.96.2-1.85.14-2.64.27-1,.16-1.81.82-2.57.88-1.11.08-2.02-.02-2.69-.09-2.12-.22-1.15-1.84-2.41-1.43s-.75.98-1.66,2.3c-.45.65-.55,1.73-1.21,2.46-.58.64-1.43,1.07-2.15,1.65s-1.5.88-2.32,1.29-1.39,1.55-2.29,1.73c-.85.16-1.85-.36-2.8-.47-1.08-.12-1.6-.89-2.22-1.67-.56-.7-1.27-1.37-1.54-2.44-.23-.9-.43-1.89-.5-2.95-.06-.96.54-1.95.57-2.97s-.3-2.01-.2-2.99.49-1.99.63-2.93c.17-1.09.52-2.04.68-2.9.35-1.77-.29-1.58.07-3.03"/>
    <path class="st0" d="M130.73,133.78c.38,1.37.24,1.13.47,2.81.12.83.24,1.79.27,2.83.03.9-.14,1.86-.24,2.83s-.19,1.87-.45,2.8-.74,1.71-1.2,2.55-1.01,1.5-1.72,2.18c-.65.63-1.17,1.5-2.06,1.97-.78.41-1.71.74-2.7.99-.93.23-1.83.25-2.62.42-.96.2-1.85.14-2.64.27-1,.16-1.81.82-2.57.88-1.11.08-2.02-.02-2.69-.09-2.12-.22-1.15-1.84-2.41-1.43s-.75.98-1.66,2.3c-.45.65-.55,1.73-1.21,2.46-.58.64-1.43,1.07-2.15,1.65s-1.5.88-2.32,1.29-1.39,1.55-2.29,1.73c-.85.16-1.85-.36-2.8-.47-1.08-.12-1.6-.89-2.22-1.67-.56-.7-1.27-1.37-1.54-2.44-.23-.9-.43-1.89-.5-2.95-.06-.96.54-1.95.57-2.97s-.3-2.01-.2-2.99.49-1.99.63-2.93c.17-1.09.52-2.04.68-2.9.35-1.77-.29-1.58.07-3.03"/>
  </g>
  <g>
    <path class="st2" d="M101.8,141.2c.71,1.21.6.88,1.29,2.42.33.74.66,1.6,1,2.57.29.83,1.44,1.46,1.69,2.41.23.88.41,1.85.55,2.79s-.03,1.91-.02,2.85.14,1.94-.01,2.86c-.17,1.01-.6,1.92-.7,2.84-.12,1.04-.67,2-.66,2.9,0,1.06.9,1.9,1.14,2.77.27.98,0,2.21.65,2.93.6.66,1.64,1.01,2.64,1.45.79.35,1.78.37,2.86.57.9.17,1.79.67,2.77.82s1.94-.27,2.9-.19,1.88.46,2.83.47,1.96.18,2.88.07c.98-.12,2.04-.07,2.91-.36.94-.31,1.61-1.22,2.36-1.76s1.79-.97,2.3-1.82c.46-.76.88-1.75,1.09-2.77s.23-2.07.15-2.92c-.1-1.02-.53-1.99-.93-2.77-.45-.88-1.24-1.53-1.91-2.14-.75-.68-1.48-1.39-2.24-1.78-1.43-.74-2.1.5-2.98-.6-.96-1.19.52-1.39.39-3.28-.06-.87-.24-1.91-.39-3.04-.12-.94-.91-1.84-1.11-2.91-.18-.96-.34-1.95-.61-2.97-.25-.96-.43-1.95-.77-2.93s-.34-2.04-.77-2.98-.99-1.78-1.52-2.66"/>
    <path class="st0" d="M101.8,141.2c.71,1.21.6.88,1.29,2.42.33.74.66,1.6,1,2.57.29.83,1.44,1.46,1.69,2.41.23.88.41,1.85.55,2.79s-.03,1.91-.02,2.85.14,1.94-.01,2.86c-.17,1.01-.6,1.92-.7,2.84-.12,1.04-.67,2-.66,2.9,0,1.06.9,1.9,1.14,2.77.27.98,0,2.21.65,2.93.6.66,1.64,1.01,2.64,1.45.79.35,1.78.37,2.86.57.9.17,1.79.67,2.77.82s1.94-.27,2.9-.19,1.88.46,2.83.47,1.96.18,2.88.07c.98-.12,2.04-.07,2.91-.36.94-.31,1.61-1.22,2.36-1.76s1.79-.97,2.3-1.82c.46-.76.88-1.75,1.09-2.77s.23-2.07.15-2.92c-.1-1.02-.53-1.99-.93-2.77-.45-.88-1.24-1.53-1.91-2.14-.75-.68-1.48-1.39-2.24-1.78-1.43-.74-2.1.5-2.98-.6-.96-1.19.52-1.39.39-3.28-.06-.87-.24-1.91-.39-3.04-.12-.94-.91-1.84-1.11-2.91-.18-.96-.34-1.95-.61-2.97-.25-.96-.43-1.95-.77-2.93s-.34-2.04-.77-2.98-.99-1.78-1.52-2.66"/>
  </g>
  <path class="st4" d="M52.37,155.1c-.4-.9-.58-1.74-.96-2.38-.53-.9-.95-1.58-1.56-1.98-.7-.46-1.44-.5-2.43-.32s-1.78.92-2.27,1.9c-.69,1.4.1,1.72-1.14,2.68s-.55-.75-1.03-2.5c-.24-.88.58-2.23.21-3.28-.33-.94-1.02-1.83-1.45-2.77s-.8-2.02-1.35-2.83c-.62-.92-1.44-1.8-2.21-2.33-.87-.6-2.1-.62-3.16-.45-.97.16-2.08.12-2.76.58-.76.52-1.45,1.39-1.92,2.12s-.1,1.96-.34,2.78c-.28.93-.71,1.76-.79,2.52-.09-.23-.91-1-1.59-2.27-.38-.72-.89-1.44-1.45-2.26-.5-.73-.48-1.9-1.11-2.59s-1.33-1.33-2.08-1.85-1.86-.2-2.74-.44-1.68-1.37-2.64-1.23c-.82.12-1.86.44-2.76.91-.99.52-1.93,1.31-2.53,2.05-.66.81-1.14,1.93-1.41,2.91s.09,2.11.1,3.15.29,2,.48,3,.48,2,.78,2.93c.34,1.06.76,2,1.11,2.83.7,1.67-.38,2.11.66,3.23.57.62,1.63-.38,2.18.24-.93-.57-2.41-.71-3.46-.96-1.12-.27-2.28-.27-3.24.34-.84.53-1.13,1.46-1.03,2.49.08.81.28,1.8.82,2.7.45.75,1.16,1.44,1.87,2.13.65.64,1.49,1.09,2.3,1.59s1.54,1.13,2.44,1.4c.9.27,1.85.04,2.8.03,1.08-.02,2.11.13,3.11.08,1.07-.05,2.07-.47,3.08-.55s2.13.69,3.16.6,1.99-.8,3.04-.87,2.06.48,3.13.43c.99-.04,2.01,0,3.09,0,.89,0,1.8-.7,2.74-.71s1.84.17,2.75.17,1.86-.22,2.75-.22c.96,0,1.89.25,2.75.25,1.02,0,1.95.25,2.75.25,1.68,0,2.13,1.06,3.11.1s.12-1.47.14-3.07c0-.8-.96-1.72-.98-2.7-.02-.88.09-1.78.02-2.69s.38-1.91.24-2.75c-.17-1.01-.91-1.74-1.21-2.42v.04ZM28.14,150.45c.14-.82.28-1.06.91-1.61-.1,1.06.73,1.34.09,1.97-.36.35-.64-.22-1-.36Z"/>
  <g>
    <path class="st2" d="M69.24,118.06c-1.61.61-1.24.46-3.29,1.09-.94.29-2.1.5-3.36.84-1.03.27-2.13.69-3.32.96-1.07.24-2.3.03-3.47.24-1.1.2-2.19.69-3.36.86s-2.29.16-3.45.27-2.32-.6-3.48-.56-2.3.57-3.5.54-2.32-.31-3.49-.43-2.44.26-3.57.03c-1.19-.23-2.3-.8-3.36-1.16-1.18-.4-2.34-.79-3.27-1.37-1.07-.66-2.27-1.34-2.87-2.27s-.29-2.34-.27-3.61c.02-1.41-.07-2.66.45-3.62.59-1.09,1.89-1.36,2.99-2,.99-.57,1.92-1.21,3.21-1.5,1.13-.25,2.29-.76,3.58-.84,1.18-.08,2.43-.26,3.69-.25s2.45.21,3.68.26c1.13.05,2.39,0,3.75-.09,1.19-.08,2.38-.6,3.68-.79,1.21-.17,2.59.48,3.85.23s2.29-1.22,3.52-1.52,2.45-.52,3.65-.88,2.62-.18,3.77-.61c1.22-.45,2.26-1.27,3.35-1.78,1.21-.56,2.57-.75,3.57-1.36,1.18-.72,2.33-1.5,3.12-2.29"/>
    <path class="st0" d="M69.24,118.06c-1.61.61-1.24.46-3.29,1.09-.94.29-2.1.5-3.36.84-1.03.27-2.13.69-3.32.96-1.07.24-2.3.03-3.47.24-1.1.2-2.19.69-3.36.86s-2.29.16-3.45.27-2.32-.6-3.48-.56-2.3.57-3.5.54-2.32-.31-3.49-.43-2.44.26-3.57.03c-1.19-.23-2.3-.8-3.36-1.16-1.18-.4-2.34-.79-3.27-1.37-1.07-.66-2.27-1.34-2.87-2.27s-.29-2.34-.27-3.61c.02-1.41-.07-2.66.45-3.62.59-1.09,1.89-1.36,2.99-2,.99-.57,1.92-1.21,3.21-1.5,1.13-.25,2.29-.76,3.58-.84,1.18-.08,2.43-.26,3.69-.25s2.45.21,3.68.26c1.13.05,2.39,0,3.75-.09,1.19-.08,2.38-.6,3.68-.79,1.21-.17,2.59.48,3.85.23s2.29-1.22,3.52-1.52,2.45-.52,3.65-.88,2.62-.18,3.77-.61c1.22-.45,2.26-1.27,3.35-1.78,1.21-.56,2.57-.75,3.57-1.36,1.18-.72,2.33-1.5,3.12-2.29"/>
  </g>
  <g>
    <path class="st3" d="M128.38,53.95c.15-3.11.1-2.86.72-6.19.37-1.98,1.41-3.95,2.2-5.79.96-2.22,1.98-3.84,3.79-4.25,2.32-.53,4.32-.12,6.42,1.16,1.74,1.06,3.16,2.77,4.78,4.77,1.34,1.65,2.58,3.52,3.86,5.63,1.15,1.9,2.58,3.48,3.3,5.27.87,2.16.98,4.31,1.38,6.06.84,3.67.65,2.95.67,6.06"/>
    <path class="st0" d="M128.38,53.95c.15-3.11.1-2.86.72-6.19.37-1.98,1.41-3.95,2.2-5.79.96-2.22,1.98-3.84,3.79-4.25,2.32-.53,4.32-.12,6.42,1.16,1.74,1.06,3.16,2.77,4.78,4.77,1.34,1.65,2.58,3.52,3.86,5.63,1.15,1.9,2.58,3.48,3.3,5.27.87,2.16.98,4.31,1.38,6.06.84,3.67.65,2.95.67,6.06"/>
  </g>
  <g>
    <path class="st3" d="M81.66,68.74c.82-1.65.15-1.49,1.28-3.48.52-.91,1.77-1.58,2.56-2.72.65-.93,1.12-2.08,1.97-3.09.75-.9,1.31-2.04,2.22-2.95.84-.84,1.66-1.79,2.64-2.6.92-.76,2.01-1.38,3.06-2.09.99-.66,2.04-1.33,3.16-1.92,1.06-.56,2.03-1.45,3.2-1.93,1.11-.45,2.56-.04,3.77-.39,1.15-.33,2.17-1.32,3.42-1.56,1.17-.22,2.43-.28,3.7-.39,1.19-.11,2.44.45,3.71.45,1.19,0,2.42-.33,3.68-.24,1.19.09,2.35.68,3.6.86s2.33.43,3.45.63c1.19.21,2.45-.13,3.55.12,1.19.26,2.38.33,3.47.62,1.17.32,2.09,1.31,3.16,1.68,1.15.39,2.5.13,3.54.58,1.12.48,1.92,1.52,2.91,2.06,1.06.58,2.46.57,3.39,1.23.98.7,1.91,1.5,2.75,2.28s.92,2.34,1.65,3.25,2.16,1.33,2.76,2.34.92,2.18,1.39,3.27,1.24,2.04,1.6,3.18.58,2.28.85,3.45c.26,1.11.39,2.3.59,3.49.19,1.12.37,2.3.52,3.49.14,1.13-.23,2.35-.12,3.55s.09,2.31.17,3.51-.05,2.32,0,3.52.93,2.28.97,3.48-.52,2.41-.47,3.53c.05,1.22.36,2.38.42,3.49.07,1.23.56,2.37.64,3.47.09,1.24.07,2.4.16,3.5.11,1.25-.26,2.45-.14,3.54.14,1.26.67,2.36.83,3.43.19,1.27.15,2.45.37,3.49.26,1.27.57,2.38.86,3.4.35,1.23.92,2.23,1.31,3.24.43,1.12,1,2.09,1.47,3.16.44,1.01.05,2.4.52,3.57s1.62,2.01,1.88,3.05c.31,1.24-.1,2.48-.08,3.53.03,1.28.54,2.55.19,3.57-.39,1.13-1.43,1.93-2.26,2.77-.77.78-1.89,1.08-3.01,1.63s-1.9,1.27-2.78,1.43c-1.2.22-2.15-.23-3.07-.41-1.1-.21-2.02-.73-3.01-.94s-1.99.5-3.14.88c-1.06.35-2.15.45-3.12.68-1.1.25-2.16.35-3.15.45-1.13.11-2.19.14-3.17.03-1.11-.12-2.08-.52-3-.93-1.23-.55-1.91-1.51-2.79-2.7-.67-.92-1.39-2.06-2.65-3.01-.89-.67-2.05-1.38-3.54-1.94-1.22-.46-2.4-.31-3.4-.36-1.2-.06-2.23.12-3.28.5s-2.07.74-3.09,1.38c-.9.56-1.95,1.01-2.96,1.66-.89.58-1.56,1.66-2.62,2.24-1.27.7-2.43,1.21-3.45,1.69-1.3.61-2.6.62-3.72.92-1.23.33-2.36.29-3.71.29-1.13,0-2.39.46-3.83.26-1.17-.16-2.3-.52-3.44-.56s-2.33-.24-3.47-.3-2.45.74-3.58.54-2.14-1.08-3.22-1.57c-1-.45-1.7-1.37-2.64-2.19-1.05-.91-2.09-1.46-2.74-2.24-.87-1.04-1.55-1.93-2.24-2.75s-1.21-2.12-2.42-2.76c-.86-.46-2.15-.52-3.55-.88-1.03-.27-2.17-.75-3.42-.98-1.11-.2-2.25-.57-3.44-.79s-2.42.11-3.56-.17-2.12-1.1-3.19-1.51c-1.14-.43-2.13-.87-3.07-1.5-1-.66-2.1-1.09-2.78-2.04s-1.54-1.87-1.8-3.11,0-2.53.32-3.59,1.23-1.91,2-2.87c.69-.85,1.24-1.96,2.18-2.77.85-.73,1.86-1.36,2.83-2.09.91-.69,1.87-1.37,2.81-2.1s1.96-1.29,2.85-2.07c.89-.78,1.31-1.98,2.09-2.86s1.51-1.7,2.15-2.7,1.12-2.09,1.67-3.25c.51-1.08.98-2.19,1.44-3.38s.87-2.27,1.27-3.46,1.24-2.18,1.61-3.37.97-2.29,1.32-3.48.74-2.38,1.09-3.55.56-2.44.92-3.59c.38-1.22.61-2.44,1.02-3.57.44-1.22.44-2.57.92-3.64.54-1.21,1.71-2.03,2.32-2.99l-.03-.03Z"/>
    <path class="st0" d="M81.66,68.74c.82-1.65.15-1.49,1.28-3.48.52-.91,1.77-1.58,2.56-2.72.65-.93,1.12-2.08,1.97-3.09.75-.9,1.31-2.04,2.22-2.95.84-.84,1.66-1.79,2.64-2.6.92-.76,2.01-1.38,3.06-2.09.99-.66,2.04-1.33,3.16-1.92,1.06-.56,2.03-1.45,3.2-1.93,1.11-.45,2.56-.04,3.77-.39,1.15-.33,2.17-1.32,3.42-1.56,1.17-.22,2.43-.28,3.7-.39,1.19-.11,2.44.45,3.71.45,1.19,0,2.42-.33,3.68-.24,1.19.09,2.35.68,3.6.86s2.33.43,3.45.63c1.19.21,2.45-.13,3.55.12,1.19.26,2.38.33,3.47.62,1.17.32,2.09,1.31,3.16,1.68,1.15.39,2.5.13,3.54.58,1.12.48,1.92,1.52,2.91,2.06,1.06.58,2.46.57,3.39,1.23.98.7,1.91,1.5,2.75,2.28s.92,2.34,1.65,3.25,2.16,1.33,2.76,2.34.92,2.18,1.39,3.27,1.24,2.04,1.6,3.18.58,2.28.85,3.45c.26,1.11.39,2.3.59,3.49.19,1.12.37,2.3.52,3.49.14,1.13-.23,2.35-.12,3.55s.09,2.31.17,3.51-.05,2.32,0,3.52.93,2.28.97,3.48-.52,2.41-.47,3.53c.05,1.22.36,2.38.42,3.49.07,1.23.56,2.37.64,3.47.09,1.24.07,2.4.16,3.5.11,1.25-.26,2.45-.14,3.54.14,1.26.67,2.36.83,3.43.19,1.27.15,2.45.37,3.49.26,1.27.57,2.38.86,3.4.35,1.23.92,2.23,1.31,3.24.43,1.12,1,2.09,1.47,3.16.44,1.01.05,2.4.52,3.57s1.62,2.01,1.88,3.05c.31,1.24-.1,2.48-.08,3.53.03,1.28.54,2.55.19,3.57-.39,1.13-1.43,1.93-2.26,2.77-.77.78-1.89,1.08-3.01,1.63s-1.9,1.27-2.78,1.43c-1.2.22-2.15-.23-3.07-.41-1.1-.21-2.02-.73-3.01-.94s-1.99.5-3.14.88c-1.06.35-2.15.45-3.12.68-1.1.25-2.16.35-3.15.45-1.13.11-2.19.14-3.17.03-1.11-.12-2.08-.52-3-.93-1.23-.55-1.91-1.51-2.79-2.7-.67-.92-1.39-2.06-2.65-3.01-.89-.67-2.05-1.38-3.54-1.94-1.22-.46-2.4-.31-3.4-.36-1.2-.06-2.23.12-3.28.5s-2.07.74-3.09,1.38c-.9.56-1.95,1.01-2.96,1.66-.89.58-1.56,1.66-2.62,2.24-1.27.7-2.43,1.21-3.45,1.69-1.3.61-2.6.62-3.72.92-1.23.33-2.36.29-3.71.29-1.13,0-2.39.46-3.83.26-1.17-.16-2.3-.52-3.44-.56s-2.33-.24-3.47-.3-2.45.74-3.58.54-2.14-1.08-3.22-1.57c-1-.45-1.7-1.37-2.64-2.19-1.05-.91-2.09-1.46-2.74-2.24-.87-1.04-1.55-1.93-2.24-2.75s-1.21-2.12-2.42-2.76c-.86-.46-2.15-.52-3.55-.88-1.03-.27-2.17-.75-3.42-.98-1.11-.2-2.25-.57-3.44-.79s-2.42.11-3.56-.17-2.12-1.1-3.19-1.51c-1.14-.43-2.13-.87-3.07-1.5-1-.66-2.1-1.09-2.78-2.04s-1.54-1.87-1.8-3.11,0-2.53.32-3.59,1.23-1.91,2-2.87c.69-.85,1.24-1.96,2.18-2.77.85-.73,1.86-1.36,2.83-2.09.91-.69,1.87-1.37,2.81-2.1s1.96-1.29,2.85-2.07c.89-.78,1.31-1.98,2.09-2.86s1.51-1.7,2.15-2.7,1.12-2.09,1.67-3.25c.51-1.08.98-2.19,1.44-3.38s.87-2.27,1.27-3.46,1.24-2.18,1.61-3.37.97-2.29,1.32-3.48.74-2.38,1.09-3.55.56-2.44.92-3.59c.38-1.22.61-2.44,1.02-3.57.44-1.22.44-2.57.92-3.64.54-1.21,1.71-2.03,2.32-2.99l-.03-.03Z"/>
  </g>
  <path class="st0" d="M63.53,69.92c1.41.41,1.2-.08,2.93.48.8.26,1.52,1.25,2.56,1.61.86.3,1.89.34,2.86.7.89.33,1.93.35,2.87.72s1.87.6,2.78.99,1.74.94,2.62,1.36,1.8.85,2.64,1.31c.89.48,1.97.65,2.76,1.15"/>
  <path class="st0" d="M60.89,84.15c1.49.13,1.13.06,2.99.25.85.09,1.8.73,2.93.86.92.11,1.93.13,2.99.27.95.12,1.95.2,2.98.35.97.14,1.92.53,2.93.69s1.96.33,2.95.51,2.08-.24,3.06-.05,1.87.88,2.84,1.09"/>
  <path class="st0" d="M155.49,84.58c1.31-.77,1.05-.61,2.71-1.45.78-.4,1.92-.45,2.95-.93.87-.4,2-.35,2.99-.76.91-.37,1.67-1.25,2.65-1.59s1.93-.68,2.91-.95,2.1.01,3.08-.17,1.99-.41,2.97-.47"/>
  <path class="st0" d="M152.74,95.28c1.43-.21,1.09-.21,2.85-.44.83-.11,1.83.03,2.9-.1.9-.1,1.86-.19,2.87-.29.93-.1,1.84-.79,2.82-.88s1.96.33,2.92.26,1.95.06,2.89.02c1.01-.04,1.96-1.06,2.87-1.05,1.06,0,1.99,1.04,2.83,1.12"/>
  <path class="st0" d="M100.6,100.94c.61,1.62.53,1.44.98,3.4.23,1.02.34,2.27.46,3.5.11,1.14.27,2.43.15,3.56-.13,1.19-.9,2.31-1.44,3.28-.62,1.11-1.01,2.2-1.61,2.87-.89.99-1.99,1.53-2.85,1.77-1.06.29-1.99-.62-3.03-1.02-1.29-.49-1.57-1.52-1.44-3.16.12-1.49.61-3.13.37-4.17-.51-2.21-1.27-2.33-2.85-4.47"/>
  <path class="st0" d="M148.69,105.2c1.09,1.42,1.12,1.02,1.93,2.98.4.96,1.04,2.08,1.29,3.38.21,1.09.48,2.37.42,3.65-.06,1.42-.26,2.74-.53,3.77-.39,1.44-1.43,2.42-2.16,3.14-.92.91-2.08.8-3.39.68-1.62-.14-2.19-1.08-2.42-2.69-.21-1.47-.26-3.06-.89-4.08-.5-.82-.87-2.02-1.63-2.75"/>
  <g>
    <path class="st2" d="M99.33,70.37c-1.53,2.12-2.28,4.24-2.14,6.33.16,2.32,1.37,4.42,2.59,6.23,1.59,2.35,3.48,4.22,4.8,4.72,1.08.4,3.04.97,5.26,1.24,1.7.21,3.57.17,5.36-.34,1.64-.46,3.1-1.41,4.41-2.91,1.02-1.17,1.92-2.65,2.52-4.69.51-1.72.15-3.5-.63-5.33-.68-1.6-1.47-3.36-2.84-4.75-1.28-1.3-2.98-2.21-4.62-3.09s-3.4-1.65-5.2-1.85-3.65.16-5.38.95c-1.54.7-2.92,1.8-4.15,3.5h.02Z"/>
    <path class="st0" d="M99.33,70.37c-1.53,2.12-2.28,4.24-2.14,6.33.16,2.32,1.37,4.42,2.59,6.23,1.59,2.35,3.48,4.22,4.8,4.72,1.08.4,3.04.97,5.26,1.24,1.7.21,3.57.17,5.36-.34,1.64-.46,3.1-1.41,4.41-2.91,1.02-1.17,1.92-2.65,2.52-4.69.51-1.72.15-3.5-.63-5.33-.68-1.6-1.47-3.36-2.84-4.75-1.28-1.3-2.98-2.21-4.62-3.09s-3.4-1.65-5.2-1.85-3.65.16-5.38.95c-1.54.7-2.92,1.8-4.15,3.5h.02Z"/>
  </g>
  <g>
    <path class="st2" d="M126.5,81.48c-.24,1.68.28,3.52,1.19,5.18.8,1.48,1.92,2.99,3.58,3.96,1.4.82,3.2,1.1,5.19,1.26,1.59.13,3.39.25,5.34-.21,2.1-.49,3.92-1.24,5.3-2.25,1.67-1.22,2.73-2.9,3.48-4.54.83-1.8.96-3.73.88-5.56-.09-2.06-.29-4.11-1.25-5.55-1.04-1.56-2.48-2.76-3.97-3.53-1.58-.81-3.42-.86-5.17-.87s-3.58.11-5.16.85-3.1,1.58-4.4,2.59-2.56,2.29-3.43,3.8c-.78,1.35-1.32,3-1.59,4.87h0Z"/>
    <path class="st0" d="M126.5,81.48c-.24,1.68.28,3.52,1.19,5.18.8,1.48,1.92,2.99,3.58,3.96,1.4.82,3.2,1.1,5.19,1.26,1.59.13,3.39.25,5.34-.21,2.1-.49,3.92-1.24,5.3-2.25,1.67-1.22,2.73-2.9,3.48-4.54.83-1.8.96-3.73.88-5.56-.09-2.06-.29-4.11-1.25-5.55-1.04-1.56-2.48-2.76-3.97-3.53-1.58-.81-3.42-.86-5.17-.87s-3.58.11-5.16.85-3.1,1.58-4.4,2.59-2.56,2.29-3.43,3.8c-.78,1.35-1.32,3-1.59,4.87h0Z"/>
  </g>
  <circle class="st1" cx="115.34" cy="79.66" r="3.85"/>
  <circle class="st1" cx="134.38" cy="81.76" r="3.85"/>
  <g>
    <path class="st3" d="M111.97,48.76c-1.8-1.42-.92-1.99-3.42-3.19-1.19-.57-3.01-.2-4.65-.7-1.36-.41-2.66-1.71-4.27-1.91-1.44-.18-3.02.62-4.63.69-1.88.08-3.58.29-5.19.53-1.9.28-3.82-.17-5.33.35-1.84.63-3.24,1.89-4.47,2.9-1.4,1.16-2.77,2.46-3.31,4.17-.41,1.29-.2,3.12.43,4.72.52,1.32,1.67,2.56,2.54,3.85s2.09,2.36,2.99,3.42c1.67,1.97,1.4,1.76,3.03,3.33"/>
    <path class="st0" d="M111.97,48.76c-1.8-1.42-.92-1.99-3.42-3.19-1.19-.57-3.01-.2-4.65-.7-1.36-.41-2.66-1.71-4.27-1.91-1.44-.18-3.02.62-4.63.69-1.88.08-3.58.29-5.19.53-1.9.28-3.82-.17-5.33.35-1.84.63-3.24,1.89-4.47,2.9-1.4,1.16-2.77,2.46-3.31,4.17-.41,1.29-.2,3.12.43,4.72.52,1.32,1.67,2.56,2.54,3.85s2.09,2.36,2.99,3.42c1.67,1.97,1.4,1.76,3.03,3.33"/>
  </g>
  <path class="st0" d="M132.65,126.63c1.12.88,1.2.37,2.25,1.69.52.65.73,1.63,1.22,2.55.42.79.6,1.63.87,2.6.24.87,1.17,1.66,1.2,2.66"/>
  <path class="st0" d="M29.2,148.9s-5.28-13.9-14.12-9.29-.66,19.24-.66,19.24"/>
  <path class="st0" d="M18.91,162.21c-.95-.92-.57-1.17-1.79-2.05-.66-.47-1.78-.45-2.6-.86s-1.62-.79-2.46-.89c-.9-.11-1.91-.23-2.69.25-.84.53-1.48,1.69-1.38,2.71.08.81.54,1.87,1.08,2.78.45.75,1.09,1.6,1.79,2.29.65.64,1.94.52,2.76,1.02s1.53.86,2.43,1.13c.9.27,1.68.65,2.63.64,1.08-.02,2.1-.26,3.09-.31,1.07-.05,2.11.17,3.12.09s2.11.32,3.13.24,1.98-.96,3.03-1.03,2.07.7,3.14.65c.99-.04,2-.39,3.09-.4.89,0,1.81-.27,2.75-.28s1.84.34,2.75.33,1.86-.54,2.75-.55c.96,0,1.89.32,2.75.32,1.02,0,1.95.22,2.75.22,1.68,0,2.07,1.09,3.05.13s-.35-1.41-.33-3.01c0-.8.47-1.74.44-2.71-.02-.88-.03-1.82-.1-2.72s-.21-1.88-.35-2.72c-.17-1.01-.53-1.95-.83-2.64-.4-.9-.96-1.6-1.34-2.24-.53-.9-.98-1.72-1.59-2.12-.7-.46-1.57-.08-2.56.1s-2,.65-2.48,1.64c-.69,1.4.46,2.03-.79,2.99s-.64-.99-1.12-2.74c-.24-.88-.47-1.87-.84-2.92-.33-.94-.58-1.92-1.02-2.86s-.58-2.05-1.13-2.86c-.62-.92-1.4-1.63-2.17-2.16-.87-.6-1.8-.81-2.86-.64-1.16.19-1.88.81-2.64,1.42-.83.68-1.59,1.31-2.04,2.24-.48.99-1.26,1.93-1.43,2.88-.32,1.73,1.17,1.97,0,3.03-.93.85-.84-.49-2.2-.74-.76-.14-1.73-.44-2.59-.28-.79.14-1.33,1.03-2.01,1.62s-.76,1.19-.7,2.13c.06.79-.34,1.82,0,2.66s1.13,1.47,1.54,2.17c.74,1.26.99.86,1.77,1.89"/>
</svg>