<?xml version="1.0" encoding="UTF-8"?>
<svg id="_레이어_2" data-name="레이어 2" xmlns="http://www.w3.org/2000/svg" viewBox="0 0 200 200">
  <defs>
    <style>
      .cls-1 {
        fill: none;
        stroke: #000;
        stroke-linecap: round;
        stroke-linejoin: round;
        stroke-width: 2.4px;
      }

      .cls-2 {
        fill: #ffaf42;
      }

      .cls-3 {
        fill: #fff;
      }
    </style>
  </defs>
  <g>
    <path class="cls-2" d="M112.07,166.43h-4.54c.39-.61.78-1.3,1.16-2.07,4.6-9.19,10.91-12.72,18.47-11.07,6,1.31,5.1,8.9,4.46,11.99,0,.02,0,.03-.01.05-1.27,4.09-4.29,7.11-4.29,7.11,0,0,11.35,4.17,9.96,9.96-1.39,5.78-10.69,5.85-19.04,4.32-8.34-1.54-9.81-5.2-9.28-10.69.28-2.93,1.78-6.71,3.11-9.6Z"/>
    <path class="cls-2" d="M105.65,181.88c.07,4.69-1.75,9.45-13.21,9.08-11.47-.36-16.59-4.83-16.15-8.71s3.22-5.2,3.22-5.2l1.16-6.77h-.01c.28-.35.55-.71.81-1.09,6.25-8.95,9.12-17.9,17.29-16.37,6.02,1.13,3.15,10.66,1.24,15.58l-1.2,2.82-.04.09-1.89,4.44s8.71,1.45,8.78,6.13Z"/>
  </g>
  <g>
    <path class="cls-3" d="M110.4,81.28c1.53-.99,1.41-.36,3.35-1.47.91-.52,1.87-1.31,3.07-1.94,1.01-.53,1.8-1.68,2.96-2.23,1.07-.51,2.22-.95,3.37-1.43s2.16-1.23,3.31-1.63,2.59.06,3.75-.23c1.22-.31,2.34-.85,3.51-1,1.27-.15,2.54-.63,3.68-.53,1.28.12,2.26,1.19,3.3,1.71s1.88,1.18,2.61,2.24c.67.97,1.1,2.06.92,3.52-.14,1.14-.55,2.37-1.06,3.68-.44,1.14-.64,2.49-1.26,3.66s-1.73,1.97-2.4,3.06-.81,2.62-1.51,3.62c-.8,1.16-1.8,2.07-2.48,2.97-1.39,1.84-.89,1.77-2.13,3.24"/>
    <path class="cls-1" d="M110.4,81.28c1.53-.99,1.41-.36,3.35-1.47.91-.52,1.87-1.31,3.07-1.94,1.01-.53,1.8-1.68,2.96-2.23,1.07-.51,2.22-.95,3.37-1.43s2.16-1.23,3.31-1.63,2.59.06,3.75-.23c1.22-.31,2.34-.85,3.51-1,1.27-.15,2.54-.63,3.68-.53,1.28.12,2.26,1.19,3.3,1.71s1.88,1.18,2.61,2.24c.67.97,1.1,2.06.92,3.52-.14,1.14-.55,2.37-1.06,3.68-.44,1.14-.64,2.49-1.26,3.66s-1.73,1.97-2.4,3.06-.81,2.62-1.51,3.62c-.8,1.16-1.8,2.07-2.48,2.97-1.39,1.84-.89,1.77-2.13,3.24"/>
  </g>
  <g>
    <path class="cls-2" d="M50.14,144.37c.61,1.6,1.11,3.23,1.42,4.79.33,1.67.54,3.37.56,4.97.03,1.69-.42,3.35-.68,4.94s-.97,3.17-1.51,4.7-.88,3.25-1.66,4.66-1.51,3.07-2.52,4.32c-1.07,1.33-2.37,2.48-3.58,3.51-1.32,1.12-3,1.63-4.39,2.34s-2.16,1.91-2.94,2.93c-.92,1.2-1.61,2.4-1.82,3.65-.27,1.6-.5,3.43.22,4.36,1.07,1.39,2.96,2.08,4.7,2.42,1.49.29,3.22-.04,5.08-.58,1.47-.42,3.35-.56,4.97-1.54,1.15-.69,1.98-2.47,3.49-3.65,1.19-.93,3-1.39,4.25-2.64,1.1-1.11,1.77-2.74,2.82-4.11.96-1.26,2.1-2.48,2.93-3.97.78-1.39,1.72-2.8,2.33-4.39.57-1.48.99-3.12,1.36-4.79.35-1.55.54-3.21.67-4.92.12-1.58-.56-3.21-.65-4.93"/>
    <path class="cls-1" d="M50.14,144.37c.61,1.6,1.11,3.23,1.42,4.79.33,1.67.54,3.37.56,4.97.03,1.69-.42,3.35-.68,4.94s-.97,3.17-1.51,4.7-.88,3.25-1.66,4.66-1.51,3.07-2.52,4.32c-1.07,1.33-2.37,2.48-3.58,3.51-1.32,1.12-3,1.63-4.39,2.34s-2.16,1.91-2.94,2.93c-.92,1.2-1.61,2.4-1.82,3.65-.27,1.6-.5,3.43.22,4.36,1.07,1.39,2.96,2.08,4.7,2.42,1.49.29,3.22-.04,5.08-.58,1.47-.42,3.35-.56,4.97-1.54,1.15-.69,1.98-2.47,3.49-3.65,1.19-.93,3-1.39,4.25-2.64,1.1-1.11,1.77-2.74,2.82-4.11.96-1.26,2.1-2.48,2.93-3.97.78-1.39,1.72-2.8,2.33-4.39.57-1.48.99-3.12,1.36-4.79.35-1.55.54-3.21.67-4.92.12-1.58-.56-3.21-.65-4.93"/>
  </g>
  <g>
    <path class="cls-3" d="M103.91,79.01c-1.18-.04-2.33-.62-3.46-.62s-2.31.76-3.44.82-2.33-.12-3.46,0-2.24.61-3.36.8-2.4-.19-3.51.09-2.02,1.26-3.11,1.64-2.52-.09-3.57.39-2.09,1.04-3.1,1.62-1.61,1.76-2.57,2.43-2.13.98-3.03,1.73-1.22,2.04-2.07,2.86-2.12,1.1-2.92,1.98c-.84.93-1.68,1.81-2.41,2.72-.79.97-1.66,1.85-2.33,2.8-.72,1.02-1.5,1.99-2.1,2.99-.64,1.06-.45,2.55-.97,3.6-.55,1.1-1.01,2.18-1.45,3.28s-1.54,2.01-1.9,3.15-.41,2.4-.71,3.57-.99,2.24-1.24,3.43.21,2.48-.02,3.69-.78,2.28-1.01,3.49.02,2.62-.29,3.8c-.33,1.25-.67,2.49-1.07,3.64-.43,1.22-1.17,2.3-1.68,3.41-.53,1.17-1.07,2.32-1.68,3.38s-1.7,1.91-2.43,2.9-1.39,2.11-2.22,3.02-2.07,1.44-3,2.26-1.64,1.92-2.66,2.64-2.11,1.14-2.97,1.81c-.97.75-1.37,2.06-2.16,2.79-.9.84-2.42,1.06-3.05,1.93-.71.98-1.32,2.18-1.62,3.26s.28,2.34.46,3.56c.15,1.03.6,2.03,1.13,3.21s.69,2.46,1.49,3.19c.85.78,1.94,1.56,3.05,1.94,1.04.35,2.34.4,3.54.46,1.1.05,2.33.09,3.52-.06,1.1-.14,2.29-.36,3.44-.64s1.9-1.63,3-2.01,2.42-.05,3.48-.49c1.45-.6,2.72-.83,3.84-1.06,1.59-.33,2.84-.8,3.96-.58,1.42.28,2.45,1.14,3.5,1.95s1.89,1.81,2.96,2.73c.92.79,2.05,1.71,3.3,2.26,1.16.51,2.6.36,3.95.37,1.22.01,2.48-.13,3.78-.74,1.05-.49,2.16-1.17,3.23-2.19.84-.81,2-1.59,2.83-2.79.71-1.01.94-2.32,1.57-3.32.67-1.05,1.14-2.18,1.75-3.18.66-1.07,1.24-2.15,1.87-3.12.7-1.07,1.69-1.87,2.4-2.76.81-1.01,1.49-2.08,2.38-2.78.98-.77,2.24-.95,3.42-1.23,1.08-.26,2.33-.98,3.66-.73s1.64,1.75,2.21,2.68,1.88,1.74,1.91,3.02c.03,1.09-1.07,2.21-1.28,3.4s-.59,2.22-.91,3.31c-.36,1.2-.1,2.54-.47,3.5-.73,1.9-2.33,1.56-1.71,3.17s1.38.16,3.29-.43c.85-.26,1.64-.75,2.65-1.62.71-.61,1.99-.9,2.73-1.94.56-.8,1.32-1.69,1.88-2.79s.66-2.22,1.23-3.13c.63-.99,1.37-1.82,2.04-2.64.75-.9,1.24-2,2.05-2.69.89-.76,2.02-1.1,2.97-1.61,1.01-.53,1.94-1.29,3.01-1.55s2.24.41,3.38.42c1.08.01,2.12-.02,3.26.22,1.49.32,3.04.36,3.79,1.29.81,1.01.27,2.7.49,4.02s.21,2.56.1,3.77c-.2,2.17-.65,2-.18,3.9.41,1.62,1.09.88,2.84,1.78.87.45,2.04.62,3.17,1.04,1,.37,1.97,1.06,3.09,1.28s2.23.64,3.35.61,2.17-.72,3.24-1.08c1.01-.34,2.23-.51,3.16-1.24,1.09-.86,1.47-2.4,2.34-3.24,1.03-.99,2.56-1.36,3.24-2.31.87-1.2.79-2.64,1.03-3.76.28-1.31,0-2.17-.71-3.36-.56-.95-.9-2.25-2.18-3.11-.99-.67-1.8-1.59-2.77-2.26s-2.08-1.15-3-1.9-1.76-1.54-2.57-2.43-2.05-1.42-2.69-2.47c-.59-.96-.43-2.38-.87-3.56-.39-1.04-.5-2.18-.75-3.42-.22-1.09-.38-2.21-.48-3.48-.09-1.1-.22-2.27-.29-3.51-.07-1.13-.66-2.28-.73-3.5-.06-1.15-.09-2.33-.16-3.53s.14-2.36.06-3.55-.95-2.28-1.06-3.46.07-2.37-.07-3.54.43-2.46.24-3.61-.33-2.39-.58-3.52-1.6-2.06-1.92-3.16c-.34-1.17.03-2.54-.39-3.59-.46-1.14-1.73-1.8-2.31-2.77-.63-1.06-1.18-1.96-1.97-2.77-.86-.87-1.32-2.09-2.18-2.88-.9-.83-1.77-1.65-2.67-2.39-.94-.78-1.92-1.47-2.87-2.15-.99-.71-2.31-.83-3.31-1.44s-1.74-1.79-2.79-2.31-2.05-1.38-3.16-1.79-2.51-.04-3.66-.33-2.26-.75-3.45-.91-2.37.04-3.57,0Z"/>
    <path class="cls-1" d="M103.91,79.01c-1.18-.04-2.33-.62-3.46-.62s-2.31.76-3.44.82-2.33-.12-3.46,0-2.24.61-3.36.8-2.4-.19-3.51.09-2.02,1.26-3.11,1.64-2.52-.09-3.57.39-2.09,1.04-3.1,1.62-1.61,1.76-2.57,2.43-2.13.98-3.03,1.73-1.22,2.04-2.07,2.86-2.12,1.1-2.92,1.98c-.84.93-1.68,1.81-2.41,2.72-.79.97-1.66,1.85-2.33,2.8-.72,1.02-1.5,1.99-2.1,2.99-.64,1.06-.45,2.55-.97,3.6-.55,1.1-1.01,2.18-1.45,3.28s-1.54,2.01-1.9,3.15-.41,2.4-.71,3.57-.99,2.24-1.24,3.43.21,2.48-.02,3.69-.78,2.28-1.01,3.49.02,2.62-.29,3.8c-.33,1.25-.67,2.49-1.07,3.64-.43,1.22-1.17,2.3-1.68,3.41-.53,1.17-1.07,2.32-1.68,3.38s-1.7,1.91-2.43,2.9-1.39,2.11-2.22,3.02-2.07,1.44-3,2.26-1.64,1.92-2.66,2.64-2.11,1.14-2.97,1.81c-.97.75-1.37,2.06-2.16,2.79-.9.84-2.42,1.06-3.05,1.93-.71.98-1.32,2.18-1.62,3.26s.28,2.34.46,3.56c.15,1.03.6,2.03,1.13,3.21s.69,2.46,1.49,3.19c.85.78,1.94,1.56,3.05,1.94,1.04.35,2.34.4,3.54.46,1.1.05,2.33.09,3.52-.06,1.1-.14,2.29-.36,3.44-.64s1.9-1.63,3-2.01,2.42-.05,3.48-.49c1.45-.6,2.72-.83,3.84-1.06,1.59-.33,2.84-.8,3.96-.58,1.42.28,2.45,1.14,3.5,1.95s1.89,1.81,2.96,2.73c.92.79,2.05,1.71,3.3,2.26,1.16.51,2.6.36,3.95.37,1.22.01,2.48-.13,3.78-.74,1.05-.49,2.16-1.17,3.23-2.19.84-.81,2-1.59,2.83-2.79.71-1.01.94-2.32,1.57-3.32.67-1.05,1.14-2.18,1.75-3.18.66-1.07,1.24-2.15,1.87-3.12.7-1.07,1.69-1.87,2.4-2.76.81-1.01,1.49-2.08,2.38-2.78.98-.77,2.24-.95,3.42-1.23,1.08-.26,2.33-.98,3.66-.73s1.64,1.75,2.21,2.68,1.88,1.74,1.91,3.02c.03,1.09-1.07,2.21-1.28,3.4s-.59,2.22-.91,3.31c-.36,1.2-.1,2.54-.47,3.5-.73,1.9-2.33,1.56-1.71,3.17s1.38.16,3.29-.43c.85-.26,1.64-.75,2.65-1.62.71-.61,1.99-.9,2.73-1.94.56-.8,1.32-1.69,1.88-2.79s.66-2.22,1.23-3.13c.63-.99,1.37-1.82,2.04-2.64.75-.9,1.24-2,2.05-2.69.89-.76,2.02-1.1,2.97-1.61,1.01-.53,1.94-1.29,3.01-1.55s2.24.41,3.38.42c1.08.01,2.12-.02,3.26.22,1.49.32,3.04.36,3.79,1.29.81,1.01.27,2.7.49,4.02s.21,2.56.1,3.77c-.2,2.17-.65,2-.18,3.9.41,1.62,1.09.88,2.84,1.78.87.45,2.04.62,3.17,1.04,1,.37,1.97,1.06,3.09,1.28s2.23.64,3.35.61,2.17-.72,3.24-1.08c1.01-.34,2.23-.51,3.16-1.24,1.09-.86,1.47-2.4,2.34-3.24,1.03-.99,2.56-1.36,3.24-2.31.87-1.2.79-2.64,1.03-3.76.28-1.31,0-2.17-.71-3.36-.56-.95-.9-2.25-2.18-3.11-.99-.67-1.8-1.59-2.77-2.26s-2.08-1.15-3-1.9-1.76-1.54-2.57-2.43-2.05-1.42-2.69-2.47c-.59-.96-.43-2.38-.87-3.56-.39-1.04-.5-2.18-.75-3.42-.22-1.09-.38-2.21-.48-3.48-.09-1.1-.22-2.27-.29-3.51-.07-1.13-.66-2.28-.73-3.5-.06-1.15-.09-2.33-.16-3.53s.14-2.36.06-3.55-.95-2.28-1.06-3.46.07-2.37-.07-3.54.43-2.46.24-3.61-.33-2.39-.58-3.52-1.6-2.06-1.92-3.16c-.34-1.17.03-2.54-.39-3.59-.46-1.14-1.73-1.8-2.31-2.77-.63-1.06-1.18-1.96-1.97-2.77-.86-.87-1.32-2.09-2.18-2.88-.9-.83-1.77-1.65-2.67-2.39-.94-.78-1.92-1.47-2.87-2.15-.99-.71-2.31-.83-3.31-1.44s-1.74-1.79-2.79-2.31-2.05-1.38-3.16-1.79-2.51-.04-3.66-.33-2.26-.75-3.45-.91-2.37.04-3.57,0Z"/>
  </g>
  <g>
    <path class="cls-3" d="M60.98,101.14c-.38-1.91-.63-1.54-.64-3.92,0-1.12.7-2.42.89-3.87.15-1.19-.26-2.64.09-3.98.31-1.19,1.65-2.13,2.17-3.38.48-1.15,1.01-2.28,1.7-3.44.64-1.07.78-2.47,1.52-3.43s1.94-1.62,2.78-2.48,1.31-2.3,2.24-3.05c.99-.8,2.43-.95,3.44-1.59,1.09-.69,2.19-1.21,3.26-1.69,1.21-.55,2.39-.78,3.49-1.03,1.37-.32,2.46-.28,3.5-.11,1.32.22,2.74.27,3.44,1.37.6.95,1.06,2.32,1.25,3.71.16,1.15-.54,2.46-.64,3.8-.09,1.21.02,2.48-.25,3.75s-1.01,2.29-1.43,3.48"/>
    <path class="cls-1" d="M60.98,101.14c-.38-1.91-.63-1.54-.64-3.92,0-1.12.7-2.42.89-3.87.15-1.19-.26-2.64.09-3.98.31-1.19,1.65-2.13,2.17-3.38.48-1.15,1.01-2.28,1.7-3.44.64-1.07.78-2.47,1.52-3.43s1.94-1.62,2.78-2.48,1.31-2.3,2.24-3.05c.99-.8,2.43-.95,3.44-1.59,1.09-.69,2.19-1.21,3.26-1.69,1.21-.55,2.39-.78,3.49-1.03,1.37-.32,2.46-.28,3.5-.11,1.32.22,2.74.27,3.44,1.37.6.95,1.06,2.32,1.25,3.71.16,1.15-.54,2.46-.64,3.8-.09,1.21.02,2.48-.25,3.75s-1.01,2.29-1.43,3.48"/>
  </g>
  <g>
    <path class="cls-2" d="M77.31,106.05c-5.52,5.14,1.38,12.17,4.34,13.31s12.7,4.42,16.46-3.58c1.63-3.46-2.12-7.85-7.32-10.28-4.32-2.02-9.68-2.99-13.48.55Z"/>
    <path class="cls-1" d="M77.31,106.05c-5.52,5.14,1.38,12.17,4.34,13.31s12.7,4.42,16.46-3.58c1.63-3.46-2.12-7.85-7.32-10.28-4.32-2.02-9.68-2.99-13.48.55Z"/>
  </g>
  <g>
    <path class="cls-2" d="M103.22,114.69c-.45,4.06,4.89,9,15.02,6.38,10.12-2.63,9.98-10.06,6.53-13.39s-9.11-4.04-13.49-2.08-7.57,4.59-8.06,9.09Z"/>
    <path class="cls-1" d="M103.22,114.69c-.45,4.06,4.89,9,15.02,6.38,10.12-2.63,9.98-10.06,6.53-13.39s-9.11-4.04-13.49-2.08-7.57,4.59-8.06,9.09Z"/>
  </g>
  <path class="cls-1" d="M85.39,133.06c.76,1.63,1.19.97,2.35,2.81.56.89,1.17,1.92,1.98,2.97.69.9,1.69,1.58,2.55,2.49.8.85,1.07,2.31,2.02,3.08s2.1,1.2,3.15,1.81,2.26.68,3.41,1.06,2.12,1.41,3.35,1.51"/>
  <path class="cls-1" d="M102.6,140.89c1.06,1.47,1.38.79,2.95,2.22.79.72,1.68,1.52,2.79,2.22.98.61,2.13.81,3.32,1.21,1.1.37,2.1,1.45,3.36,1.49"/>
  <line class="cls-1" x1="107.31" y1="116.05" x2="113.13" y2="113.62"/>
  <line class="cls-1" x1="88.06" y1="112.39" x2="92.66" y2="115.36"/>
  <g>
    <path class="cls-1" d="M45.51,107.92c1.76.1,1.39-.34,3.51-.05,1.01.14,2.18.31,3.47.55,1.09.21,2.21.56,3.4.86,1.11.28,2.39.13,3.53.51s1.99,1.36,3.06,1.84,2.32.65,3.3,1.26,2.03,1.3,2.87,2.08"/>
    <path class="cls-1" d="M43.53,122.51c1.74-.36,1.26-.54,3.44-.79,1.01-.12,2.16-.95,3.49-1.03,1.1-.06,2.32.15,3.58.16,1.14,0,2.31.63,3.53.71,1.15.08,2.33.12,3.52.3s2.38.12,3.54.4,2.39.36,3.51.76"/>
  </g>
  <g>
    <path class="cls-1" d="M132.34,116.78c1.63-.64,1.55.32,3.61-.34.96-.31,1.99-.96,3.26-1.31,1.05-.29,2.09-1.02,3.29-1.3,1.09-.26,2.42.29,3.6.07s2.26-.42,3.44-.58,2.28-.59,3.45-.67,2.34-.05,3.5-.04"/>
    <path class="cls-1" d="M132.09,125.92c1.68.03,1.32-.55,3.39-.41.97.06,2.12.07,3.38.19,1.04.1,2.19.22,3.36.37,1.07.14,2.03,1.35,3.17,1.55s2.23.16,3.33.41,2.35-.08,3.42.24,2.01,1.17,3.03,1.56"/>
  </g>
  <path class="cls-1" d="M100.22,168.5c-.78,1.84-.48,1.97-1.26,3.8s-2.26,1.46-2.17,3.46,2.04-.26,3.97.48c1.15.44,1.92,1.89,2.87,2.69,1.02.85,1.62,1.63,1.65,2.96.02,1.25.56,2.59.17,3.75s-1.42,1.94-2.46,2.8c-.83.68-1.63,1.94-3.02,2.35-1.03.31-2.42-.16-3.83-.04-1.11.09-2.32.07-3.69.02-1.18-.04-2.27-.28-3.32-.4-1.19-.14-2.23-.43-3.25-.66-1.19-.26-2.51.26-3.47-.11-1.16-.44-2.24-.98-3.08-1.54-1.06-.71-1.38-2.01-1.92-2.82-.7-1.04-1.22-1.95-1.11-2.99.14-1.25.9-2.01,1.35-2.77.96-1.59.95-1.1,1.62-2.54.72-1.56.61-1.57.9-3.27s-.24-1.79.05-3.48"/>
  <path class="cls-1" d="M107.53,166.19c2.39,0,2.39-.33,4.78-.33"/>
  <path class="cls-1" d="M113.97,161.86c-.93,1.64-.18,1.67-1.13,3.65-.49,1.01-1.08,2.15-1.59,3.39-.47,1.15-.59,2.43-.95,3.62-.39,1.28-1.52,2.35-1.63,3.48-.14,1.48.18,2.85.42,4.05.27,1.35,1.14,2.2,2.15,3.2.83.82,1.49,2.17,2.98,2.74,1.09.42,2.45.76,3.97,1.04,1.16.21,2.39.08,3.55.22s2.37.3,3.53.35c1.22.05,2.39-.36,3.51-.45,1.25-.1,2.51.25,3.57-.05,1.23-.36,1.92-1.47,2.76-2.17.91-.75,1.65-1.38,1.94-2.6.31-1.3-.26-2.15-.96-3.26-.63-1.01-1.04-2.29-2.08-3.09s-2.49-.9-3.52-1.46c-1.89-1.01-2.51-.27-2.77-2.15-.29-2.09,1.22-1.05,2.47-3.1.67-1.09.71-2.67,1.15-4.1"/>
</svg>