<?xml version="1.0" encoding="UTF-8"?>
<svg id="_레이어_2" data-name="레이어 2" xmlns="http://www.w3.org/2000/svg" viewBox="0 0 200 200">
  <defs>
    <style>
      .cls-1 {
        stroke-width: 2.4px;
      }

      .cls-1, .cls-2 {
        fill: none;
        stroke-linecap: round;
        stroke-linejoin: round;
      }

      .cls-1, .cls-2, .cls-3 {
        stroke: #000;
      }

      .cls-2 {
        stroke-width: 2.4px;
      }

      .cls-4 {
        fill: #ffaf42;
      }

      .cls-3 {
        stroke-miterlimit: 10;
        stroke-width: 1.2px;
      }

      .cls-5 {
        fill: #fff;
      }
    </style>
  </defs>
  <g>
    <g>
      <path class="cls-4" d="M90.74,98.41c-.77-.41-1.54-.81-2.24-1.25s-1.47-.93-2.14-1.43-1.16-1.32-1.78-1.87-1.04-1.37-1.61-1.98-1.44-1-1.96-1.66-1.31-1.19-1.77-1.89-.81-1.54-1.21-2.28-.3-1.75-.63-2.52-1.01-1.43-1.28-2.23-.33-1.68-.54-2.5.23-1.76.08-2.59-.67-1.6-.75-2.44-.37-1.68-.39-2.52.61-1.68.64-2.52-.94-1.76-.86-2.6,1.04-1.59,1.17-2.41-.27-1.79-.08-2.6.67-1.6.91-2.39c.26-.83.75-1.54,1.05-2.31.33-.83.51-1.73.69-2.55.19-.87.25-1.78.3-2.61.05-.9-.69-1.72-.79-2.54-.11-.91.66-1.99.38-2.75-.33-.89-1.61-1.14-2.12-1.74-.61-.72-.84-2.04-1.65-2.2s-1.67.48-2.45.54-1.44.41-2.2.69-1.76,0-2.43.46c-.63.43-.96,1.3-1.54,1.9-.53.55-.73,1.35-1.21,2.03-.44.62-1.72.77-2.12,1.5-.36.67-.51,1.53-.83,2.29-.29.71-.64,1.46-.89,2.25-.24.74-.08,1.7-.31,2.61-.2.78-.77,1.54-.95,2.43-.17.8.19,1.75.06,2.64-.13.82-.02,1.69-.11,2.57-.08.83-.56,1.65-.61,2.53s-.3,1.7-.3,2.58-.31,1.74-.25,2.62.25,1.72.36,2.59.9,1.6,1.05,2.46-.33,1.82-.13,2.67.86,1.55,1.12,2.39.82,1.52,1.13,2.34.5,1.63.86,2.43.43,1.7.83,2.47,1.15,1.31,1.61,2.06,1.07,1.32,1.57,2.04.52,1.73,1.06,2.42,1.28,1.16,1.86,1.82,1.34,1.07,1.96,1.7"/>
      <path class="cls-1" d="M90.74,98.41c-.77-.41-1.54-.81-2.24-1.25s-1.47-.93-2.14-1.43-1.16-1.32-1.78-1.87-1.04-1.37-1.61-1.98-1.44-1-1.96-1.66-1.31-1.19-1.77-1.89-.81-1.54-1.21-2.28-.3-1.75-.63-2.52-1.01-1.43-1.28-2.23-.33-1.68-.54-2.5.23-1.76.08-2.59-.67-1.6-.75-2.44-.37-1.68-.39-2.52.61-1.68.64-2.52-.94-1.76-.86-2.6,1.04-1.59,1.17-2.41-.27-1.79-.08-2.6.67-1.6.91-2.39c.26-.83.75-1.54,1.05-2.31.33-.83.51-1.73.69-2.55.19-.87.25-1.78.3-2.61.05-.9-.69-1.72-.79-2.54-.11-.91.66-1.99.38-2.75-.33-.89-1.61-1.14-2.12-1.74-.61-.72-.84-2.04-1.65-2.2s-1.67.48-2.45.54-1.44.41-2.2.69-1.76,0-2.43.46c-.63.43-.96,1.3-1.54,1.9-.53.55-.73,1.35-1.21,2.03-.44.62-1.72.77-2.12,1.5-.36.67-.51,1.53-.83,2.29-.29.71-.64,1.46-.89,2.25-.24.74-.08,1.7-.31,2.61-.2.78-.77,1.54-.95,2.43-.17.8.19,1.75.06,2.64-.13.82-.02,1.69-.11,2.57-.08.83-.56,1.65-.61,2.53s-.3,1.7-.3,2.58-.31,1.74-.25,2.62.25,1.72.36,2.59.9,1.6,1.05,2.46-.33,1.82-.13,2.67.86,1.55,1.12,2.39.82,1.52,1.13,2.34.5,1.63.86,2.43.43,1.7.83,2.47,1.15,1.31,1.61,2.06,1.07,1.32,1.57,2.04.52,1.73,1.06,2.42,1.28,1.16,1.86,1.82,1.34,1.07,1.96,1.7"/>
    </g>
    <path class="cls-4" d="M106.7,154.54c-1.21.2-2.59,1.04-3.8,1.14s-2.51-.48-3.72-.45-2.5.69-3.69.65c-1.27-.04-2.45-1.08-3.63-1.17-1.3-.1-2.52-.2-3.65-.34-1.37-.17-2.69.32-3.73.14-2.24-.37-5.37-1.25-3.58-.84,1.47.33,1.64-.39,3.1-.05s1.31,1.04,2.78,1.38,1.61-.13,2.86.71c-1.19.5-2.39.42-3.61.76s-2.48.5-3.72.69-2.48,1.2-3.72,1.25c-1.33.05-2.66.03-3.88-.07-1.35-.12-2.51-1.04-3.67-1.33-1.38-.34-2.66-.51-3.65-1.04-1.36-.74-1.87-1.78-2.23-2.78-.47-1.31-1.46-2.45-1.46-3.73s.65-2.47,1.46-3.7c.62-.94,1.19-2.29,2.47-3.2.94-.67,2.13-1.4,3.51-2.04,1.26-.59,2.65-.82,3.85-1.2,1.35-.43,2.67-.8,3.88-1.02,1.47-.27,2.86.04,4-.02,2.43-.13,2.24-1.13,3.95-.12,1.58.93,1.09,1.55,2.49,2.72s1.68.85,3.08,2.02,1.21,1.41,2.61,2.59,1.89.6,3.29,1.78.78,1.92,2.18,3.1,1.33,1.43,2.88,2.4,2.35.19,3.32,1.74Z"/>
    <path class="cls-4" d="M69.45,112.24c-1.26-1.28-1.16.56-3.3.91-1.04.17-2.35-.27-3.65-.02-1.12.22-2.17,1.12-3.37,1.4s-2.58-.38-3.73-.05-2.37.74-3.45,1.15c-1.22.46-2.05,1.57-2.99,2.11-1.25.72-2.48,1.19-2.91,2.07-.59,1.19-.18,2.53-.23,3.77s-.55,2.57-.07,3.76,1.15,2.31,2.07,3.26c.84.86,1.85,1.81,3.06,2.41,1.07.54,2.34,1.1,3.68,1.38s2.75-.49,4.01-.51c1.38-.02,2.62-.18,3.84-.42,1.42-.28,2.9.03,3.98-.37,2.2-.81,5-.71,3.47-1.95-1.68-1.37-1.92-1.11-3.97-1.8s-2.22-.16-4.31-.72c1.11.58,2.2.92,3.21,1.32,1.18.47,2.44.31,3.48.58,1.26.33,2.34.48,3.38.58,1.36.14,2.46.4,3.43.31,2.21-.22,3.3,1.14,3.16-.61s-.31-1.66-1.05-3.22-.92-1.47-1.66-3.03-.3-1.77-1.04-3.32-1.13-1.38-1.87-2.93-.56-1.63-1.2-3.23-.79-1.59-2-2.82Z"/>
    <path class="cls-1" d="M78.33,130.45c-1.56.8-.98,1.23-3.2,1.44-.97.09-2.19.05-3.55-.09-1.04-.1-2.31.02-3.57-.31-1.04-.27-1.89-1.46-3.07-1.93-1.01-.4-2.2-.6-3.31-1.17"/>
    <path class="cls-1" d="M69.65,112.31c-1.79.21-1.36.49-3.5.84-1.04.17-2.35-.27-3.65-.02-1.12.22-2.17,1.12-3.37,1.4s-2.58-.38-3.73-.05-2.37.74-3.45,1.15c-1.22.46-2.05,1.57-2.99,2.11-1.25.72-2.48,1.19-2.91,2.07-.59,1.19-.18,2.53-.23,3.77s-.55,2.57-.07,3.76,1.15,2.31,2.07,3.26c.84.86,1.85,1.81,3.06,2.41,1.07.54,2.34,1.1,3.68,1.38s2.75-.49,4.01-.51c1.38-.02,2.62-.18,3.84-.42,1.42-.28,2.9.03,3.98-.37,2.2-.81,1.79-.89,3.47-1.92"/>
    <path class="cls-1" d="M86.89,137.82c-1.97-.27-1.57.45-4,.58-1.14.06-2.45.13-3.92.4-1.21.22-2.37.85-3.72,1.27-1.2.38-2.74.05-4,.64-1.37.65-2.37,1.59-3.31,2.26-1.28.91-1.82,2.07-2.44,3.01-.81,1.23-1.86,2.22-1.86,3.5s.36,2.68.83,3.99c.36,1,1.59,1.81,2.95,2.54.99.54,2.19,1.05,3.57,1.39,1.15.28,2.47.1,3.82.22,1.22.1,2.48.68,3.81.63,1.24-.05,2.43-.9,3.72-1.1s2.5-.2,3.75-.55,2.27-1.05,3.46-1.55"/>
    <path class="cls-1" d="M81,153.28c1.78.43,1.39,0,3.64.37,1.04.17,2.16,1,3.53,1.17,1.13.14,2.41-.4,3.71-.3,1.17.09,2.34,1.13,3.61,1.17,1.19.04,2.44.02,3.69,0s2.4-.76,3.64-.87,2.49.21,3.7.02"/>
    <g>
      <path class="cls-5" d="M161.69,68.51c1.18-1.31,1.2-.81,2.73-2.28.75-.72,1.27-1.95,2.25-2.79.85-.74,1.78-1.54,2.75-2.27s2.11-1.17,3.11-1.78,2.11-1.26,3.15-1.69c1.17-.48,2.43-.37,3.52-.44,1.23-.08,2.36-.06,3.37.58.94.59,1.22,1.73,1.76,2.93.44.98,1.14,1.95,1.34,3.23.17,1.1-.05,2.29-.04,3.54,0,1.15.71,2.38.59,3.59s-1.23,2.21-1.45,3.39-.45,2.3-.75,3.44,0,2.5-.39,3.59c-.44,1.23-.8,2.46-1.32,3.54-.58,1.2-1.76,1.99-2.37,2.98-.74,1.2-1.56,2.12-2.21,2.97-1.4,1.84-.91,1.6-2.27,2.9"/>
      <path class="cls-1" d="M161.69,68.51c1.18-1.31,1.2-.81,2.73-2.28.75-.72,1.27-1.95,2.25-2.79.85-.74,1.78-1.54,2.75-2.27s2.11-1.17,3.11-1.78,2.11-1.26,3.15-1.69c1.17-.48,2.43-.37,3.52-.44,1.23-.08,2.36-.06,3.37.58.94.59,1.22,1.73,1.76,2.93.44.98,1.14,1.95,1.34,3.23.17,1.1-.05,2.29-.04,3.54,0,1.15.71,2.38.59,3.59s-1.23,2.21-1.45,3.39-.45,2.3-.75,3.44,0,2.5-.39,3.59c-.44,1.23-.8,2.46-1.32,3.54-.58,1.2-1.76,1.99-2.37,2.98-.74,1.2-1.56,2.12-2.21,2.97-1.4,1.84-.91,1.6-2.27,2.9"/>
    </g>
    <g>
      <path class="cls-5" d="M162.44,63.62c.99.77,2.63.78,3.52,1.63s1.53,2.04,2.33,2.98,1.49,2.01,2.2,3.03.88,2.36,1.48,3.44,1.64,1.95,2.12,3.09.8,2.36,1.17,3.54.53,2.42.78,3.63.11,2.46.24,3.7.77,2.42.78,3.66,0,2.49-.11,3.73.14,2.56-.09,3.78-1.53,2.18-1.89,3.37.04,2.64-.44,3.79-1.16,2.22-1.75,3.32c-.06.11.22.42.16.53-.56,1.03-1.31,2.01-1.87,3.19-.52,1.07-1.14,2.15-1.68,3.31-.51,1.09-1.36,2.07-1.91,3.21s-.85,2.33-1.43,3.45-.91,2.34-1.54,3.42-1.34,2.11-2.04,3.15-1.64,1.9-2.29,2.89c-.69,1.06-1.5,1.99-2.14,3.01s-1.2,2.17-1.82,3.21-1.15,2.17-1.76,3.23-1.78,1.8-2.38,2.88-.56,2.47-1.15,3.57-1.3,2.05-1.89,3.17-1.28,2.09-1.77,3.08c-.57,1.14-1.27,2.12-1.75,3.1-.57,1.16-.81,2.36-1.31,3.31-.61,1.16-.85,2.41-1.46,3.29-.73,1.04-1.75,1.77-2.65,2.47s-2.02.97-3.25,1.38c-.99.33-2.04,1.05-3.36,1.23-1.25.17-2.31-.64-3.26-.74-1.24-.14-2.34.09-3.2-.37-1.02-.55-1.55-1.56-2.27-2.32-.78-.81-1.93-1.2-2.68-1.94s-1.55-1.18-2.64-1.53c-1.2-.39-2.17-1.08-3.25-1.1-1.16-.02-2.3.27-3.47.23-1.08-.04-2.19-.3-3.38-.75-.94-.36-1.66-1.24-2.73-2.05-.94-.72-1.65-1.45-2.32-2.36s-1.17-1.89-1.67-2.92-.82-2.15-1.24-3.19c-.46-1.12-1.75-1.82-2.24-2.77-.58-1.12-1.24-1.81-2.07-2.47s-1.85-1.06-3.12-1.57c-1.06-.43-1.98-1.46-3.18-1.9-1.12-.41-2.31-.76-3.44-1.25s-2.24-1.01-3.27-1.66-2.27-1.19-3.1-2.08-.88-2.34-1.53-3.36-2.02-1.62-2.58-2.68-1.01-2.23-1.55-3.26c-.59-1.13-1.06-2.21-1.7-3.14-.74-1.07-1.32-2.13-2.27-2.73-.82-.52-2.18-.88-3.5-1.71-1.01-.63-2.23-1.21-3.35-1.98-1.04-.71-2.15-1.48-3.17-2.29s-1.92-1.87-2.8-2.76c-.96-.97-1.5-2.26-2.14-3.28-.74-1.18-.86-2.39-.96-3.6s-.2-2.43.02-3.71.56-2.38,1.06-3.57.9-2.33,1.69-3.35,1.37-2.22,2.4-3.01c.97-.73,2.16-1.37,3.39-1.88,1.11-.45,2.4-.78,3.73-1,1.2-.2,2.42.16,3.46-.05,1.2-.25,2.24-.81,3.25-1.1,1.17-.33,2.06-1.12,3.04-1.54,1.09-.46,2.1-.8,3.03-1.41s1.99-1.05,2.84-1.85c.79-.73,1.8-1.35,2.59-2.27.65-.76,1.1-2.01,1.94-3.21.65-.92,1.39-1.93,2.16-3.03.67-.96,1.48-1.91,2.25-2.96.71-.96,1-2.32,1.8-3.32.76-.94,2.18-1.38,3.02-2.33s1.04-2.42,1.93-3.31,2.55-.88,3.5-1.69,1.45-2.13,2.47-2.86,1.91-1.66,2.99-2.29,2.55-.45,3.69-.96,2.18-1.11,3.38-1.49c1.78-.55,1.18-1.12,3.48-1.56,1.04-.2,2.32-.36,3.72-.55,1.14-.15,2.43-.06,3.76-.16,1.18-.09,2.46.71,3.76.68,1.2-.02,2.43-.43,3.71-.38,1.21.05,2.44.12,3.71.26s2.42.4,3.67.62,2.53-.03,3.76.28,2.21,1.22,3.41,1.63,2.47.43,3.63.92,2.29.96,3.41,1.55,1.77,1.83,2.84,2.52c.8.52,1.98.41,2.72.93.78.55,1.11,1.65,1.82,2.21Z"/>
      <path class="cls-1" d="M162.44,63.62c.99.77,2.63.78,3.52,1.63s1.53,2.04,2.33,2.98,1.49,2.01,2.2,3.03.88,2.36,1.48,3.44,1.64,1.95,2.12,3.09.8,2.36,1.17,3.54.53,2.42.78,3.63.11,2.46.24,3.7.77,2.42.78,3.66,0,2.49-.11,3.73.14,2.56-.09,3.78-1.53,2.18-1.89,3.37.04,2.64-.44,3.79-1.16,2.22-1.75,3.32c-.06.11.22.42.16.53-.56,1.03-1.31,2.01-1.87,3.19-.52,1.07-1.14,2.15-1.68,3.31-.51,1.09-1.36,2.07-1.91,3.21s-.85,2.33-1.43,3.45-.91,2.34-1.54,3.42-1.34,2.11-2.04,3.15-1.64,1.9-2.29,2.89c-.69,1.06-1.5,1.99-2.14,3.01s-1.2,2.17-1.82,3.21-1.15,2.17-1.76,3.23-1.78,1.8-2.38,2.88-.56,2.47-1.15,3.57-1.3,2.05-1.89,3.17-1.28,2.09-1.77,3.08c-.57,1.14-1.27,2.12-1.75,3.1-.57,1.16-.81,2.36-1.31,3.31-.61,1.16-.85,2.41-1.46,3.29-.73,1.04-1.75,1.77-2.65,2.47s-2.02.97-3.25,1.38c-.99.33-2.04,1.05-3.36,1.23-1.25.17-2.31-.64-3.26-.74-1.24-.14-2.34.09-3.2-.37-1.02-.55-1.55-1.56-2.27-2.32-.78-.81-1.93-1.2-2.68-1.94s-1.55-1.18-2.64-1.53c-1.2-.39-2.17-1.08-3.25-1.1-1.16-.02-2.3.27-3.47.23-1.08-.04-2.19-.3-3.38-.75-.94-.36-1.66-1.24-2.73-2.05-.94-.72-1.65-1.45-2.32-2.36s-1.17-1.89-1.67-2.92-.82-2.15-1.24-3.19c-.46-1.12-1.75-1.82-2.24-2.77-.58-1.12-1.24-1.81-2.07-2.47s-1.85-1.06-3.12-1.57c-1.06-.43-1.98-1.46-3.18-1.9-1.12-.41-2.31-.76-3.44-1.25s-2.24-1.01-3.27-1.66-2.27-1.19-3.1-2.08-.88-2.34-1.53-3.36-2.02-1.62-2.58-2.68-1.01-2.23-1.55-3.26c-.59-1.13-1.06-2.21-1.7-3.14-.74-1.07-1.32-2.13-2.27-2.73-.82-.52-2.18-.88-3.5-1.71-1.01-.63-2.23-1.21-3.35-1.98-1.04-.71-2.15-1.48-3.17-2.29s-1.92-1.87-2.8-2.76c-.96-.97-1.5-2.26-2.14-3.28-.74-1.18-.86-2.39-.96-3.6s-.2-2.43.02-3.71.56-2.38,1.06-3.57.9-2.33,1.69-3.35,1.37-2.22,2.4-3.01c.97-.73,2.16-1.37,3.39-1.88,1.11-.45,2.4-.78,3.73-1,1.2-.2,2.42.16,3.46-.05,1.2-.25,2.24-.81,3.25-1.1,1.17-.33,2.06-1.12,3.04-1.54,1.09-.46,2.1-.8,3.03-1.41s1.99-1.05,2.84-1.85c.79-.73,1.8-1.35,2.59-2.27.65-.76,1.1-2.01,1.94-3.21.65-.92,1.39-1.93,2.16-3.03.67-.96,1.48-1.91,2.25-2.96.71-.96,1-2.32,1.8-3.32.76-.94,2.18-1.38,3.02-2.33s1.04-2.42,1.93-3.31,2.55-.88,3.5-1.69,1.45-2.13,2.47-2.86,1.91-1.66,2.99-2.29,2.55-.45,3.69-.96,2.18-1.11,3.38-1.49c1.78-.55,1.18-1.12,3.48-1.56,1.04-.2,2.32-.36,3.72-.55,1.14-.15,2.43-.06,3.76-.16,1.18-.09,2.46.71,3.76.68,1.2-.02,2.43-.43,3.71-.38,1.21.05,2.44.12,3.71.26s2.42.4,3.67.62,2.53-.03,3.76.28,2.21,1.22,3.41,1.63,2.47.43,3.63.92,2.29.96,3.41,1.55,1.77,1.83,2.84,2.52c.8.52,1.98.41,2.72.93.78.55,1.11,1.65,1.82,2.21Z"/>
    </g>
    <g>
      <path class="cls-5" d="M110.12,60.11c.28-1.81.83-1.28,1.3-3.47.22-1.04-.62-2.51-.29-3.83.28-1.11,1.69-2,2.06-3.24.34-1.14-.22-2.61.2-3.79s1.27-2.14,1.75-3.27,1.28-2.1,1.85-3.16.63-2.54,1.31-3.51c.74-1.04,2.14-1.44,3-2.23.94-.87,1.5-2.25,2.58-2.72s2.47-.5,3.74-.44c1.12.05,2.2.69,3.32,1.45.91.62,1.86,1.39,2.75,2.36.78.84,1.97,1.49,2.71,2.51.69.96.56,2.52,1.21,3.57s1.42,1.96,2,3.02,1.22,2.13,1.75,3.19c.57,1.14,1.63,2,2.1,3.03.56,1.23.98,2.4,1.39,3.37.87,2.04.51,1.76,1.15,3.46"/>
      <path class="cls-1" d="M110.12,60.11c.28-1.81.83-1.28,1.3-3.47.22-1.04-.62-2.51-.29-3.83.28-1.11,1.69-2,2.06-3.24.34-1.14-.22-2.61.2-3.79s1.27-2.14,1.75-3.27,1.28-2.1,1.85-3.16.63-2.54,1.31-3.51c.74-1.04,2.14-1.44,3-2.23.94-.87,1.5-2.25,2.58-2.72s2.47-.5,3.74-.44c1.12.05,2.2.69,3.32,1.45.91.62,1.86,1.39,2.75,2.36.78.84,1.97,1.49,2.71,2.51.69.96.56,2.52,1.21,3.57s1.42,1.96,2,3.02,1.22,2.13,1.75,3.19c.57,1.14,1.63,2,2.1,3.03.56,1.23.98,2.4,1.39,3.37.87,2.04.51,1.76,1.15,3.46"/>
    </g>
    <g>
      <path class="cls-4" d="M120.43,70.52c-7.98,4.75-4.1,15.85-1.6,18.26,1.47,1.41,5.03,4.34,9.28,4.9,3,.4,5.99-.44,9.1-4.15s1.94-10.4-1.86-15.17c-3.48-4.37-9.14-7.28-14.92-3.84Z"/>
      <path class="cls-1" d="M120.43,70.52c-7.98,4.75-4.1,15.85-1.6,18.26,1.47,1.41,5.03,4.34,9.28,4.9,3,.4,5.99-.44,9.1-4.15s1.94-10.4-1.86-15.17c-3.48-4.37-9.14-7.28-14.92-3.84Z"/>
    </g>
    <g>
      <path class="cls-4" d="M141.62,92.2c-2.87,4.67-1.07,13.3,9.61,15.24,4.69.85,7.92-1.03,10.37-3.23,3.14-2.8,4.96-6.68,4.36-9.9-1.06-5.74-6.5-9.15-11.62-8.99s-9.55,1.71-12.73,6.88Z"/>
      <path class="cls-1" d="M141.62,92.2c-2.87,4.67-1.07,13.3,9.61,15.24,4.69.85,7.92-1.03,10.37-3.23,3.14-2.8,4.96-6.68,4.36-9.9-1.06-5.74-6.5-9.15-11.62-8.99s-9.55,1.71-12.73,6.88Z"/>
    </g>
    <circle class="cls-3" cx="131.72" cy="85.86" r="3.85"/>
    <circle class="cls-3" cx="148.36" cy="95.34" r="3.85"/>
    <g>
      <path class="cls-1" d="M109.85,68.27c-1.04-.66-1.01-.14-2.25-1.03-.57-.41-1.25-.89-1.98-1.46-.6-.47-1.18-1.06-1.84-1.62-.6-.51-1.56-.67-2.19-1.24-.59-.54-.77-1.55-1.36-2.14s-1.45-.88-2-1.5-1.13-1.21-1.64-1.86-.37-1.74-.82-2.42-1.51-1.02-1.87-1.75-.02-1.76-.27-2.52"/>
      <path class="cls-1" d="M80.98,73.07c1.23-.19.86-.41,2.41-.53.7-.06,1.51-.84,2.45-.87.76-.03,1.62.21,2.5.21.79,0,1.61.6,2.47.64.8.04,1.63,0,2.48.08.81.07,1.66-.11,2.5,0s1.69-.01,2.51.15,1.54.73,2.35.94,1.55.56,2.34.83,1.71.18,2.47.5"/>
    </g>
    <g>
      <path class="cls-1" d="M190.06,100.56c-.83,1-1.29.2-2.48,1.22-.57.49-1.06,1.27-1.86,1.81-.67.45-1.23,1.29-2.05,1.69-.74.37-1.86-.05-2.72.23-.8.26-1.58.38-2.5.42-.85.03-1.72.32-2.62.27s-1.76-.18-2.63-.22-1.77.34-2.61.42"/>
      <path class="cls-1" d="M189.92,115.63c-1.41.24-.99.74-2.75.97-.81.1-1.77.3-2.84.4-.88.09-1.85.18-2.86.25-.91.06-1.93-.93-2.91-.89-.79.03-1.59.3-2.41.31s-1.62.62-2.44.6-1.6-.58-2.4-.63-1.62-.11-2.41-.21-1.52-.68-2.3-.83"/>
    </g>
    <path class="cls-2" d="M109.38,96.5c-.17,1.96-.64,1.62-1.2,3.75-.31,1.19-.39,2.58-.99,3.77s-1.33,2.39-2.35,3.11-1.96.9-2.81,1.05c-1.12.2-2.29.61-3.15.22-1-.46-1.48-1.74-2.09-2.39-.81-.85-.45-1.93.25-3.14.64-1.1,1.75-2.15,1.95-3.05.42-1.89-.17-2.31-.61-4.54"/>
    <path class="cls-2" d="M150.25,121.09c.37,1.75.6,1.38.48,3.49-.06,1.04-.63,2.14-.97,3.42-.29,1.07-.31,2.3-.91,3.43-.67,1.25-1.31,2.31-2.01,3.12-.98,1.13-2,1.84-2.98,2.18-1.22.42-2.5.29-3.62-.38-1.4-.83-1.54-2.5-1.04-4.05.45-1.42,1.62-2.79,1.5-3.99-.09-.96-.94-1.88-1.3-2.87"/>
    <path d="M67.59,120.59s3.64,9.2,4.9,11.36l4.38-.37-2.82-5.94-2.76-3.16-3.7-1.89Z"/>
    <polygon points="90.89 143.6 96.24 152.29 97.13 154.88 100.84 155.11 102.1 154.29 100.69 150.43 96.9 146.05 90.89 143.6"/>
  </g>
  <path class="cls-2" d="M17.92,64.27c1.62,0,1.62-.7,3.24-.7s1.62.35,3.25.35,1.62-.54,3.25-.54,1.66-.04,3.32-.04,1.66.29,3.32.29,1.66-.05,3.32-.05,1.66.45,3.33.45,1.66-.2,3.33-.2"/>
  <path class="cls-2" d="M33.19,70.69c1.65-.02,1.66.95,3.32.94s1.66-.02,3.31-.04,1.65-.7,3.3-.72c1.53-.02,1.52-.16,3.05-.18s1.54.64,3.06.62,1.53.13,3.06.12"/>
  <path class="cls-2" d="M12.95,77.26c1.72.02,1.72-.68,3.44-.67s1.72.36,3.44.38,1.73-.53,3.45-.51c2.2.02,2.2-.01,4.39,0s2.19.31,4.39.33"/>
  <path class="cls-2" d="M23.28,134.58c1.86.08,1.82,1.05,3.68,1.12s1.86.07,3.72.15c1.43.06,1.46-.62,2.89-.56s1.44-.09,2.87-.03c2.68.11,2.65.76,5.33.87"/>
  <path class="cls-2" d="M29.95,142.87c1.81-.01,1.81-.71,3.62-.73s1.82.33,3.63.32,1.81-.56,3.62-.57,1.82-.05,3.63-.06,1.82.28,3.64.26,1.81-.07,3.63-.08,1.82.44,3.63.42"/>
  <g>
    <path d="M74.94,186.12c0-.72.08-1.67,1.14-2.27.67-.38,1.6-.69,2.59-.99.79-.24,1.64-.8,2.61-.98.84-.16,1.89.56,2.83.45.87-.1,1.74-.49,2.68-.54.88-.05,1.8-.51,2.73-.51s1.82.84,2.71.89c.94.05,1.83.1,2.7.2.95.11,1.89-.07,2.73.09.96.18,1.83.46,2.63.7,1,.3,2.03.3,2.69.68,1.05.6,1.26,1.57,1.26,2.29,0,.97.16,2.35-.85,3.18-.67.55-1.87.88-3.14,1.25-.89.26-1.95.79-3.18.92-.96.1-2.1-.5-3.29-.5-.71,0-1.76.61-2.9.52-.9-.07-1.8-1.13-2.77-1.23s-1.97-.18-2.85-.29c-1.19-.14-2.3.39-2.93.29-1.09-.17-2-.84-2.9-1.09-1.13-.31-2.41.01-3.17-.38-1.24-.64-1.31-1.9-1.31-2.69Z"/>
    <path class="cls-1" d="M74.94,186.12c0-.72.08-1.67,1.14-2.27.67-.38,1.6-.69,2.59-.99.79-.24,1.64-.8,2.61-.98.84-.16,1.89.56,2.83.45.87-.1,1.74-.49,2.68-.54.88-.05,1.8-.51,2.73-.51s1.82.84,2.71.89c.94.05,1.83.1,2.7.2.95.11,1.89-.07,2.73.09.96.18,1.83.46,2.63.7,1,.3,2.03.3,2.69.68,1.05.6,1.26,1.57,1.26,2.29,0,.97.16,2.35-.85,3.18-.67.55-1.87.88-3.14,1.25-.89.26-1.95.79-3.18.92-.96.1-2.1-.5-3.29-.5-.71,0-1.76.61-2.9.52-.9-.07-1.8-1.13-2.77-1.23s-1.97-.18-2.85-.29c-1.19-.14-2.3.39-2.93.29-1.09-.17-2-.84-2.9-1.09-1.13-.31-2.41.01-3.17-.38-1.24-.64-1.31-1.9-1.31-2.69Z"/>
  </g>
</svg>