<?xml version="1.0" encoding="UTF-8"?>
<svg id="_레이어_1" xmlns="http://www.w3.org/2000/svg" version="1.1" viewBox="0 0 200 200">
  <!-- Generator: Adobe Illustrator 30.2.1, SVG Export Plug-In . SVG Version: 2.1.1 Build 1)  -->
  <defs>
    <style>
      .st0, .st1, .st2, .st3, .st4 {
        stroke: #000;
      }

      .st0, .st1, .st3 {
        fill: none;
      }

      .st0, .st1, .st4 {
        stroke-linecap: round;
      }

      .st0, .st4 {
        stroke-linejoin: round;
        stroke-width: 2.4px;
      }

      .st1, .st2, .st3 {
        stroke-miterlimit: 10;
      }

      .st1, .st3 {
        stroke-width: 2.2px;
      }

      .st5, .st4 {
        fill: #ffaf42;
      }

      .st2 {
        stroke-width: 1.2px;
      }

      .st6 {
        fill: #fff;
      }

      .st7 {
        fill: #cec5b3;
      }

      .st8 {
        fill: #8a8070;
      }
    </style>
  </defs>
  <g>
    <path class="st8" d="M106.01,138.8c.24,1.78,1.41,1.23,3.3,2.21.94.48,2.23.68,3.47,1.1,1.08.37,2.19,1.15,3.43,1.34,1.15.17,2.47.18,3.7.09,1.1-.08,2.02-1.14,3.05-1.52s2.11-.61,3.03-1.19,1.56-1.6,2.36-2.27c.92-.77,1.63-1.57,2.3-2.27,1.34-1.4,3.22-.62,2.71-2.18s-1-1.31-1.99-2.55-1.61-.75-2.59-1.99.15-2.79-1.35-3.33c-1.8-.65-2.13.15-4.03.35s-1.9.22-3.8.42-1.89.26-3.79.46-1.85.68-3.76.88-2.23-.72-3.69.52c-1.29,1.1-.21,1.57-.51,3.24s.03,1.8-.56,3.4c-.63,1.71-1.51,1.63-1.29,3.31v-.02Z"/>
    <path class="st3" d="M106.01,138.8c.24,1.78,1.41,1.23,3.3,2.21.94.48,2.23.68,3.47,1.1,1.08.37,2.19,1.15,3.43,1.34,1.15.17,2.47.18,3.7.09,1.1-.08,2.02-1.14,3.05-1.52s2.11-.61,3.03-1.19,1.56-1.6,2.36-2.27c.92-.77,1.63-1.57,2.3-2.27,1.34-1.4,3.22-.62,2.71-2.18s-1-1.31-1.99-2.55-1.61-.75-2.59-1.99.15-2.79-1.35-3.33c-1.8-.65-2.13.15-4.03.35s-1.9.22-3.8.42-1.89.26-3.79.46-1.85.68-3.76.88-2.23-.72-3.69.52c-1.29,1.1-.21,1.57-.51,3.24s.03,1.8-.56,3.4c-.63,1.71-1.51,1.63-1.29,3.31v-.02Z"/>
  </g>
  <g>
    <path class="st5" d="M148.48,132.14c.46,1.42.4,1.19.77,2.93.18.86-.11,1.96.03,3.04.12.95.11,1.95.13,2.97s-.21,1.95-.36,2.92.38,2.23-.02,3.11c-.42.92-1.5,1.42-2.27,2.07-.71.6-1.24,1.32-1.88,1.78-.78.55-1.29,1.38-1.96,1.77-.87.51-1.75.81-2.4,1.08-1.56.66-2.02-.74-2.7.36s.48,1.21.36,2.73c-.06.79-.43,1.68-.68,2.59-.23.83-.53,1.69-1,2.45s-.92,1.58-1.67,2.12c-.67.47-1.52,1.01-2.48,1.22-1.07.24-2.05-.59-2.89-.67-1.05-.1-2.17.34-2.91-.21s-.9-1.67-1.39-2.59c-.42-.78-1.4-1.43-1.68-2.44-.24-.86,0-1.93-.17-2.93-.15-.9.11-1.9,0-2.9s-.66-1.88-.76-2.83.19-1.97.14-2.91c-.06-.99.08-1.92.11-2.86.03-1.01-.66-2.04-.47-2.95.2-.98.7-1.88,1.15-2.71s1.1-1.56,1.86-2.22c.68-.59,1.48-1.12,2.45-1.53"/>
    <path class="st0" d="M148.48,132.14c.46,1.42.4,1.19.77,2.93.18.86-.11,1.96.03,3.04.12.95.11,1.95.13,2.97s-.21,1.95-.36,2.92.38,2.23-.02,3.11c-.42.92-1.5,1.42-2.27,2.07-.71.6-1.24,1.32-1.88,1.78-.78.55-1.29,1.38-1.96,1.77-.87.51-1.75.81-2.4,1.08-1.56.66-2.02-.74-2.7.36s.48,1.21.36,2.73c-.06.79-.43,1.68-.68,2.59-.23.83-.53,1.69-1,2.45s-.92,1.58-1.67,2.12c-.67.47-1.52,1.01-2.48,1.22-1.07.24-2.05-.59-2.89-.67-1.05-.1-2.17.34-2.91-.21s-.9-1.67-1.39-2.59c-.42-.78-1.4-1.43-1.68-2.44-.24-.86,0-1.93-.17-2.93-.15-.9.11-1.9,0-2.9s-.66-1.88-.76-2.83.19-1.97.14-2.91c-.06-.99.08-1.92.11-2.86.03-1.01-.66-2.04-.47-2.95.2-.98.7-1.88,1.15-2.71s1.1-1.56,1.86-2.22c.68-.59,1.48-1.12,2.45-1.53"/>
  </g>
  <g>
    <path class="st5" d="M116.25,134.86c.84,1.02.17,1.14.58,2.71.19.72.56,1.55.55,2.57-.01.79.3,1.77.07,2.73-.19.78-.58,1.65-.97,2.55s-1.3,1.53-1.82,2.31-.87,1.81-1.5,2.49c-.68.74-1.57,1.23-2.27,1.82-.82.68-1.59,1.29-2.29,1.75-1.44.96-1.8.13-2.26,1.49s.63.98,1.01,2.65c.2.86-.53,1.98-.47,3.03.05.96.85,1.99.66,2.97s-1.07,1.67-1.61,2.52c-.5.78-.72,1.98-1.62,2.56-1,.65-2.19.63-3.1.78-1.07.17-1.92-.34-2.88-.73-.91-.37-1.94-.54-2.76-1.28-.73-.66-1.13-1.67-1.81-2.52-.62-.79-1.08-1.7-1.67-2.59s-1.79-1.31-2.33-2.2c-.49-.79-.79-1.65-1.21-2.37-.48-.81-.84-1.63-1.21-2.37-.42-.85-.79-1.66-1.03-2.44-.27-.9-.26-1.76-.23-2.61s.16-1.68.57-2.53c.34-.72.93-1.33,1.58-2.08s1.4-1.53,2.08-2.28c.72-.79,1.15-1.83,1.83-2.53.79-.83,1.54-1.57,2.17-2.21,1.32-1.33,1.21-.98,2.33-2.04"/>
    <path class="st0" d="M116.25,134.86c.84,1.02.17,1.14.58,2.71.19.72.56,1.55.55,2.57-.01.79.3,1.77.07,2.73-.19.78-.58,1.65-.97,2.55s-1.3,1.53-1.82,2.31-.87,1.81-1.5,2.49c-.68.74-1.57,1.23-2.27,1.82-.82.68-1.59,1.29-2.29,1.75-1.44.96-1.8.13-2.26,1.49s.63.98,1.01,2.65c.2.86-.53,1.98-.47,3.03.05.96.85,1.99.66,2.97s-1.07,1.67-1.61,2.52c-.5.78-.72,1.98-1.62,2.56-1,.65-2.19.63-3.1.78-1.07.17-1.92-.34-2.88-.73-.91-.37-1.94-.54-2.76-1.28-.73-.66-1.13-1.67-1.81-2.52-.62-.79-1.08-1.7-1.67-2.59s-1.79-1.31-2.33-2.2c-.49-.79-.79-1.65-1.21-2.37-.48-.81-.84-1.63-1.21-2.37-.42-.85-.79-1.66-1.03-2.44-.27-.9-.26-1.76-.23-2.61s.16-1.68.57-2.53c.34-.72.93-1.33,1.58-2.08s1.4-1.53,2.08-2.28c.72-.79,1.15-1.83,1.83-2.53.79-.83,1.54-1.57,2.17-2.21,1.32-1.33,1.21-.98,2.33-2.04"/>
  </g>
  <g>
    <path class="st6" d="M131.21,45.87c1.44-1.82,1.17-1.54,2.98-3.56.93-1.03,2.4-1.82,3.57-2.99,1.09-1.08,2.16-2.21,3.34-3.18,1.27-1.05,2.49-2,3.72-2.68,1.64-.9,2.93-1.09,4.18-.77,1.75.45,2.9,1.24,4.03,2.58,1.02,1.21,2.3,2.38,2.92,4.17.52,1.5.43,3.29.73,5.12.26,1.61.26,3.31.38,5.12.11,1.63,1.1,3.17,1.02,4.65-.09,1.66-1.28,3.09-1.52,4.51-.3,1.73.32,3.49-.06,4.77-.82,2.75-1.49,1.91-2.54,3.99"/>
    <path class="st0" d="M131.21,45.87c1.44-1.82,1.17-1.54,2.98-3.56.93-1.03,2.4-1.82,3.57-2.99,1.09-1.08,2.16-2.21,3.34-3.18,1.27-1.05,2.49-2,3.72-2.68,1.64-.9,2.93-1.09,4.18-.77,1.75.45,2.9,1.24,4.03,2.58,1.02,1.21,2.3,2.38,2.92,4.17.52,1.5.43,3.29.73,5.12.26,1.61.26,3.31.38,5.12.11,1.63,1.1,3.17,1.02,4.65-.09,1.66-1.28,3.09-1.52,4.51-.3,1.73.32,3.49-.06,4.77-.82,2.75-1.49,1.91-2.54,3.99"/>
  </g>
  <path class="st4" d="M70.75,98.32s-4.78-1.98-5.41-4.15-.6-4.41-1.07-5.09-3.87-.42-4.13-2.61.42-3.13-.1-4.28-3.19-1.04-3.71-2.72-.31-3.92-.78-4.44-2.77-.63-3.34-2.61-1.46-3.34-2.98-3.4-2.66.99-3.66.89-2.61-2.04-4.02-1.83-1.04,2.3-1.78,2.77-2.46-.21-2.93.99.73,2.77.1,3.66-1.88,2.04-1.78,3.19,2.35,2.61,2.46,3.45-.42,2.66-.1,3.29,3.66,2.51,3.87,3.19-.47,2.98-.1,3.81,3.5,1.62,4.08,2.51,0,3.34.31,4.08,3.45,1.2,4.23,2.3-.37,2.4.31,3.55,3.45.73,4.08,1.83.99,3.92.99,3.92"/>
  <g>
    <path class="st6" d="M82.63,63.16c.85-1.63.18-1.49,1.35-3.46.54-.9,1.8-1.54,2.61-2.66.67-.92,1.16-2.05,2.03-3.05.77-.88,1.35-2.02,2.28-2.91.85-.82,1.69-1.76,2.69-2.54.93-.74,2.04-1.34,3.1-2.02,1.01-.64,2.07-1.29,3.2-1.85,1.07-.54,2.06-1.41,3.24-1.86,1.12-.43,2.56.02,3.78-.31,1.15-.31,2.2-1.28,3.45-1.49,1.18-.19,2.44-.23,3.7-.32,1.19-.08,2.43.5,3.7.52,1.19.02,2.42-.28,3.69-.16,1.19.11,2.33.73,3.58.94s2.32.48,3.43.7c1.19.24,2.45-.08,3.55.19,1.18.29,2.38.37,3.46.69,1.17.35,2.06,1.35,3.12,1.74,1.14.42,2.5.18,3.53.65,1.11.5,1.89,1.56,2.86,2.12,1.05.6,2.45.62,3.36,1.3.97.72,1.88,1.54,2.7,2.34s.88,2.36,1.58,3.28,2.13,1.37,2.72,2.4.87,2.2,1.33,3.3,1.2,2.06,1.54,3.21c.34,1.15.53,2.29.78,3.46.24,1.12.34,2.31.51,3.5.17,1.13.33,2.3.45,3.5.11,1.13-.27,2.35-.19,3.54s.05,2.31.1,3.51-.1,2.32-.06,3.51.88,2.3.9,3.5-.57,2.4-.55,3.52c.03,1.22.31,2.38.35,3.5.04,1.23.51,2.38.57,3.48.06,1.24.02,2.4.09,3.5.09,1.25-.31,2.45-.21,3.53.12,1.26.62,2.38.76,3.44.17,1.27.11,2.45.3,3.49.24,1.28.52,2.39.79,3.41.33,1.24.88,2.25,1.25,3.27.41,1.13.96,2.11,1.4,3.19.42,1.02,0,2.4.44,3.58s1.58,2.04,1.81,3.07c.28,1.25-.16,2.47-.16,3.52,0,1.27.47,2.55.09,3.56-.42,1.1-1.48,1.88-2.31,2.7-.78.77-1.9,1.06-3.01,1.62-.93.47-1.71,1.31-2.74,1.64s-2.07.16-3.15.21c-1.02.04-1.91-.21-2.99-.54-.94-.29-2.29-.13-3.26-.79-.74-1.67.1-1.78-.62-3.63-.41-1.06-.96-2.2-1.9-3.07-.82-.76-1.88-1.31-3.26-1.52-1.24-.18-2.44-.18-3.55.17s-2.17,1.01-3.16,1.69-2.03,1.36-2.88,2.13c-.96.87-1.87,1.69-2.66,2.37-1.27,1.1-2.24,2.04-3.03,1.51-1.29-.87-2.02-1.93-2.61-3.01s-.92-2.34-1.8-3.52-2.15-1.26-3.69-.34c-.9.54-1.63,1.81-2.86,2.8-.92.74-2,1.52-3.15,2.42s-2.45,1.32-3.41,2.01c-1.19.85-2.31,1.35-3.39,1.86-1.21.56-2.23,1.45-3.58,1.57-1.17.11-2.44-.24-3.91-.47-1.04-.16-2.1-.53-3.23-.74-1.06-.2-2.35.44-3.44.17s-2-1.12-3.05-1.47-1.93-1.11-2.93-1.56-2.17-.6-3.1-1.17-1.88-1.2-2.69-1.94c-1.03-.93-1.33-2.18-1.96-2.97-.85-1.06-1.78-1.74-2.46-2.58s-1.4-1.88-2.59-2.55c-.85-.48-1.94-1.12-3.33-1.51-1.03-.29-2.35,0-3.6-.24-1.11-.22-2.17-.94-3.36-1.19s-2.28-.45-3.42-.76-2.39-.26-3.46-.69c-1.13-.46-2.41-.65-3.34-1.3-.99-.68-1.75-1.71-2.42-2.68s-.76-2.12-.99-3.37-.58-2.43-.24-3.49,1.08-2.06,1.88-3.01c.71-.84,1.6-1.62,2.56-2.41.86-.71,1.93-1.24,2.91-1.96.92-.67,1.54-1.81,2.5-2.53s1.88-1.35,2.77-2.11,1.65-1.6,2.45-2.46,1.48-1.71,2.14-2.69,1.26-2,1.84-3.16c.54-1.07,1.5-1.98,1.98-3.16s1.16-2.19,1.58-3.38.85-2.32,1.24-3.51.61-2.41.98-3.59.58-2.43.95-3.59.3-2.54.68-3.68c.41-1.21,1.46-2.15,1.89-3.27.46-1.21,1.09-2.26,1.59-3.32.56-1.2.98-2.36,1.62-3.31l-.03.04Z"/>
    <path class="st0" d="M82.63,63.16c.85-1.63.18-1.49,1.35-3.46.54-.9,1.8-1.54,2.61-2.66.67-.92,1.16-2.05,2.03-3.05.77-.88,1.35-2.02,2.28-2.91.85-.82,1.69-1.76,2.69-2.54.93-.74,2.04-1.34,3.1-2.02,1.01-.64,2.07-1.29,3.2-1.85,1.07-.54,2.06-1.41,3.24-1.86,1.12-.43,2.56.02,3.78-.31,1.15-.31,2.2-1.28,3.45-1.49,1.18-.19,2.44-.23,3.7-.32,1.19-.08,2.43.5,3.7.52,1.19.02,2.42-.28,3.69-.16,1.19.11,2.33.73,3.58.94s2.32.48,3.43.7c1.19.24,2.45-.08,3.55.19,1.18.29,2.38.37,3.46.69,1.17.35,2.06,1.35,3.12,1.74,1.14.42,2.5.18,3.53.65,1.11.5,1.89,1.56,2.86,2.12,1.05.6,2.45.62,3.36,1.3.97.72,1.88,1.54,2.7,2.34s.88,2.36,1.58,3.28,2.13,1.37,2.72,2.4.87,2.2,1.33,3.3,1.2,2.06,1.54,3.21c.34,1.15.53,2.29.78,3.46.24,1.12.34,2.31.51,3.5.17,1.13.33,2.3.45,3.5.11,1.13-.27,2.35-.19,3.54s.05,2.31.1,3.51-.1,2.32-.06,3.51.88,2.3.9,3.5-.57,2.4-.55,3.52c.03,1.22.31,2.38.35,3.5.04,1.23.51,2.38.57,3.48.06,1.24.02,2.4.09,3.5.09,1.25-.31,2.45-.21,3.53.12,1.26.62,2.38.76,3.44.17,1.27.11,2.45.3,3.49.24,1.28.52,2.39.79,3.41.33,1.24.88,2.25,1.25,3.27.41,1.13.96,2.11,1.4,3.19.42,1.02,0,2.4.44,3.58s1.58,2.04,1.81,3.07c.28,1.25-.16,2.47-.16,3.52,0,1.27.47,2.55.09,3.56-.42,1.1-1.48,1.88-2.31,2.7-.78.77-1.9,1.06-3.01,1.62-.93.47-1.71,1.31-2.74,1.64s-2.07.16-3.15.21c-1.02.04-1.91-.21-2.99-.54-.94-.29-2.29-.13-3.26-.79-.74-1.67.1-1.78-.62-3.63-.41-1.06-.96-2.2-1.9-3.07-.82-.76-1.88-1.31-3.26-1.52-1.24-.18-2.44-.18-3.55.17s-2.17,1.01-3.16,1.69-2.03,1.36-2.88,2.13c-.96.87-1.87,1.69-2.66,2.37-1.27,1.1-2.24,2.04-3.03,1.51-1.29-.87-2.02-1.93-2.61-3.01s-.92-2.34-1.8-3.52-2.15-1.26-3.69-.34c-.9.54-1.63,1.81-2.86,2.8-.92.74-2,1.52-3.15,2.42s-2.45,1.32-3.41,2.01c-1.19.85-2.31,1.35-3.39,1.86-1.21.56-2.23,1.45-3.58,1.57-1.17.11-2.44-.24-3.91-.47-1.04-.16-2.1-.53-3.23-.74-1.06-.2-2.35.44-3.44.17s-2-1.12-3.05-1.47-1.93-1.11-2.93-1.56-2.17-.6-3.1-1.17-1.88-1.2-2.69-1.94c-1.03-.93-1.33-2.18-1.96-2.97-.85-1.06-1.78-1.74-2.46-2.58s-1.4-1.88-2.59-2.55c-.85-.48-1.94-1.12-3.33-1.51-1.03-.29-2.35,0-3.6-.24-1.11-.22-2.17-.94-3.36-1.19s-2.28-.45-3.42-.76-2.39-.26-3.46-.69c-1.13-.46-2.41-.65-3.34-1.3-.99-.68-1.75-1.71-2.42-2.68s-.76-2.12-.99-3.37-.58-2.43-.24-3.49,1.08-2.06,1.88-3.01c.71-.84,1.6-1.62,2.56-2.41.86-.71,1.93-1.24,2.91-1.96.92-.67,1.54-1.81,2.5-2.53s1.88-1.35,2.77-2.11,1.65-1.6,2.45-2.46,1.48-1.71,2.14-2.69,1.26-2,1.84-3.16c.54-1.07,1.5-1.98,1.98-3.16s1.16-2.19,1.58-3.38.85-2.32,1.24-3.51.61-2.41.98-3.59.58-2.43.95-3.59.3-2.54.68-3.68c.41-1.21,1.46-2.15,1.89-3.27.46-1.21,1.09-2.26,1.59-3.32.56-1.2.98-2.36,1.62-3.31l-.03.04Z"/>
  </g>
  <g>
    <path class="st6" d="M112.99,43.18c-.44-1.46-.48-3.58-1.68-5.52-.88-1.43-2.47-2.67-3.94-4.23-1.15-1.23-2.14-2.41-3.2-3.22-1.4-1.07-2.92-1.24-4.19-1.51-1.5-.32-2.8-.33-4.18.58-1.06.7-1.96,1.81-2.98,3.29-.75,1.09-1.19,2.5-1.93,4.04-.69,1.44-1.97,2.61-2.45,4.09s-.5,3.18-.81,4.68c-.34,1.62-1.29,3.1-1.45,4.58-.2,1.74,0,3.4-.04,4.77-.09,2.86.22,2.36.41,4.71"/>
    <path class="st0" d="M112.99,43.18c-.44-1.46-.48-3.58-1.68-5.52-.88-1.43-2.47-2.67-3.94-4.23-1.15-1.23-2.14-2.41-3.2-3.22-1.4-1.07-2.92-1.24-4.19-1.51-1.5-.32-2.8-.33-4.18.58-1.06.7-1.96,1.81-2.98,3.29-.75,1.09-1.19,2.5-1.93,4.04-.69,1.44-1.97,2.61-2.45,4.09s-.5,3.18-.81,4.68c-.34,1.62-1.29,3.1-1.45,4.58-.2,1.74,0,3.4-.04,4.77-.09,2.86.22,2.36.41,4.71"/>
  </g>
  <path class="st0" d="M69.9,64.42c.99,1.09,1.06.56,2.24,1.95.55.64.63,1.86,1.33,2.71.58.71,1.43,1.28,2.07,2.1.58.74,1.46,1.31,2.07,2.12s1.28,1.49,1.85,2.3.99,1.71,1.52,2.53,1.08,1.67,1.56,2.5c.51.88,1.33,1.58,1.74,2.43"/>
  <path class="st0" d="M60.17,75.13c1.07.79.83.56,2.15,1.58.6.46.98,1.44,1.78,2.06.65.51,1.4.99,2.14,1.58.66.53,1.39,1.05,2.11,1.64.67.55,1.19,1.31,1.89,1.9s1.33,1.16,2.01,1.75,1.74.71,2.4,1.31.99,1.56,1.64,2.16,1.17,1.35,1.8,1.96"/>
  <path class="st0" d="M153.62,88.96c.96-1.49.78-1.2,2.07-2.93.62-.83,1.72-1.52,2.55-2.54.71-.87,1.86-1.45,2.69-2.36.78-.86,1.22-2.1,2.09-2.93s1.75-1.65,2.67-2.38,2.23-.99,3.22-1.56"/>
  <path class="st0" d="M155.98,99.75c1.58-1.1,1.22-.92,3.15-2.21.94-.63,2.16-1.14,3.35-1.91,1.03-.67,2.13-1.35,3.26-2.04s1.89-1.87,2.99-2.51c1.16-.67,2.53-.88,3.6-1.45,1.27-.67,2.49-1.05,3.51-1.46"/>
  <path class="st0" d="M101.98,102.94c-.25,1.72-.23,1.52-.77,3.45-.28,1.01-.79,2.16-1.27,3.29-.45,1.06-.92,2.26-1.57,3.2-.69.98-1.89,1.6-2.84,2.19-1.08.68-1.94,1.44-2.79,1.74-1.26.44-2.48.39-3.35.19-1.07-.25-1.45-1.5-2.18-2.34-.63-.74-.9-1.31-.45-2.27.37-.77,1.1-1.45,1.64-2.23.59-.85.65-1.89.85-2.6.23-.82.57-1.67.58-2.54.02-1.44-.08-1.31-.26-2.62"/>
  <path class="st0" d="M149.11,106.19c.52,1.71.69,1.35.76,3.47.04,1.04.25,2.32.02,3.62-.19,1.09-.39,2.39-.88,3.57-.55,1.31-1.2,2.48-1.82,3.35-.87,1.21-2.18,1.76-3.13,2.18-1.18.52-2.23.02-3.41-.55-1.02-.49-1.58-.94-1.54-1.95.04-.86.28-1.86.52-2.81.25-1.01.98-2.03.82-2.84-.18-.95-.72-2.06-1.17-3.01"/>
  <g>
    <path class="st5" d="M101.06,65.73c-1.15,1.53-2,3-2.2,4.56-.22,1.74.33,3.42.9,4.99.6,1.66,1.32,3.28,2.32,4.52,1.34,1.67,2.89,2.81,3.93,3.22.89.36,2.39.86,4.14,1.21,1.33.26,2.79.3,4.29.2,1.41-.1,2.81-.34,4.13-1.03,1.18-.62,2.16-1.59,3.1-2.88.75-1.03,1.71-2.14,2.21-3.7.47-1.48.1-3.1-.42-4.7-.46-1.42-1.1-2.9-2.13-4.22-.95-1.22-2.22-2.22-3.51-3.19s-2.68-1.66-4.15-2.22-3.02-.9-4.58-.89-3.05.29-4.5,1.07c-1.28.69-2.46,1.64-3.53,3.06Z"/>
    <path class="st0" d="M101.06,65.73c-1.15,1.53-2,3-2.2,4.56-.22,1.74.33,3.42.9,4.99.6,1.66,1.32,3.28,2.32,4.52,1.34,1.67,2.89,2.81,3.93,3.22.89.36,2.39.86,4.14,1.21,1.33.26,2.79.3,4.29.2,1.41-.1,2.81-.34,4.13-1.03,1.18-.62,2.16-1.59,3.1-2.88.75-1.03,1.71-2.14,2.21-3.7.47-1.48.1-3.1-.42-4.7-.46-1.42-1.1-2.9-2.13-4.22-.95-1.22-2.22-2.22-3.51-3.19s-2.68-1.66-4.15-2.22-3.02-.9-4.58-.89-3.05.29-4.5,1.07c-1.28.69-2.46,1.64-3.53,3.06Z"/>
  </g>
  <g>
    <path class="st5" d="M128,77.39c-.28,1.67.21,3.52,1.08,5.2.77,1.49,1.86,3.02,3.5,4.03,1.39.85,3.18,1.16,5.17,1.36,1.59.16,3.38.32,5.35-.1,1.65-.35,3.15-.83,4.36-1.52,1.43-.82,2.47-2.01,3.35-3.15.97-1.26,1.43-2.71,1.81-4.14.4-1.53.92-3.06.75-4.52-.19-1.62-.75-3.21-1.51-4.39-1.01-1.58-2.58-2.51-4.06-3.3-1.56-.84-3.23-1.54-4.97-1.58s-3.59.31-5.18,1.02-3.14,1.5-4.47,2.49-2.48,2.32-3.39,3.82c-.81,1.33-1.48,2.91-1.78,4.77h-.01Z"/>
    <path class="st0" d="M128,77.39c-.28,1.67.21,3.52,1.08,5.2.77,1.49,1.86,3.02,3.5,4.03,1.39.85,3.18,1.16,5.17,1.36,1.59.16,3.38.32,5.35-.1,1.65-.35,3.15-.83,4.36-1.52,1.43-.82,2.47-2.01,3.35-3.15.97-1.26,1.43-2.71,1.81-4.14.4-1.53.92-3.06.75-4.52-.19-1.62-.75-3.21-1.51-4.39-1.01-1.58-2.58-2.51-4.06-3.3-1.56-.84-3.23-1.54-4.97-1.58s-3.59.31-5.18,1.02-3.14,1.5-4.47,2.49-2.48,2.32-3.39,3.82c-.81,1.33-1.48,2.91-1.78,4.77h-.01Z"/>
  </g>
  <circle class="st2" cx="116.88" cy="75.35" r="3.85"/>
  <circle class="st2" cx="135.87" cy="77.83" r="3.85"/>
  <path class="st0" d="M130.67,119.15c.88,1.03.24,1.21,1.49,2.33.58.52,1.45.92,2.27,1.53.68.5,1.64.66,2.46,1.17.74.45,1.44.98,2.29,1.39.79.39,1.42,1.19,2.3,1.51s1.8.21,2.71.42"/>
  <g>
    <path class="st7" d="M29.31,137.38c.22-1.59-.38-1.46.74-3.01.53-.73,1.16-1.71,2.2-2.41.78-.53,2.01-.39,3.17-.77.91-.3,1.79-1.24,2.97-1.38,1.08-.13,2.03.49,2.87.66,1.05.22,2.28.03,2.96.62.74.64,1.37,1.71,1.66,2.64.28.88-.63,1.93-.76,2.93-.12.91.5,2.09.04,3-.41.83-1.21,1.55-1.91,2.28-.63.67-.96,1.27-1.83,1.8-.24,1.54.49,1.19.69,2.87.11.97-.02,2.22-.34,3.24-.29.93-.96,1.99-1.91,2.67-.73.53-1.88.54-2.88.84-.9.27-1.85.34-2.86.4-.96.05-1.86-.17-2.84-.34s-2.14.36-3.04-.04-1.44-1.43-2.2-2.06-1.55-1.16-2.1-2.02-1.43-1.54-1.89-2.44-.81-1.93-1.15-2.86c-.37-.98-.19-2.1-.38-3.06-.21-1.03-.67-2.03-.62-3,.05-1.03.5-2.01.89-2.93s.92-1.75,1.69-2.5c.94-.9,1.83-1.61,2.69-1.79,1.11-.23,2.4,0,3.29.6.82.57.83,1.98,1.35,2.97.49.93,1.61,1.69,1.75,2.73"/>
    <path class="st1" d="M29.31,137.38c.22-1.59-.38-1.46.74-3.01.53-.73,1.16-1.71,2.2-2.41.78-.53,2.01-.39,3.17-.77.91-.3,1.79-1.24,2.97-1.38,1.08-.13,2.03.49,2.87.66,1.05.22,2.28.03,2.96.62.74.64,1.37,1.71,1.66,2.64.28.88-.63,1.93-.76,2.93-.12.91.5,2.09.04,3-.41.83-1.21,1.55-1.91,2.28-.63.67-.96,1.27-1.83,1.8-.24,1.54.49,1.19.69,2.87.11.97-.02,2.22-.34,3.24-.29.93-.96,1.99-1.91,2.67-.73.53-1.88.54-2.88.84-.9.27-1.85.34-2.86.4-.96.05-1.86-.17-2.84-.34s-2.14.36-3.04-.04-1.44-1.43-2.2-2.06-1.55-1.16-2.1-2.02-1.43-1.54-1.89-2.44-.81-1.93-1.15-2.86c-.37-.98-.19-2.1-.38-3.06-.21-1.03-.67-2.03-.62-3,.05-1.03.5-2.01.89-2.93s.92-1.75,1.69-2.5c.94-.9,1.83-1.61,2.69-1.79,1.11-.23,2.4,0,3.29.6.82.57.83,1.98,1.35,2.97.49.93,1.61,1.69,1.75,2.73"/>
  </g>
  <g>
    <path class="st7" d="M48.21,151.64c-.88.83-1.97,1.57-1.77,2.39.21.88,1.68,1.11,2.58,1.55s2.11,1.33,2.93.88c.78-.42.68-1.67.43-2.96s-.77-1.89-1.63-2.33c-.94-.48-1.61-.42-2.56.47h.02Z"/>
    <path class="st1" d="M48.21,151.64c-.88.83-1.97,1.57-1.77,2.39.21.88,1.68,1.11,2.58,1.55s2.11,1.33,2.93.88c.78-.42.68-1.67.43-2.96s-.77-1.89-1.63-2.33c-.94-.48-1.61-.42-2.56.47h.02Z"/>
  </g>
  <g>
    <path class="st7" d="M38.27,164.46c-.17-1.27-.82-1.05-1.6-2.05-.48-.61-.88-1.06-1.91-1.04s-2.11-.1-2.7.54-.63,1.72-.65,2.74c-.02.8-.27,1.88.14,2.82s1.26,1.95,2.18,2.55c.85.55,2.14.44,3.18.62s2.02-.06,3.01-.33,2.28-.28,2.97-1.12c.59-.71.29-1.84.39-2.7s.54-1.86.19-2.65-1.42-1-2.19-1.45c-.7-.41-1.26-.59-2.25-.47-.75.09-1.91-.56-2.81-.06"/>
    <path class="st1" d="M38.27,164.46c-.17-1.27-.82-1.05-1.6-2.05-.48-.61-.88-1.06-1.91-1.04s-2.11-.1-2.7.54-.63,1.72-.65,2.74c-.02.8-.27,1.88.14,2.82s1.26,1.95,2.18,2.55c.85.55,2.14.44,3.18.62s2.02-.06,3.01-.33,2.28-.28,2.97-1.12c.59-.71.29-1.84.39-2.7s.54-1.86.19-2.65-1.42-1-2.19-1.45c-.7-.41-1.26-.59-2.25-.47-.75.09-1.91-.56-2.81-.06"/>
  </g>
  <g>
    <path class="st7" d="M15.31,155.26c1.05.79.91.54,2.38.37.8-.09,1.71-1.15,2.62-1.02s1.36,1.28,2.1,1.77c.68.45,1.88.5,2.29,1.4.51,1.12.73,2.38.59,3.3-.17,1.1-1.43,1.6-2.26,2.26-.78.62-1.51,1.36-2.65,1.43-.97.06-2.28-.41-3.36-.86-.98.79-.05,1.4-.35,2.7-.18.77-.13,1.61-.75,2.25-.52.52-1.14,1.19-2.12,1.35-.92.15-2.06-.05-3.07-.44-.92-.36-1.74-1.09-2.49-1.77s-1.28-1.56-1.63-2.49-.48-1.86-.15-2.9c.27-.83.72-1.71,1.59-2.54-.22-1.58-.99-1.18-1.64-2.69-.41-.94-.95-2.03-.58-3.1.29-.82,1.08-1.59,2.24-2.3,1.16-.71,2.22-1.44,3.06-1.34,1.12.14,1.85,1.43,2.48,2.21.99,1.25.47,1.46,1.72,2.4h-.02Z"/>
    <path class="st1" d="M15.31,155.26c1.05.79.91.54,2.38.37.8-.09,1.71-1.15,2.62-1.02s1.36,1.28,2.1,1.77c.68.45,1.88.5,2.29,1.4.51,1.12.73,2.38.59,3.3-.17,1.1-1.43,1.6-2.26,2.26-.78.62-1.51,1.36-2.65,1.43-.97.06-2.28-.41-3.36-.86-.98.79-.05,1.4-.35,2.7-.18.77-.13,1.61-.75,2.25-.52.52-1.14,1.19-2.12,1.35-.92.15-2.06-.05-3.07-.44-.92-.36-1.74-1.09-2.49-1.77s-1.28-1.56-1.63-2.49-.48-1.86-.15-2.9c.27-.83.72-1.71,1.59-2.54-.22-1.58-.99-1.18-1.64-2.69-.41-.94-.95-2.03-.58-3.1.29-.82,1.08-1.59,2.24-2.3,1.16-.71,2.22-1.44,3.06-1.34,1.12.14,1.85,1.43,2.48,2.21.99,1.25.47,1.46,1.72,2.4h-.02Z"/>
  </g>
</svg>