<?xml version="1.0" encoding="UTF-8"?>
<svg id="_레이어_2" data-name="레이어 2" xmlns="http://www.w3.org/2000/svg" viewBox="0 0 200 200">
  <defs>
    <style>
      .cls-1 {
        stroke-width: 2.4px;
      }

      .cls-1, .cls-2 {
        fill: none;
        stroke-linecap: round;
        stroke-linejoin: round;
      }

      .cls-1, .cls-2, .cls-3 {
        stroke: #000;
      }

      .cls-2 {
        stroke-width: 2.4px;
      }

      .cls-4 {
        fill: #ffaf42;
      }

      .cls-3 {
        stroke-miterlimit: 10;
        stroke-width: 1.2px;
      }

      .cls-5 {
        fill: #fff;
      }

      .cls-6 {
        fill: #d6eb76;
      }
    </style>
  </defs>
  <g>
    <g>
      <path class="cls-4" d="M103.04,88.42c-.87.04-1.74.07-2.57.05s-1.74-.06-2.57-.16-1.66-.56-2.48-.72-1.59-.66-2.39-.89-1.75-.14-2.53-.44-1.73-.37-2.48-.74-1.48-.92-2.19-1.36-1.14-1.36-1.82-1.86-1.6-.73-2.23-1.28-1.13-1.29-1.72-1.89-.69-1.64-1.24-2.28-1.38-1.04-1.88-1.72-1.16-1.26-1.61-1.98-.32-1.76-.72-2.5-1.7-1.05-2.05-1.81.1-1.89-.2-2.67-1.13-1.41-1.38-2.21-.22-1.72-.41-2.52c-.2-.85-.13-1.71-.25-2.52-.14-.88-.43-1.75-.68-2.55-.27-.85-.68-1.67-1.06-2.41-.41-.81-1.46-1.14-1.96-1.79-.56-.73-.43-2.05-1.06-2.57-.73-.6-1.96-.17-2.71-.43-.89-.31-1.75-1.34-2.53-1.07s-1.2,1.26-1.85,1.71-1.04,1.08-1.55,1.7-1.52.88-1.87,1.62c-.32.69-.17,1.61-.37,2.42-.18.74.05,1.54-.02,2.36-.06.76-1.1,1.53-1.07,2.36.03.76.33,1.58.44,2.4.1.76.19,1.58.37,2.39.17.76.79,1.5,1.04,2.41.22.78.11,1.72.4,2.58.26.78,1.05,1.41,1.38,2.25.31.77.84,1.47,1.2,2.28.35.76.34,1.71.75,2.49s.6,1.63,1.04,2.38.61,1.66,1.1,2.39,1.09,1.36,1.62,2.06,1.58.93,2.15,1.6.63,1.74,1.24,2.37,1.53.91,2.17,1.5,1.47.9,2.15,1.45,1.25,1.16,1.96,1.66,1.22,1.25,1.96,1.71,1.65.55,2.42.97,1.59.6,2.38.97,1.32,1.23,2.14,1.56,1.69.36,2.52.64,1.7.25,2.55.48"/>
      <path class="cls-1" d="M103.04,88.42c-.87.04-1.74.07-2.57.05s-1.74-.06-2.57-.16-1.66-.56-2.48-.72-1.59-.66-2.39-.89-1.75-.14-2.53-.44-1.73-.37-2.48-.74-1.48-.92-2.19-1.36-1.14-1.36-1.82-1.86-1.6-.73-2.23-1.28-1.13-1.29-1.72-1.89-.69-1.64-1.24-2.28-1.38-1.04-1.88-1.72-1.16-1.26-1.61-1.98-.32-1.76-.72-2.5-1.7-1.05-2.05-1.81.1-1.89-.2-2.67-1.13-1.41-1.38-2.21-.22-1.72-.41-2.52c-.2-.85-.13-1.71-.25-2.52-.14-.88-.43-1.75-.68-2.55-.27-.85-.68-1.67-1.06-2.41-.41-.81-1.46-1.14-1.96-1.79-.56-.73-.43-2.05-1.06-2.57-.73-.6-1.96-.17-2.71-.43-.89-.31-1.75-1.34-2.53-1.07s-1.2,1.26-1.85,1.71-1.04,1.08-1.55,1.7-1.52.88-1.87,1.62c-.32.69-.17,1.61-.37,2.42-.18.74.05,1.54-.02,2.36-.06.76-1.1,1.53-1.07,2.36.03.76.33,1.58.44,2.4.1.76.19,1.58.37,2.39.17.76.79,1.5,1.04,2.41.22.78.11,1.72.4,2.58.26.78,1.05,1.41,1.38,2.25.31.77.84,1.47,1.2,2.28.35.76.34,1.71.75,2.49s.6,1.63,1.04,2.38.61,1.66,1.1,2.39,1.09,1.36,1.62,2.06,1.58.93,2.15,1.6.63,1.74,1.24,2.37,1.53.91,2.17,1.5,1.47.9,2.15,1.45,1.25,1.16,1.96,1.66,1.22,1.25,1.96,1.71,1.65.55,2.42.97,1.59.6,2.38.97,1.32,1.23,2.14,1.56,1.69.36,2.52.64,1.7.25,2.55.48"/>
    </g>
    <path class="cls-4" d="M96.91,159.13c-1.22-.13-2.78.27-3.98.06s-2.3-1.12-3.47-1.41-2.59.01-3.73-.33c-1.22-.37-2.08-1.68-3.19-2.08-1.23-.44-2.38-.85-3.43-1.28-1.28-.52-2.68-.4-3.64-.83-2.07-.95-4.86-2.61-3.24-1.75,1.33.7,1.68.05,3.01.77s.99,1.35,2.32,2.06,1.59.29,2.58,1.43c-1.28.17-2.42-.22-3.68-.2s-2.52-.17-3.77-.3-2.71.52-3.92.24c-1.29-.29-2.58-.66-3.73-1.08-1.28-.46-2.16-1.66-3.2-2.24-1.24-.69-2.43-1.18-3.25-1.96-1.12-1.07-1.35-2.2-1.43-3.27-.11-1.39-.77-2.75-.44-3.98s1.27-2.22,2.37-3.19c.85-.75,1.75-1.9,3.22-2.44,1.08-.4,2.43-.79,3.92-1.06,1.37-.25,2.77-.1,4.03-.16,1.42-.06,2.78-.08,4,.03,1.49.12,2.75.79,3.87,1.02,2.38.51,2.24-.26,3.84.92s1.16,1.68,2.65,2.99,1.77,1,3.26,2.31,1.53,1.22,2.72,2.81c1.07,1.44,1.37,1.27,2.09,2.91s-.17,2.03.55,3.67.53,1.84,1.49,3.36,2.05,1.17,2.17,2.96Z"/>
    <path class="cls-4" d="M71.52,106.69c-.88-1.57-1.26.24-3.42.02-1.05-.11-2.2-.87-3.52-.97-1.14-.08-2.38.51-3.62.47s-2.39-1.04-3.59-1.02-2.48.1-3.63.21c-1.3.12-2.39.98-3.43,1.26-1.4.37-2.7.5-3.35,1.23-.88.99-.83,2.4-1.21,3.58s-1.2,2.33-1.05,3.61.5,2.53,1.15,3.69c.59,1.05,1.31,2.23,2.32,3.13.89.8,1.97,1.67,3.19,2.29s2.78.24,4,.56c1.34.34,2.58.51,3.82.59,1.45.1,2.79.79,3.94.68,2.34-.21,5.01.62,3.86-.98-1.26-1.76-1.56-1.57-3.36-2.77s-2.1-.73-3.97-1.82c.92.85,1.89,1.46,2.76,2.11,1.02.76,2.27.93,3.21,1.47,1.13.64,2.14,1.07,3.11,1.44,1.28.49,2.27,1.03,3.23,1.19,2.19.37,2.89,1.96,3.21.24s.14-1.69-.17-3.38-.5-1.66-.81-3.36.17-1.78-.14-3.48-.73-1.62-1.04-3.32-.12-1.71-.31-3.43-.34-1.74-1.19-3.24Z"/>
    <path class="cls-1" d="M75.34,126.59c-1.71.36-1.27.93-3.46.56-.96-.16-2.13-.52-3.4-1.01-.98-.37-2.24-.58-3.36-1.23-.93-.53-1.45-1.9-2.46-2.66-.87-.65-1.96-1.15-2.89-2"/>
    <path class="cls-1" d="M71.69,106.81c-1.78-.26-1.44.12-3.6-.1-1.05-.11-2.2-.87-3.52-.97-1.14-.08-2.38.51-3.62.47s-2.39-1.04-3.59-1.02-2.48.1-3.63.21c-1.3.12-2.39.98-3.43,1.26-1.4.37-2.7.5-3.35,1.23-.88.99-.83,2.4-1.21,3.58s-1.2,2.33-1.05,3.61.5,2.53,1.15,3.69c.59,1.05,1.31,2.23,2.32,3.13.89.8,1.97,1.67,3.19,2.29,1.13.57,2.58.19,3.67.51,1.23.36,2.35.56,3.45.67,1.34.14,2.53.87,3.56.8,2.16-.15,1.8-.33,3.51-.88"/>
    <path class="cls-1" d="M82.13,137.76c-1.83-.78-1.63.03-4.01-.48-1.12-.24-2.4-.51-3.88-.64-1.22-.1-2.51.2-3.93.26-1.26.06-2.66-.67-4.03-.42-1.49.27-2.71.92-3.79,1.32-1.47.54-2.3,1.53-3.14,2.27-1.1.97-2.38,1.66-2.71,2.89s-.35,2.68-.24,4.07c.08,1.06,1.07,2.16,2.18,3.22.81.78,1.84,1.58,3.08,2.27,1.04.57,2.35.74,3.63,1.2,1.15.42,2.22,1.31,3.51,1.6,1.21.27,2.58-.24,3.88-.1s2.47.46,3.77.45,2.46-.42,3.75-.6"/>
    <path class="cls-1" d="M72.42,151.16c1.61.88,1.34.36,3.42,1.31.96.44,1.83,1.53,3.11,2.05,1.05.43,2.43.24,3.66.68,1.11.39,1.96,1.71,3.18,2.07,1.14.35,2.35.66,3.57.95s2.52-.11,3.74.11,2.35.85,3.57.98"/>
    <g>
      <path class="cls-5" d="M169.95,87.36c1.34-1.15,1.3-.65,3-1.91.83-.62,1.51-1.77,2.59-2.48.94-.62,1.97-1.3,3.02-1.9s2.25-.89,3.31-1.37,2.25-.98,3.34-1.27c1.22-.33,2.46-.05,3.55.02,1.23.07,2.35.24,3.27,1.01.85.71.99,1.87,1.37,3.13.31,1.03.88,2.08.92,3.37.03,1.12-.34,2.26-.49,3.5-.14,1.14.39,2.45.12,3.64s-1.51,2.03-1.87,3.18-.74,2.22-1.19,3.31-.32,2.48-.84,3.51c-.59,1.17-1.11,2.34-1.76,3.34-.73,1.12-2,1.74-2.73,2.65-.89,1.1-1.82,1.9-2.58,2.67-1.62,1.64-1.11,1.47-2.62,2.59"/>
      <path class="cls-1" d="M169.95,87.36c1.34-1.15,1.3-.65,3-1.91.83-.62,1.51-1.77,2.59-2.48.94-.62,1.97-1.3,3.02-1.9s2.25-.89,3.31-1.37,2.25-.98,3.34-1.27c1.22-.33,2.46-.05,3.55.02,1.23.07,2.35.24,3.27,1.01.85.71.99,1.87,1.37,3.13.31,1.03.88,2.08.92,3.37.03,1.12-.34,2.26-.49,3.5-.14,1.14.39,2.45.12,3.64s-1.51,2.03-1.87,3.18-.74,2.22-1.19,3.31-.32,2.48-.84,3.51c-.59,1.17-1.11,2.34-1.76,3.34-.73,1.12-2,1.74-2.73,2.65-.89,1.1-1.82,1.9-2.58,2.67-1.62,1.64-1.11,1.47-2.62,2.59"/>
    </g>
    <g>
      <path class="cls-5" d="M173.96,84c.75,1,2.33,1.43,2.97,2.49s.94,2.37,1.47,3.48.92,2.33,1.33,3.49.24,2.51.53,3.71,1.07,2.31,1.25,3.53.16,2.48.21,3.72-.12,2.47-.19,3.71-.54,2.4-.73,3.63.11,2.54-.2,3.74-.64,2.41-1.08,3.57-.53,2.51-1.08,3.63-2.04,1.7-2.7,2.76-.65,2.55-1.41,3.55-1.7,1.84-2.56,2.75c-.09.09.1.46.01.55-.81.84-1.79,1.6-2.64,2.59-.78.9-1.66,1.78-2.49,2.76-.78.92-1.85,1.64-2.69,2.6s-1.42,2.03-2.28,2.95-1.48,2.02-2.38,2.9-1.84,1.69-2.79,2.51c-1.04.9-2.24,1.47-3.19,2.19-1.09.82-2.24,1.4-3.24,2.08-1.1.74-2.1,1.53-3.14,2.21s-2.05,1.49-3.09,2.25c-.99.72-2.4,1-3.41,1.9-.89.79-1.33,2.18-2.27,3.19-.81.87-1.69,1.61-2.4,2.45-.77.92-1.61,1.71-2.28,2.57-.73.95-1.57,1.76-2.21,2.63-.72.98-1.13,2.09-1.78,2.94-.74.97-1.15,2.15-1.87,2.92-.83.89-1.9,1.47-2.81,2.05-.96.61-2.08.78-3.25.99-1.02.18-2.15.68-3.42.52s-2.06-1.22-2.95-1.56c-1.16-.45-2.28-.52-2.99-1.19-.84-.79-1.09-1.91-1.59-2.83-.54-.98-1.55-1.66-2.08-2.58s-1.19-1.54-2.15-2.17c-1.06-.69-1.81-1.61-2.85-1.91-1.12-.32-2.29-.34-3.41-.69-1.03-.32-2.03-.86-3.07-1.6-.81-.59-1.28-1.63-2.1-2.7-.72-.94-1.22-1.83-1.63-2.89s-.63-2.13-.85-3.25-.23-2.29-.37-3.4c-.15-1.2-1.22-2.21-1.44-3.26-.26-1.23-.73-2.08-1.36-2.92s-1.51-1.5-2.6-2.33c-.91-.69-1.53-1.92-2.58-2.66-.98-.69-2.03-1.33-3-2.1s-1.9-1.56-2.72-2.45-1.88-1.74-2.45-2.81-.24-2.49-.6-3.65-1.53-2.09-1.79-3.26-.4-2.41-.65-3.55c-.28-1.24-.45-2.41-.83-3.47-.44-1.23-.72-2.4-1.48-3.23-.65-.71-1.87-1.42-2.93-2.56-.81-.87-1.83-1.75-2.72-2.79-.82-.96-1.69-1.99-2.47-3.04s-1.36-2.3-1.99-3.4c-.68-1.19-.85-2.57-1.21-3.73-.41-1.34-.21-2.54.01-3.73s.44-2.4.98-3.58,1.17-2.16,1.96-3.17,1.48-2.01,2.5-2.79,1.9-1.79,3.11-2.28c1.13-.46,2.45-.76,3.76-.93,1.19-.15,2.52-.13,3.86.01,1.21.13,2.29.79,3.35.85,1.22.07,2.37-.2,3.43-.21,1.22-.02,2.28-.55,3.34-.69,1.18-.16,2.24-.23,3.29-.57s2.19-.5,3.22-1.04c.95-.5,2.09-.83,3.09-1.52.82-.57,1.59-1.66,2.71-2.59.86-.72,1.84-1.5,2.87-2.36.9-.75,1.93-1.46,2.95-2.27.94-.74,1.57-1.98,2.61-2.73.98-.71,2.46-.76,3.52-1.46s1.63-2.07,2.73-2.69,2.69-.18,3.82-.72,1.96-1.67,3.13-2.11,2.27-1.1,3.48-1.43,2.58.23,3.82.03,2.4-.51,3.66-.56c1.87-.07,1.43-.77,3.76-.6,1.06.08,2.33.25,3.74.44,1.14.15,2.36.58,3.67.83,1.16.22,2.19,1.32,3.45,1.64,1.16.29,2.46.22,3.68.61,1.15.36,2.33.76,3.52,1.22s2.23,1.01,3.38,1.55,2.45.63,3.56,1.25,1.82,1.76,2.87,2.46,2.27,1.06,3.27,1.84,1.97,1.52,2.89,2.39,1.23,2.23,2.08,3.17c.64.71,1.81.91,2.39,1.61.61.73.64,1.88,1.18,2.61Z"/>
      <path class="cls-1" d="M173.96,84c.75,1,2.33,1.43,2.97,2.49s.94,2.37,1.47,3.48.92,2.33,1.33,3.49.24,2.51.53,3.71,1.07,2.31,1.25,3.53.16,2.48.21,3.72-.12,2.47-.19,3.71-.54,2.4-.73,3.63.11,2.54-.2,3.74-.64,2.41-1.08,3.57-.53,2.51-1.08,3.63-2.04,1.7-2.7,2.76-.65,2.55-1.41,3.55-1.7,1.84-2.56,2.75c-.09.09.1.46.01.55-.81.84-1.79,1.6-2.64,2.59-.78.9-1.66,1.78-2.49,2.76-.78.92-1.85,1.64-2.69,2.6s-1.42,2.03-2.28,2.95-1.48,2.02-2.38,2.9-1.84,1.69-2.79,2.51c-1.04.9-2.24,1.47-3.19,2.19-1.09.82-2.24,1.4-3.24,2.08-1.1.74-2.1,1.53-3.14,2.21s-2.05,1.49-3.09,2.25c-.99.72-2.4,1-3.41,1.9-.89.79-1.33,2.18-2.27,3.19-.81.87-1.69,1.61-2.4,2.45-.77.92-1.61,1.71-2.28,2.57-.73.95-1.57,1.76-2.21,2.63-.72.98-1.13,2.09-1.78,2.94-.74.97-1.15,2.15-1.87,2.92-.83.89-1.9,1.47-2.81,2.05-.96.61-2.08.78-3.25.99-1.02.18-2.15.68-3.42.52s-2.06-1.22-2.95-1.56c-1.16-.45-2.28-.52-2.99-1.19-.84-.79-1.09-1.91-1.59-2.83-.54-.98-1.55-1.66-2.08-2.58s-1.19-1.54-2.15-2.17c-1.06-.69-1.81-1.61-2.85-1.91-1.12-.32-2.29-.34-3.41-.69-1.03-.32-2.03-.86-3.07-1.6-.81-.59-1.28-1.63-2.1-2.7-.72-.94-1.22-1.83-1.63-2.89s-.63-2.13-.85-3.25-.23-2.29-.37-3.4c-.15-1.2-1.22-2.21-1.44-3.26-.26-1.23-.73-2.08-1.36-2.92s-1.51-1.5-2.6-2.33c-.91-.69-1.53-1.92-2.58-2.66-.98-.69-2.03-1.33-3-2.1s-1.9-1.56-2.72-2.45-1.88-1.74-2.45-2.81-.24-2.49-.6-3.65-1.53-2.09-1.79-3.26-.4-2.41-.65-3.55c-.28-1.24-.45-2.41-.83-3.47-.44-1.23-.72-2.4-1.48-3.23-.65-.71-1.87-1.42-2.93-2.56-.81-.87-1.83-1.75-2.72-2.79-.82-.96-1.69-1.99-2.47-3.04s-1.36-2.3-1.99-3.4c-.68-1.19-.85-2.57-1.21-3.73-.41-1.34-.21-2.54.01-3.73s.44-2.4.98-3.58,1.17-2.16,1.96-3.17,1.48-2.01,2.5-2.79,1.9-1.79,3.11-2.28c1.13-.46,2.45-.76,3.76-.93,1.19-.15,2.52-.13,3.86.01,1.21.13,2.29.79,3.35.85,1.22.07,2.37-.2,3.43-.21,1.22-.02,2.28-.55,3.34-.69,1.18-.16,2.24-.23,3.29-.57s2.19-.5,3.22-1.04c.95-.5,2.09-.83,3.09-1.52.82-.57,1.59-1.66,2.71-2.59.86-.72,1.84-1.5,2.87-2.36.9-.75,1.93-1.46,2.95-2.27.94-.74,1.57-1.98,2.61-2.73.98-.71,2.46-.76,3.52-1.46s1.63-2.07,2.73-2.69,2.69-.18,3.82-.72,1.96-1.67,3.13-2.11,2.27-1.1,3.48-1.43,2.58.23,3.82.03,2.4-.51,3.66-.56c1.87-.07,1.43-.77,3.76-.6,1.06.08,2.33.25,3.74.44,1.14.15,2.36.58,3.67.83,1.16.22,2.19,1.32,3.45,1.64,1.16.29,2.46.22,3.68.61,1.15.36,2.33.76,3.52,1.22s2.23,1.01,3.38,1.55,2.45.63,3.56,1.25,1.82,1.76,2.87,2.46,2.27,1.06,3.27,1.84,1.97,1.52,2.89,2.39,1.23,2.23,2.08,3.17c.64.71,1.81.91,2.39,1.61.61.73.64,1.88,1.18,2.61Z"/>
    </g>
    <g>
      <path class="cls-5" d="M124.37,66.97c.74-1.68,1.13-1.02,2.16-3.02.48-.94.05-2.58.72-3.77.56-1,2.16-1.49,2.84-2.59.63-1.01.47-2.58,1.18-3.61s1.78-1.74,2.54-2.7,1.79-1.7,2.61-2.57,1.27-2.29,2.18-3.04c.99-.81,2.44-.83,3.48-1.37,1.13-.59,2.03-1.78,3.2-1.95s2.52.16,3.73.55c1.06.34,1.95,1.24,2.83,2.27.72.84,1.43,1.83,2.04,2.99.53,1.02,1.52,1.95,1.97,3.13.42,1.1-.11,2.58.24,3.76s.86,2.26,1.15,3.44.62,2.37.85,3.53c.25,1.25,1.05,2.35,1.24,3.48.22,1.33.32,2.58.46,3.62.3,2.2.04,1.83.21,3.64"/>
      <path class="cls-1" d="M124.37,66.97c.74-1.68,1.13-1.02,2.16-3.02.48-.94.05-2.58.72-3.77.56-1,2.16-1.49,2.84-2.59.63-1.01.47-2.58,1.18-3.61s1.78-1.74,2.54-2.7,1.79-1.7,2.61-2.57,1.27-2.29,2.18-3.04c.99-.81,2.44-.83,3.48-1.37,1.13-.59,2.03-1.78,3.2-1.95s2.52.16,3.73.55c1.06.34,1.95,1.24,2.83,2.27.72.84,1.43,1.83,2.04,2.99.53,1.02,1.52,1.95,1.97,3.13.42,1.1-.11,2.58.24,3.76s.86,2.26,1.15,3.44.62,2.37.85,3.53c.25,1.25,1.05,2.35,1.24,3.48.22,1.33.32,2.58.46,3.62.3,2.2.04,1.83.21,3.64"/>
    </g>
    <g>
      <path class="cls-4" d="M131.61,79.71c-2.51.7-4.06,2.57-5.25,4.29-1.32,1.92-1.73,4.18-1.9,6.36-.22,2.83.34,5.22,1.06,6.43s2.01,3.81,4.29,5.68c1.78,1.45,3.98,2.33,6.56,2.36,2.01.02,4.35-.23,6.79-1.93,1.74-1.21,2.17-3.5,2.6-5.89.37-2.06,1.38-4.41.86-6.66s-2.45-3.82-3.72-5.6-2.42-4.04-4.5-4.83c-1.9-.72-4.33-.89-6.8-.2Z"/>
      <path class="cls-1" d="M131.61,79.71c-2.51.7-4.06,2.57-5.25,4.29-1.32,1.92-1.73,4.18-1.9,6.36-.22,2.83.34,5.22,1.06,6.43s2.01,3.81,4.29,5.68c1.78,1.45,3.98,2.33,6.56,2.36,2.01.02,4.35-.23,6.79-1.93,1.74-1.21,2.17-3.5,2.6-5.89.37-2.06,1.38-4.41.86-6.66s-2.45-3.82-3.72-5.6-2.42-4.04-4.5-4.83c-1.9-.72-4.33-.89-6.8-.2Z"/>
    </g>
    <g>
      <path class="cls-4" d="M146.42,106.16c-1.61,1.52-2.98,3.66-2.95,6.24.03,2.16,1.39,4.09,3.1,6.19,1.3,1.6,2.65,3.56,5.17,4.75,2.7,1.28,5.28,1.71,7.5,1.43,2.72-.34,5.24-1.57,6.94-3.28,1.95-1.96,3.36-4.68,3.54-6.93.23-2.85-1.47-5.17-3.04-7.15s-3.77-3.39-6.32-3.99-5.06-1.64-7.52-1.23c-2.31.39-4.29,1.94-6.43,3.96Z"/>
      <path class="cls-1" d="M146.42,106.16c-1.61,1.52-2.98,3.66-2.95,6.24.03,2.16,1.39,4.09,3.1,6.19,1.3,1.6,2.65,3.56,5.17,4.75,2.7,1.28,5.28,1.71,7.5,1.43,2.72-.34,5.24-1.57,6.94-3.28,1.95-1.96,3.36-4.68,3.54-6.93.23-2.85-1.47-5.17-3.04-7.15s-3.77-3.39-6.32-3.99-5.06-1.64-7.52-1.23c-2.31.39-4.29,1.94-6.43,3.96Z"/>
    </g>
    <circle class="cls-3" cx="138.5" cy="97.46" r="3.85"/>
    <circle class="cls-3" cx="152.1" cy="110.96" r="3.85"/>
    <g>
      <path class="cls-1" d="M120.6,74.65c-.83-.91-.94-.4-1.9-1.58-.45-.55-.97-1.18-1.53-1.92-.46-.61-.86-1.33-1.36-2.05-.45-.65-1.33-1.05-1.79-1.77-.43-.68-.34-1.69-.76-2.42s-1.17-1.23-1.54-1.97-.78-1.46-1.1-2.22.09-1.77-.16-2.55-1.19-1.38-1.35-2.18.44-1.7.4-2.51"/>
      <path class="cls-1" d="M91.47,71.76c1.23.14.94-.17,2.47.12.69.13,1.67-.41,2.59-.2.74.17,1.51.62,2.36.85.76.21,1.39,1,2.22,1.26.76.24,1.57.43,2.37.72.76.28,1.63.33,2.41.66s1.63.43,2.39.8,1.29,1.11,2.02,1.52,1.35.95,2.05,1.41,1.6.62,2.26,1.13"/>
    </g>
    <g>
      <path class="cls-1" d="M191.69,121.92c-.97.87-1.3.01-2.64.85-.63.4-1.23,1.11-2.11,1.52-.73.35-1.41,1.1-2.28,1.38-.79.26-1.83-.32-2.72-.17-.83.14-1.62.15-2.54.05-.85-.09-1.75.06-2.63-.12s-1.72-.43-2.57-.59-1.8.08-2.64.03"/>
      <path class="cls-1" d="M189.37,136.82c-1.43.03-1.09.59-2.86.56-.82-.02-1.8.04-2.87-.01-.88-.04-1.86-.09-2.87-.16-.91-.07-1.77-1.2-2.75-1.31-.79-.09-1.61.07-2.42-.05s-1.69.38-2.5.24-1.5-.8-2.29-.97-1.58-.35-2.35-.56-1.41-.89-2.16-1.15"/>
    </g>
    <path class="cls-2" d="M114.17,101.91c-.68,1.85-1.04,1.4-2.13,3.31-.61,1.07-1.04,2.39-1.94,3.38s-1.9,1.96-3.08,2.39-2.13.35-2.99.28c-1.14-.1-2.38,0-3.1-.61-.84-.7-.97-2.07-1.4-2.85-.56-1.03.07-1.98,1.06-2.97.9-.9,2.26-1.62,2.68-2.44.9-1.71.43-2.28.59-4.54"/>
    <path class="cls-2" d="M147.33,134.4c-.1,1.78.22,1.49-.45,3.5-.33.99-1.17,1.9-1.83,3.05-.56.96-.9,2.14-1.78,3.07-.97,1.03-1.87,1.89-2.75,2.49-1.24.84-2.41,1.26-3.44,1.32-1.29.08-2.49-.38-3.4-1.31-1.13-1.16-.83-2.81.05-4.18.81-1.25,2.29-2.27,2.49-3.46.16-.95-.42-2.06-.51-3.11"/>
    <path d="M67.54,114.27s1.11,9.83,1.77,12.24l4.32.78-1.17-6.47-1.84-3.77-3.08-2.79Z"/>
    <polygon points="84.43 142.06 87.38 154.16 87.57 156.9 91.09 158.09 92.52 157.63 92.17 153.53 89.54 146.87 84.43 142.06"/>
  </g>
  <g>
    <path d="M74.73,186.12c0-.83.56-1.72,1.92-2.38.83-.4,1.8-1.16,3.01-1.46.97-.24,2.12-.34,3.28-.51,1.02-.15,2.14-.23,3.28-.3,1.05-.07,2.17.22,3.29.22s2.21.26,3.26.33c1.14.07,2.17.54,3.19.69,1.16.17,2.27.02,3.24.26,1.21.31,2.12.85,2.95,1.25,1.35.66,2.87,1.07,2.87,1.9,0,.97-.93,1.99-1.93,2.83-.67.55-1.49,1.51-2.77,1.88-.89.26-2.08.02-3.31.15-.96.1-2.05-.5-3.24-.5-.9,0-2.34,1.04-3.86.91-1.25-.11-2.55-.64-3.78-.78-1.59-.18-2.9-1.05-3.68-1.18-1.09-.17-2.02-.41-2.92-.66-1.13-.31-2.35.1-3.11-.3-1.24-.64-1.69-1.56-1.69-2.35Z"/>
    <path class="cls-1" d="M74.73,186.12c0-.83.56-1.72,1.92-2.38.83-.4,1.8-1.16,3.01-1.46.97-.24,2.12-.34,3.28-.51,1.02-.15,2.14-.23,3.28-.3,1.05-.07,2.17.22,3.29.22s2.21.26,3.26.33c1.14.07,2.17.54,3.19.69,1.16.17,2.27.02,3.24.26,1.21.31,2.12.85,2.95,1.25,1.35.66,2.87,1.07,2.87,1.9,0,.97-.93,1.99-1.93,2.83-.67.55-1.49,1.51-2.77,1.88-.89.26-2.08.02-3.31.15-.96.1-2.05-.5-3.24-.5-.9,0-2.34,1.04-3.86.91-1.25-.11-2.55-.64-3.78-.78-1.59-.18-2.9-1.05-3.68-1.18-1.09-.17-2.02-.41-2.92-.66-1.13-.31-2.35.1-3.11-.3-1.24-.64-1.69-1.56-1.69-2.35Z"/>
  </g>
  <path class="cls-1" d="M17.18,72.04c2.43,0,2.43-.7,4.87-.7s2.43.35,4.87.35c2.77,0,2.77-.54,5.54-.54s2.77-.04,5.54-.04,2.77.29,5.54.29"/>
  <path class="cls-1" d="M32.46,78.46c2.48-.02,2.49.95,4.97.92s2.48-.03,4.96-.06c2.29-.02,2.28-.71,4.58-.73s2.29-.17,4.58-.19"/>
  <path class="cls-1" d="M12.21,85.03c2.58.03,2.59-.67,5.16-.65s2.58.37,5.15.4c2.2.02,2.2-.52,4.4-.5s2.2-.01,4.39,0"/>
  <path class="cls-1" d="M22.9,142.15c1.86.08,1.82,1.05,3.68,1.12s1.86.07,3.72.15c2.86.12,2.89-.56,5.76-.45,2.68.11,2.69-.04,5.37.07"/>
  <path class="cls-1" d="M29.58,150.43c2.27-.02,2.26-.72,4.53-.73s2.27.33,4.54.31,2.27-.56,4.53-.58,2.27-.05,4.54-.07c1.81-.01,1.82.28,3.63.26s1.81-.07,3.63-.08"/>
  <path class="cls-1" d="M27.65,57.5c0,.96-.26,2.04-1.02,2.04s-1.63-1.08-1.63-2.04.86-2.31,1.63-2.31,1.02,1.35,1.02,2.31Z"/>
  <g>
    <path class="cls-6" d="M47.74,167.55c-1.57,0-1.37-.69-2.34-1.91s-.77-1.39-1.74-2.62-2.33-1.04-2.33-2.61,1.61-1.18,2.58-2.4.45-1.64,1.42-2.87.79-2.08,2.32-1.72c2.23.53,1.22,1.64,2.65,3.44,1.5,1.89,3.19,1.12,3.59,3.5.26,1.54-1.4,1.18-2.37,2.41s-.6,1.41-1.3,2.82-.91,1.97-2.47,1.97Z"/>
    <path class="cls-1" d="M47.74,167.55c-1.57,0-1.37-.69-2.34-1.91s-.77-1.39-1.74-2.62-2.33-1.04-2.33-2.61,1.61-1.18,2.58-2.4.45-1.64,1.42-2.87.79-2.08,2.32-1.72c2.23.53,1.22,1.64,2.65,3.44,1.5,1.89,3.19,1.12,3.59,3.5.26,1.54-1.4,1.18-2.37,2.41s-.6,1.41-1.3,2.82-.91,1.97-2.47,1.97Z"/>
  </g>
</svg>