<?xml version="1.0" encoding="UTF-8"?>
<svg id="_레이어_2" data-name="레이어 2" xmlns="http://www.w3.org/2000/svg" viewBox="0 0 200 200">
  <defs>
    <style>
      .cls-1 {
        stroke-width: 2.4px;
      }

      .cls-1, .cls-2 {
        fill: none;
        stroke-linecap: round;
        stroke-linejoin: round;
      }

      .cls-1, .cls-2, .cls-3 {
        stroke: #000;
      }

      .cls-2 {
        stroke-width: 2.4px;
      }

      .cls-4 {
        fill: #ffaf42;
      }

      .cls-5 {
        fill: #fdb2d2;
      }

      .cls-3 {
        stroke-miterlimit: 10;
        stroke-width: 1.2px;
      }

      .cls-6 {
        fill: #fff;
      }

      .cls-7 {
        fill: #d6eb76;
      }
    </style>
  </defs>
  <g>
    <path class="cls-4" d="M67.79,103.78c-1.52-1.18-1.43.23-3.72.14-1.13-.05-2.43-.73-3.83-.73-1.24,0-2.52.7-3.82.78s-2.7-.78-3.93-.6c-1.37.2-2.71.51-3.82.88-1.45.48-2.23,1.66-2.87,2.53-.79,1.06-1.73,2.02-2,3.22s.43,2.45.69,3.71.06,2.59.81,3.69c.68,1,1.55,2,2.63,2.82.95.72,2.05,1.52,3.32,2.03,1.16.47,2.33.92,3.4,1.13,1.24.24,2.5-.55,3.58-.56,1.32-.01,2.41-.17,3.4-.38,2.07-.44,4.58.65,3.67-.85s-1.7-.86-3.14-1.87-1.18-1.41-2.65-2.38c.93.72,1.77,1.5,2.76,2.04s1.94,1.33,3,1.72,2.35.19,3.44.43c1.16.26,2.26.39,3.36.51,1.21.13,2.32.47,3.4.48,1.29.01,2.43-.1,3.43-.18,2.09-.17,4.04,1.4,3.62-.26s-1.22-1.28-2.24-2.6-.64-1.62-1.67-2.94-1.36-1.06-2.39-2.39-.78-1.51-1.81-2.84-1.62-.86-2.65-2.19-.3-1.87-1.28-3.23-1.35-1.1-2.68-2.12Z"/>
    <path class="cls-1" d="M82.22,121.79c-1.69.37-1.21.95-3.31,1.12-.99.08-2.19.07-3.47.06-1.07-.01-2.29.27-3.5.14-1.1-.12-2.12-1.15-3.28-1.41-1.1-.24-2.28-.25-3.38-.65s-2.33-.46-3.36-1.02-1.53-1.84-2.46-2.57"/>
    <path class="cls-1" d="M67.91,103.83c-1.92-.18-1.55.19-3.85.09-1.13-.05-2.43-.73-3.83-.73-1.24,0-2.52.7-3.82.78s-2.7-.78-3.93-.6c-1.37.2-2.71.51-3.82.88-1.45.48-2.23,1.66-2.87,2.53-.79,1.06-1.73,2.02-2,3.22s.43,2.45.69,3.71.06,2.59.81,3.69c.68,1,1.55,2,2.63,2.82.95.72,2.05,1.52,3.32,2.03,1.15.46,2.31.92,3.37,1.13,1.23.25,2.49-.53,3.56-.53,1.31,0,2.39-.14,3.38-.34,2.06-.41,1.98.44,3.53-.35"/>
    <path d="M68.62,105.65s-.21,15.18.65,17.52l13.03-1.03-4.66-5.28-6.86-6.17-2.16-5.04Z"/>
    <path class="cls-4" d="M101.77,147.76c-1.21.23-2.57,1.08-3.78,1.23s-2.52-.4-3.73-.34-2.47.77-3.67.77c-1.27,0-2.49-1.01-3.66-1.06-1.3-.06-2.52-.12-3.65-.23-1.37-.12-2.68.4-3.72.26-2.25-.3-5.4-1.08-3.61-.73,1.48.29,1.62-.44,3.1-.14s1.34,1,2.82,1.3,1.61-.18,2.88.62c-1.18.54-2.38.49-3.58.87s-2.46.57-3.69.81-2.44,1.28-3.68,1.37c-1.32.1-2.66.12-3.88.05-1.36-.07-2.55-.96-3.71-1.21-1.39-.3-2.67-.42-3.68-.93-1.38-.7-1.93-1.72-2.32-2.71-.51-1.3-1.54-2.41-1.58-3.68s.57-2.49,1.34-3.74c.59-.96,1.12-2.32,2.37-3.27.92-.7,2.09-1.46,3.44-2.15.99-.51,2.2-.7,3.28-1.09s2.17-.76,3.26-1.04,2.34-.08,3.43-.28c1.17-.21,2.27-.57,3.34-.7,1.25-.15,2.44.23,3.42.16,2.06-.14,1.93-1.55,3.32-.58,1.55,1.09,1.07,1.58,2.38,2.96s1.85.86,3.16,2.25.6,2.05,1.9,3.43,1.31,1.38,2.62,2.76,1.61,1.1,3.1,2.29,1.96,1.03,2.77,2.75Z"/>
    <path class="cls-1" d="M85.89,130.89c-1.7,0-1.31.66-3.38.81-.98.07-2.12.1-3.38.26-1.06.13-2.12.63-3.29.84-1.09.2-2.38-.41-3.5-.13s-2.11.91-3.18,1.29-1.93,1.22-2.93,1.73c-1.35.69-2.89.69-3.81,1.39-1.25.95-2.2,2.01-2.79,2.97-.77,1.25-.78,2.68-.74,3.96s.35,2.58.85,3.88c.39.99,1.56,1.55,2.94,2.25,1,.51,2.04,1.43,3.43,1.73,1.16.25,2.51-.31,3.87-.24,1.22.07,2.46.32,3.78.23,1.24-.09,2.42-.57,3.71-.82s2.6.09,3.84-.3,2.13-1.44,3.31-1.98"/>
    <path class="cls-1" d="M76.03,147.27c1.8.37,1.39-.05,3.65.26,1.04.14,2.19.93,3.57,1.06,1.13.1,2.4-.48,3.7-.42,1.17.05,2.37,1.06,3.64,1.06,1.19,0,2.44-.06,3.69-.12s2.38-.84,3.61-.98,2.49.13,3.7-.1"/>
    <polygon points="101.07 148.16 93.18 140.83 93.1 138.09 89.63 136.77 88.18 137.17 88.38 141.27 90.63 149.29 101.07 148.16"/>
    <g>
      <path class="cls-4" d="M100.13,77.9c-.83.26-1.66.52-2.47.7s-1.7.38-2.52.5-1.75-.11-2.58-.06-1.7-.23-2.54-.25-1.73.31-2.56.22-1.77.09-2.59-.08-1.66-.51-2.47-.76-1.45-1.02-2.24-1.33-1.73-.3-2.49-.67-1.43-.95-2.15-1.38-1.09-1.4-1.78-1.89-1.6-.65-2.26-1.19-1.44-.92-2.06-1.5-.76-1.62-1.33-2.24-1.91-.58-2.45-1.23-.39-1.85-.88-2.53-1.46-1.07-1.9-1.78-.66-1.6-1.05-2.33c-.41-.77-.56-1.62-.89-2.37-.36-.82-.86-1.58-1.31-2.29-.48-.75-1.08-1.43-1.64-2.06-.6-.67-1.7-.72-2.36-1.23-.73-.56-.95-1.88-1.68-2.21-.86-.4-1.94.34-2.73.28-.94-.07-2.03-.85-2.72-.39s-.84,1.53-1.35,2.12-.73,1.31-1.06,2.04-1.25,1.24-1.39,2.05c-.14.75.25,1.6.26,2.43.01.76.45,1.47.59,2.29.13.75-.67,1.76-.43,2.56.22.73.72,1.44,1.04,2.21.29.71.59,1.48.96,2.21.36.69,1.15,1.25,1.62,2.06.41.69.55,1.63,1.05,2.39.45.69,1.38,1.1,1.91,1.82.49.67,1.18,1.21,1.75,1.89.53.65.77,1.57,1.37,2.22s.99,1.42,1.62,2.04,1.02,1.45,1.67,2.03,1.4,1.04,2.09,1.58,1.77.5,2.48,1,1.06,1.52,1.8,1.98,1.71.49,2.48.89,1.65.49,2.45.85,1.51.8,2.32,1.1,1.5.9,2.34,1.15,1.74.11,2.59.31,1.69.18,2.55.33,1.59.85,2.46.96,1.73-.08,2.6-.03,1.71-.2,2.58-.19"/>
      <path class="cls-1" d="M100.13,77.9c-.83.26-1.66.52-2.47.7s-1.7.38-2.52.5-1.75-.11-2.58-.06-1.7-.23-2.54-.25-1.73.31-2.56.22-1.77.09-2.59-.08-1.66-.51-2.47-.76-1.45-1.02-2.24-1.33-1.73-.3-2.49-.67-1.43-.95-2.15-1.38-1.09-1.4-1.78-1.89-1.6-.65-2.26-1.19-1.44-.92-2.06-1.5-.76-1.62-1.33-2.24-1.91-.58-2.45-1.23-.39-1.85-.88-2.53-1.46-1.07-1.9-1.78-.66-1.6-1.05-2.33c-.41-.77-.56-1.62-.89-2.37-.36-.82-.86-1.58-1.31-2.29-.48-.75-1.08-1.43-1.64-2.06-.6-.67-1.7-.72-2.36-1.23-.73-.56-.95-1.88-1.68-2.21-.86-.4-1.94.34-2.73.28-.94-.07-2.03-.85-2.72-.39s-.84,1.53-1.35,2.12-.73,1.31-1.06,2.04-1.25,1.24-1.39,2.05c-.14.75.25,1.6.26,2.43.01.76.45,1.47.59,2.29.13.75-.67,1.76-.43,2.56.22.73.72,1.44,1.04,2.21.29.71.59,1.48.96,2.21.36.69,1.15,1.25,1.62,2.06.41.69.55,1.63,1.05,2.39.45.69,1.38,1.1,1.91,1.82.49.67,1.18,1.21,1.75,1.89.53.65.77,1.57,1.37,2.22s.99,1.42,1.62,2.04,1.02,1.45,1.67,2.03,1.4,1.04,2.09,1.58,1.77.5,2.48,1,1.06,1.52,1.8,1.98,1.71.49,2.48.89,1.65.49,2.45.85,1.51.8,2.32,1.1,1.5.9,2.34,1.15,1.74.11,2.59.31,1.69.18,2.55.33,1.59.85,2.46.96,1.73-.08,2.6-.03,1.71-.2,2.58-.19"/>
    </g>
    <g>
      <path class="cls-6" d="M171.47,77.4c1.9-.11,1.53.26,3.81.28,1.11,0,2.43-.5,3.82-.43,1.21.07,2.52.13,3.82.28s2.5.62,3.74.86,2.56.52,3.72.9c1.28.43,2.27,1.35,3.26,1.98,1.16.74,2.17,1.46,2.7,2.53.49,1,.14,2.11-.02,3.41-.13,1.07-.04,2.26-.53,3.45-.43,1.03-1.23,1.93-1.87,3.01-.59.99-.63,2.4-1.36,3.38s-2.2,1.25-2.99,2.15-1.58,1.73-2.43,2.55-1.29,2.13-2.19,2.87c-1.01.83-1.96,1.69-2.96,2.34-1.12.73-2.54.79-3.57,1.32-1.25.65-2.43,1-3.43,1.39-2.15.85-1.61.9-3.44,1.3"/>
      <path class="cls-1" d="M171.47,77.4c1.9-.11,1.53.26,3.81.28,1.11,0,2.43-.5,3.82-.43,1.21.07,2.52.13,3.82.28s2.5.62,3.74.86,2.56.52,3.72.9c1.28.43,2.27,1.35,3.26,1.98,1.16.74,2.17,1.46,2.7,2.53.49,1,.14,2.11-.02,3.41-.13,1.07-.04,2.26-.53,3.45-.43,1.03-1.23,1.93-1.87,3.01-.59.99-.63,2.4-1.36,3.38s-2.2,1.25-2.99,2.15-1.58,1.73-2.43,2.55-1.29,2.13-2.19,2.87c-1.01.83-1.96,1.69-2.96,2.34-1.12.73-2.54.79-3.57,1.32-1.25.65-2.43,1-3.43,1.39-2.15.85-1.61.9-3.44,1.3"/>
    </g>
    <g>
      <path class="cls-6" d="M173.83,76.51c.75,1,2.33,1.44,2.96,2.5s.93,2.37,1.46,3.49.91,2.33,1.32,3.5.23,2.51.52,3.71,1.06,2.31,1.23,3.54.15,2.48.19,3.72-.13,2.47-.21,3.71-.55,2.4-.75,3.63.1,2.54-.22,3.74-.65,2.4-1.09,3.57-.54,2.5-1.09,3.62-2.05,1.69-2.71,2.75-.66,2.55-1.42,3.54-1.71,1.83-2.57,2.74c-.09.09.1.46,0,.55-.81.84-1.79,1.6-2.65,2.58-.78.9-1.67,1.77-2.5,2.75-.78.92-1.86,1.63-2.7,2.59s-1.43,2.02-2.29,2.94-1.49,2.01-2.39,2.89-1.85,1.68-2.8,2.5-2,1.28-2.86,1.96c-.94.75-1.96,1.29-2.84,1.95-.95.71-1.8,1.48-2.7,2.14s-1.79,1.44-2.69,2.13-2.22.87-3.11,1.61-1.26,1.98-2.12,2.8c-.8.75-1.73,1.42-2.55,2.3-.91.97-1.86,1.79-2.63,2.7-.86,1.02-1.81,1.87-2.53,2.8-.83,1.06-1.34,2.25-2.05,3.17-.84,1.08-1.3,2.33-2.07,3.19-.91,1.01-2.04,1.69-3.01,2.35-1.04.7-2.25.92-3.55,1.15-1.1.19-2.34.68-3.76.49-1.33-.18-2.26-1.23-3.24-1.57-1.28-.44-2.5-.47-3.3-1.14-.95-.8-1.27-1.94-1.76-2.99s-1.43-1.94-1.7-3.14c-.25-1.1-.63-2.23-.88-3.43-.28-1.34.06-2.55-.2-3.47-.38-1.31-.97-2.2-1.52-3.06s-1.18-1.7-2.17-2.62c-.7-.65-1.27-1.71-2.3-2.59-1.19-1.02-2.36-1.63-3.31-1.99-1.3-.5-2.4-.67-3.55-1.13-.95-.38-1.63-.94-2.7-2.16-.66-.75-2.11-1.17-2.89-2.49-.65-1.1-1.14-2.54-1.26-3.97-.11-1.25-.18-2.62-.23-4.03-.05-1.29.52-2.67.24-4.03-.25-1.26-.74-2.51-1.39-3.76-.5-.97-1.25-1.84-2.12-2.68-.79-.76-1.9-1.2-2.86-1.89s-1.44-1.98-2.4-2.6-2.48-.5-3.39-1.12c-1.03-.7-1.95-1.51-2.71-2.22-.98-.91-1.67-2.05-1.88-3.04-.27-1.26-.29-2.45-.6-3.48-.38-1.25-1.15-2.19-1.59-3.15-.55-1.21-1.24-2.06-1.84-2.92-.77-1.1-1.5-1.83-2.27-2.54-.98-.9-1.76-1.71-2.58-2.37-.96-.78-1.46-1.86-1.94-2.99-.37-.88-.2-1.93-.12-3.42.06-1.25.19-2.44.69-3.65s1.13-2.18,1.96-3.19,1.55-1.98,2.62-2.73c1.02-.72,1.98-1.73,3.22-2.19,1.16-.43,2.5-.72,3.82-.87,1.22-.14,2.57-.11,3.9.03,1.21.13,2.29.8,3.35.86,1.22.08,2.37-.19,3.43-.2,1.22-.01,2.28-.54,3.34-.68,1.18-.16,2.24-.22,3.3-.55s2.19-.49,3.23-1.03c.96-.5,2.09-.82,3.09-1.5.83-.56,1.6-1.65,2.72-2.58.87-.72,1.85-1.49,2.88-2.35.9-.75,1.93-1.45,2.96-2.26.94-.74,1.58-1.97,2.62-2.72.98-.71,2.46-.75,3.53-1.44s1.64-2.06,2.74-2.68,2.69-.17,3.82-.71,1.96-1.67,3.14-2.1,2.28-1.1,3.49-1.41,2.58.24,3.82.05,2.4-.5,3.66-.54c1.87-.06,1.43-.76,3.77-.59,1.06.08,2.33.26,3.73.45,1.14.15,2.35.59,3.67.84,1.16.23,2.18,1.33,3.45,1.65,1.16.3,2.46.23,3.68.62,1.15.37,2.32.77,3.51,1.23s2.23,1.02,3.38,1.57,2.45.64,3.55,1.26,1.81,1.77,2.86,2.47,2.27,1.07,3.26,1.85,1.96,1.53,2.88,2.4,1.22,2.23,2.07,3.18c.63.71,1.81.92,2.38,1.62.6.74.63,1.89,1.17,2.61Z"/>
      <path class="cls-1" d="M173.83,76.51c.75,1,2.33,1.44,2.96,2.5s.93,2.37,1.46,3.49.91,2.33,1.32,3.5.23,2.51.52,3.71,1.06,2.31,1.23,3.54.15,2.48.19,3.72-.13,2.47-.21,3.71-.55,2.4-.75,3.63.1,2.54-.22,3.74-.65,2.4-1.09,3.57-.54,2.5-1.09,3.62-2.05,1.69-2.71,2.75-.66,2.55-1.42,3.54-1.71,1.83-2.57,2.74c-.09.09.1.46,0,.55-.81.84-1.79,1.6-2.65,2.58-.78.9-1.67,1.77-2.5,2.75-.78.92-1.86,1.63-2.7,2.59s-1.43,2.02-2.29,2.94-1.49,2.01-2.39,2.89-1.85,1.68-2.8,2.5-2,1.28-2.86,1.96c-.94.75-1.96,1.29-2.84,1.95-.95.71-1.8,1.48-2.7,2.14s-1.79,1.44-2.69,2.13-2.22.87-3.11,1.61-1.26,1.98-2.12,2.8c-.8.75-1.73,1.42-2.55,2.3-.91.97-1.86,1.79-2.63,2.7-.86,1.02-1.81,1.87-2.53,2.8-.83,1.06-1.34,2.25-2.05,3.17-.84,1.08-1.3,2.33-2.07,3.19-.91,1.01-2.04,1.69-3.01,2.35-1.04.7-2.25.92-3.55,1.15-1.1.19-2.34.68-3.76.49-1.33-.18-2.26-1.23-3.24-1.57-1.28-.44-2.5-.47-3.3-1.14-.95-.8-1.27-1.94-1.76-2.99s-1.43-1.94-1.7-3.14c-.25-1.1-.63-2.23-.88-3.43-.28-1.34.06-2.55-.2-3.47-.38-1.31-.97-2.2-1.52-3.06s-1.18-1.7-2.17-2.62c-.7-.65-1.27-1.71-2.3-2.59-1.19-1.02-2.36-1.63-3.31-1.99-1.3-.5-2.4-.67-3.55-1.13-.95-.38-1.63-.94-2.7-2.16-.66-.75-2.11-1.17-2.89-2.49-.65-1.1-1.14-2.54-1.26-3.97-.11-1.25-.18-2.62-.23-4.03-.05-1.29.52-2.67.24-4.03-.25-1.26-.74-2.51-1.39-3.76-.5-.97-1.25-1.84-2.12-2.68-.79-.76-1.9-1.2-2.86-1.89s-1.44-1.98-2.4-2.6-2.48-.5-3.39-1.12c-1.03-.7-1.95-1.51-2.71-2.22-.98-.91-1.67-2.05-1.88-3.04-.27-1.26-.29-2.45-.6-3.48-.38-1.25-1.15-2.19-1.59-3.15-.55-1.21-1.24-2.06-1.84-2.92-.77-1.1-1.5-1.83-2.27-2.54-.98-.9-1.76-1.71-2.58-2.37-.96-.78-1.46-1.86-1.94-2.99-.37-.88-.2-1.93-.12-3.42.06-1.25.19-2.44.69-3.65s1.13-2.18,1.96-3.19,1.55-1.98,2.62-2.73c1.02-.72,1.98-1.73,3.22-2.19,1.16-.43,2.5-.72,3.82-.87,1.22-.14,2.57-.11,3.9.03,1.21.13,2.29.8,3.35.86,1.22.08,2.37-.19,3.43-.2,1.22-.01,2.28-.54,3.34-.68,1.18-.16,2.24-.22,3.3-.55s2.19-.49,3.23-1.03c.96-.5,2.09-.82,3.09-1.5.83-.56,1.6-1.65,2.72-2.58.87-.72,1.85-1.49,2.88-2.35.9-.75,1.93-1.45,2.96-2.26.94-.74,1.58-1.97,2.62-2.72.98-.71,2.46-.75,3.53-1.44s1.64-2.06,2.74-2.68,2.69-.17,3.82-.71,1.96-1.67,3.14-2.1,2.28-1.1,3.49-1.41,2.58.24,3.82.05,2.4-.5,3.66-.54c1.87-.06,1.43-.76,3.77-.59,1.06.08,2.33.26,3.73.45,1.14.15,2.35.59,3.67.84,1.16.23,2.18,1.33,3.45,1.65,1.16.3,2.46.23,3.68.62,1.15.37,2.32.77,3.51,1.23s2.23,1.02,3.38,1.57,2.45.64,3.55,1.26,1.81,1.77,2.86,2.47,2.27,1.07,3.26,1.85,1.96,1.53,2.88,2.4,1.22,2.23,2.07,3.18c.63.71,1.81.92,2.38,1.62.6.74.63,1.89,1.17,2.61Z"/>
    </g>
    <g>
      <path class="cls-6" d="M125.64,57.06c1.54-1.08,1.52-.3,3.48-1.54.91-.58,1.39-2.22,2.6-2.94,1.01-.6,2.66-.24,3.82-.88,1.06-.58,1.71-2.04,2.87-2.62s2.44-.71,3.59-1.23,2.41-.72,3.58-1.17,2.15-1.56,3.32-1.91c1.24-.37,2.65.1,3.84-.12,1.3-.24,2.47-1.2,3.66-1.21,1.33-.01,2.63.41,3.76.76,1.23.38,2.23,1.17,3.12,2.07s1.47,1.9,1.78,3.09c.29,1.12.91,2.36.85,3.63-.06,1.18-1.2,2.27-1.47,3.47s-.4,2.41-.77,3.52c-.42,1.25-.81,2.41-1.24,3.4-.85,1.97-.17,1.95-1.04,3.53"/>
      <path class="cls-1" d="M125.64,57.06c1.54-1.08,1.52-.3,3.48-1.54.91-.58,1.39-2.22,2.6-2.94,1.01-.6,2.66-.24,3.82-.88,1.06-.58,1.71-2.04,2.87-2.62s2.44-.71,3.59-1.23,2.41-.72,3.58-1.17,2.15-1.56,3.32-1.91c1.24-.37,2.65.1,3.84-.12,1.3-.24,2.47-1.2,3.66-1.21,1.33-.01,2.63.41,3.76.76,1.23.38,2.23,1.17,3.12,2.07s1.47,1.9,1.78,3.09c.29,1.12.91,2.36.85,3.63-.06,1.18-1.2,2.27-1.47,3.47s-.4,2.41-.77,3.52c-.42,1.25-.81,2.41-1.24,3.4-.85,1.97-.17,1.95-1.04,3.53"/>
    </g>
    <g>
      <path class="cls-4" d="M131.48,72.04c-8.95,2.46-8.15,14.2-6.38,17.18,1.04,1.75,3.71,5.52,7.65,7.18,2.79,1.18,5.9,1.16,9.87-1.59,3.97-2.75,4.62-9.51,2.22-15.12-2.2-5.14-6.88-9.43-13.37-7.65Z"/>
      <path class="cls-1" d="M131.48,72.04c-8.95,2.46-8.15,14.2-6.38,17.18,1.04,1.75,3.71,5.52,7.65,7.18,2.79,1.18,5.9,1.16,9.87-1.59,3.97-2.75,4.62-9.51,2.22-15.12-2.2-5.14-6.88-9.43-13.37-7.65Z"/>
    </g>
    <g>
      <path class="cls-4" d="M146.19,98.56c-4,3.74-4.55,12.55,5.23,17.24,4.3,2.06,7.91,1.1,10.86-.37,3.77-1.87,6.55-5.13,6.83-8.39.5-5.82-3.85-10.54-8.82-11.74s-9.66-.88-14.1,3.27Z"/>
      <path class="cls-1" d="M146.19,98.56c-4,3.74-4.55,12.55,5.23,17.24,4.3,2.06,7.91,1.1,10.86-.37,3.77-1.87,6.55-5.13,6.83-8.39.5-5.82-3.85-10.54-8.82-11.74s-9.66-.88-14.1,3.27Z"/>
    </g>
    <circle class="cls-3" cx="138.31" cy="89.83" r="3.85"/>
    <circle class="cls-3" cx="151.85" cy="103.37" r="3.85"/>
    <g>
      <path class="cls-1" d="M97.42,53.62c1.16.4,1.01-.1,2.42.49.65.27,1.42.58,2.26.97.69.32,1.39.76,2.17,1.15.7.36,1.67.29,2.42.71.7.39,1.1,1.33,1.82,1.77s1.61.52,2.29,1,1.38.92,2.02,1.43.76,1.6,1.35,2.17,1.7.65,2.22,1.27.42,1.7.84,2.39"/>
      <path class="cls-1" d="M86.68,69.22c1.23-.17.87-.4,2.42-.51.7-.05,1.52-.82,2.46-.84.76-.02,1.61.22,2.5.24.79.01,1.6.62,2.46.67.8.04,1.63.02,2.48.11.8.08,1.66-.09,2.5.03s1.69,0,2.51.17,1.53.75,2.34.97,1.55.58,2.34.85,1.7.2,2.47.53"/>
    </g>
    <g>
      <path class="cls-1" d="M171.5,117.18c1.29.05.95.9,2.43,1.28.73.19,1.65.15,2.52.53.74.33,1.76.38,2.51.9.67.47.72,1.72,1.28,2.46.51.68,1.01,1.4,1.5,2.13s1.28,1.3,1.83,1.91"/>
      <path class="cls-1" d="M165.42,123.1c1.07.94,1.2.31,2.47,1.54.59.57,1.34,1.19,2.09,1.96.62.63,1.3,1.33,1.99,2.07.62.67.48,2.09,1.13,2.83.57.66,1.2,1.15,1.58,1.86.41.76,1.29,1.31,1.55,2.08.27.82-.02,1.79.16,2.58.2.86.38,1.69.58,2.44"/>
    </g>
    <path class="cls-2" d="M108.26,98.98c-1.66,1.08-1.67.5-3.7,1.37-1.13.49-2.27,1.29-3.58,1.54s-2.69.43-3.9.07-1.91-.99-2.56-1.57c-.85-.76-1.9-1.43-2.12-2.35-.26-1.07.46-2.24.59-3.12.17-1.16,1.24-1.54,2.63-1.74,1.26-.18,2.78.05,3.61-.34,1.74-.83,1.71-1.56,3.2-3.28"/>
    <path class="cls-2" d="M144.75,134.18c-1.24,1.29-.8,1.27-2.62,2.37-.89.54-2.12.68-3.37,1.12-1.05.36-2.08,1.04-3.35,1.17-1.41.15-2.65.22-3.71.1-1.48-.17-2.65-.61-3.48-1.24-1.03-.78-1.64-1.9-1.72-3.21-.1-1.62,1.2-2.68,2.76-3.14,1.42-.42,3.22-.23,4.14-1,.74-.62,1.03-1.84,1.63-2.69"/>
  </g>
  <path class="cls-1" d="M34.72,65.74c1.66,0,1.66-.7,3.32-.7s1.66.35,3.32.35,1.66-.54,3.32-.54,1.66-.04,3.33-.04,1.66.29,3.33.29"/>
  <path class="cls-2" d="M33.19,77.39c1.65-.02,1.66.95,3.32.94s1.66-.02,3.31-.04,1.65-.7,3.3-.72c1.53-.02,1.52-.16,3.05-.18s1.54.64,3.06.62,1.53.13,3.06.12"/>
  <path class="cls-2" d="M23.3,71.9c1.72.02,1.72-.68,3.44-.67s1.72.36,3.44.38,1.73-.53,3.45-.51c2.2.02,2.2-.01,4.39,0s2.19.31,4.39.33"/>
  <path class="cls-2" d="M31.68,135.07c1.86.08,1.82,1.05,3.68,1.12s1.86.07,3.72.15c1.43.06,1.46-.62,2.89-.56s1.44-.09,2.87-.03c2.68.11,2.65.76,5.33.87"/>
  <path class="cls-2" d="M16.18,143.15c1.81-.01,1.81-.71,3.62-.73s1.82.33,3.63.32,1.81-.56,3.62-.57,1.82-.05,3.63-.06,1.82.28,3.64.26,1.81-.07,3.63-.08,1.82.44,3.63.42"/>
  <g>
    <path d="M74.94,186.12c0-.72.08-1.67,1.14-2.27.67-.38,1.6-.69,2.59-.99.79-.24,1.64-.8,2.61-.98.84-.16,1.89.56,2.83.45.87-.1,1.74-.49,2.68-.54.88-.05,1.8-.51,2.73-.51s1.82.84,2.71.89c.94.05,1.83.1,2.7.2.95.11,1.89-.07,2.73.09.96.18,1.83.46,2.63.7,1,.3,2.03.3,2.69.68,1.05.6,1.26,1.57,1.26,2.29,0,.97.16,2.35-.85,3.18-.67.55-1.87.88-3.14,1.25-.89.26-1.95.79-3.18.92-.96.1-2.1-.5-3.29-.5-.71,0-1.76.61-2.9.52-.9-.07-1.8-1.13-2.77-1.23s-1.97-.18-2.85-.29c-1.19-.14-2.3.39-2.93.29-1.09-.17-2-.84-2.9-1.09-1.13-.31-2.41.01-3.17-.38-1.24-.64-1.31-1.9-1.31-2.69Z"/>
    <path class="cls-1" d="M74.94,186.12c0-.72.08-1.67,1.14-2.27.67-.38,1.6-.69,2.59-.99.79-.24,1.64-.8,2.61-.98.84-.16,1.89.56,2.83.45.87-.1,1.74-.49,2.68-.54.88-.05,1.8-.51,2.73-.51s1.82.84,2.71.89c.94.05,1.83.1,2.7.2.95.11,1.89-.07,2.73.09.96.18,1.83.46,2.63.7,1,.3,2.03.3,2.69.68,1.05.6,1.26,1.57,1.26,2.29,0,.97.16,2.35-.85,3.18-.67.55-1.87.88-3.14,1.25-.89.26-1.95.79-3.18.92-.96.1-2.1-.5-3.29-.5-.71,0-1.76.61-2.9.52-.9-.07-1.8-1.13-2.77-1.23s-1.97-.18-2.85-.29c-1.19-.14-2.3.39-2.93.29-1.09-.17-2-.84-2.9-1.09-1.13-.31-2.41.01-3.17-.38-1.24-.64-1.31-1.9-1.31-2.69Z"/>
  </g>
  <g>
    <path class="cls-5" d="M19.58,58.99c-1.26,0-.78-.75-1.52-1.78s-.79-.99-1.53-2.01-.52-1.18-1.27-2.21-1.4-.68-1.39-1.95.65-.92,1.4-1.93.79-.99,1.54-2,.76-1.01,1.51-2.03.08-2.4,1.34-2.4.68,1.31,1.42,2.33.69,1.06,1.43,2.08.9.91,1.64,1.93,1.4.81,1.39,2.08-.78.95-1.54,1.96-.8.98-1.55,1.99-.8,1-1.33,2.15-.3,1.77-1.56,1.76Z"/>
    <path class="cls-1" d="M19.58,58.99c-1.26,0-.78-.75-1.52-1.78s-.79-.99-1.53-2.01-.52-1.18-1.27-2.21-1.4-.68-1.39-1.95.65-.92,1.4-1.93.79-.99,1.54-2,.76-1.01,1.51-2.03.08-2.4,1.34-2.4.68,1.31,1.42,2.33.69,1.06,1.43,2.08.9.91,1.64,1.93,1.4.81,1.39,2.08-.78.95-1.54,1.96-.8.98-1.55,1.99-.8,1-1.33,2.15-.3,1.77-1.56,1.76Z"/>
  </g>
  <g>
    <path class="cls-7" d="M49.47,145.12c1.23,0,.42,1.02.84,2.18s.4,1.17.82,2.33.58,1.1,1,2.26.21,1.24.63,2.4.28,1.22,1.09,2.15.94.59,1.99,1.13,1.12.42,2.17.96.93.78,1.99,1.32,2.37-.13,2.37,1.05-1.38.38-2.44.91-1.06.54-2.12,1.07-.94.78-2,1.31-1.44.01-2.23.9-.16,1.28-.59,2.44-.71,1.05-1.15,2.2-.46,1.15-.89,2.3-.5,1.13-.93,2.29.5,2.17-.73,2.17-.58-.9-1-2.06-.43-1.16-.85-2.32-.14-1.26-.56-2.42-.54-1.12-.96-2.28.1-1.51-.71-2.44-1.24-.33-2.3-.87-.99-.67-2.04-1.21-1.16-.34-2.21-.88-2.23-.06-2.23-1.25,1.22-.6,2.28-1.13,1.05-.55,2.11-1.08,1.15-.36,2.21-.89,1.3-.25,2.09-1.13.62-1.08,1.06-2.24.27-1.22.7-2.37.55-1.11.99-2.26.43-1.16.57-2.38c.15-1.32-.21-2.16,1.03-2.16Z"/>
    <path class="cls-1" d="M49.47,145.12c1.23,0,.42,1.02.84,2.18s.4,1.17.82,2.33.58,1.1,1,2.26.21,1.24.63,2.4.28,1.22,1.09,2.15.94.59,1.99,1.13,1.12.42,2.17.96.93.78,1.99,1.32,2.37-.13,2.37,1.05-1.38.38-2.44.91-1.06.54-2.12,1.07-.94.78-2,1.31-1.44.01-2.23.9-.16,1.28-.59,2.44-.71,1.05-1.15,2.2-.46,1.15-.89,2.3-.5,1.13-.93,2.29.5,2.17-.73,2.17-.58-.9-1-2.06-.43-1.16-.85-2.32-.14-1.26-.56-2.42-.54-1.12-.96-2.28.1-1.51-.71-2.44-1.24-.33-2.3-.87-.99-.67-2.04-1.21-1.16-.34-2.21-.88-2.23-.06-2.23-1.25,1.22-.6,2.28-1.13,1.05-.55,2.11-1.08,1.15-.36,2.21-.89,1.3-.25,2.09-1.13.62-1.08,1.06-2.24.27-1.22.7-2.37.55-1.11.99-2.26.43-1.16.57-2.38c.15-1.32-.21-2.16,1.03-2.16Z"/>
  </g>
</svg>