<?xml version="1.0" encoding="UTF-8"?>
<svg id="_레이어_1" data-name="레이어 1" xmlns="http://www.w3.org/2000/svg" viewBox="0 0 200 200">
  <defs>
    <style>
      .cls-1 {
        stroke-width: 2.4px;
      }

      .cls-1, .cls-2 {
        fill: none;
        stroke-linecap: round;
        stroke-linejoin: round;
      }

      .cls-1, .cls-2, .cls-3 {
        stroke: #000;
      }

      .cls-2 {
        stroke-width: 2.4px;
      }

      .cls-4 {
        fill: #ffaf42;
      }

      .cls-3 {
        stroke-miterlimit: 10;
        stroke-width: 1.2px;
      }

      .cls-5 {
        fill: #fff;
      }
    </style>
  </defs>
  <g>
    <path class="cls-4" d="M96.49,117.94c-.87-.03-1.73.22-2.56.13s-1.69-.29-2.51-.45-1.56-.77-2.36-1-1.64-.39-2.42-.68-1.86,0-2.62-.37-1.62-.68-2.34-1.12-.86-1.79-1.54-2.29-2-.22-2.63-.77-1.34-1.13-1.93-1.73-.7-1.69-1.24-2.34-1.45-1.04-1.94-1.73-.25-1.87-.69-2.59-1.51-1.09-1.9-1.84-.63-1.6-.97-2.37-.85-1.51-1.14-2.3-.28-1.72-.52-2.52.05-1.76-.13-2.58-.36-1.64-.48-2.46c-.13-.86-.56-1.64-.62-2.46-.07-.89-.39-1.72-.59-2.54-.21-.87-.37-1.73-.69-2.5-.35-.84-.72-1.64-1.17-2.33-.5-.77-1.23-1.29-1.81-1.85-.68-.66-1.08-1.76-1.8-2.07-.87-.38-1.84.38-2.64.59s-1.35.59-2.03.99-1.23.76-1.79,1.34-1.75.64-2.15,1.36c-.37.66-.13,1.67-.39,2.46-.24.72-.53,1.45-.66,2.27-.12.75-.57,1.52-.61,2.35-.03.76.44,1.56.49,2.39.04.77-.3,1.61-.19,2.42.11.77.79,1.53.97,2.45.16.79-.14,1.74.08,2.62.2.8.83,1.52,1.09,2.37.24.79.63,1.56.93,2.4.29.79.44,1.64.79,2.45s.59,1.6.98,2.39.69,1.57,1.12,2.33,1.04,1.37,1.51,2.1,1.1,1.3,1.62,2.01.39,1.86.94,2.54,1.07,1.37,1.67,2.01,1.71.73,2.34,1.33,1,1.45,1.67,2.01,1.39,1.01,2.09,1.53,1.38,1.01,2.12,1.49,1.38,1.05,2.14,1.48,1.88.08,2.67.46,1.09,1.71,1.9,2.06,1.86-.05,2.69.25"/>
    <path class="cls-1" d="M96.49,117.94c-.87-.03-1.73.22-2.56.13s-1.69-.29-2.51-.45-1.56-.77-2.36-1-1.64-.39-2.42-.68-1.86,0-2.62-.37-1.62-.68-2.34-1.12-.86-1.79-1.54-2.29-2-.22-2.63-.77-1.34-1.13-1.93-1.73-.7-1.69-1.24-2.34-1.45-1.04-1.94-1.73-.25-1.87-.69-2.59-1.51-1.09-1.9-1.84-.63-1.6-.97-2.37-.85-1.51-1.14-2.3-.28-1.72-.52-2.52.05-1.76-.13-2.58-.36-1.64-.48-2.46c-.13-.86-.56-1.64-.62-2.46-.07-.89-.39-1.72-.59-2.54-.21-.87-.37-1.73-.69-2.5-.35-.84-.72-1.64-1.17-2.33-.5-.77-1.23-1.29-1.81-1.85-.68-.66-1.08-1.76-1.8-2.07-.87-.38-1.84.38-2.64.59s-1.35.59-2.03.99-1.23.76-1.79,1.34-1.75.64-2.15,1.36c-.37.66-.13,1.67-.39,2.46-.24.72-.53,1.45-.66,2.27-.12.75-.57,1.52-.61,2.35-.03.76.44,1.56.49,2.39.04.77-.3,1.61-.19,2.42.11.77.79,1.53.97,2.45.16.79-.14,1.74.08,2.62.2.8.83,1.52,1.09,2.37.24.79.63,1.56.93,2.4.29.79.44,1.64.79,2.45s.59,1.6.98,2.39.69,1.57,1.12,2.33,1.04,1.37,1.51,2.1,1.1,1.3,1.62,2.01.39,1.86.94,2.54,1.07,1.37,1.67,2.01,1.71.73,2.34,1.33,1,1.45,1.67,2.01,1.39,1.01,2.09,1.53,1.38,1.01,2.12,1.49,1.38,1.05,2.14,1.48,1.88.08,2.67.46,1.09,1.71,1.9,2.06,1.86-.05,2.69.25"/>
  </g>
  <g>
    <path class="cls-4" d="M91.68,141.38c-2,1.31-1.72,1.11-3.98,2.66-1.2.83-2.21,2.28-3.56,3.26s-2.97,1.59-4.11,2.51c-1.79,1.45-3.41,2.85-3.62,3.53-.26.88.74,2.44,1.14,4.3.26,1.22-.29,2.89.29,4.38.48,1.23,2.01,2.11,2.72,3.45.64,1.2.53,2.93,1.37,4.17,1.18,1.75,3.11,2.53,4.39,3.56,1.67,1.34,3.22,1.98,4.83,2.27,2,.35,4.04.77,5.55-.18,1.79-1.13,2.33-3.15,2.5-4.9s.11-3.82-.49-5.5c-.98-2.74-3.51-2.07-2.37-4.56,1.03-2.24,1.55-1.67,3.47-3.23s1.74-1.78,3.66-3.34,1.94-1.53,3.87-3.08"/>
    <path class="cls-1" d="M91.68,141.38c-2,1.31-1.72,1.11-3.98,2.66-1.2.83-2.21,2.28-3.56,3.26s-2.97,1.59-4.11,2.51c-1.79,1.45-3.41,2.85-3.62,3.53-.26.88.74,2.44,1.14,4.3.26,1.22-.29,2.89.29,4.38.48,1.23,2.01,2.11,2.72,3.45.64,1.2.53,2.93,1.37,4.17,1.18,1.75,3.11,2.53,4.39,3.56,1.67,1.34,3.22,1.98,4.83,2.27,2,.35,4.04.77,5.55-.18,1.79-1.13,2.33-3.15,2.5-4.9s.11-3.82-.49-5.5c-.98-2.74-3.51-2.07-2.37-4.56,1.03-2.24,1.55-1.67,3.47-3.23s1.74-1.78,3.66-3.34,1.94-1.53,3.87-3.08"/>
  </g>
  <g>
    <path class="cls-4" d="M123.35,144.7c.79,2.42.62,1.96,1.58,4.85.48,1.42,1.61,2.88,2.21,4.64.53,1.55.63,3.35,1.2,4.98s.98,3.33,1.55,4.87c.63,1.73,2.17,3.01,2.73,4.42.91,2.28.81,4.49,1.28,5.12.75,1,2.62.72,4.37.8,1.27.06,2.83.85,4.4.47,1.31-.32,2.43-1.64,3.82-2.25,1.28-.56,2.5-1.25,3.76-2.04s2.94-.95,3.95-1.84c1.14-1.01,1.8-2.41,2.58-3.48.93-1.26,1.96-2.43,2.34-3.65.47-1.52.54-3.25.07-4.47-.53-1.38-2.19-2.31-3.76-2.92-1.36-.53-2.99-.47-4.57-.39s-3.28.4-4.56,1.13c-1.89-2-1.15-2.56-2.45-4.99s-1.21-2.48-2.51-4.91"/>
    <path class="cls-1" d="M123.35,144.7c.79,2.42.62,1.96,1.58,4.85.48,1.42,1.61,2.88,2.21,4.64.53,1.55.63,3.35,1.2,4.98s.98,3.33,1.55,4.87c.63,1.73,2.17,3.01,2.73,4.42.91,2.28.81,4.49,1.28,5.12.75,1,2.62.72,4.37.8,1.27.06,2.83.85,4.4.47,1.31-.32,2.43-1.64,3.82-2.25,1.28-.56,2.5-1.25,3.76-2.04s2.94-.95,3.95-1.84c1.14-1.01,1.8-2.41,2.58-3.48.93-1.26,1.96-2.43,2.34-3.65.47-1.52.54-3.25.07-4.47-.53-1.38-2.19-2.31-3.76-2.92-1.36-.53-2.99-.47-4.57-.39s-3.28.4-4.56,1.13c-1.89-2-1.15-2.56-2.45-4.99s-1.21-2.48-2.51-4.91"/>
  </g>
  <g>
    <path class="cls-5" d="M137.51,46.27c.87-.88.96-.37,2.08-1.42.52-.49.96-1.24,1.66-1.86.57-.51,1.15-1.13,1.82-1.7.61-.51,1.27-1.02,1.93-1.56s1.32-.99,1.99-1.5,1.62-.58,2.3-1.06,1.14-1.27,1.84-1.71,1.37-1,2.08-1.39c.75-.41,1.54-.72,2.27-1.03.8-.35,1.65-.43,2.41-.62.87-.23,1.65-.19,2.41-.17.88.02,1.62.03,2.31.44s1.22,1.01,1.72,1.69,1.14,1.21,1.43,2.03c.27.74.35,1.59.49,2.45.13.79.25,1.61.28,2.47.03.81.16,1.65.13,2.5s-.55,1.61-.64,2.45.31,1.71.18,2.53-.92,1.53-1.07,2.34-.03,1.7-.21,2.5-.56,1.59-.76,2.37c-.22.84.37,1.86.15,2.63-.24.85-.9,1.54-1.13,2.27-.28.9-.25,1.79-.47,2.47-.49,1.47-.85,1.02-1.29,2.19"/>
    <path class="cls-1" d="M137.51,46.27c.87-.88.96-.37,2.08-1.42.52-.49.96-1.24,1.66-1.86.57-.51,1.15-1.13,1.82-1.7.61-.51,1.27-1.02,1.93-1.56s1.32-.99,1.99-1.5,1.62-.58,2.3-1.06,1.14-1.27,1.84-1.71,1.37-1,2.08-1.39c.75-.41,1.54-.72,2.27-1.03.8-.35,1.65-.43,2.41-.62.87-.23,1.65-.19,2.41-.17.88.02,1.62.03,2.31.44s1.22,1.01,1.72,1.69,1.14,1.21,1.43,2.03c.27.74.35,1.59.49,2.45.13.79.25,1.61.28,2.47.03.81.16,1.65.13,2.5s-.55,1.61-.64,2.45.31,1.71.18,2.53-.92,1.53-1.07,2.34-.03,1.7-.21,2.5-.56,1.59-.76,2.37c-.22.84.37,1.86.15,2.63-.24.85-.9,1.54-1.13,2.27-.28.9-.25,1.79-.47,2.47-.49,1.47-.85,1.02-1.29,2.19"/>
  </g>
  <g>
    <path class="cls-5" d="M132.92,41.26c.86.14,1.64.73,2.48.93s1.77.14,2.59.4,1.74.35,2.55.67,1.56.83,2.34,1.2,1.61.7,2.37,1.12,1.61.74,2.34,1.2,1.15,1.41,1.85,1.92,1.32,1.12,1.98,1.68,1.26,1.17,1.89,1.77,1.11,1.32,1.7,1.95,1.25,1.18,1.8,1.86,1.16,1.28,1.67,1.99.57,1.68,1.02,2.42,1.41,1.17,1.82,1.93,1.2,1.36,1.56,2.15.79,1.59,1.1,2.4.26,1.77.51,2.6.58,1.66.77,2.51-.25,1.81-.12,2.67-.09,1.72-.02,2.59.27,1.68.27,2.55c0,.13.67.26.67.4,0,.89.04,1.76.02,2.61s-.79,1.74-.81,2.6.85,1.77.82,2.63-1.03,1.72-1.05,2.58.07,1.75.06,2.61.97,1.75.97,2.61-.55,1.74-.53,2.61-.29,1.76-.24,2.63.99,1.65,1.08,2.52-.02,1.73.11,2.59-.18,1.78-.01,2.65,1.09,1.51,1.31,2.37-.09,1.8.16,2.65.27,1.73.57,2.56.78,1.49,1.05,2.23c.29.8.69,1.52.97,2.26.3.8-.02,1.79.25,2.53.3.8,1.47,1.24,1.73,1.98.29.81.78,1.53,1.01,2.27.26.83.01,1.77.19,2.52.2.84.61,1.63.68,2.4.08.85-.34,1.68-.44,2.47s.27,1.82-.05,2.59c-.3.71-.87,1.45-1.37,2.16-.44.62-1.11,1.2-1.72,1.83-.68.7-1.43,1.27-2.1,1.74-.79.55-1.69.83-2.46,1.14-.87.35-1.78.33-2.63.45-.91.13-1.77-.04-2.64-.05s-1.78-.2-2.64-.26c-.92-.07-1.84.74-2.7.76-.92.02-1.76-.14-2.59.16-.77.28-1.82.08-2.61.49-.73.38-.95,1.75-1.71,2.19s-1.48.84-2.24,1.27-1.52.85-2.31,1.21-1.89-.08-2.71.2-1.65.18-2.5.34-1.57.49-2.45.5-1.66.28-2.38.15c-.84-.16-1.72-.12-2.41-.42-.77-.33-1.6-.6-2.25-1.01-.7-.44-.83-1.71-1.48-2.13-.69-.45-1.42-.98-2.14-1.27s-1.69-.15-2.54-.15c-.8,0-1.78-.03-2.74.2-.81.2-1.56.89-2.46,1.18-.82.26-1.53.99-2.4,1.27s-1.7.61-2.57.85-1.86.04-2.74.21-1.81.07-2.7.11-1.71-.51-2.59-.65-1.74-.02-2.59-.27-1.55-.81-2.37-1.14-1.64-.62-2.43-.99-1.94-.04-2.72-.4c-.83-.38-1.29-1.57-2.08-1.88-.86-.34-2.04.48-2.84.29-.91-.21-1.69-1.31-2.53-1.23-.7.07-1.57.49-2.6.61-.8.09-1.71-.02-2.65.07-.84.08-1.67.94-2.58,1s-1.79-.7-2.68-.68-1.75-.02-2.63-.05-1.75-.13-2.61-.24c-.91-.11-1.93.51-2.75.3-.9-.23-1.75-.68-2.5-1.06-.83-.42-1.61-.98-2.19-1.61s-.92-1.47-1.41-2.21-.41-1.69-.77-2.48-1.68-1.23-1.91-2.07-.07-1.81-.15-2.67.07-1.75.13-2.62.81-1.56,1.04-2.41.02-1.75.39-2.56c.35-.76.36-1.78.87-2.52.47-.69,1.32-1.16,1.93-1.83.56-.61.84-1.45,1.34-2.16s.96-1.34,1.4-2.09,1.47-1.12,1.85-1.89.41-1.69.75-2.48.88-1.48,1.17-2.28.21-1.73.48-2.54.32-1.68.56-2.49.83-1.55,1.04-2.36-.18-1.82.02-2.62c.21-.86.96-1.55,1.14-2.35.19-.87.6-1.66.77-2.44.19-.91.2-1.77.36-2.52s.61-1.49.75-2.41c.11-.76-.39-1.68-.28-2.56.1-.78.32-1.6.44-2.46.11-.79.08-1.65.22-2.5.13-.8.38-1.6.54-2.44s.03-1.68.22-2.51.67-1.55.89-2.37.53-1.57.78-2.38.95-1.42,1.23-2.21-.34-1.92,0-2.69,1.06-1.36,1.43-2.11,1.31-1.17,1.73-1.9.72-1.47,1.18-2.18.98-1.31,1.48-1.99.81-1.45,1.35-2.09.5-1.77,1.08-2.38c.84-.94,1.32-.01,2.46-1.13.51-.49.98-1.19,1.71-1.82.58-.5.7-1.68,1.41-2.24.62-.49,1.46-.8,2.18-1.32.65-.47,1.58-.6,2.32-1.07.68-.44,1.25-1.12,2-1.55.71-.41,1.49-.74,2.25-1.13s1.48-.76,2.26-1.1,1.58-.54,2.38-.84,1.54-.62,2.35-.89,1.56-.6,2.39-.82,1.67-.16,2.51-.34,1.57-.74,2.41-.86,1.66-.36,2.5-.44,1.7.18,2.55.15,1.68-.14,2.53-.12,1.7-.23,2.55-.17c.97.07,1.92.41,2.84.52.97.11,1.93.21,2.85.36Z"/>
    <path class="cls-1" d="M132.92,41.26c.86.14,1.64.73,2.48.93s1.77.14,2.59.4,1.74.35,2.55.67,1.56.83,2.34,1.2,1.61.7,2.37,1.12,1.61.74,2.34,1.2,1.15,1.41,1.85,1.92,1.32,1.12,1.98,1.68,1.26,1.17,1.89,1.77,1.11,1.32,1.7,1.95,1.25,1.18,1.8,1.86,1.16,1.28,1.67,1.99.57,1.68,1.02,2.42,1.41,1.17,1.82,1.93,1.2,1.36,1.56,2.15.79,1.59,1.1,2.4.26,1.77.51,2.6.58,1.66.77,2.51-.25,1.81-.12,2.67-.09,1.72-.02,2.59.27,1.68.27,2.55c0,.13.67.26.67.4,0,.89.04,1.76.02,2.61s-.79,1.74-.81,2.6.85,1.77.82,2.63-1.03,1.72-1.05,2.58.07,1.75.06,2.61.97,1.75.97,2.61-.55,1.74-.53,2.61-.29,1.76-.24,2.63.99,1.65,1.08,2.52-.02,1.73.11,2.59-.18,1.78-.01,2.65,1.09,1.51,1.31,2.37-.09,1.8.16,2.65.27,1.73.57,2.56.78,1.49,1.05,2.23c.29.8.69,1.52.97,2.26.3.8-.02,1.79.25,2.53.3.8,1.47,1.24,1.73,1.98.29.81.78,1.53,1.01,2.27.26.83.01,1.77.19,2.52.2.84.61,1.63.68,2.4.08.85-.34,1.68-.44,2.47s.27,1.82-.05,2.59c-.3.71-.87,1.45-1.37,2.16-.44.62-1.11,1.2-1.72,1.83-.68.7-1.43,1.27-2.1,1.74-.79.55-1.69.83-2.46,1.14-.87.35-1.78.33-2.63.45-.91.13-1.77-.04-2.64-.05s-1.78-.2-2.64-.26c-.92-.07-1.84.74-2.7.76-.92.02-1.76-.14-2.59.16-.77.28-1.82.08-2.61.49-.73.38-.95,1.75-1.71,2.19s-1.48.84-2.24,1.27-1.52.85-2.31,1.21-1.89-.08-2.71.2-1.65.18-2.5.34-1.57.49-2.45.5-1.66.28-2.38.15c-.84-.16-1.72-.12-2.41-.42-.77-.33-1.6-.6-2.25-1.01-.7-.44-.83-1.71-1.48-2.13-.69-.45-1.42-.98-2.14-1.27s-1.69-.15-2.54-.15c-.8,0-1.78-.03-2.74.2-.81.2-1.56.89-2.46,1.18-.82.26-1.53.99-2.4,1.27s-1.7.61-2.57.85-1.86.04-2.74.21-1.81.07-2.7.11-1.71-.51-2.59-.65-1.74-.02-2.59-.27-1.55-.81-2.37-1.14-1.64-.62-2.43-.99-1.94-.04-2.72-.4c-.83-.38-1.29-1.57-2.08-1.88-.86-.34-2.04.48-2.84.29-.91-.21-1.69-1.31-2.53-1.23-.7.07-1.57.49-2.6.61-.8.09-1.71-.02-2.65.07-.84.08-1.67.94-2.58,1s-1.79-.7-2.68-.68-1.75-.02-2.63-.05-1.75-.13-2.61-.24c-.91-.11-1.93.51-2.75.3-.9-.23-1.75-.68-2.5-1.06-.83-.42-1.61-.98-2.19-1.61s-.92-1.47-1.41-2.21-.41-1.69-.77-2.48-1.68-1.23-1.91-2.07-.07-1.81-.15-2.67.07-1.75.13-2.62.81-1.56,1.04-2.41.02-1.75.39-2.56c.35-.76.36-1.78.87-2.52.47-.69,1.32-1.16,1.93-1.83.56-.61.84-1.45,1.34-2.16s.96-1.34,1.4-2.09,1.47-1.12,1.85-1.89.41-1.69.75-2.48.88-1.48,1.17-2.28.21-1.73.48-2.54.32-1.68.56-2.49.83-1.55,1.04-2.36-.18-1.82.02-2.62c.21-.86.96-1.55,1.14-2.35.19-.87.6-1.66.77-2.44.19-.91.2-1.77.36-2.52s.61-1.49.75-2.41c.11-.76-.39-1.68-.28-2.56.1-.78.32-1.6.44-2.46.11-.79.08-1.65.22-2.5.13-.8.38-1.6.54-2.44s.03-1.68.22-2.51.67-1.55.89-2.37.53-1.57.78-2.38.95-1.42,1.23-2.21-.34-1.92,0-2.69,1.06-1.36,1.43-2.11,1.31-1.17,1.73-1.9.72-1.47,1.18-2.18.98-1.31,1.48-1.99.81-1.45,1.35-2.09.5-1.77,1.08-2.38c.84-.94,1.32-.01,2.46-1.13.51-.49.98-1.19,1.71-1.82.58-.5.7-1.68,1.41-2.24.62-.49,1.46-.8,2.18-1.32.65-.47,1.58-.6,2.32-1.07.68-.44,1.25-1.12,2-1.55.71-.41,1.49-.74,2.25-1.13s1.48-.76,2.26-1.1,1.58-.54,2.38-.84,1.54-.62,2.35-.89,1.56-.6,2.39-.82,1.67-.16,2.51-.34,1.57-.74,2.41-.86,1.66-.36,2.5-.44,1.7.18,2.55.15,1.68-.14,2.53-.12,1.7-.23,2.55-.17c.97.07,1.92.41,2.84.52.97.11,1.93.21,2.85.36Z"/>
  </g>
  <g>
    <path class="cls-5" d="M90.34,57.14c.07-1.28.36-.92.53-2.51.08-.73.02-1.59.15-2.54.11-.78.18-1.63.33-2.53.13-.81.21-1.66.38-2.53.16-.81.01-1.72.21-2.57s.14-1.73.37-2.56.39-1.68.66-2.5.71-1.58,1.02-2.38.36-1.75.72-2.52,1.19-1.36,1.62-2.08.67-1.67,1.18-2.34,1.12-1.42,1.72-2,1.35-1.23,2.06-1.68,1.69-.63,2.5-.9,1.75-.37,2.57-.26,1.42.9,2.2,1.28c.71.35,1.2.98,1.89,1.5.64.49,1.91.29,2.52.89s.67,1.65,1.21,2.29.81,1.46,1.3,2.12,1.58.94,2.03,1.62c.49.73.43,1.76.83,2.43.48.79,1.03,1.44,1.38,2.07.74,1.33,1.39.69,1.93,1.81"/>
    <path class="cls-1" d="M90.34,57.14c.07-1.28.36-.92.53-2.51.08-.73.02-1.59.15-2.54.11-.78.18-1.63.33-2.53.13-.81.21-1.66.38-2.53.16-.81.01-1.72.21-2.57s.14-1.73.37-2.56.39-1.68.66-2.5.71-1.58,1.02-2.38.36-1.75.72-2.52,1.19-1.36,1.62-2.08.67-1.67,1.18-2.34,1.12-1.42,1.72-2,1.35-1.23,2.06-1.68,1.69-.63,2.5-.9,1.75-.37,2.57-.26,1.42.9,2.2,1.28c.71.35,1.2.98,1.89,1.5.64.49,1.91.29,2.52.89s.67,1.65,1.21,2.29.81,1.46,1.3,2.12,1.58.94,2.03,1.62c.49.73.43,1.76.83,2.43.48.79,1.03,1.44,1.38,2.07.74,1.33,1.39.69,1.93,1.81"/>
  </g>
  <g>
    <path class="cls-4" d="M103.07,67.01c-1.53,2.12-1.98,3.99-1.83,6.08.16,2.32.21,4.85,1.43,6.66,1.59,2.35,4.22,3.39,5.55,3.88s3.95,1.62,6.89,1.66c2.3.03,4.4-.73,6.44-2.32,1.59-1.24,2.84-2.85,3.69-5.71.6-2.03.29-4.01-.86-6.15-.99-1.85-2.42-3.49-4.23-4.93s-3.51-2.9-5.61-3.51-4.57-.81-6.69-.13c-1.93.62-3.27,2.38-4.77,4.46Z"/>
    <path class="cls-1" d="M103.07,67.01c-1.53,2.12-1.98,3.99-1.83,6.08.16,2.32.21,4.85,1.43,6.66,1.59,2.35,4.22,3.39,5.55,3.88s3.95,1.62,6.89,1.66c2.3.03,4.4-.73,6.44-2.32,1.59-1.24,2.84-2.85,3.69-5.71.6-2.03.29-4.01-.86-6.15-.99-1.85-2.42-3.49-4.23-4.93s-3.51-2.9-5.61-3.51-4.57-.81-6.69-.13c-1.93.62-3.27,2.38-4.77,4.46Z"/>
  </g>
  <g>
    <path class="cls-4" d="M130.55,78.01c-.32,2.2-.49,4.94,1.14,6.94,1.36,1.67,3.88,2.33,6.52,2.91,2.01.44,4.21.39,6.93-.24,2.91-.68,5.52-1.23,7.08-2.82,1.92-1.96,2.58-4.72,2.85-7.12.31-2.75,0-5.67-1.26-7.55-1.59-2.37-4.11-4.03-6.57-4.61s-5.48.09-7.85,1.2-4.38,2.67-6.05,4.53c-1.57,1.74-2.39,3.86-2.81,6.77Z"/>
    <path class="cls-1" d="M130.55,78.01c-.32,2.2-.49,4.94,1.14,6.94,1.36,1.67,3.88,2.33,6.52,2.91,2.01.44,4.21.39,6.93-.24,2.91-.68,5.52-1.23,7.08-2.82,1.92-1.96,2.58-4.72,2.85-7.12.31-2.75,0-5.67-1.26-7.55-1.59-2.37-4.11-4.03-6.57-4.61s-5.48.09-7.85,1.2-4.38,2.67-6.05,4.53c-1.57,1.74-2.39,3.86-2.81,6.77Z"/>
  </g>
  <circle class="cls-3" cx="118.8" cy="76.1" r="3.85"/>
  <circle class="cls-3" cx="137.84" cy="78.2" r="3.85"/>
  <g>
    <path class="cls-1" d="M65.48,68.98c1.23.06.95.03,2.46.2.7.08,1.59-.2,2.51-.07.75.11,1.58.33,2.43.49.77.15,1.46.95,2.28,1.15.78.18,1.62.22,2.43.45s1.5.67,2.29.94,1.79-.04,2.55.28,1.57.65,2.29,1.03.93,1.67,1.6,2.13,1.6.6,2.19,1.14"/>
    <path class="cls-1" d="M63.42,83.6c1.21-.26.93-.17,2.47-.39.7-.1,1.63.64,2.56.55.76-.08,1.51-1.08,2.4-1.13.79-.05,1.64.16,2.5.15.8-.01,1.62.75,2.47.78.81.02,1.66-.63,2.51-.56s1.67-.01,2.5.1,1.49,1.06,2.31,1.22,1.59.32,2.39.53,1.6.32,2.38.59"/>
  </g>
  <g>
    <path class="cls-1" d="M159.08,83.08c1.07-.59,1-.02,2.38-.69.63-.3,1.04-1.36,1.89-1.74.69-.31,1.77.13,2.57-.21.72-.3,1.47-.6,2.26-.9.74-.28,1.4-.83,2.2-1.11s1.52-.55,2.31-.8,1.48-.72,2.28-.94,1.53-.63,2.34-.82,1.74.37,2.55.23,1.54-.72,2.35-.81"/>
    <path class="cls-1" d="M159.25,91.47c1.28-.26,1.04.26,2.64,0,.74-.12,1.5-1.02,2.47-1.15.8-.11,1.77.61,2.69.52.83-.09,1.69-.16,2.59-.23.85-.07,1.69-.4,2.58-.44s1.73-.1,2.61-.11,1.75-.26,2.62-.24,1.77-.15,2.64-.07,1.66.9,2.51,1.03"/>
  </g>
  <path class="cls-2" d="M105.27,107.64c1.69.37,1.23,1.08,3.12,1.76.98.35,2.25.43,3.35.99,1.02.52,2.09,1.14,2.97,1.86.93.76,1.27,1.96,1.79,2.95.6,1.12,1.36,1.92,1.59,2.79.35,1.29-.14,2.2-.41,3.05-.33,1.05-.54,2.06-1.44,2.72-1.11.82-2.46-.05-3.77-1.04-1.19-.9-2.23-2.46-3.24-2.82-2.13-.77-2.78-.26-5.44-.08"/>
  <path class="cls-2" d="M147.87,108.52c1.73.45,1.28.29,3.12,1.34.9.52,2.24.66,3.23,1.54.83.74,1.99,1.39,2.73,2.43.82,1.16,1.35,2.37,1.76,3.35.57,1.38-.03,2.64-.17,3.67-.18,1.28-.23,2.58-1.33,3.29-1.37.88-2.59-.32-3.75-1.45-1.06-1.04-2.13-2.45-3.25-2.88-.9-.34-2.1-.47-3.14-.59"/>
  <g>
    <path class="cls-5" d="M27.53,120.46c1.19.22,2.23.99,2.94,1.67.79.76,1.37,1.85,1.19,2.79-.33,1.78-2.83,2.46-5.34,1.99s-4.61-2.01-4.28-3.79c.24-1.28,1.78-2,3.4-2.23.64-.09,1.38-.55,2.09-.42Z"/>
    <path class="cls-1" d="M27.53,120.46c1.19.22,2.23.99,2.94,1.67.79.76,1.37,1.85,1.19,2.79-.33,1.78-2.83,2.46-5.34,1.99s-4.61-2.01-4.28-3.79c.24-1.28,1.78-2,3.4-2.23.64-.09,1.38-.55,2.09-.42Z"/>
  </g>
  <path d="M124.64,147.51l2.72,7.96s9.52-2.3,11.22-3.93c0,0-4.15,1.83-7.96-2.12-1.57-1.63-5.98-1.9-5.98-1.9Z"/>
  <path d="M86.63,144.7l-3.68,2.91s12.68,5.61,19.89,6.57l3.76-3.37s-1.95.68-7.35-1.96-7.75-3.63-9.44-4.14-2.47-.53-2.47-.53l-.71.52Z"/>
  <path class="cls-1" d="M13.11,108.61c-.02.22-.65.49-.56.69.13.3.55.59.85.72,1.56.65,3.36.06,5.03-.21.98-.16,2.23.16,3-.46s1.37-2.05,1.04-2.98c-.23-.65-1.07-1.04-1.42-1.64-.98-1.68-3.07-2.55-4.81-1.41-1.87,1.23-2.9,3.11-3.13,5.29Z"/>
  <path class="cls-1" d="M6.04,118.56c-.69-.07-1.47.66-2.16.59-.12-.01-.32-.37-.41-.28-.07.07.03.28.02.38-.05.61.24,1.02.6,1.51.43.58.89,1.14,1.62,1.17.19,0,.51,0,.68-.09.31-.17-.07-.8-.03-1.16.05-.45.72-1.03.51-1.44s-1.25-.78-1.61-.5"/>
</svg>