<?xml version="1.0" encoding="UTF-8"?>
<svg id="_레이어_1" data-name="레이어 1" xmlns="http://www.w3.org/2000/svg" viewBox="0 0 200 200">
  <defs>
    <style>
      .cls-1 {
        stroke-width: 2.4px;
      }

      .cls-1, .cls-2 {
        fill: none;
        stroke-linecap: round;
        stroke-linejoin: round;
      }

      .cls-1, .cls-2, .cls-3 {
        stroke: #000;
      }

      .cls-2 {
        stroke-width: 2.4px;
      }

      .cls-4 {
        fill: #ffaf42;
      }

      .cls-3 {
        stroke-miterlimit: 10;
        stroke-width: 1.2px;
      }

      .cls-5 {
        fill: #fff;
      }
    </style>
  </defs>
  <g>
    <path class="cls-4" d="M104.2,135.25c-1.13,1.56-.43,1.65-2.01,3.3-.79.82-1.81,1.67-2.88,2.56-.95.79-2.15,1.32-3.28,1.99s-2.27,1.02-3.49,1.42c-1.11.37-2.12.68-3.14.89-1.17.24-2.25.36-3.25.5-1.24.17-2.17,1.2-3.1,1.43-1.27.31-1.93.54-2.45,1.44-.42.73-1.14,1.73-1.64,3.17-.36,1.03-.5,2.24-.81,3.52-.27,1.12-.77,2.25-.94,3.49-.16,1.18-.74,2.37-.77,3.6s.83,2.38.98,3.58c.17,1.31-.36,2.67,0,3.7.45,1.24,1.36,2.19,2.1,3.02.82.91,1.92,1.35,3.08,1.75,1.05.36,2.18.85,3.5.79s2.35-.92,3.35-1.5c1.09-.64,2.12-1.23,2.84-2.25s1.46-2.08,1.88-3.23c.45-1.25,1.02-2.48,1.22-3.59.39-2.11-1.09-2.25-.1-3.83.89-1.43,1.4.03,3.39-.76.89-.35,1.96-.77,3.13-1.3.94-.43,1.96-.95,3.04-1.5.95-.48,1.9-1.13,2.93-1.71.94-.53,1.82-1.28,2.81-1.9.93-.58,1.99-1.03,2.94-1.68.91-.62,1.5-1.73,2.42-2.42"/>
    <path class="cls-2" d="M104.2,135.25c-1.13,1.56-.43,1.65-2.01,3.3-.79.82-1.81,1.67-2.88,2.56-.95.79-2.15,1.32-3.28,1.99s-2.27,1.02-3.49,1.42c-1.11.37-2.12.68-3.14.89-1.17.24-2.25.36-3.25.5-1.24.17-2.17,1.2-3.1,1.43-1.27.31-1.93.54-2.45,1.44-.42.73-1.14,1.73-1.64,3.17-.36,1.03-.5,2.24-.81,3.52-.27,1.12-.77,2.25-.94,3.49-.16,1.18-.74,2.37-.77,3.6s.83,2.38.98,3.58c.17,1.31-.36,2.67,0,3.7.45,1.24,1.36,2.19,2.1,3.02.82.91,1.92,1.35,3.08,1.75,1.05.36,2.18.85,3.5.79s2.35-.92,3.35-1.5c1.09-.64,2.12-1.23,2.84-2.25s1.46-2.08,1.88-3.23c.45-1.25,1.02-2.48,1.22-3.59.39-2.11-1.09-2.25-.1-3.83.89-1.43,1.4.03,3.39-.76.89-.35,1.96-.77,3.13-1.3.94-.43,1.96-.95,3.04-1.5.95-.48,1.9-1.13,2.93-1.71.94-.53,1.82-1.28,2.81-1.9.93-.58,1.99-1.03,2.94-1.68.91-.62,1.5-1.73,2.42-2.42"/>
  </g>
  <g>
    <path class="cls-4" d="M121.29,149.98c2.03,1.05,1.69,1.17,3.87,2.43,1.28.74,2.96,1.13,4.17,1.96,1.82,1.23,2.81,2.5,2.81,3.21s-.32,2.49-.64,4.61c-.23,1.51-.45,3.18-.64,4.68-.27,2.15-.25,4.14.02,4.81.38.94,1.96,2.08,4.56,2.95,1.4.47,3.15,1.05,5.3,1.23,1.59.14,3.4-.38,5.43-.48s3.92.32,5.44.14c2.29-.27,4.02-.76,5.28-1.34,1.86-.86,2.18-2.36,2.57-4.34.32-1.61.01-3.07-.98-4.73-.84-1.41-1.9-2.68-3.46-3.7-1.4-.92-2.81-1.9-4.64-2.21-.73-2.8.93-2.74,1.16-5.62.17-2.07-.12-4.12-1.47-5.33-.9-.8-2.24-1.58-3.5-2.57-1.16-.91-2.2-2.05-3.29-2.86-1.96-1.47-1.44-1.72-3.2-2.99"/>
    <path class="cls-2" d="M121.29,149.98c2.03,1.05,1.69,1.17,3.87,2.43,1.28.74,2.96,1.13,4.17,1.96,1.82,1.23,2.81,2.5,2.81,3.21s-.32,2.49-.64,4.61c-.23,1.51-.45,3.18-.64,4.68-.27,2.15-.25,4.14.02,4.81.38.94,1.96,2.08,4.56,2.95,1.4.47,3.15,1.05,5.3,1.23,1.59.14,3.4-.38,5.43-.48s3.92.32,5.44.14c2.29-.27,4.02-.76,5.28-1.34,1.86-.86,2.18-2.36,2.57-4.34.32-1.61.01-3.07-.98-4.73-.84-1.41-1.9-2.68-3.46-3.7-1.4-.92-2.81-1.9-4.64-2.21-.73-2.8.93-2.74,1.16-5.62.17-2.07-.12-4.12-1.47-5.33-.9-.8-2.24-1.58-3.5-2.57-1.16-.91-2.2-2.05-3.29-2.86-1.96-1.47-1.44-1.72-3.2-2.99"/>
  </g>
  <g>
    <path class="cls-4" d="M99.77,105.44c-.74.45-1.48.8-2.22,1.18s-1.47.82-2.24,1.14-1.37,1.23-2.16,1.48-1.83-.24-2.64-.05-1.56.84-2.39.95-1.7.14-2.54.18-1.72.51-2.56.47-1.64-.83-2.48-.94-1.62-.45-2.44-.62-1.79.21-2.6-.03-1.55-.73-2.34-1.03-1.37-1.06-2.14-1.41-1.63-.48-2.37-.89-1.48-.81-2.19-1.26-1.34-1.02-2.02-1.52-1.56-.77-2.2-1.3-.99-1.43-1.59-2.01-1.46-.95-2.02-1.56c-.58-.64-.89-1.47-1.4-2.12-.55-.7-1.43-1.12-2.04-1.69-.65-.61-1.53-.86-2.22-1.33-.75-.51-1.3-1.26-2.06-1.59-.84-.37-1.66-.8-2.45-.95-.93-.17-1.9-.28-2.67-.14-.93.16-1.79.72-2.35,1.33s-.69,1.47-1.03,2.17-.4,1.45-.54,2.24-1.11,1.52-1.06,2.35c.05.76.87,1.47,1.09,2.27.2.73-.09,1.71.25,2.47.31.69.73,1.44,1.16,2.15.4.65,1.22,1.09,1.71,1.75.46.61.7,1.46,1.25,2.08.51.58.98,1.37,1.64,2.03.57.57,1.66.7,2.33,1.31.61.55.97,1.46,1.67,2.03.64.53,1.4.98,2.11,1.51.67.5,1.62.66,2.35,1.15s1.21,1.28,1.97,1.73,1.86.14,2.64.54,1.35,1.09,2.14,1.45,1.6.57,2.42.88,1.61.51,2.45.77,1.43,1.26,2.28,1.46,1.83-.35,2.69-.19,1.61.85,2.47.94,1.72.16,2.6.2,1.72-.68,2.59-.69,1.73.7,2.61.64,1.7-.31,2.57-.42,1.57-.95,2.43-1.11,1.68-.17,2.54-.37"/>
    <path class="cls-1" d="M99.77,105.44c-.74.45-1.48.8-2.22,1.18s-1.47.82-2.24,1.14-1.37,1.23-2.16,1.48-1.83-.24-2.64-.05-1.56.84-2.39.95-1.7.14-2.54.18-1.72.51-2.56.47-1.64-.83-2.48-.94-1.62-.45-2.44-.62-1.79.21-2.6-.03-1.55-.73-2.34-1.03-1.37-1.06-2.14-1.41-1.63-.48-2.37-.89-1.48-.81-2.19-1.26-1.34-1.02-2.02-1.52-1.56-.77-2.2-1.3-.99-1.43-1.59-2.01-1.46-.95-2.02-1.56c-.58-.64-.89-1.47-1.4-2.12-.55-.7-1.43-1.12-2.04-1.69-.65-.61-1.53-.86-2.22-1.33-.75-.51-1.3-1.26-2.06-1.59-.84-.37-1.66-.8-2.45-.95-.93-.17-1.9-.28-2.67-.14-.93.16-1.79.72-2.35,1.33s-.69,1.47-1.03,2.17-.4,1.45-.54,2.24-1.11,1.52-1.06,2.35c.05.76.87,1.47,1.09,2.27.2.73-.09,1.71.25,2.47.31.69.73,1.44,1.16,2.15.4.65,1.22,1.09,1.71,1.75.46.61.7,1.46,1.25,2.08.51.58.98,1.37,1.64,2.03.57.57,1.66.7,2.33,1.31.61.55.97,1.46,1.67,2.03.64.53,1.4.98,2.11,1.51.67.5,1.62.66,2.35,1.15s1.21,1.28,1.97,1.73,1.86.14,2.64.54,1.35,1.09,2.14,1.45,1.6.57,2.42.88,1.61.51,2.45.77,1.43,1.26,2.28,1.46,1.83-.35,2.69-.19,1.61.85,2.47.94,1.72.16,2.6.2,1.72-.68,2.59-.69,1.73.7,2.61.64,1.7-.31,2.57-.42,1.57-.95,2.43-1.11,1.68-.17,2.54-.37"/>
  </g>
  <g>
    <path class="cls-5" d="M133.67,54.48c.87-1.08.19-1.22,1.32-2.5.52-.6,1.22-1.23,1.93-1.99.58-.63,1.43-1.11,2.11-1.81.62-.64,1.4-1.16,2.08-1.82s1.27-1.31,1.96-1.94,1.39-1.2,2.1-1.79.9-1.89,1.63-2.43c.77-.57,1.58-1.09,2.34-1.56.83-.51,1.81-.75,2.61-1.09.92-.4,1.83-.89,2.67-1.01.99-.14,2.02.23,2.83.58s1.29,1.28,1.95,2c.6.65,1.78.98,2.24,1.86.41.79,0,1.98.32,2.92.29.86.83,1.66,1.04,2.6.2.89.62,1.78.76,2.72s-.1,1.89,0,2.84.68,1.84.73,2.77-.25,1.9-.23,2.83-.21,1.9-.22,2.81c-.01.97-.3,1.9-.34,2.8-.04,1,.45,1.96.39,2.83-.07,1.05-.6,1.96-.67,2.76-.15,1.74-.14,1.38-.32,2.77"/>
    <path class="cls-1" d="M133.67,54.48c.87-1.08.19-1.22,1.32-2.5.52-.6,1.22-1.23,1.93-1.99.58-.63,1.43-1.11,2.11-1.81.62-.64,1.4-1.16,2.08-1.82s1.27-1.31,1.96-1.94,1.39-1.2,2.1-1.79.9-1.89,1.63-2.43c.77-.57,1.58-1.09,2.34-1.56.83-.51,1.81-.75,2.61-1.09.92-.4,1.83-.89,2.67-1.01.99-.14,2.02.23,2.83.58s1.29,1.28,1.95,2c.6.65,1.78.98,2.24,1.86.41.79,0,1.98.32,2.92.29.86.83,1.66,1.04,2.6.2.89.62,1.78.76,2.72s-.1,1.89,0,2.84.68,1.84.73,2.77-.25,1.9-.23,2.83-.21,1.9-.22,2.81c-.01.97-.3,1.9-.34,2.8-.04,1,.45,1.96.39,2.83-.07,1.05-.6,1.96-.67,2.76-.15,1.74-.14,1.38-.32,2.77"/>
  </g>
  <g>
    <path class="cls-5" d="M136.02,46.42c.93.14,1.79.74,2.69.95s1.91.16,2.8.44,1.88.4,2.75.75,1.69.9,2.53,1.31,1.73.79,2.54,1.26,1.72.85,2.49,1.38,1.22,1.53,1.96,2.12,1.38,1.27,2.07,1.91,1.3,1.34,1.94,2.02,1.12,1.49,1.71,2.22,1.25,1.38,1.78,2.16,1.13,1.49,1.61,2.3.48,1.85.89,2.69,1.35,1.43,1.7,2.3,1.1,1.62,1.39,2.51.65,1.81.87,2.72.07,1.93.23,2.86.38,1.86.47,2.8-.47,1.9-.46,2.85c0,.13-.32.27-.32.4.01.98.16,1.94.13,2.9s.6,1.98.54,2.94-.08,1.95-.16,2.92-.92,1.88-1,2.84.72,2.01.64,2.98-1.14,1.87-1.2,2.83,0,1.96-.04,2.93.93,1.95.94,2.92-.53,1.94-.47,2.91-.21,1.97-.09,2.94,1.13,1.76,1.32,2.73.19,1.9.46,2.85.11,1.98.45,2.91,1.39,1.59,1.73,2.48c.36.94.2,2.05.55,2.93.37.94.49,1.94.83,2.82.37.95.93,1.77,1.25,2.66.35.96.78,1.84,1.06,2.74.3.98-.08,2.06.11,2.97.21,1,1.27,1.84,1.3,2.77.04,1.01.18,2.11-.03,3.05s-1.05,1.75-1.55,2.63c-.45.79-.85,1.77-1.58,2.53-.69.72-1.66,1.07-2.34,1.63-.77.64-1.22,1.71-1.97,2.14-.86.5-1.87.79-2.71,1.06-.93.29-1.96.34-2.86.4s-1.93-.07-2.85-.22-1.79-.59-2.68-.92-1.61-.92-2.46-1.35-1.44-1.06-2.21-1.59-1.4-1.15-2.15-1.7-1.97-.35-2.76-.84-1.41-1.14-2.27-1.5-1.54-1.24-2.48-1.42c-.85-.16-1.84.83-2.82.85-.9.02-1.65.13-2.52.35s-1.62.5-2.45.85-1.97-.03-2.76.39-1.75.6-2.51,1.04c-.8.46-1.45,1.13-2.2,1.54-.83.46-1.48,1.17-2.25,1.47-.91.36-1.78.89-2.6.9-.88,0-1.66.33-2.6.6-.85.24-2.03-.35-2.93-.01-.84.32-1.73.57-2.63.88s-1.61.91-2.53,1.13-1.78.16-2.73.22c-.9.05-1.81.47-2.77.32-.89-.13-2.01.02-3-.36-.87-.33-1.84-.7-2.76-1.16-.85-.43-1.54-1.28-2.41-1.77s-1.6-1.16-2.45-1.65-1.46-1.45-2.3-1.92c-.89-.5-1.93-.7-2.76-1.12-.95-.48-1.79-1.16-2.63-1.45-1.08-.38-2.26-.53-3.08-.44s-1.65,1.14-2.76,1.55c-.88.32-2.16-.13-3.16.28-.91.38-1.44,1.84-2.4,2.2s-2.26-.27-3.22.01c-1.01.3-1.9.83-2.86.94-1.07.13-2-.08-2.93-.3-.99-.23-2.28-.06-3.01-.84-.65-.69-.63-1.96-1.17-2.8s-.92-1.63-1.3-2.54-.61-1.76-.82-2.72-1.11-1.81-1.13-2.8.2-1.98.37-2.96.45-1.91.82-2.85c.35-.87,1.02-1.65,1.56-2.5.5-.79,1.47-1.21,2.16-1.97.61-.67.32-2.08.86-2.86s1.27-1.33,1.73-2.15,1.01-1.54,1.4-2.39,1.33-1.46,1.67-2.32.19-1.92.49-2.8.11-1.91.37-2.8.87-1.69,1.11-2.58.15-1.89.36-2.77c.22-.93.45-1.83.64-2.7.2-.96,1.1-1.72,1.27-2.58.2-.99.02-1.98.18-2.79s.54-1.72.67-2.79c.11-.87-.17-1.87-.04-2.88.11-.89.02-1.87.16-2.86.12-.91.63-1.8.79-2.77.15-.91-.29-1.97-.09-2.93s.96-1.73,1.2-2.67.7-1.76.98-2.69.41-1.85.74-2.75.97-1.64,1.35-2.52.21-1.98.65-2.84.98-1.63,1.47-2.46.88-1.7,1.43-2.49,1.21-1.48,1.82-2.23,1.01-1.66,1.68-2.36c.99-1.04.96-.56,2.33-1.76.61-.53,1.41-1.08,2.27-1.76.69-.55,1.72-.76,2.56-1.36.73-.53.96-1.9,1.8-2.45.77-.51,1.82-.67,2.67-1.18.8-.48,1.94-.39,2.81-.86.82-.45,1.6-.98,2.48-1.4s1.73-.72,2.63-1.11,1.65-.94,2.57-1.27,1.55-1.38,2.48-1.67,2.1.43,3.04.2,1.79-.61,2.75-.79,1.76-1.14,2.72-1.26,1.95.04,2.91-.02,1.92.32,2.89.32,1.92-.25,2.89-.19,1.92.23,2.85.33c.97.1,1.96-.03,2.88.11Z"/>
    <path class="cls-1" d="M136.02,46.42c.93.14,1.79.74,2.69.95s1.91.16,2.8.44,1.88.4,2.75.75,1.69.9,2.53,1.31,1.73.79,2.54,1.26,1.72.85,2.49,1.38,1.22,1.53,1.96,2.12,1.38,1.27,2.07,1.91,1.3,1.34,1.94,2.02,1.12,1.49,1.71,2.22,1.25,1.38,1.78,2.16,1.13,1.49,1.61,2.3.48,1.85.89,2.69,1.35,1.43,1.7,2.3,1.1,1.62,1.39,2.51.65,1.81.87,2.72.07,1.93.23,2.86.38,1.86.47,2.8-.47,1.9-.46,2.85c0,.13-.32.27-.32.4.01.98.16,1.94.13,2.9s.6,1.98.54,2.94-.08,1.95-.16,2.92-.92,1.88-1,2.84.72,2.01.64,2.98-1.14,1.87-1.2,2.83,0,1.96-.04,2.93.93,1.95.94,2.92-.53,1.94-.47,2.91-.21,1.97-.09,2.94,1.13,1.76,1.32,2.73.19,1.9.46,2.85.11,1.98.45,2.91,1.39,1.59,1.73,2.48c.36.94.2,2.05.55,2.93.37.94.49,1.94.83,2.82.37.95.93,1.77,1.25,2.66.35.96.78,1.84,1.06,2.74.3.98-.08,2.06.11,2.97.21,1,1.27,1.84,1.3,2.77.04,1.01.18,2.11-.03,3.05s-1.05,1.75-1.55,2.63c-.45.79-.85,1.77-1.58,2.53-.69.72-1.66,1.07-2.34,1.63-.77.64-1.22,1.71-1.97,2.14-.86.5-1.87.79-2.71,1.06-.93.29-1.96.34-2.86.4s-1.93-.07-2.85-.22-1.79-.59-2.68-.92-1.61-.92-2.46-1.35-1.44-1.06-2.21-1.59-1.4-1.15-2.15-1.7-1.97-.35-2.76-.84-1.41-1.14-2.27-1.5-1.54-1.24-2.48-1.42c-.85-.16-1.84.83-2.82.85-.9.02-1.65.13-2.52.35s-1.62.5-2.45.85-1.97-.03-2.76.39-1.75.6-2.51,1.04c-.8.46-1.45,1.13-2.2,1.54-.83.46-1.48,1.17-2.25,1.47-.91.36-1.78.89-2.6.9-.88,0-1.66.33-2.6.6-.85.24-2.03-.35-2.93-.01-.84.32-1.73.57-2.63.88s-1.61.91-2.53,1.13-1.78.16-2.73.22c-.9.05-1.81.47-2.77.32-.89-.13-2.01.02-3-.36-.87-.33-1.84-.7-2.76-1.16-.85-.43-1.54-1.28-2.41-1.77s-1.6-1.16-2.45-1.65-1.46-1.45-2.3-1.92c-.89-.5-1.93-.7-2.76-1.12-.95-.48-1.79-1.16-2.63-1.45-1.08-.38-2.26-.53-3.08-.44s-1.65,1.14-2.76,1.55c-.88.32-2.16-.13-3.16.28-.91.38-1.44,1.84-2.4,2.2s-2.26-.27-3.22.01c-1.01.3-1.9.83-2.86.94-1.07.13-2-.08-2.93-.3-.99-.23-2.28-.06-3.01-.84-.65-.69-.63-1.96-1.17-2.8s-.92-1.63-1.3-2.54-.61-1.76-.82-2.72-1.11-1.81-1.13-2.8.2-1.98.37-2.96.45-1.91.82-2.85c.35-.87,1.02-1.65,1.56-2.5.5-.79,1.47-1.21,2.16-1.97.61-.67.32-2.08.86-2.86s1.27-1.33,1.73-2.15,1.01-1.54,1.4-2.39,1.33-1.46,1.67-2.32.19-1.92.49-2.8.11-1.91.37-2.8.87-1.69,1.11-2.58.15-1.89.36-2.77c.22-.93.45-1.83.64-2.7.2-.96,1.1-1.72,1.27-2.58.2-.99.02-1.98.18-2.79s.54-1.72.67-2.79c.11-.87-.17-1.87-.04-2.88.11-.89.02-1.87.16-2.86.12-.91.63-1.8.79-2.77.15-.91-.29-1.97-.09-2.93s.96-1.73,1.2-2.67.7-1.76.98-2.69.41-1.85.74-2.75.97-1.64,1.35-2.52.21-1.98.65-2.84.98-1.63,1.47-2.46.88-1.7,1.43-2.49,1.21-1.48,1.82-2.23,1.01-1.66,1.68-2.36c.99-1.04.96-.56,2.33-1.76.61-.53,1.41-1.08,2.27-1.76.69-.55,1.72-.76,2.56-1.36.73-.53.96-1.9,1.8-2.45.77-.51,1.82-.67,2.67-1.18.8-.48,1.94-.39,2.81-.86.82-.45,1.6-.98,2.48-1.4s1.73-.72,2.63-1.11,1.65-.94,2.57-1.27,1.55-1.38,2.48-1.67,2.1.43,3.04.2,1.79-.61,2.75-.79,1.76-1.14,2.72-1.26,1.95.04,2.91-.02,1.92.32,2.89.32,1.92-.25,2.89-.19,1.92.23,2.85.33c.97.1,1.96-.03,2.88.11Z"/>
  </g>
  <g>
    <path class="cls-5" d="M88.99,64.49c.07-1.49.36-1.09.55-2.94.09-.85.04-1.86.19-2.97.13-.92.22-1.91.4-2.95.16-.94.27-1.93.48-2.94.2-.95.1-2,.36-2.98s.26-2.01.56-2.96.55-1.95.92-2.88.93-1.82,1.36-2.7.67-1.99,1.2-2.81c.56-.86,1.56-1.42,2.21-2.15.69-.76,1.26-1.71,2.06-2.27s1.8-1.12,2.75-1.44,2.18-.4,3.16-.19c.91.19,1.83.87,2.73,1.42.8.48,1.64,1.09,2.41,1.77.72.63,1.01,1.74,1.69,2.49s1.07,1.63,1.68,2.41,2,1,2.55,1.79c.59.85.58,2.05,1.08,2.84.58.93.83,1.93,1.26,2.67.9,1.56,1.38.92,2.05,2.23"/>
    <path class="cls-1" d="M88.99,64.49c.07-1.49.36-1.09.55-2.94.09-.85.04-1.86.19-2.97.13-.92.22-1.91.4-2.95.16-.94.27-1.93.48-2.94.2-.95.1-2,.36-2.98s.26-2.01.56-2.96.55-1.95.92-2.88.93-1.82,1.36-2.7.67-1.99,1.2-2.81c.56-.86,1.56-1.42,2.21-2.15.69-.76,1.26-1.71,2.06-2.27s1.8-1.12,2.75-1.44,2.18-.4,3.16-.19c.91.19,1.83.87,2.73,1.42.8.48,1.64,1.09,2.41,1.77.72.63,1.01,1.74,1.69,2.49s1.07,1.63,1.68,2.41,2,1,2.55,1.79c.59.85.58,2.05,1.08,2.84.58.93.83,1.93,1.26,2.67.9,1.56,1.38.92,2.05,2.23"/>
  </g>
  <g>
    <path class="cls-4" d="M102.65,73.78c-1.1,1.56-1.6,2.92-1.75,4.48-.17,1.74-.8,3.6-.19,5.16.65,1.64,2.42,2.67,3.46,3.89,1.39,1.63,2.66,2.89,3.71,3.27.9.33,2.44.43,4.21.72,1.33.22,2.69.42,4.18.27,1.4-.14,2.69-.37,3.99-1.1,1.17-.65,2.12-1.5,3.02-2.82.72-1.05,1.74-2.11,2.2-3.69.43-1.49.37-3.21-.19-4.8-.5-1.41-1.23-2.99-2.3-4.28-.99-1.19-2.74-1.68-4.06-2.61s-2.44-2.2-3.92-2.71-3.18-.58-4.74-.52-2.88.81-4.31,1.63c-1.26.73-2.28,1.65-3.3,3.1Z"/>
    <path class="cls-1" d="M102.65,73.78c-1.1,1.56-1.6,2.92-1.75,4.48-.17,1.74-.8,3.6-.19,5.16.65,1.64,2.42,2.67,3.46,3.89,1.39,1.63,2.66,2.89,3.71,3.27.9.33,2.44.43,4.21.72,1.33.22,2.69.42,4.18.27,1.4-.14,2.69-.37,3.99-1.1,1.17-.65,2.12-1.5,3.02-2.82.72-1.05,1.74-2.11,2.2-3.69.43-1.49.37-3.21-.19-4.8-.5-1.41-1.23-2.99-2.3-4.28-.99-1.19-2.74-1.68-4.06-2.61s-2.44-2.2-3.92-2.71-3.18-.58-4.74-.52-2.88.81-4.31,1.63c-1.26.73-2.28,1.65-3.3,3.1Z"/>
  </g>
  <g>
    <path class="cls-4" d="M130.24,84.48c-.22,1.68-.77,3.71.15,5.37.82,1.47,2.72,2.23,4.39,3.18,1.41.81,2.97,1.25,4.96,1.39,1.59.11,3.45.83,5.41.35,1.64-.4,2.94-1.43,4.13-2.16,1.41-.86,2.84-1.68,3.68-2.85.93-1.29,1.68-2.84,2.01-4.28.36-1.54.03-3.22-.18-4.68-.24-1.62-1.06-2.97-1.85-4.13-1.06-1.54-2.32-2.64-3.82-3.39-1.59-.79-3.26-1.35-5.01-1.34s-3.57.32-5.15,1.08-3.04,1.66-4.34,2.69-2.42,2.36-3.28,3.87c-.77,1.36-.85,3-1.1,4.88Z"/>
    <path class="cls-1" d="M130.24,84.48c-.22,1.68-.77,3.71.15,5.37.82,1.47,2.72,2.23,4.39,3.18,1.41.81,2.97,1.25,4.96,1.39,1.59.11,3.45.83,5.41.35,1.64-.4,2.94-1.43,4.13-2.16,1.41-.86,2.84-1.68,3.68-2.85.93-1.29,1.68-2.84,2.01-4.28.36-1.54.03-3.22-.18-4.68-.24-1.62-1.06-2.97-1.85-4.13-1.06-1.54-2.32-2.64-3.82-3.39-1.59-.79-3.26-1.35-5.01-1.34s-3.57.32-5.15,1.08-3.04,1.66-4.34,2.69-2.42,2.36-3.28,3.87c-.77,1.36-.85,3-1.1,4.88Z"/>
  </g>
  <circle class="cls-3" cx="118.47" cy="82.7" r="3.85"/>
  <circle class="cls-3" cx="137.53" cy="84.6" r="3.85"/>
  <g>
    <path class="cls-1" d="M65.77,76.67c1.36.16,1.16-.7,2.83-.39.77.14,1.56.93,2.56,1.15.83.19,1.78.17,2.71.43.85.23,1.86.1,2.76.39s1.7.7,2.57,1.04,1.5,1.15,2.33,1.54,1.82.5,2.6.96,1.44,1.19,2.15,1.74,1.45,1.15,2.07,1.8"/>
    <path class="cls-1" d="M61.74,89.14c1.38,0,1.04.1,2.75.23.78.06,1.68.43,2.71.56.84.1,1.71.42,2.68.58.87.15,1.77.25,2.7.46.87.19,1.74.43,2.65.68s2.02-.36,2.91-.06,1.75.64,2.61.99,1.61.96,2.43,1.38,1.75.69,2.54,1.17"/>
  </g>
  <g>
    <path class="cls-1" d="M157.32,91.43c1.18-.69.95-.34,2.47-1.12.69-.36,1.47-.82,2.4-1.27.76-.36,1.35-1.25,2.24-1.64.79-.35,1.58-.85,2.46-1.2.82-.33,1.64-.77,2.52-1.08s2,.27,2.88,0,1.51-1.26,2.4-1.5,1.89.07,2.78-.11,1.82-.04,2.71-.17"/>
    <path class="cls-1" d="M160.42,98.82c1.44-.31,1.18.24,2.98-.06.83-.14,1.7-1.08,2.79-1.24.9-.13,1.99.57,3.02.46.94-.1,1.88-.51,2.89-.59.96-.07,1.93-.39,2.93-.43s1.97.29,2.95.3,2-.49,2.97-.42,1.96.49,2.91.63"/>
  </g>
  <path class="cls-2" d="M105.33,115.18c1.51.86,1.44.51,3.04,1.71.83.63,1.82,1.38,2.7,2.24.82.8,1.8,1.64,2.43,2.59.67,1,.86,2.33,1.07,3.42.24,1.25-.22,2.31-.26,3.21-.05,1.33.31,2.5-.2,3.24-.63.91-1.64,1.69-2.7,2.05-1.3.45-2.64-.94-3.6-2.29-.86-1.22-1.85-2.29-2.71-2.94-1.81-1.37-2.04-1.46-4.63-2.07"/>
  <path class="cls-2" d="M146.04,114.25c1.56.88,1.17.89,2.69,2.38.74.73,1.45,1.7,2.18,2.8.62.92,1.22,1.93,1.67,3.12.5,1.33.89,2.48,1.04,3.54.21,1.48-.06,2.62-.45,3.58-.49,1.19-1.2,2.23-2.44,2.64-1.54.51-2.58-.77-3.42-2.16-.77-1.27-1.75-2.33-2.72-3.02-.78-.56-1.47-1.56-2.45-1.93"/>
  <g>
    <path class="cls-5" d="M36.87,136.19c-1.54-1.63-1.28-1.56-3.16-3.07-1.15-.92-2.23-2.14-3.5-2.71-1.62-.73-3.41-1.18-4.41-.09-1.42,1.55.31,3.51,2.12,5.11,2.12,1.88,7,1.49,5.07,3.79-1.55,1.85-4.59-.49-4.4,1.94.1,1.36,2.88,2.22,5.45,2.24,2.01,0,3.85-1.07,5.24-2.01"/>
    <path class="cls-1" d="M36.87,136.19c-1.54-1.63-1.28-1.56-3.16-3.07-1.15-.92-2.23-2.14-3.5-2.71-1.62-.73-3.41-1.18-4.41-.09-1.42,1.55.31,3.51,2.12,5.11,2.12,1.88,7,1.49,5.07,3.79-1.55,1.85-4.59-.49-4.4,1.94.1,1.36,2.88,2.22,5.45,2.24,2.01,0,3.85-1.07,5.24-2.01"/>
  </g>
  <path d="M145.44,146.38s-10.9,1.79-14.2,9.55l-6.17-4.06s4.64-2.43,8.1-4.24,7.57-3.04,12.27-1.24Z"/>
</svg>