<?xml version="1.0" encoding="UTF-8"?>
<svg id="_레이어_2" data-name="레이어 2" xmlns="http://www.w3.org/2000/svg" viewBox="0 0 200 200">
  <defs>
    <style>
      .cls-1 {
        fill: none;
        stroke-linecap: round;
        stroke-linejoin: round;
        stroke-width: 2.4px;
      }

      .cls-1, .cls-2 {
        stroke: #000;
      }

      .cls-3 {
        fill: #ffaf42;
      }

      .cls-2 {
        stroke-miterlimit: 10;
        stroke-width: 1.2px;
      }

      .cls-4 {
        fill: #fff;
      }
    </style>
  </defs>
  <path class="cls-3" d="M129.14,137.8c-.44,1.33-.52,3.02-1.07,4.12-.63,1.27-1.89,2.08-2.59,3.07-.84,1.17-1.23,2.62-2.09,3.44-1.08,1.04-2.75,1.08-3.7,1.67-2.04,1.29-4.8,3.36-3.13,2.31,1.18-.74.98-1.12,2.26-1.65s1.29-.78,2.67-.62c-.11,1.34.28,2.57.02,3.74-.29,1.32-1.37,2.36-1.81,3.47-.51,1.26-1.13,2.34-1.79,3.33-.75,1.15-1.67,1.96-2.54,2.75-1.03.94-2.06,1.45-3.12,1.9-1.31.55-2.47,1.58-3.59,1.43-1.38-.19-2.81-.54-3.94-1.13s-1.63-1.98-2.34-3.26c-.55-.99-1.2-2.08-1.41-3.64-.16-1.14.22-2.44.29-3.95.06-1.39-.48-2.77-.27-4.01.25-1.4.91-2.62,1.28-3.79.44-1.43.44-2.89.92-3.93,1.01-2.22.28-3.08,2.15-3.74,1.59-.56,1.83.14,3.51.01s1.68-.18,3.36-.3,1.72.32,3.4.2,1.67-.32,3.35-.45,1.72.36,3.4.23,1.71-.27,3.35-.68c1.74-.44,1.85-1.12,3.44-.54Z"/>
  <path class="cls-3" d="M74.75,138.56c-1.7.45.06,1.25-.5,3.29-.27.99-1.21,1.97-1.51,3.23-.26,1.08.12,2.38-.12,3.56s-1.41,2.13-1.59,3.28-.31,2.4-.39,3.52c-.1,1.26.56,2.46.64,3.51.11,1.39-.04,2.67.5,3.46.74,1.1,2.11,1.4,3.16,2.06s1.96,1.75,3.24,1.92,2.57.14,3.86-.2c1.17-.31,2.48-.72,3.61-1.47.99-.66,2.11-1.49,3.01-2.51s.93-2.63,1.54-3.74c.67-1.21,1.14-2.37,1.53-3.55.46-1.38,1.46-2.5,1.65-3.64.38-2.31,1.85-4.7.02-3.98-2.02.79-1.91,1.12-3.52,2.56s-1.23,1.85-2.75,3.39c1.05-.68,1.89-1.46,2.74-2.14.99-.79,1.47-1.97,2.22-2.74.9-.93,1.57-1.8,2.18-2.65.79-1.11,1.57-1.94,1.96-2.83.9-2.03,2.66-2.38,1.04-3.04-1.75-.72-1.78-.54-3.67-.65s-1.9.09-3.78-.02-1.86-.59-3.74-.7-1.91.32-3.8.21-1.86-.29-3.74-.52-1.93-.1-3.76.38Z"/>
  <path class="cls-1" d="M96.96,139.61c-.08,1.75.58,1.46-.32,3.49-.4.89-1.04,1.93-1.83,3.04-.6.85-1.12,2.02-2.03,2.95-.75.77-2.2.93-3.19,1.72-.85.68-1.6,1.62-2.65,2.3"/>
  <path class="cls-1" d="M74.91,138.4c-.54,1.67-.11,1.4-.67,3.45-.27.99-1.21,1.97-1.51,3.23-.26,1.08.12,2.38-.12,3.56s-1.41,2.13-1.59,3.28-.31,2.4-.39,3.52c-.1,1.26.56,2.46.64,3.51.11,1.39-.04,2.67.5,3.46.74,1.1,2.11,1.4,3.16,2.06s1.96,1.75,3.24,1.92,2.57.14,3.86-.2c1.17-.31,2.48-.72,3.61-1.47.99-.66,2.11-1.49,3.01-2.51s.93-2.63,1.54-3.74c.67-1.21,1.14-2.37,1.53-3.55.46-1.38,1.46-2.5,1.65-3.64.38-2.31.11-2,.04-3.96"/>
  <path class="cls-1" d="M105.2,139.56c-1.15,1.62-.32,1.6-1.34,3.82-.47,1.04-1.02,2.23-1.47,3.65-.36,1.17-.35,2.49-.6,3.89-.22,1.24-1.23,2.45-1.29,3.84-.06,1.52.31,2.84.46,3.98.21,1.56.99,2.57,1.54,3.56.71,1.28,1.11,2.68,2.24,3.27s2.54.92,3.92,1.11c1.13.16,2.46-.35,3.77-.9,1.07-.45,2.19-1.1,3.22-2.04.87-.79,1.38-1.99,2.14-3.14.65-.99,1.73-1.86,2.23-3.12.44-1.11.12-2.52.41-3.84.26-1.17.71-2.34.82-3.69"/>
  <path class="cls-1" d="M116.29,151.87c1.91-.48,1.26-.63,3.3-1.92.94-.6,2.36-.85,3.44-1.89.86-.83,1.2-2.21,2.03-3.37.71-.99,2.21-1.59,2.84-2.86.55-1.1,1.05-2.37,1.49-3.7"/>
  <g>
    <path class="cls-3" d="M63.5,102.51c-.52,1.14-.35.85-1.02,2.29-.3.64-.64,1.42-1.05,2.28-.33.69-.99,1.3-1.39,2.11-.35.71-.99,1.33-1.38,2.11-.36.72-.38,1.64-.77,2.41-.37.72-.46,1.62-.85,2.38s-.88,1.41-1.27,2.16-1.24,1.22-1.64,1.96-.44,1.65-.85,2.39-.97,1.37-1.39,2.1-1.36,1.14-1.78,1.86-.49,1.65-.92,2.37-.68,1.55-1.12,2.26-1.43,1.08-1.88,1.77-.07,1.98-.53,2.66-1.66.9-2.14,1.56c-.51.7-.54,1.71-1.04,2.35-.54.68-1.28,1.16-1.8,1.77-.58.66-1.32,1.1-1.88,1.65-.65.63-1.2,1.21-1.82,1.66-.72.52-1.36,1.16-1.96,1.75-.63.63-.63,1.73-1.12,2.41-.53.73-1.84.97-2.19,1.71-.39.83.27,1.98.1,2.77-.2.93-1.28,1.76-1.17,2.53.13.94,1.13,1.52,1.72,2.09s1.28.82,1.97,1.19,1.19,1.32,1.98,1.49,1.61-.22,2.43-.25c.76-.03,1.44-.49,2.25-.68.74-.18,1.81.54,2.58.23.7-.29,1.37-.87,2.09-1.28.66-.37,1.4-.76,2.08-1.24.63-.44,1.01-1.27,1.65-1.8.53-.44,1.41-.78,2.1-1.53.52-.57.69-1.56,1.28-2.27.51-.61.87-1.41,1.43-2.12.5-.64,1.35-1.06,1.89-1.76.5-.66,1.2-1.2,1.72-1.9s1.27-1.16,1.78-1.86.89-1.45,1.39-2.15.43-1.78.92-2.48,1.53-1.01,2.01-1.71.6-1.66,1.08-2.36.71-1.59,1.18-2.29,1.07-1.35,1.54-2.04,1.24-1.24,1.7-1.94.64-1.65,1.1-2.34c.49-.73.79-1.56,1.24-2.24.49-.75,1.45-1.14,1.89-1.82.5-.77.74-1.63,1.17-2.28.53-.81.75-1.69,1.14-2.29.87-1.35.88-.95,1.56-2.02"/>
    <path class="cls-1" d="M63.5,102.51c-.52,1.14-.35.85-1.02,2.29-.3.64-.64,1.42-1.05,2.28-.33.69-.99,1.3-1.39,2.11-.35.71-.99,1.33-1.38,2.11-.36.72-.38,1.64-.77,2.41-.37.72-.46,1.62-.85,2.38s-.88,1.41-1.27,2.16-1.24,1.22-1.64,1.96-.44,1.65-.85,2.39-.97,1.37-1.39,2.1-1.36,1.14-1.78,1.86-.49,1.65-.92,2.37-.68,1.55-1.12,2.26-1.43,1.08-1.88,1.77-.07,1.98-.53,2.66-1.66.9-2.14,1.56c-.51.7-.54,1.71-1.04,2.35-.54.68-1.28,1.16-1.8,1.77-.58.66-1.32,1.1-1.88,1.65-.65.63-1.2,1.21-1.82,1.66-.72.52-1.36,1.16-1.96,1.75-.63.63-.63,1.73-1.12,2.41-.53.73-1.84.97-2.19,1.71-.39.83.27,1.98.1,2.77-.2.93-1.28,1.76-1.17,2.53.13.94,1.13,1.52,1.72,2.09s1.28.82,1.97,1.19,1.19,1.32,1.98,1.49,1.61-.22,2.43-.25c.76-.03,1.44-.49,2.25-.68.74-.18,1.81.54,2.58.23.7-.29,1.37-.87,2.09-1.28.66-.37,1.4-.76,2.08-1.24.63-.44,1.01-1.27,1.65-1.8.53-.44,1.41-.78,2.1-1.53.52-.57.69-1.56,1.28-2.27.51-.61.87-1.41,1.43-2.12.5-.64,1.35-1.06,1.89-1.76.5-.66,1.2-1.2,1.72-1.9s1.27-1.16,1.78-1.86.89-1.45,1.39-2.15.43-1.78.92-2.48,1.53-1.01,2.01-1.71.6-1.66,1.08-2.36.71-1.59,1.18-2.29,1.07-1.35,1.54-2.04,1.24-1.24,1.7-1.94.64-1.65,1.1-2.34c.49-.73.79-1.56,1.24-2.24.49-.75,1.45-1.14,1.89-1.82.5-.77.74-1.63,1.17-2.28.53-.81.75-1.69,1.14-2.29.87-1.35.88-.95,1.56-2.02"/>
  </g>
  <g>
    <path class="cls-4" d="M98.07,40.75c.74-1.71.9-1.21,1.89-3.23.48-.97.57-2.36,1.21-3.57.55-1.04,1.14-2.17,1.8-3.28.62-1.05,1.53-1.98,2.22-3.03s1.39-2.12,2.13-3.08c.8-1.03,1.96-1.68,2.79-2.51.96-.96,1.8-1.89,2.77-2.44,1.2-.68,2.32-.52,3.48-.33s2.23.27,3.15,1.03c.84.69,1.31,1.74,1.98,2.79.59.93,1.78,1.62,2.26,2.75.43,1.03-.09,2.46.25,3.6s.62,2.19.88,3.33,1.15,2.14,1.35,3.28.52,2.32.67,3.44c.16,1.22-.36,2.45-.26,3.54.12,1.29.06,2.47.12,3.47.13,2.13.3,1.71.32,3.45"/>
    <path class="cls-1" d="M98.07,40.75c.74-1.71.9-1.21,1.89-3.23.48-.97.57-2.36,1.21-3.57.55-1.04,1.14-2.17,1.8-3.28.62-1.05,1.53-1.98,2.22-3.03s1.39-2.12,2.13-3.08c.8-1.03,1.96-1.68,2.79-2.51.96-.96,1.8-1.89,2.77-2.44,1.2-.68,2.32-.52,3.48-.33s2.23.27,3.15,1.03c.84.69,1.31,1.74,1.98,2.79.59.93,1.78,1.62,2.26,2.75.43,1.03-.09,2.46.25,3.6s.62,2.19.88,3.33,1.15,2.14,1.35,3.28.52,2.32.67,3.44c.16,1.22-.36,2.45-.26,3.54.12,1.29.06,2.47.12,3.47.13,2.13.3,1.71.32,3.45"/>
  </g>
  <g>
    <path class="cls-4" d="M99.01,36.82c1.25-.05,2.51-1.1,3.74-1.02s2.48.58,3.7.78,2.44.58,3.63.9,2.19,1.23,3.35,1.68,2.51.43,3.61.99,2.13,1.29,3.18,1.95,1.96,1.51,2.94,2.27,1.67,1.81,2.56,2.67,2.15,1.35,2.95,2.3,1.61,1.9,2.32,2.92,1.76,1.86,2.36,2.95.23,2.65.73,3.8,1.73,1.99,2.11,3.18.54,2.45.8,3.67c.03.13.44.18.46.31.23,1.14.3,2.38.62,3.65.3,1.15.52,2.38.85,3.62.31,1.17.29,2.46.6,3.69s.85,2.33,1.12,3.56.81,2.37,1.02,3.61.34,2.48.47,3.72-.04,2.51.11,3.69c.15,1.25.13,2.49.3,3.68s.48,2.43.68,3.62.52,2.4.73,3.6-.2,2.53.04,3.74,1.16,2.25,1.42,3.47.33,2.41.6,3.64.37,2.42.63,3.5c.3,1.24.39,2.43.66,3.5.31,1.26.9,2.32,1.13,3.38.28,1.28.91,2.39,1,3.46.12,1.27-.2,2.48-.43,3.59s-.92,2.05-1.6,3.15c-.55.89-.88,2.12-1.78,3.11-.84.93-2.18,1-2.97,1.53-1.04.69-1.73,1.58-2.69,1.78-1.13.24-2.19-.2-3.23-.31-1.11-.12-2.25.32-3.31.24s-1.94.1-3,.53c-1.17.48-2.35.57-3.2,1.25-.9.73-1.58,1.69-2.51,2.41-.85.66-1.86,1.18-3.07,1.6-.95.33-2.07.12-3.41.19-1.18.06-2.2-.05-3.3-.31s-2.12-.7-3.16-1.16-2.01-1.12-3-1.64c-1.08-.56-2.51-.26-3.5-.68-1.16-.49-2.12-.59-3.17-.55s-2.09.38-3.4.81c-1.08.35-2.45.16-3.66.6-1.12.41-2.25.91-3.44,1.26s-2.37.67-3.57.84-2.5.55-3.71.4-2.18-1.23-3.34-1.59-2.59.06-3.7-.39-2.21-1.05-3.29-1.49c-1.18-.48-2.24-1.01-3.32-1.3-1.26-.34-2.39-.78-3.49-.63-.96.13-2.23.73-3.78.95-1.18.17-2.48.51-3.84.64-1.26.12-2.6.26-3.9.29s-2.67-.19-3.92-.31c-1.36-.12-2.6-.77-3.75-1.13-1.33-.43-2.2-1.27-3.05-2.14s-1.72-1.73-2.38-2.85-1.11-2.19-1.48-3.41-.81-2.36-.87-3.65-.39-2.58-.1-3.85c.27-1.18.77-2.45,1.39-3.62.56-1.06,1.34-2.14,2.21-3.16.79-.92,1.95-1.44,2.61-2.27.76-.96,1.19-2.06,1.78-2.93.68-1.01.85-2.18,1.33-3.14.54-1.06,1.09-1.97,1.41-3.03s.84-2.08.98-3.24c.13-1.07.51-2.19.52-3.4,0-1-.45-2.25-.58-3.7-.1-1.12-.18-2.37-.3-3.71-.11-1.17-.1-2.42-.19-3.72-.08-1.19-.73-2.42-.76-3.7-.03-1.21.78-2.46.81-3.72s-.77-2.52-.65-3.78,1.38-2.31,1.59-3.55-.26-2.56.05-3.78.39-2.5.81-3.68,1.66-1.99,2.2-3.12.95-2.26,1.63-3.32c1.01-1.57.18-1.61,1.65-3.44.67-.83,1.54-1.77,2.49-2.82.77-.85,1.82-1.61,2.77-2.54.84-.83,2.33-1.04,3.32-1.9.9-.79,1.58-1.89,2.6-2.68.96-.74,1.95-1.48,3.01-2.19s2.11-1.25,3.21-1.89,1.92-1.65,3.06-2.21,2.48-.49,3.66-.95,2.17-1.26,3.37-1.63,2.37-.75,3.61-1.01,2.53.26,3.79.1c.94-.12,1.78-.97,2.68-1.04.95-.08,1.91.55,2.82.52Z"/>
    <path class="cls-1" d="M99.01,36.82c1.25-.05,2.51-1.1,3.74-1.02s2.48.58,3.7.78,2.44.58,3.63.9,2.19,1.23,3.35,1.68,2.51.43,3.61.99,2.13,1.29,3.18,1.95,1.96,1.51,2.94,2.27,1.67,1.81,2.56,2.67,2.15,1.35,2.95,2.3,1.61,1.9,2.32,2.92,1.76,1.86,2.36,2.95.23,2.65.73,3.8,1.73,1.99,2.11,3.18.54,2.45.8,3.67c.03.13.44.18.46.31.23,1.14.3,2.38.62,3.65.3,1.15.52,2.38.85,3.62.31,1.17.29,2.46.6,3.69s.85,2.33,1.12,3.56.81,2.37,1.02,3.61.34,2.48.47,3.72-.04,2.51.11,3.69c.15,1.25.13,2.49.3,3.68s.48,2.43.68,3.62.52,2.4.73,3.6-.2,2.53.04,3.74,1.16,2.25,1.42,3.47.33,2.41.6,3.64.37,2.42.63,3.5c.3,1.24.39,2.43.66,3.5.31,1.26.9,2.32,1.13,3.38.28,1.28.91,2.39,1,3.46.12,1.27-.2,2.48-.43,3.59s-.92,2.05-1.6,3.15c-.55.89-.88,2.12-1.78,3.11-.84.93-2.18,1-2.97,1.53-1.04.69-1.73,1.58-2.69,1.78-1.13.24-2.19-.2-3.23-.31-1.11-.12-2.25.32-3.31.24s-1.94.1-3,.53c-1.17.48-2.35.57-3.2,1.25-.9.73-1.58,1.69-2.51,2.41-.85.66-1.86,1.18-3.07,1.6-.95.33-2.07.12-3.41.19-1.18.06-2.2-.05-3.3-.31s-2.12-.7-3.16-1.16-2.01-1.12-3-1.64c-1.08-.56-2.51-.26-3.5-.68-1.16-.49-2.12-.59-3.17-.55s-2.09.38-3.4.81c-1.08.35-2.45.16-3.66.6-1.12.41-2.25.91-3.44,1.26s-2.37.67-3.57.84-2.5.55-3.71.4-2.18-1.23-3.34-1.59-2.59.06-3.7-.39-2.21-1.05-3.29-1.49c-1.18-.48-2.24-1.01-3.32-1.3-1.26-.34-2.39-.78-3.49-.63-.96.13-2.23.73-3.78.95-1.18.17-2.48.51-3.84.64-1.26.12-2.6.26-3.9.29s-2.67-.19-3.92-.31c-1.36-.12-2.6-.77-3.75-1.13-1.33-.43-2.2-1.27-3.05-2.14s-1.72-1.73-2.38-2.85-1.11-2.19-1.48-3.41-.81-2.36-.87-3.65-.39-2.58-.1-3.85c.27-1.18.77-2.45,1.39-3.62.56-1.06,1.34-2.14,2.21-3.16.79-.92,1.95-1.44,2.61-2.27.76-.96,1.19-2.06,1.78-2.93.68-1.01.85-2.18,1.33-3.14.54-1.06,1.09-1.97,1.41-3.03s.84-2.08.98-3.24c.13-1.07.51-2.19.52-3.4,0-1-.45-2.25-.58-3.7-.1-1.12-.18-2.37-.3-3.71-.11-1.17-.1-2.42-.19-3.72-.08-1.19-.73-2.42-.76-3.7-.03-1.21.78-2.46.81-3.72s-.77-2.52-.65-3.78,1.38-2.31,1.59-3.55-.26-2.56.05-3.78.39-2.5.81-3.68,1.66-1.99,2.2-3.12.95-2.26,1.63-3.32c1.01-1.57.18-1.61,1.65-3.44.67-.83,1.54-1.77,2.49-2.82.77-.85,1.82-1.61,2.77-2.54.84-.83,2.33-1.04,3.32-1.9.9-.79,1.58-1.89,2.6-2.68.96-.74,1.95-1.48,3.01-2.19s2.11-1.25,3.21-1.89,1.92-1.65,3.06-2.21,2.48-.49,3.66-.95,2.17-1.26,3.37-1.63,2.37-.75,3.61-1.01,2.53.26,3.79.1c.94-.12,1.78-.97,2.68-1.04.95-.08,1.91.55,2.82.52Z"/>
  </g>
  <g>
    <path class="cls-4" d="M56.72,67.82c-.49-1.69.24-1.44-.26-3.56-.23-.99-1.61-1.91-1.87-3.2-.22-1.08.68-2.44.48-3.67-.18-1.12-1.33-2.14-1.48-3.35s.17-2.38.08-3.56.15-2.35.13-3.53-.73-2.39-.67-3.54.99-2.29,1.17-3.42c.19-1.2-.34-2.55,0-3.62.38-1.17,1.12-2.2,1.72-3.15.64-1.02,1.57-1.79,2.49-2.5s1.98-1.08,3.17-1.11c1.05-.02,2.35-.32,3.53.06,1.03.33,1.73,1.69,2.79,2.24.99.51,2.06.9,3.04,1.53s1.94,1.23,2.84,1.9c.95.71,2.23.98,3.07,1.68.97.81,1.81,1.66,2.55,2.33,1.53,1.39,1.13,1.31,2.33,2.53"/>
    <path class="cls-1" d="M56.72,67.82c-.49-1.69.24-1.44-.26-3.56-.23-.99-1.61-1.91-1.87-3.2-.22-1.08.68-2.44.48-3.67-.18-1.12-1.33-2.14-1.48-3.35s.17-2.38.08-3.56.15-2.35.13-3.53-.73-2.39-.67-3.54.99-2.29,1.17-3.42c.19-1.2-.34-2.55,0-3.62.38-1.17,1.12-2.2,1.72-3.15.64-1.02,1.57-1.79,2.49-2.5s1.98-1.08,3.17-1.11c1.05-.02,2.35-.32,3.53.06,1.03.33,1.73,1.69,2.79,2.24.99.51,2.06.9,3.04,1.53s1.94,1.23,2.84,1.9c.95.71,2.23.98,3.07,1.68.97.81,1.81,1.66,2.55,2.33,1.53,1.39,1.13,1.31,2.33,2.53"/>
  </g>
  <g>
    <path class="cls-3" d="M71.31,69.15c-3.05,8.77,7.07,14.77,10.53,15,2.03.14,6.65.08,10.26-2.23,2.55-1.63,4.3-4.2,4.29-9.03-.01-4.83-5.21-9.2-11.2-10.41-5.48-1.1-11.67.32-13.88,6.67Z"/>
    <path class="cls-1" d="M71.31,69.15c-3.05,8.77,7.07,14.77,10.53,15,2.03.14,6.65.08,10.26-2.23,2.55-1.63,4.3-4.2,4.29-9.03-.01-4.83-5.21-9.2-11.2-10.41-5.48-1.1-11.67.32-13.88,6.67Z"/>
  </g>
  <g>
    <path class="cls-3" d="M101.49,72.09c.81,5.42,7.75,10.87,17.16,5.46,4.14-2.37,5.39-5.89,5.86-9.15.59-4.17-.51-8.3-3.04-10.38-4.51-3.71-10.86-2.81-14.68.61-3.81,3.41-6.2,7.46-5.31,13.46Z"/>
    <path class="cls-1" d="M101.49,72.09c.81,5.42,7.75,10.87,17.16,5.46,4.14-2.37,5.39-5.89,5.86-9.15.59-4.17-.51-8.3-3.04-10.38-4.51-3.71-10.86-2.81-14.68.61-3.81,3.41-6.2,7.46-5.31,13.46Z"/>
  </g>
  <circle class="cls-2" cx="89.83" cy="73.62" r="3.85"/>
  <circle class="cls-2" cx="108.67" cy="70.15" r="3.85"/>
  <g>
    <path class="cls-1" d="M36.52,75.16c1.23-.13.88-.52,2.4-.59.7-.03,1.53-.08,2.46-.08.76,0,1.58.1,2.45.13.79.02,1.64-.45,2.49-.39.8.06,1.56.73,2.4.83s1.68-.21,2.5-.06,1.64.24,2.44.44,1.37,1.13,2.14,1.39,1.82-.13,2.55.21,1.1,1.36,1.78,1.81"/>
    <path class="cls-1" d="M38.51,94.87c1.04-.68.62-.73,1.98-1.48.62-.34,1.03-1.38,1.87-1.8.68-.34,1.56-.48,2.37-.84.72-.32,1.71-.11,2.51-.44.74-.3,1.48-.67,2.29-.95.76-.27,1.47-.79,2.28-1.03s1.53-.71,2.35-.9,1.7.03,2.53-.11,1.65-.13,2.48-.22,1.63-.54,2.46-.57"/>
  </g>
  <g>
    <path class="cls-1" d="M130.92,66.93c1.05-.64,1.22.27,2.57-.46.61-.33,1.19-1,2.02-1.42.67-.34,1.22-1.1,2.01-1.48.7-.33,1.79.06,2.57-.28.73-.32,1.46-.66,2.24-.97s1.39-.89,2.17-1.17,1.55-.49,2.34-.74,1.45-.87,2.25-1.09,1.72.12,2.52-.06,1.48-1.06,2.28-1.19"/>
    <path class="cls-1" d="M132.28,76.44c1.43-.06,1.08-.61,2.85-.61.82,0,1.8-.07,2.87-.04.88.03,1.86.05,2.87.11.91.05,1.79,1.17,2.77,1.26.79.07,1.61-.09,2.42,0s1.69-.41,2.49-.28,1.51.78,2.3.93,1.59.32,2.36.52,1.42.87,2.18,1.11"/>
  </g>
  <g>
    <path d="M104.1,186.67c0,.83-.28,1.88-1.64,2.54-.83.4-1.95.72-3.16,1.03-.97.24-2.02.79-3.18.96-1.02.15-2.21-.6-3.35-.53-1.05.07-2.13.42-3.25.42s-2.25.4-3.3.33c-1.14-.07-2.15-1-3.17-1.14-1.16-.17-2.21-.34-3.18-.59-1.21-.31-2.33-.36-3.15-.76-1.35-.66-2.07-1.43-2.07-2.25,0-.97.12-2.21,1.12-3.04.67-.55,1.88-.57,3.16-.94.89-.26,1.82-1.18,3.06-1.3.96-.1,2.09.11,3.29.11.9,0,2.34-.24,3.86-.11,1.25.11,2.53.89,3.75,1.03,1.59.18,3.1-.3,3.89-.18,1.09.17,1.89,1.34,2.79,1.59,1.13.31,2.03.61,2.79,1.01,1.24.64,1.75,1.05,1.75,1.84Z"/>
    <path class="cls-1" d="M104.1,186.67c0,.83-.28,1.88-1.64,2.54-.83.4-1.95.72-3.16,1.03-.97.24-2.02.79-3.18.96-1.02.15-2.21-.6-3.35-.53-1.05.07-2.13.42-3.25.42s-2.25.4-3.3.33c-1.14-.07-2.15-1-3.17-1.14-1.16-.17-2.21-.34-3.18-.59-1.21-.31-2.33-.36-3.15-.76-1.35-.66-2.07-1.43-2.07-2.25,0-.97.12-2.21,1.12-3.04.67-.55,1.88-.57,3.16-.94.89-.26,1.82-1.18,3.06-1.3.96-.1,2.09.11,3.29.11.9,0,2.34-.24,3.86-.11,1.25.11,2.53.89,3.75,1.03,1.59.18,3.1-.3,3.89-.18,1.09.17,1.89,1.34,2.79,1.59,1.13.31,2.03.61,2.79,1.01,1.24.64,1.75,1.05,1.75,1.84Z"/>
  </g>
</svg>