<?xml version="1.0" encoding="UTF-8"?>
<svg id="_레이어_2" data-name="레이어 2" xmlns="http://www.w3.org/2000/svg" viewBox="0 0 200 200">
  <defs>
    <style>
      .cls-1 {
        stroke-width: 2.4px;
      }

      .cls-1, .cls-2 {
        fill: none;
        stroke-linecap: round;
        stroke-linejoin: round;
      }

      .cls-1, .cls-2, .cls-3 {
        stroke: #000;
      }

      .cls-2 {
        stroke-width: 2.4px;
      }

      .cls-4 {
        fill: #ffaf42;
      }

      .cls-5 {
        fill: #fdb2d2;
      }

      .cls-3 {
        stroke-miterlimit: 10;
        stroke-width: 1.2px;
      }

      .cls-6 {
        fill: #fff;
      }
    </style>
  </defs>
  <g>
    <path class="cls-4" d="M97.72,156.59c-1.23-.07-2.49.31-3.69.15s-2.46-.42-3.65-.66-2.28-1.21-3.43-1.5c-1.23-.31-2.43-.55-3.55-.89-1.25-.38-2.66-.08-3.73-.46-1.3-.46-2.16-1.71-3.14-2.1-2.11-.85-5.24-1.74-3.58-.96,1.36.64,1.43.51,2.78,1.16s1.31.75,2.67,1.4,1.99-.18,3.02.92c-1.27.23-2.78.19-4.04.27s-2.58.83-3.83.76-2.61-.34-3.83-.55c-1.31-.23-2.55-.67-3.71-1.03-1.3-.4-2.21-1.51-3.27-2.04-1.27-.63-2.61-.83-3.46-1.57-1.17-1.01-1.77-2.11-1.9-3.17-.17-1.38-.82-2.81-.55-4.05s1.73-1.9,2.78-2.93c.81-.79,1.3-2.41,2.75-3.02,1.06-.45,2.5-.51,3.98-.85,1.36-.31,2.67-.82,3.92-.93,1.41-.13,2.81.04,4.03.08,1.49.06,2.77.78,3.9.96,2.4.4,2.14-.27,3.79.83s1.69,1.03,3.24,2.28,1.53,1.27,3.07,2.52,2.2.67,3.46,2.2c1.14,1.39.91,1.68,1.71,3.28s.35,1.83,1.15,3.43.92,1.51,1.88,3.03,1.01,1.66,1.21,3.44Z"/>
    <path class="cls-4" d="M74.44,107.17c-.78-1.62-1.63.19-3.77-.18-1.04-.18-2.23-.39-3.54-.57-1.13-.16-2.33-.29-3.56-.41s-2.37-.29-3.57-.35-2.43-.1-3.57-.07c-1.3.04-2.42.38-3.48.59-1.42.28-2.36.48-3.06,1.17-.94.93-2.23,1.59-2.69,2.74s-.58,2.58-.51,3.86.6,2.45,1.17,3.65c.52,1.09.9,2.46,1.85,3.43.83.85,2.03,1.53,3.21,2.22s2.37,1.42,3.57,1.81c1.31.43,2.8-.1,4.02.06,1.44.19,2.71.09,3.86.06,2.34-.05,4.98,1.84,3.94.17-1.15-1.84-1.49-1.62-3.21-2.94s-1.57-1.57-3.36-2.78c.86.91,1.68,1.85,2.5,2.56.96.83,1.39,2.2,2.28,2.79,1.08.72,2.32.96,3.28,1.39,1.24.57,2.47.5,3.41.72,2.16.51,2.71,2.35,3.14.65s-.55-1.58-.74-3.3.8-1.83.61-3.54-.88-1.64-1.07-3.35-.33-1.7-.53-3.41-.21-1.76-.17-3.49.72-1.95-.02-3.51Z"/>
    <path class="cls-1" d="M82.24,135.87c-1.87-.69-1.64.12-4.04-.27-1.13-.19-2.43-.2-3.92-.25-1.23-.05-2.53-.25-3.94-.12-1.25.11-2.52.4-3.88.71-1.48.34-2.61.88-3.68,1.33-1.45.61-3.09.51-3.9,1.29-1.05,1.02-1.04,2.6-1.31,3.85s-.76,2.57-.59,3.95c.13,1.06,1.4,1.81,2.57,2.82.85.74,1.7,1.69,2.97,2.32,1.06.53,2.06,1.61,3.36,2.01,1.17.36,2.66-.28,3.96-.05,1.22.22,2.42.82,3.73.9s2.53,0,3.83-.08,2.49-.42,3.76-.65"/>
    <path class="cls-1" d="M73.01,150.03c1.65.8,1.18.81,3.29,1.65.98.39,2.37.2,3.68.66,1.07.38,2.04,1.38,3.28,1.75,1.12.34,2.4.34,3.64.65,1.16.29,2.35.57,3.58.81s2.45-.01,3.68.15,2.37.71,3.59.78"/>
    <path d="M72.47,111.85s-1.13,13.27-.63,15.72l4.77.25,1.19-6.08-2.99-5.36-2.34-4.53Z"/>
    <polygon points="84.71 140.09 86.31 151.99 88.55 154.77 92.12 155.79 93.53 155.27 94.68 147.87 92.92 143.85 84.71 140.09"/>
    <g>
      <path class="cls-4" d="M86.49,82.35c-.71-.43-1.79-.36-2.52-.89-.68-.5-1.47-.94-2.15-1.51s-1.12-1.36-1.76-1.96-.88-1.57-1.49-2.2-1.8-.7-2.38-1.34-1.05-1.42-1.6-2.08-.76-1.64-1.27-2.32c-.53-.72-1.61-1.05-2.07-1.75-.5-.77-.51-1.79-.9-2.51-.45-.83-.89-1.58-1.17-2.32s-.41-1.58-.78-2.24c-.4-.7-.68-1.54-1.16-2.12-.51-.63-1.32-1.03-1.89-1.52-.63-.54-1.53-.6-2.18-.94-.76-.39-1.41-.72-2.11-.8-.85-.11-1.53-.03-2.17.35-.72.44-1.45.82-1.98,1.43s-.6,1.48-.92,2.25c-.31.73-1.13,1.34-1.24,2.19-.11.77.11,1.63.17,2.49.05.78.69,1.48.88,2.32.17.76.32,1.51.6,2.33.26.74-.1,1.76.25,2.54.3.67.75,1.38,1.17,2.17.36.68,1.38,1.03,1.83,1.77.4.67.12,1.82.59,2.53.44.66.98,1.3,1.49,1.97.48.63,1.12,1.18,1.66,1.82s.98,1.3,1.56,1.91,1.48.81,2.09,1.38.75,1.61,1.4,2.13,1.74.41,2.41.9,1.26,1.01,1.96,1.45,1.31.95,2.04,1.35,1.14,1.38,1.9,1.73"/>
      <path class="cls-1" d="M86.49,82.35c-.71-.43-1.79-.36-2.52-.89-.68-.5-1.47-.94-2.15-1.51s-1.12-1.36-1.76-1.96-.88-1.57-1.49-2.2-1.8-.7-2.38-1.34-1.05-1.42-1.6-2.08-.76-1.64-1.27-2.32c-.53-.72-1.61-1.05-2.07-1.75-.5-.77-.51-1.79-.9-2.51-.45-.83-.89-1.58-1.17-2.32s-.41-1.58-.78-2.24c-.4-.7-.68-1.54-1.16-2.12-.51-.63-1.32-1.03-1.89-1.52-.63-.54-1.53-.6-2.18-.94-.76-.39-1.41-.72-2.11-.8-.85-.11-1.53-.03-2.17.35-.72.44-1.45.82-1.98,1.43s-.6,1.48-.92,2.25c-.31.73-1.13,1.34-1.24,2.19-.11.77.11,1.63.17,2.49.05.78.69,1.48.88,2.32.17.76.32,1.51.6,2.33.26.74-.1,1.76.25,2.54.3.67.75,1.38,1.17,2.17.36.68,1.38,1.03,1.83,1.77.4.67.12,1.82.59,2.53.44.66.98,1.3,1.49,1.97.48.63,1.12,1.18,1.66,1.82s.98,1.3,1.56,1.91,1.48.81,2.09,1.38.75,1.61,1.4,2.13,1.74.41,2.41.9,1.26,1.01,1.96,1.45,1.31.95,2.04,1.35,1.14,1.38,1.9,1.73"/>
    </g>
    <path class="cls-1" d="M76.57,127.57c-1.73.25-1.31.6-3.48.09-.95-.22-2.2-.37-3.43-.94-.95-.44-1.93-1.18-3.01-1.89-.89-.59-1.53-1.68-2.49-2.51-.83-.71-1.96-1.21-2.82-2.12"/>
    <path class="cls-1" d="M74.17,107.74c-1.76-.38-1.2-1.33-3.34-1.7-1.04-.18-2.42.73-3.73.55-1.13-.16-2.28-.68-3.51-.81s-2.4.09-3.6.02-2.42-.27-3.57-.24c-1.3.04-2.58-.42-3.64-.2-1.42.28-2.64.86-3.33,1.55-.94.93-1.45,2.17-1.9,3.32s-.7,2.43-.63,3.72.8,2.26,1.37,3.46c.52,1.09,1.19,1.96,2.14,2.93.83.85,1.47,1.98,2.65,2.67,1.09.64,2.29.82,3.35,1.21,1.21.44,2.18,1.43,3.27,1.62,1.32.23,2.59-.28,3.63-.28,2.17,0,1.94.85,3.68.41"/>
    <g>
      <path class="cls-6" d="M169.37,85.78c1.28-1.26,1.44-.52,3.15-1.84.83-.64,1.66-1.55,2.78-2.26.96-.61,1.7-1.81,2.82-2.36,1.05-.52,2.48-.31,3.63-.69s2.23-.98,3.42-1.13,2.38.17,3.58.31,2.36.17,3.51.65,2.34,1.36,2.74,2.69c.32,1.04.2,2.44.16,3.87-.04,1.15.08,2.47-.14,3.82-.19,1.18-1.13,2.29-1.43,3.57-.27,1.19.19,2.61-.14,3.86s-1.38,2.22-1.74,3.44-1.08,2.3-1.45,3.51c-.39,1.28-.58,2.49-1.16,3.54-.65,1.18-1.6,1.98-2.36,2.88-.91,1.08-1.38,2.38-2.23,3.08-1.76,1.44-1.33,1.53-3.05,2.35"/>
      <path class="cls-1" d="M169.37,85.78c1.28-1.26,1.44-.52,3.15-1.84.83-.64,1.66-1.55,2.78-2.26.96-.61,1.7-1.81,2.82-2.36,1.05-.52,2.48-.31,3.63-.69s2.23-.98,3.42-1.13,2.38.17,3.58.31,2.36.17,3.51.65,2.34,1.36,2.74,2.69c.32,1.04.2,2.44.16,3.87-.04,1.15.08,2.47-.14,3.82-.19,1.18-1.13,2.29-1.43,3.57-.27,1.19.19,2.61-.14,3.86s-1.38,2.22-1.74,3.44-1.08,2.3-1.45,3.51c-.39,1.28-.58,2.49-1.16,3.54-.65,1.18-1.6,1.98-2.36,2.88-.91,1.08-1.38,2.38-2.23,3.08-1.76,1.44-1.33,1.53-3.05,2.35"/>
    </g>
    <g>
      <path class="cls-6" d="M79.15,135.4c-.67-1.37-1.35-2.72-1.52-4.19s.07-2.99.09-4.48c.02-1.22.41-2.94.01-4.11-.34-1-1.08-2.16-1.61-3.1-.65-1.13-1.97-1.89-2.62-3.04s-.8-2.58-1.51-3.68-2.05-1.73-2.88-2.74-1.2-2.45-2.21-3.3c-1.26-1.07-2.88-1.77-4-2.98-.83-.9-.92-2.25-1.41-3.36s-1.23-2.1-1.38-3.31-.34-2.46-.13-3.66.24-2.62.83-3.69c.61-1.13,2.08-1.63,2.95-2.48s1.93-1.4,3.02-2,1.96-1.7,3.16-2.04,2.5-.26,3.74-.35,2.48.06,3.7.19c1.08.12,2.23-.33,3.37-.3s2.24.65,3.36.58,2.13-.99,3.23-1.17,2.32.23,3.39-.06,2.21-.57,3.23-1,1.62-1.67,2.55-2.28c.84-.54,2.31-.62,3.46-1.53.88-.7,1.67-1.72,2.72-2.55.92-.73,1.97-1.4,3.02-2.18.96-.72,1.73-1.78,2.79-2.5,1-.69,2.35-.88,3.44-1.55s1.96-1.52,3.08-2.11,2.15-1.25,3.3-1.75,2.4-.65,3.59-1.05,2.2-1.37,3.42-1.66,2.6.5,3.85.34,2.39-.42,3.65-.43c1.87-.01,1.45-.87,3.78-.63,1.06.11,2.23.93,3.62,1.15,1.13.18,2.37.34,3.67.63,1.15.25,2.31.76,3.56,1.11,1.15.33,2.6-.08,3.81.34,1.14.4,2.02,1.62,3.19,2.12s2.44.59,3.57,1.16,2.14,1.25,3.23,1.9,1.73,1.83,2.77,2.56,2.65.61,3.62,1.42,1.85,1.7,2.75,2.59,1.75,1.8,2.57,2.76c.62.73,1.04,1.59,1.6,2.31.59.75.98,1.62,1.5,2.36.72,1.02,1.69,1.9,2.3,2.98s.82,2.39,1.32,3.52,1.53,2.11,1.9,3.29.69,2.45.95,3.66.19,2.53.32,3.76-.53,2.51-.52,3.75.76,2.51.65,3.74-.14,2.53-.37,3.75-1,2.33-1.36,3.53-.19,2.59-.65,3.75-1.48,2.08-2.06,3.19-1.6,1.91-2.29,2.95-.81,2.48-1.6,3.44-1.65,1.89-2.53,2.78c-.09.09-.69-.32-.78-.23-.83.82-1.71,1.73-2.59,2.69-.8.88-1.09,2.29-1.95,3.25-.81.9-2.09,1.41-2.95,2.35s-1.44,2.02-2.32,2.92-1.46,2.06-2.38,2.91-1.85,1.68-2.82,2.47c-1.07.87-2.58,1-3.55,1.69-1.11.79-2.27,1.29-3.29,1.93-1.13.71-1.88,1.88-2.94,2.53s-2.1,1.41-3.17,2.15c-1.01.69-2.41.95-3.45,1.82-.91.77-1.97,1.56-2.94,2.55-.84.85-1.12,2.16-1.85,2.98-.79.89-1.29,1.96-1.98,2.81-.76.93-1.48,1.8-2.14,2.66-.75.96-1.75,1.62-2.43,2.45-.77.95-1.48,1.85-2.22,2.6-.86.87-2.05,1.07-2.97,1.62-.97.59-1.71,1.49-2.89,1.66-1.02.15-2.23.7-3.49.5-1.57-.25-2.45-1.56-3.34-2.09-1.29-.77-2.57-1.29-3-2.39-.47-1.2-.28-2.65-.6-3.85s-.61-2.66-1.76-3.46c-1.05-.73-2.43-.4-3.54-.69s-2.25-.7-3.4-1c-1.09-.29-2-1.09-3.06-1.81-.85-.59-2.13-.98-2.94-2.1-.7-.96-1.16-2.15-1.39-3.21s-.3-2.32-.24-3.45.3-2.28.46-3.37c.17-1.18.34-2.26.37-3.29.03-1.24-.29-2-.9-2.87s-1.34-1.41-2.6-1.92c-1.02-.42-1.93-1.46-3.13-1.83-1.12-.35-2.3-.59-3.4-1.03s-2.31-.78-3.24-1.48-1.59-1.69-2.13-2.8Z"/>
      <path class="cls-1" d="M79.15,135.4c-.67-1.37-1.35-2.72-1.52-4.19s.07-2.99.09-4.48c.02-1.22.41-2.94.01-4.11-.34-1-1.08-2.16-1.61-3.1-.65-1.13-1.97-1.89-2.62-3.04s-.8-2.58-1.51-3.68-2.05-1.73-2.88-2.74-1.2-2.45-2.21-3.3c-1.26-1.07-2.88-1.77-4-2.98-.83-.9-.92-2.25-1.41-3.36s-1.23-2.1-1.38-3.31-.34-2.46-.13-3.66.24-2.62.83-3.69c.61-1.13,2.08-1.63,2.95-2.48s1.93-1.4,3.02-2,1.96-1.7,3.16-2.04,2.5-.26,3.74-.35,2.48.06,3.7.19c1.08.12,2.23-.33,3.37-.3s2.24.65,3.36.58,2.13-.99,3.23-1.17,2.32.23,3.39-.06,2.21-.57,3.23-1,1.62-1.67,2.55-2.28c.84-.54,2.31-.62,3.46-1.53.88-.7,1.67-1.72,2.72-2.55.92-.73,1.97-1.4,3.02-2.18.96-.72,1.73-1.78,2.79-2.5,1-.69,2.35-.88,3.44-1.55s1.96-1.52,3.08-2.11,2.15-1.25,3.3-1.75,2.4-.65,3.59-1.05,2.2-1.37,3.42-1.66,2.6.5,3.85.34,2.39-.42,3.65-.43c1.87-.01,1.45-.87,3.78-.63,1.06.11,2.23.93,3.62,1.15,1.13.18,2.37.34,3.67.63,1.15.25,2.31.76,3.56,1.11,1.15.33,2.6-.08,3.81.34,1.14.4,2.02,1.62,3.19,2.12s2.44.59,3.57,1.16,2.14,1.25,3.23,1.9,1.73,1.83,2.77,2.56,2.65.61,3.62,1.42,1.85,1.7,2.75,2.59,1.75,1.8,2.57,2.76c.62.73,1.04,1.59,1.6,2.31.59.75.98,1.62,1.5,2.36.72,1.02,1.69,1.9,2.3,2.98s.82,2.39,1.32,3.52,1.53,2.11,1.9,3.29.69,2.45.95,3.66.19,2.53.32,3.76-.53,2.51-.52,3.75.76,2.51.65,3.74-.14,2.53-.37,3.75-1,2.33-1.36,3.53-.19,2.59-.65,3.75-1.48,2.08-2.06,3.19-1.6,1.91-2.29,2.95-.81,2.48-1.6,3.44-1.65,1.89-2.53,2.78c-.09.09-.69-.32-.78-.23-.83.82-1.71,1.73-2.59,2.69-.8.88-1.09,2.29-1.95,3.25-.81.9-2.09,1.41-2.95,2.35s-1.44,2.02-2.32,2.92-1.46,2.06-2.38,2.91-1.85,1.68-2.82,2.47c-1.07.87-2.58,1-3.55,1.69-1.11.79-2.27,1.29-3.29,1.93-1.13.71-1.88,1.88-2.94,2.53s-2.1,1.41-3.17,2.15c-1.01.69-2.41.95-3.45,1.82-.91.77-1.97,1.56-2.94,2.55-.84.85-1.12,2.16-1.85,2.98-.79.89-1.29,1.96-1.98,2.81-.76.93-1.48,1.8-2.14,2.66-.75.96-1.75,1.62-2.43,2.45-.77.95-1.48,1.85-2.22,2.6-.86.87-2.05,1.07-2.97,1.62-.97.59-1.71,1.49-2.89,1.66-1.02.15-2.23.7-3.49.5-1.57-.25-2.45-1.56-3.34-2.09-1.29-.77-2.57-1.29-3-2.39-.47-1.2-.28-2.65-.6-3.85s-.61-2.66-1.76-3.46c-1.05-.73-2.43-.4-3.54-.69s-2.25-.7-3.4-1c-1.09-.29-2-1.09-3.06-1.81-.85-.59-2.13-.98-2.94-2.1-.7-.96-1.16-2.15-1.39-3.21s-.3-2.32-.24-3.45.3-2.28.46-3.37c.17-1.18.34-2.26.37-3.29.03-1.24-.29-2-.9-2.87s-1.34-1.41-2.6-1.92c-1.02-.42-1.93-1.46-3.13-1.83-1.12-.35-2.3-.59-3.4-1.03s-2.31-.78-3.24-1.48-1.59-1.69-2.13-2.8Z"/>
    </g>
    <g>
      <path class="cls-6" d="M128.89,63.64c.07-1.68.36-1.32.69-3.33.16-.97-.05-2.2.25-3.41.26-1.03.78-2.09,1.19-3.2.37-1.03,1.01-2.01,1.53-3.03s1.18-1.9,1.85-2.82,1.66-1.45,2.49-2.22,1.23-2.09,2.23-2.64c.95-.52,2.2-.5,3.34-.79,1.26-.33,2.32,0,3.44.2s2.41.12,3.43.8c.95.63,1.92,1.41,2.74,2.36.75.86,1.17,2.05,1.83,3.11.62.99,1.53,1.86,2.06,2.96s1.13,2.13,1.57,3.25.7,2.32,1.08,3.45.9,2.28,1.22,3.4c.35,1.22.66,2.4.93,3.49.32,1.3,0,2.62.2,3.64.44,2.16.08,1.78.34,3.56"/>
      <path class="cls-1" d="M128.89,63.64c.07-1.68.36-1.32.69-3.33.16-.97-.05-2.2.25-3.41.26-1.03.78-2.09,1.19-3.2.37-1.03,1.01-2.01,1.53-3.03s1.18-1.9,1.85-2.82,1.66-1.45,2.49-2.22,1.23-2.09,2.23-2.64c.95-.52,2.2-.5,3.34-.79,1.26-.33,2.32,0,3.44.2s2.41.12,3.43.8c.95.63,1.92,1.41,2.74,2.36.75.86,1.17,2.05,1.83,3.11.62.99,1.53,1.86,2.06,2.96s1.13,2.13,1.57,3.25.7,2.32,1.08,3.45.9,2.28,1.22,3.4c.35,1.22.66,2.4.93,3.49.32,1.3,0,2.62.2,3.64.44,2.16.08,1.78.34,3.56"/>
    </g>
    <g>
      <path class="cls-4" d="M133.47,78.76c-2.53.63-4.31,2.05-5.55,3.74-1.37,1.88-2.31,4.14-2.54,6.31-.3,2.82-.02,5.71.67,6.94s2.52,3.6,4.75,5.53c1.74,1.5,4.05,2.29,6.62,2.39,2.01.08,4.17-.38,6.66-2.01,1.77-1.16,2.85-3.07,3.35-5.44.43-2.05.59-4.35.14-6.61s-1.61-4.13-2.83-5.94-2.54-3.89-4.59-4.73c-1.88-.77-4.19-.79-6.68-.17Z"/>
      <path class="cls-1" d="M133.47,78.76c-2.53.63-4.31,2.05-5.55,3.74-1.37,1.88-2.31,4.14-2.54,6.31-.3,2.82-.02,5.71.67,6.94s2.52,3.6,4.75,5.53c1.74,1.5,4.05,2.29,6.62,2.39,2.01.08,4.17-.38,6.66-2.01,1.77-1.16,2.85-3.07,3.35-5.44.43-2.05.59-4.35.14-6.61s-1.61-4.13-2.83-5.94-2.54-3.89-4.59-4.73c-1.88-.77-4.19-.79-6.68-.17Z"/>
    </g>
    <g>
      <path class="cls-4" d="M147.24,105.11c-1.66,1.47-3.34,3.77-3.38,6.35-.04,2.16,1.23,4.5,2.88,6.65,1.25,1.63,3.32,2.66,5.81,3.92,2.66,1.36,4.93,2.69,7.15,2.48,2.73-.26,4.74-2.18,6.49-3.84,2.01-1.9,3.52-4.08,3.77-6.32.31-2.84-.24-5.59-1.75-7.62s-4.27-3.01-6.8-3.69-4.92-1.28-7.39-.94c-2.32.32-4.6,1.05-6.8,3.01Z"/>
      <path class="cls-1" d="M147.24,105.11c-1.66,1.47-3.34,3.77-3.38,6.35-.04,2.16,1.23,4.5,2.88,6.65,1.25,1.63,3.32,2.66,5.81,3.92,2.66,1.36,4.93,2.69,7.15,2.48,2.73-.26,4.74-2.18,6.49-3.84,2.01-1.9,3.52-4.08,3.77-6.32.31-2.84-.24-5.59-1.75-7.62s-4.27-3.01-6.8-3.69-4.92-1.28-7.39-.94c-2.32.32-4.6,1.05-6.8,3.01Z"/>
    </g>
    <g>
      <path class="cls-1" d="M120.57,72.78c-1.09-.54-.96-.31-2.23-1.1-.6-.37-.96-1.34-1.71-1.87-.62-.44-1.04-1.22-1.7-1.76-.61-.5-1.1-1.12-1.71-1.7s-1.84-.46-2.39-1.08-.39-1.77-.86-2.43-1.22-1.12-1.6-1.85-1.13-1.31-1.4-2.08-.33-1.64-.47-2.46"/>
      <path class="cls-1" d="M89.56,68.51c1.22.2.96.06,2.47.42.69.17,1.42.72,2.32.98.73.21,1.32,1.1,2.16,1.37.75.25,1.57.34,2.38.65.75.28,1.79-.08,2.58.25.74.32,1.5.69,2.26,1.06s1.29,1.11,2.02,1.52,1.6.55,2.3,1,.93,1.56,1.6,2.05,1.33.93,1.96,1.47"/>
    </g>
    <g>
      <path class="cls-1" d="M186.87,136.03c-1.22.43-1.14-.11-2.69.15-.74.13-1.62.28-2.58.32-.81.04-1.67-.2-2.59-.28-.83-.07-1.77.23-2.64.03-.82-.19-1.32-1.28-2.12-1.72-.75-.41-1.85-.27-2.59-.78s-1.34-1.18-2.06-1.66-1.53-.93-2.29-1.3"/>
      <path class="cls-1" d="M189.77,122.81c-1.18.57-.98.21-2.52.69-.72.22-1.45.9-2.41,1.1-.8.17-1.66.48-2.59.58-.83.09-1.74-.59-2.65-.6-.85,0-1.7.16-2.6.04-.85-.11-1.71-.16-2.58-.39s-1.8-.11-2.63-.46"/>
    </g>
    <path class="cls-2" d="M113.07,99.28c-.44,1.92-.5,1.64-1.35,3.67-.47,1.14-.67,2.62-1.44,3.72s-2.15,1.59-3.27,2.16-1.85,1.53-2.72,1.56c-1.14.04-2.26-.44-3.06-.95-.92-.59-1.6-1.56-2.12-2.29-.68-.96.51-1.82,1.38-2.92.79-1,1.31-2.34,1.64-3.2.68-1.81.78-2.22.65-4.49"/>
    <path class="cls-2" d="M147.93,133.22c-.02,1.78.07,1.47-.5,3.51-.28,1-.52,2.24-1.13,3.42-.51.99-1,2.2-1.83,3.17-.92,1.08-2.15,1.64-3,2.28-1.2.89-2.27,1.94-3.3,2.06-1.28.14-2.34-1.04-3.3-1.93-1.19-1.11-.83-2.33-.01-3.73.75-1.29,2.31-2.53,2.45-3.72.11-.96-.48-2.17-.62-3.21"/>
    <circle class="cls-3" cx="138.22" cy="97.18" r="3.85"/>
    <circle class="cls-3" cx="151.76" cy="110.72" r="3.85"/>
  </g>
  <g>
    <path class="cls-5" d="M38.09,54.56c-1.69,0-2.77-.79-2.77-2.49s1.08-2.51,2.77-2.51,3.15.81,3.15,2.51-1.47,2.49-3.15,2.49Z"/>
    <path class="cls-1" d="M38.09,54.56c-1.69,0-2.77-.79-2.77-2.49s1.08-2.51,2.77-2.51,3.15.81,3.15,2.51-1.47,2.49-3.15,2.49Z"/>
  </g>
  <g>
    <path class="cls-5" d="M18.99,63.36c-1.69,0-2.77-.79-2.77-2.49s1.08-2.51,2.77-2.51,3.15.81,3.15,2.51-1.47,2.49-3.15,2.49Z"/>
    <path class="cls-1" d="M18.99,63.36c-1.69,0-2.77-.79-2.77-2.49s1.08-2.51,2.77-2.51,3.15.81,3.15,2.51-1.47,2.49-3.15,2.49Z"/>
  </g>
  <g>
    <path class="cls-5" d="M16.2,27.51c-.09-1.91.65-3.21,2.34-3.28s2.56,1.15,2.65,3.05-.65,3.59-2.34,3.67-2.56-1.53-2.65-3.44Z"/>
    <path class="cls-1" d="M16.2,27.51c-.09-1.91.65-3.21,2.34-3.28s2.56,1.15,2.65,3.05-.65,3.59-2.34,3.67-2.56-1.53-2.65-3.44Z"/>
  </g>
  <g>
    <path d="M74.73,186.12c0-.83.56-1.72,1.92-2.38.83-.4,1.8-1.16,3.01-1.46.97-.24,2.12-.34,3.28-.51,1.02-.15,2.14-.23,3.28-.3,1.05-.07,2.17.22,3.29.22s2.21.26,3.26.33c1.14.07,2.17.54,3.19.69,1.16.17,2.27.02,3.24.26,1.21.31,2.12.85,2.95,1.25,1.35.66,2.87,1.07,2.87,1.9,0,.97-.93,1.99-1.93,2.83-.67.55-1.49,1.51-2.77,1.88-.89.26-2.08.02-3.31.15-.96.1-2.05-.5-3.24-.5-.9,0-2.34,1.04-3.86.91-1.25-.11-2.55-.64-3.78-.78-1.59-.18-2.9-1.05-3.68-1.18-1.09-.17-2.02-.41-2.92-.66-1.13-.31-2.35.1-3.11-.3-1.24-.64-1.69-1.56-1.69-2.35Z"/>
    <path class="cls-1" d="M74.73,186.12c0-.83.56-1.72,1.92-2.38.83-.4,1.8-1.16,3.01-1.46.97-.24,2.12-.34,3.28-.51,1.02-.15,2.14-.23,3.28-.3,1.05-.07,2.17.22,3.29.22s2.21.26,3.26.33c1.14.07,2.17.54,3.19.69,1.16.17,2.27.02,3.24.26,1.21.31,2.12.85,2.95,1.25,1.35.66,2.87,1.07,2.87,1.9,0,.97-.93,1.99-1.93,2.83-.67.55-1.49,1.51-2.77,1.88-.89.26-2.08.02-3.31.15-.96.1-2.05-.5-3.24-.5-.9,0-2.34,1.04-3.86.91-1.25-.11-2.55-.64-3.78-.78-1.59-.18-2.9-1.05-3.68-1.18-1.09-.17-2.02-.41-2.92-.66-1.13-.31-2.35.1-3.11-.3-1.24-.64-1.69-1.56-1.69-2.35Z"/>
  </g>
  <path class="cls-1" d="M17.18,72.04c2.43,0,2.43-.7,4.87-.7s2.43.35,4.87.35c2.77,0,2.77-.54,5.54-.54s2.77-.04,5.54-.04,2.77.29,5.54.29"/>
  <path class="cls-1" d="M32.46,78.46c2.48-.02,2.49.95,4.97.92s2.48-.03,4.96-.06c2.29-.02,2.28-.71,4.58-.73s2.29-.17,4.58-.19"/>
  <path class="cls-1" d="M12.21,85.03c2.58.03,2.59-.67,5.16-.65s2.58.37,5.15.4c2.2.02,2.2-.52,4.4-.5s2.2-.01,4.39,0"/>
  <path class="cls-1" d="M22.9,142.15c1.86.08,1.82,1.05,3.68,1.12s1.86.07,3.72.15c2.86.12,2.89-.56,5.76-.45,2.68.11,2.69-.04,5.37.07"/>
  <path class="cls-1" d="M29.58,150.43c2.27-.02,2.26-.72,4.53-.73s2.27.33,4.54.31,2.27-.56,4.53-.58,2.27-.05,4.54-.07c1.81-.01,1.82.28,3.63.26s1.81-.07,3.63-.08"/>
  <path class="cls-1" d="M50.45,170.07c0,.96-.8,2.3-1.57,2.3s-1.68-1.34-1.68-2.3.91-2.15,1.68-2.15,1.57,1.19,1.57,2.15Z"/>
  <path class="cls-1" d="M12.01,51.16c0,.5.04,1.21-.36,1.21s-.96-.71-.96-1.21.56-1.48.96-1.48.36.98.36,1.48Z"/>
</svg>