<?xml version="1.0" encoding="UTF-8"?>
<svg id="_레이어_1" data-name="레이어 1" xmlns="http://www.w3.org/2000/svg" viewBox="0 0 200 200">
  <defs>
    <style>
      .cls-1 {
        stroke-width: 2.4px;
      }

      .cls-1, .cls-2 {
        fill: none;
        stroke-linecap: round;
        stroke-linejoin: round;
      }

      .cls-1, .cls-2, .cls-3 {
        stroke: #000;
      }

      .cls-2 {
        stroke-width: 2.4px;
      }

      .cls-4 {
        fill: #ffaf42;
      }

      .cls-3 {
        stroke-miterlimit: 10;
        stroke-width: 1.2px;
      }

      .cls-5 {
        fill: #fff;
      }
    </style>
  </defs>
  <g>
    <path class="cls-4" d="M136.26,138.09c.38,1.37.24,1.13.47,2.81.12.83.24,1.79.27,2.83.03.9-.14,1.86-.24,2.83s-.19,1.87-.45,2.8-.74,1.71-1.2,2.55-1.01,1.5-1.72,2.18c-.65.63-1.17,1.5-2.06,1.97-.78.41-1.71.74-2.7.99-.93.23-1.83.25-2.62.42-.96.2-1.85.14-2.64.27-1,.16-1.81.82-2.57.88-1.11.08-2.02-.02-2.69-.09-2.12-.22-1.15-1.84-2.41-1.43s-.75.98-1.66,2.3c-.45.65-.55,1.73-1.21,2.46-.58.64-1.43,1.07-2.15,1.65s-1.5.88-2.32,1.29-1.39,1.55-2.29,1.73c-.85.16-1.85-.36-2.8-.47-1.08-.12-1.6-.89-2.22-1.67-.56-.7-1.27-1.37-1.54-2.44-.23-.9-.43-1.89-.5-2.95-.06-.96.54-1.95.57-2.97s-.3-2.01-.2-2.99.49-1.99.63-2.93c.17-1.09.52-2.04.68-2.9.35-1.77-.29-1.58.07-3.03"/>
    <path class="cls-2" d="M136.26,138.09c.38,1.37.24,1.13.47,2.81.12.83.24,1.79.27,2.83.03.9-.14,1.86-.24,2.83s-.19,1.87-.45,2.8-.74,1.71-1.2,2.55-1.01,1.5-1.72,2.18c-.65.63-1.17,1.5-2.06,1.97-.78.41-1.71.74-2.7.99-.93.23-1.83.25-2.62.42-.96.2-1.85.14-2.64.27-1,.16-1.81.82-2.57.88-1.11.08-2.02-.02-2.69-.09-2.12-.22-1.15-1.84-2.41-1.43s-.75.98-1.66,2.3c-.45.65-.55,1.73-1.21,2.46-.58.64-1.43,1.07-2.15,1.65s-1.5.88-2.32,1.29-1.39,1.55-2.29,1.73c-.85.16-1.85-.36-2.8-.47-1.08-.12-1.6-.89-2.22-1.67-.56-.7-1.27-1.37-1.54-2.44-.23-.9-.43-1.89-.5-2.95-.06-.96.54-1.95.57-2.97s-.3-2.01-.2-2.99.49-1.99.63-2.93c.17-1.09.52-2.04.68-2.9.35-1.77-.29-1.58.07-3.03"/>
  </g>
  <g>
    <path class="cls-4" d="M107.33,145.51c.71,1.21.6.88,1.29,2.42.33.74.66,1.6,1,2.57.29.83,1.44,1.46,1.69,2.41.23.88.41,1.85.55,2.79s-.03,1.91-.02,2.85.14,1.94-.01,2.86c-.17,1.01-.6,1.92-.7,2.84-.12,1.04-.67,2-.66,2.9,0,1.06.9,1.9,1.14,2.77.27.98,0,2.21.65,2.93.6.66,1.64,1.01,2.64,1.45.79.35,1.78.37,2.86.57.9.17,1.79.67,2.77.82s1.94-.27,2.9-.19,1.88.46,2.83.47,1.96.18,2.88.07c.98-.12,2.04-.07,2.91-.36.94-.31,1.61-1.22,2.36-1.76s1.79-.97,2.3-1.82c.46-.76.88-1.75,1.09-2.77s.23-2.07.15-2.92c-.1-1.02-.53-1.99-.93-2.77-.45-.88-1.24-1.53-1.91-2.14-.75-.68-1.48-1.39-2.24-1.78-1.43-.74-2.1.5-2.98-.6-.96-1.19.52-1.39.39-3.28-.06-.87-.24-1.91-.39-3.04-.12-.94-.91-1.84-1.11-2.91-.18-.96-.34-1.95-.61-2.97-.25-.96-.43-1.95-.77-2.93s-.34-2.04-.77-2.98-.99-1.78-1.52-2.66"/>
    <path class="cls-2" d="M107.33,145.51c.71,1.21.6.88,1.29,2.42.33.74.66,1.6,1,2.57.29.83,1.44,1.46,1.69,2.41.23.88.41,1.85.55,2.79s-.03,1.91-.02,2.85.14,1.94-.01,2.86c-.17,1.01-.6,1.92-.7,2.84-.12,1.04-.67,2-.66,2.9,0,1.06.9,1.9,1.14,2.77.27.98,0,2.21.65,2.93.6.66,1.64,1.01,2.64,1.45.79.35,1.78.37,2.86.57.9.17,1.79.67,2.77.82s1.94-.27,2.9-.19,1.88.46,2.83.47,1.96.18,2.88.07c.98-.12,2.04-.07,2.91-.36.94-.31,1.61-1.22,2.36-1.76s1.79-.97,2.3-1.82c.46-.76.88-1.75,1.09-2.77s.23-2.07.15-2.92c-.1-1.02-.53-1.99-.93-2.77-.45-.88-1.24-1.53-1.91-2.14-.75-.68-1.48-1.39-2.24-1.78-1.43-.74-2.1.5-2.98-.6-.96-1.19.52-1.39.39-3.28-.06-.87-.24-1.91-.39-3.04-.12-.94-.91-1.84-1.11-2.91-.18-.96-.34-1.95-.61-2.97-.25-.96-.43-1.95-.77-2.93s-.34-2.04-.77-2.98-.99-1.78-1.52-2.66"/>
  </g>
  <g>
    <path class="cls-4" d="M97.16,96.59c-.55.67-1.05,1.35-1.62,1.95s-1.19,1.22-1.81,1.78-1.15,1.3-1.81,1.81-1.17,1.36-1.88,1.81-2.05-.14-2.79.24-1.3,1.18-2.08,1.49-1.44,1.08-2.24,1.32-1.83-.29-2.66-.12-1.54,1.03-2.38,1.14-1.73-.11-2.57-.06-1.71.44-2.55.42-1.73-.06-2.57-.13-1.68-.42-2.51-.56-1.74-.07-2.56-.26-1.68-.41-2.49-.65-1.66-.51-2.44-.8-1.31-1.32-2.07-1.67-1.68-.45-2.41-.85c-.77-.41-1.27-1.2-1.96-1.65-.75-.48-1.74-.54-2.51-.88-.82-.36-1.66-.58-2.47-.79-.88-.22-1.73-.37-2.55-.43-.92-.06-1.77.02-2.57.15-.94.15-1.57.7-2.26,1.09-.82.46-1.72.68-2.03,1.45s.04,1.61-.05,2.38-.37,1.5-.24,2.29-.21,1.72.12,2.47c.3.7.91,1.34,1.39,2.02.43.62,1.4.84,1.98,1.44.53.55.49,1.77,1.13,2.3.59.48,1.61.48,2.3.94.64.42,1.05,1.3,1.77,1.7.68.38,1.69.33,2.54.74.73.35,1.63.41,2.47.76.76.32,1.47.82,2.32,1.13.78.28,1.62.47,2.47.73.8.24,1.57.69,2.42.9s1.73,0,2.6.17,1.56,1,2.43,1.12,1.74-.11,2.61-.04,1.71,0,2.58.02,1.71.3,2.59.26,1.66-.67,2.53-.77,1.82.67,2.68.52,1.49-1.27,2.34-1.47,1.71-.14,2.55-.39,1.87.17,2.69-.13,1.49-.93,2.29-1.28,1.25-1.33,2.03-1.72,1.47-.81,2.23-1.25,1.68-.49,2.42-.97"/>
    <path class="cls-1" d="M97.16,96.59c-.55.67-1.05,1.35-1.62,1.95s-1.19,1.22-1.81,1.78-1.15,1.3-1.81,1.81-1.17,1.36-1.88,1.81-2.05-.14-2.79.24-1.3,1.18-2.08,1.49-1.44,1.08-2.24,1.32-1.83-.29-2.66-.12-1.54,1.03-2.38,1.14-1.73-.11-2.57-.06-1.71.44-2.55.42-1.73-.06-2.57-.13-1.68-.42-2.51-.56-1.74-.07-2.56-.26-1.68-.41-2.49-.65-1.66-.51-2.44-.8-1.31-1.32-2.07-1.67-1.68-.45-2.41-.85c-.77-.41-1.27-1.2-1.96-1.65-.75-.48-1.74-.54-2.51-.88-.82-.36-1.66-.58-2.47-.79-.88-.22-1.73-.37-2.55-.43-.92-.06-1.77.02-2.57.15-.94.15-1.57.7-2.26,1.09-.82.46-1.72.68-2.03,1.45s.04,1.61-.05,2.38-.37,1.5-.24,2.29-.21,1.72.12,2.47c.3.7.91,1.34,1.39,2.02.43.62,1.4.84,1.98,1.44.53.55.49,1.77,1.13,2.3.59.48,1.61.48,2.3.94.64.42,1.05,1.3,1.77,1.7.68.38,1.69.33,2.54.74.73.35,1.63.41,2.47.76.76.32,1.47.82,2.32,1.13.78.28,1.62.47,2.47.73.8.24,1.57.69,2.42.9s1.73,0,2.6.17,1.56,1,2.43,1.12,1.74-.11,2.61-.04,1.71,0,2.58.02,1.71.3,2.59.26,1.66-.67,2.53-.77,1.82.67,2.68.52,1.49-1.27,2.34-1.47,1.71-.14,2.55-.39,1.87.17,2.69-.13,1.49-.93,2.29-1.28,1.25-1.33,2.03-1.72,1.47-.81,2.23-1.25,1.68-.49,2.42-.97"/>
  </g>
  <g>
    <path class="cls-5" d="M134.74,51.84c.57-1.1.42-.83,1.17-2.17.35-.62.12-1.72.59-2.52.39-.66,1.31-1.08,1.78-1.83.42-.67.39-1.69.86-2.4s1.73-.8,2.22-1.49.48-1.69.98-2.35.89-1.43,1.42-2.06.84-1.54,1.4-2.12c.59-.62,1.78-.6,2.38-1.12.66-.57,1.23-1.15,1.89-1.57.76-.48,1.53-.61,2.27-.82.84-.25,1.55-.59,2.34-.4s1.91.03,2.59.53.61,1.73,1.14,2.43c.48.63,1.69.88,2.08,1.66.36.71.1,1.76.39,2.57.27.76,1.14,1.38,1.36,2.2s-.39,1.79-.22,2.62.55,1.58.68,2.4.63,1.6.72,2.42.33,1.66.39,2.48,0,1.7.04,2.51c.05.86-.75,1.73-.73,2.53.03.89.86,1.71.87,2.48,0,.94-.74,1.77-.75,2.48-.03,1.55.23,1.24.16,2.48"/>
    <path class="cls-1" d="M134.74,51.84c.57-1.1.42-.83,1.17-2.17.35-.62.12-1.72.59-2.52.39-.66,1.31-1.08,1.78-1.83.42-.67.39-1.69.86-2.4s1.73-.8,2.22-1.49.48-1.69.98-2.35.89-1.43,1.42-2.06.84-1.54,1.4-2.12c.59-.62,1.78-.6,2.38-1.12.66-.57,1.23-1.15,1.89-1.57.76-.48,1.53-.61,2.27-.82.84-.25,1.55-.59,2.34-.4s1.91.03,2.59.53.61,1.73,1.14,2.43c.48.63,1.69.88,2.08,1.66.36.71.1,1.76.39,2.57.27.76,1.14,1.38,1.36,2.2s-.39,1.79-.22,2.62.55,1.58.68,2.4.63,1.6.72,2.42.33,1.66.39,2.48,0,1.7.04,2.51c.05.86-.75,1.73-.73,2.53.03.89.86,1.71.87,2.48,0,.94-.74,1.77-.75,2.48-.03,1.55.23,1.24.16,2.48"/>
  </g>
  <g>
    <path class="cls-5" d="M133.55,42.29c.85.14,1.61.72,2.45.91s1.75.1,2.57.33,1.72.29,2.53.57,1.57.75,2.36,1.08,1.63.6,2.4.97,1.64.62,2.39,1.03,1.24,1.31,1.96,1.76,1.39,1,2.09,1.49,1.34,1.05,2.01,1.58,1.21,1.2,1.84,1.78,1.34,1.06,1.93,1.67,1.26,1.16,1.81,1.81.69,1.61,1.2,2.3,1.49,1.04,1.94,1.76,1.29,1.26,1.69,2.01.88,1.52,1.22,2.31.34,1.74.62,2.55.64,1.62.85,2.45-.2,1.79-.06,2.64-.07,1.69,0,2.55.27,1.65.28,2.52c0,.13.67.26.67.4,0,.85.03,1.7,0,2.53s-.83,1.65-.88,2.48.78,1.75.71,2.58-1.12,1.6-1.2,2.43-.05,1.69-.13,2.53.82,1.77.74,2.61-.72,1.63-.78,2.46-.48,1.66-.52,2.5.79,1.7.78,2.55-.23,1.66-.2,2.51-.4,1.7-.33,2.54.91,1.57,1.03,2.41-.28,1.73-.1,2.56.12,1.7.35,2.52.7,1.54.98,2.35.68,1.54.95,2.3c.29.8-.04,1.81.24,2.56.3.81,1.46,1.26,1.73,2.01.29.81.79,1.52,1.04,2.27.28.82.06,1.78.28,2.53.24.84.72,1.6.87,2.36.18.86-.11,1.75-.07,2.53.05.87.63,1.79.48,2.57s-.59,1.69-.98,2.44c-.36.69-1.01,1.36-1.61,2.01-.52.56-1.21,1.1-1.92,1.64s-1.56.89-2.25,1.28c-.8.46-1.66.6-2.4.88-.86.33-1.68.34-2.47.49-.89.16-1.68.12-2.49.14-.89.02-1.74.87-2.56.84-.88-.03-1.7-.32-2.53-.27s-1.85-.41-2.68-.1-1.09,1.63-1.79,2.01c-.74.4-1.41.81-2.1,1.24s-1.41.9-2.15,1.29c-.7.37-1.8-.04-2.62.24-.73.25-1.52.13-2.4.28-.75.12-1.48.43-2.38.45-.85.01-1.67.3-2.47.18s-1.72-.01-2.51-.23-1.68-.35-2.44-.64-1.2-1.51-1.94-1.83c-.79-.33-1.53-.74-2.27-1.04-.81-.32-1.74-.27-2.49-.48-.84-.24-1.7-.57-2.49-.57-.73,0-1.55.56-2.47.75-.76.16-1.44.81-2.3,1.05-.77.22-1.55.51-2.38.76-.79.23-1.71.06-2.53.28s-1.67.22-2.49.41-1.72-.16-2.54-.05-1.61.52-2.43.54-1.61-.3-2.42-.42-1.57-.24-2.38-.46-1.8.28-2.59,0-1.24-1.4-2.02-1.7-1.97.47-2.73.17-1.19-1.58-1.94-1.86c-.8-.3-1.7-.29-2.46-.52-.83-.26-1.62-.68-2.38-.81-.88-.16-1.72.57-2.47.64s-1.66-.58-2.58-.42c-.77.13-1.6.25-2.47.4-.8.14-1.62.23-2.46.34s-1.58.98-2.42,1.03-1.72-.08-2.54-.13-1.72-.16-2.52-.35-1.56-.71-2.28-1.1-1.01-1.24-1.59-1.87-1.97-.64-2.46-1.38-.62-1.69-.98-2.49-.5-1.68-.73-2.52.24-1.75.15-2.62-.59-1.66-.53-2.53-.27-1.82-.05-2.67.87-1.55,1.24-2.36c.35-.76.52-1.7,1.03-2.44.47-.69,1.07-1.39,1.68-2.05.56-.61,1.66-.81,2.17-1.52s.66-1.6,1.1-2.35,1.05-1.36,1.43-2.13.38-1.69.71-2.48.45-1.64.75-2.44.93-1.47,1.19-2.28-.08-1.8.16-2.61,1.03-1.49,1.24-2.3.66-1.61.85-2.42c.21-.86.24-1.73.42-2.53.19-.87.7-1.64.86-2.42.19-.91-.24-1.87-.09-2.62s.38-1.51.51-2.43c.11-.76.07-1.61.18-2.49.1-.78.33-1.6.45-2.46.11-.79-.06-1.67.08-2.52.13-.8.57-1.57.73-2.41s.41-1.6.6-2.43.82-1.49,1.04-2.31-.51-1.87-.26-2.68.92-1.45,1.21-2.25,1.18-1.31,1.51-2.08.55-1.54.92-2.3.81-1.42,1.22-2.15.62-1.54,1.08-2.24.28-1.84.78-2.51,1.8-.69,2.34-1.34.94-1.36,1.53-1.96c.87-.91.06-1.28,1.26-2.33.53-.47,1.36-.83,2.11-1.43.6-.48,1.52-.66,2.26-1.19.64-.46,1.18-1.17,1.92-1.65.67-.44,1.44-.81,2.19-1.25.7-.41,1.43-.84,2.2-1.24.72-.38,1.53-.63,2.31-1s1.49-.73,2.29-1.05,1.51-.72,2.32-1,1.65-.3,2.47-.54,1.5-.87,2.33-1.07,1.61-.51,2.45-.67,1.71.02,2.55-.09,1.66-.3,2.51-.37,1.67-.41,2.52-.43,1.69.21,2.54.24,1.64.59,2.5.65c.97.07,1.95-.15,2.87-.04.97.11,1.96,0,2.88.15Z"/>
    <path class="cls-1" d="M133.55,42.29c.85.14,1.61.72,2.45.91s1.75.1,2.57.33,1.72.29,2.53.57,1.57.75,2.36,1.08,1.63.6,2.4.97,1.64.62,2.39,1.03,1.24,1.31,1.96,1.76,1.39,1,2.09,1.49,1.34,1.05,2.01,1.58,1.21,1.2,1.84,1.78,1.34,1.06,1.93,1.67,1.26,1.16,1.81,1.81.69,1.61,1.2,2.3,1.49,1.04,1.94,1.76,1.29,1.26,1.69,2.01.88,1.52,1.22,2.31.34,1.74.62,2.55.64,1.62.85,2.45-.2,1.79-.06,2.64-.07,1.69,0,2.55.27,1.65.28,2.52c0,.13.67.26.67.4,0,.85.03,1.7,0,2.53s-.83,1.65-.88,2.48.78,1.75.71,2.58-1.12,1.6-1.2,2.43-.05,1.69-.13,2.53.82,1.77.74,2.61-.72,1.63-.78,2.46-.48,1.66-.52,2.5.79,1.7.78,2.55-.23,1.66-.2,2.51-.4,1.7-.33,2.54.91,1.57,1.03,2.41-.28,1.73-.1,2.56.12,1.7.35,2.52.7,1.54.98,2.35.68,1.54.95,2.3c.29.8-.04,1.81.24,2.56.3.81,1.46,1.26,1.73,2.01.29.81.79,1.52,1.04,2.27.28.82.06,1.78.28,2.53.24.84.72,1.6.87,2.36.18.86-.11,1.75-.07,2.53.05.87.63,1.79.48,2.57s-.59,1.69-.98,2.44c-.36.69-1.01,1.36-1.61,2.01-.52.56-1.21,1.1-1.92,1.64s-1.56.89-2.25,1.28c-.8.46-1.66.6-2.4.88-.86.33-1.68.34-2.47.49-.89.16-1.68.12-2.49.14-.89.02-1.74.87-2.56.84-.88-.03-1.7-.32-2.53-.27s-1.85-.41-2.68-.1-1.09,1.63-1.79,2.01c-.74.4-1.41.81-2.1,1.24s-1.41.9-2.15,1.29c-.7.37-1.8-.04-2.62.24-.73.25-1.52.13-2.4.28-.75.12-1.48.43-2.38.45-.85.01-1.67.3-2.47.18s-1.72-.01-2.51-.23-1.68-.35-2.44-.64-1.2-1.51-1.94-1.83c-.79-.33-1.53-.74-2.27-1.04-.81-.32-1.74-.27-2.49-.48-.84-.24-1.7-.57-2.49-.57-.73,0-1.55.56-2.47.75-.76.16-1.44.81-2.3,1.05-.77.22-1.55.51-2.38.76-.79.23-1.71.06-2.53.28s-1.67.22-2.49.41-1.72-.16-2.54-.05-1.61.52-2.43.54-1.61-.3-2.42-.42-1.57-.24-2.38-.46-1.8.28-2.59,0-1.24-1.4-2.02-1.7-1.97.47-2.73.17-1.19-1.58-1.94-1.86c-.8-.3-1.7-.29-2.46-.52-.83-.26-1.62-.68-2.38-.81-.88-.16-1.72.57-2.47.64s-1.66-.58-2.58-.42c-.77.13-1.6.25-2.47.4-.8.14-1.62.23-2.46.34s-1.58.98-2.42,1.03-1.72-.08-2.54-.13-1.72-.16-2.52-.35-1.56-.71-2.28-1.1-1.01-1.24-1.59-1.87-1.97-.64-2.46-1.38-.62-1.69-.98-2.49-.5-1.68-.73-2.52.24-1.75.15-2.62-.59-1.66-.53-2.53-.27-1.82-.05-2.67.87-1.55,1.24-2.36c.35-.76.52-1.7,1.03-2.44.47-.69,1.07-1.39,1.68-2.05.56-.61,1.66-.81,2.17-1.52s.66-1.6,1.1-2.35,1.05-1.36,1.43-2.13.38-1.69.71-2.48.45-1.64.75-2.44.93-1.47,1.19-2.28-.08-1.8.16-2.61,1.03-1.49,1.24-2.3.66-1.61.85-2.42c.21-.86.24-1.73.42-2.53.19-.87.7-1.64.86-2.42.19-.91-.24-1.87-.09-2.62s.38-1.51.51-2.43c.11-.76.07-1.61.18-2.49.1-.78.33-1.6.45-2.46.11-.79-.06-1.67.08-2.52.13-.8.57-1.57.73-2.41s.41-1.6.6-2.43.82-1.49,1.04-2.31-.51-1.87-.26-2.68.92-1.45,1.21-2.25,1.18-1.31,1.51-2.08.55-1.54.92-2.3.81-1.42,1.22-2.15.62-1.54,1.08-2.24.28-1.84.78-2.51,1.8-.69,2.34-1.34.94-1.36,1.53-1.96c.87-.91.06-1.28,1.26-2.33.53-.47,1.36-.83,2.11-1.43.6-.48,1.52-.66,2.26-1.19.64-.46,1.18-1.17,1.92-1.65.67-.44,1.44-.81,2.19-1.25.7-.41,1.43-.84,2.2-1.24.72-.38,1.53-.63,2.31-1s1.49-.73,2.29-1.05,1.51-.72,2.32-1,1.65-.3,2.47-.54,1.5-.87,2.33-1.07,1.61-.51,2.45-.67,1.71.02,2.55-.09,1.66-.3,2.51-.37,1.67-.41,2.52-.43,1.69.21,2.54.24,1.64.59,2.5.65c.97.07,1.95-.15,2.87-.04.97.11,1.96,0,2.88.15Z"/>
  </g>
  <g>
    <path class="cls-5" d="M88.78,61.7c-.17-1.25.4-1.01.25-2.58-.07-.71-.43-1.54-.49-2.49-.05-.77.61-1.66.57-2.55-.04-.8-.13-1.63-.14-2.5-.01-.81-.15-1.65-.15-2.5s-.63-1.69-.59-2.54.74-1.64.81-2.48-.58-1.76-.47-2.59.25-1.7.4-2.52.67-1.61.88-2.41.57-1.62.86-2.39c.3-.81.61-1.61,1-2.33.41-.77,1.42-1.06,1.93-1.69.54-.67.91-1.33,1.58-1.82s1.28-.97,2.1-1.24c.76-.25,1.56-.87,2.41-.79.77.07,1.53.65,2.36.94.74.26,1.43.71,2.19,1.11.7.37,1.16,1.16,1.86,1.62s1.97.02,2.64.53,1.36.97,1.99,1.5.92,1.48,1.52,2.03,1.17,1.19,1.74,1.75c.61.59.86,1.5,1.41,2.07.61.63,1.24,1.16,1.75,1.72.62.68,1.72.82,2.18,1.35,1,1.15.33,1.33,1.1,2.29"/>
    <path class="cls-1" d="M88.78,61.7c-.17-1.25.4-1.01.25-2.58-.07-.71-.43-1.54-.49-2.49-.05-.77.61-1.66.57-2.55-.04-.8-.13-1.63-.14-2.5-.01-.81-.15-1.65-.15-2.5s-.63-1.69-.59-2.54.74-1.64.81-2.48-.58-1.76-.47-2.59.25-1.7.4-2.52.67-1.61.88-2.41.57-1.62.86-2.39c.3-.81.61-1.61,1-2.33.41-.77,1.42-1.06,1.93-1.69.54-.67.91-1.33,1.58-1.82s1.28-.97,2.1-1.24c.76-.25,1.56-.87,2.41-.79.77.07,1.53.65,2.36.94.74.26,1.43.71,2.19,1.11.7.37,1.16,1.16,1.86,1.62s1.97.02,2.64.53,1.36.97,1.99,1.5.92,1.48,1.52,2.03,1.17,1.19,1.74,1.75c.61.59.86,1.5,1.41,2.07.61.63,1.24,1.16,1.75,1.72.62.68,1.72.82,2.18,1.35,1,1.15.33,1.33,1.1,2.29"/>
  </g>
  <g>
    <path class="cls-4" d="M102.58,67.49c-1.53,2.12-1.98,3.99-1.83,6.08.16,2.32.21,4.85,1.43,6.66,1.59,2.35,4.22,3.39,5.55,3.88s3.95,1.62,6.89,1.66c2.3.03,4.4-.73,6.44-2.32,1.59-1.24,2.84-2.85,3.69-5.71.6-2.03.29-4.01-.86-6.15-.99-1.85-2.42-3.49-4.23-4.93s-3.51-2.9-5.61-3.51-4.57-.81-6.69-.13c-1.93.62-3.27,2.38-4.77,4.46Z"/>
    <path class="cls-1" d="M102.58,67.49c-1.53,2.12-1.98,3.99-1.83,6.08.16,2.32.21,4.85,1.43,6.66,1.59,2.35,4.22,3.39,5.55,3.88s3.95,1.62,6.89,1.66c2.3.03,4.4-.73,6.44-2.32,1.59-1.24,2.84-2.85,3.69-5.71.6-2.03.29-4.01-.86-6.15-.99-1.85-2.42-3.49-4.23-4.93s-3.51-2.9-5.61-3.51-4.57-.81-6.69-.13c-1.93.62-3.27,2.38-4.77,4.46Z"/>
  </g>
  <g>
    <path class="cls-4" d="M130.05,78.49c-.32,2.2-.49,4.94,1.14,6.94,1.36,1.67,3.88,2.33,6.52,2.91,2.01.44,4.21.39,6.93-.24,2.91-.68,5.52-1.23,7.08-2.82,1.92-1.96,2.58-4.72,2.85-7.12.31-2.75,0-5.67-1.26-7.55-1.59-2.37-4.11-4.03-6.57-4.61s-5.48.09-7.85,1.2-4.38,2.67-6.05,4.53c-1.57,1.74-2.39,3.86-2.81,6.77Z"/>
    <path class="cls-1" d="M130.05,78.49c-.32,2.2-.49,4.94,1.14,6.94,1.36,1.67,3.88,2.33,6.52,2.91,2.01.44,4.21.39,6.93-.24,2.91-.68,5.52-1.23,7.08-2.82,1.92-1.96,2.58-4.72,2.85-7.12.31-2.75,0-5.67-1.26-7.55-1.59-2.37-4.11-4.03-6.57-4.61s-5.48.09-7.85,1.2-4.38,2.67-6.05,4.53c-1.57,1.74-2.39,3.86-2.81,6.77Z"/>
  </g>
  <circle class="cls-3" cx="118.3" cy="76.58" r="3.85"/>
  <circle class="cls-3" cx="137.35" cy="78.68" r="3.85"/>
  <g>
    <path class="cls-1" d="M65.85,74.78c1.23,0,.92.19,2.45.27.7.04,1.57-.46,2.5-.38.76.07,1.57.35,2.43.46.78.1,1.64.02,2.47.17.79.14,1.65.12,2.47.3s1.48.88,2.28,1.1,1.51.65,2.28.93,1.7.2,2.44.54,1.41.89,2.11,1.31,1.17,1.17,1.8,1.68"/>
    <path class="cls-1" d="M62.23,87.46c1.22-.21.92-.19,2.47-.34.7-.07,1.58.44,2.52.38.76-.04,1.57-.48,2.46-.49.79-.01,1.61.49,2.47.51.8.02,1.65-.51,2.5-.45.81.06,1.62.28,2.46.38s1.55.66,2.38.8,1.71-.2,2.52,0,1.74-.03,2.54.21,1.63.48,2.4.78"/>
  </g>
  <g>
    <path class="cls-1" d="M160.35,82.64c1.19-.31.78-.61,2.29-.93.68-.14,1.56.08,2.48-.08.74-.13,1.45-.84,2.32-.97.77-.11,1.64.24,2.49.13.79-.09,1.6-.1,2.44-.18s1.6-.2,2.43-.25,1.62,0,2.45,0,1.62-.17,2.44-.15,1.68-.63,2.49-.57,1.61.55,2.42.66"/>
    <path class="cls-1" d="M159.66,93.48c1.3-.12.93-.7,2.56-.77.75-.04,1.64.36,2.63.34.81-.02,1.68.11,2.61.11.84,0,1.73-.93,2.64-.9.85.03,1.69.8,2.58.86s1.8-.63,2.68-.55,1.63,1.08,2.5,1.2,1.71.29,2.56.45,1.77.12,2.59.34"/>
  </g>
  <path class="cls-2" d="M108.04,111.71c.57,1.64.45,1.44.85,3.41.21,1.02-.18,2.29-.08,3.51.09,1.15.22,2.3.07,3.43-.16,1.19.14,2.63-.43,3.59-.65,1.09-2.09,1.36-2.71,2.01-.92.97-1.42,2.12-2.28,2.34-1.07.27-2-.75-3.03-1.17-1.28-.52-2.02-1.6-1.85-3.24.15-1.48,1.23-3.07,1.02-4.13-.45-2.22-1.33-2.31-2.87-4.48"/>
  <path class="cls-2" d="M149.97,111.76c1.07,1.43.48,1.33,1.27,3.3.38.97,1.32,1.93,1.55,3.24.19,1.09-.15,2.3-.22,3.58-.08,1.42-.39,2.53-.69,3.56-.41,1.44-.25,2.99-1,3.71-.94.89-2.45.65-3.75.52-1.61-.16-2.59-1.29-2.8-2.91-.19-1.47.64-3.37.03-4.4-.49-.83-1.28-1.77-2.02-2.51"/>
  <g>
    <path class="cls-5" d="M25.25,129.69c-1.12,1.56-1.14,1.19-2.87,2.37-.98.66-1.91,1.7-3.26,1.89-.95.13-2.63-.53-4.66-1.06-1.44-.38-2.93-.92-4.45-1.6s-2.86-1.41-4.05-2.37c-1.36-1.08-2.4-2.14-2.86-3.56s-.54-2.85.39-4.53,2.08-2.66,3.12-3.29c1.56-.95,3.13-1.36,4.48-.89,2.21.77,1.45,3.42,3.76,3.1s1.09-2.29,2.94-3.8c1.15-.94,2.61-2.24,4.35-2,1.43.19,2.71,1.79,3.31,3.4.49,1.33.67,3.03.82,4.49.24,2.41-.14,2.26-.25,4.49"/>
    <path class="cls-1" d="M25.25,129.69c-1.12,1.56-1.14,1.19-2.87,2.37-.98.66-1.91,1.7-3.26,1.89-.95.13-2.63-.53-4.66-1.06-1.44-.38-2.93-.92-4.45-1.6s-2.86-1.41-4.05-2.37c-1.36-1.08-2.4-2.14-2.86-3.56s-.54-2.85.39-4.53,2.08-2.66,3.12-3.29c1.56-.95,3.13-1.36,4.48-.89,2.21.77,1.45,3.42,3.76,3.1s1.09-2.29,2.94-3.8c1.15-.94,2.61-2.24,4.35-2,1.43.19,2.71,1.79,3.31,3.4.49,1.33.67,3.03.82,4.49.24,2.41-.14,2.26-.25,4.49"/>
  </g>
  <path class="cls-1" d="M20.28,127.2c1.19,2.1.81,1.74,2.72,3.83.96,1.05,1.87,2.44,3.28,3.48,1.23.9,2.46,2.1,4.02,2.74,1.42.59,3.14.42,4.82.6"/>
</svg>