<?xml version="1.0" encoding="UTF-8"?>
<svg id="_레이어_1" xmlns="http://www.w3.org/2000/svg" version="1.1" viewBox="0 0 200 200">
  <!-- Generator: Adobe Illustrator 30.2.1, SVG Export Plug-In . SVG Version: 2.1.1 Build 1)  -->
  <defs>
    <style>
      .st0 {
        fill: none;
        stroke-linecap: round;
        stroke-linejoin: round;
        stroke-width: 2.4px;
      }

      .st0, .st1 {
        stroke: #000;
      }

      .st2 {
        fill: #ffaf42;
      }

      .st1 {
        stroke-miterlimit: 10;
        stroke-width: 1.2px;
      }

      .st3 {
        fill: #fff;
      }

      .st4 {
        fill: #cec5b3;
      }
    </style>
  </defs>
  <g>
    <path class="st2" d="M111.51,134.46c.64,1.63.5,1.28,1.28,3.25.37.95.7,2.1,1.18,3.3.41,1.03.97,2.08,1.42,3.2s.44,2.34.88,3.42,1.18,2.09,1.61,3.13c.48,1.17.82,2.31,1.23,3.28.59,1.39.38,2.84.72,3.53.43.88,1.29,1.72,1.7,2.84.38,1.02.6,2.16,1.09,3.14s1.54,1.61,2.31,2.35,1.48,1.45,2.66,1.65c.93.16,1.94,0,3.21-.33,1.05-.27,2.07-.9,3.23-1.29,1.07-.37,2.44-.06,3.53-.53s1.97-1.32,2.99-1.86,2.46-.56,3.39-1.19c1.01-.69,1.79-1.72,2.56-2.49.89-.89,1.31-2.05,1.76-3.04.49-1.09.51-2.13.28-3.31-.26-1.33-.71-2.23-1.56-2.88-.9-.68-1.99-.99-3.18-1.15s-2.32.28-3.4.4c-1.92.21-1.94,1.04-3.23-.12-1.38-1.25-1.41-1.23-2.25-2.88s-.74-1.71-1.58-3.37-.29-1.94-1.13-3.6-1.17-1.49-2.01-3.15-.43-1.87-1.27-3.53-.78-1.69-1.62-3.35"/>
    <path class="st0" d="M111.51,134.46c.64,1.63.5,1.28,1.28,3.25.37.95.7,2.1,1.18,3.3.41,1.03.97,2.08,1.42,3.2s.44,2.34.88,3.42,1.18,2.09,1.61,3.13c.48,1.17.82,2.31,1.23,3.28.59,1.39.38,2.84.72,3.53.43.88,1.29,1.72,1.7,2.84.38,1.02.6,2.16,1.09,3.14s1.54,1.61,2.31,2.35,1.48,1.45,2.66,1.65c.93.16,1.94,0,3.21-.33,1.05-.27,2.07-.9,3.23-1.29,1.07-.37,2.44-.06,3.53-.53s1.97-1.32,2.99-1.86,2.46-.56,3.39-1.19c1.01-.69,1.79-1.72,2.56-2.49.89-.89,1.31-2.05,1.76-3.04.49-1.09.51-2.13.28-3.31-.26-1.33-.71-2.23-1.56-2.88-.9-.68-1.99-.99-3.18-1.15s-2.32.28-3.4.4c-1.92.21-1.94,1.04-3.23-.12-1.38-1.25-1.41-1.23-2.25-2.88s-.74-1.71-1.58-3.37-.29-1.94-1.13-3.6-1.17-1.49-2.01-3.15-.43-1.87-1.27-3.53-.78-1.69-1.62-3.35"/>
  </g>
  <path class="st2" d="M83.14,126.73s-6.74.5-10.17,5.12c-3.43,4.62-6.23,13.99-2.4,16.58,2.94,1.99,6.1,2.25,9.24-1.46l-2.82-3.8s8.53,14.14,17.43,9.1c5.16-2.92,4.67-11.2,4.67-11.2l-15.96-14.33h.01Z"/>
  <path class="st0" d="M77.45,142.89c.93,1.55.73,1.23,2.05,2.88.67.84,1.36,1.81,2.29,2.73.84.82,1.79,1.47,2.79,2.17s1.78,1.66,2.9,2.06,2.28.3,3.5.21c1.12-.08,2.17-.25,3.33-.9.97-.55,2.28-.75,2.89-1.58s.67-2.15,1.01-3.13c.37-1.07.78-2.12.91-3.07.25-1.81-.29-1.58-.38-3.17"/>
  <path class="st0" d="M83.13,126.56c-1.95.14-1.64.39-3.76,1.09-1.12.37-2.19,1.11-3.35,1.87-1.05.68-1.83,1.55-2.64,2.64-.65.88-1.25,1.86-1.81,3.01-.52,1.06-1.39,1.98-1.77,3.13s-1.17,2.28-1.34,3.42c-.19,1.29.32,2.57.5,3.64.22,1.32.74,2.3,1.7,2.95,1.04.7,1.97,1.7,3.05,1.87s2.44-.11,3.58-.71c.88-.47,1.82-1.3,2.7-2.35"/>
  <g>
    <path class="st2" d="M64.4,112.25c-.3-.63-.73-.87-1.3-1.28-.95-.67-1.83-1.43-2.79-2.09s-2-1.18-2.98-1.82-1.7-1.65-2.69-2.27c-.91-.57-2.01-.84-2.97-1.37s-1.85-1.19-2.78-1.75-1.38-1.81-2.21-2.49c-.92-.76-2.19-1.07-3.12-1.78s-1.76-1.59-2.67-2.34-2.18-1.11-3.03-1.94-1.44-1.89-2.17-2.86-1.52-1.99-2.03-3.12-1.18-2.45-1.18-3.65,1.05-2.21,1.85-3.3c.83-1.14,1.48-2.2,2.47-2.68,1.11-.54,2.33-.01,3.6.11,1.13.11,2.27.13,3.48.65,1.06.45,2.3.72,3.4,1.39,1.01.62,2.12,1.2,3.14,1.94s1.87,1.59,2.84,2.35c1.17.92,2.37,1.8,3.57,2.68s2.5.95,3.83,1.58c.98.47,1.58,1.73,2.56,2.22s2.28.36,3.23.9,1.84,1.2,2.76,1.8c.96.63,1.54,1.8,2.45,2.48s2.03,1.1,2.92,1.83,1.47,1.81,2.35,2.55"/>
    <path class="st0" d="M64.4,112.25c-.3-.63-.73-.87-1.3-1.28-.95-.67-1.83-1.43-2.79-2.09s-2-1.18-2.98-1.82-1.7-1.65-2.69-2.27c-.91-.57-2.01-.84-2.97-1.37s-1.85-1.19-2.78-1.75-1.38-1.81-2.21-2.49c-.92-.76-2.19-1.07-3.12-1.78s-1.76-1.59-2.67-2.34-2.18-1.11-3.03-1.94-1.44-1.89-2.17-2.86-1.52-1.99-2.03-3.12-1.18-2.45-1.18-3.65,1.05-2.21,1.85-3.3c.83-1.14,1.48-2.2,2.47-2.68,1.11-.54,2.33-.01,3.6.11,1.13.11,2.27.13,3.48.65,1.06.45,2.3.72,3.4,1.39,1.01.62,2.12,1.2,3.14,1.94s1.87,1.59,2.84,2.35c1.17.92,2.37,1.8,3.57,2.68s2.5.95,3.83,1.58c.98.47,1.58,1.73,2.56,2.22s2.28.36,3.23.9,1.84,1.2,2.76,1.8c.96.63,1.54,1.8,2.45,2.48s2.03,1.1,2.92,1.83,1.47,1.81,2.35,2.55"/>
  </g>
  <g>
    <path class="st3" d="M133.08,45.54c.97-1.96.77-1.65,2.06-3.87.66-1.13,1.89-2.13,2.76-3.43.8-1.2,1.58-2.45,2.49-3.56.98-1.2,1.93-2.3,2.96-3.14,1.33-1.09,2.51-1.46,3.76-1.43,1.87.06,3.02.7,4.27,2.02,1.07,1.13,2.41,2.27,3.16,4.08.62,1.49.68,3.32,1.16,5.12.43,1.62.63,3.36,1,5.13s1.58,3.12,1.75,4.62c.2,1.75-.7,3.43-.68,4.89.03,1.87.98,3.52.84,4.87-.32,3.08-1.05,2.23-1.84,4.52"/>
    <path class="st0" d="M133.08,45.54c.97-1.96.77-1.65,2.06-3.87.66-1.13,1.89-2.13,2.76-3.43.8-1.2,1.58-2.45,2.49-3.56.98-1.2,1.93-2.3,2.96-3.14,1.33-1.09,2.51-1.46,3.76-1.43,1.87.06,3.02.7,4.27,2.02,1.07,1.13,2.41,2.27,3.16,4.08.62,1.49.68,3.32,1.16,5.12.43,1.62.63,3.36,1,5.13s1.58,3.12,1.75,4.62c.2,1.75-.7,3.43-.68,4.89.03,1.87.98,3.52.84,4.87-.32,3.08-1.05,2.23-1.84,4.52"/>
  </g>
  <g>
    <path class="st3" d="M82.7,62.56c.87-1.63.19-1.49,1.38-3.45.55-.9,1.81-1.52,2.64-2.64.67-.91,1.18-2.04,2.06-3.03.77-.87,1.37-2,2.31-2.89.86-.81,1.71-1.74,2.72-2.52.94-.73,2.05-1.32,3.12-1.99,1.01-.63,2.08-1.27,3.21-1.82,1.07-.53,2.07-1.39,3.26-1.83,1.12-.41,2.56.04,3.78-.27,1.16-.3,2.21-1.26,3.46-1.45,1.18-.18,2.44-.2,3.71-.28,1.19-.07,2.42.53,3.69.56,1.19.03,2.43-.26,3.69-.13,1.19.12,2.32.75,3.57.97s2.31.5,3.43.73c1.19.25,2.45-.05,3.55.22,1.18.3,2.37.4,3.45.73,1.16.36,2.05,1.38,3.11,1.77,1.14.43,2.5.21,3.52.69,1.1.51,1.87,1.58,2.84,2.15,1.05.62,2.45.65,3.35,1.33.96.73,1.87,1.56,2.68,2.36s.85,2.37,1.55,3.3,2.12,1.4,2.69,2.42.85,2.2,1.29,3.31,1.18,2.08,1.51,3.23.51,2.29.75,3.47c.22,1.12.32,2.31.48,3.51.16,1.13.3,2.31.41,3.5.1,1.14-.3,2.34-.23,3.54s.02,2.31.06,3.51-.12,2.31-.1,3.51.86,2.31.86,3.51-.6,2.39-.58,3.51c.02,1.22.29,2.39.32,3.5.03,1.23.49,2.38.53,3.49.05,1.24,0,2.4.06,3.5.07,1.25-.34,2.44-.24,3.53.11,1.26.59,2.38.72,3.45.15,1.27.08,2.45.26,3.5.22,1.28.5,2.4.76,3.42.32,1.24.86,2.26,1.21,3.28.4,1.13.94,2.12,1.37,3.21.41,1.03-.02,2.4.41,3.58s1.56,2.05,1.78,3.09c.27,1.25-.18,2.46-.19,3.51,0,1.27.44,2.56.05,3.56-.43,1.1-1.5,1.87-2.34,2.68-.79.76-1.91,1.05-3.02,1.59-.95.47-1.8,1.17-2.87,1.33s-2.15-.18-3.2-.21c-1.15-.04-2.18-.33-3.13-.49-1.85-.31-1.59-.11-3.19.06-1.78.2-1.46.52-3.31,1.18-1.08.39-2.33.68-3.48.88-1.4.24-2.7.25-3.5-.29-1.26-.86-2.18-1.68-3.09-2.46s-1.82-1.63-2.7-2.85c-.6-.83-1.61-1.63-2.93-1.97-1-.25-2.25-.38-3.56-.26-1.06.1-2.14.73-3.36,1.12-1.04.33-2.11.76-3.23,1.33-1,.51-2.1.82-3.14,1.26s-2.17.62-3.23.97-2.02,1.21-3.1,1.46-2.27.39-3.37.52-2.3-.25-3.4-.25c-1.16,0-2.22-.25-3.29-.44s-2.23.25-3.37.11c-1.07-.13-2.14-.54-3.25-.69s-2.15-.49-3.23-.7-2.41.39-3.45.06-1.93-1.3-2.89-1.81-1.61-1.45-2.43-2.2c-1.02-.94-2.05-1.52-2.67-2.32-.84-1.07-1.49-1.97-2.16-2.82s-1.15-2.15-2.33-2.84c-.84-.49-2.13-.58-3.52-.99-1.03-.3-2.15-.82-3.39-1.08-1.1-.23-2.23-.64-3.41-.9s-2.42.04-3.55-.28-2.08-1.16-3.15-1.61c-1.12-.47-2.1-.93-3.03-1.59-.98-.69-2.06-1.15-2.72-2.13s-1.48-1.92-1.71-3.16.08-2.53.42-3.58,1.28-1.87,2.09-2.8c.72-.83,1.29-1.92,2.26-2.7.87-.7,1.9-1.3,2.89-2.01.93-.66,1.91-1.31,2.87-2.02s2-1.23,2.91-1.99,1.36-1.94,2.18-2.79,1.56-1.66,2.23-2.63,1.18-2.06,1.77-3.2c.55-1.06,1.05-2.16,1.54-3.33s.93-2.24,1.37-3.42,1.31-2.14,1.71-3.33,1.04-2.26,1.42-3.44.81-2.35,1.19-3.52.63-2.42,1.03-3.56c.42-1.2.68-2.42,1.12-3.53.47-1.2.52-2.55,1.03-3.61.58-1.19,1.77-1.98,2.41-2.92v.02Z"/>
    <path class="st0" d="M82.7,62.56c.87-1.63.19-1.49,1.38-3.45.55-.9,1.81-1.52,2.64-2.64.67-.91,1.18-2.04,2.06-3.03.77-.87,1.37-2,2.31-2.89.86-.81,1.71-1.74,2.72-2.52.94-.73,2.05-1.32,3.12-1.99,1.01-.63,2.08-1.27,3.21-1.82,1.07-.53,2.07-1.39,3.26-1.83,1.12-.41,2.56.04,3.78-.27,1.16-.3,2.21-1.26,3.46-1.45,1.18-.18,2.44-.2,3.71-.28,1.19-.07,2.42.53,3.69.56,1.19.03,2.43-.26,3.69-.13,1.19.12,2.32.75,3.57.97s2.31.5,3.43.73c1.19.25,2.45-.05,3.55.22,1.18.3,2.37.4,3.45.73,1.16.36,2.05,1.38,3.11,1.77,1.14.43,2.5.21,3.52.69,1.1.51,1.87,1.58,2.84,2.15,1.05.62,2.45.65,3.35,1.33.96.73,1.87,1.56,2.68,2.36s.85,2.37,1.55,3.3,2.12,1.4,2.69,2.42.85,2.2,1.29,3.31,1.18,2.08,1.51,3.23.51,2.29.75,3.47c.22,1.12.32,2.31.48,3.51.16,1.13.3,2.31.41,3.5.1,1.14-.3,2.34-.23,3.54s.02,2.31.06,3.51-.12,2.31-.1,3.51.86,2.31.86,3.51-.6,2.39-.58,3.51c.02,1.22.29,2.39.32,3.5.03,1.23.49,2.38.53,3.49.05,1.24,0,2.4.06,3.5.07,1.25-.34,2.44-.24,3.53.11,1.26.59,2.38.72,3.45.15,1.27.08,2.45.26,3.5.22,1.28.5,2.4.76,3.42.32,1.24.86,2.26,1.21,3.28.4,1.13.94,2.12,1.37,3.21.41,1.03-.02,2.4.41,3.58s1.56,2.05,1.78,3.09c.27,1.25-.18,2.46-.19,3.51,0,1.27.44,2.56.05,3.56-.43,1.1-1.5,1.87-2.34,2.68-.79.76-1.91,1.05-3.02,1.59-.95.47-1.8,1.17-2.87,1.33s-2.15-.18-3.2-.21c-1.15-.04-2.18-.33-3.13-.49-1.85-.31-1.59-.11-3.19.06-1.78.2-1.46.52-3.31,1.18-1.08.39-2.33.68-3.48.88-1.4.24-2.7.25-3.5-.29-1.26-.86-2.18-1.68-3.09-2.46s-1.82-1.63-2.7-2.85c-.6-.83-1.61-1.63-2.93-1.97-1-.25-2.25-.38-3.56-.26-1.06.1-2.14.73-3.36,1.12-1.04.33-2.11.76-3.23,1.33-1,.51-2.1.82-3.14,1.26s-2.17.62-3.23.97-2.02,1.21-3.1,1.46-2.27.39-3.37.52-2.3-.25-3.4-.25c-1.16,0-2.22-.25-3.29-.44s-2.23.25-3.37.11c-1.07-.13-2.14-.54-3.25-.69s-2.15-.49-3.23-.7-2.41.39-3.45.06-1.93-1.3-2.89-1.81-1.61-1.45-2.43-2.2c-1.02-.94-2.05-1.52-2.67-2.32-.84-1.07-1.49-1.97-2.16-2.82s-1.15-2.15-2.33-2.84c-.84-.49-2.13-.58-3.52-.99-1.03-.3-2.15-.82-3.39-1.08-1.1-.23-2.23-.64-3.41-.9s-2.42.04-3.55-.28-2.08-1.16-3.15-1.61c-1.12-.47-2.1-.93-3.03-1.59-.98-.69-2.06-1.15-2.72-2.13s-1.48-1.92-1.71-3.16.08-2.53.42-3.58,1.28-1.87,2.09-2.8c.72-.83,1.29-1.92,2.26-2.7.87-.7,1.9-1.3,2.89-2.01.93-.66,1.91-1.31,2.87-2.02s2-1.23,2.91-1.99,1.36-1.94,2.18-2.79,1.56-1.66,2.23-2.63,1.18-2.06,1.77-3.2c.55-1.06,1.05-2.16,1.54-3.33s.93-2.24,1.37-3.42,1.31-2.14,1.71-3.33,1.04-2.26,1.42-3.44.81-2.35,1.19-3.52.63-2.42,1.03-3.56c.42-1.2.68-2.42,1.12-3.53.47-1.2.52-2.55,1.03-3.61.58-1.19,1.77-1.98,2.41-2.92v.02Z"/>
  </g>
  <g>
    <path class="st3" d="M86.5,59.38c-.32-2.2.52-1.81.32-4.5-.1-1.29-.71-2.76-.75-4.4-.03-1.4.16-2.9.22-4.44.05-1.46-.4-3-.24-4.49s.67-2.95.98-4.37c.38-1.72.72-3.25,1.26-4.48.73-1.68,1.54-3.24,2.67-3.97,1.2-.78,2.9-.34,4.69-.04,1.27.22,2.83.34,4.46,1.12,1.23.59,2.2,1.96,3.66,2.87,1.54.97,3.01,1.66,4.15,2.61,1.45,1.2,2.84,2.12,3.76,3.22,1.31,1.57,2.29,2.96,2.82,4.11"/>
    <path class="st0" d="M86.5,59.38c-.32-2.2.52-1.81.32-4.5-.1-1.29-.71-2.76-.75-4.4-.03-1.4.16-2.9.22-4.44.05-1.46-.4-3-.24-4.49s.67-2.95.98-4.37c.38-1.72.72-3.25,1.26-4.48.73-1.68,1.54-3.24,2.67-3.97,1.2-.78,2.9-.34,4.69-.04,1.27.22,2.83.34,4.46,1.12,1.23.59,2.2,1.96,3.66,2.87,1.54.97,3.01,1.66,4.15,2.61,1.45,1.2,2.84,2.12,3.76,3.22,1.31,1.57,2.29,2.96,2.82,4.11"/>
  </g>
  <path class="st0" d="M60.92,68.31c1.44.29,1.19-.17,2.96.24.82.19,1.61,1.12,2.68,1.4.89.23,1.91.18,2.91.47.91.26,1.95.19,2.92.49s1.91.44,2.85.76,1.81.79,2.73,1.14,1.86.7,2.74,1.09c.93.41,2.01.49,2.85.93"/>
  <path class="st0" d="M59.43,82.7c1.33,0,1-.03,2.67,0,.76.02,1.64.57,2.65.61.82.03,1.71-.04,2.66,0,.85.04,1.74.02,2.67.07.86.05,1.73.35,2.64.41s1.76.14,2.66.22,1.82-.46,2.71-.37,1.72.67,2.6.77,1.75.39,2.62.51"/>
  <path class="st0" d="M155.65,80.97c1.68-.57,1.36-.45,3.44-1.02,1-.27,2.29-.12,3.57-.41,1.1-.24,2.36.02,3.58-.18,1.15-.19,2.26-.89,3.45-1s2.39-.21,3.57-.21,2.36.6,3.5.77"/>
  <path class="st0" d="M150.81,90.89c1.92.11,1.53.03,3.84.22,1.12.09,2.4.45,3.81.58,1.22.12,2.51.27,3.83.42s2.64-.3,3.9-.12c1.33.19,2.53.88,3.72,1.1,1.41.26,2.6.72,3.66,1.04"/>
  <g>
    <path class="st3" d="M94.73,95.55c1.73-.05,1.53-.03,3.53.17,1.04.11,2.26.41,3.46.69,1.12.26,2.39.52,3.42,1.01,1.09.51,1.9,1.6,2.64,2.43.85.95,1.75,1.67,2.19,2.45.65,1.17.81,2.38.75,3.27-.07,1.1-1.23,1.69-1.94,2.54-.63.75-1.14,1.11-2.16.82-.82-.23-1.62-.84-2.47-1.24-.94-.44-1.97-.32-2.71-.39-.85-.09-1.74-.28-2.6-.14-1.42.22-1.27.3-2.54.7"/>
    <path class="st0" d="M94.73,95.55c1.73-.05,1.53-.03,3.53.17,1.04.11,2.26.41,3.46.69,1.12.26,2.39.52,3.42,1.01,1.09.51,1.9,1.6,2.64,2.43.85.95,1.75,1.67,2.19,2.45.65,1.17.81,2.38.75,3.27-.07,1.1-1.23,1.69-1.94,2.54-.63.75-1.14,1.11-2.16.82-.82-.23-1.62-.84-2.47-1.24-.94-.44-1.97-.32-2.71-.39-.85-.09-1.74-.28-2.6-.14-1.42.22-1.27.3-2.54.7"/>
  </g>
  <g>
    <path class="st3" d="M146.88,98.68c1.78-.01,1.49-.27,3.54.27,1.01.26,2.29.43,3.48,1.02.99.5,2.18,1.06,3.16,1.87,1.09.9,2.03,1.87,2.68,2.71.91,1.18,1.06,2.6,1.19,3.62.16,1.28-.62,2.14-1.5,3.11-.76.84-1.36,1.25-2.31.91-.81-.29-1.7-.8-2.55-1.3-.89-.53-1.67-1.52-2.48-1.6-.96-.1-2.18.1-3.22.26"/>
    <path class="st0" d="M146.88,98.68c1.78-.01,1.49-.27,3.54.27,1.01.26,2.29.43,3.48,1.02.99.5,2.18,1.06,3.16,1.87,1.09.9,2.03,1.87,2.68,2.71.91,1.18,1.06,2.6,1.19,3.62.16,1.28-.62,2.14-1.5,3.11-.76.84-1.36,1.25-2.31.91-.81-.29-1.7-.8-2.55-1.3-.89-.53-1.67-1.52-2.48-1.6-.96-.1-2.18.1-3.22.26"/>
  </g>
  <g>
    <path class="st2" d="M99.34,65.12c-1.17,1.51-2.03,2.98-2.24,4.54-.24,1.73.29,3.42.85,5,.58,1.67,1.29,3.29,2.27,4.55,1.32,1.68,2.86,2.83,3.9,3.26.89.36,2.38.89,4.13,1.25,1.32.28,2.79.33,4.28.24,1.41-.08,2.81-.32,4.14-.99,1.19-.61,2.17-1.57,3.13-2.85.76-1.02,1.73-2.12,2.25-3.68.49-1.47.13-3.09-.37-4.7-.44-1.43-1.07-2.91-2.09-4.24-.94-1.23-2.2-2.24-3.48-3.22s-2.66-1.69-4.12-2.27-3.01-.93-4.57-.93-3.05.26-4.51,1.02c-1.29.67-2.48,1.62-3.56,3.02h0Z"/>
    <path class="st0" d="M99.34,65.12c-1.17,1.51-2.03,2.98-2.24,4.54-.24,1.73.29,3.42.85,5,.58,1.67,1.29,3.29,2.27,4.55,1.32,1.68,2.86,2.83,3.9,3.26.89.36,2.38.89,4.13,1.25,1.32.28,2.79.33,4.28.24,1.41-.08,2.81-.32,4.14-.99,1.19-.61,2.17-1.57,3.13-2.85.76-1.02,1.73-2.12,2.25-3.68.49-1.47.13-3.09-.37-4.7-.44-1.43-1.07-2.91-2.09-4.24-.94-1.23-2.2-2.24-3.48-3.22s-2.66-1.69-4.12-2.27-3.01-.93-4.57-.93-3.05.26-4.51,1.02c-1.29.67-2.48,1.62-3.56,3.02h0Z"/>
  </g>
  <g>
    <path class="st2" d="M126.16,77.04c-.29,1.67.18,3.52,1.03,5.22.76,1.5,1.83,3.04,3.46,4.07,1.38.86,3.17,1.19,5.15,1.41,1.59.18,3.38.35,5.35-.05,1.65-.33,3.16-.8,4.37-1.47,1.44-.8,2.49-1.99,3.38-3.11.98-1.25,1.46-2.69,1.85-4.12.42-1.52.95-3.05.79-4.52-.17-1.63-.72-3.22-1.47-4.41-1-1.59-2.55-2.53-4.02-3.34-1.55-.86-3.21-1.57-4.96-1.63s-3.59.28-5.19.97-3.16,1.47-4.49,2.44-2.51,2.3-3.43,3.78c-.82,1.32-1.51,2.9-1.83,4.76h.01Z"/>
    <path class="st0" d="M126.16,77.04c-.29,1.67.18,3.52,1.03,5.22.76,1.5,1.83,3.04,3.46,4.07,1.38.86,3.17,1.19,5.15,1.41,1.59.18,3.38.35,5.35-.05,1.65-.33,3.16-.8,4.37-1.47,1.44-.8,2.49-1.99,3.38-3.11.98-1.25,1.46-2.69,1.85-4.12.42-1.52.95-3.05.79-4.52-.17-1.63-.72-3.22-1.47-4.41-1-1.59-2.55-2.53-4.02-3.34-1.55-.86-3.21-1.57-4.96-1.63s-3.59.28-5.19.97-3.16,1.47-4.49,2.44-2.51,2.3-3.43,3.78c-.82,1.32-1.51,2.9-1.83,4.76h.01Z"/>
  </g>
  <circle class="st1" cx="115.06" cy="74.89" r="3.85"/>
  <circle class="st1" cx="134.03" cy="77.56" r="3.85"/>
  <path class="st0" d="M140.49,129.97c.34-1.37,0-1.13-.25-2.83-.12-.79-.6-1.58-1.04-2.57-.34-.77-.89-1.43-1.51-2.27-.51-.69-1.07-1.33-1.82-2.04-.63-.6-1.04-1.52-1.87-2.1-.72-.51-1.27-1.43-2.15-1.92-.77-.43-1.88-.36-2.79-.77"/>
  <path d="M114.04,140.65l3.29,9.05s8.92-8.92,15.09-10.01l-1.71-3.36s-2.61-1.58-5.21,0-10.77,3.84-11.45,4.32h0Z"/>
  <g>
    <path class="st4" d="M77.05,167.74c1.57-.64-1.43-2.19-4.5-2.98-2.35-.61-5-.78-5.53-1.68-1.23-2.09-2.68-4.28-5.19-3.85s-4.95,2.43-3.01,6.55c.75,1.59,3.35,1.86,5.83,2.29,1.91.33,4.09,1.36,6.21,1.16,2.27-.21,4.57-.83,6.2-1.49h-.01Z"/>
    <path class="st0" d="M77.05,167.74c1.57-.64-1.43-2.19-4.5-2.98-2.35-.61-5-.78-5.53-1.68-1.23-2.09-2.68-4.28-5.19-3.85s-4.95,2.43-3.01,6.55c.75,1.59,3.35,1.86,5.83,2.29,1.91.33,4.09,1.36,6.21,1.16,2.27-.21,4.57-.83,6.2-1.49h-.01Z"/>
  </g>
  <g>
    <path class="st4" d="M25.34,143.43c.33-3.02-.23-2.87-.57-6.05-.21-2.04-.41-4.18-1.41-5.77-1.26-2.01-2.71-3.07-4.38-3.76s-3.56-.54-5.77-.47c-2.37.08-5.04.8-6.93,3.04-1.59,1.89-2.43,4.54-2.8,7.32-.29,2.19-.64,4.47-.08,6.32.99,3.28,4.91,2.84,3,5.31-2.95,3.79-5.29,2.84-4.34,7.77.49,2.57,1.62,4.81,3.33,6.71,1.58,1.75,3.56,3.15,6.4,3.83s5.37.39,7.86.07c2.78-.36,5.53-1.2,8.03-.58,1.54.38,3.85,1.89,6.59,2.48,2.29.49,4.84.2,7,.36,3.21.24,5.51.18,6.02-1.46.35-1.1-1.72-2.48-4.32-3.35-2.77-.92-7.05,1.51-5.86-1.22,1.27-2.94,4.57-2.16,3.72-5.05s-3.64.45-4.84-2.22c-1.92-4.31,1.33-5.39-1.38-8.81-1.35-1.7-2.71-2.71-4.19-3.46s-3.13-1.66-5.34-1.43-3.87,1.9-5.02,3.58c-1.06,1.55-2.03,3.49-1.6,5.92"/>
    <path class="st0" d="M25.34,143.43c.33-3.02-.23-2.87-.57-6.05-.21-2.04-.41-4.18-1.41-5.77-1.26-2.01-2.71-3.07-4.38-3.76s-3.56-.54-5.77-.47c-2.37.08-5.04.8-6.93,3.04-1.59,1.89-2.43,4.54-2.8,7.32-.29,2.19-.64,4.47-.08,6.32.99,3.28,4.91,2.84,3,5.31-2.95,3.79-5.29,2.84-4.34,7.77.49,2.57,1.62,4.81,3.33,6.71,1.58,1.75,3.56,3.15,6.4,3.83s5.37.39,7.86.07c2.78-.36,5.53-1.2,8.03-.58,1.54.38,3.85,1.89,6.59,2.48,2.29.49,4.84.2,7,.36,3.21.24,5.51.18,6.02-1.46.35-1.1-1.72-2.48-4.32-3.35-2.77-.92-7.05,1.51-5.86-1.22,1.27-2.94,4.57-2.16,3.72-5.05s-3.64.45-4.84-2.22c-1.92-4.31,1.33-5.39-1.38-8.81-1.35-1.7-2.71-2.71-4.19-3.46s-3.13-1.66-5.34-1.43-3.87,1.9-5.02,3.58c-1.06,1.55-2.03,3.49-1.6,5.92"/>
  </g>
</svg>