<svg width="196" height="60" viewBox="0 0 196 60" fill="none" xmlns="http://www.w3.org/2000/svg">
<g clip-path="url(#clip0_25_44)">
<path d="M33.5412 32.7843L32.2257 57.1163L22.6096 57.9806L17.4707 44.9541L16.6629 58.233H8.40845L9.07004 32.7843L18.24 32.3559L24.5866 45.2754L24.8867 33.0749L33.5412 32.7843Z" fill="#DBEB86"/>
<path d="M55.2891 48.0826C55.2891 49.0311 55.1814 49.9413 54.9506 50.8286C54.7276 51.7083 54.4044 52.5344 53.9813 53.2993C53.5582 54.0719 53.0505 54.7756 52.4504 55.4181C51.8504 56.0607 51.1811 56.6114 50.4272 57.0704C49.6733 57.5293 48.8579 57.8888 47.9732 58.1412C47.0885 58.3937 46.1576 58.5237 45.1653 58.5237C44.1729 58.5237 43.2959 58.4013 42.4343 58.1642C41.565 57.9271 40.7572 57.5905 39.9956 57.1545C39.234 56.7185 38.5571 56.1984 37.9493 55.5941C37.3416 54.9821 36.8185 54.309 36.3876 53.5594C35.9568 52.8174 35.6184 52.0143 35.3799 51.1576C35.1337 50.3008 35.0183 49.4135 35.0183 48.4956C35.0183 47.5778 35.126 46.6981 35.3568 45.8337C35.5799 44.9617 35.903 44.1433 36.3261 43.3707C36.7492 42.5981 37.2569 41.8944 37.8493 41.2442C38.4417 40.6017 39.1109 40.0433 39.8495 39.5691C40.588 39.1025 41.388 38.7353 42.2496 38.4752C43.1113 38.2152 44.019 38.0851 44.9729 38.0851C46.5115 38.0851 47.927 38.3223 49.1887 38.7889C50.4503 39.2555 51.5504 39.9286 52.4428 40.7929C53.3428 41.665 54.0352 42.7129 54.5352 43.9444C55.0276 45.1759 55.2737 46.5604 55.2737 48.0673L55.2891 48.0826ZM47.9039 48.488C47.9039 48.0826 47.8424 47.6925 47.727 47.31C47.6116 46.9276 47.427 46.591 47.2039 46.2927C46.9731 45.9944 46.6885 45.7573 46.3423 45.5737C45.9961 45.3901 45.6115 45.2983 45.173 45.2983C44.7345 45.2983 44.3113 45.3748 43.9652 45.5354C43.6036 45.6961 43.3036 45.9179 43.0497 46.1933C42.7958 46.4686 42.5958 46.7975 42.465 47.1647C42.3343 47.5395 42.265 47.9296 42.265 48.3427C42.265 48.7557 42.3189 49.1305 42.4343 49.5283C42.5497 49.926 42.7266 50.2779 42.9497 50.5992C43.1882 50.9204 43.4651 51.1805 43.8113 51.3794C44.1575 51.5783 44.5421 51.6777 44.996 51.6777C45.4499 51.6777 45.8576 51.5936 46.2115 51.4176C46.5731 51.2417 46.8731 51.0046 47.127 50.7139C47.3731 50.4156 47.5731 50.079 47.7039 49.6889C47.8347 49.3065 47.9039 48.9011 47.9039 48.488Z" fill="#DBEB86"/>
<path d="M74.6134 32.6389C74.5442 33.7634 74.475 34.8802 74.4134 35.974C74.3519 37.0755 74.2749 38.1922 74.1672 39.309L66.3897 39.7068L66.2128 41.9709H71.6824L71.2747 47.5319L65.7666 47.7078L65.5896 50.3315H73.3672C73.2979 51.6471 73.221 52.9551 73.1441 54.2478C73.0672 55.5482 72.9979 56.8409 72.9364 58.1489L57.1274 58.5084L57.7121 32.6389H74.6211H74.6134Z" fill="#DBEB86"/>
<path d="M121.886 54.485C121.309 55.1887 120.602 55.8083 119.763 56.3361C118.917 56.8638 118.017 57.2998 117.048 57.6441C116.078 57.9883 115.086 58.2483 114.078 58.4243C113.063 58.6002 112.093 58.6843 111.178 58.6843C109.401 58.6843 107.77 58.3937 106.278 57.8047C104.785 57.2157 103.5 56.3972 102.423 55.3493C101.339 54.3014 100.492 53.0546 99.8847 51.6089C99.277 50.1632 98.9692 48.5875 98.9692 46.874C98.9692 45.566 99.1231 44.3039 99.4308 43.0724C99.7385 41.8409 100.169 40.6859 100.746 39.615C101.316 38.5365 102.008 37.5497 102.831 36.6471C103.654 35.7522 104.577 34.9796 105.616 34.3294C106.654 33.6792 107.793 33.1821 109.039 32.8302C110.278 32.4783 111.601 32.3024 112.993 32.3024C113.517 32.3024 114.078 32.3253 114.678 32.3636C115.278 32.4095 115.871 32.4783 116.463 32.5778C117.055 32.6772 117.632 32.8225 118.194 32.9985C118.755 33.1744 119.271 33.3962 119.732 33.6639L119.217 40.5176C118.532 40.2652 117.825 40.0969 117.101 40.0051C116.378 39.9133 115.663 39.8674 114.963 39.8674C113.986 39.8674 113.07 39.9975 112.224 40.2499C111.37 40.5099 110.632 40.8848 110.009 41.3896C109.378 41.8944 108.885 42.5217 108.516 43.2789C108.147 44.0362 107.97 44.9082 107.97 45.9026C107.97 46.5222 108.055 47.1265 108.232 47.7078C108.401 48.2891 108.662 48.8016 109.008 49.2529C109.362 49.7042 109.785 50.0637 110.309 50.3391C110.832 50.6145 111.432 50.7522 112.116 50.7522C112.578 50.7522 113.063 50.691 113.555 50.5762C114.047 50.4539 114.478 50.255 114.824 49.9643L114.894 48.5645L110.493 48.4957L110.709 43.1107C112.532 43.0495 114.355 43.0036 116.178 42.9577C118.002 42.9194 119.832 42.8582 121.686 42.7894L121.902 54.485L121.886 54.5003V54.485Z" fill="#DBEB86"/>
<path d="M140.15 49.0005L139.373 56.9709L123.933 58.1565L124.518 32.5319H134.057L132.695 49.0005H140.15Z" fill="#DBEB86"/>
<path d="M150.781 40.2499L149.858 57.7894L142.742 58.0724L142.219 40.6094L150.789 40.2499H150.781Z" fill="#DBEB86"/>
<path d="M173.052 49.3218C173.052 50.9664 172.76 52.3814 172.175 53.5594C171.598 54.7527 170.798 55.7318 169.79 56.4967C168.783 57.2693 167.606 57.8353 166.252 58.2025C164.898 58.5696 163.451 58.7532 161.897 58.7532C161.297 58.7532 160.643 58.6767 159.928 58.5161C159.22 58.3554 158.489 58.1642 157.759 57.9347C157.028 57.7053 156.32 57.4528 155.643 57.1775C154.966 56.9098 154.358 56.6497 153.835 56.4126L154.643 49.3753C155.682 49.9873 156.835 50.4539 158.105 50.7675C159.374 51.0887 160.613 51.2417 161.836 51.2417C162.074 51.2417 162.351 51.2341 162.682 51.2111C163.013 51.1882 163.328 51.1423 163.628 51.0505C163.928 50.9587 164.182 50.8287 164.39 50.6451C164.598 50.4692 164.705 50.2091 164.705 49.8725C164.705 49.6431 164.636 49.4518 164.482 49.2912C164.336 49.1306 164.144 49.0005 163.913 48.8934C163.682 48.794 163.421 48.7175 163.128 48.6563C162.828 48.6028 162.551 48.5645 162.267 48.5416C161.99 48.5186 161.72 48.5033 161.482 48.5033H160.897C159.843 48.5033 158.889 48.3427 158.028 48.0214C157.166 47.7002 156.428 47.2412 155.812 46.6446C155.197 46.0556 154.712 45.3366 154.374 44.4875C154.028 43.6461 153.858 42.7053 153.858 41.6726C153.858 40.2575 154.151 39.0031 154.735 37.8786C155.312 36.7619 156.097 35.8057 157.059 35.0255C158.036 34.2376 159.143 33.641 160.413 33.2203C161.674 32.7996 162.974 32.5931 164.321 32.5931C164.921 32.5931 165.536 32.616 166.175 32.6543C166.805 32.7002 167.436 32.769 168.075 32.8761C168.706 32.9832 169.313 33.1209 169.921 33.2892C170.521 33.4574 171.083 33.664 171.621 33.9164L170.929 41.206C170.098 40.9307 169.229 40.7012 168.313 40.5176C167.398 40.334 166.505 40.2422 165.644 40.2422C165.49 40.2422 165.275 40.2422 165.028 40.2499C164.782 40.2499 164.513 40.2728 164.236 40.3034C163.959 40.334 163.682 40.3799 163.397 40.4411C163.113 40.5023 162.867 40.5788 162.651 40.6859C162.436 40.7853 162.251 40.923 162.12 41.0913C161.99 41.2596 161.928 41.4585 161.936 41.6879C161.951 41.948 162.044 42.1545 162.244 42.2999C162.428 42.4452 162.682 42.5523 162.982 42.6135C163.282 42.6747 163.613 42.7129 163.974 42.7129C164.336 42.7129 164.69 42.7053 165.044 42.6823C165.398 42.6594 165.728 42.6441 166.036 42.6288C166.344 42.6135 166.59 42.6058 166.79 42.6288C167.767 42.69 168.652 42.8888 169.429 43.2407C170.206 43.5849 170.875 44.0515 171.421 44.6252C171.967 45.1989 172.383 45.8873 172.667 46.6828C172.96 47.4783 173.098 48.358 173.098 49.3065H173.091L173.052 49.3218Z" fill="#DBEB86"/>
<path d="M195.992 57.7894L186.822 58.2178L186.753 50.6451H182.537L182.276 58.5084H174.06L174.752 33.2815L183.484 33.6793L182.937 46.5604H187.007L187.045 33.0673L195.408 33.2815L195.992 57.7894Z" fill="#DBEB86"/>
<path d="M96.8999 57.6823C96.9307 56.4814 96.9384 55.2652 96.9384 54.0413V51.8689C96.9384 51.0734 96.923 50.255 96.8845 49.4059C96.8461 48.5569 96.7691 47.6925 96.6614 46.8205C96.5537 45.9408 96.3922 45.1071 96.1768 44.2963C95.9691 43.4931 95.6844 42.7282 95.3382 42.0168C94.9921 41.3055 94.5613 40.6859 94.0612 40.1657C93.5535 39.6456 92.938 39.2325 92.2226 38.9266C91.5149 38.6206 90.684 38.4676 89.7378 38.4676C89.2301 38.4676 88.7377 38.5365 88.2761 38.6741C87.8146 38.8118 87.3761 38.9954 86.9607 39.2325C86.5452 39.4697 86.1606 39.745 85.8067 40.0739C85.4452 40.4029 85.1144 40.7471 84.799 41.1219L84.8682 38.5059L76.9983 38.896C76.8752 42.7282 76.706 46.5528 76.506 50.3468C76.3752 52.7945 76.2367 55.2652 76.0906 57.7359L84.4605 57.3304C84.4605 56.7874 84.4912 56.229 84.4989 55.6935C84.5297 53.7965 84.5759 51.8842 84.6297 49.9567C84.6297 49.7195 84.6374 49.4059 84.6528 49.0311C84.6682 48.6563 84.6989 48.2585 84.7528 47.8302C84.7989 47.4018 84.8759 46.9811 84.9759 46.5528C85.0759 46.1244 85.2067 45.742 85.3836 45.3978C85.5529 45.0535 85.776 44.7782 86.0298 44.5564C86.2837 44.3422 86.6068 44.2274 86.9914 44.2274C87.1991 44.2274 87.3838 44.3422 87.5299 44.564C87.6761 44.7858 87.8146 45.0765 87.9146 45.4207C88.0146 45.7726 88.0992 46.155 88.1608 46.5757C88.2223 46.9964 88.2685 47.4018 88.2992 47.7996C88.33 48.1974 88.3531 48.5569 88.3685 48.8705C88.3762 49.1841 88.3838 49.4136 88.3838 49.5589C88.3838 51.5171 88.2608 53.4523 88.0146 55.3723C87.9223 56.0989 87.8223 56.8256 87.7069 57.5523L96.8691 57.7511V57.667L96.8999 57.6823Z" fill="#DBEB86"/>
<path d="M146.488 38.0316C148.842 38.0316 150.75 36.1652 150.75 33.8628C150.75 31.5604 148.842 29.694 146.488 29.694C144.134 29.694 142.227 31.5604 142.227 33.8628C142.227 36.1652 144.134 38.0316 146.488 38.0316Z" fill="#DBEB86"/>
<path d="M25.2943 1.66752L16.309 16.2545L16.5782 27.0092H6.75438L6.98516 16.331L0 2.24121L9.74692 1.02499L12.801 9.23254L16.132 1.02499L25.302 1.67517L25.2943 1.66752Z" fill="#FDF9F1"/>
<path d="M39.5724 13.5008C39.4339 12.7129 39.2262 11.9556 38.9569 11.2443C38.68 10.5329 38.3261 9.85211 37.8953 9.25548C37.4568 8.64355 36.9414 8.1081 36.349 7.6721C35.7644 7.22845 35.072 6.87659 34.3258 6.62417C33.5719 6.37175 32.7334 6.24936 31.8256 6.24936C30.7409 6.24936 29.7485 6.40999 28.8561 6.72361C27.9638 7.03722 27.1406 7.47322 26.4329 8.03161C25.7251 8.5747 25.102 9.23253 24.5712 9.96685C24.0481 10.7012 23.6019 11.5043 23.2557 12.3534C22.9095 13.2024 22.648 14.0974 22.4787 15.0153C22.3095 15.9332 22.2249 16.8587 22.2249 17.769C22.2249 18.6792 22.3095 19.5283 22.4787 20.3774C22.648 21.2417 22.9018 22.0602 23.2326 22.8404C23.5557 23.6206 23.9865 24.3473 24.4943 25.0051C24.9943 25.6706 25.602 26.2519 26.2713 26.7491C26.9483 27.2386 27.7176 27.6288 28.5484 27.8965C29.3793 28.1642 30.3101 28.3019 31.3102 28.3019C31.7871 28.3019 32.2872 28.2713 32.7795 28.2101C33.2796 28.1565 33.7873 28.0495 34.272 27.9194C34.7643 27.7894 35.249 27.6135 35.7182 27.3993C36.1798 27.1851 36.6183 26.9174 37.0337 26.6114L37.1953 26.489L37.9953 18.924C38.3877 18.8858 38.7877 18.8628 39.18 18.8399L39.5647 18.8093L39.6185 18.4421C39.7416 17.5931 39.7955 16.7287 39.7955 15.8796C39.7955 15.0306 39.7339 14.2657 39.5878 13.4778V13.4931L39.5724 13.5008ZM30.4717 14.1127C30.6486 13.8526 30.864 13.6308 31.1179 13.4549C31.3333 13.3095 31.5717 13.233 31.8641 13.233C32.0872 13.233 32.2564 13.2789 32.3872 13.3707C32.5487 13.4778 32.6641 13.6155 32.7641 13.7914C32.8642 13.975 32.9488 14.1892 32.9949 14.4187C33.0411 14.6328 33.0565 14.847 33.0719 15.0459L29.8947 15.3442C29.9332 15.2448 29.9716 15.13 30.0101 15.0229C30.1332 14.7017 30.287 14.3957 30.4793 14.1127H30.487H30.4717ZM37.1722 19.3677C36.8799 19.5665 36.526 19.7807 36.1259 20.0255C35.7259 20.2703 35.3028 20.4921 34.8643 20.6986C34.4335 20.9051 33.995 21.0811 33.5642 21.2188C32.3795 21.5859 31.5025 21.4329 30.8178 20.8975C30.4947 20.6451 30.2409 20.3544 30.0332 19.9796C31.4563 19.7731 32.8872 19.5742 34.3027 19.3677C35.449 19.1994 36.6029 19.0693 37.7645 18.9699L37.1799 19.3677H37.1722Z" fill="#FDF9F1"/>
<path d="M61.5432 17.6619C61.5432 19.3906 61.2432 20.8975 60.6354 22.152C60.0277 23.4141 59.2046 24.4467 58.1506 25.2652C57.0967 26.0836 55.8658 26.6803 54.458 27.0704C53.0502 27.4605 51.5424 27.6517 49.9192 27.6517C49.2961 27.6517 48.6114 27.5676 47.8729 27.3993C47.1267 27.231 46.3728 27.0321 45.6112 26.7797C44.8496 26.5273 44.1111 26.2672 43.4033 25.9842C42.6956 25.6935 42.0724 25.4258 41.5186 25.181L42.3571 17.7384C43.4418 18.3886 44.6419 18.8781 45.9651 19.207C47.2882 19.536 48.5806 19.7042 49.85 19.7042C50.0885 19.7042 50.3808 19.6966 50.727 19.6736C51.0732 19.6583 51.3963 19.5972 51.7117 19.5054C52.0271 19.4136 52.2886 19.2606 52.504 19.077C52.7194 18.8934 52.8271 18.6104 52.8271 18.2586C52.8271 18.0138 52.7502 17.8149 52.5963 17.639C52.4348 17.463 52.2425 17.333 52.004 17.2259C51.7578 17.1112 51.4886 17.027 51.1809 16.9735C50.8731 16.9199 50.5731 16.8741 50.2885 16.8511C49.9961 16.8358 49.7192 16.8129 49.4653 16.8129H48.8499C47.7498 16.8129 46.7574 16.6446 45.8574 16.3004C44.965 15.9562 44.188 15.4743 43.5495 14.847C42.9033 14.2198 42.4032 13.4549 42.0494 12.5676C41.6955 11.6803 41.5186 10.6859 41.5186 9.59205C41.5186 8.10047 41.8186 6.76186 42.4263 5.57625C43.0341 4.39063 43.8418 3.38094 44.8496 2.55483C45.8574 1.72872 47.019 1.09384 48.3345 0.650187C49.65 0.206536 50.9962 -0.0152893 52.404 -0.0152893C53.0272 -0.0152893 53.6734 9.00961e-06 54.3349 0.045904C54.9965 0.0917989 55.6581 0.16829 56.312 0.290677C56.9659 0.413064 57.6044 0.550748 58.2352 0.726679C58.8584 0.90261 59.4584 1.12444 60.0123 1.39216L59.2892 9.11016C58.4199 8.81949 57.5198 8.57472 56.5659 8.37584C55.612 8.17696 54.6965 8.07752 53.7887 8.07752C53.6195 8.07752 53.4041 8.07752 53.1425 8.08517C52.881 8.09282 52.6117 8.11577 52.3194 8.13871C52.0271 8.16931 51.7424 8.22285 51.4501 8.2764C51.1578 8.32994 50.8962 8.42173 50.6654 8.53647C50.4346 8.64356 50.2577 8.78889 50.1192 8.96482C49.9808 9.14075 49.9115 9.35493 49.9269 9.59205C49.9346 9.86742 50.05 10.0816 50.2423 10.2422C50.4346 10.4029 50.6962 10.5023 51.0039 10.5788C51.3116 10.6553 51.6578 10.6782 52.0425 10.6782C52.4271 10.6782 52.7887 10.6706 53.1579 10.6476C53.5349 10.6323 53.8734 10.6094 54.1965 10.5941C54.5119 10.5788 54.7734 10.5788 54.9811 10.5864C55.9966 10.6476 56.9198 10.8618 57.7275 11.2366C58.5353 11.6114 59.2353 12.0857 59.8046 12.6976C60.3739 13.3095 60.8047 14.0286 61.097 14.8776C61.397 15.719 61.5432 16.6446 61.5432 17.6543V17.6619Z" fill="#FDF9F1"/>
<path d="M53.7651 36.2558L5.54565 54.0103L7.779 60.0071L55.9985 42.2525L53.7651 36.2558Z" fill="#FDF9F1"/>
</g>
<defs>
<clipPath id="clip0_25_44">
<rect width="196" height="60" fill="white"/>
</clipPath>
</defs>
</svg>
