<?xml version="1.0" encoding="UTF-8"?>
<svg id="_레이어_3" data-name="레이어 3" xmlns="http://www.w3.org/2000/svg" viewBox="0 0 240.85 38.05">
  <defs>
    <style>
      .cls-1 {
        fill: #201c16;
      }
    </style>
  </defs>
  <path class="cls-1" d="M32.18,4.05l-1.69,31.85-12.31,1.13-6.58-17.05-1.03,17.38H0L.85,4.05l11.74-.56,8.13,16.91.38-15.97,11.08-.38Z"/>
  <path class="cls-1" d="M60.03,24.08c0,1.24-.14,2.43-.43,3.59-.29,1.15-.7,2.23-1.24,3.24-.54,1.01-1.19,1.93-1.96,2.77s-1.63,1.56-2.59,2.16c-.96.6-2.01,1.07-3.14,1.4-1.13.33-2.33.5-3.6.5s-2.39-.16-3.5-.47c-1.11-.31-2.15-.75-3.12-1.32s-1.84-1.25-2.62-2.04c-.78-.8-1.45-1.68-2-2.66-.55-.97-.98-2.02-1.29-3.14-.31-1.12-.46-2.28-.46-3.49s.14-2.35.43-3.48c.29-1.14.7-2.21,1.24-3.22.54-1.01,1.19-1.93,1.95-2.78.76-.84,1.62-1.57,2.56-2.19.95-.61,1.97-1.09,3.07-1.43,1.1-.34,2.27-.51,3.49-.51,1.97,0,3.78.31,5.4.92s3.02,1.49,4.17,2.62c1.15,1.14,2.04,2.51,2.68,4.13.63,1.61.95,3.42.95,5.4ZM50.57,24.61c0-.53-.08-1.04-.23-1.54-.15-.5-.38-.94-.67-1.33-.3-.39-.66-.7-1.1-.94-.44-.24-.94-.36-1.5-.36s-1.1.1-1.55.31c-.46.21-.85.5-1.17.86-.33.36-.58.79-.75,1.27-.17.49-.26,1-.26,1.54s.07,1.03.22,1.55c.15.52.37.98.66,1.4.3.42.66.76,1.1,1.02.44.26.94.39,1.52.39s1.1-.11,1.56-.34c.46-.23.85-.54,1.17-.92.32-.39.57-.83.74-1.34.17-.5.26-1.03.26-1.57Z"/>
  <path class="cls-1" d="M85.42,3.86c-.09,1.47-.18,2.93-.26,4.37-.08,1.44-.18,2.9-.31,4.37l-9.96.52-.23,2.96h7l-.52,7.28-7.05.23-.23,3.43h9.96c-.09,1.72-.19,3.43-.29,5.13-.1,1.7-.19,3.4-.27,5.11l-20.24.47.75-33.87h21.65Z"/>
  <path class="cls-1" d="M145.97,32.46c-.74.92-1.64,1.73-2.72,2.42-1.08.69-2.24,1.26-3.48,1.71-1.24.45-2.51.79-3.8,1.02-1.3.23-2.54.34-3.71.34-2.27,0-4.36-.38-6.27-1.15-1.91-.77-3.56-1.84-4.94-3.21-1.39-1.37-2.47-3-3.25-4.9-.78-1.89-1.17-3.96-1.17-6.2,0-1.71.2-3.37.59-4.98.39-1.61.95-3.12,1.68-4.53.73-1.41,1.62-2.7,2.67-3.88,1.05-1.17,2.24-2.18,3.57-3.03,1.33-.85,2.79-1.5,4.38-1.96,1.59-.46,3.28-.69,5.06-.69.67,0,1.39.03,2.16.08.77.06,1.53.15,2.29.28.76.13,1.5.32,2.22.55s1.38.52,1.97.87l-.66,8.97c-.88-.33-1.78-.55-2.71-.67-.93-.12-1.84-.18-2.74-.18-1.25,0-2.42.17-3.51.5-1.09.34-2.04.83-2.84,1.49-.81.66-1.44,1.48-1.91,2.47s-.7,2.13-.7,3.43c0,.81.11,1.6.33,2.36.22.76.55,1.43,1,2.02.45.59,1,1.06,1.67,1.42.67.36,1.44.54,2.31.54.59,0,1.21-.08,1.84-.23.63-.16,1.18-.42,1.63-.8l.09-1.83-5.64-.09.28-7.05c2.33-.08,4.67-.14,7-.2,2.33-.05,4.68-.13,7.05-.22l.28,15.31Z"/>
  <path class="cls-1" d="M169.35,25.28l-.99,10.43-19.77,1.55.75-33.54h12.21l-1.74,21.56h9.54Z"/>
  <path class="cls-1" d="M182.95,13.83l-1.18,22.96-9.11.37-.67-22.86,10.97-.47Z"/>
  <path class="cls-1" d="M211.47,25.7c0,2.15-.37,4-1.12,5.55-.74,1.56-1.76,2.84-3.05,3.85-1.29,1.01-2.8,1.75-4.53,2.23-1.73.48-3.59.72-5.58.72-.77,0-1.61-.1-2.52-.31s-1.84-.46-2.78-.76-1.84-.63-2.71-.99c-.87-.35-1.64-.69-2.31-1l1.03-9.21c1.33.8,2.81,1.41,4.43,1.82,1.62.42,3.21.62,4.78.62.3,0,.66-.01,1.08-.04s.83-.09,1.21-.21c.38-.12.71-.29.97-.53.27-.23.4-.57.4-1.01,0-.3-.09-.55-.28-.76-.19-.21-.43-.38-.73-.52-.3-.13-.63-.23-1.01-.31-.38-.07-.74-.12-1.1-.15-.36-.03-.7-.05-1.01-.05h-.75c-1.35,0-2.57-.21-3.67-.63-1.1-.42-2.05-1.02-2.84-1.8-.79-.77-1.41-1.71-1.84-2.82-.44-1.1-.66-2.33-.66-3.68,0-1.85.37-3.5,1.12-4.97.74-1.46,1.74-2.71,2.98-3.73,1.25-1.03,2.67-1.81,4.29-2.36,1.61-.55,3.28-.82,5-.82.77,0,1.56.03,2.37.08.81.06,1.62.15,2.43.29.81.14,1.59.32,2.36.54.77.22,1.49.49,2.18.82l-.89,9.54c-1.06-.36-2.18-.66-3.35-.9-1.17-.24-2.31-.36-3.42-.36-.2,0-.47,0-.79.01-.32,0-.66.03-1.01.07-.35.04-.71.1-1.07.18-.36.08-.68.18-.96.32-.28.13-.51.31-.68.53-.17.22-.25.48-.24.78.02.34.14.61.39.8.24.19.56.33.94.41s.81.13,1.27.13.92-.01,1.37-.04.88-.05,1.27-.07.71-.03.96-.01c1.25.08,2.38.34,3.38.8,1,.45,1.85,1.06,2.55,1.81.7.75,1.23,1.65,1.6,2.69.37,1.04.55,2.19.55,3.44Z"/>
  <path class="cls-1" d="M240.85,36.79l-11.74.56-.09-9.91h-5.4l-.33,10.29h-10.52l.89-33.02,11.18.52-.7,16.86h5.21l.05-17.66,10.71.28.75,32.08Z"/>
  <path class="cls-1" d="M113.97,36.65c.04-1.57.05-3.16.05-4.77v-2.84c0-1.04-.02-2.11-.07-3.22-.05-1.11-.15-2.24-.29-3.38-.14-1.15-.35-2.24-.62-3.3-.27-1.05-.63-2.05-1.07-2.98-.44-.93-.99-1.74-1.64-2.42-.65-.68-1.44-1.22-2.35-1.62-.91-.4-1.97-.6-3.18-.6-.65,0-1.28.09-1.87.27-.59.18-1.15.42-1.68.73-.53.31-1.02.67-1.48,1.1-.46.43-.89.88-1.29,1.37l.09-3.42-10.08.51c-.16,5.02-.37,10.02-.63,14.99-.17,3.2-.35,6.44-.53,9.67l10.72-.53c.01-.71.04-1.44.05-2.14.04-2.48.1-4.99.17-7.51,0-.31.01-.72.03-1.21.02-.49.06-1.01.13-1.57.06-.56.16-1.11.29-1.67.13-.56.3-1.06.52-1.51.22-.45.5-.81.83-1.1.33-.28.74-.43,1.23-.43.27,0,.5.15.69.44.19.29.36.67.49,1.12.13.46.24.96.32,1.51.08.55.14,1.08.18,1.6.04.52.07.99.09,1.4.01.41.02.71.02.9,0,2.56-.16,5.1-.47,7.61-.12.95-.25,1.9-.39,2.85l11.73.26s0-.06,0-.09Z"/>
  <circle class="cls-1" cx="177.47" cy="5.46" r="5.46"/>
</svg>